%TF.GenerationSoftware,KiCad,Pcbnew,8.0.4*%
%TF.CreationDate,2024-10-17T15:12:59+10:30*%
%TF.ProjectId,bias circuit,62696173-2063-4697-9263-7569742e6b69,rev?*%
%TF.SameCoordinates,Original*%
%TF.FileFunction,Legend,Top*%
%TF.FilePolarity,Positive*%
%FSLAX46Y46*%
G04 Gerber Fmt 4.6, Leading zero omitted, Abs format (unit mm)*
G04 Created by KiCad (PCBNEW 8.0.4) date 2024-10-17 15:12:59*
%MOMM*%
%LPD*%
G01*
G04 APERTURE LIST*
%ADD10C,0.150000*%
%ADD11C,0.120000*%
G04 APERTURE END LIST*
D10*
X141194819Y-97833333D02*
X141909104Y-97833333D01*
X141909104Y-97833333D02*
X142051961Y-97880952D01*
X142051961Y-97880952D02*
X142147200Y-97976190D01*
X142147200Y-97976190D02*
X142194819Y-98119047D01*
X142194819Y-98119047D02*
X142194819Y-98214285D01*
X141290057Y-97404761D02*
X141242438Y-97357142D01*
X141242438Y-97357142D02*
X141194819Y-97261904D01*
X141194819Y-97261904D02*
X141194819Y-97023809D01*
X141194819Y-97023809D02*
X141242438Y-96928571D01*
X141242438Y-96928571D02*
X141290057Y-96880952D01*
X141290057Y-96880952D02*
X141385295Y-96833333D01*
X141385295Y-96833333D02*
X141480533Y-96833333D01*
X141480533Y-96833333D02*
X141623390Y-96880952D01*
X141623390Y-96880952D02*
X142194819Y-97452380D01*
X142194819Y-97452380D02*
X142194819Y-96833333D01*
X130714819Y-97833333D02*
X131429104Y-97833333D01*
X131429104Y-97833333D02*
X131571961Y-97880952D01*
X131571961Y-97880952D02*
X131667200Y-97976190D01*
X131667200Y-97976190D02*
X131714819Y-98119047D01*
X131714819Y-98119047D02*
X131714819Y-98214285D01*
X131714819Y-96833333D02*
X131714819Y-97404761D01*
X131714819Y-97119047D02*
X130714819Y-97119047D01*
X130714819Y-97119047D02*
X130857676Y-97214285D01*
X130857676Y-97214285D02*
X130952914Y-97309523D01*
X130952914Y-97309523D02*
X131000533Y-97404761D01*
X138833333Y-109024819D02*
X138500000Y-108548628D01*
X138261905Y-109024819D02*
X138261905Y-108024819D01*
X138261905Y-108024819D02*
X138642857Y-108024819D01*
X138642857Y-108024819D02*
X138738095Y-108072438D01*
X138738095Y-108072438D02*
X138785714Y-108120057D01*
X138785714Y-108120057D02*
X138833333Y-108215295D01*
X138833333Y-108215295D02*
X138833333Y-108358152D01*
X138833333Y-108358152D02*
X138785714Y-108453390D01*
X138785714Y-108453390D02*
X138738095Y-108501009D01*
X138738095Y-108501009D02*
X138642857Y-108548628D01*
X138642857Y-108548628D02*
X138261905Y-108548628D01*
X139690476Y-108358152D02*
X139690476Y-109024819D01*
X139452381Y-107977200D02*
X139214286Y-108691485D01*
X139214286Y-108691485D02*
X139833333Y-108691485D01*
X138833333Y-104024819D02*
X138500000Y-103548628D01*
X138261905Y-104024819D02*
X138261905Y-103024819D01*
X138261905Y-103024819D02*
X138642857Y-103024819D01*
X138642857Y-103024819D02*
X138738095Y-103072438D01*
X138738095Y-103072438D02*
X138785714Y-103120057D01*
X138785714Y-103120057D02*
X138833333Y-103215295D01*
X138833333Y-103215295D02*
X138833333Y-103358152D01*
X138833333Y-103358152D02*
X138785714Y-103453390D01*
X138785714Y-103453390D02*
X138738095Y-103501009D01*
X138738095Y-103501009D02*
X138642857Y-103548628D01*
X138642857Y-103548628D02*
X138261905Y-103548628D01*
X139166667Y-103024819D02*
X139785714Y-103024819D01*
X139785714Y-103024819D02*
X139452381Y-103405771D01*
X139452381Y-103405771D02*
X139595238Y-103405771D01*
X139595238Y-103405771D02*
X139690476Y-103453390D01*
X139690476Y-103453390D02*
X139738095Y-103501009D01*
X139738095Y-103501009D02*
X139785714Y-103596247D01*
X139785714Y-103596247D02*
X139785714Y-103834342D01*
X139785714Y-103834342D02*
X139738095Y-103929580D01*
X139738095Y-103929580D02*
X139690476Y-103977200D01*
X139690476Y-103977200D02*
X139595238Y-104024819D01*
X139595238Y-104024819D02*
X139309524Y-104024819D01*
X139309524Y-104024819D02*
X139214286Y-103977200D01*
X139214286Y-103977200D02*
X139166667Y-103929580D01*
X138833333Y-99024819D02*
X138500000Y-98548628D01*
X138261905Y-99024819D02*
X138261905Y-98024819D01*
X138261905Y-98024819D02*
X138642857Y-98024819D01*
X138642857Y-98024819D02*
X138738095Y-98072438D01*
X138738095Y-98072438D02*
X138785714Y-98120057D01*
X138785714Y-98120057D02*
X138833333Y-98215295D01*
X138833333Y-98215295D02*
X138833333Y-98358152D01*
X138833333Y-98358152D02*
X138785714Y-98453390D01*
X138785714Y-98453390D02*
X138738095Y-98501009D01*
X138738095Y-98501009D02*
X138642857Y-98548628D01*
X138642857Y-98548628D02*
X138261905Y-98548628D01*
X139214286Y-98120057D02*
X139261905Y-98072438D01*
X139261905Y-98072438D02*
X139357143Y-98024819D01*
X139357143Y-98024819D02*
X139595238Y-98024819D01*
X139595238Y-98024819D02*
X139690476Y-98072438D01*
X139690476Y-98072438D02*
X139738095Y-98120057D01*
X139738095Y-98120057D02*
X139785714Y-98215295D01*
X139785714Y-98215295D02*
X139785714Y-98310533D01*
X139785714Y-98310533D02*
X139738095Y-98453390D01*
X139738095Y-98453390D02*
X139166667Y-99024819D01*
X139166667Y-99024819D02*
X139785714Y-99024819D01*
X138833333Y-94024819D02*
X138500000Y-93548628D01*
X138261905Y-94024819D02*
X138261905Y-93024819D01*
X138261905Y-93024819D02*
X138642857Y-93024819D01*
X138642857Y-93024819D02*
X138738095Y-93072438D01*
X138738095Y-93072438D02*
X138785714Y-93120057D01*
X138785714Y-93120057D02*
X138833333Y-93215295D01*
X138833333Y-93215295D02*
X138833333Y-93358152D01*
X138833333Y-93358152D02*
X138785714Y-93453390D01*
X138785714Y-93453390D02*
X138738095Y-93501009D01*
X138738095Y-93501009D02*
X138642857Y-93548628D01*
X138642857Y-93548628D02*
X138261905Y-93548628D01*
X139785714Y-94024819D02*
X139214286Y-94024819D01*
X139500000Y-94024819D02*
X139500000Y-93024819D01*
X139500000Y-93024819D02*
X139404762Y-93167676D01*
X139404762Y-93167676D02*
X139309524Y-93262914D01*
X139309524Y-93262914D02*
X139214286Y-93310533D01*
X133833333Y-108509580D02*
X133785714Y-108557200D01*
X133785714Y-108557200D02*
X133642857Y-108604819D01*
X133642857Y-108604819D02*
X133547619Y-108604819D01*
X133547619Y-108604819D02*
X133404762Y-108557200D01*
X133404762Y-108557200D02*
X133309524Y-108461961D01*
X133309524Y-108461961D02*
X133261905Y-108366723D01*
X133261905Y-108366723D02*
X133214286Y-108176247D01*
X133214286Y-108176247D02*
X133214286Y-108033390D01*
X133214286Y-108033390D02*
X133261905Y-107842914D01*
X133261905Y-107842914D02*
X133309524Y-107747676D01*
X133309524Y-107747676D02*
X133404762Y-107652438D01*
X133404762Y-107652438D02*
X133547619Y-107604819D01*
X133547619Y-107604819D02*
X133642857Y-107604819D01*
X133642857Y-107604819D02*
X133785714Y-107652438D01*
X133785714Y-107652438D02*
X133833333Y-107700057D01*
X134690476Y-107938152D02*
X134690476Y-108604819D01*
X134452381Y-107557200D02*
X134214286Y-108271485D01*
X134214286Y-108271485D02*
X134833333Y-108271485D01*
X133833333Y-103509580D02*
X133785714Y-103557200D01*
X133785714Y-103557200D02*
X133642857Y-103604819D01*
X133642857Y-103604819D02*
X133547619Y-103604819D01*
X133547619Y-103604819D02*
X133404762Y-103557200D01*
X133404762Y-103557200D02*
X133309524Y-103461961D01*
X133309524Y-103461961D02*
X133261905Y-103366723D01*
X133261905Y-103366723D02*
X133214286Y-103176247D01*
X133214286Y-103176247D02*
X133214286Y-103033390D01*
X133214286Y-103033390D02*
X133261905Y-102842914D01*
X133261905Y-102842914D02*
X133309524Y-102747676D01*
X133309524Y-102747676D02*
X133404762Y-102652438D01*
X133404762Y-102652438D02*
X133547619Y-102604819D01*
X133547619Y-102604819D02*
X133642857Y-102604819D01*
X133642857Y-102604819D02*
X133785714Y-102652438D01*
X133785714Y-102652438D02*
X133833333Y-102700057D01*
X134166667Y-102604819D02*
X134785714Y-102604819D01*
X134785714Y-102604819D02*
X134452381Y-102985771D01*
X134452381Y-102985771D02*
X134595238Y-102985771D01*
X134595238Y-102985771D02*
X134690476Y-103033390D01*
X134690476Y-103033390D02*
X134738095Y-103081009D01*
X134738095Y-103081009D02*
X134785714Y-103176247D01*
X134785714Y-103176247D02*
X134785714Y-103414342D01*
X134785714Y-103414342D02*
X134738095Y-103509580D01*
X134738095Y-103509580D02*
X134690476Y-103557200D01*
X134690476Y-103557200D02*
X134595238Y-103604819D01*
X134595238Y-103604819D02*
X134309524Y-103604819D01*
X134309524Y-103604819D02*
X134214286Y-103557200D01*
X134214286Y-103557200D02*
X134166667Y-103509580D01*
X133833333Y-98509580D02*
X133785714Y-98557200D01*
X133785714Y-98557200D02*
X133642857Y-98604819D01*
X133642857Y-98604819D02*
X133547619Y-98604819D01*
X133547619Y-98604819D02*
X133404762Y-98557200D01*
X133404762Y-98557200D02*
X133309524Y-98461961D01*
X133309524Y-98461961D02*
X133261905Y-98366723D01*
X133261905Y-98366723D02*
X133214286Y-98176247D01*
X133214286Y-98176247D02*
X133214286Y-98033390D01*
X133214286Y-98033390D02*
X133261905Y-97842914D01*
X133261905Y-97842914D02*
X133309524Y-97747676D01*
X133309524Y-97747676D02*
X133404762Y-97652438D01*
X133404762Y-97652438D02*
X133547619Y-97604819D01*
X133547619Y-97604819D02*
X133642857Y-97604819D01*
X133642857Y-97604819D02*
X133785714Y-97652438D01*
X133785714Y-97652438D02*
X133833333Y-97700057D01*
X134214286Y-97700057D02*
X134261905Y-97652438D01*
X134261905Y-97652438D02*
X134357143Y-97604819D01*
X134357143Y-97604819D02*
X134595238Y-97604819D01*
X134595238Y-97604819D02*
X134690476Y-97652438D01*
X134690476Y-97652438D02*
X134738095Y-97700057D01*
X134738095Y-97700057D02*
X134785714Y-97795295D01*
X134785714Y-97795295D02*
X134785714Y-97890533D01*
X134785714Y-97890533D02*
X134738095Y-98033390D01*
X134738095Y-98033390D02*
X134166667Y-98604819D01*
X134166667Y-98604819D02*
X134785714Y-98604819D01*
X133833333Y-93509580D02*
X133785714Y-93557200D01*
X133785714Y-93557200D02*
X133642857Y-93604819D01*
X133642857Y-93604819D02*
X133547619Y-93604819D01*
X133547619Y-93604819D02*
X133404762Y-93557200D01*
X133404762Y-93557200D02*
X133309524Y-93461961D01*
X133309524Y-93461961D02*
X133261905Y-93366723D01*
X133261905Y-93366723D02*
X133214286Y-93176247D01*
X133214286Y-93176247D02*
X133214286Y-93033390D01*
X133214286Y-93033390D02*
X133261905Y-92842914D01*
X133261905Y-92842914D02*
X133309524Y-92747676D01*
X133309524Y-92747676D02*
X133404762Y-92652438D01*
X133404762Y-92652438D02*
X133547619Y-92604819D01*
X133547619Y-92604819D02*
X133642857Y-92604819D01*
X133642857Y-92604819D02*
X133785714Y-92652438D01*
X133785714Y-92652438D02*
X133833333Y-92700057D01*
X134785714Y-93604819D02*
X134214286Y-93604819D01*
X134500000Y-93604819D02*
X134500000Y-92604819D01*
X134500000Y-92604819D02*
X134404762Y-92747676D01*
X134404762Y-92747676D02*
X134309524Y-92842914D01*
X134309524Y-92842914D02*
X134214286Y-92890533D01*
D11*
%TO.C,J2*%
X152160000Y-112800000D02*
X152900000Y-112800000D01*
X152900000Y-112800000D02*
X152900000Y-112300000D01*
X142739000Y-112560000D02*
X152660000Y-112560000D01*
X142739000Y-112560000D02*
X142739000Y-82440000D01*
X145699000Y-112560000D02*
X145699000Y-82440000D01*
X150600000Y-112560000D02*
X150600000Y-82440000D01*
X152100000Y-112560000D02*
X152100000Y-82440000D01*
X152660000Y-112560000D02*
X152660000Y-82440000D01*
X149023000Y-106227000D02*
X149069000Y-106274000D01*
X149239000Y-106034000D02*
X149274000Y-106069000D01*
X146725000Y-103930000D02*
X146761000Y-103965000D01*
X146931000Y-103725000D02*
X146977000Y-103772000D01*
X149023000Y-101227000D02*
X149069000Y-101274000D01*
X149239000Y-101034000D02*
X149274000Y-101069000D01*
X146725000Y-98930000D02*
X146761000Y-98965000D01*
X146931000Y-98725000D02*
X146977000Y-98772000D01*
X149023000Y-96227000D02*
X149069000Y-96274000D01*
X149239000Y-96034000D02*
X149274000Y-96069000D01*
X146725000Y-93930000D02*
X146761000Y-93965000D01*
X146931000Y-93725000D02*
X146977000Y-93772000D01*
X149023000Y-91227000D02*
X149069000Y-91274000D01*
X149239000Y-91034000D02*
X149274000Y-91069000D01*
X146725000Y-88930000D02*
X146761000Y-88965000D01*
X146931000Y-88725000D02*
X146977000Y-88772000D01*
X149023000Y-86227000D02*
X149069000Y-86274000D01*
X149239000Y-86034000D02*
X149274000Y-86069000D01*
X146725000Y-83930000D02*
X146761000Y-83965000D01*
X146931000Y-83725000D02*
X146977000Y-83772000D01*
X142739000Y-82440000D02*
X152660000Y-82440000D01*
X148683042Y-111535427D02*
G75*
G02*
X147316000Y-111535000I-683041J1535420D01*
G01*
X146464573Y-110683042D02*
G75*
G02*
X146465000Y-109316000I1535420J683041D01*
G01*
X149680253Y-109971195D02*
G75*
G02*
X149535000Y-110684000I-1680254J-28806D01*
G01*
X149534756Y-109316682D02*
G75*
G02*
X149680000Y-110000000I-1534756J-683318D01*
G01*
X147316958Y-108464573D02*
G75*
G02*
X148684000Y-108465000I683042J-1535427D01*
G01*
X149680000Y-105000000D02*
G75*
G02*
X146320000Y-105000000I-1680000J0D01*
G01*
X146320000Y-105000000D02*
G75*
G02*
X149680000Y-105000000I1680000J0D01*
G01*
X149680000Y-100000000D02*
G75*
G02*
X146320000Y-100000000I-1680000J0D01*
G01*
X146320000Y-100000000D02*
G75*
G02*
X149680000Y-100000000I1680000J0D01*
G01*
X149680000Y-95000000D02*
G75*
G02*
X146320000Y-95000000I-1680000J0D01*
G01*
X146320000Y-95000000D02*
G75*
G02*
X149680000Y-95000000I1680000J0D01*
G01*
X149680000Y-90000000D02*
G75*
G02*
X146320000Y-90000000I-1680000J0D01*
G01*
X146320000Y-90000000D02*
G75*
G02*
X149680000Y-90000000I1680000J0D01*
G01*
X149680000Y-85000000D02*
G75*
G02*
X146320000Y-85000000I-1680000J0D01*
G01*
X146320000Y-85000000D02*
G75*
G02*
X149680000Y-85000000I1680000J0D01*
G01*
%TO.C,J1*%
X126680000Y-110000000D02*
G75*
G02*
X123320000Y-110000000I-1680000J0D01*
G01*
X123320000Y-110000000D02*
G75*
G02*
X126680000Y-110000000I1680000J0D01*
G01*
X126680000Y-105000000D02*
G75*
G02*
X123320000Y-105000000I-1680000J0D01*
G01*
X123320000Y-105000000D02*
G75*
G02*
X126680000Y-105000000I1680000J0D01*
G01*
X126680000Y-100000000D02*
G75*
G02*
X123320000Y-100000000I-1680000J0D01*
G01*
X123320000Y-100000000D02*
G75*
G02*
X126680000Y-100000000I1680000J0D01*
G01*
X126680000Y-95000000D02*
G75*
G02*
X123320000Y-95000000I-1680000J0D01*
G01*
X123320000Y-95000000D02*
G75*
G02*
X126680000Y-95000000I1680000J0D01*
G01*
X126680000Y-90000000D02*
G75*
G02*
X123320000Y-90000000I-1680000J0D01*
G01*
X123320000Y-90000000D02*
G75*
G02*
X126680000Y-90000000I1680000J0D01*
G01*
X125683042Y-86535427D02*
G75*
G02*
X124316000Y-86535000I-683042J1535427D01*
G01*
X123465244Y-85683318D02*
G75*
G02*
X123320000Y-85000000I1534756J683318D01*
G01*
X123319747Y-85028805D02*
G75*
G02*
X123465000Y-84316000I1680254J28806D01*
G01*
X126535427Y-84316958D02*
G75*
G02*
X126535000Y-85684000I-1535420J-683041D01*
G01*
X124316958Y-83464573D02*
G75*
G02*
X125684000Y-83465000I683041J-1535420D01*
G01*
X130261000Y-112560000D02*
X120340000Y-112560000D01*
X126069000Y-111275000D02*
X126023000Y-111228000D01*
X126275000Y-111070000D02*
X126239000Y-111035000D01*
X123761000Y-108966000D02*
X123726000Y-108931000D01*
X123977000Y-108773000D02*
X123931000Y-108726000D01*
X126069000Y-106275000D02*
X126023000Y-106228000D01*
X126275000Y-106070000D02*
X126239000Y-106035000D01*
X123761000Y-103966000D02*
X123726000Y-103931000D01*
X123977000Y-103773000D02*
X123931000Y-103726000D01*
X126069000Y-101275000D02*
X126023000Y-101228000D01*
X126275000Y-101070000D02*
X126239000Y-101035000D01*
X123761000Y-98966000D02*
X123726000Y-98931000D01*
X123977000Y-98773000D02*
X123931000Y-98726000D01*
X126069000Y-96275000D02*
X126023000Y-96228000D01*
X126275000Y-96070000D02*
X126239000Y-96035000D01*
X123761000Y-93966000D02*
X123726000Y-93931000D01*
X123977000Y-93773000D02*
X123931000Y-93726000D01*
X126069000Y-91275000D02*
X126023000Y-91228000D01*
X126275000Y-91070000D02*
X126239000Y-91035000D01*
X123761000Y-88966000D02*
X123726000Y-88931000D01*
X123977000Y-88773000D02*
X123931000Y-88726000D01*
X120340000Y-82440000D02*
X120340000Y-112560000D01*
X120900000Y-82440000D02*
X120900000Y-112560000D01*
X122400000Y-82440000D02*
X122400000Y-112560000D01*
X127301000Y-82440000D02*
X127301000Y-112560000D01*
X130261000Y-82440000D02*
X130261000Y-112560000D01*
X130261000Y-82440000D02*
X120340000Y-82440000D01*
X120100000Y-82200000D02*
X120100000Y-82700000D01*
X120840000Y-82200000D02*
X120100000Y-82200000D01*
%TO.C,R4*%
X138762742Y-110522500D02*
X139237258Y-110522500D01*
X138762742Y-109477500D02*
X139237258Y-109477500D01*
%TO.C,R3*%
X138762742Y-105522500D02*
X139237258Y-105522500D01*
X138762742Y-104477500D02*
X139237258Y-104477500D01*
%TO.C,R2*%
X138762742Y-100522500D02*
X139237258Y-100522500D01*
X138762742Y-99477500D02*
X139237258Y-99477500D01*
%TO.C,R1*%
X138762742Y-95522500D02*
X139237258Y-95522500D01*
X138762742Y-94477500D02*
X139237258Y-94477500D01*
%TO.C,C4*%
X133288748Y-110910000D02*
X134711252Y-110910000D01*
X133288748Y-109090000D02*
X134711252Y-109090000D01*
%TO.C,C3*%
X133288748Y-105910000D02*
X134711252Y-105910000D01*
X133288748Y-104090000D02*
X134711252Y-104090000D01*
%TO.C,C2*%
X133288748Y-100910000D02*
X134711252Y-100910000D01*
X133288748Y-99090000D02*
X134711252Y-99090000D01*
%TO.C,C1*%
X133288748Y-95910000D02*
X134711252Y-95910000D01*
X133288748Y-94090000D02*
X134711252Y-94090000D01*
%TD*%
M02*
