999
dxfrw 0.6.3
  0
SECTION
  2
HEADER
  9
$ACADVER
  1
AC1021
  9
$DWGCODEPAGE
  3
ANSI_1252
  9
$INSBASE
 10
0
 20
0
 30
0
  9
$EXTMIN
 10
0
 20
0
 30
0
  9
$EXTMAX
 10
211.667
 20
67.5778
 30
0
  9
$LIMMIN
 10
0
 20
0
  9
$LIMMAX
 10
420
 20
297
  9
$ORTHOMODE
 70
    0
  9
$REGENMODE
 70
    1
  9
$FILLMODE
 70
    0
  9
$QTEXTMODE
 70
    0
  9
$MIRRTEXT
 70
    0
  9
$LTSCALE
 40
1
  9
$ATTMODE
 70
    0
  9
$TEXTSIZE
 40
2.5
  9
$TRACEWID
 40
15.68
  9
$TEXTSTYLE
  7
STANDARD
  9
$CLAYER
  8
0
  9
$CELTYPE
  6
BYLAYER
  9
$CECOLOR
 62
  256
  9
$CELTSCALE
 40
1
  9
$DISPSILH
 70
    0
  9
$DIMSCALE
 40
2.5
  9
$DIMASZ
 40
2.5
  9
$DIMEXO
 40
0.625
  9
$DIMDLI
 40
3.75
  9
$DIMRND
 40
0
  9
$DIMDLE
 40
0
  9
$DIMEXE
 40
1.25
  9
$DIMTP
 40
0
  9
$DIMTM
 40
0
  9
$DIMTXT
 40
2.5
  9
$DIMCEN
 40
2.5
  9
$DIMTSZ
 40
0
  9
$DIMTOL
 70
    0
  9
$DIMLIM
 70
    0
  9
$DIMTIH
 70
    0
  9
$DIMTOH
 70
    0
  9
$DIMSE1
 70
    0
  9
$DIMSE2
 70
    0
  9
$DIMTAD
 70
    1
  9
$DIMZIN
 70
    8
  9
$DIMBLK
  1

  9
$DIMASO
 70
    1
  9
$DIMSHO
 70
    1
  9
$DIMPOST
  1

  9
$DIMAPOST
  1

  9
$DIMALT
 70
    0
  9
$DIMALTD
 70
    3
  9
$DIMALTF
 40
0.03937
  9
$DIMLFAC
 40
1
  9
$DIMTOFL
 70
    1
  9
$DIMTVP
 40
0
  9
$DIMTIX
 70
    0
  9
$DIMSOXD
 70
    0
  9
$DIMSAH
 70
    0
  9
$DIMBLK1
  1

  9
$DIMBLK2
  1

  9
$DIMSTYLE
  2
Standard
  9
$DIMCLRD
 70
    0
  9
$DIMCLRE
 70
    0
  9
$DIMCLRT
 70
    0
  9
$DIMTFAC
 40
1
  9
$DIMGAP
 40
0.625
  9
$DIMJUST
 70
    0
  9
$DIMSD1
 70
    0
  9
$DIMSD2
 70
    0
  9
$DIMTOLJ
 70
    0
  9
$DIMTZIN
 70
    8
  9
$DIMALTZ
 70
    0
  9
$DIMALTTZ
 70
    0
  9
$DIMUPT
 70
    0
  9
$DIMDEC
 70
    2
  9
$DIMTDEC
 70
    2
  9
$DIMALTU
 70
    2
  9
$DIMALTTD
 70
    3
  9
$DIMTXSTY
  7
STANDARD
  9
$DIMAUNIT
 70
    0
  9
$DIMADEC
 70
    0
  9
$DIMALTRND
 40
0
  9
$DIMAZIN
 70
    0
  9
$DIMDSEP
 70
   44
  9
$DIMATFIT
 70
    3
  9
$DIMFRAC
 70
    0
  9
$DIMLDRBLK
  1
STANDARD
  9
$DIMLUNIT
 70
    2
  9
$DIMLWD
 70
   -2
  9
$DIMLWE
 70
   -2
  9
$DIMTMOVE
 70
    0
  9
$DIMFXL
 40
1
  9
$DIMFXLON
 70
    0
  9
$DIMJOGANG
 40
0.7854
  9
$DIMTFILL
 70
    0
  9
$DIMTFILLCLR
 70
    0
  9
$DIMARCSYM
 70
    0
  9
$DIMLTYPE
  6

  9
$DIMLTEX1
  6

  9
$DIMLTEX2
  6

  9
$LUNITS
 70
    2
  9
$LUPREC
 70
    4
  9
$SKETCHINC
 40
1
  9
$FILLETRAD
 40
0
  9
$AUNITS
 70
    0
  9
$AUPREC
 70
    2
  9
$MENU
  1
.
  9
$ELEVATION
 40
0
  9
$PELEVATION
 40
0
  9
$THICKNESS
 40
0
  9
$LIMCHECK
 70
    0
  9
$CHAMFERA
 40
0
  9
$CHAMFERB
 40
0
  9
$CHAMFERC
 40
0
  9
$CHAMFERD
 40
0
  9
$SKPOLY
 70
    0
  9
$USRTIMER
 70
    1
  9
$ANGBASE
 50
0
  9
$ANGDIR
 70
    0
  9
$PDMODE
 70
   34
  9
$PDSIZE
 40
0
  9
$PLINEWID
 40
0
  9
$SPLFRAME
 70
    1
  9
$SPLINETYPE
 70
    2
  9
$SPLINESEGS
 70
    8
  9
$HANDSEED
  5
20000
  9
$SURFTAB1
 70
    6
  9
$SURFTAB2
 70
    6
  9
$SURFTYPE
 70
    6
  9
$SURFU
 70
    6
  9
$SURFV
 70
    6
  9
$UCSBASE
  2

  9
$UCSNAME
  2

  9
$UCSORG
 10
0
 20
0
 30
0
  9
$UCSXDIR
 10
1
 20
0
 30
0
  9
$UCSYDIR
 10
0
 20
1
 30
0
  9
$UCSORTHOREF
  2

  9
$UCSORTHOVIEW
 70
    0
  9
$UCSORGTOP
 10
0
 20
0
 30
0
  9
$UCSORGBOTTOM
 10
0
 20
0
 30
0
  9
$UCSORGLEFT
 10
0
 20
0
 30
0
  9
$UCSORGRIGHT
 10
0
 20
0
 30
0
  9
$UCSORGFRONT
 10
0
 20
0
 30
0
  9
$UCSORGBACK
 10
0
 20
0
 30
0
  9
$PUCSBASE
  2

  9
$PUCSNAME
  2

  9
$PUCSORG
 10
0
 20
0
 30
0
  9
$PUCSXDIR
 10
1
 20
0
 30
0
  9
$PUCSYDIR
 10
0
 20
1
 30
0
  9
$PUCSORTHOREF
  2

  9
$PUCSORTHOVIEW
 70
    0
  9
$PUCSORGTOP
 10
0
 20
0
 30
0
  9
$PUCSORGBOTTOM
 10
0
 20
0
 30
0
  9
$PUCSORGLEFT
 10
0
 20
0
 30
0
  9
$PUCSORGRIGHT
 10
0
 20
0
 30
0
  9
$PUCSORGFRONT
 10
0
 20
0
 30
0
  9
$PUCSORGBACK
 10
0
 20
0
 30
0
  9
$USERI1
 70
    0
  9
$USERI2
 70
    0
  9
$USERI3
 70
    0
  9
$USERI4
 70
    0
  9
$USERI5
 70
    0
  9
$USERR1
 40
0
  9
$USERR2
 40
0
  9
$USERR3
 40
0
  9
$USERR4
 40
0
  9
$USERR5
 40
0
  9
$WORLDVIEW
 70
    1
  9
$SHADEDGE
 70
    3
  9
$SHADEDIF
 70
   70
  9
$TILEMODE
 70
    1
  9
$MAXACTVP
 70
   64
  9
$PINSBASE
 10
0
 20
0
 30
0
  9
$PLIMCHECK
 70
    0
  9
$PEXTMIN
 10
0
 20
0
 30
0
  9
$PEXTMAX
 10
0
 20
0
 30
0
  9
$SNAPSTYLE
 70
    0
  9
$PLIMMIN
 10
0
 20
0
  9
$PLIMMAX
 10
210
 20
297
  9
$UNITMODE
 70
    0
  9
$VISRETAIN
 70
    1
  9
$PLINEGEN
 70
    0
  9
$PSLTSCALE
 70
    1
  9
$TREEDEPTH
 70
 3020
  9
$CMLSTYLE
  2
Standard
  9
$CMLJUST
 70
    0
  9
$CMLSCALE
 40
20
  9
$PROXYGRAPHICS
 70
    1
  9
$MEASUREMENT
 70
    1
  9
$CELWEIGHT
370
   -1
  9
$ENDCAPS
280
    0
  9
$JOINSTYLE
280
    0
  9
$LWDISPLAY
290
    0
  9
$INSUNITS
 70
    4
  9
$HYPERLINKBASE
  1

  9
$STYLESHEET
  1

  9
$XEDIT
290
    1
  9
$CEPSNTYPE
380
    0
  9
$PSTYLEMODE
290
    1
  9
$EXTNAMES
290
    1
  9
$PSVPSCALE
 40
1
  9
$OLESTARTUP
290
    0
  9
$SORTENTS
280
  127
  9
$INDEXCTL
280
    0
  9
$HIDETEXT
280
    1
  9
$XCLIPFRAME
290
    0
  9
$HALOGAP
280
    0
  9
$OBSCOLOR
 70
  257
  9
$OBSLTYPE
280
    0
  9
$INTERSECTIONDISPLAY
280
    0
  9
$INTERSECTIONCOLOR
 70
  257
  9
$DIMASSOC
280
    1
  9
$PROJECTNAME
  1

  9
$CAMERADISPLAY
290
    0
  9
$LENSLENGTH
 40
50
  9
$CAMERAHEIGHT
 40
0
  9
$STEPSPERSEC
 40
2
  9
$STEPSIZE
 40
50
  9
$3DDWFPREC
 40
2
  9
$PSOLWIDTH
 40
5
  9
$PSOLHEIGHT
 40
80
  9
$LOFTANG1
 40
1.570796326794897
  9
$LOFTANG2
 40
1.570796326794897
  9
$LOFTMAG1
 40
0
  9
$LOFTMAG2
 40
0
  9
$LOFTPARAM
 70
    7
  9
$LOFTNORMALS
280
    1
  9
$LATITUDE
 40
1
  9
$LONGITUDE
 40
1
  9
$NORTHDIRECTION
 40
0
  9
$TIMEZONE
 70
-8000
  9
$LIGHTGLYPHDISPLAY
280
    1
  9
$TILEMODELIGHTSYNCH
280
    1
  9
$SOLIDHIST
280
    1
  9
$SHOWHIST
280
    1
  9
$DWFFRAME
280
    2
  9
$DGNFRAME
280
    0
  9
$REALWORLDSCALE
290
    1
  9
$INTERFERECOLOR
 62
    1
  9
$CSHADOW
280
    0
  9
$SHADOWPLANELOCATION
 40
0
  0
ENDSEC
  0
SECTION
  2
CLASSES
  0
ENDSEC
  0
SECTION
  2
TABLES
  0
TABLE
  2
VPORT
  5
8
330
0
100
AcDbSymbolTable
 70
    1
  0
VPORT
  5
31
330
2
100
AcDbSymbolTableRecord
100
AcDbViewportTableRecord
  2
*ACTIVE
 70
    0
 10
0
 20
0
 11
1
 21
1
 12
183.25
 22
55.125
 13
0
 23
0
 14
10
 24
10
 15
10
 25
10
 16
0
 26
0
 36
1
 17
0
 27
0
 37
0
 40
173.75
 41
2.251798561151079
 42
50
 43
0
 44
0
 50
0
 51
0
 71
    0
 72
  100
 73
    1
 74
    3
 75
    0
 76
    1
 77
    0
 78
    0
281
    0
 65
    1
110
0
120
0
130
0
111
1
121
0
131
0
112
0
122
1
132
0
 79
    0
146
0
348
10020
 60
    7
 61
    5
292
1
282
    1
141
0
142
0
 63
  250
421
3358443
  0
ENDTAB
  0
TABLE
  2
LTYPE
  5
5
330
0
100
AcDbSymbolTable
 70
    4
  0
LTYPE
  5
14
330
5
100
AcDbSymbolTableRecord
100
AcDbLinetypeTableRecord
  2
ByBlock
 70
    0
  3

 72
   65
 73
    0
 40
0
  0
LTYPE
  5
15
330
5
100
AcDbSymbolTableRecord
100
AcDbLinetypeTableRecord
  2
ByLayer
 70
    0
  3

 72
   65
 73
    0
 40
0
  0
LTYPE
  5
16
330
5
100
AcDbSymbolTableRecord
100
AcDbLinetypeTableRecord
  2
Continuous
 70
    0
  3
Solid line
 72
   65
 73
    0
 40
0
  0
LTYPE
  5
32
330
5
100
AcDbSymbolTableRecord
100
AcDbLinetypeTableRecord
  2
DOT
 70
    0
  3
Dot . . . . . . . . . . . . . . . . . . . . . .
 72
   65
 73
    2
 40
6.35
 49
0
 74
    0
 49
-6.35
 74
    0
  0
LTYPE
  5
33
330
5
100
AcDbSymbolTableRecord
100
AcDbLinetypeTableRecord
  2
DOTTINY
 70
    0
  3
Dot (.15x) .....................................
 72
   65
 73
    2
 40
0.9525
 49
0
 74
    0
 49
-0.9525
 74
    0
  0
LTYPE
  5
34
330
5
100
AcDbSymbolTableRecord
100
AcDbLinetypeTableRecord
  2
DOT2
 70
    0
  3
Dot (.5x) .....................................
 72
   65
 73
    2
 40
3.175
 49
0
 74
    0
 49
-3.175
 74
    0
  0
LTYPE
  5
35
330
5
100
AcDbSymbolTableRecord
100
AcDbLinetypeTableRecord
  2
DOTX2
 70
    0
  3
Dot (2x) .  .  .  .  .  .  .  .  .  .  .  .  .
 72
   65
 73
    2
 40
12.7
 49
0
 74
    0
 49
-12.7
 74
    0
  0
LTYPE
  5
36
330
5
100
AcDbSymbolTableRecord
100
AcDbLinetypeTableRecord
  2
DASHED
 70
    0
  3
Dashed _ _ _ _ _ _ _ _ _ _ _ _ _ _ _ _ _
 72
   65
 73
    2
 40
19.05
 49
12.7
 74
    0
 49
-6.35
 74
    0
  0
LTYPE
  5
37
330
5
100
AcDbSymbolTableRecord
100
AcDbLinetypeTableRecord
  2
DASHEDTINY
 70
    0
  3
Dashed (.15x) _ _ _ _ _ _ _ _ _ _ _ _ _ _ _ _ _
 72
   65
 73
    2
 40
2.8575
 49
1.905
 74
    0
 49
-0.9525
 74
    0
  0
LTYPE
  5
38
330
5
100
AcDbSymbolTableRecord
100
AcDbLinetypeTableRecord
  2
DASHED2
 70
    0
  3
Dashed (.5x) _ _ _ _ _ _ _ _ _ _ _ _ _ _ _ _ _
 72
   65
 73
    2
 40
9.524999999999999
 49
6.35
 74
    0
 49
-3.175
 74
    0
  0
LTYPE
  5
39
330
5
100
AcDbSymbolTableRecord
100
AcDbLinetypeTableRecord
  2
DASHEDX2
 70
    0
  3
Dashed (2x) ____  ____  ____  ____  ____  ___
 72
   65
 73
    2
 40
38.09999999999999
 49
25.4
 74
    0
 49
-12.7
 74
    0
  0
LTYPE
  5
3A
330
5
100
AcDbSymbolTableRecord
100
AcDbLinetypeTableRecord
  2
DASHDOT
 70
    0
  3
Dash dot __ . __ . __ . __ . __ . __ . __ . __
 72
   65
 73
    4
 40
25.4
 49
12.7
 74
    0
 49
-6.35
 74
    0
 49
0
 74
    0
 49
-6.35
 74
    0
  0
LTYPE
  5
3B
330
5
100
AcDbSymbolTableRecord
100
AcDbLinetypeTableRecord
  2
DASHDOTTINY
 70
    0
  3
Dash dot (.15x) _._._._._._._._._._._._._._._.
 72
   65
 73
    4
 40
3.81
 49
1.905
 74
    0
 49
-0.9525
 74
    0
 49
0
 74
    0
 49
-0.9525
 74
    0
  0
LTYPE
  5
3C
330
5
100
AcDbSymbolTableRecord
100
AcDbLinetypeTableRecord
  2
DASHDOT2
 70
    0
  3
Dash dot (.5x) _._._._._._._._._._._._._._._.
 72
   65
 73
    4
 40
12.7
 49
6.35
 74
    0
 49
-3.175
 74
    0
 49
0
 74
    0
 49
-3.175
 74
    0
  0
LTYPE
  5
3D
330
5
100
AcDbSymbolTableRecord
100
AcDbLinetypeTableRecord
  2
DASHDOTX2
 70
    0
  3
Dash dot (2x) ____  .  ____  .  ____  .  ___
 72
   65
 73
    4
 40
50.8
 49
25.4
 74
    0
 49
-12.7
 74
    0
 49
0
 74
    0
 49
-12.7
 74
    0
  0
LTYPE
  5
3E
330
5
100
AcDbSymbolTableRecord
100
AcDbLinetypeTableRecord
  2
DIVIDE
 70
    0
  3
Divide ____ . . ____ . . ____ . . ____ . . ____
 72
   65
 73
    6
 40
31.75
 49
12.7
 74
    0
 49
-6.35
 74
    0
 49
0
 74
    0
 49
-6.35
 74
    0
 49
0
 74
    0
 49
-6.35
 74
    0
  0
LTYPE
  5
3F
330
5
100
AcDbSymbolTableRecord
100
AcDbLinetypeTableRecord
  2
DIVIDETINY
 70
    0
  3
Divide (.15x) __..__..__..__..__..__..__..__.._
 72
   65
 73
    6
 40
4.7625
 49
1.905
 74
    0
 49
-0.9525
 74
    0
 49
0
 74
    0
 49
-0.9525
 74
    0
 49
0
 74
    0
 49
-0.9525
 74
    0
  0
LTYPE
  5
40
330
5
100
AcDbSymbolTableRecord
100
AcDbLinetypeTableRecord
  2
DIVIDE2
 70
    0
  3
Divide (.5x) __..__..__..__..__..__..__..__.._
 72
   65
 73
    6
 40
15.875
 49
6.35
 74
    0
 49
-3.175
 74
    0
 49
0
 74
    0
 49
-3.175
 74
    0
 49
0
 74
    0
 49
-3.175
 74
    0
  0
LTYPE
  5
41
330
5
100
AcDbSymbolTableRecord
100
AcDbLinetypeTableRecord
  2
DIVIDEX2
 70
    0
  3
Divide (2x) ________  .  .  ________  .  .  _
 72
   65
 73
    6
 40
63.5
 49
25.4
 74
    0
 49
-12.7
 74
    0
 49
0
 74
    0
 49
-12.7
 74
    0
 49
0
 74
    0
 49
-12.7
 74
    0
  0
LTYPE
  5
42
330
5
100
AcDbSymbolTableRecord
100
AcDbLinetypeTableRecord
  2
BORDER
 70
    0
  3
Border __ __ . __ __ . __ __ . __ __ . __ __ .
 72
   65
 73
    6
 40
44.45
 49
12.7
 74
    0
 49
-6.35
 74
    0
 49
12.7
 74
    0
 49
-6.35
 74
    0
 49
0
 74
    0
 49
-6.35
 74
    0
  0
LTYPE
  5
43
330
5
100
AcDbSymbolTableRecord
100
AcDbLinetypeTableRecord
  2
BORDERTINY
 70
    0
  3
Border (.15x) __.__.__.__.__.__.__.__.__.__.__.
 72
   65
 73
    6
 40
6.6675
 49
1.905
 74
    0
 49
-0.9525
 74
    0
 49
1.905
 74
    0
 49
-0.9525
 74
    0
 49
0
 74
    0
 49
-0.9525
 74
    0
  0
LTYPE
  5
44
330
5
100
AcDbSymbolTableRecord
100
AcDbLinetypeTableRecord
  2
BORDER2
 70
    0
  3
Border (.5x) __.__.__.__.__.__.__.__.__.__.__.
 72
   65
 73
    6
 40
22.225
 49
6.35
 74
    0
 49
-3.175
 74
    0
 49
6.35
 74
    0
 49
-3.175
 74
    0
 49
0
 74
    0
 49
-3.175
 74
    0
  0
LTYPE
  5
45
330
5
100
AcDbSymbolTableRecord
100
AcDbLinetypeTableRecord
  2
BORDERX2
 70
    0
  3
Border (2x) ____  ____  .  ____  ____  .  ___
 72
   65
 73
    6
 40
88.89999999999999
 49
25.4
 74
    0
 49
-12.7
 74
    0
 49
25.4
 74
    0
 49
-12.7
 74
    0
 49
0
 74
    0
 49
-12.7
 74
    0
  0
LTYPE
  5
46
330
5
100
AcDbSymbolTableRecord
100
AcDbLinetypeTableRecord
  2
CENTER
 70
    0
  3
Center ____ _ ____ _ ____ _ ____ _ ____ _ ____
 72
   65
 73
    4
 40
50.8
 49
31.75
 74
    0
 49
-6.35
 74
    0
 49
6.35
 74
    0
 49
-6.35
 74
    0
  0
LTYPE
  5
47
330
5
100
AcDbSymbolTableRecord
100
AcDbLinetypeTableRecord
  2
CENTERTINY
 70
    0
  3
Center (.15x) ___ _ ___ _ ___ _ ___ _ ___ _ ___
 72
   65
 73
    4
 40
7.619999999999999
 49
4.7625
 74
    0
 49
-0.9525
 74
    0
 49
0.9525
 74
    0
 49
-0.9525
 74
    0
  0
LTYPE
  5
48
330
5
100
AcDbSymbolTableRecord
100
AcDbLinetypeTableRecord
  2
CENTER2
 70
    0
  3
Center (.5x) ___ _ ___ _ ___ _ ___ _ ___ _ ___
 72
   65
 73
    4
 40
28.575
 49
19.05
 74
    0
 49
-3.175
 74
    0
 49
3.175
 74
    0
 49
-3.175
 74
    0
  0
LTYPE
  5
49
330
5
100
AcDbSymbolTableRecord
100
AcDbLinetypeTableRecord
  2
CENTERX2
 70
    0
  3
Center (2x) ________  __  ________  __  _____
 72
   65
 73
    4
 40
101.6
 49
63.5
 74
    0
 49
-12.7
 74
    0
 49
12.7
 74
    0
 49
-12.7
 74
    0
  0
ENDTAB
  0
TABLE
  2
LAYER
  5
2
330
0
100
AcDbSymbolTable
 70
    1
  0
LAYER
  5
10
330
2
100
AcDbSymbolTableRecord
100
AcDbLayerTableRecord
  2
0
 70
    0
 62
    7
  6
CONTINUOUS
370
   -3
390
F
  0
ENDTAB
  0
TABLE
  2
STYLE
  5
3
330
0
100
AcDbSymbolTable
 70
    3
  0
STYLE
  5
4A
330
2
100
AcDbSymbolTableRecord
100
AcDbTextStyleTableRecord
  2
Standard
 70
    0
 40
0
 41
1
 50
0
 71
    0
 42
1
  3
txt
  4

  0
ENDTAB
  0
TABLE
  2
VIEW
  5
6
330
0
100
AcDbSymbolTable
 70
    0
  0
ENDTAB
  0
TABLE
  2
UCS
  5
7
330
0
100
AcDbSymbolTable
 70
    0
  0
ENDTAB
  0
TABLE
  2
APPID
  5
9
330
0
100
AcDbSymbolTable
 70
    1
  0
APPID
  5
12
330
9
100
AcDbSymbolTableRecord
100
AcDbRegAppTableRecord
  2
ACAD
 70
    0
  0
APPID
  5
4B
330
9
100
AcDbSymbolTableRecord
100
AcDbRegAppTableRecord
  2
LibreCad
 70
    0
  0
ENDTAB
  0
TABLE
  2
DIMSTYLE
  5
A
330
0
100
AcDbSymbolTable
 70
    1
100
AcDbDimStyleTable
 71
    1
  0
DIMSTYLE
105
4C
330
A
100
AcDbSymbolTableRecord
100
AcDbDimStyleTableRecord
  2
Standard
 70
    0
 40
1
 41
2.5
 42
0.625
 43
0.38
 44
1.25
 45
0
 46
0
 47
0
 48
0
 49
1
140
2.5
141
0.09
142
2.5
143
25.4
144
1
145
0
146
1
147
0.625
148
0
 71
    0
 72
    0
 73
    0
 74
    1
 75
    0
 76
    0
 77
    0
 78
    1
 79
    0
170
    0
171
    2
172
    0
173
    0
174
    0
175
    0
176
    0
177
    0
178
    0
179
    0
271
    2
272
    4
273
    2
274
    2
275
    0
276
    0
277
    2
278
    0
279
    0
280
    0
281
    0
282
    0
283
    1
284
    0
285
    0
286
    0
288
    0
289
    3
340
standard
341

371
   -2
372
   -2
  0
ENDTAB
  0
TABLE
  2
BLOCK_RECORD
  5
1
330
0
100
AcDbSymbolTable
 70
    2
  0
BLOCK_RECORD
  5
1F
330
1
100
AcDbSymbolTableRecord
100
AcDbBlockTableRecord
  2
*Model_Space
 70
    0
280
    1
281
    0
  0
BLOCK_RECORD
  5
1E
330
1
100
AcDbSymbolTableRecord
100
AcDbBlockTableRecord
  2
*Paper_Space
 70
    0
280
    1
281
    0
  0
ENDTAB
  0
ENDSEC
  0
SECTION
  2
BLOCKS
  0
BLOCK
  5
20
330
1F
100
AcDbEntity
  8
0
100
AcDbBlockBegin
  2
*Model_Space
 70
    0
 10
0
 20
0
 30
0
  3
*Model_Space
  1

  0
ENDBLK
  5
21
330
1F
100
AcDbEntity
  8
0
100
AcDbBlockEnd
  0
BLOCK
  5
1C
330
1B
100
AcDbEntity
  8
0
100
AcDbBlockBegin
  2
*Paper_Space
 70
    0
 10
0
 20
0
 30
0
  3
*Paper_Space
  1

  0
ENDBLK
  5
1D
330
1F
100
AcDbEntity
  8
0
100
AcDbBlockEnd
  0
ENDSEC
  0
SECTION
  2
ENTITIES
  0
LINE
  5
4D
100
AcDbEntity
  8
0
  6
ByLayer
 62
  152
370
   -1
100
AcDbLine
 10
42.3499
 20
50.3259
 11
41.293
 21
47.3548
  0
LINE
  5
4E
100
AcDbEntity
  8
0
  6
ByLayer
 62
  152
370
   -1
100
AcDbLine
 10
41.293
 20
47.3548
 11
40.3338
 21
43.7871
  0
LINE
  5
4F
100
AcDbEntity
  8
0
  6
ByLayer
 62
  152
370
   -1
100
AcDbLine
 10
40.3338
 20
43.7871
 11
39.4035
 21
39.7827
  0
LINE
  5
50
100
AcDbEntity
  8
0
  6
ByLayer
 62
  152
370
   -1
100
AcDbLine
 10
39.4035
 20
39.7827
 11
38.3261
 21
35.9615
  0
LINE
  5
51
100
AcDbEntity
  8
0
  6
ByLayer
 62
  152
370
   -1
100
AcDbLine
 10
38.3261
 20
35.9615
 11
37.0858
 21
32.3577
  0
LINE
  5
52
100
AcDbEntity
  8
0
  6
ByLayer
 62
  152
370
   -1
100
AcDbLine
 10
37.0858
 20
32.3577
 11
35.669
 21
29.005
  0
LINE
  5
53
100
AcDbEntity
  8
0
  6
ByLayer
 62
  152
370
   -1
100
AcDbLine
 10
35.669
 20
29.005
 11
34.0637
 21
25.9402
  0
LINE
  5
54
100
AcDbEntity
  8
0
  6
ByLayer
 62
  152
370
   -1
100
AcDbLine
 10
34.0637
 20
25.9402
 11
32.2557
 21
23.1938
  0
LINE
  5
55
100
AcDbEntity
  8
0
  6
ByLayer
 62
  152
370
   -1
100
AcDbLine
 10
32.2557
 20
23.1938
 11
30.2314
 21
20.8015
  0
LINE
  5
56
100
AcDbEntity
  8
0
  6
ByLayer
 62
  152
370
   -1
100
AcDbLine
 10
30.2314
 20
20.8015
 11
27.9756
 21
18.7965
  0
LINE
  5
57
100
AcDbEntity
  8
0
  6
ByLayer
 62
  152
370
   -1
100
AcDbLine
 10
27.9756
 20
18.7965
 11
25.4758
 21
17.2131
  0
LINE
  5
58
100
AcDbEntity
  8
0
  6
ByLayer
 62
  152
370
   -1
100
AcDbLine
 10
25.4758
 20
17.2131
 11
22.7183
 21
16.0845
  0
LINE
  5
59
100
AcDbEntity
  8
0
  6
ByLayer
 62
  152
370
   -1
100
AcDbLine
 10
22.7183
 20
16.0845
 11
19.6908
 21
15.4464
  0
LINE
  5
5A
100
AcDbEntity
  8
0
  6
ByLayer
 62
  152
370
   -1
100
AcDbLine
 10
19.6908
 20
15.4464
 11
16.3766
 21
15.3307
  0
LINE
  5
5B
100
AcDbEntity
  8
0
  6
ByLayer
 62
  152
370
   -1
100
AcDbLine
 10
16.3766
 20
15.3307
 11
12.7648
 21
15.773
  0
LINE
  5
5C
100
AcDbEntity
  8
0
  6
ByLayer
 62
  152
370
   -1
100
AcDbLine
 10
12.7648
 20
15.773
 11
8.840120000000001
 21
16.8052
  0
LINE
  5
5D
100
AcDbEntity
  8
0
  6
ByLayer
 62
  152
370
   -1
100
AcDbLine
 10
8.840120000000001
 20
16.8052
 11
4.58886
 21
18.4629
  0
LINE
  5
5E
100
AcDbEntity
  8
0
  6
ByLayer
 62
  152
370
   -1
100
AcDbLine
 10
4.58886
 20
18.4629
 11
0
 21
20.7794
  0
LINE
  5
5F
100
AcDbEntity
  8
0
  6
ByLayer
 62
  152
370
   -1
100
AcDbLine
 10
0
 20
20.7794
 11
5.05051
 21
19.7859
  0
LINE
  5
60
100
AcDbEntity
  8
0
  6
ByLayer
 62
  152
370
   -1
100
AcDbLine
 10
5.05051
 20
19.7859
 11
9.569100000000001
 21
19.3987
  0
LINE
  5
61
100
AcDbEntity
  8
0
  6
ByLayer
 62
  152
370
   -1
100
AcDbLine
 10
9.569100000000001
 20
19.3987
 11
13.5902
 21
19.5599
  0
LINE
  5
62
100
AcDbEntity
  8
0
  6
ByLayer
 62
  152
370
   -1
100
AcDbLine
 10
13.5902
 20
19.5599
 11
17.1456
 21
20.2131
  0
LINE
  5
63
100
AcDbEntity
  8
0
  6
ByLayer
 62
  152
370
   -1
100
AcDbLine
 10
17.1456
 20
20.2131
 11
20.2723
 21
21.3045
  0
LINE
  5
64
100
AcDbEntity
  8
0
  6
ByLayer
 62
  152
370
   -1
100
AcDbLine
 10
20.2723
 20
21.3045
 11
23.0008
 21
22.7735
  0
LINE
  5
65
100
AcDbEntity
  8
0
  6
ByLayer
 62
  152
370
   -1
100
AcDbLine
 10
23.0008
 20
22.7735
 11
25.3683
 21
24.5649
  0
LINE
  5
66
100
AcDbEntity
  8
0
  6
ByLayer
 62
  152
370
   -1
100
AcDbLine
 10
25.3683
 20
24.5649
 11
27.4078
 21
26.6237
  0
LINE
  5
67
100
AcDbEntity
  8
0
  6
ByLayer
 62
  152
370
   -1
100
AcDbLine
 10
27.4078
 20
26.6237
 11
29.1538
 21
28.8906
  0
LINE
  5
68
100
AcDbEntity
  8
0
  6
ByLayer
 62
  152
370
   -1
100
AcDbLine
 10
29.1538
 20
28.8906
 11
30.6379
 21
31.3104
  0
LINE
  5
69
100
AcDbEntity
  8
0
  6
ByLayer
 62
  152
370
   -1
100
AcDbLine
 10
30.6379
 20
31.3104
 11
31.8975
 21
33.8267
  0
LINE
  5
6A
100
AcDbEntity
  8
0
  6
ByLayer
 62
  152
370
   -1
100
AcDbLine
 10
31.8975
 20
33.8267
 11
32.964
 21
36.3816
  0
LINE
  5
6B
100
AcDbEntity
  8
0
  6
ByLayer
 62
  152
370
   -1
100
AcDbLine
 10
32.964
 20
36.3816
 11
33.8735
 21
38.9184
  0
LINE
  5
6C
100
AcDbEntity
  8
0
  6
ByLayer
 62
  152
370
   -1
100
AcDbLine
 10
33.8735
 20
38.9184
 11
34.6577
 21
41.3826
  0
LINE
  5
6D
100
AcDbEntity
  8
0
  6
ByLayer
 62
  152
370
   -1
100
AcDbLine
 10
34.6577
 20
41.3826
 11
35.3536
 21
43.7141
  0
LINE
  5
6E
100
AcDbEntity
  8
0
  6
ByLayer
 62
  152
370
   -1
100
AcDbLine
 10
35.3536
 20
43.7141
 11
35.9929
 21
45.8583
  0
LINE
  5
6F
100
AcDbEntity
  8
0
  6
ByLayer
 62
  152
370
   -1
100
AcDbLine
 10
35.9929
 20
45.8583
 11
36.8335
 21
48.5482
  0
LINE
  5
70
100
AcDbEntity
  8
0
  6
ByLayer
 62
  152
370
   -1
100
AcDbLine
 10
36.8335
 20
48.5482
 11
37.797
 21
51.15
  0
LINE
  5
71
100
AcDbEntity
  8
0
  6
ByLayer
 62
  152
370
   -1
100
AcDbLine
 10
37.797
 20
51.15
 11
38.9985
 21
53.4804
  0
LINE
  5
72
100
AcDbEntity
  8
0
  6
ByLayer
 62
  152
370
   -1
100
AcDbLine
 10
38.9985
 20
53.4804
 11
40.5571
 21
55.3572
  0
LINE
  5
73
100
AcDbEntity
  8
0
  6
ByLayer
 62
  152
370
   -1
100
AcDbLine
 10
40.5571
 20
55.3572
 11
42.1499
 21
56.461
  0
LINE
  5
74
100
AcDbEntity
  8
0
  6
ByLayer
 62
  152
370
   -1
100
AcDbLine
 10
42.1499
 20
56.461
 11
44.038
 21
57.2107
  0
LINE
  5
75
100
AcDbEntity
  8
0
  6
ByLayer
 62
  152
370
   -1
100
AcDbLine
 10
44.038
 20
57.2107
 11
46.083
 21
57.5412
  0
LINE
  5
76
100
AcDbEntity
  8
0
  6
ByLayer
 62
  152
370
   -1
100
AcDbLine
 10
46.083
 20
57.5412
 11
48.1499
 21
57.3828
  0
LINE
  5
77
100
AcDbEntity
  8
0
  6
ByLayer
 62
  152
370
   -1
100
AcDbLine
 10
48.1499
 20
57.3828
 11
50.1054
 21
56.6692
  0
LINE
  5
78
100
AcDbEntity
  8
0
  6
ByLayer
 62
  152
370
   -1
100
AcDbLine
 10
50.1054
 20
56.6692
 11
51.8128
 21
55.3325
  0
LINE
  5
79
100
AcDbEntity
  8
0
  6
ByLayer
 62
  152
370
   -1
100
AcDbLine
 10
51.8128
 20
55.3325
 11
53.1386
 21
53.304
  0
LINE
  5
7A
100
AcDbEntity
  8
0
  6
ByLayer
 62
  152
370
   -1
100
AcDbLine
 10
53.1386
 20
53.304
 11
53.9475
 21
50.516
  0
LINE
  5
7B
100
AcDbEntity
  8
0
  6
ByLayer
 62
  152
370
   -1
100
AcDbLine
 10
53.9475
 20
50.516
 11
52.7611
 21
52.203
  0
LINE
  5
7C
100
AcDbEntity
  8
0
  6
ByLayer
 62
  152
370
   -1
100
AcDbLine
 10
52.7611
 20
52.203
 11
51.2865
 21
53.406
  0
LINE
  5
7D
100
AcDbEntity
  8
0
  6
ByLayer
 62
  152
370
   -1
100
AcDbLine
 10
51.2865
 20
53.406
 11
49.6288
 21
54.1253
  0
LINE
  5
7E
100
AcDbEntity
  8
0
  6
ByLayer
 62
  152
370
   -1
100
AcDbLine
 10
49.6288
 20
54.1253
 11
47.8966
 21
54.3553
  0
LINE
  5
7F
100
AcDbEntity
  8
0
  6
ByLayer
 62
  152
370
   -1
100
AcDbLine
 10
47.8966
 20
54.3553
 11
46.1945
 21
54.0935
  0
LINE
  5
80
100
AcDbEntity
  8
0
  6
ByLayer
 62
  152
370
   -1
100
AcDbLine
 10
46.1945
 20
54.0935
 11
44.632
 21
53.3368
  0
LINE
  5
81
100
AcDbEntity
  8
0
  6
ByLayer
 62
  152
370
   -1
100
AcDbLine
 10
44.632
 20
53.3368
 11
43.3144
 21
52.0831
  0
LINE
  5
82
100
AcDbEntity
  8
0
  6
ByLayer
 62
  152
370
   -1
100
AcDbLine
 10
43.3144
 20
52.0831
 11
42.3499
 21
50.3259
  0
LINE
  5
83
100
AcDbEntity
  8
0
  6
ByLayer
 62
  152
370
   -1
100
AcDbLine
 10
27.9618
 20
49.6316
 11
29.2006
 21
53.9475
  0
LINE
  5
84
100
AcDbEntity
  8
0
  6
ByLayer
 62
  152
370
   -1
100
AcDbLine
 10
29.2006
 20
53.9475
 11
31.3642
 21
57.3775
  0
LINE
  5
85
100
AcDbEntity
  8
0
  6
ByLayer
 62
  152
370
   -1
100
AcDbLine
 10
31.3642
 20
57.3775
 11
34.1974
 21
59.902
  0
LINE
  5
86
100
AcDbEntity
  8
0
  6
ByLayer
 62
  152
370
   -1
100
AcDbLine
 10
34.1974
 20
59.902
 11
37.4481
 21
61.499
  0
LINE
  5
87
100
AcDbEntity
  8
0
  6
ByLayer
 62
  152
370
   -1
100
AcDbLine
 10
37.4481
 20
61.499
 11
40.8615
 21
62.1482
  0
LINE
  5
88
100
AcDbEntity
  8
0
  6
ByLayer
 62
  152
370
   -1
100
AcDbLine
 10
40.8615
 20
62.1482
 11
44.184
 21
61.83
  0
LINE
  5
89
100
AcDbEntity
  8
0
  6
ByLayer
 62
  152
370
   -1
100
AcDbLine
 10
44.184
 20
61.83
 11
47.1622
 21
60.5222
  0
LINE
  5
8A
100
AcDbEntity
  8
0
  6
ByLayer
 62
  152
370
   -1
100
AcDbLine
 10
47.1622
 20
60.5222
 11
49.542
 21
58.2027
  0
LINE
  5
8B
100
AcDbEntity
  8
0
  6
ByLayer
 62
  152
370
   -1
100
AcDbLine
 10
49.542
 20
58.2027
 11
47.3728
 21
58.9827
  0
LINE
  5
8C
100
AcDbEntity
  8
0
  6
ByLayer
 62
  152
370
   -1
100
AcDbLine
 10
47.3728
 20
58.9827
 11
45.0067
 21
59.3549
  0
LINE
  5
8D
100
AcDbEntity
  8
0
  6
ByLayer
 62
  152
370
   -1
100
AcDbLine
 10
45.0067
 20
59.3549
 11
42.5496
 21
59.2307
  0
LINE
  5
8E
100
AcDbEntity
  8
0
  6
ByLayer
 62
  152
370
   -1
100
AcDbLine
 10
42.5496
 20
59.2307
 11
40.1105
 21
58.5184
  0
LINE
  5
8F
100
AcDbEntity
  8
0
  6
ByLayer
 62
  152
370
   -1
100
AcDbLine
 10
40.1105
 20
58.5184
 11
37.7956
 21
57.1267
  0
LINE
  5
90
100
AcDbEntity
  8
0
  6
ByLayer
 62
  152
370
   -1
100
AcDbLine
 10
37.7956
 20
57.1267
 11
35.7117
 21
54.9645
  0
LINE
  5
91
100
AcDbEntity
  8
0
  6
ByLayer
 62
  152
370
   -1
100
AcDbLine
 10
35.7117
 20
54.9645
 11
33.9687
 21
51.9409
  0
LINE
  5
92
100
AcDbEntity
  8
0
  6
ByLayer
 62
  152
370
   -1
100
AcDbLine
 10
33.9687
 20
51.9409
 11
32.6733
 21
47.964
  0
LINE
  5
93
100
AcDbEntity
  8
0
  6
ByLayer
 62
  152
370
   -1
100
AcDbLine
 10
32.6733
 20
47.964
 11
30.9108
 21
41.8564
  0
LINE
  5
94
100
AcDbEntity
  8
0
  6
ByLayer
 62
  152
370
   -1
100
AcDbLine
 10
30.9108
 20
41.8564
 11
28.7886
 21
36.9164
  0
LINE
  5
95
100
AcDbEntity
  8
0
  6
ByLayer
 62
  152
370
   -1
100
AcDbLine
 10
28.7886
 20
36.9164
 11
26.3881
 21
33.0564
  0
LINE
  5
96
100
AcDbEntity
  8
0
  6
ByLayer
 62
  152
370
   -1
100
AcDbLine
 10
26.3881
 20
33.0564
 11
23.7918
 21
30.1942
  0
LINE
  5
97
100
AcDbEntity
  8
0
  6
ByLayer
 62
  152
370
   -1
100
AcDbLine
 10
23.7918
 20
30.1942
 11
21.0812
 21
28.2443
  0
LINE
  5
98
100
AcDbEntity
  8
0
  6
ByLayer
 62
  152
370
   -1
100
AcDbLine
 10
21.0812
 20
28.2443
 11
18.3389
 21
27.1225
  0
LINE
  5
99
100
AcDbEntity
  8
0
  6
ByLayer
 62
  152
370
   -1
100
AcDbLine
 10
18.3389
 20
27.1225
 11
15.6449
 21
26.7422
  0
LINE
  5
9A
100
AcDbEntity
  8
0
  6
ByLayer
 62
  152
370
   -1
100
AcDbLine
 10
15.6449
 20
26.7422
 11
13.0831
 21
27.0192
  0
LINE
  5
9B
100
AcDbEntity
  8
0
  6
ByLayer
 62
  152
370
   -1
100
AcDbLine
 10
13.0831
 20
27.0192
 11
10.7349
 21
27.8708
  0
LINE
  5
9C
100
AcDbEntity
  8
0
  6
ByLayer
 62
  152
370
   -1
100
AcDbLine
 10
10.7349
 20
27.8708
 11
8.68303
 21
29.2089
  0
LINE
  5
9D
100
AcDbEntity
  8
0
  6
ByLayer
 62
  152
370
   -1
100
AcDbLine
 10
8.68303
 20
29.2089
 11
7.00595
 21
30.9521
  0
LINE
  5
9E
100
AcDbEntity
  8
0
  6
ByLayer
 62
  152
370
   -1
100
AcDbLine
 10
7.00595
 20
30.9521
 11
5.79053
 21
33.0137
  0
LINE
  5
9F
100
AcDbEntity
  8
0
  6
ByLayer
 62
  152
370
   -1
100
AcDbLine
 10
5.79053
 20
33.0137
 11
5.1139
 21
35.3081
  0
LINE
  5
A0
100
AcDbEntity
  8
0
  6
ByLayer
 62
  152
370
   -1
100
AcDbLine
 10
5.1139
 20
35.3081
 11
5.06155
 21
37.7515
  0
LINE
  5
A1
100
AcDbEntity
  8
0
  6
ByLayer
 62
  152
370
   -1
100
AcDbLine
 10
5.06155
 20
37.7515
 11
5.71334
 21
40.2594
  0
LINE
  5
A2
100
AcDbEntity
  8
0
  6
ByLayer
 62
  152
370
   -1
100
AcDbLine
 10
5.71334
 20
40.2594
 11
7.15338
 21
42.7468
  0
LINE
  5
A3
100
AcDbEntity
  8
0
  6
ByLayer
 62
  152
370
   -1
100
AcDbLine
 10
7.15338
 20
42.7468
 11
6.98803
 21
39.9729
  0
LINE
  5
A4
100
AcDbEntity
  8
0
  6
ByLayer
 62
  152
370
   -1
100
AcDbLine
 10
6.98803
 20
39.9729
 11
7.28846
 21
37.6315
  0
LINE
  5
A5
100
AcDbEntity
  8
0
  6
ByLayer
 62
  152
370
   -1
100
AcDbLine
 10
7.28846
 20
37.6315
 11
7.99539
 21
35.7216
  0
LINE
  5
A6
100
AcDbEntity
  8
0
  6
ByLayer
 62
  152
370
   -1
100
AcDbLine
 10
7.99539
 20
35.7216
 11
9.05097
 21
34.2415
  0
LINE
  5
A7
100
AcDbEntity
  8
0
  6
ByLayer
 62
  152
370
   -1
100
AcDbLine
 10
9.05097
 20
34.2415
 11
10.3987
 21
33.1914
  0
LINE
  5
A8
100
AcDbEntity
  8
0
  6
ByLayer
 62
  152
370
   -1
100
AcDbLine
 10
10.3987
 20
33.1914
 11
11.9807
 21
32.5699
  0
LINE
  5
A9
100
AcDbEntity
  8
0
  6
ByLayer
 62
  152
370
   -1
100
AcDbLine
 10
11.9807
 20
32.5699
 11
13.739
 21
32.3742
  0
LINE
  5
AA
100
AcDbEntity
  8
0
  6
ByLayer
 62
  152
370
   -1
100
AcDbLine
 10
13.739
 20
32.3742
 11
15.6145
 21
32.6044
  0
LINE
  5
AB
100
AcDbEntity
  8
0
  6
ByLayer
 62
  152
370
   -1
100
AcDbLine
 10
15.6145
 20
32.6044
 11
17.5507
 21
33.2603
  0
LINE
  5
AC
100
AcDbEntity
  8
0
  6
ByLayer
 62
  152
370
   -1
100
AcDbLine
 10
17.5507
 20
33.2603
 11
19.491
 21
34.3379
  0
LINE
  5
AD
100
AcDbEntity
  8
0
  6
ByLayer
 62
  152
370
   -1
100
AcDbLine
 10
19.491
 20
34.3379
 11
21.3761
 21
35.8387
  0
LINE
  5
AE
100
AcDbEntity
  8
0
  6
ByLayer
 62
  152
370
   -1
100
AcDbLine
 10
21.3761
 20
35.8387
 11
23.1483
 21
37.761
  0
LINE
  5
AF
100
AcDbEntity
  8
0
  6
ByLayer
 62
  152
370
   -1
100
AcDbLine
 10
23.1483
 20
37.761
 11
24.751
 21
40.1024
  0
LINE
  5
B0
100
AcDbEntity
  8
0
  6
ByLayer
 62
  152
370
   -1
100
AcDbLine
 10
24.751
 20
40.1024
 11
26.1262
 21
42.8611
  0
LINE
  5
B1
100
AcDbEntity
  8
0
  6
ByLayer
 62
  152
370
   -1
100
AcDbLine
 10
26.1262
 20
42.8611
 11
27.2149
 21
46.0389
  0
LINE
  5
B2
100
AcDbEntity
  8
0
  6
ByLayer
 62
  152
370
   -1
100
AcDbLine
 10
27.2149
 20
46.0389
 11
27.9618
 21
49.6316
  0
LINE
  5
B3
100
AcDbEntity
  8
0
  6
ByLayer
 62
  152
370
   -1
100
AcDbLine
 10
52.2372
 20
1.29673
 11
47.8208
 21
2.17179
  0
LINE
  5
B4
100
AcDbEntity
  8
0
  6
ByLayer
 62
  152
370
   -1
100
AcDbLine
 10
47.8208
 20
2.17179
 11
44.1882
 21
3.4699
  0
LINE
  5
B5
100
AcDbEntity
  8
0
  6
ByLayer
 62
  152
370
   -1
100
AcDbLine
 10
44.1882
 20
3.4699
 11
41.2873
 21
5.14558
  0
LINE
  5
B6
100
AcDbEntity
  8
0
  6
ByLayer
 62
  152
370
   -1
100
AcDbLine
 10
41.2873
 20
5.14558
 11
39.0659
 21
7.14925
  0
LINE
  5
B7
100
AcDbEntity
  8
0
  6
ByLayer
 62
  152
370
   -1
100
AcDbLine
 10
39.0659
 20
7.14925
 11
37.4689
 21
9.434049999999999
  0
LINE
  5
B8
100
AcDbEntity
  8
0
  6
ByLayer
 62
  152
370
   -1
100
AcDbLine
 10
37.4689
 20
9.434049999999999
 11
36.4451
 21
11.9517
  0
LINE
  5
B9
100
AcDbEntity
  8
0
  6
ByLayer
 62
  152
370
   -1
100
AcDbLine
 10
36.4451
 20
11.9517
 11
35.9406
 21
14.6554
  0
LINE
  5
BA
100
AcDbEntity
  8
0
  6
ByLayer
 62
  152
370
   -1
100
AcDbLine
 10
35.9406
 20
14.6554
 11
35.9033
 21
17.4942
  0
LINE
  5
BB
100
AcDbEntity
  8
0
  6
ByLayer
 62
  152
370
   -1
100
AcDbLine
 10
35.9033
 20
17.4942
 11
36.2797
 21
20.4225
  0
LINE
  5
BC
100
AcDbEntity
  8
0
  6
ByLayer
 62
  152
370
   -1
100
AcDbLine
 10
36.2797
 20
20.4225
 11
37.0156
 21
23.3922
  0
LINE
  5
BD
100
AcDbEntity
  8
0
  6
ByLayer
 62
  152
370
   -1
100
AcDbLine
 10
37.0156
 20
23.3922
 11
38.0601
 21
26.355
  0
LINE
  5
BE
100
AcDbEntity
  8
0
  6
ByLayer
 62
  152
370
   -1
100
AcDbLine
 10
38.0601
 20
26.355
 11
39.3594
 21
29.2626
  0
LINE
  5
BF
100
AcDbEntity
  8
0
  6
ByLayer
 62
  152
370
   -1
100
AcDbLine
 10
39.3594
 20
29.2626
 11
40.8601
 21
32.0669
  0
LINE
  5
C0
100
AcDbEntity
  8
0
  6
ByLayer
 62
  152
370
   -1
100
AcDbLine
 10
40.8601
 20
32.0669
 11
42.5097
 21
34.7211
  0
LINE
  5
C1
100
AcDbEntity
  8
0
  6
ByLayer
 62
  152
370
   -1
100
AcDbLine
 10
42.5097
 20
34.7211
 11
44.2556
 21
37.1768
  0
LINE
  5
C2
100
AcDbEntity
  8
0
  6
ByLayer
 62
  152
370
   -1
100
AcDbLine
 10
44.2556
 20
37.1768
 11
46.0446
 21
39.3845
  0
LINE
  5
C3
100
AcDbEntity
  8
0
  6
ByLayer
 62
  152
370
   -1
100
AcDbLine
 10
46.0446
 20
39.3845
 11
43.9843
 21
34.6136
  0
LINE
  5
C4
100
AcDbEntity
  8
0
  6
ByLayer
 62
  152
370
   -1
100
AcDbLine
 10
43.9843
 20
34.6136
 11
42.394
 21
29.5534
  0
LINE
  5
C5
100
AcDbEntity
  8
0
  6
ByLayer
 62
  152
370
   -1
100
AcDbLine
 10
42.394
 20
29.5534
 11
41.4433
 21
24.3513
  0
LINE
  5
C6
100
AcDbEntity
  8
0
  6
ByLayer
 62
  152
370
   -1
100
AcDbLine
 10
41.4433
 20
24.3513
 11
41.3011
 21
19.152
  0
LINE
  5
C7
100
AcDbEntity
  8
0
  6
ByLayer
 62
  152
370
   -1
100
AcDbLine
 10
41.3011
 20
19.152
 11
42.139
 21
14.1029
  0
LINE
  5
C8
100
AcDbEntity
  8
0
  6
ByLayer
 62
  152
370
   -1
100
AcDbLine
 10
42.139
 20
14.1029
 11
44.1276
 21
9.34586
  0
LINE
  5
C9
100
AcDbEntity
  8
0
  6
ByLayer
 62
  152
370
   -1
100
AcDbLine
 10
44.1276
 20
9.34586
 11
47.4363
 21
5.02846
  0
LINE
  5
CA
100
AcDbEntity
  8
0
  6
ByLayer
 62
  152
370
   -1
100
AcDbLine
 10
47.4363
 20
5.02846
 11
52.2372
 21
1.29673
  0
LINE
  5
CB
100
AcDbEntity
  8
0
  6
ByLayer
 62
  152
370
   -1
100
AcDbLine
 10
65.66079999999999
 20
10.79
 11
63.6736
 21
10.0266
  0
LINE
  5
CC
100
AcDbEntity
  8
0
  6
ByLayer
 62
  152
370
   -1
100
AcDbLine
 10
63.6736
 20
10.0266
 11
61.5047
 21
9.54705
  0
LINE
  5
CD
100
AcDbEntity
  8
0
  6
ByLayer
 62
  152
370
   -1
100
AcDbLine
 10
61.5047
 20
9.54705
 11
59.224
 21
9.36378
  0
LINE
  5
CE
100
AcDbEntity
  8
0
  6
ByLayer
 62
  152
370
   -1
100
AcDbLine
 10
59.224
 20
9.36378
 11
56.8978
 21
9.486409999999999
  0
LINE
  5
CF
100
AcDbEntity
  8
0
  6
ByLayer
 62
  152
370
   -1
100
AcDbLine
 10
56.8978
 20
9.486409999999999
 11
54.5952
 21
9.926
  0
LINE
  5
D0
100
AcDbEntity
  8
0
  6
ByLayer
 62
  152
370
   -1
100
AcDbLine
 10
54.5952
 20
9.926
 11
52.3847
 21
10.6936
  0
LINE
  5
D1
100
AcDbEntity
  8
0
  6
ByLayer
 62
  152
370
   -1
100
AcDbLine
 10
52.3847
 20
10.6936
 11
50.3357
 21
11.7988
  0
LINE
  5
D2
100
AcDbEntity
  8
0
  6
ByLayer
 62
  152
370
   -1
100
AcDbLine
 10
50.3357
 20
11.7988
 11
48.5151
 21
13.2553
  0
LINE
  5
D3
100
AcDbEntity
  8
0
  6
ByLayer
 62
  152
370
   -1
100
AcDbLine
 10
48.5151
 20
13.2553
 11
46.9911
 21
15.0702
  0
LINE
  5
D4
100
AcDbEntity
  8
0
  6
ByLayer
 62
  152
370
   -1
100
AcDbLine
 10
46.9911
 20
15.0702
 11
45.8322
 21
17.2572
  0
LINE
  5
D5
100
AcDbEntity
  8
0
  6
ByLayer
 62
  152
370
   -1
100
AcDbLine
 10
45.8322
 20
17.2572
 11
45.1072
 21
19.8245
  0
LINE
  5
D6
100
AcDbEntity
  8
0
  6
ByLayer
 62
  152
370
   -1
100
AcDbLine
 10
45.1072
 20
19.8245
 11
44.8853
 21
22.7845
  0
LINE
  5
D7
100
AcDbEntity
  8
0
  6
ByLayer
 62
  152
370
   -1
100
AcDbLine
 10
44.8853
 20
22.7845
 11
45.2342
 21
26.1483
  0
LINE
  5
D8
100
AcDbEntity
  8
0
  6
ByLayer
 62
  152
370
   -1
100
AcDbLine
 10
45.2342
 20
26.1483
 11
46.2209
 21
29.9255
  0
LINE
  5
D9
100
AcDbEntity
  8
0
  6
ByLayer
 62
  152
370
   -1
100
AcDbLine
 10
46.2209
 20
29.9255
 11
47.9157
 21
34.1271
  0
LINE
  5
DA
100
AcDbEntity
  8
0
  6
ByLayer
 62
  152
370
   -1
100
AcDbLine
 10
47.9157
 20
34.1271
 11
50.3865
 21
38.7629
  0
LINE
  5
DB
100
AcDbEntity
  8
0
  6
ByLayer
 62
  152
370
   -1
100
AcDbLine
 10
50.3865
 20
38.7629
 11
50.111
 21
37.1669
  0
LINE
  5
DC
100
AcDbEntity
  8
0
  6
ByLayer
 62
  152
370
   -1
100
AcDbLine
 10
50.111
 20
37.1669
 11
49.8133
 21
35.4224
  0
LINE
  5
DD
100
AcDbEntity
  8
0
  6
ByLayer
 62
  152
370
   -1
100
AcDbLine
 10
49.8133
 20
35.4224
 11
49.5321
 21
33.558
  0
LINE
  5
DE
100
AcDbEntity
  8
0
  6
ByLayer
 62
  152
370
   -1
100
AcDbLine
 10
49.5321
 20
33.558
 11
49.3078
 21
31.6012
  0
LINE
  5
DF
100
AcDbEntity
  8
0
  6
ByLayer
 62
  152
370
   -1
100
AcDbLine
 10
49.3078
 20
31.6012
 11
49.1793
 21
29.5782
  0
LINE
  5
E0
100
AcDbEntity
  8
0
  6
ByLayer
 62
  152
370
   -1
100
AcDbLine
 10
49.1793
 20
29.5782
 11
49.1892
 21
27.5167
  0
LINE
  5
E1
100
AcDbEntity
  8
0
  6
ByLayer
 62
  152
370
   -1
100
AcDbLine
 10
49.1892
 20
27.5167
 11
49.3765
 21
25.4441
  0
LINE
  5
E2
100
AcDbEntity
  8
0
  6
ByLayer
 62
  152
370
   -1
100
AcDbLine
 10
49.3765
 20
25.4441
 11
49.7801
 21
23.3881
  0
LINE
  5
E3
100
AcDbEntity
  8
0
  6
ByLayer
 62
  152
370
   -1
100
AcDbLine
 10
49.7801
 20
23.3881
 11
50.443
 21
21.3761
  0
LINE
  5
E4
100
AcDbEntity
  8
0
  6
ByLayer
 62
  152
370
   -1
100
AcDbLine
 10
50.443
 20
21.3761
 11
51.4022
 21
19.4331
  0
LINE
  5
E5
100
AcDbEntity
  8
0
  6
ByLayer
 62
  152
370
   -1
100
AcDbLine
 10
51.4022
 20
19.4331
 11
52.699
 21
17.5893
  0
LINE
  5
E6
100
AcDbEntity
  8
0
  6
ByLayer
 62
  152
370
   -1
100
AcDbLine
 10
52.699
 20
17.5893
 11
54.3747
 21
15.8709
  0
LINE
  5
E7
100
AcDbEntity
  8
0
  6
ByLayer
 62
  152
370
   -1
100
AcDbLine
 10
54.3747
 20
15.8709
 11
56.4677
 21
14.304
  0
LINE
  5
E8
100
AcDbEntity
  8
0
  6
ByLayer
 62
  152
370
   -1
100
AcDbLine
 10
56.4677
 20
14.304
 11
59.0201
 21
12.9164
  0
LINE
  5
E9
100
AcDbEntity
  8
0
  6
ByLayer
 62
  152
370
   -1
100
AcDbLine
 10
59.0201
 20
12.9164
 11
62.0709
 21
11.7367
  0
LINE
  5
EA
100
AcDbEntity
  8
0
  6
ByLayer
 62
  152
370
   -1
100
AcDbLine
 10
62.0709
 20
11.7367
 11
65.66079999999999
 21
10.79
  0
LINE
  5
EB
100
AcDbEntity
  8
0
  6
ByLayer
 62
  152
370
   -1
100
AcDbLine
 10
63.5868
 20
56.0585
 11
63.8679
 21
53.0257
  0
LINE
  5
EC
100
AcDbEntity
  8
0
  6
ByLayer
 62
  152
370
   -1
100
AcDbLine
 10
63.8679
 20
53.0257
 11
63.8168
 21
50.4074
  0
LINE
  5
ED
100
AcDbEntity
  8
0
  6
ByLayer
 62
  152
370
   -1
100
AcDbLine
 10
63.8168
 20
50.4074
 11
63.4862
 21
48.1774
  0
LINE
  5
EE
100
AcDbEntity
  8
0
  6
ByLayer
 62
  152
370
   -1
100
AcDbLine
 10
63.4862
 20
48.1774
 11
62.9348
 21
46.3102
  0
LINE
  5
EF
100
AcDbEntity
  8
0
  6
ByLayer
 62
  152
370
   -1
100
AcDbLine
 10
62.9348
 20
46.3102
 11
62.2169
 21
44.7795
  0
LINE
  5
F0
100
AcDbEntity
  8
0
  6
ByLayer
 62
  152
370
   -1
100
AcDbLine
 10
62.2169
 20
44.7795
 11
61.3904
 21
43.5571
  0
LINE
  5
F1
100
AcDbEntity
  8
0
  6
ByLayer
 62
  152
370
   -1
100
AcDbLine
 10
61.3904
 20
43.5571
 11
60.507
 21
42.6173
  0
LINE
  5
F2
100
AcDbEntity
  8
0
  6
ByLayer
 62
  152
370
   -1
100
AcDbLine
 10
60.507
 20
42.6173
 11
59.6276
 21
41.9336
  0
LINE
  5
F3
100
AcDbEntity
  8
0
  6
ByLayer
 62
  152
370
   -1
100
AcDbLine
 10
59.6276
 20
41.9336
 11
59.49
 21
45.1901
  0
LINE
  5
F4
100
AcDbEntity
  8
0
  6
ByLayer
 62
  152
370
   -1
100
AcDbLine
 10
59.49
 20
45.1901
 11
59.0628
 21
48.1926
  0
LINE
  5
F5
100
AcDbEntity
  8
0
  6
ByLayer
 62
  152
370
   -1
100
AcDbLine
 10
59.0628
 20
48.1926
 11
58.4041
 21
50.9252
  0
LINE
  5
F6
100
AcDbEntity
  8
0
  6
ByLayer
 62
  152
370
   -1
100
AcDbLine
 10
58.4041
 20
50.9252
 11
57.5691
 21
53.3742
  0
LINE
  5
F7
100
AcDbEntity
  8
0
  6
ByLayer
 62
  152
370
   -1
100
AcDbLine
 10
57.5691
 20
53.3742
 11
56.6138
 21
55.5226
  0
LINE
  5
F8
100
AcDbEntity
  8
0
  6
ByLayer
 62
  152
370
   -1
100
AcDbLine
 10
56.6138
 20
55.5226
 11
55.5957
 21
57.3553
  0
LINE
  5
F9
100
AcDbEntity
  8
0
  6
ByLayer
 62
  152
370
   -1
100
AcDbLine
 10
55.5957
 20
57.3553
 11
54.5705
 21
58.8574
  0
LINE
  5
FA
100
AcDbEntity
  8
0
  6
ByLayer
 62
  152
370
   -1
100
AcDbLine
 10
54.5705
 20
58.8574
 11
53.5961
 21
60.0135
  0
LINE
  5
FB
100
AcDbEntity
  8
0
  6
ByLayer
 62
  152
370
   -1
100
AcDbLine
 10
53.5961
 20
60.0135
 11
61.5692
 21
63.1638
  0
LINE
  5
FC
100
AcDbEntity
  8
0
  6
ByLayer
 62
  152
370
   -1
100
AcDbLine
 10
61.5692
 20
63.1638
 11
68.7599
 21
65.3905
  0
LINE
  5
FD
100
AcDbEntity
  8
0
  6
ByLayer
 62
  152
370
   -1
100
AcDbLine
 10
68.7599
 20
65.3905
 11
75.23690000000001
 21
66.7978
  0
LINE
  5
FE
100
AcDbEntity
  8
0
  6
ByLayer
 62
  152
370
   -1
100
AcDbLine
 10
75.23690000000001
 20
66.7978
 11
81.0715
 21
67.492
  0
LINE
  5
FF
100
AcDbEntity
  8
0
  6
ByLayer
 62
  152
370
   -1
100
AcDbLine
 10
81.0715
 20
67.492
 11
86.3342
 21
67.5778
  0
LINE
  5
100
100
AcDbEntity
  8
0
  6
ByLayer
 62
  152
370
   -1
100
AcDbLine
 10
86.3342
 20
67.5778
 11
91.09529999999999
 21
67.1601
  0
LINE
  5
101
100
AcDbEntity
  8
0
  6
ByLayer
 62
  152
370
   -1
100
AcDbLine
 10
91.09529999999999
 20
67.1601
 11
95.425
 21
66.34439999999999
  0
LINE
  5
102
100
AcDbEntity
  8
0
  6
ByLayer
 62
  152
370
   -1
100
AcDbLine
 10
95.425
 20
66.34439999999999
 11
99.3951
 21
65.2364
  0
LINE
  5
103
100
AcDbEntity
  8
0
  6
ByLayer
 62
  152
370
   -1
100
AcDbLine
 10
99.3951
 20
65.2364
 11
103.073
 21
63.9396
  0
LINE
  5
104
100
AcDbEntity
  8
0
  6
ByLayer
 62
  152
370
   -1
100
AcDbLine
 10
103.073
 20
63.9396
 11
106.532
 21
62.5616
  0
LINE
  5
105
100
AcDbEntity
  8
0
  6
ByLayer
 62
  152
370
   -1
100
AcDbLine
 10
106.532
 20
62.5616
 11
109.841
 21
61.2055
  0
LINE
  5
106
100
AcDbEntity
  8
0
  6
ByLayer
 62
  152
370
   -1
100
AcDbLine
 10
109.841
 20
61.2055
 11
113.071
 21
59.9765
  0
LINE
  5
107
100
AcDbEntity
  8
0
  6
ByLayer
 62
  152
370
   -1
100
AcDbLine
 10
113.071
 20
59.9765
 11
116.292
 21
58.9813
  0
LINE
  5
108
100
AcDbEntity
  8
0
  6
ByLayer
 62
  152
370
   -1
100
AcDbLine
 10
116.292
 20
58.9813
 11
119.575
 21
58.324
  0
LINE
  5
109
100
AcDbEntity
  8
0
  6
ByLayer
 62
  152
370
   -1
100
AcDbLine
 10
119.575
 20
58.324
 11
122.99
 21
58.1092
  0
LINE
  5
10A
100
AcDbEntity
  8
0
  6
ByLayer
 62
  152
370
   -1
100
AcDbLine
 10
122.99
 20
58.1092
 11
126.609
 21
58.4426
  0
LINE
  5
10B
100
AcDbEntity
  8
0
  6
ByLayer
 62
  152
370
   -1
100
AcDbLine
 10
126.609
 20
58.4426
 11
124.077
 21
57.0784
  0
LINE
  5
10C
100
AcDbEntity
  8
0
  6
ByLayer
 62
  152
370
   -1
100
AcDbLine
 10
124.077
 20
57.0784
 11
121.383
 21
56.3757
  0
LINE
  5
10D
100
AcDbEntity
  8
0
  6
ByLayer
 62
  152
370
   -1
100
AcDbLine
 10
121.383
 20
56.3757
 11
118.521
 21
56.2268
  0
LINE
  5
10E
100
AcDbEntity
  8
0
  6
ByLayer
 62
  152
370
   -1
100
AcDbLine
 10
118.521
 20
56.2268
 11
115.485
 21
56.5256
  0
LINE
  5
10F
100
AcDbEntity
  8
0
  6
ByLayer
 62
  152
370
   -1
100
AcDbLine
 10
115.485
 20
56.5256
 11
112.27
 21
57.1638
  0
LINE
  5
110
100
AcDbEntity
  8
0
  6
ByLayer
 62
  152
370
   -1
100
AcDbLine
 10
112.27
 20
57.1638
 11
108.87
 21
58.0362
  0
LINE
  5
111
100
AcDbEntity
  8
0
  6
ByLayer
 62
  152
370
   -1
100
AcDbLine
 10
108.87
 20
58.0362
 11
105.281
 21
59.0338
  0
LINE
  5
112
100
AcDbEntity
  8
0
  6
ByLayer
 62
  152
370
   -1
100
AcDbLine
 10
105.281
 20
59.0338
 11
101.497
 21
60.0523
  0
LINE
  5
113
100
AcDbEntity
  8
0
  6
ByLayer
 62
  152
370
   -1
100
AcDbLine
 10
101.497
 20
60.0523
 11
97.5127
 21
60.9822
  0
LINE
  5
114
100
AcDbEntity
  8
0
  6
ByLayer
 62
  152
370
   -1
100
AcDbLine
 10
97.5127
 20
60.9822
 11
93.3249
 21
61.7181
  0
LINE
  5
115
100
AcDbEntity
  8
0
  6
ByLayer
 62
  152
370
   -1
100
AcDbLine
 10
93.3249
 20
61.7181
 11
88.9247
 21
62.1524
  0
LINE
  5
116
100
AcDbEntity
  8
0
  6
ByLayer
 62
  152
370
   -1
100
AcDbLine
 10
88.9247
 20
62.1524
 11
84.30970000000001
 21
62.1785
  0
LINE
  5
117
100
AcDbEntity
  8
0
  6
ByLayer
 62
  152
370
   -1
100
AcDbLine
 10
84.30970000000001
 20
62.1785
 11
79.4727
 21
61.6892
  0
LINE
  5
118
100
AcDbEntity
  8
0
  6
ByLayer
 62
  152
370
   -1
100
AcDbLine
 10
79.4727
 20
61.6892
 11
74.4114
 21
60.5772
  0
LINE
  5
119
100
AcDbEntity
  8
0
  6
ByLayer
 62
  152
370
   -1
100
AcDbLine
 10
74.4114
 20
60.5772
 11
69.1169
 21
58.7361
  0
LINE
  5
11A
100
AcDbEntity
  8
0
  6
ByLayer
 62
  152
370
   -1
100
AcDbLine
 10
69.1169
 20
58.7361
 11
63.5868
 21
56.0585
  0
LINE
  5
11B
100
AcDbEntity
  8
0
  6
ByLayer
 62
   40
370
   -1
100
AcDbLine
 10
47.9379
 20
51.2741
 11
46.6852
 21
50.8702
  0
LINE
  5
11C
100
AcDbEntity
  8
0
  6
ByLayer
 62
   40
370
   -1
100
AcDbLine
 10
46.6852
 20
50.8702
 11
45.7207
 21
50.0447
  0
LINE
  5
11D
100
AcDbEntity
  8
0
  6
ByLayer
 62
   40
370
   -1
100
AcDbLine
 10
45.7207
 20
50.0447
 11
45.1337
 21
48.919
  0
LINE
  5
11E
100
AcDbEntity
  8
0
  6
ByLayer
 62
   40
370
   -1
100
AcDbLine
 10
45.1337
 20
48.919
 11
45.0219
 21
47.6084
  0
LINE
  5
11F
100
AcDbEntity
  8
0
  6
ByLayer
 62
   40
370
   -1
100
AcDbLine
 10
45.0219
 20
47.6084
 11
45.4258
 21
46.3571
  0
LINE
  5
120
100
AcDbEntity
  8
0
  6
ByLayer
 62
   40
370
   -1
100
AcDbLine
 10
45.4258
 20
46.3571
 11
46.2499
 21
45.3912
  0
LINE
  5
121
100
AcDbEntity
  8
0
  6
ByLayer
 62
   40
370
   -1
100
AcDbLine
 10
46.2499
 20
45.3912
 11
47.377
 21
44.8056
  0
LINE
  5
122
100
AcDbEntity
  8
0
  6
ByLayer
 62
   40
370
   -1
100
AcDbLine
 10
47.377
 20
44.8056
 11
48.6876
 21
44.6927
  0
LINE
  5
123
100
AcDbEntity
  8
0
  6
ByLayer
 62
   40
370
   -1
100
AcDbLine
 10
48.6876
 20
44.6927
 11
49.9389
 21
45.0977
  0
LINE
  5
124
100
AcDbEntity
  8
0
  6
ByLayer
 62
   40
370
   -1
100
AcDbLine
 10
49.9389
 20
45.0977
 11
50.9034
 21
45.9218
  0
LINE
  5
125
100
AcDbEntity
  8
0
  6
ByLayer
 62
   40
370
   -1
100
AcDbLine
 10
50.9034
 20
45.9218
 11
51.4904
 21
47.0489
  0
LINE
  5
126
100
AcDbEntity
  8
0
  6
ByLayer
 62
   40
370
   -1
100
AcDbLine
 10
51.4904
 20
47.0489
 11
51.6033
 21
48.3581
  0
LINE
  5
127
100
AcDbEntity
  8
0
  6
ByLayer
 62
   40
370
   -1
100
AcDbLine
 10
51.6033
 20
48.3581
 11
51.1983
 21
49.6108
  0
LINE
  5
128
100
AcDbEntity
  8
0
  6
ByLayer
 62
   40
370
   -1
100
AcDbLine
 10
51.1983
 20
49.6108
 11
50.3742
 21
50.5753
  0
LINE
  5
129
100
AcDbEntity
  8
0
  6
ByLayer
 62
   40
370
   -1
100
AcDbLine
 10
50.3742
 20
50.5753
 11
49.2471
 21
51.1623
  0
LINE
  5
12A
100
AcDbEntity
  8
0
  6
ByLayer
 62
   40
370
   -1
100
AcDbLine
 10
49.2471
 20
51.1623
 11
47.9379
 21
51.2741
  0
LINE
  5
12B
100
AcDbEntity
  8
0
  6
ByLayer
 62
  152
370
   -1
100
AcDbLine
 10
93.58669999999999
 20
39.0687
 11
91.9868
 21
39.6021
  0
LINE
  5
12C
100
AcDbEntity
  8
0
  6
ByLayer
 62
  152
370
   -1
100
AcDbLine
 10
91.9868
 20
39.6021
 11
90.726
 21
39.4698
  0
LINE
  5
12D
100
AcDbEntity
  8
0
  6
ByLayer
 62
  152
370
   -1
100
AcDbLine
 10
90.726
 20
39.4698
 11
89.73220000000001
 21
38.789
  0
LINE
  5
12E
100
AcDbEntity
  8
0
  6
ByLayer
 62
  152
370
   -1
100
AcDbLine
 10
89.73220000000001
 20
38.789
 11
88.92749999999999
 21
37.6728
  0
LINE
  5
12F
100
AcDbEntity
  8
0
  6
ByLayer
 62
  152
370
   -1
100
AcDbLine
 10
88.92749999999999
 20
37.6728
 11
88.2414
 21
36.237
  0
LINE
  5
130
100
AcDbEntity
  8
0
  6
ByLayer
 62
  152
370
   -1
100
AcDbLine
 10
88.2414
 20
36.237
 11
87.5951
 21
34.597
  0
LINE
  5
131
100
AcDbEntity
  8
0
  6
ByLayer
 62
  152
370
   -1
100
AcDbLine
 10
87.5951
 20
34.597
 11
86.917
 21
32.8662
  0
LINE
  5
132
100
AcDbEntity
  8
0
  6
ByLayer
 62
  152
370
   -1
100
AcDbLine
 10
86.917
 20
32.8662
 11
86.1328
 21
31.1602
  0
LINE
  5
133
100
AcDbEntity
  8
0
  6
ByLayer
 62
  152
370
   -1
100
AcDbLine
 10
86.1328
 20
31.1602
 11
85.1669
 21
29.5947
  0
LINE
  5
134
100
AcDbEntity
  8
0
  6
ByLayer
 62
  152
370
   -1
100
AcDbLine
 10
85.1669
 20
29.5947
 11
83.94450000000001
 21
28.2842
  0
LINE
  5
135
100
AcDbEntity
  8
0
  6
ByLayer
 62
  152
370
   -1
100
AcDbLine
 10
83.94450000000001
 20
28.2842
 11
82.3916
 21
27.3444
  0
LINE
  5
136
100
AcDbEntity
  8
0
  6
ByLayer
 62
  152
370
   -1
100
AcDbLine
 10
82.3916
 20
27.3444
 11
80.4333
 21
26.8883
  0
LINE
  5
137
100
AcDbEntity
  8
0
  6
ByLayer
 62
  152
370
   -1
100
AcDbLine
 10
80.4333
 20
26.8883
 11
77.997
 21
27.0316
  0
LINE
  5
138
100
AcDbEntity
  8
0
  6
ByLayer
 62
  152
370
   -1
100
AcDbLine
 10
77.997
 20
27.0316
 11
75.00660000000001
 21
27.8901
  0
LINE
  5
139
100
AcDbEntity
  8
0
  6
ByLayer
 62
  152
370
   -1
100
AcDbLine
 10
75.00660000000001
 20
27.8901
 11
71.3878
 21
29.5768
  0
LINE
  5
13A
100
AcDbEntity
  8
0
  6
ByLayer
 62
  152
370
   -1
100
AcDbLine
 10
71.3878
 20
29.5768
 11
67.06619999999999
 21
32.2089
  0
LINE
  5
13B
100
AcDbEntity
  8
0
  6
ByLayer
 62
  152
370
   -1
100
AcDbLine
 10
67.06619999999999
 20
32.2089
 11
64.43980000000001
 21
33.6241
  0
LINE
  5
13C
100
AcDbEntity
  8
0
  6
ByLayer
 62
  152
370
   -1
100
AcDbLine
 10
64.43980000000001
 20
33.6241
 11
61.9263
 21
34.3531
  0
LINE
  5
13D
100
AcDbEntity
  8
0
  6
ByLayer
 62
  152
370
   -1
100
AcDbLine
 10
61.9263
 20
34.3531
 11
59.5768
 21
34.4813
  0
LINE
  5
13E
100
AcDbEntity
  8
0
  6
ByLayer
 62
  152
370
   -1
100
AcDbLine
 10
59.5768
 20
34.4813
 11
57.4368
 21
34.0913
  0
LINE
  5
13F
100
AcDbEntity
  8
0
  6
ByLayer
 62
  152
370
   -1
100
AcDbLine
 10
57.4368
 20
34.0913
 11
55.5544
 21
33.2645
  0
LINE
  5
140
100
AcDbEntity
  8
0
  6
ByLayer
 62
  152
370
   -1
100
AcDbLine
 10
55.5544
 20
33.2645
 11
53.9792
 21
32.0835
  0
LINE
  5
141
100
AcDbEntity
  8
0
  6
ByLayer
 62
  152
370
   -1
100
AcDbLine
 10
53.9792
 20
32.0835
 11
52.7583
 21
30.631
  0
LINE
  5
142
100
AcDbEntity
  8
0
  6
ByLayer
 62
  152
370
   -1
100
AcDbLine
 10
52.7583
 20
30.631
 11
51.9423
 21
28.9912
  0
LINE
  5
143
100
AcDbEntity
  8
0
  6
ByLayer
 62
  152
370
   -1
100
AcDbLine
 10
51.9423
 20
28.9912
 11
52.1974
 21
31.9071
  0
LINE
  5
144
100
AcDbEntity
  8
0
  6
ByLayer
 62
  152
370
   -1
100
AcDbLine
 10
52.1974
 20
31.9071
 11
52.7939
 21
34.1712
  0
LINE
  5
145
100
AcDbEntity
  8
0
  6
ByLayer
 62
  152
370
   -1
100
AcDbLine
 10
52.7939
 20
34.1712
 11
53.7023
 21
35.8496
  0
LINE
  5
146
100
AcDbEntity
  8
0
  6
ByLayer
 62
  152
370
   -1
100
AcDbLine
 10
53.7023
 20
35.8496
 11
54.8887
 21
37.0099
  0
LINE
  5
147
100
AcDbEntity
  8
0
  6
ByLayer
 62
  152
370
   -1
100
AcDbLine
 10
54.8887
 20
37.0099
 11
56.3203
 21
37.7197
  0
LINE
  5
148
100
AcDbEntity
  8
0
  6
ByLayer
 62
  152
370
   -1
100
AcDbLine
 10
56.3203
 20
37.7197
 11
57.9684
 21
38.0421
  0
LINE
  5
149
100
AcDbEntity
  8
0
  6
ByLayer
 62
  152
370
   -1
100
AcDbLine
 10
57.9684
 20
38.0421
 11
59.8001
 21
38.045
  0
LINE
  5
14A
100
AcDbEntity
  8
0
  6
ByLayer
 62
  152
370
   -1
100
AcDbLine
 10
59.8001
 20
38.045
 11
61.7816
 21
37.7941
  0
LINE
  5
14B
100
AcDbEntity
  8
0
  6
ByLayer
 62
  152
370
   -1
100
AcDbLine
 10
61.7816
 20
37.7941
 11
63.8831
 21
37.3574
  0
LINE
  5
14C
100
AcDbEntity
  8
0
  6
ByLayer
 62
  152
370
   -1
100
AcDbLine
 10
63.8831
 20
37.3574
 11
66.0728
 21
36.8004
  0
LINE
  5
14D
100
AcDbEntity
  8
0
  6
ByLayer
 62
  152
370
   -1
100
AcDbLine
 10
66.0728
 20
36.8004
 11
68.3189
 21
36.1887
  0
LINE
  5
14E
100
AcDbEntity
  8
0
  6
ByLayer
 62
  152
370
   -1
100
AcDbLine
 10
68.3189
 20
36.1887
 11
70.5887
 21
35.5893
  0
LINE
  5
14F
100
AcDbEntity
  8
0
  6
ByLayer
 62
  152
370
   -1
100
AcDbLine
 10
70.5887
 20
35.5893
 11
72.8514
 21
35.0683
  0
LINE
  5
150
100
AcDbEntity
  8
0
  6
ByLayer
 62
  152
370
   -1
100
AcDbLine
 10
72.8514
 20
35.0683
 11
75.07429999999999
 21
34.6921
  0
LINE
  5
151
100
AcDbEntity
  8
0
  6
ByLayer
 62
  152
370
   -1
100
AcDbLine
 10
75.07429999999999
 20
34.6921
 11
77.2266
 21
34.5281
  0
LINE
  5
152
100
AcDbEntity
  8
0
  6
ByLayer
 62
  152
370
   -1
100
AcDbLine
 10
77.2266
 20
34.5281
 11
79.2773
 21
34.6397
  0
LINE
  5
153
100
AcDbEntity
  8
0
  6
ByLayer
 62
  152
370
   -1
100
AcDbLine
 10
79.2773
 20
34.6397
 11
81.90089999999999
 21
35.5342
  0
LINE
  5
154
100
AcDbEntity
  8
0
  6
ByLayer
 62
  152
370
   -1
100
AcDbLine
 10
81.90089999999999
 20
35.5342
 11
84.0754
 21
37.1934
  0
LINE
  5
155
100
AcDbEntity
  8
0
  6
ByLayer
 62
  152
370
   -1
100
AcDbLine
 10
84.0754
 20
37.1934
 11
85.955
 21
39.2811
  0
LINE
  5
156
100
AcDbEntity
  8
0
  6
ByLayer
 62
  152
370
   -1
100
AcDbLine
 10
85.955
 20
39.2811
 11
87.697
 21
41.4623
  0
LINE
  5
157
100
AcDbEntity
  8
0
  6
ByLayer
 62
  152
370
   -1
100
AcDbLine
 10
87.697
 20
41.4623
 11
89.4567
 21
43.4026
  0
LINE
  5
158
100
AcDbEntity
  8
0
  6
ByLayer
 62
  152
370
   -1
100
AcDbLine
 10
89.4567
 20
43.4026
 11
91.3888
 21
44.7657
  0
LINE
  5
159
100
AcDbEntity
  8
0
  6
ByLayer
 62
  152
370
   -1
100
AcDbLine
 10
91.3888
 20
44.7657
 11
93.6502
 21
45.2148
  0
LINE
  5
15A
100
AcDbEntity
  8
0
  6
ByLayer
 62
  152
370
   -1
100
AcDbLine
 10
93.6502
 20
45.2148
 11
96.39790000000001
 21
44.4154
  0
LINE
  5
15B
100
AcDbEntity
  8
0
  6
ByLayer
 62
  152
370
   -1
100
AcDbLine
 10
96.39790000000001
 20
44.4154
 11
99.70099999999999
 21
42.835
  0
LINE
  5
15C
100
AcDbEntity
  8
0
  6
ByLayer
 62
  152
370
   -1
100
AcDbLine
 10
99.70099999999999
 20
42.835
 11
102.631
 21
41.6098
  0
LINE
  5
15D
100
AcDbEntity
  8
0
  6
ByLayer
 62
  152
370
   -1
100
AcDbLine
 10
102.631
 20
41.6098
 11
105.22
 21
40.7183
  0
LINE
  5
15E
100
AcDbEntity
  8
0
  6
ByLayer
 62
  152
370
   -1
100
AcDbLine
 10
105.22
 20
40.7183
 11
107.498
 21
40.1366
  0
LINE
  5
15F
100
AcDbEntity
  8
0
  6
ByLayer
 62
  152
370
   -1
100
AcDbLine
 10
107.498
 20
40.1366
 11
109.496
 21
39.842
  0
LINE
  5
160
100
AcDbEntity
  8
0
  6
ByLayer
 62
  152
370
   -1
100
AcDbLine
 10
109.496
 20
39.842
 11
111.245
 21
39.8127
  0
LINE
  5
161
100
AcDbEntity
  8
0
  6
ByLayer
 62
  152
370
   -1
100
AcDbLine
 10
111.245
 20
39.8127
 11
112.777
 21
40.0251
  0
LINE
  5
162
100
AcDbEntity
  8
0
  6
ByLayer
 62
  152
370
   -1
100
AcDbLine
 10
112.777
 20
40.0251
 11
114.122
 21
40.4566
  0
LINE
  5
163
100
AcDbEntity
  8
0
  6
ByLayer
 62
  152
370
   -1
100
AcDbLine
 10
114.122
 20
40.4566
 11
115.311
 21
41.0834
  0
LINE
  5
164
100
AcDbEntity
  8
0
  6
ByLayer
 62
  152
370
   -1
100
AcDbLine
 10
115.311
 20
41.0834
 11
116.375
 21
41.8842
  0
LINE
  5
165
100
AcDbEntity
  8
0
  6
ByLayer
 62
  152
370
   -1
100
AcDbLine
 10
116.375
 20
41.8842
 11
117.347
 21
42.835
  0
LINE
  5
166
100
AcDbEntity
  8
0
  6
ByLayer
 62
  152
370
   -1
100
AcDbLine
 10
117.347
 20
42.835
 11
118.256
 21
43.9138
  0
LINE
  5
167
100
AcDbEntity
  8
0
  6
ByLayer
 62
  152
370
   -1
100
AcDbLine
 10
118.256
 20
43.9138
 11
119.134
 21
45.0977
  0
LINE
  5
168
100
AcDbEntity
  8
0
  6
ByLayer
 62
  152
370
   -1
100
AcDbLine
 10
119.134
 20
45.0977
 11
120.011
 21
46.3642
  0
LINE
  5
169
100
AcDbEntity
  8
0
  6
ByLayer
 62
  152
370
   -1
100
AcDbLine
 10
120.011
 20
46.3642
 11
120.919
 21
47.6899
  0
LINE
  5
16A
100
AcDbEntity
  8
0
  6
ByLayer
 62
  152
370
   -1
100
AcDbLine
 10
120.919
 20
47.6899
 11
121.889
 21
49.0513
  0
LINE
  5
16B
100
AcDbEntity
  8
0
  6
ByLayer
 62
  152
370
   -1
100
AcDbLine
 10
121.889
 20
49.0513
 11
123.623
 21
51.2025
  0
LINE
  5
16C
100
AcDbEntity
  8
0
  6
ByLayer
 62
  152
370
   -1
100
AcDbLine
 10
123.623
 20
51.2025
 11
125.705
 21
53.3425
  0
LINE
  5
16D
100
AcDbEntity
  8
0
  6
ByLayer
 62
  152
370
   -1
100
AcDbLine
 10
125.705
 20
53.3425
 11
128.021
 21
55.1974
  0
LINE
  5
16E
100
AcDbEntity
  8
0
  6
ByLayer
 62
  152
370
   -1
100
AcDbLine
 10
128.021
 20
55.1974
 11
130.46
 21
56.4942
  0
LINE
  5
16F
100
AcDbEntity
  8
0
  6
ByLayer
 62
  152
370
   -1
100
AcDbLine
 10
130.46
 20
56.4942
 11
132.905
 21
56.9613
  0
LINE
  5
170
100
AcDbEntity
  8
0
  6
ByLayer
 62
  152
370
   -1
100
AcDbLine
 10
132.905
 20
56.9613
 11
135.243
 21
56.3245
  0
LINE
  5
171
100
AcDbEntity
  8
0
  6
ByLayer
 62
  152
370
   -1
100
AcDbLine
 10
135.243
 20
56.3245
 11
137.361
 21
54.3126
  0
LINE
  5
172
100
AcDbEntity
  8
0
  6
ByLayer
 62
  152
370
   -1
100
AcDbLine
 10
137.361
 20
54.3126
 11
139.146
 21
50.6511
  0
LINE
  5
173
100
AcDbEntity
  8
0
  6
ByLayer
 62
  152
370
   -1
100
AcDbLine
 10
139.146
 20
50.6511
 11
137.685
 21
52.0707
  0
LINE
  5
174
100
AcDbEntity
  8
0
  6
ByLayer
 62
  152
370
   -1
100
AcDbLine
 10
137.685
 20
52.0707
 11
136.131
 21
52.7886
  0
LINE
  5
175
100
AcDbEntity
  8
0
  6
ByLayer
 62
  152
370
   -1
100
AcDbLine
 10
136.131
 20
52.7886
 11
134.523
 21
52.9015
  0
LINE
  5
176
100
AcDbEntity
  8
0
  6
ByLayer
 62
  152
370
   -1
100
AcDbLine
 10
134.523
 20
52.9015
 11
132.901
 21
52.4979
  0
LINE
  5
177
100
AcDbEntity
  8
0
  6
ByLayer
 62
  152
370
   -1
100
AcDbLine
 10
132.901
 20
52.4979
 11
131.306
 21
51.6724
  0
LINE
  5
178
100
AcDbEntity
  8
0
  6
ByLayer
 62
  152
370
   -1
100
AcDbLine
 10
131.306
 20
51.6724
 11
129.778
 21
50.5174
  0
LINE
  5
179
100
AcDbEntity
  8
0
  6
ByLayer
 62
  152
370
   -1
100
AcDbLine
 10
129.778
 20
50.5174
 11
128.357
 21
49.1243
  0
LINE
  5
17A
100
AcDbEntity
  8
0
  6
ByLayer
 62
  152
370
   -1
100
AcDbLine
 10
128.357
 20
49.1243
 11
127.083
 21
47.5851
  0
LINE
  5
17B
100
AcDbEntity
  8
0
  6
ByLayer
 62
  152
370
   -1
100
AcDbLine
 10
127.083
 20
47.5851
 11
125.888
 21
45.9246
  0
LINE
  5
17C
100
AcDbEntity
  8
0
  6
ByLayer
 62
  152
370
   -1
100
AcDbLine
 10
125.888
 20
45.9246
 11
124.736
 21
44.2323
  0
LINE
  5
17D
100
AcDbEntity
  8
0
  6
ByLayer
 62
  152
370
   -1
100
AcDbLine
 10
124.736
 20
44.2323
 11
123.591
 21
42.5468
  0
LINE
  5
17E
100
AcDbEntity
  8
0
  6
ByLayer
 62
  152
370
   -1
100
AcDbLine
 10
123.591
 20
42.5468
 11
122.418
 21
40.9071
  0
LINE
  5
17F
100
AcDbEntity
  8
0
  6
ByLayer
 62
  152
370
   -1
100
AcDbLine
 10
122.418
 20
40.9071
 11
121.183
 21
39.3527
  0
LINE
  5
180
100
AcDbEntity
  8
0
  6
ByLayer
 62
  152
370
   -1
100
AcDbLine
 10
121.183
 20
39.3527
 11
119.852
 21
37.9222
  0
LINE
  5
181
100
AcDbEntity
  8
0
  6
ByLayer
 62
  152
370
   -1
100
AcDbLine
 10
119.852
 20
37.9222
 11
118.39
 21
36.6557
  0
LINE
  5
182
100
AcDbEntity
  8
0
  6
ByLayer
 62
  152
370
   -1
100
AcDbLine
 10
118.39
 20
36.6557
 11
116.761
 21
35.5921
  0
LINE
  5
183
100
AcDbEntity
  8
0
  6
ByLayer
 62
  152
370
   -1
100
AcDbLine
 10
116.761
 20
35.5921
 11
114.931
 21
34.7707
  0
LINE
  5
184
100
AcDbEntity
  8
0
  6
ByLayer
 62
  152
370
   -1
100
AcDbLine
 10
114.931
 20
34.7707
 11
112.866
 21
34.2291
  0
LINE
  5
185
100
AcDbEntity
  8
0
  6
ByLayer
 62
  152
370
   -1
100
AcDbLine
 10
112.866
 20
34.2291
 11
110.53
 21
34.0086
  0
LINE
  5
186
100
AcDbEntity
  8
0
  6
ByLayer
 62
  152
370
   -1
100
AcDbLine
 10
110.53
 20
34.0086
 11
107.889
 21
34.1464
  0
LINE
  5
187
100
AcDbEntity
  8
0
  6
ByLayer
 62
  152
370
   -1
100
AcDbLine
 10
107.889
 20
34.1464
 11
104.91
 21
34.6811
  0
LINE
  5
188
100
AcDbEntity
  8
0
  6
ByLayer
 62
  152
370
   -1
100
AcDbLine
 10
104.91
 20
34.6811
 11
101.556
 21
35.6553
  0
LINE
  5
189
100
AcDbEntity
  8
0
  6
ByLayer
 62
  152
370
   -1
100
AcDbLine
 10
101.556
 20
35.6553
 11
97.7925
 21
37.1052
  0
LINE
  5
18A
100
AcDbEntity
  8
0
  6
ByLayer
 62
  152
370
   -1
100
AcDbLine
 10
97.7925
 20
37.1052
 11
93.58669999999999
 21
39.0687
  0
ENDSEC
  0
SECTION
  2
OBJECTS
  0
DICTIONARY
  5
C
330
0
100
AcDbDictionary
281
    1
  3
ACAD_GROUP
350
D
  0
DICTIONARY
  5
D
330
C
100
AcDbDictionary
281
    1
  0
ENDSEC
  0
EOF
