  0
SECTION
  2
HEADER
  9
$ACADVER
  1
AC1009
  9
$EXTMIN
 10
0.0
 20
0.0
 30
0.0
  9
$EXTMAX
 10
1000.0
 20
1000.0
 30
0.0
  9
$FILLMODE
 70
 0
  9
$SPLFRAME
 70
 1
  0
ENDSEC
  0
SECTION
  2
TABLES
  0
TABLE
  2
LAYER
 70
1
  0
LAYER
  2
0
 70
     0
 62
     7
  6
CONTINUOUS
  0
ENDTAB
  0
ENDSEC
  0
SECTION
  2
ENTITIES
  0
LINE
  8
0
 62
     152
 10
42.3499
 20
50.3259
 30
0.0
 11
41.293
 21
47.3548
 31
0.0
  0
LINE
  8
0
 62
     152
 10
41.293
 20
47.3548
 30
0.0
 11
40.3338
 21
43.7871
 31
0.0
  0
LINE
  8
0
 62
     152
 10
40.3338
 20
43.7871
 30
0.0
 11
39.4035
 21
39.7827
 31
0.0
  0
LINE
  8
0
 62
     152
 10
39.4035
 20
39.7827
 30
0.0
 11
38.3261
 21
35.9615
 31
0.0
  0
LINE
  8
0
 62
     152
 10
38.3261
 20
35.9615
 30
0.0
 11
37.0858
 21
32.3577
 31
0.0
  0
LINE
  8
0
 62
     152
 10
37.0858
 20
32.3577
 30
0.0
 11
35.669
 21
29.005
 31
0.0
  0
LINE
  8
0
 62
     152
 10
35.669
 20
29.005
 30
0.0
 11
34.0637
 21
25.9402
 31
0.0
  0
LINE
  8
0
 62
     152
 10
34.0637
 20
25.9402
 30
0.0
 11
32.2557
 21
23.1938
 31
0.0
  0
LINE
  8
0
 62
     152
 10
32.2557
 20
23.1938
 30
0.0
 11
30.2314
 21
20.8015
 31
0.0
  0
LINE
  8
0
 62
     152
 10
30.2314
 20
20.8015
 30
0.0
 11
27.9756
 21
18.7965
 31
0.0
  0
LINE
  8
0
 62
     152
 10
27.9756
 20
18.7965
 30
0.0
 11
25.4758
 21
17.2131
 31
0.0
  0
LINE
  8
0
 62
     152
 10
25.4758
 20
17.2131
 30
0.0
 11
22.7183
 21
16.0845
 31
0.0
  0
LINE
  8
0
 62
     152
 10
22.7183
 20
16.0845
 30
0.0
 11
19.6908
 21
15.4464
 31
0.0
  0
LINE
  8
0
 62
     152
 10
19.6908
 20
15.4464
 30
0.0
 11
16.3766
 21
15.3307
 31
0.0
  0
LINE
  8
0
 62
     152
 10
16.3766
 20
15.3307
 30
0.0
 11
12.7648
 21
15.773
 31
0.0
  0
LINE
  8
0
 62
     152
 10
12.7648
 20
15.773
 30
0.0
 11
8.84012
 21
16.8052
 31
0.0
  0
LINE
  8
0
 62
     152
 10
8.84012
 20
16.8052
 30
0.0
 11
4.58886
 21
18.4629
 31
0.0
  0
LINE
  8
0
 62
     152
 10
4.58886
 20
18.4629
 30
0.0
 11
0
 21
20.7794
 31
0.0
  0
LINE
  8
0
 62
     152
 10
0
 20
20.7794
 30
0.0
 11
5.05051
 21
19.7859
 31
0.0
  0
LINE
  8
0
 62
     152
 10
5.05051
 20
19.7859
 30
0.0
 11
9.5691
 21
19.3987
 31
0.0
  0
LINE
  8
0
 62
     152
 10
9.5691
 20
19.3987
 30
0.0
 11
13.5902
 21
19.5599
 31
0.0
  0
LINE
  8
0
 62
     152
 10
13.5902
 20
19.5599
 30
0.0
 11
17.1456
 21
20.2131
 31
0.0
  0
LINE
  8
0
 62
     152
 10
17.1456
 20
20.2131
 30
0.0
 11
20.2723
 21
21.3045
 31
0.0
  0
LINE
  8
0
 62
     152
 10
20.2723
 20
21.3045
 30
0.0
 11
23.0008
 21
22.7735
 31
0.0
  0
LINE
  8
0
 62
     152
 10
23.0008
 20
22.7735
 30
0.0
 11
25.3683
 21
24.5649
 31
0.0
  0
LINE
  8
0
 62
     152
 10
25.3683
 20
24.5649
 30
0.0
 11
27.4078
 21
26.6237
 31
0.0
  0
LINE
  8
0
 62
     152
 10
27.4078
 20
26.6237
 30
0.0
 11
29.1538
 21
28.8906
 31
0.0
  0
LINE
  8
0
 62
     152
 10
29.1538
 20
28.8906
 30
0.0
 11
30.6379
 21
31.3104
 31
0.0
  0
LINE
  8
0
 62
     152
 10
30.6379
 20
31.3104
 30
0.0
 11
31.8975
 21
33.8267
 31
0.0
  0
LINE
  8
0
 62
     152
 10
31.8975
 20
33.8267
 30
0.0
 11
32.964
 21
36.3816
 31
0.0
  0
LINE
  8
0
 62
     152
 10
32.964
 20
36.3816
 30
0.0
 11
33.8735
 21
38.9184
 31
0.0
  0
LINE
  8
0
 62
     152
 10
33.8735
 20
38.9184
 30
0.0
 11
34.6577
 21
41.3826
 31
0.0
  0
LINE
  8
0
 62
     152
 10
34.6577
 20
41.3826
 30
0.0
 11
35.3536
 21
43.7141
 31
0.0
  0
LINE
  8
0
 62
     152
 10
35.3536
 20
43.7141
 30
0.0
 11
35.9929
 21
45.8583
 31
0.0
  0
LINE
  8
0
 62
     152
 10
35.9929
 20
45.8583
 30
0.0
 11
36.8335
 21
48.5482
 31
0.0
  0
LINE
  8
0
 62
     152
 10
36.8335
 20
48.5482
 30
0.0
 11
37.797
 21
51.15
 31
0.0
  0
LINE
  8
0
 62
     152
 10
37.797
 20
51.15
 30
0.0
 11
38.9985
 21
53.4804
 31
0.0
  0
LINE
  8
0
 62
     152
 10
38.9985
 20
53.4804
 30
0.0
 11
40.5571
 21
55.3572
 31
0.0
  0
LINE
  8
0
 62
     152
 10
40.5571
 20
55.3572
 30
0.0
 11
42.1499
 21
56.461
 31
0.0
  0
LINE
  8
0
 62
     152
 10
42.1499
 20
56.461
 30
0.0
 11
44.038
 21
57.2107
 31
0.0
  0
LINE
  8
0
 62
     152
 10
44.038
 20
57.2107
 30
0.0
 11
46.083
 21
57.5412
 31
0.0
  0
LINE
  8
0
 62
     152
 10
46.083
 20
57.5412
 30
0.0
 11
48.1499
 21
57.3828
 31
0.0
  0
LINE
  8
0
 62
     152
 10
48.1499
 20
57.3828
 30
0.0
 11
50.1054
 21
56.6692
 31
0.0
  0
LINE
  8
0
 62
     152
 10
50.1054
 20
56.6692
 30
0.0
 11
51.8128
 21
55.3325
 31
0.0
  0
LINE
  8
0
 62
     152
 10
51.8128
 20
55.3325
 30
0.0
 11
53.1386
 21
53.304
 31
0.0
  0
LINE
  8
0
 62
     152
 10
53.1386
 20
53.304
 30
0.0
 11
53.9475
 21
50.516
 31
0.0
  0
LINE
  8
0
 62
     152
 10
53.9475
 20
50.516
 30
0.0
 11
52.7611
 21
52.203
 31
0.0
  0
LINE
  8
0
 62
     152
 10
52.7611
 20
52.203
 30
0.0
 11
51.2865
 21
53.406
 31
0.0
  0
LINE
  8
0
 62
     152
 10
51.2865
 20
53.406
 30
0.0
 11
49.6288
 21
54.1253
 31
0.0
  0
LINE
  8
0
 62
     152
 10
49.6288
 20
54.1253
 30
0.0
 11
47.8966
 21
54.3553
 31
0.0
  0
LINE
  8
0
 62
     152
 10
47.8966
 20
54.3553
 30
0.0
 11
46.1945
 21
54.0935
 31
0.0
  0
LINE
  8
0
 62
     152
 10
46.1945
 20
54.0935
 30
0.0
 11
44.632
 21
53.3368
 31
0.0
  0
LINE
  8
0
 62
     152
 10
44.632
 20
53.3368
 30
0.0
 11
43.3144
 21
52.0831
 31
0.0
  0
LINE
  8
0
 62
     152
 10
43.3144
 20
52.0831
 30
0.0
 11
42.3499
 21
50.3259
 31
0.0
  0
LINE
  8
0
 62
     152
 10
27.9618
 20
49.6316
 30
0.0
 11
29.2006
 21
53.9475
 31
0.0
  0
LINE
  8
0
 62
     152
 10
29.2006
 20
53.9475
 30
0.0
 11
31.3642
 21
57.3775
 31
0.0
  0
LINE
  8
0
 62
     152
 10
31.3642
 20
57.3775
 30
0.0
 11
34.1974
 21
59.902
 31
0.0
  0
LINE
  8
0
 62
     152
 10
34.1974
 20
59.902
 30
0.0
 11
37.4481
 21
61.499
 31
0.0
  0
LINE
  8
0
 62
     152
 10
37.4481
 20
61.499
 30
0.0
 11
40.8615
 21
62.1482
 31
0.0
  0
LINE
  8
0
 62
     152
 10
40.8615
 20
62.1482
 30
0.0
 11
44.184
 21
61.83
 31
0.0
  0
LINE
  8
0
 62
     152
 10
44.184
 20
61.83
 30
0.0
 11
47.1622
 21
60.5222
 31
0.0
  0
LINE
  8
0
 62
     152
 10
47.1622
 20
60.5222
 30
0.0
 11
49.542
 21
58.2027
 31
0.0
  0
LINE
  8
0
 62
     152
 10
49.542
 20
58.2027
 30
0.0
 11
47.3728
 21
58.9827
 31
0.0
  0
LINE
  8
0
 62
     152
 10
47.3728
 20
58.9827
 30
0.0
 11
45.0067
 21
59.3549
 31
0.0
  0
LINE
  8
0
 62
     152
 10
45.0067
 20
59.3549
 30
0.0
 11
42.5496
 21
59.2307
 31
0.0
  0
LINE
  8
0
 62
     152
 10
42.5496
 20
59.2307
 30
0.0
 11
40.1105
 21
58.5184
 31
0.0
  0
LINE
  8
0
 62
     152
 10
40.1105
 20
58.5184
 30
0.0
 11
37.7956
 21
57.1267
 31
0.0
  0
LINE
  8
0
 62
     152
 10
37.7956
 20
57.1267
 30
0.0
 11
35.7117
 21
54.9645
 31
0.0
  0
LINE
  8
0
 62
     152
 10
35.7117
 20
54.9645
 30
0.0
 11
33.9687
 21
51.9409
 31
0.0
  0
LINE
  8
0
 62
     152
 10
33.9687
 20
51.9409
 30
0.0
 11
32.6733
 21
47.964
 31
0.0
  0
LINE
  8
0
 62
     152
 10
32.6733
 20
47.964
 30
0.0
 11
30.9108
 21
41.8564
 31
0.0
  0
LINE
  8
0
 62
     152
 10
30.9108
 20
41.8564
 30
0.0
 11
28.7886
 21
36.9164
 31
0.0
  0
LINE
  8
0
 62
     152
 10
28.7886
 20
36.9164
 30
0.0
 11
26.3881
 21
33.0564
 31
0.0
  0
LINE
  8
0
 62
     152
 10
26.3881
 20
33.0564
 30
0.0
 11
23.7918
 21
30.1942
 31
0.0
  0
LINE
  8
0
 62
     152
 10
23.7918
 20
30.1942
 30
0.0
 11
21.0812
 21
28.2443
 31
0.0
  0
LINE
  8
0
 62
     152
 10
21.0812
 20
28.2443
 30
0.0
 11
18.3389
 21
27.1225
 31
0.0
  0
LINE
  8
0
 62
     152
 10
18.3389
 20
27.1225
 30
0.0
 11
15.6449
 21
26.7422
 31
0.0
  0
LINE
  8
0
 62
     152
 10
15.6449
 20
26.7422
 30
0.0
 11
13.0831
 21
27.0192
 31
0.0
  0
LINE
  8
0
 62
     152
 10
13.0831
 20
27.0192
 30
0.0
 11
10.7349
 21
27.8708
 31
0.0
  0
LINE
  8
0
 62
     152
 10
10.7349
 20
27.8708
 30
0.0
 11
8.68303
 21
29.2089
 31
0.0
  0
LINE
  8
0
 62
     152
 10
8.68303
 20
29.2089
 30
0.0
 11
7.00595
 21
30.9521
 31
0.0
  0
LINE
  8
0
 62
     152
 10
7.00595
 20
30.9521
 30
0.0
 11
5.79053
 21
33.0137
 31
0.0
  0
LINE
  8
0
 62
     152
 10
5.79053
 20
33.0137
 30
0.0
 11
5.1139
 21
35.3081
 31
0.0
  0
LINE
  8
0
 62
     152
 10
5.1139
 20
35.3081
 30
0.0
 11
5.06155
 21
37.7515
 31
0.0
  0
LINE
  8
0
 62
     152
 10
5.06155
 20
37.7515
 30
0.0
 11
5.71334
 21
40.2594
 31
0.0
  0
LINE
  8
0
 62
     152
 10
5.71334
 20
40.2594
 30
0.0
 11
7.15338
 21
42.7468
 31
0.0
  0
LINE
  8
0
 62
     152
 10
7.15338
 20
42.7468
 30
0.0
 11
6.98803
 21
39.9729
 31
0.0
  0
LINE
  8
0
 62
     152
 10
6.98803
 20
39.9729
 30
0.0
 11
7.28846
 21
37.6315
 31
0.0
  0
LINE
  8
0
 62
     152
 10
7.28846
 20
37.6315
 30
0.0
 11
7.99539
 21
35.7216
 31
0.0
  0
LINE
  8
0
 62
     152
 10
7.99539
 20
35.7216
 30
0.0
 11
9.05097
 21
34.2415
 31
0.0
  0
LINE
  8
0
 62
     152
 10
9.05097
 20
34.2415
 30
0.0
 11
10.3987
 21
33.1914
 31
0.0
  0
LINE
  8
0
 62
     152
 10
10.3987
 20
33.1914
 30
0.0
 11
11.9807
 21
32.5699
 31
0.0
  0
LINE
  8
0
 62
     152
 10
11.9807
 20
32.5699
 30
0.0
 11
13.739
 21
32.3742
 31
0.0
  0
LINE
  8
0
 62
     152
 10
13.739
 20
32.3742
 30
0.0
 11
15.6145
 21
32.6044
 31
0.0
  0
LINE
  8
0
 62
     152
 10
15.6145
 20
32.6044
 30
0.0
 11
17.5507
 21
33.2603
 31
0.0
  0
LINE
  8
0
 62
     152
 10
17.5507
 20
33.2603
 30
0.0
 11
19.491
 21
34.3379
 31
0.0
  0
LINE
  8
0
 62
     152
 10
19.491
 20
34.3379
 30
0.0
 11
21.3761
 21
35.8387
 31
0.0
  0
LINE
  8
0
 62
     152
 10
21.3761
 20
35.8387
 30
0.0
 11
23.1483
 21
37.761
 31
0.0
  0
LINE
  8
0
 62
     152
 10
23.1483
 20
37.761
 30
0.0
 11
24.751
 21
40.1024
 31
0.0
  0
LINE
  8
0
 62
     152
 10
24.751
 20
40.1024
 30
0.0
 11
26.1262
 21
42.8611
 31
0.0
  0
LINE
  8
0
 62
     152
 10
26.1262
 20
42.8611
 30
0.0
 11
27.2149
 21
46.0389
 31
0.0
  0
LINE
  8
0
 62
     152
 10
27.2149
 20
46.0389
 30
0.0
 11
27.9618
 21
49.6316
 31
0.0
  0
LINE
  8
0
 62
     152
 10
52.2372
 20
1.29673
 30
0.0
 11
47.8208
 21
2.17179
 31
0.0
  0
LINE
  8
0
 62
     152
 10
47.8208
 20
2.17179
 30
0.0
 11
44.1882
 21
3.4699
 31
0.0
  0
LINE
  8
0
 62
     152
 10
44.1882
 20
3.4699
 30
0.0
 11
41.2873
 21
5.14558
 31
0.0
  0
LINE
  8
0
 62
     152
 10
41.2873
 20
5.14558
 30
0.0
 11
39.0659
 21
7.14925
 31
0.0
  0
LINE
  8
0
 62
     152
 10
39.0659
 20
7.14925
 30
0.0
 11
37.4689
 21
9.43405
 31
0.0
  0
LINE
  8
0
 62
     152
 10
37.4689
 20
9.43405
 30
0.0
 11
36.4451
 21
11.9517
 31
0.0
  0
LINE
  8
0
 62
     152
 10
36.4451
 20
11.9517
 30
0.0
 11
35.9406
 21
14.6554
 31
0.0
  0
LINE
  8
0
 62
     152
 10
35.9406
 20
14.6554
 30
0.0
 11
35.9033
 21
17.4942
 31
0.0
  0
LINE
  8
0
 62
     152
 10
35.9033
 20
17.4942
 30
0.0
 11
36.2797
 21
20.4225
 31
0.0
  0
LINE
  8
0
 62
     152
 10
36.2797
 20
20.4225
 30
0.0
 11
37.0156
 21
23.3922
 31
0.0
  0
LINE
  8
0
 62
     152
 10
37.0156
 20
23.3922
 30
0.0
 11
38.0601
 21
26.355
 31
0.0
  0
LINE
  8
0
 62
     152
 10
38.0601
 20
26.355
 30
0.0
 11
39.3594
 21
29.2626
 31
0.0
  0
LINE
  8
0
 62
     152
 10
39.3594
 20
29.2626
 30
0.0
 11
40.8601
 21
32.0669
 31
0.0
  0
LINE
  8
0
 62
     152
 10
40.8601
 20
32.0669
 30
0.0
 11
42.5097
 21
34.7211
 31
0.0
  0
LINE
  8
0
 62
     152
 10
42.5097
 20
34.7211
 30
0.0
 11
44.2556
 21
37.1768
 31
0.0
  0
LINE
  8
0
 62
     152
 10
44.2556
 20
37.1768
 30
0.0
 11
46.0446
 21
39.3845
 31
0.0
  0
LINE
  8
0
 62
     152
 10
46.0446
 20
39.3845
 30
0.0
 11
43.9843
 21
34.6136
 31
0.0
  0
LINE
  8
0
 62
     152
 10
43.9843
 20
34.6136
 30
0.0
 11
42.394
 21
29.5534
 31
0.0
  0
LINE
  8
0
 62
     152
 10
42.394
 20
29.5534
 30
0.0
 11
41.4433
 21
24.3513
 31
0.0
  0
LINE
  8
0
 62
     152
 10
41.4433
 20
24.3513
 30
0.0
 11
41.3011
 21
19.152
 31
0.0
  0
LINE
  8
0
 62
     152
 10
41.3011
 20
19.152
 30
0.0
 11
42.139
 21
14.1029
 31
0.0
  0
LINE
  8
0
 62
     152
 10
42.139
 20
14.1029
 30
0.0
 11
44.1276
 21
9.34586
 31
0.0
  0
LINE
  8
0
 62
     152
 10
44.1276
 20
9.34586
 30
0.0
 11
47.4363
 21
5.02846
 31
0.0
  0
LINE
  8
0
 62
     152
 10
47.4363
 20
5.02846
 30
0.0
 11
52.2372
 21
1.29673
 31
0.0
  0
LINE
  8
0
 62
     152
 10
65.6608
 20
10.79
 30
0.0
 11
63.6736
 21
10.0266
 31
0.0
  0
LINE
  8
0
 62
     152
 10
63.6736
 20
10.0266
 30
0.0
 11
61.5047
 21
9.54705
 31
0.0
  0
LINE
  8
0
 62
     152
 10
61.5047
 20
9.54705
 30
0.0
 11
59.224
 21
9.36378
 31
0.0
  0
LINE
  8
0
 62
     152
 10
59.224
 20
9.36378
 30
0.0
 11
56.8978
 21
9.48641
 31
0.0
  0
LINE
  8
0
 62
     152
 10
56.8978
 20
9.48641
 30
0.0
 11
54.5952
 21
9.926
 31
0.0
  0
LINE
  8
0
 62
     152
 10
54.5952
 20
9.926
 30
0.0
 11
52.3847
 21
10.6936
 31
0.0
  0
LINE
  8
0
 62
     152
 10
52.3847
 20
10.6936
 30
0.0
 11
50.3357
 21
11.7988
 31
0.0
  0
LINE
  8
0
 62
     152
 10
50.3357
 20
11.7988
 30
0.0
 11
48.5151
 21
13.2553
 31
0.0
  0
LINE
  8
0
 62
     152
 10
48.5151
 20
13.2553
 30
0.0
 11
46.9911
 21
15.0702
 31
0.0
  0
LINE
  8
0
 62
     152
 10
46.9911
 20
15.0702
 30
0.0
 11
45.8322
 21
17.2572
 31
0.0
  0
LINE
  8
0
 62
     152
 10
45.8322
 20
17.2572
 30
0.0
 11
45.1072
 21
19.8245
 31
0.0
  0
LINE
  8
0
 62
     152
 10
45.1072
 20
19.8245
 30
0.0
 11
44.8853
 21
22.7845
 31
0.0
  0
LINE
  8
0
 62
     152
 10
44.8853
 20
22.7845
 30
0.0
 11
45.2342
 21
26.1483
 31
0.0
  0
LINE
  8
0
 62
     152
 10
45.2342
 20
26.1483
 30
0.0
 11
46.2209
 21
29.9255
 31
0.0
  0
LINE
  8
0
 62
     152
 10
46.2209
 20
29.9255
 30
0.0
 11
47.9157
 21
34.1271
 31
0.0
  0
LINE
  8
0
 62
     152
 10
47.9157
 20
34.1271
 30
0.0
 11
50.3865
 21
38.7629
 31
0.0
  0
LINE
  8
0
 62
     152
 10
50.3865
 20
38.7629
 30
0.0
 11
50.111
 21
37.1669
 31
0.0
  0
LINE
  8
0
 62
     152
 10
50.111
 20
37.1669
 30
0.0
 11
49.8133
 21
35.4224
 31
0.0
  0
LINE
  8
0
 62
     152
 10
49.8133
 20
35.4224
 30
0.0
 11
49.5321
 21
33.558
 31
0.0
  0
LINE
  8
0
 62
     152
 10
49.5321
 20
33.558
 30
0.0
 11
49.3078
 21
31.6012
 31
0.0
  0
LINE
  8
0
 62
     152
 10
49.3078
 20
31.6012
 30
0.0
 11
49.1793
 21
29.5782
 31
0.0
  0
LINE
  8
0
 62
     152
 10
49.1793
 20
29.5782
 30
0.0
 11
49.1892
 21
27.5167
 31
0.0
  0
LINE
  8
0
 62
     152
 10
49.1892
 20
27.5167
 30
0.0
 11
49.3765
 21
25.4441
 31
0.0
  0
LINE
  8
0
 62
     152
 10
49.3765
 20
25.4441
 30
0.0
 11
49.7801
 21
23.3881
 31
0.0
  0
LINE
  8
0
 62
     152
 10
49.7801
 20
23.3881
 30
0.0
 11
50.443
 21
21.3761
 31
0.0
  0
LINE
  8
0
 62
     152
 10
50.443
 20
21.3761
 30
0.0
 11
51.4022
 21
19.4331
 31
0.0
  0
LINE
  8
0
 62
     152
 10
51.4022
 20
19.4331
 30
0.0
 11
52.699
 21
17.5893
 31
0.0
  0
LINE
  8
0
 62
     152
 10
52.699
 20
17.5893
 30
0.0
 11
54.3747
 21
15.8709
 31
0.0
  0
LINE
  8
0
 62
     152
 10
54.3747
 20
15.8709
 30
0.0
 11
56.4677
 21
14.304
 31
0.0
  0
LINE
  8
0
 62
     152
 10
56.4677
 20
14.304
 30
0.0
 11
59.0201
 21
12.9164
 31
0.0
  0
LINE
  8
0
 62
     152
 10
59.0201
 20
12.9164
 30
0.0
 11
62.0709
 21
11.7367
 31
0.0
  0
LINE
  8
0
 62
     152
 10
62.0709
 20
11.7367
 30
0.0
 11
65.6608
 21
10.79
 31
0.0
  0
LINE
  8
0
 62
     152
 10
63.5868
 20
56.0585
 30
0.0
 11
63.8679
 21
53.0257
 31
0.0
  0
LINE
  8
0
 62
     152
 10
63.8679
 20
53.0257
 30
0.0
 11
63.8168
 21
50.4074
 31
0.0
  0
LINE
  8
0
 62
     152
 10
63.8168
 20
50.4074
 30
0.0
 11
63.4862
 21
48.1774
 31
0.0
  0
LINE
  8
0
 62
     152
 10
63.4862
 20
48.1774
 30
0.0
 11
62.9348
 21
46.3102
 31
0.0
  0
LINE
  8
0
 62
     152
 10
62.9348
 20
46.3102
 30
0.0
 11
62.2169
 21
44.7795
 31
0.0
  0
LINE
  8
0
 62
     152
 10
62.2169
 20
44.7795
 30
0.0
 11
61.3904
 21
43.5571
 31
0.0
  0
LINE
  8
0
 62
     152
 10
61.3904
 20
43.5571
 30
0.0
 11
60.507
 21
42.6173
 31
0.0
  0
LINE
  8
0
 62
     152
 10
60.507
 20
42.6173
 30
0.0
 11
59.6276
 21
41.9336
 31
0.0
  0
LINE
  8
0
 62
     152
 10
59.6276
 20
41.9336
 30
0.0
 11
59.49
 21
45.1901
 31
0.0
  0
LINE
  8
0
 62
     152
 10
59.49
 20
45.1901
 30
0.0
 11
59.0628
 21
48.1926
 31
0.0
  0
LINE
  8
0
 62
     152
 10
59.0628
 20
48.1926
 30
0.0
 11
58.4041
 21
50.9252
 31
0.0
  0
LINE
  8
0
 62
     152
 10
58.4041
 20
50.9252
 30
0.0
 11
57.5691
 21
53.3742
 31
0.0
  0
LINE
  8
0
 62
     152
 10
57.5691
 20
53.3742
 30
0.0
 11
56.6138
 21
55.5226
 31
0.0
  0
LINE
  8
0
 62
     152
 10
56.6138
 20
55.5226
 30
0.0
 11
55.5957
 21
57.3553
 31
0.0
  0
LINE
  8
0
 62
     152
 10
55.5957
 20
57.3553
 30
0.0
 11
54.5705
 21
58.8574
 31
0.0
  0
LINE
  8
0
 62
     152
 10
54.5705
 20
58.8574
 30
0.0
 11
53.5961
 21
60.0135
 31
0.0
  0
LINE
  8
0
 62
     152
 10
53.5961
 20
60.0135
 30
0.0
 11
61.5692
 21
63.1638
 31
0.0
  0
LINE
  8
0
 62
     152
 10
61.5692
 20
63.1638
 30
0.0
 11
68.7599
 21
65.3905
 31
0.0
  0
LINE
  8
0
 62
     152
 10
68.7599
 20
65.3905
 30
0.0
 11
75.2369
 21
66.7978
 31
0.0
  0
LINE
  8
0
 62
     152
 10
75.2369
 20
66.7978
 30
0.0
 11
81.0715
 21
67.492
 31
0.0
  0
LINE
  8
0
 62
     152
 10
81.0715
 20
67.492
 30
0.0
 11
86.3342
 21
67.5778
 31
0.0
  0
LINE
  8
0
 62
     152
 10
86.3342
 20
67.5778
 30
0.0
 11
91.0953
 21
67.1601
 31
0.0
  0
LINE
  8
0
 62
     152
 10
91.0953
 20
67.1601
 30
0.0
 11
95.425
 21
66.3444
 31
0.0
  0
LINE
  8
0
 62
     152
 10
95.425
 20
66.3444
 30
0.0
 11
99.3951
 21
65.2364
 31
0.0
  0
LINE
  8
0
 62
     152
 10
99.3951
 20
65.2364
 30
0.0
 11
103.073
 21
63.9396
 31
0.0
  0
LINE
  8
0
 62
     152
 10
103.073
 20
63.9396
 30
0.0
 11
106.532
 21
62.5616
 31
0.0
  0
LINE
  8
0
 62
     152
 10
106.532
 20
62.5616
 30
0.0
 11
109.841
 21
61.2055
 31
0.0
  0
LINE
  8
0
 62
     152
 10
109.841
 20
61.2055
 30
0.0
 11
113.071
 21
59.9765
 31
0.0
  0
LINE
  8
0
 62
     152
 10
113.071
 20
59.9765
 30
0.0
 11
116.292
 21
58.9813
 31
0.0
  0
LINE
  8
0
 62
     152
 10
116.292
 20
58.9813
 30
0.0
 11
119.575
 21
58.324
 31
0.0
  0
LINE
  8
0
 62
     152
 10
119.575
 20
58.324
 30
0.0
 11
122.99
 21
58.1092
 31
0.0
  0
LINE
  8
0
 62
     152
 10
122.99
 20
58.1092
 30
0.0
 11
126.609
 21
58.4426
 31
0.0
  0
LINE
  8
0
 62
     152
 10
126.609
 20
58.4426
 30
0.0
 11
124.077
 21
57.0784
 31
0.0
  0
LINE
  8
0
 62
     152
 10
124.077
 20
57.0784
 30
0.0
 11
121.383
 21
56.3757
 31
0.0
  0
LINE
  8
0
 62
     152
 10
121.383
 20
56.3757
 30
0.0
 11
118.521
 21
56.2268
 31
0.0
  0
LINE
  8
0
 62
     152
 10
118.521
 20
56.2268
 30
0.0
 11
115.485
 21
56.5256
 31
0.0
  0
LINE
  8
0
 62
     152
 10
115.485
 20
56.5256
 30
0.0
 11
112.27
 21
57.1638
 31
0.0
  0
LINE
  8
0
 62
     152
 10
112.27
 20
57.1638
 30
0.0
 11
108.87
 21
58.0362
 31
0.0
  0
LINE
  8
0
 62
     152
 10
108.87
 20
58.0362
 30
0.0
 11
105.281
 21
59.0338
 31
0.0
  0
LINE
  8
0
 62
     152
 10
105.281
 20
59.0338
 30
0.0
 11
101.497
 21
60.0523
 31
0.0
  0
LINE
  8
0
 62
     152
 10
101.497
 20
60.0523
 30
0.0
 11
97.5127
 21
60.9822
 31
0.0
  0
LINE
  8
0
 62
     152
 10
97.5127
 20
60.9822
 30
0.0
 11
93.3249
 21
61.7181
 31
0.0
  0
LINE
  8
0
 62
     152
 10
93.3249
 20
61.7181
 30
0.0
 11
88.9247
 21
62.1524
 31
0.0
  0
LINE
  8
0
 62
     152
 10
88.9247
 20
62.1524
 30
0.0
 11
84.3097
 21
62.1785
 31
0.0
  0
LINE
  8
0
 62
     152
 10
84.3097
 20
62.1785
 30
0.0
 11
79.4727
 21
61.6892
 31
0.0
  0
LINE
  8
0
 62
     152
 10
79.4727
 20
61.6892
 30
0.0
 11
74.4114
 21
60.5772
 31
0.0
  0
LINE
  8
0
 62
     152
 10
74.4114
 20
60.5772
 30
0.0
 11
69.1169
 21
58.7361
 31
0.0
  0
LINE
  8
0
 62
     152
 10
69.1169
 20
58.7361
 30
0.0
 11
63.5868
 21
56.0585
 31
0.0
  0
LINE
  8
0
 62
     40
 10
47.9379
 20
51.2741
 30
0.0
 11
46.6852
 21
50.8702
 31
0.0
  0
LINE
  8
0
 62
     40
 10
46.6852
 20
50.8702
 30
0.0
 11
45.7207
 21
50.0447
 31
0.0
  0
LINE
  8
0
 62
     40
 10
45.7207
 20
50.0447
 30
0.0
 11
45.1337
 21
48.919
 31
0.0
  0
LINE
  8
0
 62
     40
 10
45.1337
 20
48.919
 30
0.0
 11
45.0219
 21
47.6084
 31
0.0
  0
LINE
  8
0
 62
     40
 10
45.0219
 20
47.6084
 30
0.0
 11
45.4258
 21
46.3571
 31
0.0
  0
LINE
  8
0
 62
     40
 10
45.4258
 20
46.3571
 30
0.0
 11
46.2499
 21
45.3912
 31
0.0
  0
LINE
  8
0
 62
     40
 10
46.2499
 20
45.3912
 30
0.0
 11
47.377
 21
44.8056
 31
0.0
  0
LINE
  8
0
 62
     40
 10
47.377
 20
44.8056
 30
0.0
 11
48.6876
 21
44.6927
 31
0.0
  0
LINE
  8
0
 62
     40
 10
48.6876
 20
44.6927
 30
0.0
 11
49.9389
 21
45.0977
 31
0.0
  0
LINE
  8
0
 62
     40
 10
49.9389
 20
45.0977
 30
0.0
 11
50.9034
 21
45.9218
 31
0.0
  0
LINE
  8
0
 62
     40
 10
50.9034
 20
45.9218
 30
0.0
 11
51.4904
 21
47.0489
 31
0.0
  0
LINE
  8
0
 62
     40
 10
51.4904
 20
47.0489
 30
0.0
 11
51.6033
 21
48.3581
 31
0.0
  0
LINE
  8
0
 62
     40
 10
51.6033
 20
48.3581
 30
0.0
 11
51.1983
 21
49.6108
 31
0.0
  0
LINE
  8
0
 62
     40
 10
51.1983
 20
49.6108
 30
0.0
 11
50.3742
 21
50.5753
 31
0.0
  0
LINE
  8
0
 62
     40
 10
50.3742
 20
50.5753
 30
0.0
 11
49.2471
 21
51.1623
 31
0.0
  0
LINE
  8
0
 62
     40
 10
49.2471
 20
51.1623
 30
0.0
 11
47.9379
 21
51.2741
 31
0.0
  0
LINE
  8
0
 62
     152
 10
93.5867
 20
39.0687
 30
0.0
 11
91.9868
 21
39.6021
 31
0.0
  0
LINE
  8
0
 62
     152
 10
91.9868
 20
39.6021
 30
0.0
 11
90.726
 21
39.4698
 31
0.0
  0
LINE
  8
0
 62
     152
 10
90.726
 20
39.4698
 30
0.0
 11
89.7322
 21
38.789
 31
0.0
  0
LINE
  8
0
 62
     152
 10
89.7322
 20
38.789
 30
0.0
 11
88.9275
 21
37.6728
 31
0.0
  0
LINE
  8
0
 62
     152
 10
88.9275
 20
37.6728
 30
0.0
 11
88.2414
 21
36.237
 31
0.0
  0
LINE
  8
0
 62
     152
 10
88.2414
 20
36.237
 30
0.0
 11
87.5951
 21
34.597
 31
0.0
  0
LINE
  8
0
 62
     152
 10
87.5951
 20
34.597
 30
0.0
 11
86.917
 21
32.8662
 31
0.0
  0
LINE
  8
0
 62
     152
 10
86.917
 20
32.8662
 30
0.0
 11
86.1328
 21
31.1602
 31
0.0
  0
LINE
  8
0
 62
     152
 10
86.1328
 20
31.1602
 30
0.0
 11
85.1669
 21
29.5947
 31
0.0
  0
LINE
  8
0
 62
     152
 10
85.1669
 20
29.5947
 30
0.0
 11
83.9445
 21
28.2842
 31
0.0
  0
LINE
  8
0
 62
     152
 10
83.9445
 20
28.2842
 30
0.0
 11
82.3916
 21
27.3444
 31
0.0
  0
LINE
  8
0
 62
     152
 10
82.3916
 20
27.3444
 30
0.0
 11
80.4333
 21
26.8883
 31
0.0
  0
LINE
  8
0
 62
     152
 10
80.4333
 20
26.8883
 30
0.0
 11
77.997
 21
27.0316
 31
0.0
  0
LINE
  8
0
 62
     152
 10
77.997
 20
27.0316
 30
0.0
 11
75.0066
 21
27.8901
 31
0.0
  0
LINE
  8
0
 62
     152
 10
75.0066
 20
27.8901
 30
0.0
 11
71.3878
 21
29.5768
 31
0.0
  0
LINE
  8
0
 62
     152
 10
71.3878
 20
29.5768
 30
0.0
 11
67.0662
 21
32.2089
 31
0.0
  0
LINE
  8
0
 62
     152
 10
67.0662
 20
32.2089
 30
0.0
 11
64.4398
 21
33.6241
 31
0.0
  0
LINE
  8
0
 62
     152
 10
64.4398
 20
33.6241
 30
0.0
 11
61.9263
 21
34.3531
 31
0.0
  0
LINE
  8
0
 62
     152
 10
61.9263
 20
34.3531
 30
0.0
 11
59.5768
 21
34.4813
 31
0.0
  0
LINE
  8
0
 62
     152
 10
59.5768
 20
34.4813
 30
0.0
 11
57.4368
 21
34.0913
 31
0.0
  0
LINE
  8
0
 62
     152
 10
57.4368
 20
34.0913
 30
0.0
 11
55.5544
 21
33.2645
 31
0.0
  0
LINE
  8
0
 62
     152
 10
55.5544
 20
33.2645
 30
0.0
 11
53.9792
 21
32.0835
 31
0.0
  0
LINE
  8
0
 62
     152
 10
53.9792
 20
32.0835
 30
0.0
 11
52.7583
 21
30.631
 31
0.0
  0
LINE
  8
0
 62
     152
 10
52.7583
 20
30.631
 30
0.0
 11
51.9423
 21
28.9912
 31
0.0
  0
LINE
  8
0
 62
     152
 10
51.9423
 20
28.9912
 30
0.0
 11
52.1974
 21
31.9071
 31
0.0
  0
LINE
  8
0
 62
     152
 10
52.1974
 20
31.9071
 30
0.0
 11
52.7939
 21
34.1712
 31
0.0
  0
LINE
  8
0
 62
     152
 10
52.7939
 20
34.1712
 30
0.0
 11
53.7023
 21
35.8496
 31
0.0
  0
LINE
  8
0
 62
     152
 10
53.7023
 20
35.8496
 30
0.0
 11
54.8887
 21
37.0099
 31
0.0
  0
LINE
  8
0
 62
     152
 10
54.8887
 20
37.0099
 30
0.0
 11
56.3203
 21
37.7197
 31
0.0
  0
LINE
  8
0
 62
     152
 10
56.3203
 20
37.7197
 30
0.0
 11
57.9684
 21
38.0421
 31
0.0
  0
LINE
  8
0
 62
     152
 10
57.9684
 20
38.0421
 30
0.0
 11
59.8001
 21
38.045
 31
0.0
  0
LINE
  8
0
 62
     152
 10
59.8001
 20
38.045
 30
0.0
 11
61.7816
 21
37.7941
 31
0.0
  0
LINE
  8
0
 62
     152
 10
61.7816
 20
37.7941
 30
0.0
 11
63.8831
 21
37.3574
 31
0.0
  0
LINE
  8
0
 62
     152
 10
63.8831
 20
37.3574
 30
0.0
 11
66.0728
 21
36.8004
 31
0.0
  0
LINE
  8
0
 62
     152
 10
66.0728
 20
36.8004
 30
0.0
 11
68.3189
 21
36.1887
 31
0.0
  0
LINE
  8
0
 62
     152
 10
68.3189
 20
36.1887
 30
0.0
 11
70.5887
 21
35.5893
 31
0.0
  0
LINE
  8
0
 62
     152
 10
70.5887
 20
35.5893
 30
0.0
 11
72.8514
 21
35.0683
 31
0.0
  0
LINE
  8
0
 62
     152
 10
72.8514
 20
35.0683
 30
0.0
 11
75.0743
 21
34.6921
 31
0.0
  0
LINE
  8
0
 62
     152
 10
75.0743
 20
34.6921
 30
0.0
 11
77.2266
 21
34.5281
 31
0.0
  0
LINE
  8
0
 62
     152
 10
77.2266
 20
34.5281
 30
0.0
 11
79.2773
 21
34.6397
 31
0.0
  0
LINE
  8
0
 62
     152
 10
79.2773
 20
34.6397
 30
0.0
 11
81.9009
 21
35.5342
 31
0.0
  0
LINE
  8
0
 62
     152
 10
81.9009
 20
35.5342
 30
0.0
 11
84.0754
 21
37.1934
 31
0.0
  0
LINE
  8
0
 62
     152
 10
84.0754
 20
37.1934
 30
0.0
 11
85.955
 21
39.2811
 31
0.0
  0
LINE
  8
0
 62
     152
 10
85.955
 20
39.2811
 30
0.0
 11
87.697
 21
41.4623
 31
0.0
  0
LINE
  8
0
 62
     152
 10
87.697
 20
41.4623
 30
0.0
 11
89.4567
 21
43.4026
 31
0.0
  0
LINE
  8
0
 62
     152
 10
89.4567
 20
43.4026
 30
0.0
 11
91.3888
 21
44.7657
 31
0.0
  0
LINE
  8
0
 62
     152
 10
91.3888
 20
44.7657
 30
0.0
 11
93.6502
 21
45.2148
 31
0.0
  0
LINE
  8
0
 62
     152
 10
93.6502
 20
45.2148
 30
0.0
 11
96.3979
 21
44.4154
 31
0.0
  0
LINE
  8
0
 62
     152
 10
96.3979
 20
44.4154
 30
0.0
 11
99.701
 21
42.835
 31
0.0
  0
LINE
  8
0
 62
     152
 10
99.701
 20
42.835
 30
0.0
 11
102.631
 21
41.6098
 31
0.0
  0
LINE
  8
0
 62
     152
 10
102.631
 20
41.6098
 30
0.0
 11
105.22
 21
40.7183
 31
0.0
  0
LINE
  8
0
 62
     152
 10
105.22
 20
40.7183
 30
0.0
 11
107.498
 21
40.1366
 31
0.0
  0
LINE
  8
0
 62
     152
 10
107.498
 20
40.1366
 30
0.0
 11
109.496
 21
39.842
 31
0.0
  0
LINE
  8
0
 62
     152
 10
109.496
 20
39.842
 30
0.0
 11
111.245
 21
39.8127
 31
0.0
  0
LINE
  8
0
 62
     152
 10
111.245
 20
39.8127
 30
0.0
 11
112.777
 21
40.0251
 31
0.0
  0
LINE
  8
0
 62
     152
 10
112.777
 20
40.0251
 30
0.0
 11
114.122
 21
40.4566
 31
0.0
  0
LINE
  8
0
 62
     152
 10
114.122
 20
40.4566
 30
0.0
 11
115.311
 21
41.0834
 31
0.0
  0
LINE
  8
0
 62
     152
 10
115.311
 20
41.0834
 30
0.0
 11
116.375
 21
41.8842
 31
0.0
  0
LINE
  8
0
 62
     152
 10
116.375
 20
41.8842
 30
0.0
 11
117.347
 21
42.835
 31
0.0
  0
LINE
  8
0
 62
     152
 10
117.347
 20
42.835
 30
0.0
 11
118.256
 21
43.9138
 31
0.0
  0
LINE
  8
0
 62
     152
 10
118.256
 20
43.9138
 30
0.0
 11
119.134
 21
45.0977
 31
0.0
  0
LINE
  8
0
 62
     152
 10
119.134
 20
45.0977
 30
0.0
 11
120.011
 21
46.3642
 31
0.0
  0
LINE
  8
0
 62
     152
 10
120.011
 20
46.3642
 30
0.0
 11
120.919
 21
47.6899
 31
0.0
  0
LINE
  8
0
 62
     152
 10
120.919
 20
47.6899
 30
0.0
 11
121.889
 21
49.0513
 31
0.0
  0
LINE
  8
0
 62
     152
 10
121.889
 20
49.0513
 30
0.0
 11
123.623
 21
51.2025
 31
0.0
  0
LINE
  8
0
 62
     152
 10
123.623
 20
51.2025
 30
0.0
 11
125.705
 21
53.3425
 31
0.0
  0
LINE
  8
0
 62
     152
 10
125.705
 20
53.3425
 30
0.0
 11
128.021
 21
55.1974
 31
0.0
  0
LINE
  8
0
 62
     152
 10
128.021
 20
55.1974
 30
0.0
 11
130.46
 21
56.4942
 31
0.0
  0
LINE
  8
0
 62
     152
 10
130.46
 20
56.4942
 30
0.0
 11
132.905
 21
56.9613
 31
0.0
  0
LINE
  8
0
 62
     152
 10
132.905
 20
56.9613
 30
0.0
 11
135.243
 21
56.3245
 31
0.0
  0
LINE
  8
0
 62
     152
 10
135.243
 20
56.3245
 30
0.0
 11
137.361
 21
54.3126
 31
0.0
  0
LINE
  8
0
 62
     152
 10
137.361
 20
54.3126
 30
0.0
 11
139.146
 21
50.6511
 31
0.0
  0
LINE
  8
0
 62
     152
 10
139.146
 20
50.6511
 30
0.0
 11
137.685
 21
52.0707
 31
0.0
  0
LINE
  8
0
 62
     152
 10
137.685
 20
52.0707
 30
0.0
 11
136.131
 21
52.7886
 31
0.0
  0
LINE
  8
0
 62
     152
 10
136.131
 20
52.7886
 30
0.0
 11
134.523
 21
52.9015
 31
0.0
  0
LINE
  8
0
 62
     152
 10
134.523
 20
52.9015
 30
0.0
 11
132.901
 21
52.4979
 31
0.0
  0
LINE
  8
0
 62
     152
 10
132.901
 20
52.4979
 30
0.0
 11
131.306
 21
51.6724
 31
0.0
  0
LINE
  8
0
 62
     152
 10
131.306
 20
51.6724
 30
0.0
 11
129.778
 21
50.5174
 31
0.0
  0
LINE
  8
0
 62
     152
 10
129.778
 20
50.5174
 30
0.0
 11
128.357
 21
49.1243
 31
0.0
  0
LINE
  8
0
 62
     152
 10
128.357
 20
49.1243
 30
0.0
 11
127.083
 21
47.5851
 31
0.0
  0
LINE
  8
0
 62
     152
 10
127.083
 20
47.5851
 30
0.0
 11
125.888
 21
45.9246
 31
0.0
  0
LINE
  8
0
 62
     152
 10
125.888
 20
45.9246
 30
0.0
 11
124.736
 21
44.2323
 31
0.0
  0
LINE
  8
0
 62
     152
 10
124.736
 20
44.2323
 30
0.0
 11
123.591
 21
42.5468
 31
0.0
  0
LINE
  8
0
 62
     152
 10
123.591
 20
42.5468
 30
0.0
 11
122.418
 21
40.9071
 31
0.0
  0
LINE
  8
0
 62
     152
 10
122.418
 20
40.9071
 30
0.0
 11
121.183
 21
39.3527
 31
0.0
  0
LINE
  8
0
 62
     152
 10
121.183
 20
39.3527
 30
0.0
 11
119.852
 21
37.9222
 31
0.0
  0
LINE
  8
0
 62
     152
 10
119.852
 20
37.9222
 30
0.0
 11
118.39
 21
36.6557
 31
0.0
  0
LINE
  8
0
 62
     152
 10
118.39
 20
36.6557
 30
0.0
 11
116.761
 21
35.5921
 31
0.0
  0
LINE
  8
0
 62
     152
 10
116.761
 20
35.5921
 30
0.0
 11
114.931
 21
34.7707
 31
0.0
  0
LINE
  8
0
 62
     152
 10
114.931
 20
34.7707
 30
0.0
 11
112.866
 21
34.2291
 31
0.0
  0
LINE
  8
0
 62
     152
 10
112.866
 20
34.2291
 30
0.0
 11
110.53
 21
34.0086
 31
0.0
  0
LINE
  8
0
 62
     152
 10
110.53
 20
34.0086
 30
0.0
 11
107.889
 21
34.1464
 31
0.0
  0
LINE
  8
0
 62
     152
 10
107.889
 20
34.1464
 30
0.0
 11
104.91
 21
34.6811
 31
0.0
  0
LINE
  8
0
 62
     152
 10
104.91
 20
34.6811
 30
0.0
 11
101.556
 21
35.6553
 31
0.0
  0
LINE
  8
0
 62
     152
 10
101.556
 20
35.6553
 30
0.0
 11
97.7925
 21
37.1052
 31
0.0
  0
LINE
  8
0
 62
     152
 10
97.7925
 20
37.1052
 30
0.0
 11
93.5867
 21
39.0687
 31
0.0
  0
LINE
  8
0
 62
     40
 10
117.317
 20
3.58429
 30
0.0
 11
118.353
 21
3.64352
 31
0.0
  0
LINE
  8
0
 62
     40
 10
118.353
 20
3.64352
 30
0.0
 11
119.035
 21
3.82129
 31
0.0
  0
LINE
  8
0
 62
     40
 10
119.035
 20
3.82129
 30
0.0
 11
119.411
 21
4.16856
 31
0.0
  0
LINE
  8
0
 62
     40
 10
119.411
 20
4.16856
 30
0.0
 11
119.538
 21
4.73908
 31
0.0
  0
LINE
  8
0
 62
     40
 10
119.538
 20
4.73908
 30
0.0
 11
119.375
 21
5.23931
 31
0.0
  0
LINE
  8
0
 62
     40
 10
119.375
 20
5.23931
 30
0.0
 11
118.886
 21
5.672
 31
0.0
  0
LINE
  8
0
 62
     40
 10
118.886
 20
5.672
 30
0.0
 11
118.063
 21
6.09783
 31
0.0
  0
LINE
  8
0
 62
     40
 10
118.063
 20
6.09783
 30
0.0
 11
116.903
 21
6.57461
 31
0.0
  0
LINE
  8
0
 62
     40
 10
116.903
 20
6.57461
 30
0.0
 11
115.022
 21
7.37528
 31
0.0
  0
LINE
  8
0
 62
     40
 10
115.022
 20
7.37528
 30
0.0
 11
113.585
 21
8.36747
 31
0.0
  0
LINE
  8
0
 62
     40
 10
113.585
 20
8.36747
 30
0.0
 11
112.667
 21
9.74411
 31
0.0
  0
LINE
  8
0
 62
     40
 10
112.667
 20
9.74411
 30
0.0
 11
112.342
 21
11.6692
 31
0.0
  0
LINE
  8
0
 62
     40
 10
112.342
 20
11.6692
 30
0.0
 11
112.748
 21
13.6329
 31
0.0
  0
LINE
  8
0
 62
     40
 10
112.748
 20
13.6329
 30
0.0
 11
113.971
 21
15.135
 31
0.0
  0
LINE
  8
0
 62
     40
 10
113.971
 20
15.135
 30
0.0
 11
115.903
 21
16.09
 31
0.0
  0
LINE
  8
0
 62
     40
 10
115.903
 20
16.09
 30
0.0
 11
118.442
 21
16.4083
 31
0.0
  0
LINE
  8
0
 62
     40
 10
118.442
 20
16.4083
 30
0.0
 11
121.167
 21
16.1561
 31
0.0
  0
LINE
  8
0
 62
     40
 10
121.167
 20
16.1561
 30
0.0
 11
123.241
 21
15.609
 31
0.0
  0
LINE
  8
0
 62
     40
 10
123.241
 20
15.609
 30
0.0
 11
122.47
 21
12.1736
 31
0.0
  0
LINE
  8
0
 62
     40
 10
122.47
 20
12.1736
 30
0.0
 11
120.797
 21
12.6476
 31
0.0
  0
LINE
  8
0
 62
     40
 10
120.797
 20
12.6476
 30
0.0
 11
118.768
 21
12.8543
 31
0.0
  0
LINE
  8
0
 62
     40
 10
118.768
 20
12.8543
 30
0.0
 11
117.861
 21
12.7827
 31
0.0
  0
LINE
  8
0
 62
     40
 10
117.861
 20
12.7827
 30
0.0
 11
117.213
 21
12.5663
 31
0.0
  0
LINE
  8
0
 62
     40
 10
117.213
 20
12.5663
 30
0.0
 11
116.824
 21
12.2053
 31
0.0
  0
LINE
  8
0
 62
     40
 10
116.824
 20
12.2053
 30
0.0
 11
116.695
 21
11.6996
 31
0.0
  0
LINE
  8
0
 62
     40
 10
116.695
 20
11.6996
 30
0.0
 11
116.785
 21
11.2255
 31
0.0
  0
LINE
  8
0
 62
     40
 10
116.785
 20
11.2255
 30
0.0
 11
117.139
 21
10.8259
 31
0.0
  0
LINE
  8
0
 62
     40
 10
117.139
 20
10.8259
 30
0.0
 11
117.865
 21
10.4111
 31
0.0
  0
LINE
  8
0
 62
     40
 10
117.865
 20
10.4111
 30
0.0
 11
119.035
 21
9.91637
 31
0.0
  0
LINE
  8
0
 62
     40
 10
119.035
 20
9.91637
 30
0.0
 11
121.434
 21
8.85666
 31
0.0
  0
LINE
  8
0
 62
     40
 10
121.434
 20
8.85666
 30
0.0
 11
122.929
 21
7.73081
 31
0.0
  0
LINE
  8
0
 62
     40
 10
122.929
 20
7.73081
 30
0.0
 11
123.7
 21
6.38309
 31
0.0
  0
LINE
  8
0
 62
     40
 10
123.7
 20
6.38309
 30
0.0
 11
123.921
 21
4.6688
 31
0.0
  0
LINE
  8
0
 62
     40
 10
123.921
 20
4.6688
 30
0.0
 11
123.813
 21
3.58842
 31
0.0
  0
LINE
  8
0
 62
     40
 10
123.813
 20
3.58842
 30
0.0
 11
123.487
 21
2.64583
 31
0.0
  0
LINE
  8
0
 62
     40
 10
123.487
 20
2.64583
 30
0.0
 11
122.946
 21
1.84244
 31
0.0
  0
LINE
  8
0
 62
     40
 10
122.946
 20
1.84244
 30
0.0
 11
122.189
 21
1.1796
 31
0.0
  0
LINE
  8
0
 62
     40
 10
122.189
 20
1.1796
 30
0.0
 11
120.098
 21
0.296278
 31
0.0
  0
LINE
  8
0
 62
     40
 10
120.098
 20
0.296278
 30
0.0
 11
117.288
 21
0
 31
0.0
  0
LINE
  8
0
 62
     40
 10
117.288
 20
0
 30
0.0
 11
115.387
 21
0.0895724
 31
0.0
  0
LINE
  8
0
 62
     40
 10
115.387
 20
0.0895724
 30
0.0
 11
113.837
 21
0.355533
 31
0.0
  0
LINE
  8
0
 62
     40
 10
113.837
 20
0.355533
 30
0.0
 11
112.67
 21
0.682128
 31
0.0
  0
LINE
  8
0
 62
     40
 10
112.67
 20
0.682128
 30
0.0
 11
111.927
 21
0.94809
 31
0.0
  0
LINE
  8
0
 62
     40
 10
111.927
 20
0.94809
 30
0.0
 11
112.667
 21
4.53238
 31
0.0
  0
LINE
  8
0
 62
     40
 10
112.667
 20
4.53238
 30
0.0
 11
114.977
 21
3.83508
 31
0.0
  0
LINE
  8
0
 62
     40
 10
114.977
 20
3.83508
 30
0.0
 11
117.317
 21
3.58429
 31
0.0
  0
LINE
  8
0
 62
     40
 10
108.698
 20
0.94809
 30
0.0
 11
105.796
 21
0.340376
 31
0.0
  0
LINE
  8
0
 62
     40
 10
105.796
 20
0.340376
 30
0.0
 11
102.063
 21
0.0592557
 31
0.0
  0
LINE
  8
0
 62
     40
 10
102.063
 20
0.0592557
 30
0.0
 11
100.245
 21
0.192925
 31
0.0
  0
LINE
  8
0
 62
     40
 10
100.245
 20
0.192925
 30
0.0
 11
98.7612
 21
0.592557
 31
0.0
  0
LINE
  8
0
 62
     40
 10
98.7612
 20
0.592557
 30
0.0
 11
97.5801
 21
1.23334
 31
0.0
  0
LINE
  8
0
 62
     40
 10
97.5801
 20
1.23334
 30
0.0
 11
96.6735
 21
2.08773
 31
0.0
  0
LINE
  8
0
 62
     40
 10
96.6735
 20
2.08773
 30
0.0
 11
96.0134
 21
3.14331
 31
0.0
  0
LINE
  8
0
 62
     40
 10
96.0134
 20
3.14331
 30
0.0
 11
95.5781
 21
4.38355
 31
0.0
  0
LINE
  8
0
 62
     40
 10
95.5781
 20
4.38355
 30
0.0
 11
95.2514
 21
7.31601
 31
0.0
  0
LINE
  8
0
 62
     40
 10
95.2514
 20
7.31601
 30
0.0
 11
95.2514
 21
15.9935
 31
0.0
  0
LINE
  8
0
 62
     40
 10
95.2514
 20
15.9935
 30
0.0
 11
99.664
 21
15.9935
 31
0.0
  0
LINE
  8
0
 62
     40
 10
99.664
 20
15.9935
 30
0.0
 11
99.664
 21
7.84931
 31
0.0
  0
LINE
  8
0
 62
     40
 10
99.664
 20
7.84931
 30
0.0
 11
99.8044
 21
6.01377
 31
0.0
  0
LINE
  8
0
 62
     40
 10
99.8044
 20
6.01377
 30
0.0
 11
100.227
 21
4.76938
 31
0.0
  0
LINE
  8
0
 62
     40
 10
100.227
 20
4.76938
 30
0.0
 11
101.034
 21
4.05832
 31
0.0
  0
LINE
  8
0
 62
     40
 10
101.034
 20
4.05832
 30
0.0
 11
102.33
 21
3.82129
 31
0.0
  0
LINE
  8
0
 62
     40
 10
102.33
 20
3.82129
 30
0.0
 11
103.338
 21
3.86539
 31
0.0
  0
LINE
  8
0
 62
     40
 10
103.338
 20
3.86539
 30
0.0
 11
104.284
 21
3.96875
 31
0.0
  0
LINE
  8
0
 62
     40
 10
104.284
 20
3.96875
 30
0.0
 11
104.284
 21
15.9935
 31
0.0
  0
LINE
  8
0
 62
     40
 10
104.284
 20
15.9935
 30
0.0
 11
108.698
 21
15.9935
 31
0.0
  0
LINE
  8
0
 62
     40
 10
108.698
 20
15.9935
 30
0.0
 11
108.698
 21
0.94809
 31
0.0
  0
LINE
  8
0
 62
     40
 10
108.698
 20
0.94809
 30
0.0
 11
108.698
 21
0.94809
 31
0.0
  0
LINE
  8
0
 62
     40
 10
82.5595
 20
16.2898
 30
0.0
 11
82.1062
 21
15.0757
 31
0.0
  0
LINE
  8
0
 62
     40
 10
82.1062
 20
15.0757
 30
0.0
 11
81.4296
 21
13.2939
 31
0.0
  0
LINE
  8
0
 62
     40
 10
81.4296
 20
13.2939
 30
0.0
 11
80.5808
 21
11.0725
 31
0.0
  0
LINE
  8
0
 62
     40
 10
80.5808
 20
11.0725
 30
0.0
 11
79.623
 21
8.53006
 31
0.0
  0
LINE
  8
0
 62
     40
 10
79.623
 20
8.53006
 30
0.0
 11
85.4922
 21
8.53006
 31
0.0
  0
LINE
  8
0
 62
     40
 10
85.4922
 20
8.53006
 30
0.0
 11
84.5799
 21
11.0822
 31
0.0
  0
LINE
  8
0
 62
     40
 10
84.5799
 20
11.0822
 30
0.0
 11
83.7406
 21
13.3091
 31
0.0
  0
LINE
  8
0
 62
     40
 10
83.7406
 20
13.3091
 30
0.0
 11
83.0432
 21
15.0854
 31
0.0
  0
LINE
  8
0
 62
     40
 10
83.0432
 20
15.0854
 30
0.0
 11
82.5595
 21
16.2898
 31
0.0
  0
LINE
  8
0
 62
     40
 10
82.5595
 20
16.2898
 30
0.0
 11
82.5595
 21
16.2898
 31
0.0
  0
LINE
  8
0
 62
     40
 10
88.1133
 20
0.414789
 30
0.0
 11
87.3732
 21
2.61138
 31
0.0
  0
LINE
  8
0
 62
     40
 10
87.3732
 20
2.61138
 30
0.0
 11
86.5875
 21
4.85757
 31
0.0
  0
LINE
  8
0
 62
     40
 10
86.5875
 20
4.85757
 30
0.0
 11
78.5717
 21
4.85757
 31
0.0
  0
LINE
  8
0
 62
     40
 10
78.5717
 20
4.85757
 30
0.0
 11
77.7917
 21
2.60587
 31
0.0
  0
LINE
  8
0
 62
     40
 10
77.7917
 20
2.60587
 30
0.0
 11
77.0654
 21
0.414789
 31
0.0
  0
LINE
  8
0
 62
     40
 10
77.0654
 20
0.414789
 30
0.0
 11
72.2683
 21
0.414789
 31
0.0
  0
LINE
  8
0
 62
     40
 10
72.2683
 20
0.414789
 30
0.0
 11
74.465
 21
6.54569
 31
0.0
  0
LINE
  8
0
 62
     40
 10
74.465
 20
6.54569
 30
0.0
 11
76.503
 21
11.847
 31
0.0
  0
LINE
  8
0
 62
     40
 10
76.503
 20
11.847
 30
0.0
 11
78.4627
 21
16.5709
 31
0.0
  0
LINE
  8
0
 62
     40
 10
78.4627
 20
16.5709
 30
0.0
 11
80.4679
 21
20.9407
 31
0.0
  0
LINE
  8
0
 62
     40
 10
80.4679
 20
20.9407
 30
0.0
 11
84.8459
 21
20.9407
 31
0.0
  0
LINE
  8
0
 62
     40
 10
84.8459
 20
20.9407
 30
0.0
 11
86.8398
 21
16.5709
 31
0.0
  0
LINE
  8
0
 62
     40
 10
86.8398
 20
16.5709
 30
0.0
 11
88.8199
 21
11.847
 31
0.0
  0
LINE
  8
0
 62
     40
 10
88.8199
 20
11.847
 30
0.0
 11
90.8583
 21
6.54569
 31
0.0
  0
LINE
  8
0
 62
     40
 10
90.8583
 20
6.54569
 30
0.0
 11
93.0603
 21
0.414789
 31
0.0
  0
LINE
  8
0
 62
     40
 10
93.0603
 20
0.414789
 30
0.0
 11
88.1133
 21
0.414789
 31
0.0
  0
LINE
  8
0
 62
     40
 10
88.1133
 20
0.414789
 30
0.0
 11
88.1133
 21
0.414789
 31
0.0
  0
LINE
  8
0
 62
     40
 10
198.22
 20
15.4602
 30
0.0
 11
201.122
 21
16.0679
 31
0.0
  0
LINE
  8
0
 62
     40
 10
201.122
 20
16.0679
 30
0.0
 11
204.854
 21
16.3491
 31
0.0
  0
LINE
  8
0
 62
     40
 10
204.854
 20
16.3491
 30
0.0
 11
206.671
 21
16.2209
 31
0.0
  0
LINE
  8
0
 62
     40
 10
206.671
 20
16.2209
 30
0.0
 11
208.157
 21
15.8309
 31
0.0
  0
LINE
  8
0
 62
     40
 10
208.157
 20
15.8309
 30
0.0
 11
209.337
 21
15.2053
 31
0.0
  0
LINE
  8
0
 62
     40
 10
209.337
 20
15.2053
 30
0.0
 11
210.245
 21
14.3647
 31
0.0
  0
LINE
  8
0
 62
     40
 10
210.245
 20
14.3647
 30
0.0
 11
210.903
 21
13.3284
 31
0.0
  0
LINE
  8
0
 62
     40
 10
210.903
 20
13.3284
 30
0.0
 11
211.34
 21
12.1143
 31
0.0
  0
LINE
  8
0
 62
     40
 10
211.34
 20
12.1143
 30
0.0
 11
211.667
 21
9.21082
 31
0.0
  0
LINE
  8
0
 62
     40
 10
211.667
 20
9.21082
 30
0.0
 11
211.667
 21
0.414789
 31
0.0
  0
LINE
  8
0
 62
     40
 10
211.667
 20
0.414789
 30
0.0
 11
207.253
 21
0.414789
 31
0.0
  0
LINE
  8
0
 62
     40
 10
207.253
 20
0.414789
 30
0.0
 11
207.253
 21
8.6789
 31
0.0
  0
LINE
  8
0
 62
     40
 10
207.253
 20
8.6789
 30
0.0
 11
207.112
 21
10.5006
 31
0.0
  0
LINE
  8
0
 62
     40
 10
207.112
 20
10.5006
 30
0.0
 11
206.691
 21
11.6996
 31
0.0
  0
LINE
  8
0
 62
     40
 10
206.691
 20
11.6996
 30
0.0
 11
205.883
 21
12.3665
 31
0.0
  0
LINE
  8
0
 62
     40
 10
205.883
 20
12.3665
 30
0.0
 11
204.588
 21
12.5884
 31
0.0
  0
LINE
  8
0
 62
     40
 10
204.588
 20
12.5884
 30
0.0
 11
203.58
 21
12.5429
 31
0.0
  0
LINE
  8
0
 62
     40
 10
203.58
 20
12.5429
 30
0.0
 11
202.632
 21
12.4395
 31
0.0
  0
LINE
  8
0
 62
     40
 10
202.632
 20
12.4395
 30
0.0
 11
202.632
 21
0.414789
 31
0.0
  0
LINE
  8
0
 62
     40
 10
202.632
 20
0.414789
 30
0.0
 11
198.22
 21
0.414789
 31
0.0
  0
LINE
  8
0
 62
     40
 10
198.22
 20
0.414789
 30
0.0
 11
198.22
 21
15.4602
 31
0.0
  0
LINE
  8
0
 62
     40
 10
187.438
 20
16.4083
 30
0.0
 11
189.229
 21
16.2981
 31
0.0
  0
LINE
  8
0
 62
     40
 10
189.229
 20
16.2981
 30
0.0
 11
190.697
 21
15.9646
 31
0.0
  0
LINE
  8
0
 62
     40
 10
190.697
 20
15.9646
 30
0.0
 11
191.87
 21
15.4244
 31
0.0
  0
LINE
  8
0
 62
     40
 10
191.87
 20
15.4244
 30
0.0
 11
192.785
 21
14.6899
 31
0.0
  0
LINE
  8
0
 62
     40
 10
192.785
 20
14.6899
 30
0.0
 11
193.453
 21
13.7721
 31
0.0
  0
LINE
  8
0
 62
     40
 10
193.453
 20
13.7721
 30
0.0
 11
193.895
 21
12.6766
 31
0.0
  0
LINE
  8
0
 62
     40
 10
193.895
 20
12.6766
 30
0.0
 11
194.221
 21
10.0404
 31
0.0
  0
LINE
  8
0
 62
     40
 10
194.221
 20
10.0404
 30
0.0
 11
194.221
 21
0.859896
 31
0.0
  0
LINE
  8
0
 62
     40
 10
194.221
 20
0.859896
 30
0.0
 11
193.088
 21
0.633899
 31
0.0
  0
LINE
  8
0
 62
     40
 10
193.088
 20
0.633899
 30
0.0
 11
191.584
 21
0.370692
 31
0.0
  0
LINE
  8
0
 62
     40
 10
191.584
 20
0.370692
 30
0.0
 11
189.719
 21
0.159852
 31
0.0
  0
LINE
  8
0
 62
     40
 10
189.719
 20
0.159852
 30
0.0
 11
187.497
 21
0.0881944
 31
0.0
  0
LINE
  8
0
 62
     40
 10
187.497
 20
0.0881944
 30
0.0
 11
184.758
 21
0.355533
 31
0.0
  0
LINE
  8
0
 62
     40
 10
184.758
 20
0.355533
 30
0.0
 11
182.641
 21
1.22921
 31
0.0
  0
LINE
  8
0
 62
     40
 10
182.641
 20
1.22921
 30
0.0
 11
181.856
 21
1.92925
 31
0.0
  0
LINE
  8
0
 62
     40
 10
181.856
 20
1.92925
 30
0.0
 11
181.278
 21
2.81395
 31
0.0
  0
LINE
  8
0
 62
     40
 10
181.278
 20
2.81395
 30
0.0
 11
180.923
 21
3.9026
 31
0.0
  0
LINE
  8
0
 62
     40
 10
180.923
 20
3.9026
 30
0.0
 11
180.804
 21
5.2131
 31
0.0
  0
LINE
  8
0
 62
     40
 10
180.804
 20
5.2131
 30
0.0
 11
180.94
 21
6.47266
 31
0.0
  0
LINE
  8
0
 62
     40
 10
180.94
 20
6.47266
 30
0.0
 11
181.352
 21
7.5227
 31
0.0
  0
LINE
  8
0
 62
     40
 10
181.352
 20
7.5227
 30
0.0
 11
181.992
 21
8.37572
 31
0.0
  0
LINE
  8
0
 62
     40
 10
181.992
 20
8.37572
 30
0.0
 11
182.819
 21
9.03443
 31
0.0
  0
LINE
  8
0
 62
     40
 10
182.819
 20
9.03443
 30
0.0
 11
184.92
 21
9.84747
 31
0.0
  0
LINE
  8
0
 62
     40
 10
184.92
 20
9.84747
 30
0.0
 11
187.379
 21
10.0996
 31
0.0
  0
LINE
  8
0
 62
     40
 10
187.379
 20
10.0996
 30
0.0
 11
188.904
 21
10.0266
 31
0.0
  0
LINE
  8
0
 62
     40
 10
188.904
 20
10.0266
 30
0.0
 11
189.986
 21
9.8323
 31
0.0
  0
LINE
  8
0
 62
     40
 10
189.986
 20
9.8323
 30
0.0
 11
189.986
 21
10.2485
 31
0.0
  0
LINE
  8
0
 62
     40
 10
189.986
 20
10.2485
 30
0.0
 11
189.815
 21
11.2627
 31
0.0
  0
LINE
  8
0
 62
     40
 10
189.815
 20
11.2627
 30
0.0
 11
189.304
 21
12.0551
 31
0.0
  0
LINE
  8
0
 62
     40
 10
189.304
 20
12.0551
 30
0.0
 11
188.371
 21
12.5663
 31
0.0
  0
LINE
  8
0
 62
     40
 10
188.371
 20
12.5663
 30
0.0
 11
186.935
 21
12.7358
 31
0.0
  0
LINE
  8
0
 62
     40
 10
186.935
 20
12.7358
 30
0.0
 11
184.714
 21
12.5732
 31
0.0
  0
LINE
  8
0
 62
     40
 10
184.714
 20
12.5732
 30
0.0
 11
182.819
 21
12.1143
 31
0.0
  0
LINE
  8
0
 62
     40
 10
182.819
 20
12.1143
 30
0.0
 11
182.255
 21
15.6683
 31
0.0
  0
LINE
  8
0
 62
     40
 10
182.255
 20
15.6683
 30
0.0
 11
183.217
 21
15.9191
 31
0.0
  0
LINE
  8
0
 62
     40
 10
183.217
 20
15.9191
 30
0.0
 11
184.477
 21
16.1561
 31
0.0
  0
LINE
  8
0
 62
     40
 10
184.477
 20
16.1561
 30
0.0
 11
185.914
 21
16.3339
 31
0.0
  0
LINE
  8
0
 62
     40
 10
185.914
 20
16.3339
 30
0.0
 11
187.438
 21
16.4083
 31
0.0
  0
LINE
  8
0
 62
     40
 10
187.438
 20
16.4083
 30
0.0
 11
187.438
 21
16.4083
 31
0.0
  0
LINE
  8
0
 62
     40
 10
187.793
 20
3.4947
 30
0.0
 11
189.038
 21
3.52502
 31
0.0
  0
LINE
  8
0
 62
     40
 10
189.038
 20
3.52502
 30
0.0
 11
189.986
 21
3.61322
 31
0.0
  0
LINE
  8
0
 62
     40
 10
189.986
 20
3.61322
 30
0.0
 11
189.986
 21
6.96048
 31
0.0
  0
LINE
  8
0
 62
     40
 10
189.986
 20
6.96048
 30
0.0
 11
189.185
 21
7.07898
 31
0.0
  0
LINE
  8
0
 62
     40
 10
189.185
 20
7.07898
 30
0.0
 11
188.208
 21
7.13825
 31
0.0
  0
LINE
  8
0
 62
     40
 10
188.208
 20
7.13825
 30
0.0
 11
187.039
 21
7.06381
 31
0.0
  0
LINE
  8
0
 62
     40
 10
187.039
 20
7.06381
 30
0.0
 11
186.077
 21
6.78272
 31
0.0
  0
LINE
  8
0
 62
     40
 10
186.077
 20
6.78272
 30
0.0
 11
185.425
 21
6.22046
 31
0.0
  0
LINE
  8
0
 62
     40
 10
185.425
 20
6.22046
 30
0.0
 11
185.188
 21
5.33164
 31
0.0
  0
LINE
  8
0
 62
     40
 10
185.188
 20
5.33164
 30
0.0
 11
185.361
 21
4.45382
 31
0.0
  0
LINE
  8
0
 62
     40
 10
185.361
 20
4.45382
 30
0.0
 11
185.884
 21
3.89435
 31
0.0
  0
LINE
  8
0
 62
     40
 10
185.884
 20
3.89435
 30
0.0
 11
186.709
 21
3.5953
 31
0.0
  0
LINE
  8
0
 62
     40
 10
186.709
 20
3.5953
 30
0.0
 11
187.793
 21
3.4947
 31
0.0
  0
LINE
  8
0
 62
     40
 10
187.793
 20
3.4947
 30
0.0
 11
187.793
 21
3.4947
 31
0.0
  0
LINE
  8
0
 62
     40
 10
174.169
 20
9.77304
 30
0.0
 11
173.977
 21
10.87
 31
0.0
  0
LINE
  8
0
 62
     40
 10
173.977
 20
10.87
 30
0.0
 11
173.473
 21
11.8181
 31
0.0
  0
LINE
  8
0
 62
     40
 10
173.473
 20
11.8181
 30
0.0
 11
172.615
 21
12.4988
 31
0.0
  0
LINE
  8
0
 62
     40
 10
172.615
 20
12.4988
 30
0.0
 11
171.326
 21
12.7661
 31
0.0
  0
LINE
  8
0
 62
     40
 10
171.326
 20
12.7661
 30
0.0
 11
170.053
 21
12.514
 31
0.0
  0
LINE
  8
0
 62
     40
 10
170.053
 20
12.514
 30
0.0
 11
169.164
 21
11.847
 31
0.0
  0
LINE
  8
0
 62
     40
 10
169.164
 20
11.847
 30
0.0
 11
168.615
 21
10.8851
 31
0.0
  0
LINE
  8
0
 62
     40
 10
168.615
 20
10.8851
 30
0.0
 11
168.334
 21
9.77304
 31
0.0
  0
LINE
  8
0
 62
     40
 10
168.334
 20
9.77304
 30
0.0
 11
174.169
 21
9.77304
 31
0.0
  0
LINE
  8
0
 62
     40
 10
174.169
 20
9.77304
 30
0.0
 11
174.169
 21
9.77304
 31
0.0
  0
LINE
  8
0
 62
     40
 10
163.803
 20
8.08634
 30
0.0
 11
163.962
 21
10.0294
 31
0.0
  0
LINE
  8
0
 62
     40
 10
163.962
 20
10.0294
 30
0.0
 11
164.44
 21
11.7133
 31
0.0
  0
LINE
  8
0
 62
     40
 10
164.44
 20
11.7133
 30
0.0
 11
165.176
 21
13.1396
 31
0.0
  0
LINE
  8
0
 62
     40
 10
165.176
 20
13.1396
 30
0.0
 11
166.113
 21
14.3054
 31
0.0
  0
LINE
  8
0
 62
     40
 10
166.113
 20
14.3054
 30
0.0
 11
167.226
 21
15.2177
 31
0.0
  0
LINE
  8
0
 62
     40
 10
167.226
 20
15.2177
 30
0.0
 11
168.497
 21
15.8764
 31
0.0
  0
LINE
  8
0
 62
     40
 10
168.497
 20
15.8764
 30
0.0
 11
171.267
 21
16.4083
 31
0.0
  0
LINE
  8
0
 62
     40
 10
171.267
 20
16.4083
 30
0.0
 11
172.838
 21
16.2815
 31
0.0
  0
LINE
  8
0
 62
     40
 10
172.838
 20
16.2815
 30
0.0
 11
174.235
 21
15.9012
 31
0.0
  0
LINE
  8
0
 62
     40
 10
174.235
 20
15.9012
 30
0.0
 11
175.459
 21
15.2673
 31
0.0
  0
LINE
  8
0
 62
     40
 10
175.459
 20
15.2673
 30
0.0
 11
176.509
 21
14.3798
 31
0.0
  0
LINE
  8
0
 62
     40
 10
176.509
 20
14.3798
 30
0.0
 11
177.953
 21
11.8732
 31
0.0
  0
LINE
  8
0
 62
     40
 10
177.953
 20
11.8732
 30
0.0
 11
178.434
 21
8.41156
 31
0.0
  0
LINE
  8
0
 62
     40
 10
178.434
 20
8.41156
 30
0.0
 11
178.405
 21
7.5668
 31
0.0
  0
LINE
  8
0
 62
     40
 10
178.405
 20
7.5668
 30
0.0
 11
178.346
 21
6.75238
 31
0.0
  0
LINE
  8
0
 62
     40
 10
178.346
 20
6.75238
 30
0.0
 11
168.334
 21
6.75238
 31
0.0
  0
LINE
  8
0
 62
     40
 10
168.334
 20
6.75238
 30
0.0
 11
168.727
 21
5.53145
 31
0.0
  0
LINE
  8
0
 62
     40
 10
168.727
 20
5.53145
 30
0.0
 11
169.609
 21
4.59161
 31
0.0
  0
LINE
  8
0
 62
     40
 10
169.609
 20
4.59161
 30
0.0
 11
170.926
 21
3.99217
 31
0.0
  0
LINE
  8
0
 62
     40
 10
170.926
 20
3.99217
 30
0.0
 11
172.63
 21
3.79099
 31
0.0
  0
LINE
  8
0
 62
     40
 10
172.63
 20
3.79099
 30
0.0
 11
175.014
 21
4.01285
 31
0.0
  0
LINE
  8
0
 62
     40
 10
175.014
 20
4.01285
 30
0.0
 11
176.924
 21
4.56131
 31
0.0
  0
LINE
  8
0
 62
     40
 10
176.924
 20
4.56131
 30
0.0
 11
177.516
 21
0.978408
 31
0.0
  0
LINE
  8
0
 62
     40
 10
177.516
 20
0.978408
 30
0.0
 11
176.568
 21
0.622875
 31
0.0
  0
LINE
  8
0
 62
     40
 10
176.568
 20
0.622875
 30
0.0
 11
175.25
 21
0.311437
 31
0.0
  0
LINE
  8
0
 62
     40
 10
175.25
 20
0.311437
 30
0.0
 11
173.696
 21
0.0881944
 31
0.0
  0
LINE
  8
0
 62
     40
 10
173.696
 20
0.0881944
 30
0.0
 11
172.037
 21
0
 31
0.0
  0
LINE
  8
0
 62
     40
 10
172.037
 20
0
 30
0.0
 11
170.069
 21
0.155718
 31
0.0
  0
LINE
  8
0
 62
     40
 10
170.069
 20
0.155718
 30
0.0
 11
168.378
 21
0.622875
 31
0.0
  0
LINE
  8
0
 62
     40
 10
168.378
 20
0.622875
 30
0.0
 11
166.956
 21
1.36012
 31
0.0
  0
LINE
  8
0
 62
     40
 10
166.956
 20
1.36012
 30
0.0
 11
165.801
 21
2.32475
 31
0.0
  0
LINE
  8
0
 62
     40
 10
165.801
 20
2.32475
 30
0.0
 11
164.913
 21
3.50711
 31
0.0
  0
LINE
  8
0
 62
     40
 10
164.913
 20
3.50711
 30
0.0
 11
164.292
 21
4.88791
 31
0.0
  0
LINE
  8
0
 62
     40
 10
164.292
 20
4.88791
 30
0.0
 11
163.925
 21
6.42856
 31
0.0
  0
LINE
  8
0
 62
     40
 10
163.925
 20
6.42856
 30
0.0
 11
163.803
 21
8.08634
 31
0.0
  0
LINE
  8
0
 62
     40
 10
163.803
 20
8.08634
 30
0.0
 11
163.803
 21
8.08634
 31
0.0
  0
LINE
  8
0
 62
     40
 10
149.735
 20
8.20483
 30
0.0
 11
149.871
 21
9.84472
 31
0.0
  0
LINE
  8
0
 62
     40
 10
149.871
 20
9.84472
 30
0.0
 11
150.282
 21
11.3881
 31
0.0
  0
LINE
  8
0
 62
     40
 10
150.282
 20
11.3881
 30
0.0
 11
150.952
 21
12.7882
 31
0.0
  0
LINE
  8
0
 62
     40
 10
150.952
 20
12.7882
 30
0.0
 11
151.867
 21
13.9954
 31
0.0
  0
LINE
  8
0
 62
     40
 10
151.867
 20
13.9954
 30
0.0
 11
153.015
 21
14.9917
 31
0.0
  0
LINE
  8
0
 62
     40
 10
153.015
 20
14.9917
 30
0.0
 11
154.384
 21
15.7565
 31
0.0
  0
LINE
  8
0
 62
     40
 10
154.384
 20
15.7565
 30
0.0
 11
155.969
 21
16.2457
 31
0.0
  0
LINE
  8
0
 62
     40
 10
155.969
 20
16.2457
 30
0.0
 11
157.76
 21
16.4083
 31
0.0
  0
LINE
  8
0
 62
     40
 10
157.76
 20
16.4083
 30
0.0
 11
160.041
 21
16.1864
 31
0.0
  0
LINE
  8
0
 62
     40
 10
160.041
 20
16.1864
 30
0.0
 11
162.056
 21
15.5498
 31
0.0
  0
LINE
  8
0
 62
     40
 10
162.056
 20
15.5498
 30
0.0
 11
161.137
 21
12.0247
 31
0.0
  0
LINE
  8
0
 62
     40
 10
161.137
 20
12.0247
 30
0.0
 11
159.775
 21
12.4395
 31
0.0
  0
LINE
  8
0
 62
     40
 10
159.775
 20
12.4395
 30
0.0
 11
158.116
 21
12.6173
 31
0.0
  0
LINE
  8
0
 62
     40
 10
158.116
 20
12.6173
 30
0.0
 11
156.409
 21
12.3142
 31
0.0
  0
LINE
  8
0
 62
     40
 10
156.409
 20
12.3142
 30
0.0
 11
155.199
 21
11.4033
 31
0.0
  0
LINE
  8
0
 62
     40
 10
155.199
 20
11.4033
 30
0.0
 11
154.477
 21
9.99628
 31
0.0
  0
LINE
  8
0
 62
     40
 10
154.477
 20
9.99628
 30
0.0
 11
154.237
 21
8.20483
 31
0.0
  0
LINE
  8
0
 62
     40
 10
154.237
 20
8.20483
 30
0.0
 11
154.462
 21
6.33899
 31
0.0
  0
LINE
  8
0
 62
     40
 10
154.462
 20
6.33899
 30
0.0
 11
155.14
 21
4.94714
 31
0.0
  0
LINE
  8
0
 62
     40
 10
155.14
 20
4.94714
 30
0.0
 11
156.38
 21
4.08037
 31
0.0
  0
LINE
  8
0
 62
     40
 10
156.38
 20
4.08037
 30
0.0
 11
158.294
 21
3.79099
 31
0.0
  0
LINE
  8
0
 62
     40
 10
158.294
 20
3.79099
 30
0.0
 11
160.012
 21
3.93982
 31
0.0
  0
LINE
  8
0
 62
     40
 10
160.012
 20
3.93982
 30
0.0
 11
161.7
 21
4.41385
 31
0.0
  0
LINE
  8
0
 62
     40
 10
161.7
 20
4.41385
 30
0.0
 11
162.322
 21
0.80064
 31
0.0
  0
LINE
  8
0
 62
     40
 10
162.322
 20
0.80064
 30
0.0
 11
160.397
 21
0.237023
 31
0.0
  0
LINE
  8
0
 62
     40
 10
160.397
 20
0.237023
 30
0.0
 11
157.85
 21
0
 31
0.0
  0
LINE
  8
0
 62
     40
 10
157.85
 20
0
 30
0.0
 11
155.864
 21
0.159852
 31
0.0
  0
LINE
  8
0
 62
     40
 10
155.864
 20
0.159852
 30
0.0
 11
154.178
 21
0.636655
 31
0.0
  0
LINE
  8
0
 62
     40
 10
154.178
 20
0.636655
 30
0.0
 11
152.774
 21
1.38906
 31
0.0
  0
LINE
  8
0
 62
     40
 10
152.774
 20
1.38906
 30
0.0
 11
151.645
 21
2.36885
 31
0.0
  0
LINE
  8
0
 62
     40
 10
151.645
 20
2.36885
 30
0.0
 11
150.785
 21
3.56637
 31
0.0
  0
LINE
  8
0
 62
     40
 10
150.785
 20
3.56637
 30
0.0
 11
150.194
 21
4.96094
 31
0.0
  0
LINE
  8
0
 62
     40
 10
150.194
 20
4.96094
 30
0.0
 11
149.848
 21
6.52089
 31
0.0
  0
LINE
  8
0
 62
     40
 10
149.848
 20
6.52089
 30
0.0
 11
149.735
 21
8.20483
 31
0.0
  0
LINE
  8
0
 62
     40
 10
149.735
 20
8.20483
 30
0.0
 11
149.735
 21
8.20483
 31
0.0
  0
LINE
  8
0
 62
     40
 10
146.921
 20
10.6922
 30
0.0
 11
146.724
 21
8.21588
 31
0.0
  0
LINE
  8
0
 62
     40
 10
146.724
 20
8.21588
 30
0.0
 11
146.135
 21
6.05649
 31
0.0
  0
LINE
  8
0
 62
     40
 10
146.135
 20
6.05649
 30
0.0
 11
145.205
 21
4.22092
 31
0.0
  0
LINE
  8
0
 62
     40
 10
145.205
 20
4.22092
 30
0.0
 11
143.988
 21
2.7106
 31
0.0
  0
LINE
  8
0
 62
     40
 10
143.988
 20
2.7106
 30
0.0
 11
142.496
 21
1.52962
 31
0.0
  0
LINE
  8
0
 62
     40
 10
142.496
 20
1.52962
 30
0.0
 11
140.745
 21
0.682128
 31
0.0
  0
LINE
  8
0
 62
     40
 10
140.745
 20
0.682128
 30
0.0
 11
138.793
 21
0.170877
 31
0.0
  0
LINE
  8
0
 62
     40
 10
138.793
 20
0.170877
 30
0.0
 11
136.703
 21
0
 31
0.0
  0
LINE
  8
0
 62
     40
 10
136.703
 20
0
 30
0.0
 11
134.658
 21
0.170877
 31
0.0
  0
LINE
  8
0
 62
     40
 10
134.658
 20
0.170877
 30
0.0
 11
132.734
 21
0.682128
 31
0.0
  0
LINE
  8
0
 62
     40
 10
132.734
 20
0.682128
 30
0.0
 11
130.985
 21
1.52962
 31
0.0
  0
LINE
  8
0
 62
     40
 10
130.985
 20
1.52962
 30
0.0
 11
129.475
 21
2.7106
 31
0.0
  0
LINE
  8
0
 62
     40
 10
129.475
 20
2.7106
 30
0.0
 11
128.23
 21
4.22092
 31
0.0
  0
LINE
  8
0
 62
     40
 10
128.23
 20
4.22092
 30
0.0
 11
127.284
 21
6.05649
 31
0.0
  0
LINE
  8
0
 62
     40
 10
127.284
 20
6.05649
 30
0.0
 11
126.683
 21
8.21588
 31
0.0
  0
LINE
  8
0
 62
     40
 10
126.683
 20
8.21588
 30
0.0
 11
126.483
 21
10.6922
 31
0.0
  0
LINE
  8
0
 62
     40
 10
126.483
 20
10.6922
 30
0.0
 11
126.69
 21
13.1699
 31
0.0
  0
LINE
  8
0
 62
     40
 10
126.69
 20
13.1699
 30
0.0
 11
127.313
 21
15.3265
 31
0.0
  0
LINE
  8
0
 62
     40
 10
127.313
 20
15.3265
 30
0.0
 11
128.287
 21
17.1676
 31
0.0
  0
LINE
  8
0
 62
     40
 10
128.287
 20
17.1676
 30
0.0
 11
129.55
 21
18.689
 31
0.0
  0
LINE
  8
0
 62
     40
 10
129.55
 20
18.689
 30
0.0
 11
131.066
 21
19.881
 31
0.0
  0
LINE
  8
0
 62
     40
 10
131.066
 20
19.881
 30
0.0
 11
132.807
 21
20.7326
 31
0.0
  0
LINE
  8
0
 62
     40
 10
132.807
 20
20.7326
 30
0.0
 11
134.706
 21
21.2439
 31
0.0
  0
LINE
  8
0
 62
     40
 10
134.706
 20
21.2439
 30
0.0
 11
136.703
 21
21.4133
 31
0.0
  0
LINE
  8
0
 62
     40
 10
136.703
 20
21.4133
 30
0.0
 11
138.745
 21
21.2439
 31
0.0
  0
LINE
  8
0
 62
     40
 10
138.745
 20
21.2439
 30
0.0
 11
140.672
 21
20.7326
 31
0.0
  0
LINE
  8
0
 62
     40
 10
140.672
 20
20.7326
 30
0.0
 11
142.417
 21
19.881
 31
0.0
  0
LINE
  8
0
 62
     40
 10
142.417
 20
19.881
 30
0.0
 11
143.929
 21
18.689
 31
0.0
  0
LINE
  8
0
 62
     40
 10
143.929
 20
18.689
 30
0.0
 11
145.172
 21
17.1676
 31
0.0
  0
LINE
  8
0
 62
     40
 10
145.172
 20
17.1676
 30
0.0
 11
146.12
 21
15.3265
 31
0.0
  0
LINE
  8
0
 62
     40
 10
146.12
 20
15.3265
 30
0.0
 11
146.72
 21
13.1699
 31
0.0
  0
LINE
  8
0
 62
     40
 10
146.72
 20
13.1699
 30
0.0
 11
146.921
 21
10.6922
 31
0.0
  0
LINE
  8
0
 62
     40
 10
146.921
 20
10.6922
 30
0.0
 11
146.921
 21
10.6922
 31
0.0
  0
LINE
  8
0
 62
     40
 10
131.253
 20
10.6922
 30
0.0
 11
131.623
 21
7.9678
 31
0.0
  0
LINE
  8
0
 62
     40
 10
131.623
 20
7.9678
 30
0.0
 11
132.689
 21
5.87872
 31
0.0
  0
LINE
  8
0
 62
     40
 10
132.689
 20
5.87872
 30
0.0
 11
133.461
 21
5.10565
 31
0.0
  0
LINE
  8
0
 62
     40
 10
133.461
 20
5.10565
 30
0.0
 11
134.392
 21
4.53238
 31
0.0
  0
LINE
  8
0
 62
     40
 10
134.392
 20
4.53238
 30
0.0
 11
135.472
 21
4.17682
 31
0.0
  0
LINE
  8
0
 62
     40
 10
135.472
 20
4.17682
 30
0.0
 11
136.703
 21
4.05832
 31
0.0
  0
LINE
  8
0
 62
     40
 10
136.703
 20
4.05832
 30
0.0
 11
137.913
 21
4.17682
 31
0.0
  0
LINE
  8
0
 62
     40
 10
137.913
 20
4.17682
 30
0.0
 11
138.997
 21
4.53238
 31
0.0
  0
LINE
  8
0
 62
     40
 10
138.997
 20
4.53238
 30
0.0
 11
139.937
 21
5.10565
 31
0.0
  0
LINE
  8
0
 62
     40
 10
139.937
 20
5.10565
 30
0.0
 11
140.716
 21
5.87872
 31
0.0
  0
LINE
  8
0
 62
     40
 10
140.716
 20
5.87872
 30
0.0
 11
141.782
 21
7.9678
 31
0.0
  0
LINE
  8
0
 62
     40
 10
141.782
 20
7.9678
 30
0.0
 11
142.151
 21
10.6922
 31
0.0
  0
LINE
  8
0
 62
     40
 10
142.151
 20
10.6922
 30
0.0
 11
141.782
 21
13.4317
 31
0.0
  0
LINE
  8
0
 62
     40
 10
141.782
 20
13.4317
 30
0.0
 11
140.716
 21
15.5346
 31
0.0
  0
LINE
  8
0
 62
     40
 10
140.716
 20
15.5346
 30
0.0
 11
139.937
 21
16.3091
 31
0.0
  0
LINE
  8
0
 62
     40
 10
139.937
 20
16.3091
 30
0.0
 11
138.997
 21
16.8824
 31
0.0
  0
LINE
  8
0
 62
     40
 10
138.997
 20
16.8824
 30
0.0
 11
137.913
 21
17.2379
 31
0.0
  0
LINE
  8
0
 62
     40
 10
137.913
 20
17.2379
 30
0.0
 11
136.703
 21
17.3564
 31
0.0
  0
LINE
  8
0
 62
     40
 10
136.703
 20
17.3564
 30
0.0
 11
135.472
 21
17.2351
 31
0.0
  0
LINE
  8
0
 62
     40
 10
135.472
 20
17.2351
 30
0.0
 11
134.392
 21
16.8672
 31
0.0
  0
LINE
  8
0
 62
     40
 10
134.392
 20
16.8672
 30
0.0
 11
132.689
 21
15.5043
 31
0.0
  0
LINE
  8
0
 62
     40
 10
132.689
 20
15.5043
 30
0.0
 11
131.623
 21
13.4028
 31
0.0
  0
LINE
  8
0
 62
     40
 10
131.623
 20
13.4028
 30
0.0
 11
131.253
 21
10.6922
 31
0.0
  0
LINE
  8
0
 62
     40
 10
131.253
 20
10.6922
 30
0.0
 11
131.253
 21
10.6922
 31
0.0
  0
ENDSEC
  0
EOF
