%TF.GenerationSoftware,KiCad,Pcbnew,8.0.6-8.0.6-0~ubuntu22.04.1*%
%TF.CreationDate,2025-01-28T14:04:11+10:30*%
%TF.ProjectId,wetmate,7765746d-6174-4652-9e6b-696361645f70,rev?*%
%TF.SameCoordinates,Original*%
%TF.FileFunction,Copper,L1,Top*%
%TF.FilePolarity,Positive*%
%FSLAX46Y46*%
G04 Gerber Fmt 4.6, Leading zero omitted, Abs format (unit mm)*
G04 Created by KiCad (PCBNEW 8.0.6-8.0.6-0~ubuntu22.04.1) date 2025-01-28 14:04:11*
%MOMM*%
%LPD*%
G01*
G04 APERTURE LIST*
%TA.AperFunction,ComponentPad*%
%ADD10R,2.100000X2.100000*%
%TD*%
%TA.AperFunction,ComponentPad*%
%ADD11C,2.100000*%
%TD*%
G04 APERTURE END LIST*
D10*
%TO.P,J1,1,Pin_1*%
%TO.N,/Vdd*%
X109000000Y-67500000D03*
D11*
%TO.P,J1,2,Pin_2*%
%TO.N,/Signal*%
X109000000Y-72500000D03*
%TO.P,J1,3,Pin_3*%
%TO.N,/Vss*%
X109000000Y-77500000D03*
%TD*%
D10*
%TO.P,J2,1,Pin_1*%
%TO.N,/Vss*%
X121112500Y-77500000D03*
D11*
%TO.P,J2,2,Pin_2*%
%TO.N,/Signal*%
X121112500Y-72500000D03*
%TO.P,J2,3,Pin_3*%
%TO.N,/Vdd*%
X121112500Y-67500000D03*
%TD*%
%TA.AperFunction,Conductor*%
%TO.N,/Vdd*%
G36*
X124792539Y-65270185D02*
G01*
X124838294Y-65322989D01*
X124849500Y-65374500D01*
X124849500Y-69876000D01*
X124829815Y-69943039D01*
X124777011Y-69988794D01*
X124725500Y-70000000D01*
X117371467Y-70000000D01*
X117304428Y-69980315D01*
X117258673Y-69927511D01*
X117247733Y-69884115D01*
X117236034Y-69705620D01*
X117178481Y-69416278D01*
X117083652Y-69136923D01*
X116953172Y-68872336D01*
X116789273Y-68627043D01*
X116746655Y-68578447D01*
X116594758Y-68405241D01*
X116372955Y-68210725D01*
X116127667Y-68046829D01*
X116127660Y-68046825D01*
X115863080Y-67916349D01*
X115583730Y-67821521D01*
X115583724Y-67821519D01*
X115583722Y-67821519D01*
X115294380Y-67763966D01*
X115294373Y-67763965D01*
X115294363Y-67763964D01*
X115000007Y-67744671D01*
X114999993Y-67744671D01*
X114705636Y-67763964D01*
X114705624Y-67763965D01*
X114705620Y-67763966D01*
X114705612Y-67763967D01*
X114705609Y-67763968D01*
X114416283Y-67821518D01*
X114416269Y-67821521D01*
X114136919Y-67916349D01*
X113872334Y-68046828D01*
X113627041Y-68210728D01*
X113405241Y-68405241D01*
X113210728Y-68627041D01*
X113046828Y-68872334D01*
X112916349Y-69136919D01*
X112821521Y-69416269D01*
X112821519Y-69416277D01*
X112821519Y-69416278D01*
X112763966Y-69705620D01*
X112752266Y-69884113D01*
X112728241Y-69949718D01*
X112672557Y-69991922D01*
X112628533Y-70000000D01*
X105374500Y-70000000D01*
X105307461Y-69980315D01*
X105261706Y-69927511D01*
X105250500Y-69876000D01*
X105250500Y-66402155D01*
X107450000Y-66402155D01*
X107450000Y-67250000D01*
X108345879Y-67250000D01*
X108326901Y-67295818D01*
X108300000Y-67431056D01*
X108300000Y-67568944D01*
X108326901Y-67704182D01*
X108345879Y-67750000D01*
X107450000Y-67750000D01*
X107450000Y-68597844D01*
X107456401Y-68657372D01*
X107456403Y-68657379D01*
X107506645Y-68792086D01*
X107506649Y-68792093D01*
X107592809Y-68907187D01*
X107592812Y-68907190D01*
X107707906Y-68993350D01*
X107707913Y-68993354D01*
X107842620Y-69043596D01*
X107842627Y-69043598D01*
X107902155Y-69049999D01*
X107902172Y-69050000D01*
X108750000Y-69050000D01*
X108750000Y-68154120D01*
X108795818Y-68173099D01*
X108931056Y-68200000D01*
X109068944Y-68200000D01*
X109204182Y-68173099D01*
X109250000Y-68154120D01*
X109250000Y-69050000D01*
X110097828Y-69050000D01*
X110097844Y-69049999D01*
X110157372Y-69043598D01*
X110157379Y-69043596D01*
X110292086Y-68993354D01*
X110292093Y-68993350D01*
X110407187Y-68907190D01*
X110407190Y-68907187D01*
X110493350Y-68792093D01*
X110493354Y-68792086D01*
X110543596Y-68657379D01*
X110543598Y-68657372D01*
X110549999Y-68597844D01*
X110550000Y-68597827D01*
X110550000Y-67750000D01*
X109654121Y-67750000D01*
X109673099Y-67704182D01*
X109700000Y-67568944D01*
X109700000Y-67500000D01*
X119557707Y-67500000D01*
X119576848Y-67743219D01*
X119633803Y-67980457D01*
X119727168Y-68205861D01*
X119851004Y-68407941D01*
X120473189Y-67785755D01*
X120492168Y-67831574D01*
X120568774Y-67946224D01*
X120666276Y-68043726D01*
X120780926Y-68120332D01*
X120826742Y-68139309D01*
X120204557Y-68761494D01*
X120406638Y-68885331D01*
X120632042Y-68978696D01*
X120869280Y-69035651D01*
X120869279Y-69035651D01*
X121112500Y-69054792D01*
X121355719Y-69035651D01*
X121592957Y-68978696D01*
X121818361Y-68885331D01*
X122020441Y-68761495D01*
X122020441Y-68761494D01*
X121398257Y-68139309D01*
X121444074Y-68120332D01*
X121558724Y-68043726D01*
X121656226Y-67946224D01*
X121732832Y-67831574D01*
X121751809Y-67785756D01*
X122373994Y-68407941D01*
X122373995Y-68407941D01*
X122497831Y-68205861D01*
X122591196Y-67980457D01*
X122648151Y-67743219D01*
X122667292Y-67500000D01*
X122648151Y-67256780D01*
X122591196Y-67019542D01*
X122497831Y-66794138D01*
X122373994Y-66592057D01*
X121751809Y-67214242D01*
X121732832Y-67168426D01*
X121656226Y-67053776D01*
X121558724Y-66956274D01*
X121444074Y-66879668D01*
X121398256Y-66860689D01*
X122020441Y-66238504D01*
X121818361Y-66114668D01*
X121592957Y-66021303D01*
X121355719Y-65964348D01*
X121355720Y-65964348D01*
X121112500Y-65945207D01*
X120869280Y-65964348D01*
X120632042Y-66021303D01*
X120406638Y-66114668D01*
X120204557Y-66238504D01*
X120826743Y-66860689D01*
X120780926Y-66879668D01*
X120666276Y-66956274D01*
X120568774Y-67053776D01*
X120492168Y-67168426D01*
X120473190Y-67214243D01*
X119851004Y-66592057D01*
X119727168Y-66794138D01*
X119633803Y-67019542D01*
X119576848Y-67256780D01*
X119557707Y-67500000D01*
X109700000Y-67500000D01*
X109700000Y-67431056D01*
X109673099Y-67295818D01*
X109654121Y-67250000D01*
X110550000Y-67250000D01*
X110550000Y-66402172D01*
X110549999Y-66402155D01*
X110543598Y-66342627D01*
X110543596Y-66342620D01*
X110493354Y-66207913D01*
X110493350Y-66207906D01*
X110407190Y-66092812D01*
X110407187Y-66092809D01*
X110292093Y-66006649D01*
X110292086Y-66006645D01*
X110157379Y-65956403D01*
X110157372Y-65956401D01*
X110097844Y-65950000D01*
X109250000Y-65950000D01*
X109250000Y-66845879D01*
X109204182Y-66826901D01*
X109068944Y-66800000D01*
X108931056Y-66800000D01*
X108795818Y-66826901D01*
X108750000Y-66845879D01*
X108750000Y-65950000D01*
X107902155Y-65950000D01*
X107842627Y-65956401D01*
X107842620Y-65956403D01*
X107707913Y-66006645D01*
X107707906Y-66006649D01*
X107592812Y-66092809D01*
X107592809Y-66092812D01*
X107506649Y-66207906D01*
X107506645Y-66207913D01*
X107456403Y-66342620D01*
X107456401Y-66342627D01*
X107450000Y-66402155D01*
X105250500Y-66402155D01*
X105250500Y-65374500D01*
X105270185Y-65307461D01*
X105322989Y-65261706D01*
X105374500Y-65250500D01*
X124725500Y-65250500D01*
X124792539Y-65270185D01*
G37*
%TD.AperFunction*%
%TD*%
%TA.AperFunction,Conductor*%
%TO.N,/Signal*%
G36*
X117314732Y-70497342D02*
G01*
X117371467Y-70505500D01*
X117371470Y-70505500D01*
X124725500Y-70505500D01*
X124792539Y-70525185D01*
X124838294Y-70577989D01*
X124849500Y-70629500D01*
X124849500Y-74370500D01*
X124829815Y-74437539D01*
X124777011Y-74483294D01*
X124725500Y-74494500D01*
X117371458Y-74494500D01*
X117307282Y-74500340D01*
X117238735Y-74486811D01*
X117188383Y-74438370D01*
X117178627Y-74416709D01*
X117178481Y-74416278D01*
X117083652Y-74136923D01*
X116953172Y-73872336D01*
X116789273Y-73627043D01*
X116746655Y-73578447D01*
X116594758Y-73405241D01*
X116372955Y-73210725D01*
X116127667Y-73046829D01*
X116127660Y-73046825D01*
X115863080Y-72916349D01*
X115583730Y-72821521D01*
X115583724Y-72821519D01*
X115583722Y-72821519D01*
X115294380Y-72763966D01*
X115294373Y-72763965D01*
X115294363Y-72763964D01*
X115000007Y-72744671D01*
X114999993Y-72744671D01*
X114705636Y-72763964D01*
X114705624Y-72763965D01*
X114705620Y-72763966D01*
X114705612Y-72763967D01*
X114705609Y-72763968D01*
X114416283Y-72821518D01*
X114416269Y-72821521D01*
X114136919Y-72916349D01*
X113872334Y-73046828D01*
X113627041Y-73210728D01*
X113405241Y-73405241D01*
X113210728Y-73627041D01*
X113046828Y-73872334D01*
X112916349Y-74136919D01*
X112820330Y-74419777D01*
X112780141Y-74476931D01*
X112715431Y-74503284D01*
X112685266Y-74502656D01*
X112628536Y-74494500D01*
X112628533Y-74494500D01*
X105374500Y-74494500D01*
X105307461Y-74474815D01*
X105261706Y-74422011D01*
X105250500Y-74370500D01*
X105250500Y-72500000D01*
X107445207Y-72500000D01*
X107464348Y-72743219D01*
X107521303Y-72980457D01*
X107614668Y-73205861D01*
X107738504Y-73407941D01*
X108360689Y-72785755D01*
X108379668Y-72831574D01*
X108456274Y-72946224D01*
X108553776Y-73043726D01*
X108668426Y-73120332D01*
X108714242Y-73139309D01*
X108092057Y-73761494D01*
X108294138Y-73885331D01*
X108519542Y-73978696D01*
X108756780Y-74035651D01*
X108756779Y-74035651D01*
X109000000Y-74054792D01*
X109243219Y-74035651D01*
X109480457Y-73978696D01*
X109705861Y-73885331D01*
X109907941Y-73761495D01*
X109907941Y-73761494D01*
X109285757Y-73139309D01*
X109331574Y-73120332D01*
X109446224Y-73043726D01*
X109543726Y-72946224D01*
X109620332Y-72831574D01*
X109639309Y-72785756D01*
X110261494Y-73407941D01*
X110261495Y-73407941D01*
X110385331Y-73205861D01*
X110478696Y-72980457D01*
X110535651Y-72743219D01*
X110554792Y-72500000D01*
X119557707Y-72500000D01*
X119576848Y-72743219D01*
X119633803Y-72980457D01*
X119727168Y-73205861D01*
X119851004Y-73407941D01*
X120473189Y-72785755D01*
X120492168Y-72831574D01*
X120568774Y-72946224D01*
X120666276Y-73043726D01*
X120780926Y-73120332D01*
X120826742Y-73139309D01*
X120204557Y-73761494D01*
X120406638Y-73885331D01*
X120632042Y-73978696D01*
X120869280Y-74035651D01*
X120869279Y-74035651D01*
X121112500Y-74054792D01*
X121355719Y-74035651D01*
X121592957Y-73978696D01*
X121818361Y-73885331D01*
X122020441Y-73761495D01*
X122020441Y-73761494D01*
X121398257Y-73139309D01*
X121444074Y-73120332D01*
X121558724Y-73043726D01*
X121656226Y-72946224D01*
X121732832Y-72831574D01*
X121751809Y-72785756D01*
X122373994Y-73407941D01*
X122373995Y-73407941D01*
X122497831Y-73205861D01*
X122591196Y-72980457D01*
X122648151Y-72743219D01*
X122667292Y-72500000D01*
X122648151Y-72256780D01*
X122591196Y-72019542D01*
X122497831Y-71794138D01*
X122373994Y-71592057D01*
X121751809Y-72214242D01*
X121732832Y-72168426D01*
X121656226Y-72053776D01*
X121558724Y-71956274D01*
X121444074Y-71879668D01*
X121398256Y-71860689D01*
X122020441Y-71238504D01*
X121818361Y-71114668D01*
X121592957Y-71021303D01*
X121355719Y-70964348D01*
X121355720Y-70964348D01*
X121112500Y-70945207D01*
X120869280Y-70964348D01*
X120632042Y-71021303D01*
X120406638Y-71114668D01*
X120204557Y-71238504D01*
X120826743Y-71860689D01*
X120780926Y-71879668D01*
X120666276Y-71956274D01*
X120568774Y-72053776D01*
X120492168Y-72168426D01*
X120473190Y-72214243D01*
X119851004Y-71592057D01*
X119727168Y-71794138D01*
X119633803Y-72019542D01*
X119576848Y-72256780D01*
X119557707Y-72500000D01*
X110554792Y-72500000D01*
X110535651Y-72256780D01*
X110478696Y-72019542D01*
X110385331Y-71794138D01*
X110261494Y-71592057D01*
X109639309Y-72214242D01*
X109620332Y-72168426D01*
X109543726Y-72053776D01*
X109446224Y-71956274D01*
X109331574Y-71879668D01*
X109285756Y-71860689D01*
X109907941Y-71238504D01*
X109705861Y-71114668D01*
X109480457Y-71021303D01*
X109243219Y-70964348D01*
X109243220Y-70964348D01*
X109000000Y-70945207D01*
X108756780Y-70964348D01*
X108519542Y-71021303D01*
X108294138Y-71114668D01*
X108092057Y-71238504D01*
X108714243Y-71860689D01*
X108668426Y-71879668D01*
X108553776Y-71956274D01*
X108456274Y-72053776D01*
X108379668Y-72168426D01*
X108360690Y-72214243D01*
X107738504Y-71592057D01*
X107614668Y-71794138D01*
X107521303Y-72019542D01*
X107464348Y-72256780D01*
X107445207Y-72500000D01*
X105250500Y-72500000D01*
X105250500Y-70629500D01*
X105270185Y-70562461D01*
X105322989Y-70516706D01*
X105374500Y-70505500D01*
X112628525Y-70505500D01*
X112628533Y-70505500D01*
X112692719Y-70499659D01*
X112761263Y-70513187D01*
X112811615Y-70561627D01*
X112821372Y-70583290D01*
X112916349Y-70863080D01*
X113046825Y-71127660D01*
X113046829Y-71127667D01*
X113210725Y-71372955D01*
X113405241Y-71594758D01*
X113627044Y-71789274D01*
X113872332Y-71953170D01*
X113872335Y-71953172D01*
X114136923Y-72083652D01*
X114416278Y-72178481D01*
X114705620Y-72236034D01*
X114733888Y-72237886D01*
X114999993Y-72255329D01*
X115000000Y-72255329D01*
X115000007Y-72255329D01*
X115235675Y-72239881D01*
X115294380Y-72236034D01*
X115583722Y-72178481D01*
X115863077Y-72083652D01*
X116127665Y-71953172D01*
X116372957Y-71789273D01*
X116594758Y-71594758D01*
X116789273Y-71372957D01*
X116953172Y-71127665D01*
X117083652Y-70863077D01*
X117178481Y-70583722D01*
X117178481Y-70583721D01*
X117179669Y-70580222D01*
X117219858Y-70523068D01*
X117284567Y-70496715D01*
X117314732Y-70497342D01*
G37*
%TD.AperFunction*%
%TD*%
%TA.AperFunction,Conductor*%
%TO.N,/Vss*%
G36*
X112695572Y-75019685D02*
G01*
X112741327Y-75072489D01*
X112752266Y-75115884D01*
X112763966Y-75294378D01*
X112763968Y-75294390D01*
X112821518Y-75583716D01*
X112821521Y-75583730D01*
X112916349Y-75863080D01*
X113046825Y-76127660D01*
X113046829Y-76127667D01*
X113210725Y-76372955D01*
X113405241Y-76594758D01*
X113627044Y-76789274D01*
X113872332Y-76953170D01*
X113872335Y-76953172D01*
X114136923Y-77083652D01*
X114416278Y-77178481D01*
X114705620Y-77236034D01*
X114733888Y-77237886D01*
X114999993Y-77255329D01*
X115000000Y-77255329D01*
X115000007Y-77255329D01*
X115235675Y-77239881D01*
X115294380Y-77236034D01*
X115583722Y-77178481D01*
X115863077Y-77083652D01*
X116127665Y-76953172D01*
X116372957Y-76789273D01*
X116594758Y-76594758D01*
X116763667Y-76402155D01*
X119562500Y-76402155D01*
X119562500Y-77250000D01*
X120458379Y-77250000D01*
X120439401Y-77295818D01*
X120412500Y-77431056D01*
X120412500Y-77568944D01*
X120439401Y-77704182D01*
X120458379Y-77750000D01*
X119562500Y-77750000D01*
X119562500Y-78597844D01*
X119568901Y-78657372D01*
X119568903Y-78657379D01*
X119619145Y-78792086D01*
X119619149Y-78792093D01*
X119705309Y-78907187D01*
X119705312Y-78907190D01*
X119820406Y-78993350D01*
X119820413Y-78993354D01*
X119955120Y-79043596D01*
X119955127Y-79043598D01*
X120014655Y-79049999D01*
X120014672Y-79050000D01*
X120862500Y-79050000D01*
X120862500Y-78154120D01*
X120908318Y-78173099D01*
X121043556Y-78200000D01*
X121181444Y-78200000D01*
X121316682Y-78173099D01*
X121362500Y-78154120D01*
X121362500Y-79050000D01*
X122210328Y-79050000D01*
X122210344Y-79049999D01*
X122269872Y-79043598D01*
X122269879Y-79043596D01*
X122404586Y-78993354D01*
X122404593Y-78993350D01*
X122519687Y-78907190D01*
X122519690Y-78907187D01*
X122605850Y-78792093D01*
X122605854Y-78792086D01*
X122656096Y-78657379D01*
X122656098Y-78657372D01*
X122662499Y-78597844D01*
X122662500Y-78597827D01*
X122662500Y-77750000D01*
X121766621Y-77750000D01*
X121785599Y-77704182D01*
X121812500Y-77568944D01*
X121812500Y-77431056D01*
X121785599Y-77295818D01*
X121766621Y-77250000D01*
X122662500Y-77250000D01*
X122662500Y-76402172D01*
X122662499Y-76402155D01*
X122656098Y-76342627D01*
X122656096Y-76342620D01*
X122605854Y-76207913D01*
X122605850Y-76207906D01*
X122519690Y-76092812D01*
X122519687Y-76092809D01*
X122404593Y-76006649D01*
X122404586Y-76006645D01*
X122269879Y-75956403D01*
X122269872Y-75956401D01*
X122210344Y-75950000D01*
X121362500Y-75950000D01*
X121362500Y-76845879D01*
X121316682Y-76826901D01*
X121181444Y-76800000D01*
X121043556Y-76800000D01*
X120908318Y-76826901D01*
X120862500Y-76845879D01*
X120862500Y-75950000D01*
X120014655Y-75950000D01*
X119955127Y-75956401D01*
X119955120Y-75956403D01*
X119820413Y-76006645D01*
X119820406Y-76006649D01*
X119705312Y-76092809D01*
X119705309Y-76092812D01*
X119619149Y-76207906D01*
X119619145Y-76207913D01*
X119568903Y-76342620D01*
X119568901Y-76342627D01*
X119562500Y-76402155D01*
X116763667Y-76402155D01*
X116789273Y-76372957D01*
X116953172Y-76127665D01*
X117083652Y-75863077D01*
X117178481Y-75583722D01*
X117236034Y-75294380D01*
X117247733Y-75115886D01*
X117271759Y-75050282D01*
X117327443Y-75008078D01*
X117371467Y-75000000D01*
X124725500Y-75000000D01*
X124792539Y-75019685D01*
X124838294Y-75072489D01*
X124849500Y-75124000D01*
X124849500Y-79625500D01*
X124829815Y-79692539D01*
X124777011Y-79738294D01*
X124725500Y-79749500D01*
X105374500Y-79749500D01*
X105307461Y-79729815D01*
X105261706Y-79677011D01*
X105250500Y-79625500D01*
X105250500Y-77500000D01*
X107445207Y-77500000D01*
X107464348Y-77743219D01*
X107521303Y-77980457D01*
X107614668Y-78205861D01*
X107738504Y-78407941D01*
X108360689Y-77785755D01*
X108379668Y-77831574D01*
X108456274Y-77946224D01*
X108553776Y-78043726D01*
X108668426Y-78120332D01*
X108714242Y-78139309D01*
X108092057Y-78761494D01*
X108294138Y-78885331D01*
X108519542Y-78978696D01*
X108756780Y-79035651D01*
X108756779Y-79035651D01*
X109000000Y-79054792D01*
X109243219Y-79035651D01*
X109480457Y-78978696D01*
X109705861Y-78885331D01*
X109907941Y-78761495D01*
X109907941Y-78761494D01*
X109285757Y-78139309D01*
X109331574Y-78120332D01*
X109446224Y-78043726D01*
X109543726Y-77946224D01*
X109620332Y-77831574D01*
X109639309Y-77785756D01*
X110261494Y-78407941D01*
X110261495Y-78407941D01*
X110385331Y-78205861D01*
X110478696Y-77980457D01*
X110535651Y-77743219D01*
X110554792Y-77500000D01*
X110535651Y-77256780D01*
X110478696Y-77019542D01*
X110385331Y-76794138D01*
X110261494Y-76592057D01*
X109639309Y-77214242D01*
X109620332Y-77168426D01*
X109543726Y-77053776D01*
X109446224Y-76956274D01*
X109331574Y-76879668D01*
X109285756Y-76860689D01*
X109907941Y-76238504D01*
X109705861Y-76114668D01*
X109480457Y-76021303D01*
X109243219Y-75964348D01*
X109243220Y-75964348D01*
X109000000Y-75945207D01*
X108756780Y-75964348D01*
X108519542Y-76021303D01*
X108294138Y-76114668D01*
X108092057Y-76238504D01*
X108714243Y-76860689D01*
X108668426Y-76879668D01*
X108553776Y-76956274D01*
X108456274Y-77053776D01*
X108379668Y-77168426D01*
X108360690Y-77214243D01*
X107738504Y-76592057D01*
X107614668Y-76794138D01*
X107521303Y-77019542D01*
X107464348Y-77256780D01*
X107445207Y-77500000D01*
X105250500Y-77500000D01*
X105250500Y-75124000D01*
X105270185Y-75056961D01*
X105322989Y-75011206D01*
X105374500Y-75000000D01*
X112628533Y-75000000D01*
X112695572Y-75019685D01*
G37*
%TD.AperFunction*%
%TD*%
M02*
