  0
SECTION
  2
HEADER
  9
$ACADVER
  1
AC1014
  9
$ACADMAINTVER
 70
     9
  9
$DWGCODEPAGE
  3
ANSI_1252
  9
$INSBASE
 10
0.0
 20
0.0
 30
0.0
  9
$EXTMIN
 10
1.000000000000000E+20
 20
1.000000000000000E+20
 30
1.000000000000000E+20
  9
$EXTMAX
 10
-1.000000000000000E+20
 20
-1.000000000000000E+20
 30
-1.000000000000000E+20
  9
$LIMMIN
 10
0.0
 20
0.0
  9
$LIMMAX
 10
12.0
 20
9.0
  9
$ORTHOMODE
 70
     0
  9
$REGENMODE
 70
     1
  9
$FILLMODE
 70
     1
  9
$QTEXTMODE
 70
     0
  9
$MIRRTEXT
 70
     1
  9
$DRAGMODE
 70
     2
  9
$LTSCALE
 40
1.0
  9
$OSMODE
 70
    37
  9
$ATTMODE
 70
     1
  9
$TEXTSIZE
 40
0.2
  9
$TRACEWID
 40
0.05
  9
$TEXTSTYLE
  7
STANDARD
  9
$CLAYER
  8
0
  9
$CELTYPE
  6
BYLAYER
  9
$CECOLOR
 62
   256
  9
$CELTSCALE
 40
1.0
  9
$DELOBJ
 70
     1
  9
$DISPSILH
 70
     0
  9
$DIMSCALE
 40
1.0
  9
$DIMASZ
 40
0.18
  9
$DIMEXO
 40
0.0625
  9
$DIMDLI
 40
0.38
  9
$DIMRND
 40
0.0
  9
$DIMDLE
 40
0.0
  9
$DIMEXE
 40
0.18
  9
$DIMTP
 40
0.0
  9
$DIMTM
 40
0.0
  9
$DIMTXT
 40
0.18
  9
$DIMCEN
 40
0.09
  9
$DIMTSZ
 40
0.0
  9
$DIMTOL
 70
     0
  9
$DIMLIM
 70
     0
  9
$DIMTIH
 70
     1
  9
$DIMTOH
 70
     1
  9
$DIMSE1
 70
     0
  9
$DIMSE2
 70
     0
  9
$DIMTAD
 70
     0
  9
$DIMZIN
 70
     0
  9
$DIMBLK
  1

  9
$DIMASO
 70
     1
  9
$DIMSHO
 70
     1
  9
$DIMPOST
  1

  9
$DIMAPOST
  1

  9
$DIMALT
 70
     0
  9
$DIMALTD
 70
     2
  9
$DIMALTF
 40
25.4
  9
$DIMLFAC
 40
1.0
  9
$DIMTOFL
 70
     0
  9
$DIMTVP
 40
0.0
  9
$DIMTIX
 70
     0
  9
$DIMSOXD
 70
     0
  9
$DIMSAH
 70
     0
  9
$DIMBLK1
  1

  9
$DIMBLK2
  1

  9
$DIMSTYLE
  2
STANDARD
  9
$DIMCLRD
 70
     0
  9
$DIMCLRE
 70
     0
  9
$DIMCLRT
 70
     0
  9
$DIMTFAC
 40
1.0
  9
$DIMGAP
 40
0.09
  9
$DIMJUST
 70
     0
  9
$DIMSD1
 70
     0
  9
$DIMSD2
 70
     0
  9
$DIMTOLJ
 70
     1
  9
$DIMTZIN
 70
     0
  9
$DIMALTZ
 70
     0
  9
$DIMALTTZ
 70
     0
  9
$DIMFIT
 70
     3
  9
$DIMUPT
 70
     0
  9
$DIMUNIT
 70
     2
  9
$DIMDEC
 70
     4
  9
$DIMTDEC
 70
     4
  9
$DIMALTU
 70
     2
  9
$DIMALTTD
 70
     2
  9
$DIMTXSTY
  7
STANDARD
  9
$DIMAUNIT
 70
     0
  9
$LUNITS
 70
     2
  9
$LUPREC
 70
     4
  9
$SKETCHINC
 40
0.1
  9
$FILLETRAD
 40
0.5
  9
$AUNITS
 70
     0
  9
$AUPREC
 70
     0
  9
$MENU
  1
.
  9
$ELEVATION
 40
0.0
  9
$PELEVATION
 40
0.0
  9
$THICKNESS
 40
0.0
  9
$LIMCHECK
 70
     0
  9
$CHAMFERA
 40
0.5
  9
$CHAMFERB
 40
0.5
  9
$CHAMFERC
 40
1.0
  9
$CHAMFERD
 40
0.0
  9
$SKPOLY
 70
     0
  9
$TDCREATE
 40
2458448.775209722
  9
$TDUPDATE
 40
2458448.775209734
  9
$TDINDWG
 40
0.0000000116
  9
$TDUSRTIMER
 40
0.0000000116
  9
$USRTIMER
 70
     1
  9
$ANGBASE
 50
0.0
  9
$ANGDIR
 70
     0
  9
$PDMODE
 70
     0
  9
$PDSIZE
 40
0.0
  9
$PLINEWID
 40
0.0
  9
$COORDS
 70
     1
  9
$SPLFRAME
 70
     0
  9
$SPLINETYPE
 70
     6
  9
$SPLINESEGS
 70
     8
  9
$ATTDIA
 70
     0
  9
$ATTREQ
 70
     1
  9
$HANDLING
 70
     1
  9
$HANDSEED
  5
51A
  9
$SURFTAB1
 70
     6
  9
$SURFTAB2
 70
     6
  9
$SURFTYPE
 70
     6
  9
$SURFU
 70
     6
  9
$SURFV
 70
     6
  9
$UCSNAME
  2

  9
$UCSORG
 10
0.0
 20
0.0
 30
0.0
  9
$UCSXDIR
 10
1.0
 20
0.0
 30
0.0
  9
$UCSYDIR
 10
0.0
 20
1.0
 30
0.0
  9
$PUCSNAME
  2

  9
$PUCSORG
 10
0.0
 20
0.0
 30
0.0
  9
$PUCSXDIR
 10
1.0
 20
0.0
 30
0.0
  9
$PUCSYDIR
 10
0.0
 20
1.0
 30
0.0
  9
$USERI1
 70
     0
  9
$USERI2
 70
     0
  9
$USERI3
 70
     0
  9
$USERI4
 70
     0
  9
$USERI5
 70
     0
  9
$USERR1
 40
0.0
  9
$USERR2
 40
0.0
  9
$USERR3
 40
0.0
  9
$USERR4
 40
0.0
  9
$USERR5
 40
0.0
  9
$WORLDVIEW
 70
     1
  9
$SHADEDGE
 70
     3
  9
$SHADEDIF
 70
    70
  9
$TILEMODE
 70
     1
  9
$MAXACTVP
 70
    64
  9
$PINSBASE
 10
0.0
 20
0.0
 30
0.0
  9
$PLIMCHECK
 70
     0
  9
$PEXTMIN
 10
1.000000000000000E+20
 20
1.000000000000000E+20
 30
1.000000000000000E+20
  9
$PEXTMAX
 10
-1.000000000000000E+20
 20
-1.000000000000000E+20
 30
-1.000000000000000E+20
  9
$PLIMMIN
 10
0.0
 20
0.0
  9
$PLIMMAX
 10
12.0
 20
9.0
  9
$UNITMODE
 70
     0
  9
$VISRETAIN
 70
     1
  9
$PLINEGEN
 70
     0
  9
$PSLTSCALE
 70
     1
  9
$TREEDEPTH
 70
  3020
  9
$PICKSTYLE
 70
     1
  9
$CMLSTYLE
  2
STANDARD
  9
$CMLJUST
 70
     0
  9
$CMLSCALE
 40
1.0
  9
$PROXYGRAPHICS
 70
     1
  9
$MEASUREMENT
 70
     0
  0
ENDSEC
  0
SECTION
  2
CLASSES
  0
CLASS
  1
ACDBDICTIONARYWDFLT
  2
AcDbDictionaryWithDefault
  3
ObjectDBX Classes
 90
        0
280
     0
281
     0
  0
CLASS
  1
VISUALSTYLE
  2
AcDbVisualStyle
  3
ObjectDBX Classes
 90
     4095
280
     0
281
     0
  0
CLASS
  1
MATERIAL
  2
AcDbMaterial
  3
ObjectDBX Classes
 90
     1153
280
     0
281
     0
  0
CLASS
  1
SCALE
  2
AcDbScale
  3
ObjectDBX Classes
 90
     1153
280
     0
281
     0
  0
CLASS
  1
DICTIONARYVAR
  2
AcDbDictionaryVar
  3
ObjectDBX Classes
 90
        0
280
     0
281
     0
  0
CLASS
  1
XRECORD
  2
AcDbXrecord
  3
AutoCAD 2000
 90
        0
280
     0
281
     0
  0
CLASS
  1
LWPOLYLINE
  2
AcDbPolyline
  3
AutoCAD 2000
 90
        0
280
     0
281
     1
  0
CLASS
  1
HATCH
  2
AcDbHatch
  3
AutoCAD 2000
 90
        0
280
     0
281
     1
  0
CLASS
  1
ACDBPLACEHOLDER
  2
AcDbPlaceHolder
  3
ObjectDBX Classes
 90
        0
280
     0
281
     0
  0
CLASS
  1
LAYOUT
  2
AcDbLayout
  3
ObjectDBX Classes
 90
        0
280
     0
281
     0
  0
ENDSEC
  0
SECTION
  2
TABLES
  0
TABLE
  2
VPORT
  5
8
330
0
100
AcDbSymbolTable
 70
     1
  0
VPORT
  5
29
330
8
100
AcDbSymbolTableRecord
100
AcDbViewportTableRecord
  2
*ACTIVE
 70
     0
 10
0.0
 20
0.0
 11
1.0
 21
1.0
 12
0.0
 22
0.0
 13
0.0
 23
0.0
 14
0.5
 24
0.5
 15
0.5
 25
0.5
 16
22.41679750797057
 26
-24.43040285771428
 36
16.53501626059729
 17
-14.4539196061128
 27
0.774336247095377
 37
-0.0466730902579471
 40
41.10606691179026
 41
1.3333
 42
50.0
 43
-11.65083206949321
 44
25362.94916793051
 50
0.0
 51
0.0
 71
     0
 72
   100
 73
     1
 74
     3
 75
     0
 76
     0
 77
     0
 78
     0
  0
ENDTAB
  0
TABLE
  2
LTYPE
  5
5
330
0
100
AcDbSymbolTable
 70
     1
  0
LTYPE
  5
14
330
5
100
AcDbSymbolTableRecord
100
AcDbLinetypeTableRecord
  2
BYBLOCK
 70
     0
  3

 72
    65
 73
     0
 40
0.0
  0
LTYPE
  5
15
330
5
100
AcDbSymbolTableRecord
100
AcDbLinetypeTableRecord
  2
BYLAYER
 70
     0
  3

 72
    65
 73
     0
 40
0.0
  0
LTYPE
  5
16
330
5
100
AcDbSymbolTableRecord
100
AcDbLinetypeTableRecord
  2
CONTINUOUS
 70
     0
  3
Solid line
 72
    65
 73
     0
 40
0.0
  0
ENDTAB
  0
TABLE
  2
LAYER
  5
2
330
0
100
AcDbSymbolTable
 70
     1
  0
LAYER
  5
10
330
2
100
AcDbSymbolTableRecord
100
AcDbLayerTableRecord
  2
0
 70
     0
 62
    13
  6
CONTINUOUS
  0
ENDTAB
  0
TABLE
  2
STYLE
  5
3
330
0
100
AcDbSymbolTable
 70
     3
  0
STYLE
  5
11
330
3
100
AcDbSymbolTableRecord
100
AcDbTextStyleTableRecord
  2
STANDARD
 70
     0
 40
0.0
 41
1.0
 50
0.0
 71
     0
 42
0.2
  3
txt
  4

  0
STYLE
  5
3F
330
3
100
AcDbSymbolTableRecord
100
AcDbTextStyleTableRecord
  2
ARIAL
 70
     0
 40
0.0
 41
1.0
 50
0.0
 71
     0
 42
0.2
  3
Arial
  4

1001
ACAD
1000
Arial
1071
       34
  0
STYLE
  5
40
330
3
100
AcDbSymbolTableRecord
100
AcDbTextStyleTableRecord
  2
TAHOMA
 70
     0
 40
0.0
 41
1.0
 50
0.0
 71
     0
 42
0.2
  3
Tahoma
  4

1001
ACAD
1000
Tahoma
1071
       34
  0
ENDTAB
  0
TABLE
  2
VIEW
  5
6
330
0
100
AcDbSymbolTable
 70
     0
  0
ENDTAB
  0
TABLE
  2
UCS
  5
7
330
0
100
AcDbSymbolTable
 70
     0
  0
ENDTAB
  0
TABLE
  2
APPID
  5
9
330
0
100
AcDbSymbolTable
 70
     1
  0
APPID
  5
12
330
9
100
AcDbSymbolTableRecord
100
AcDbRegAppTableRecord
  2
ACAD
 70
     0
  0
ENDTAB
  0
TABLE
  2
DIMSTYLE
  5
A
330
0
100
AcDbSymbolTable
 70
     1
  0
DIMSTYLE
105
27
330
A
100
AcDbSymbolTableRecord
100
AcDbDimStyleTableRecord
  2
STANDARD
 70
     0
  3

  4

  5

  6

  7

 40
1.0
 41
0.18
 42
0.0625
 43
0.38
 44
0.18
 45
0.0
 46
0.0
 47
0.0
 48
0.0
140
0.18
141
0.09
142
0.0
143
25.4
144
1.0
145
0.0
146
1.0
147
0.09
 71
     0
 72
     0
 73
     1
 74
     1
 75
     0
 76
     0
 77
     0
 78
     0
170
     0
171
     2
172
     0
173
     0
174
     0
175
     0
176
     0
177
     0
178
     0
270
     2
271
     4
272
     4
273
     2
274
     2
340
11
275
     0
280
     0
281
     0
282
     0
283
     1
284
     0
285
     0
286
     0
287
     3
288
     0
  0
ENDTAB
  0
TABLE
  2
BLOCK_RECORD
  5
1
330
0
100
AcDbSymbolTable
 70
     2
  0
BLOCK_RECORD
  5
1F
330
1
100
AcDbSymbolTableRecord
100
AcDbBlockTableRecord
  2
*MODEL_SPACE
  0
BLOCK_RECORD
  5
1B
330
1
100
AcDbSymbolTableRecord
100
AcDbBlockTableRecord
  2
*PAPER_SPACE
  0
BLOCK_RECORD
  5
41
330
1
100
AcDbSymbolTableRecord
100
AcDbBlockTableRecord
  2
_
  0
ENDTAB
  0
ENDSEC
  0
SECTION
  2
BLOCKS
  0
BLOCK
  5
20
330
1F
100
AcDbEntity
  8
0
100
AcDbBlockBegin
  2
*MODEL_SPACE
 70
     0
 10
0.0
 20
0.0
 30
0.0
  3
*MODEL_SPACE
  1

  0
ENDBLK
  5
21
330
1F
100
AcDbEntity
  8
0
100
AcDbBlockEnd
  0
BLOCK
  5
1C
330
1B
100
AcDbEntity
 67
     1
  8
0
100
AcDbBlockBegin
  2
*PAPER_SPACE
 70
     0
 10
0.0
 20
0.0
 30
0.0
  3
*PAPER_SPACE
  1

  0
ENDBLK
  5
1D
330
1B
100
AcDbEntity
 67
     1
  8
0
100
AcDbBlockEnd
  0
BLOCK
  5
42
330
41
100
AcDbEntity
  8
0
100
AcDbBlockBegin
  2
_
 70
     0
 10
0.0
 20
0.0
 30
0.0
  3
_
  1

  0
LINE
  5
44
330
41
100
AcDbEntity
  8
0
100
AcDbLine
 10
216.2081736909323
 20
81.90932311621967
 30
0.0
 11
134.2988505747126
 21
81.90932311621967
 31
0.0
  0
LINE
  5
45
330
41
100
AcDbEntity
  8
0
100
AcDbLine
 10
134.2988505747126
 20
81.90932311621967
 30
0.0
 11
134.2988505747126
 21
0.0
 31
0.0
  0
LINE
  5
46
330
41
100
AcDbEntity
  8
0
100
AcDbLine
 10
134.2988505747126
 20
0.0
 30
0.0
 11
107.3742017879949
 21
0.0
 31
0.0
  0
LINE
  5
47
330
41
100
AcDbEntity
  8
0
100
AcDbLine
 10
107.3742017879949
 20
0.0
 30
0.0
 11
107.3742017879949
 21
81.90932311621967
 31
0.0
  0
LINE
  5
48
330
41
100
AcDbEntity
  8
0
100
AcDbLine
 10
107.3742017879949
 20
81.90932311621967
 30
0.0
 11
25.46487867177522
 21
81.90932311621967
 31
0.0
  0
LINE
  5
49
330
41
100
AcDbEntity
  8
0
100
AcDbLine
 10
25.46487867177522
 20
81.90932311621967
 30
0.0
 11
25.46487867177522
 21
107.8607918263091
 31
0.0
  0
LINE
  5
4A
330
41
100
AcDbEntity
  8
0
100
AcDbLine
 10
25.46487867177522
 20
107.8607918263091
 30
0.0
 11
107.3742017879949
 21
107.8607918263091
 31
0.0
  0
LINE
  5
4B
330
41
100
AcDbEntity
  8
0
100
AcDbLine
 10
107.3742017879949
 20
107.8607918263091
 30
0.0
 11
107.3742017879949
 21
189.7701149425287
 31
0.0
  0
LINE
  5
4C
330
41
100
AcDbEntity
  8
0
100
AcDbLine
 10
107.3742017879949
 20
189.7701149425287
 30
0.0
 11
134.2988505747126
 21
189.7701149425287
 31
0.0
  0
LINE
  5
4D
330
41
100
AcDbEntity
  8
0
100
AcDbLine
 10
134.2988505747126
 20
189.7701149425287
 30
0.0
 11
134.2988505747126
 21
107.8607918263091
 31
0.0
  0
LINE
  5
4E
330
41
100
AcDbEntity
  8
0
100
AcDbLine
 10
134.2988505747126
 20
107.8607918263091
 30
0.0
 11
216.2081736909323
 21
107.8607918263091
 31
0.0
  0
LINE
  5
4F
330
41
100
AcDbEntity
  8
0
100
AcDbLine
 10
216.2081736909323
 20
107.8607918263091
 30
0.0
 11
216.2081736909323
 21
81.90932311621967
 31
0.0
  0
LINE
  5
50
330
41
100
AcDbEntity
  8
0
100
AcDbLine
 10
216.2081736909323
 20
81.90932311621967
 30
25.4
 11
134.2988505747126
 21
81.90932311621967
 31
25.4
  0
LINE
  5
51
330
41
100
AcDbEntity
  8
0
100
AcDbLine
 10
134.2988505747126
 20
81.90932311621967
 30
25.4
 11
134.2988505747126
 21
0.0
 31
25.4
  0
LINE
  5
52
330
41
100
AcDbEntity
  8
0
100
AcDbLine
 10
134.2988505747126
 20
0.0
 30
25.4
 11
107.3742017879949
 21
0.0
 31
25.4
  0
LINE
  5
53
330
41
100
AcDbEntity
  8
0
100
AcDbLine
 10
107.3742017879949
 20
0.0
 30
25.4
 11
107.3742017879949
 21
81.90932311621967
 31
25.4
  0
LINE
  5
54
330
41
100
AcDbEntity
  8
0
100
AcDbLine
 10
107.3742017879949
 20
81.90932311621967
 30
25.4
 11
25.46487867177522
 21
81.90932311621967
 31
25.4
  0
LINE
  5
55
330
41
100
AcDbEntity
  8
0
100
AcDbLine
 10
25.46487867177522
 20
81.90932311621967
 30
25.4
 11
25.46487867177522
 21
107.8607918263091
 31
25.4
  0
LINE
  5
56
330
41
100
AcDbEntity
  8
0
100
AcDbLine
 10
25.46487867177522
 20
107.8607918263091
 30
25.4
 11
107.3742017879949
 21
107.8607918263091
 31
25.4
  0
LINE
  5
57
330
41
100
AcDbEntity
  8
0
100
AcDbLine
 10
107.3742017879949
 20
107.8607918263091
 30
25.4
 11
107.3742017879949
 21
189.7701149425287
 31
25.4
  0
LINE
  5
58
330
41
100
AcDbEntity
  8
0
100
AcDbLine
 10
107.3742017879949
 20
189.7701149425287
 30
25.4
 11
134.2988505747126
 21
189.7701149425287
 31
25.4
  0
LINE
  5
59
330
41
100
AcDbEntity
  8
0
100
AcDbLine
 10
134.2988505747126
 20
189.7701149425287
 30
25.4
 11
134.2988505747126
 21
107.8607918263091
 31
25.4
  0
LINE
  5
5A
330
41
100
AcDbEntity
  8
0
100
AcDbLine
 10
134.2988505747126
 20
107.8607918263091
 30
25.4
 11
216.2081736909323
 21
107.8607918263091
 31
25.4
  0
LINE
  5
5B
330
41
100
AcDbEntity
  8
0
100
AcDbLine
 10
216.2081736909323
 20
107.8607918263091
 30
25.4
 11
216.2081736909323
 21
81.90932311621967
 31
25.4
  0
LINE
  5
5C
330
41
100
AcDbEntity
  8
0
100
AcDbLine
 10
134.2988505747126
 20
81.90932311621967
 30
0.0
 11
134.2988505747126
 21
81.90932311621967
 31
25.4
  0
LINE
  5
5D
330
41
100
AcDbEntity
  8
0
100
AcDbLine
 10
216.2081736909323
 20
81.90932311621967
 30
0.0
 11
216.2081736909323
 21
81.90932311621967
 31
25.4
  0
LINE
  5
5E
330
41
100
AcDbEntity
  8
0
100
AcDbLine
 10
134.2988505747126
 20
0.0
 30
0.0
 11
134.2988505747126
 21
0.0
 31
25.4
  0
LINE
  5
5F
330
41
100
AcDbEntity
  8
0
100
AcDbLine
 10
107.3742017879949
 20
0.0
 30
0.0
 11
107.3742017879949
 21
0.0
 31
25.4
  0
LINE
  5
60
330
41
100
AcDbEntity
  8
0
100
AcDbLine
 10
107.3742017879949
 20
81.90932311621967
 30
0.0
 11
107.3742017879949
 21
81.90932311621967
 31
25.4
  0
LINE
  5
61
330
41
100
AcDbEntity
  8
0
100
AcDbLine
 10
25.46487867177522
 20
81.90932311621967
 30
0.0
 11
25.46487867177522
 21
81.90932311621967
 31
25.4
  0
LINE
  5
62
330
41
100
AcDbEntity
  8
0
100
AcDbLine
 10
25.46487867177522
 20
107.8607918263091
 30
0.0
 11
25.46487867177522
 21
107.8607918263091
 31
25.4
  0
LINE
  5
63
330
41
100
AcDbEntity
  8
0
100
AcDbLine
 10
107.3742017879949
 20
107.8607918263091
 30
0.0
 11
107.3742017879949
 21
107.8607918263091
 31
25.4
  0
LINE
  5
64
330
41
100
AcDbEntity
  8
0
100
AcDbLine
 10
107.3742017879949
 20
189.7701149425287
 30
0.0
 11
107.3742017879949
 21
189.7701149425287
 31
25.4
  0
LINE
  5
65
330
41
100
AcDbEntity
  8
0
100
AcDbLine
 10
134.2988505747126
 20
189.7701149425287
 30
0.0
 11
134.2988505747126
 21
189.7701149425287
 31
25.4
  0
LINE
  5
66
330
41
100
AcDbEntity
  8
0
100
AcDbLine
 10
134.2988505747126
 20
107.8607918263091
 30
0.0
 11
134.2988505747126
 21
107.8607918263091
 31
25.4
  0
LINE
  5
67
330
41
100
AcDbEntity
  8
0
100
AcDbLine
 10
216.2081736909323
 20
107.8607918263091
 30
0.0
 11
216.2081736909323
 21
107.8607918263091
 31
25.4
  0
POLYLINE
  5
68
330
41
100
AcDbEntity
  8
0
100
AcDbPolyFaceMesh
 66
     1
 10
0.0
 20
0.0
 30
0.0
 70
    64
 71
    12
 72
    10
  0
VERTEX
  5
69
330
68
100
AcDbEntity
  8
0
100
AcDbVertex
100
AcDbPolyFaceMeshVertex
 10
216.2081736909323
 20
107.8607918263091
 30
0.0
 70
   192
  0
VERTEX
  5
6A
330
68
100
AcDbEntity
  8
0
100
AcDbVertex
100
AcDbPolyFaceMeshVertex
 10
134.2988505747126
 20
81.90932311621967
 30
0.0
 70
   192
  0
VERTEX
  5
6B
330
68
100
AcDbEntity
  8
0
100
AcDbVertex
100
AcDbPolyFaceMeshVertex
 10
134.2988505747126
 20
107.8607918263091
 30
0.0
 70
   192
  0
VERTEX
  5
6C
330
68
100
AcDbEntity
  8
0
100
AcDbVertex
100
AcDbPolyFaceMeshVertex
 10
216.2081736909323
 20
81.90932311621967
 30
0.0
 70
   192
  0
VERTEX
  5
6D
330
68
100
AcDbEntity
  8
0
100
AcDbVertex
100
AcDbPolyFaceMeshVertex
 10
134.2988505747126
 20
189.7701149425287
 30
0.0
 70
   192
  0
VERTEX
  5
6E
330
68
100
AcDbEntity
  8
0
100
AcDbVertex
100
AcDbPolyFaceMeshVertex
 10
107.3742017879949
 20
107.8607918263091
 30
0.0
 70
   192
  0
VERTEX
  5
6F
330
68
100
AcDbEntity
  8
0
100
AcDbVertex
100
AcDbPolyFaceMeshVertex
 10
107.3742017879949
 20
189.7701149425287
 30
0.0
 70
   192
  0
VERTEX
  5
70
330
68
100
AcDbEntity
  8
0
100
AcDbVertex
100
AcDbPolyFaceMeshVertex
 10
107.3742017879949
 20
81.90932311621967
 30
0.0
 70
   192
  0
VERTEX
  5
71
330
68
100
AcDbEntity
  8
0
100
AcDbVertex
100
AcDbPolyFaceMeshVertex
 10
107.3742017879949
 20
0.0
 30
0.0
 70
   192
  0
VERTEX
  5
72
330
68
100
AcDbEntity
  8
0
100
AcDbVertex
100
AcDbPolyFaceMeshVertex
 10
134.2988505747126
 20
0.0
 30
0.0
 70
   192
  0
VERTEX
  5
73
330
68
100
AcDbEntity
  8
0
100
AcDbVertex
100
AcDbPolyFaceMeshVertex
 10
25.46487867177522
 20
81.90932311621967
 30
0.0
 70
   192
  0
VERTEX
  5
74
330
68
100
AcDbEntity
  8
0
100
AcDbVertex
100
AcDbPolyFaceMeshVertex
 10
25.46487867177522
 20
107.8607918263091
 30
0.0
 70
   192
  0
VERTEX
  5
75
330
68
100
AcDbEntity
  8
0
100
AcDbFaceRecord
 10
0.0
 20
0.0
 30
0.0
 70
   128
 71
    -1
 72
    -2
 73
     3
  0
VERTEX
  5
76
330
68
100
AcDbEntity
  8
0
100
AcDbFaceRecord
 10
0.0
 20
0.0
 30
0.0
 70
   128
 71
    -2
 72
     1
 73
     4
  0
VERTEX
  5
77
330
68
100
AcDbEntity
  8
0
100
AcDbFaceRecord
 10
0.0
 20
0.0
 30
0.0
 70
   128
 71
    -5
 72
     6
 73
     7
  0
VERTEX
  5
78
330
68
100
AcDbEntity
  8
0
100
AcDbFaceRecord
 10
0.0
 20
0.0
 30
0.0
 70
   128
 71
    -6
 72
    -5
 73
    -8
  0
VERTEX
  5
79
330
68
100
AcDbEntity
  8
0
100
AcDbFaceRecord
 10
0.0
 20
0.0
 30
0.0
 70
   128
 71
    -8
 72
    -5
 73
     9
  0
VERTEX
  5
7A
330
68
100
AcDbEntity
  8
0
100
AcDbFaceRecord
 10
0.0
 20
0.0
 30
0.0
 70
   128
 71
    -9
 72
    -5
 73
    10
  0
VERTEX
  5
7B
330
68
100
AcDbEntity
  8
0
100
AcDbFaceRecord
 10
0.0
 20
0.0
 30
0.0
 70
   128
 71
   -10
 72
     5
 73
    -3
  0
VERTEX
  5
7C
330
68
100
AcDbEntity
  8
0
100
AcDbFaceRecord
 10
0.0
 20
0.0
 30
0.0
 70
   128
 71
   -10
 72
    -3
 73
     2
  0
VERTEX
  5
7D
330
68
100
AcDbEntity
  8
0
100
AcDbFaceRecord
 10
0.0
 20
0.0
 30
0.0
 70
   128
 71
    -6
 72
    11
 73
    12
  0
VERTEX
  5
7E
330
68
100
AcDbEntity
  8
0
100
AcDbFaceRecord
 10
0.0
 20
0.0
 30
0.0
 70
   128
 71
   -11
 72
    -6
 73
     8
  0
SEQEND
  5
7F
330
68
100
AcDbEntity
  8
0
  0
POLYLINE
  5
80
330
41
100
AcDbEntity
  8
0
100
AcDbPolyFaceMesh
 66
     1
 10
0.0
 20
0.0
 30
0.0
 70
    64
 71
    12
 72
    10
  0
VERTEX
  5
81
330
80
100
AcDbEntity
  8
0
100
AcDbVertex
100
AcDbPolyFaceMeshVertex
 10
216.2081736909323
 20
81.90932311621967
 30
25.4
 70
   192
  0
VERTEX
  5
82
330
80
100
AcDbEntity
  8
0
100
AcDbVertex
100
AcDbPolyFaceMeshVertex
 10
134.2988505747126
 20
107.8607918263091
 30
25.4
 70
   192
  0
VERTEX
  5
83
330
80
100
AcDbEntity
  8
0
100
AcDbVertex
100
AcDbPolyFaceMeshVertex
 10
134.2988505747126
 20
81.90932311621967
 30
25.4
 70
   192
  0
VERTEX
  5
84
330
80
100
AcDbEntity
  8
0
100
AcDbVertex
100
AcDbPolyFaceMeshVertex
 10
216.2081736909323
 20
107.8607918263091
 30
25.4
 70
   192
  0
VERTEX
  5
85
330
80
100
AcDbEntity
  8
0
100
AcDbVertex
100
AcDbPolyFaceMeshVertex
 10
134.2988505747126
 20
0.0
 30
25.4
 70
   192
  0
VERTEX
  5
86
330
80
100
AcDbEntity
  8
0
100
AcDbVertex
100
AcDbPolyFaceMeshVertex
 10
107.3742017879949
 20
81.90932311621967
 30
25.4
 70
   192
  0
VERTEX
  5
87
330
80
100
AcDbEntity
  8
0
100
AcDbVertex
100
AcDbPolyFaceMeshVertex
 10
107.3742017879949
 20
0.0
 30
25.4
 70
   192
  0
VERTEX
  5
88
330
80
100
AcDbEntity
  8
0
100
AcDbVertex
100
AcDbPolyFaceMeshVertex
 10
107.3742017879949
 20
107.8607918263091
 30
25.4
 70
   192
  0
VERTEX
  5
89
330
80
100
AcDbEntity
  8
0
100
AcDbVertex
100
AcDbPolyFaceMeshVertex
 10
107.3742017879949
 20
189.7701149425287
 30
25.4
 70
   192
  0
VERTEX
  5
8A
330
80
100
AcDbEntity
  8
0
100
AcDbVertex
100
AcDbPolyFaceMeshVertex
 10
134.2988505747126
 20
189.7701149425287
 30
25.4
 70
   192
  0
VERTEX
  5
8B
330
80
100
AcDbEntity
  8
0
100
AcDbVertex
100
AcDbPolyFaceMeshVertex
 10
25.46487867177522
 20
107.8607918263091
 30
25.4
 70
   192
  0
VERTEX
  5
8C
330
80
100
AcDbEntity
  8
0
100
AcDbVertex
100
AcDbPolyFaceMeshVertex
 10
25.46487867177522
 20
81.90932311621967
 30
25.4
 70
   192
  0
VERTEX
  5
8D
330
80
100
AcDbEntity
  8
0
100
AcDbFaceRecord
 10
0.0
 20
0.0
 30
0.0
 70
   128
 71
    -1
 72
    -2
 73
     3
  0
VERTEX
  5
8E
330
80
100
AcDbEntity
  8
0
100
AcDbFaceRecord
 10
0.0
 20
0.0
 30
0.0
 70
   128
 71
    -2
 72
     1
 73
     4
  0
VERTEX
  5
8F
330
80
100
AcDbEntity
  8
0
100
AcDbFaceRecord
 10
0.0
 20
0.0
 30
0.0
 70
   128
 71
    -5
 72
     6
 73
     7
  0
VERTEX
  5
90
330
80
100
AcDbEntity
  8
0
100
AcDbFaceRecord
 10
0.0
 20
0.0
 30
0.0
 70
   128
 71
    -6
 72
    -5
 73
    -8
  0
VERTEX
  5
91
330
80
100
AcDbEntity
  8
0
100
AcDbFaceRecord
 10
0.0
 20
0.0
 30
0.0
 70
   128
 71
    -8
 72
    -5
 73
     9
  0
VERTEX
  5
92
330
80
100
AcDbEntity
  8
0
100
AcDbFaceRecord
 10
0.0
 20
0.0
 30
0.0
 70
   128
 71
    -9
 72
    -5
 73
    10
  0
VERTEX
  5
93
330
80
100
AcDbEntity
  8
0
100
AcDbFaceRecord
 10
0.0
 20
0.0
 30
0.0
 70
   128
 71
   -10
 72
     5
 73
    -3
  0
VERTEX
  5
94
330
80
100
AcDbEntity
  8
0
100
AcDbFaceRecord
 10
0.0
 20
0.0
 30
0.0
 70
   128
 71
   -10
 72
    -3
 73
     2
  0
VERTEX
  5
95
330
80
100
AcDbEntity
  8
0
100
AcDbFaceRecord
 10
0.0
 20
0.0
 30
0.0
 70
   128
 71
    -6
 72
    11
 73
    12
  0
VERTEX
  5
96
330
80
100
AcDbEntity
  8
0
100
AcDbFaceRecord
 10
0.0
 20
0.0
 30
0.0
 70
   128
 71
   -11
 72
    -6
 73
     8
  0
SEQEND
  5
97
330
80
100
AcDbEntity
  8
0
  0
POLYLINE
  5
98
330
41
100
AcDbEntity
  8
0
100
AcDbPolyFaceMesh
 66
     1
 10
0.0
 20
0.0
 30
0.0
 70
    64
 71
     4
 72
     2
  0
VERTEX
  5
99
330
98
100
AcDbEntity
  8
0
100
AcDbVertex
100
AcDbPolyFaceMeshVertex
 10
216.2081736909323
 20
81.90932311621967
 30
25.4
 70
   192
  0
VERTEX
  5
9A
330
98
100
AcDbEntity
  8
0
100
AcDbVertex
100
AcDbPolyFaceMeshVertex
 10
134.2988505747126
 20
81.90932311621967
 30
0.0
 70
   192
  0
VERTEX
  5
9B
330
98
100
AcDbEntity
  8
0
100
AcDbVertex
100
AcDbPolyFaceMeshVertex
 10
216.2081736909323
 20
81.90932311621967
 30
0.0
 70
   192
  0
VERTEX
  5
9C
330
98
100
AcDbEntity
  8
0
100
AcDbVertex
100
AcDbPolyFaceMeshVertex
 10
134.2988505747126
 20
81.90932311621967
 30
25.4
 70
   192
  0
VERTEX
  5
9D
330
98
100
AcDbEntity
  8
0
100
AcDbFaceRecord
 10
0.0
 20
0.0
 30
0.0
 70
   128
 71
    -1
 72
     2
 73
     3
  0
VERTEX
  5
9E
330
98
100
AcDbEntity
  8
0
100
AcDbFaceRecord
 10
0.0
 20
0.0
 30
0.0
 70
   128
 71
    -2
 72
     1
 73
     4
  0
SEQEND
  5
9F
330
98
100
AcDbEntity
  8
0
  0
POLYLINE
  5
A0
330
41
100
AcDbEntity
  8
0
100
AcDbPolyFaceMesh
 66
     1
 10
0.0
 20
0.0
 30
0.0
 70
    64
 71
     4
 72
     2
  0
VERTEX
  5
A1
330
A0
100
AcDbEntity
  8
0
100
AcDbVertex
100
AcDbPolyFaceMeshVertex
 10
134.2988505747126
 20
81.90932311621967
 30
0.0
 70
   192
  0
VERTEX
  5
A2
330
A0
100
AcDbEntity
  8
0
100
AcDbVertex
100
AcDbPolyFaceMeshVertex
 10
134.2988505747126
 20
0.0
 30
25.4
 70
   192
  0
VERTEX
  5
A3
330
A0
100
AcDbEntity
  8
0
100
AcDbVertex
100
AcDbPolyFaceMeshVertex
 10
134.2988505747126
 20
0.0
 30
0.0
 70
   192
  0
VERTEX
  5
A4
330
A0
100
AcDbEntity
  8
0
100
AcDbVertex
100
AcDbPolyFaceMeshVertex
 10
134.2988505747126
 20
81.90932311621967
 30
25.4
 70
   192
  0
VERTEX
  5
A5
330
A0
100
AcDbEntity
  8
0
100
AcDbFaceRecord
 10
0.0
 20
0.0
 30
0.0
 70
   128
 71
    -1
 72
     2
 73
     3
  0
VERTEX
  5
A6
330
A0
100
AcDbEntity
  8
0
100
AcDbFaceRecord
 10
0.0
 20
0.0
 30
0.0
 70
   128
 71
    -2
 72
     1
 73
     4
  0
SEQEND
  5
A7
330
A0
100
AcDbEntity
  8
0
  0
POLYLINE
  5
A8
330
41
100
AcDbEntity
  8
0
100
AcDbPolyFaceMesh
 66
     1
 10
0.0
 20
0.0
 30
0.0
 70
    64
 71
     4
 72
     2
  0
VERTEX
  5
A9
330
A8
100
AcDbEntity
  8
0
100
AcDbVertex
100
AcDbPolyFaceMeshVertex
 10
134.2988505747126
 20
0.0
 30
25.4
 70
   192
  0
VERTEX
  5
AA
330
A8
100
AcDbEntity
  8
0
100
AcDbVertex
100
AcDbPolyFaceMeshVertex
 10
107.3742017879949
 20
0.0
 30
0.0
 70
   192
  0
VERTEX
  5
AB
330
A8
100
AcDbEntity
  8
0
100
AcDbVertex
100
AcDbPolyFaceMeshVertex
 10
134.2988505747126
 20
0.0
 30
0.0
 70
   192
  0
VERTEX
  5
AC
330
A8
100
AcDbEntity
  8
0
100
AcDbVertex
100
AcDbPolyFaceMeshVertex
 10
107.3742017879949
 20
0.0
 30
25.4
 70
   192
  0
VERTEX
  5
AD
330
A8
100
AcDbEntity
  8
0
100
AcDbFaceRecord
 10
0.0
 20
0.0
 30
0.0
 70
   128
 71
    -1
 72
     2
 73
     3
  0
VERTEX
  5
AE
330
A8
100
AcDbEntity
  8
0
100
AcDbFaceRecord
 10
0.0
 20
0.0
 30
0.0
 70
   128
 71
    -2
 72
     1
 73
     4
  0
SEQEND
  5
AF
330
A8
100
AcDbEntity
  8
0
  0
POLYLINE
  5
B0
330
41
100
AcDbEntity
  8
0
100
AcDbPolyFaceMesh
 66
     1
 10
0.0
 20
0.0
 30
0.0
 70
    64
 71
     4
 72
     2
  0
VERTEX
  5
B1
330
B0
100
AcDbEntity
  8
0
100
AcDbVertex
100
AcDbPolyFaceMeshVertex
 10
107.3742017879949
 20
81.90932311621967
 30
25.4
 70
   192
  0
VERTEX
  5
B2
330
B0
100
AcDbEntity
  8
0
100
AcDbVertex
100
AcDbPolyFaceMeshVertex
 10
107.3742017879949
 20
0.0
 30
0.0
 70
   192
  0
VERTEX
  5
B3
330
B0
100
AcDbEntity
  8
0
100
AcDbVertex
100
AcDbPolyFaceMeshVertex
 10
107.3742017879949
 20
0.0
 30
25.4
 70
   192
  0
VERTEX
  5
B4
330
B0
100
AcDbEntity
  8
0
100
AcDbVertex
100
AcDbPolyFaceMeshVertex
 10
107.3742017879949
 20
81.90932311621967
 30
0.0
 70
   192
  0
VERTEX
  5
B5
330
B0
100
AcDbEntity
  8
0
100
AcDbFaceRecord
 10
0.0
 20
0.0
 30
0.0
 70
   128
 71
    -1
 72
     2
 73
     3
  0
VERTEX
  5
B6
330
B0
100
AcDbEntity
  8
0
100
AcDbFaceRecord
 10
0.0
 20
0.0
 30
0.0
 70
   128
 71
    -2
 72
     1
 73
     4
  0
SEQEND
  5
B7
330
B0
100
AcDbEntity
  8
0
  0
POLYLINE
  5
B8
330
41
100
AcDbEntity
  8
0
100
AcDbPolyFaceMesh
 66
     1
 10
0.0
 20
0.0
 30
0.0
 70
    64
 71
     4
 72
     2
  0
VERTEX
  5
B9
330
B8
100
AcDbEntity
  8
0
100
AcDbVertex
100
AcDbPolyFaceMeshVertex
 10
107.3742017879949
 20
81.90932311621967
 30
25.4
 70
   192
  0
VERTEX
  5
BA
330
B8
100
AcDbEntity
  8
0
100
AcDbVertex
100
AcDbPolyFaceMeshVertex
 10
25.46487867177522
 20
81.90932311621967
 30
0.0
 70
   192
  0
VERTEX
  5
BB
330
B8
100
AcDbEntity
  8
0
100
AcDbVertex
100
AcDbPolyFaceMeshVertex
 10
107.3742017879949
 20
81.90932311621967
 30
0.0
 70
   192
  0
VERTEX
  5
BC
330
B8
100
AcDbEntity
  8
0
100
AcDbVertex
100
AcDbPolyFaceMeshVertex
 10
25.46487867177522
 20
81.90932311621967
 30
25.4
 70
   192
  0
VERTEX
  5
BD
330
B8
100
AcDbEntity
  8
0
100
AcDbFaceRecord
 10
0.0
 20
0.0
 30
0.0
 70
   128
 71
    -1
 72
     2
 73
     3
  0
VERTEX
  5
BE
330
B8
100
AcDbEntity
  8
0
100
AcDbFaceRecord
 10
0.0
 20
0.0
 30
0.0
 70
   128
 71
    -2
 72
     1
 73
     4
  0
SEQEND
  5
BF
330
B8
100
AcDbEntity
  8
0
  0
POLYLINE
  5
C0
330
41
100
AcDbEntity
  8
0
100
AcDbPolyFaceMesh
 66
     1
 10
0.0
 20
0.0
 30
0.0
 70
    64
 71
     4
 72
     2
  0
VERTEX
  5
C1
330
C0
100
AcDbEntity
  8
0
100
AcDbVertex
100
AcDbPolyFaceMeshVertex
 10
25.46487867177522
 20
107.8607918263091
 30
25.4
 70
   192
  0
VERTEX
  5
C2
330
C0
100
AcDbEntity
  8
0
100
AcDbVertex
100
AcDbPolyFaceMeshVertex
 10
25.46487867177522
 20
81.90932311621967
 30
0.0
 70
   192
  0
VERTEX
  5
C3
330
C0
100
AcDbEntity
  8
0
100
AcDbVertex
100
AcDbPolyFaceMeshVertex
 10
25.46487867177522
 20
81.90932311621967
 30
25.4
 70
   192
  0
VERTEX
  5
C4
330
C0
100
AcDbEntity
  8
0
100
AcDbVertex
100
AcDbPolyFaceMeshVertex
 10
25.46487867177522
 20
107.8607918263091
 30
0.0
 70
   192
  0
VERTEX
  5
C5
330
C0
100
AcDbEntity
  8
0
100
AcDbFaceRecord
 10
0.0
 20
0.0
 30
0.0
 70
   128
 71
    -1
 72
     2
 73
     3
  0
VERTEX
  5
C6
330
C0
100
AcDbEntity
  8
0
100
AcDbFaceRecord
 10
0.0
 20
0.0
 30
0.0
 70
   128
 71
    -2
 72
     1
 73
     4
  0
SEQEND
  5
C7
330
C0
100
AcDbEntity
  8
0
  0
POLYLINE
  5
C8
330
41
100
AcDbEntity
  8
0
100
AcDbPolyFaceMesh
 66
     1
 10
0.0
 20
0.0
 30
0.0
 70
    64
 71
     4
 72
     2
  0
VERTEX
  5
C9
330
C8
100
AcDbEntity
  8
0
100
AcDbVertex
100
AcDbPolyFaceMeshVertex
 10
25.46487867177522
 20
107.8607918263091
 30
25.4
 70
   192
  0
VERTEX
  5
CA
330
C8
100
AcDbEntity
  8
0
100
AcDbVertex
100
AcDbPolyFaceMeshVertex
 10
107.3742017879949
 20
107.8607918263091
 30
0.0
 70
   192
  0
VERTEX
  5
CB
330
C8
100
AcDbEntity
  8
0
100
AcDbVertex
100
AcDbPolyFaceMeshVertex
 10
25.46487867177522
 20
107.8607918263091
 30
0.0
 70
   192
  0
VERTEX
  5
CC
330
C8
100
AcDbEntity
  8
0
100
AcDbVertex
100
AcDbPolyFaceMeshVertex
 10
107.3742017879949
 20
107.8607918263091
 30
25.4
 70
   192
  0
VERTEX
  5
CD
330
C8
100
AcDbEntity
  8
0
100
AcDbFaceRecord
 10
0.0
 20
0.0
 30
0.0
 70
   128
 71
    -1
 72
     2
 73
     3
  0
VERTEX
  5
CE
330
C8
100
AcDbEntity
  8
0
100
AcDbFaceRecord
 10
0.0
 20
0.0
 30
0.0
 70
   128
 71
    -2
 72
     1
 73
     4
  0
SEQEND
  5
CF
330
C8
100
AcDbEntity
  8
0
  0
POLYLINE
  5
D0
330
41
100
AcDbEntity
  8
0
100
AcDbPolyFaceMesh
 66
     1
 10
0.0
 20
0.0
 30
0.0
 70
    64
 71
     4
 72
     2
  0
VERTEX
  5
D1
330
D0
100
AcDbEntity
  8
0
100
AcDbVertex
100
AcDbPolyFaceMeshVertex
 10
107.3742017879949
 20
189.7701149425287
 30
25.4
 70
   192
  0
VERTEX
  5
D2
330
D0
100
AcDbEntity
  8
0
100
AcDbVertex
100
AcDbPolyFaceMeshVertex
 10
107.3742017879949
 20
107.8607918263091
 30
0.0
 70
   192
  0
VERTEX
  5
D3
330
D0
100
AcDbEntity
  8
0
100
AcDbVertex
100
AcDbPolyFaceMeshVertex
 10
107.3742017879949
 20
107.8607918263091
 30
25.4
 70
   192
  0
VERTEX
  5
D4
330
D0
100
AcDbEntity
  8
0
100
AcDbVertex
100
AcDbPolyFaceMeshVertex
 10
107.3742017879949
 20
189.7701149425287
 30
0.0
 70
   192
  0
VERTEX
  5
D5
330
D0
100
AcDbEntity
  8
0
100
AcDbFaceRecord
 10
0.0
 20
0.0
 30
0.0
 70
   128
 71
    -1
 72
     2
 73
     3
  0
VERTEX
  5
D6
330
D0
100
AcDbEntity
  8
0
100
AcDbFaceRecord
 10
0.0
 20
0.0
 30
0.0
 70
   128
 71
    -2
 72
     1
 73
     4
  0
SEQEND
  5
D7
330
D0
100
AcDbEntity
  8
0
  0
POLYLINE
  5
D8
330
41
100
AcDbEntity
  8
0
100
AcDbPolyFaceMesh
 66
     1
 10
0.0
 20
0.0
 30
0.0
 70
    64
 71
     4
 72
     2
  0
VERTEX
  5
D9
330
D8
100
AcDbEntity
  8
0
100
AcDbVertex
100
AcDbPolyFaceMeshVertex
 10
107.3742017879949
 20
189.7701149425287
 30
25.4
 70
   192
  0
VERTEX
  5
DA
330
D8
100
AcDbEntity
  8
0
100
AcDbVertex
100
AcDbPolyFaceMeshVertex
 10
134.2988505747126
 20
189.7701149425287
 30
0.0
 70
   192
  0
VERTEX
  5
DB
330
D8
100
AcDbEntity
  8
0
100
AcDbVertex
100
AcDbPolyFaceMeshVertex
 10
107.3742017879949
 20
189.7701149425287
 30
0.0
 70
   192
  0
VERTEX
  5
DC
330
D8
100
AcDbEntity
  8
0
100
AcDbVertex
100
AcDbPolyFaceMeshVertex
 10
134.2988505747126
 20
189.7701149425287
 30
25.4
 70
   192
  0
VERTEX
  5
DD
330
D8
100
AcDbEntity
  8
0
100
AcDbFaceRecord
 10
0.0
 20
0.0
 30
0.0
 70
   128
 71
    -1
 72
     2
 73
     3
  0
VERTEX
  5
DE
330
D8
100
AcDbEntity
  8
0
100
AcDbFaceRecord
 10
0.0
 20
0.0
 30
0.0
 70
   128
 71
    -2
 72
     1
 73
     4
  0
SEQEND
  5
DF
330
D8
100
AcDbEntity
  8
0
  0
POLYLINE
  5
E0
330
41
100
AcDbEntity
  8
0
100
AcDbPolyFaceMesh
 66
     1
 10
0.0
 20
0.0
 30
0.0
 70
    64
 71
     4
 72
     2
  0
VERTEX
  5
E1
330
E0
100
AcDbEntity
  8
0
100
AcDbVertex
100
AcDbPolyFaceMeshVertex
 10
134.2988505747126
 20
189.7701149425287
 30
0.0
 70
   192
  0
VERTEX
  5
E2
330
E0
100
AcDbEntity
  8
0
100
AcDbVertex
100
AcDbPolyFaceMeshVertex
 10
134.2988505747126
 20
107.8607918263091
 30
25.4
 70
   192
  0
VERTEX
  5
E3
330
E0
100
AcDbEntity
  8
0
100
AcDbVertex
100
AcDbPolyFaceMeshVertex
 10
134.2988505747126
 20
107.8607918263091
 30
0.0
 70
   192
  0
VERTEX
  5
E4
330
E0
100
AcDbEntity
  8
0
100
AcDbVertex
100
AcDbPolyFaceMeshVertex
 10
134.2988505747126
 20
189.7701149425287
 30
25.4
 70
   192
  0
VERTEX
  5
E5
330
E0
100
AcDbEntity
  8
0
100
AcDbFaceRecord
 10
0.0
 20
0.0
 30
0.0
 70
   128
 71
    -1
 72
     2
 73
     3
  0
VERTEX
  5
E6
330
E0
100
AcDbEntity
  8
0
100
AcDbFaceRecord
 10
0.0
 20
0.0
 30
0.0
 70
   128
 71
    -2
 72
     1
 73
     4
  0
SEQEND
  5
E7
330
E0
100
AcDbEntity
  8
0
  0
POLYLINE
  5
E8
330
41
100
AcDbEntity
  8
0
100
AcDbPolyFaceMesh
 66
     1
 10
0.0
 20
0.0
 30
0.0
 70
    64
 71
     4
 72
     2
  0
VERTEX
  5
E9
330
E8
100
AcDbEntity
  8
0
100
AcDbVertex
100
AcDbPolyFaceMeshVertex
 10
134.2988505747126
 20
107.8607918263091
 30
25.4
 70
   192
  0
VERTEX
  5
EA
330
E8
100
AcDbEntity
  8
0
100
AcDbVertex
100
AcDbPolyFaceMeshVertex
 10
216.2081736909323
 20
107.8607918263091
 30
0.0
 70
   192
  0
VERTEX
  5
EB
330
E8
100
AcDbEntity
  8
0
100
AcDbVertex
100
AcDbPolyFaceMeshVertex
 10
134.2988505747126
 20
107.8607918263091
 30
0.0
 70
   192
  0
VERTEX
  5
EC
330
E8
100
AcDbEntity
  8
0
100
AcDbVertex
100
AcDbPolyFaceMeshVertex
 10
216.2081736909323
 20
107.8607918263091
 30
25.4
 70
   192
  0
VERTEX
  5
ED
330
E8
100
AcDbEntity
  8
0
100
AcDbFaceRecord
 10
0.0
 20
0.0
 30
0.0
 70
   128
 71
    -1
 72
     2
 73
     3
  0
VERTEX
  5
EE
330
E8
100
AcDbEntity
  8
0
100
AcDbFaceRecord
 10
0.0
 20
0.0
 30
0.0
 70
   128
 71
    -2
 72
     1
 73
     4
  0
SEQEND
  5
EF
330
E8
100
AcDbEntity
  8
0
  0
POLYLINE
  5
F0
330
41
100
AcDbEntity
  8
0
100
AcDbPolyFaceMesh
 66
     1
 10
0.0
 20
0.0
 30
0.0
 70
    64
 71
     4
 72
     2
  0
VERTEX
  5
F1
330
F0
100
AcDbEntity
  8
0
100
AcDbVertex
100
AcDbPolyFaceMeshVertex
 10
216.2081736909323
 20
107.8607918263091
 30
0.0
 70
   192
  0
VERTEX
  5
F2
330
F0
100
AcDbEntity
  8
0
100
AcDbVertex
100
AcDbPolyFaceMeshVertex
 10
216.2081736909323
 20
81.90932311621967
 30
25.4
 70
   192
  0
VERTEX
  5
F3
330
F0
100
AcDbEntity
  8
0
100
AcDbVertex
100
AcDbPolyFaceMeshVertex
 10
216.2081736909323
 20
81.90932311621967
 30
0.0
 70
   192
  0
VERTEX
  5
F4
330
F0
100
AcDbEntity
  8
0
100
AcDbVertex
100
AcDbPolyFaceMeshVertex
 10
216.2081736909323
 20
107.8607918263091
 30
25.4
 70
   192
  0
VERTEX
  5
F5
330
F0
100
AcDbEntity
  8
0
100
AcDbFaceRecord
 10
0.0
 20
0.0
 30
0.0
 70
   128
 71
    -1
 72
     2
 73
     3
  0
VERTEX
  5
F6
330
F0
100
AcDbEntity
  8
0
100
AcDbFaceRecord
 10
0.0
 20
0.0
 30
0.0
 70
   128
 71
    -2
 72
     1
 73
     4
  0
SEQEND
  5
F7
330
F0
100
AcDbEntity
  8
0
  0
ENDBLK
  5
43
330
41
100
AcDbEntity
  8
0
100
AcDbBlockEnd
  0
ENDSEC
  0
SECTION
  2
ENTITIES
  0
CIRCLE
  5
F8
330
1F
100
AcDbEntity
  8
0
100
AcDbCircle
 10
0.000000000000004
 20
0.0000000000000048
 30
-10.0
 40
2.5
210
1.0
220
3.525106725096309E-16
230
4.802041492917532E-16
  0
LINE
  5
F9
330
1F
100
AcDbEntity
  8
0
100
AcDbLine
 10
-10.0
 20
0.1092106884940579
 30
2.497613465994819
 11
0.0000000000000004
 21
0.1092106884940577
 31
2.49761346599482
  0
LINE
  5
FA
330
1F
100
AcDbEntity
  8
0
100
AcDbLine
 10
-10.0
 20
0.7519193568271972
 30
2.384243544780729
 11
0.0
 21
0.7519193568271968
 31
2.384243544780728
  0
LINE
  5
FB
330
1F
100
AcDbEntity
  8
0
100
AcDbLine
 10
-10.0
 20
-0.1092106884940583
 30
-2.497613465994819
 11
0.0
 21
-0.1092106884940586
 31
-2.49761346599482
  0
LINE
  5
FC
330
1F
100
AcDbEntity
  8
0
100
AcDbLine
 10
-10.0
 20
-2.384243544780728
 30
0.7519193568271981
 11
0.0000000000000004
 21
-2.384243544780728
 31
0.7519193568271975
  0
LINE
  5
FD
330
1F
100
AcDbEntity
  8
0
100
AcDbLine
 10
-10.0
 20
-2.108391366138585
 30
1.343385963598053
 11
0.0
 21
-2.108391366138585
 31
1.343385963598053
  0
LINE
  5
FE
330
1F
100
AcDbEntity
  8
0
100
AcDbLine
 10
-10.0
 20
-0.540940507780755
 30
2.440775157002771
 11
0.0
 21
-0.5409405077807554
 31
2.440775157002771
  0
LINE
  5
FF
330
1F
100
AcDbEntity
  8
0
100
AcDbLine
 10
-10.0
 20
-1.843303036999973
 30
-1.688855800175573
 11
0.0
 21
-1.843303036999973
 31
-1.688855800175573
  0
CIRCLE
  5
100
330
1F
100
AcDbEntity
  8
0
100
AcDbCircle
 10
0.0000000000000449
 20
1.5
 30
-30.0
 40
0.4999999999999997
210
1.0
220
1.467576060676378E-15
230
5.173144127121326E-31
  0
CIRCLE
  5
101
330
1F
100
AcDbEntity
  8
0
100
AcDbCircle
 10
0.0
 20
1.5
 30
-10.0
 40
0.4999999999999996
210
1.0
220
-1.214306433183765E-17
230
-1.214306433183767E-17
  0
LINE
  5
102
330
1F
100
AcDbEntity
  8
0
100
AcDbLine
 10
-30.0
 20
0.0000000000000007
 30
2.0
 11
-10.0
 21
0.0000000000000004
 31
2.0
  0
LINE
  5
103
330
1F
100
AcDbEntity
  8
0
100
AcDbLine
 10
-30.0
 20
-0.4330127018922182
 30
1.750000000000001
 11
-10.0
 21
-0.4330127018922189
 31
1.75
  0
LINE
  5
104
330
1F
100
AcDbEntity
  8
0
100
AcDbLine
 10
-30.00000000000001
 20
0.1294095225512619
 30
1.982962913144533
 11
-10.0
 21
0.1294095225512603
 31
1.982962913144534
  0
LINE
  5
105
330
1F
100
AcDbEntity
  8
0
100
AcDbLine
 10
-30.00000000000001
 20
-0.482962913144532
 30
1.62940952255126
 11
-10.0
 21
-0.4829629131445338
 31
1.629409522551261
  0
LINE
  5
106
330
1F
100
AcDbEntity
  8
0
100
AcDbLine
 10
-30.0
 20
-0.3535533905932729
 30
1.853553390593275
 11
-10.0
 21
-0.3535533905932735
 31
1.853553390593274
  0
LINE
  5
107
330
1F
100
AcDbEntity
  8
0
100
AcDbLine
 10
-30.00000000000001
 20
-0.1294095225512589
 30
1.982962913144533
 11
-9.999999999999998
 21
-0.1294095225512601
 31
1.982962913144535
  0
LINE
  5
108
330
1F
100
AcDbEntity
  8
0
100
AcDbLine
 10
-30.00000000000001
 20
0.4829629131445352
 30
1.370590477448739
 11
-10.0
 21
0.4829629131445339
 31
1.370590477448739
  0
LINE
  5
109
330
1F
100
AcDbEntity
  8
0
100
AcDbLine
 10
-30.0
 20
-0.3535533905932736
 30
1.146446609406727
 11
-10.0
 21
-0.3535533905932737
 31
1.146446609406727
  0
LINE
  5
10A
330
1F
100
AcDbEntity
  8
0
100
AcDbLine
 10
-30.0
 20
0.2500000000000008
 30
1.066987298107781
 11
-10.0
 21
0.25
 31
1.066987298107781
  0
LINE
  5
10B
330
1F
100
AcDbEntity
  8
0
100
AcDbLine
 10
-30.0
 20
-0.2499999999999992
 30
1.066987298107783
 11
-10.0
 21
-0.2499999999999999
 31
1.066987298107781
  0
LINE
  5
10C
330
1F
100
AcDbEntity
  8
0
100
AcDbLine
 10
-30.00000000000001
 20
0.4330127018922197
 30
1.25
 11
-10.0
 21
0.4330127018922192
 31
1.25
  0
LINE
  5
10D
330
1F
100
AcDbEntity
  8
0
100
AcDbLine
 10
-30.00000000000001
 20
0.3535533905932745
 30
1.146446609406727
 11
-10.0
 21
0.3535533905932735
 31
1.146446609406727
  0
LINE
  5
10E
330
1F
100
AcDbEntity
  8
0
100
AcDbLine
 10
-30.00000000000001
 20
0.5000000000000007
 30
1.500000000000002
 11
-10.0
 21
0.4999999999999999
 31
1.5
  0
LINE
  5
10F
330
1F
100
AcDbEntity
  8
0
100
AcDbLine
 10
-10.0
 20
-2.497613465994819
 30
0.1092106884940588
 11
0.0
 21
-2.497613465994819
 31
0.1092106884940584
  0
LINE
  5
110
330
1F
100
AcDbEntity
  8
0
100
AcDbLine
 10
-10.0
 20
1.688855800175572
 30
-1.843303036999974
 11
0.0
 21
1.688855800175572
 31
-1.843303036999974
  0
LINE
  5
111
330
1F
100
AcDbEntity
  8
0
100
AcDbLine
 10
-10.0
 20
1.154227502396766
 30
-2.217602054632644
 11
0.0
 21
1.154227502396765
 31
-2.217602054632644
  0
LINE
  5
112
330
1F
100
AcDbEntity
  8
0
100
AcDbLine
 10
-9.999999999999998
 20
0.5409405077807546
 30
-2.44077515700277
 11
0.0
 21
0.5409405077807543
 31
-2.440775157002771
  0
LINE
  5
113
330
1F
100
AcDbEntity
  8
0
100
AcDbLine
 10
-10.0
 20
2.488065916296493
 30
0.0
 11
0.0
 21
2.488065916296493
 31
0.0
  0
LINE
  5
114
330
1F
100
AcDbEntity
  8
0
100
AcDbLine
 10
-10.0
 20
-2.488065916296494
 30
0.0000000000000004
 11
0.0000000000000004
 21
-2.488065916296494
 31
0.0000000000000001
  0
LINE
  5
115
330
1F
100
AcDbEntity
  8
0
100
AcDbLine
 10
-10.0
 20
1.843303036999975
 30
1.688855800175572
 11
0.0
 21
1.843303036999974
 31
1.688855800175572
  0
LINE
  5
116
330
1F
100
AcDbEntity
  8
0
100
AcDbLine
 10
-10.0
 20
2.217602054632644
 30
1.154227502396766
 11
0.0
 21
2.217602054632644
 31
1.154227502396766
  0
LINE
  5
117
330
1F
100
AcDbEntity
  8
0
100
AcDbLine
 10
-10.0
 20
1.343385963598052
 30
2.108391366138585
 11
0.0
 21
1.343385963598052
 31
2.108391366138586
  0
LINE
  5
118
330
1F
100
AcDbEntity
  8
0
100
AcDbLine
 10
-10.0
 20
2.44077515700277
 30
0.5409405077807554
 11
0.0
 21
2.440775157002771
 31
0.5409405077807549
  0
LINE
  5
119
330
1F
100
AcDbEntity
  8
0
100
AcDbLine
 10
-10.0
 20
-2.217602054632645
 30
-1.154227502396766
 11
0.0000000000000004
 21
-2.217602054632644
 31
-1.154227502396766
  0
LINE
  5
11A
330
1F
100
AcDbEntity
  8
0
100
AcDbLine
 10
-10.0
 20
-2.44077515700277
 30
-0.5409405077807554
 11
0.0000000000000004
 21
-2.440775157002771
 31
-0.5409405077807554
  0
LINE
  5
11B
330
1F
100
AcDbEntity
  8
0
100
AcDbLine
 10
-10.0
 20
-0.7519193568271978
 30
-2.384243544780728
 11
0.0000000000000004
 21
-0.751919356827198
 31
-2.384243544780729
  0
LINE
  5
11C
330
1F
100
AcDbEntity
  8
0
100
AcDbLine
 10
-10.0
 20
-1.343385963598053
 30
-2.108391366138586
 11
0.0
 21
-1.343385963598053
 31
-2.108391366138586
  0
LINE
  5
11D
330
1F
100
AcDbEntity
  8
0
100
AcDbLine
 10
-10.0
 20
-1.688855800175573
 30
1.843303036999974
 11
0.0
 21
-1.688855800175573
 31
1.843303036999974
  0
LINE
  5
11E
330
1F
100
AcDbEntity
  8
0
100
AcDbLine
 10
-10.0
 20
-1.154227502396766
 30
2.217602054632644
 11
0.0000000000000004
 21
-1.154227502396767
 31
2.217602054632644
  0
LINE
  5
11F
330
1F
100
AcDbEntity
  8
0
100
AcDbLine
 10
-10.0
 20
2.497613465994819
 30
-0.1092106884940592
 11
0.0
 21
2.497613465994818
 31
-0.1092106884940595
  0
LINE
  5
120
330
1F
100
AcDbEntity
  8
0
100
AcDbLine
 10
-10.0
 20
2.384243544780729
 30
-0.7519193568271981
 11
0.0
 21
2.384243544780728
 31
-0.7519193568271985
  0
LINE
  5
121
330
1F
100
AcDbEntity
  8
0
100
AcDbLine
 10
-10.0
 20
2.108391366138585
 30
-1.343385963598053
 11
0.0
 21
2.108391366138585
 31
-1.343385963598053
  0
CIRCLE
  5
122
330
1F
100
AcDbEntity
  8
0
100
AcDbCircle
 10
0.0
 20
0.0
 30
0.0
 40
2.5
210
1.0
220
1.258093769057051E-16
230
-1.466341945924339E-16
  0
LINE
  5
123
330
1F
100
AcDbEntity
  8
0
100
AcDbLine
 10
-30.00000000000001
 20
0.1294095225512614
 30
1.017037086855467
 11
-10.0
 21
0.1294095225512605
 31
1.017037086855466
  0
LINE
  5
124
330
1F
100
AcDbEntity
  8
0
100
AcDbLine
 10
-30.0
 20
-0.433012701892218
 30
1.25
 11
-10.0
 21
-0.4330127018922193
 31
1.25
  0
LINE
  5
125
330
1F
100
AcDbEntity
  8
0
100
AcDbLine
 10
-30.00000000000001
 20
-0.4999999999999991
 30
1.500000000000002
 11
-10.0
 21
-0.4999999999999993
 31
1.5
  0
LINE
  5
126
330
1F
100
AcDbEntity
  8
0
100
AcDbLine
 10
-30.00000000000001
 20
0.3535533905932753
 30
1.853553390593273
 11
-10.0
 21
0.3535533905932738
 31
1.853553390593274
  0
LINE
  5
127
330
1F
100
AcDbEntity
  8
0
100
AcDbLine
 10
-30.00000000000001
 20
0.4330127018922196
 30
1.750000000000001
 11
-10.0
 21
0.4330127018922193
 31
1.750000000000001
  0
LINE
  5
128
330
1F
100
AcDbEntity
  8
0
100
AcDbLine
 10
-30.0
 20
-0.1294095225512595
 30
1.017037086855467
 11
-10.0
 21
-0.1294095225512607
 31
1.017037086855467
  0
LINE
  5
129
330
1F
100
AcDbEntity
  8
0
100
AcDbLine
 10
-30.00000000000001
 20
-0.4829629131445329
 30
1.37059047744874
 11
-9.999999999999998
 21
-0.4829629131445341
 31
1.37059047744874
  0
LINE
  5
12A
330
1F
100
AcDbEntity
  8
0
100
AcDbLine
 10
-30.00000000000001
 20
0.2500000000000008
 30
1.93301270189222
 11
-9.999999999999998
 21
0.2500000000000001
 31
1.93301270189222
  0
LINE
  5
12B
330
1F
100
AcDbEntity
  8
0
100
AcDbLine
 10
-30.00000000000001
 20
0.0000000000000018
 30
0.9999999999999996
 11
-10.0
 21
0.0000000000000001
 31
1.000000000000001
  0
LINE
  5
12C
330
1F
100
AcDbEntity
  8
0
100
AcDbLine
 10
-30.0
 20
-0.249999999999999
 30
1.93301270189222
 11
-10.0
 21
-0.2499999999999994
 31
1.93301270189222
  0
LINE
  5
12D
330
1F
100
AcDbEntity
  8
0
100
AcDbLine
 10
-30.0
 20
0.4829629131445346
 30
1.629409522551261
 11
-10.0
 21
0.4829629131445342
 31
1.629409522551261
  0
CIRCLE
  5
12E
330
1F
100
AcDbEntity
  8
0
100
AcDbCircle
 10
-0.0000000000000226
 20
-1.500000000000041
 30
-25.0
 40
0.4999999999999997
210
1.0
220
-9.518426428655319E-16
230
-1.648639818253743E-15
  0
LINE
  5
12F
330
1F
100
AcDbEntity
  8
0
100
AcDbLine
 10
-25.0
 20
-0.4829629131445331
 30
-1.37059047744874
 11
-9.999999999999998
 21
-0.4829629131445339
 31
-1.37059047744874
  0
CIRCLE
  5
130
330
1F
100
AcDbEntity
  8
0
100
AcDbCircle
 10
0.0000000000000035
 20
-1.499999999999994
 30
-10.0
 40
0.4999999999999995
210
1.0
220
3.364028646863728E-16
230
5.826668534485141E-16
  0
LINE
  5
131
330
1F
100
AcDbEntity
  8
0
100
AcDbLine
 10
-25.0
 20
-0.4330127018922185
 30
-1.25
 11
-10.0
 21
-0.433012701892219
 31
-1.25
  0
LINE
  5
132
330
1F
100
AcDbEntity
  8
0
100
AcDbLine
 10
-25.00000000000001
 20
-0.3535533905932723
 30
-1.146446609406727
 11
-10.0
 21
-0.3535533905932736
 31
-1.146446609406726
  0
LINE
  5
133
330
1F
100
AcDbEntity
  8
0
100
AcDbLine
 10
-25.0
 20
-0.2499999999999986
 30
-1.066987298107781
 11
-10.0
 21
-0.2499999999999994
 31
-1.066987298107781
  0
LINE
  5
134
330
1F
100
AcDbEntity
  8
0
100
AcDbLine
 10
-25.0
 20
0.1294095225512612
 30
-1.982962913144535
 11
-10.0
 21
0.1294095225512604
 31
-1.982962913144534
  0
LINE
  5
135
330
1F
100
AcDbEntity
  8
0
100
AcDbLine
 10
-25.0
 20
0.0000000000000014
 30
-2.0
 11
-10.0
 21
-0.0000000000000001
 31
-2.0
  0
LINE
  5
136
330
1F
100
AcDbEntity
  8
0
100
AcDbLine
 10
-25.0
 20
0.2500000000000004
 30
-1.93301270189222
 11
-10.0
 21
0.2499999999999999
 31
-1.933012701892219
  0
LINE
  5
137
330
1F
100
AcDbEntity
  8
0
100
AcDbLine
 10
-25.0
 20
0.353553390593275
 30
-1.146446609406728
 11
-10.0
 21
0.353553390593274
 31
-1.146446609406726
  0
LINE
  5
138
330
1F
100
AcDbEntity
  8
0
100
AcDbLine
 10
-25.0
 20
0.43301270189222
 30
-1.25
 11
-10.0
 21
0.4330127018922193
 31
-1.25
  0
LINE
  5
139
330
1F
100
AcDbEntity
  8
0
100
AcDbLine
 10
-25.0
 20
0.4829629131445358
 30
-1.37059047744874
 11
-10.0
 21
0.4829629131445343
 31
-1.37059047744874
  0
LINE
  5
13A
330
1F
100
AcDbEntity
  8
0
100
AcDbLine
 10
-25.0
 20
0.5000000000000011
 30
-1.500000000000002
 11
-10.0
 21
0.5000000000000004
 31
-1.5
  0
LINE
  5
13B
330
1F
100
AcDbEntity
  8
0
100
AcDbLine
 10
-25.0
 20
-0.2499999999999988
 30
-1.93301270189222
 11
-10.0
 21
-0.2499999999999999
 31
-1.933012701892219
  0
LINE
  5
13C
330
1F
100
AcDbEntity
  8
0
100
AcDbLine
 10
-25.0
 20
-0.3535533905932725
 30
-1.853553390593275
 11
-10.0
 21
-0.3535533905932733
 31
-1.853553390593274
  0
LINE
  5
13D
330
1F
100
AcDbEntity
  8
0
100
AcDbLine
 10
-25.0
 20
-0.1294095225512586
 30
-1.017037086855466
 11
-9.999999999999998
 21
-0.1294095225512602
 31
-1.017037086855466
  0
LINE
  5
13E
330
1F
100
AcDbEntity
  8
0
100
AcDbLine
 10
-25.00000000000001
 20
0.0000000000000017
 30
-1.000000000000001
 11
-10.0
 21
0.0000000000000002
 31
-0.9999999999999998
  0
LINE
  5
13F
330
1F
100
AcDbEntity
  8
0
100
AcDbLine
 10
-25.0
 20
0.4330127018922196
 30
-1.750000000000002
 11
-10.0
 21
0.4330127018922192
 31
-1.75
  0
LINE
  5
140
330
1F
100
AcDbEntity
  8
0
100
AcDbLine
 10
-25.0
 20
0.3535533905932742
 30
-1.853553390593274
 11
-10.0
 21
0.3535533905932739
 31
-1.853553390593274
  0
LINE
  5
141
330
1F
100
AcDbEntity
  8
0
100
AcDbLine
 10
-25.0
 20
-0.1294095225512589
 30
-1.982962913144535
 11
-10.0
 21
-0.1294095225512605
 31
-1.982962913144534
  0
LINE
  5
142
330
1F
100
AcDbEntity
  8
0
100
AcDbLine
 10
-25.0
 20
0.1294095225512622
 30
-1.017037086855466
 11
-10.0
 21
0.1294095225512606
 31
-1.017037086855466
  0
LINE
  5
143
330
1F
100
AcDbEntity
  8
0
100
AcDbLine
 10
-25.0
 20
0.2500000000000012
 30
-1.066987298107782
 11
-9.999999999999998
 21
0.25
 31
-1.066987298107781
  0
LINE
  5
144
330
1F
100
AcDbEntity
  8
0
100
AcDbLine
 10
-25.0
 20
0.4829629131445349
 30
-1.629409522551261
 11
-10.0
 21
0.4829629131445343
 31
-1.629409522551261
  0
LINE
  5
145
330
1F
100
AcDbEntity
  8
0
100
AcDbLine
 10
-25.0
 20
-0.4330127018922182
 30
-1.750000000000001
 11
-10.0
 21
-0.4330127018922191
 31
-1.75
  0
LINE
  5
146
330
1F
100
AcDbEntity
  8
0
100
AcDbLine
 10
-25.0
 20
-0.4829629131445326
 30
-1.629409522551261
 11
-10.0
 21
-0.4829629131445341
 31
-1.62940952255126
  0
LINE
  5
147
330
1F
100
AcDbEntity
  8
0
100
AcDbLine
 10
-25.0
 20
-0.4999999999999993
 30
-1.5
 11
-10.0
 21
-0.4999999999999997
 31
-1.5
  0
POLYLINE
  5
148
330
1F
100
AcDbEntity
  8
0
100
AcDbPolyFaceMesh
 66
     1
 10
0.0
 20
0.0
 30
0.0
 70
    64
 71
     4
 72
     2
  0
VERTEX
  5
149
330
148
100
AcDbEntity
  8
0
100
AcDbVertex
100
AcDbPolyFaceMeshVertex
 10
0.0
 20
-2.497613465994819
 30
0.1092106884940584
 70
   192
  0
VERTEX
  5
14A
330
148
100
AcDbEntity
  8
0
100
AcDbVertex
100
AcDbPolyFaceMeshVertex
 10
-10.0
 20
-2.488065916296494
 30
0.0000000000000004
 70
   192
  0
VERTEX
  5
14B
330
148
100
AcDbEntity
  8
0
100
AcDbVertex
100
AcDbPolyFaceMeshVertex
 10
0.0000000000000004
 20
-2.488065916296494
 30
0.0000000000000001
 70
   192
  0
VERTEX
  5
14C
330
148
100
AcDbEntity
  8
0
100
AcDbVertex
100
AcDbPolyFaceMeshVertex
 10
-10.0
 20
-2.497613465994819
 30
0.1092106884940588
 70
   192
  0
VERTEX
  5
14D
330
148
100
AcDbEntity
  8
0
100
AcDbFaceRecord
 10
0.0
 20
0.0
 30
0.0
 70
   128
 71
    -1
 72
     2
 73
     3
  0
VERTEX
  5
14E
330
148
100
AcDbEntity
  8
0
100
AcDbFaceRecord
 10
0.0
 20
0.0
 30
0.0
 70
   128
 71
    -2
 72
     1
 73
     4
  0
SEQEND
  5
14F
330
148
100
AcDbEntity
  8
0
  0
POLYLINE
  5
150
330
1F
100
AcDbEntity
  8
0
100
AcDbPolyFaceMesh
 66
     1
 10
0.0
 20
0.0
 30
0.0
 70
    64
 71
     4
 72
     2
  0
VERTEX
  5
151
330
150
100
AcDbEntity
  8
0
100
AcDbVertex
100
AcDbPolyFaceMeshVertex
 10
-10.0
 20
2.217602054632644
 30
1.154227502396766
 70
   192
  0
VERTEX
  5
152
330
150
100
AcDbEntity
  8
0
100
AcDbVertex
100
AcDbPolyFaceMeshVertex
 10
0.0
 20
1.843303036999974
 30
1.688855800175572
 70
   192
  0
VERTEX
  5
153
330
150
100
AcDbEntity
  8
0
100
AcDbVertex
100
AcDbPolyFaceMeshVertex
 10
0.0
 20
2.217602054632644
 30
1.154227502396766
 70
   192
  0
VERTEX
  5
154
330
150
100
AcDbEntity
  8
0
100
AcDbVertex
100
AcDbPolyFaceMeshVertex
 10
-10.0
 20
1.843303036999975
 30
1.688855800175572
 70
   192
  0
VERTEX
  5
155
330
150
100
AcDbEntity
  8
0
100
AcDbFaceRecord
 10
0.0
 20
0.0
 30
0.0
 70
   128
 71
    -1
 72
     2
 73
     3
  0
VERTEX
  5
156
330
150
100
AcDbEntity
  8
0
100
AcDbFaceRecord
 10
0.0
 20
0.0
 30
0.0
 70
   128
 71
    -2
 72
     1
 73
     4
  0
SEQEND
  5
157
330
150
100
AcDbEntity
  8
0
  0
POLYLINE
  5
158
330
1F
100
AcDbEntity
  8
0
100
AcDbPolyFaceMesh
 66
     1
 10
0.0
 20
0.0
 30
0.0
 70
    64
 71
     4
 72
     2
  0
VERTEX
  5
159
330
158
100
AcDbEntity
  8
0
100
AcDbVertex
100
AcDbPolyFaceMeshVertex
 10
-9.999999999999998
 20
0.5409405077807546
 30
-2.44077515700277
 70
   192
  0
VERTEX
  5
15A
330
158
100
AcDbEntity
  8
0
100
AcDbVertex
100
AcDbPolyFaceMeshVertex
 10
0.0
 20
-0.1092106884940586
 30
-2.49761346599482
 70
   192
  0
VERTEX
  5
15B
330
158
100
AcDbEntity
  8
0
100
AcDbVertex
100
AcDbPolyFaceMeshVertex
 10
-10.0
 20
-0.1092106884940583
 30
-2.497613465994819
 70
   192
  0
VERTEX
  5
15C
330
158
100
AcDbEntity
  8
0
100
AcDbVertex
100
AcDbPolyFaceMeshVertex
 10
0.0
 20
0.5409405077807543
 30
-2.440775157002771
 70
   192
  0
VERTEX
  5
15D
330
158
100
AcDbEntity
  8
0
100
AcDbFaceRecord
 10
0.0
 20
0.0
 30
0.0
 70
   128
 71
    -1
 72
     2
 73
     3
  0
VERTEX
  5
15E
330
158
100
AcDbEntity
  8
0
100
AcDbFaceRecord
 10
0.0
 20
0.0
 30
0.0
 70
   128
 71
    -2
 72
     1
 73
     4
  0
SEQEND
  5
15F
330
158
100
AcDbEntity
  8
0
  0
POLYLINE
  5
160
330
1F
100
AcDbEntity
  8
0
100
AcDbPolyFaceMesh
 66
     1
 10
0.0
 20
0.0
 30
0.0
 70
    64
 71
     4
 72
     2
  0
VERTEX
  5
161
330
160
100
AcDbEntity
  8
0
100
AcDbVertex
100
AcDbPolyFaceMeshVertex
 10
0.0
 20
1.343385963598052
 30
2.108391366138586
 70
   192
  0
VERTEX
  5
162
330
160
100
AcDbEntity
  8
0
100
AcDbVertex
100
AcDbPolyFaceMeshVertex
 10
-10.0
 20
1.843303036999975
 30
1.688855800175572
 70
   192
  0
VERTEX
  5
163
330
160
100
AcDbEntity
  8
0
100
AcDbVertex
100
AcDbPolyFaceMeshVertex
 10
-10.0
 20
1.343385963598052
 30
2.108391366138585
 70
   192
  0
VERTEX
  5
164
330
160
100
AcDbEntity
  8
0
100
AcDbVertex
100
AcDbPolyFaceMeshVertex
 10
0.0
 20
1.843303036999974
 30
1.688855800175572
 70
   192
  0
VERTEX
  5
165
330
160
100
AcDbEntity
  8
0
100
AcDbFaceRecord
 10
0.0
 20
0.0
 30
0.0
 70
   128
 71
    -1
 72
     2
 73
     3
  0
VERTEX
  5
166
330
160
100
AcDbEntity
  8
0
100
AcDbFaceRecord
 10
0.0
 20
0.0
 30
0.0
 70
   128
 71
    -2
 72
     1
 73
     4
  0
SEQEND
  5
167
330
160
100
AcDbEntity
  8
0
  0
POLYLINE
  5
168
330
1F
100
AcDbEntity
  8
0
100
AcDbPolyFaceMesh
 66
     1
 10
0.0
 20
0.0
 30
0.0
 70
    64
 71
     4
 72
     2
  0
VERTEX
  5
169
330
168
100
AcDbEntity
  8
0
100
AcDbVertex
100
AcDbPolyFaceMeshVertex
 10
-10.0
 20
2.44077515700277
 30
0.5409405077807554
 70
   192
  0
VERTEX
  5
16A
330
168
100
AcDbEntity
  8
0
100
AcDbVertex
100
AcDbPolyFaceMeshVertex
 10
0.0
 20
2.217602054632644
 30
1.154227502396766
 70
   192
  0
VERTEX
  5
16B
330
168
100
AcDbEntity
  8
0
100
AcDbVertex
100
AcDbPolyFaceMeshVertex
 10
0.0
 20
2.440775157002771
 30
0.5409405077807549
 70
   192
  0
VERTEX
  5
16C
330
168
100
AcDbEntity
  8
0
100
AcDbVertex
100
AcDbPolyFaceMeshVertex
 10
-10.0
 20
2.217602054632644
 30
1.154227502396766
 70
   192
  0
VERTEX
  5
16D
330
168
100
AcDbEntity
  8
0
100
AcDbFaceRecord
 10
0.0
 20
0.0
 30
0.0
 70
   128
 71
    -1
 72
     2
 73
     3
  0
VERTEX
  5
16E
330
168
100
AcDbEntity
  8
0
100
AcDbFaceRecord
 10
0.0
 20
0.0
 30
0.0
 70
   128
 71
    -2
 72
     1
 73
     4
  0
SEQEND
  5
16F
330
168
100
AcDbEntity
  8
0
  0
POLYLINE
  5
170
330
1F
100
AcDbEntity
  8
0
100
AcDbPolyFaceMesh
 66
     1
 10
0.0
 20
0.0
 30
0.0
 70
    64
 71
     4
 72
     2
  0
VERTEX
  5
171
330
170
100
AcDbEntity
  8
0
100
AcDbVertex
100
AcDbPolyFaceMeshVertex
 10
0.0000000000000004
 20
-2.440775157002771
 30
-0.5409405077807554
 70
   192
  0
VERTEX
  5
172
330
170
100
AcDbEntity
  8
0
100
AcDbVertex
100
AcDbPolyFaceMeshVertex
 10
-10.0
 20
-2.217602054632645
 30
-1.154227502396766
 70
   192
  0
VERTEX
  5
173
330
170
100
AcDbEntity
  8
0
100
AcDbVertex
100
AcDbPolyFaceMeshVertex
 10
0.0000000000000004
 20
-2.217602054632644
 30
-1.154227502396766
 70
   192
  0
VERTEX
  5
174
330
170
100
AcDbEntity
  8
0
100
AcDbVertex
100
AcDbPolyFaceMeshVertex
 10
-10.0
 20
-2.44077515700277
 30
-0.5409405077807554
 70
   192
  0
VERTEX
  5
175
330
170
100
AcDbEntity
  8
0
100
AcDbFaceRecord
 10
0.0
 20
0.0
 30
0.0
 70
   128
 71
    -1
 72
     2
 73
     3
  0
VERTEX
  5
176
330
170
100
AcDbEntity
  8
0
100
AcDbFaceRecord
 10
0.0
 20
0.0
 30
0.0
 70
   128
 71
    -2
 72
     1
 73
     4
  0
SEQEND
  5
177
330
170
100
AcDbEntity
  8
0
  0
POLYLINE
  5
178
330
1F
100
AcDbEntity
  8
0
100
AcDbPolyFaceMesh
 66
     1
 10
0.0
 20
0.0
 30
0.0
 70
    64
 71
     4
 72
     2
  0
VERTEX
  5
179
330
178
100
AcDbEntity
  8
0
100
AcDbVertex
100
AcDbPolyFaceMeshVertex
 10
0.0000000000000004
 20
-2.488065916296494
 30
0.0000000000000001
 70
   192
  0
VERTEX
  5
17A
330
178
100
AcDbEntity
  8
0
100
AcDbVertex
100
AcDbPolyFaceMeshVertex
 10
-10.0
 20
-2.44077515700277
 30
-0.5409405077807554
 70
   192
  0
VERTEX
  5
17B
330
178
100
AcDbEntity
  8
0
100
AcDbVertex
100
AcDbPolyFaceMeshVertex
 10
0.0000000000000004
 20
-2.440775157002771
 30
-0.5409405077807554
 70
   192
  0
VERTEX
  5
17C
330
178
100
AcDbEntity
  8
0
100
AcDbVertex
100
AcDbPolyFaceMeshVertex
 10
-10.0
 20
-2.488065916296494
 30
0.0000000000000004
 70
   192
  0
VERTEX
  5
17D
330
178
100
AcDbEntity
  8
0
100
AcDbFaceRecord
 10
0.0
 20
0.0
 30
0.0
 70
   128
 71
    -1
 72
     2
 73
     3
  0
VERTEX
  5
17E
330
178
100
AcDbEntity
  8
0
100
AcDbFaceRecord
 10
0.0
 20
0.0
 30
0.0
 70
   128
 71
    -2
 72
     1
 73
     4
  0
SEQEND
  5
17F
330
178
100
AcDbEntity
  8
0
  0
POLYLINE
  5
180
330
1F
100
AcDbEntity
  8
0
100
AcDbPolyFaceMesh
 66
     1
 10
0.0
 20
0.0
 30
0.0
 70
    64
 71
     4
 72
     2
  0
VERTEX
  5
181
330
180
100
AcDbEntity
  8
0
100
AcDbVertex
100
AcDbPolyFaceMeshVertex
 10
-10.0
 20
-0.7519193568271978
 30
-2.384243544780728
 70
   192
  0
VERTEX
  5
182
330
180
100
AcDbEntity
  8
0
100
AcDbVertex
100
AcDbPolyFaceMeshVertex
 10
0.0
 20
-1.343385963598053
 30
-2.108391366138586
 70
   192
  0
VERTEX
  5
183
330
180
100
AcDbEntity
  8
0
100
AcDbVertex
100
AcDbPolyFaceMeshVertex
 10
-10.0
 20
-1.343385963598053
 30
-2.108391366138586
 70
   192
  0
VERTEX
  5
184
330
180
100
AcDbEntity
  8
0
100
AcDbVertex
100
AcDbPolyFaceMeshVertex
 10
0.0000000000000004
 20
-0.751919356827198
 30
-2.384243544780729
 70
   192
  0
VERTEX
  5
185
330
180
100
AcDbEntity
  8
0
100
AcDbFaceRecord
 10
0.0
 20
0.0
 30
0.0
 70
   128
 71
    -1
 72
     2
 73
     3
  0
VERTEX
  5
186
330
180
100
AcDbEntity
  8
0
100
AcDbFaceRecord
 10
0.0
 20
0.0
 30
0.0
 70
   128
 71
    -2
 72
     1
 73
     4
  0
SEQEND
  5
187
330
180
100
AcDbEntity
  8
0
  0
POLYLINE
  5
188
330
1F
100
AcDbEntity
  8
0
100
AcDbPolyFaceMesh
 66
     1
 10
0.0
 20
0.0
 30
0.0
 70
    64
 71
     4
 72
     2
  0
VERTEX
  5
189
330
188
100
AcDbEntity
  8
0
100
AcDbVertex
100
AcDbPolyFaceMeshVertex
 10
0.0
 20
-1.688855800175573
 30
1.843303036999974
 70
   192
  0
VERTEX
  5
18A
330
188
100
AcDbEntity
  8
0
100
AcDbVertex
100
AcDbPolyFaceMeshVertex
 10
-10.0
 20
-1.154227502396766
 30
2.217602054632644
 70
   192
  0
VERTEX
  5
18B
330
188
100
AcDbEntity
  8
0
100
AcDbVertex
100
AcDbPolyFaceMeshVertex
 10
-10.0
 20
-1.688855800175573
 30
1.843303036999974
 70
   192
  0
VERTEX
  5
18C
330
188
100
AcDbEntity
  8
0
100
AcDbVertex
100
AcDbPolyFaceMeshVertex
 10
0.0000000000000004
 20
-1.154227502396767
 30
2.217602054632644
 70
   192
  0
VERTEX
  5
18D
330
188
100
AcDbEntity
  8
0
100
AcDbFaceRecord
 10
0.0
 20
0.0
 30
0.0
 70
   128
 71
    -1
 72
     2
 73
     3
  0
VERTEX
  5
18E
330
188
100
AcDbEntity
  8
0
100
AcDbFaceRecord
 10
0.0
 20
0.0
 30
0.0
 70
   128
 71
    -2
 72
     1
 73
     4
  0
SEQEND
  5
18F
330
188
100
AcDbEntity
  8
0
  0
POLYLINE
  5
190
330
1F
100
AcDbEntity
  8
0
100
AcDbPolyFaceMesh
 66
     1
 10
0.0
 20
0.0
 30
0.0
 70
    64
 71
     4
 72
     2
  0
VERTEX
  5
191
330
190
100
AcDbEntity
  8
0
100
AcDbVertex
100
AcDbPolyFaceMeshVertex
 10
-10.0
 20
2.384243544780729
 30
-0.7519193568271981
 70
   192
  0
VERTEX
  5
192
330
190
100
AcDbEntity
  8
0
100
AcDbVertex
100
AcDbPolyFaceMeshVertex
 10
0.0
 20
2.497613465994818
 30
-0.1092106884940595
 70
   192
  0
VERTEX
  5
193
330
190
100
AcDbEntity
  8
0
100
AcDbVertex
100
AcDbPolyFaceMeshVertex
 10
0.0
 20
2.384243544780728
 30
-0.7519193568271985
 70
   192
  0
VERTEX
  5
194
330
190
100
AcDbEntity
  8
0
100
AcDbVertex
100
AcDbPolyFaceMeshVertex
 10
-10.0
 20
2.497613465994819
 30
-0.1092106884940592
 70
   192
  0
VERTEX
  5
195
330
190
100
AcDbEntity
  8
0
100
AcDbFaceRecord
 10
0.0
 20
0.0
 30
0.0
 70
   128
 71
    -1
 72
     2
 73
     3
  0
VERTEX
  5
196
330
190
100
AcDbEntity
  8
0
100
AcDbFaceRecord
 10
0.0
 20
0.0
 30
0.0
 70
   128
 71
    -2
 72
     1
 73
     4
  0
SEQEND
  5
197
330
190
100
AcDbEntity
  8
0
  0
POLYLINE
  5
198
330
1F
100
AcDbEntity
  8
0
100
AcDbPolyFaceMesh
 66
     1
 10
0.0
 20
0.0
 30
0.0
 70
    64
 71
     4
 72
     2
  0
VERTEX
  5
199
330
198
100
AcDbEntity
  8
0
100
AcDbVertex
100
AcDbPolyFaceMeshVertex
 10
-10.0
 20
2.108391366138585
 30
-1.343385963598053
 70
   192
  0
VERTEX
  5
19A
330
198
100
AcDbEntity
  8
0
100
AcDbVertex
100
AcDbPolyFaceMeshVertex
 10
0.0
 20
2.384243544780728
 30
-0.7519193568271985
 70
   192
  0
VERTEX
  5
19B
330
198
100
AcDbEntity
  8
0
100
AcDbVertex
100
AcDbPolyFaceMeshVertex
 10
0.0
 20
2.108391366138585
 30
-1.343385963598053
 70
   192
  0
VERTEX
  5
19C
330
198
100
AcDbEntity
  8
0
100
AcDbVertex
100
AcDbPolyFaceMeshVertex
 10
-10.0
 20
2.384243544780729
 30
-0.7519193568271981
 70
   192
  0
VERTEX
  5
19D
330
198
100
AcDbEntity
  8
0
100
AcDbFaceRecord
 10
0.0
 20
0.0
 30
0.0
 70
   128
 71
    -1
 72
     2
 73
     3
  0
VERTEX
  5
19E
330
198
100
AcDbEntity
  8
0
100
AcDbFaceRecord
 10
0.0
 20
0.0
 30
0.0
 70
   128
 71
    -2
 72
     1
 73
     4
  0
SEQEND
  5
19F
330
198
100
AcDbEntity
  8
0
  0
POLYLINE
  5
1A0
330
1F
100
AcDbEntity
  8
0
100
AcDbPolyFaceMesh
 66
     1
 10
0.0
 20
0.0
 30
0.0
 70
    64
 71
    27
 72
    25
  0
VERTEX
  5
1A1
330
1A0
100
AcDbEntity
  8
0
100
AcDbVertex
100
AcDbPolyFaceMeshVertex
 10
0.0000000000000004
 20
-2.488065916296494
 30
0.0000000000000001
 70
   192
  0
VERTEX
  5
1A2
330
1A0
100
AcDbEntity
  8
0
100
AcDbVertex
100
AcDbPolyFaceMeshVertex
 10
0.0000000000000004
 20
-2.384243544780728
 30
0.7519193568271975
 70
   192
  0
VERTEX
  5
1A3
330
1A0
100
AcDbEntity
  8
0
100
AcDbVertex
100
AcDbPolyFaceMeshVertex
 10
0.0
 20
-2.497613465994819
 30
0.1092106884940584
 70
   192
  0
VERTEX
  5
1A4
330
1A0
100
AcDbEntity
  8
0
100
AcDbVertex
100
AcDbPolyFaceMeshVertex
 10
0.0000000000000004
 20
-2.440775157002771
 30
-0.5409405077807554
 70
   192
  0
VERTEX
  5
1A5
330
1A0
100
AcDbEntity
  8
0
100
AcDbVertex
100
AcDbPolyFaceMeshVertex
 10
0.0000000000000004
 20
-2.217602054632644
 30
-1.154227502396766
 70
   192
  0
VERTEX
  5
1A6
330
1A0
100
AcDbEntity
  8
0
100
AcDbVertex
100
AcDbPolyFaceMeshVertex
 10
0.0
 20
-2.108391366138585
 30
1.343385963598053
 70
   192
  0
VERTEX
  5
1A7
330
1A0
100
AcDbEntity
  8
0
100
AcDbVertex
100
AcDbPolyFaceMeshVertex
 10
0.0
 20
-1.843303036999973
 30
-1.688855800175573
 70
   192
  0
VERTEX
  5
1A8
330
1A0
100
AcDbEntity
  8
0
100
AcDbVertex
100
AcDbPolyFaceMeshVertex
 10
0.0
 20
-1.688855800175573
 30
1.843303036999974
 70
   192
  0
VERTEX
  5
1A9
330
1A0
100
AcDbEntity
  8
0
100
AcDbVertex
100
AcDbPolyFaceMeshVertex
 10
0.0
 20
-1.343385963598053
 30
-2.108391366138586
 70
   192
  0
VERTEX
  5
1AA
330
1A0
100
AcDbEntity
  8
0
100
AcDbVertex
100
AcDbPolyFaceMeshVertex
 10
0.0000000000000004
 20
-1.154227502396767
 30
2.217602054632644
 70
   192
  0
VERTEX
  5
1AB
330
1A0
100
AcDbEntity
  8
0
100
AcDbVertex
100
AcDbPolyFaceMeshVertex
 10
0.0000000000000004
 20
-0.751919356827198
 30
-2.384243544780729
 70
   192
  0
VERTEX
  5
1AC
330
1A0
100
AcDbEntity
  8
0
100
AcDbVertex
100
AcDbPolyFaceMeshVertex
 10
0.0
 20
-0.5409405077807554
 30
2.440775157002771
 70
   192
  0
VERTEX
  5
1AD
330
1A0
100
AcDbEntity
  8
0
100
AcDbVertex
100
AcDbPolyFaceMeshVertex
 10
0.0
 20
-0.1092106884940586
 30
-2.49761346599482
 70
   192
  0
VERTEX
  5
1AE
330
1A0
100
AcDbEntity
  8
0
100
AcDbVertex
100
AcDbPolyFaceMeshVertex
 10
0.0
 20
0.0
 30
2.5
 70
   192
  0
VERTEX
  5
1AF
330
1A0
100
AcDbEntity
  8
0
100
AcDbVertex
100
AcDbPolyFaceMeshVertex
 10
0.0
 20
0.5409405077807543
 30
-2.440775157002771
 70
   192
  0
VERTEX
  5
1B0
330
1A0
100
AcDbEntity
  8
0
100
AcDbVertex
100
AcDbPolyFaceMeshVertex
 10
0.0000000000000004
 20
0.1092106884940577
 30
2.49761346599482
 70
   192
  0
VERTEX
  5
1B1
330
1A0
100
AcDbEntity
  8
0
100
AcDbVertex
100
AcDbPolyFaceMeshVertex
 10
0.0
 20
0.7519193568271968
 30
2.384243544780728
 70
   192
  0
VERTEX
  5
1B2
330
1A0
100
AcDbEntity
  8
0
100
AcDbVertex
100
AcDbPolyFaceMeshVertex
 10
0.0
 20
1.154227502396765
 30
-2.217602054632644
 70
   192
  0
VERTEX
  5
1B3
330
1A0
100
AcDbEntity
  8
0
100
AcDbVertex
100
AcDbPolyFaceMeshVertex
 10
0.0
 20
1.343385963598052
 30
2.108391366138586
 70
   192
  0
VERTEX
  5
1B4
330
1A0
100
AcDbEntity
  8
0
100
AcDbVertex
100
AcDbPolyFaceMeshVertex
 10
0.0
 20
1.688855800175572
 30
-1.843303036999974
 70
   192
  0
VERTEX
  5
1B5
330
1A0
100
AcDbEntity
  8
0
100
AcDbVertex
100
AcDbPolyFaceMeshVertex
 10
0.0
 20
1.843303036999974
 30
1.688855800175572
 70
   192
  0
VERTEX
  5
1B6
330
1A0
100
AcDbEntity
  8
0
100
AcDbVertex
100
AcDbPolyFaceMeshVertex
 10
0.0
 20
2.108391366138585
 30
-1.343385963598053
 70
   192
  0
VERTEX
  5
1B7
330
1A0
100
AcDbEntity
  8
0
100
AcDbVertex
100
AcDbPolyFaceMeshVertex
 10
0.0
 20
2.217602054632644
 30
1.154227502396766
 70
   192
  0
VERTEX
  5
1B8
330
1A0
100
AcDbEntity
  8
0
100
AcDbVertex
100
AcDbPolyFaceMeshVertex
 10
0.0
 20
2.384243544780728
 30
-0.7519193568271985
 70
   192
  0
VERTEX
  5
1B9
330
1A0
100
AcDbEntity
  8
0
100
AcDbVertex
100
AcDbPolyFaceMeshVertex
 10
0.0
 20
2.440775157002771
 30
0.5409405077807549
 70
   192
  0
VERTEX
  5
1BA
330
1A0
100
AcDbEntity
  8
0
100
AcDbVertex
100
AcDbPolyFaceMeshVertex
 10
0.0
 20
2.497613465994818
 30
-0.1092106884940595
 70
   192
  0
VERTEX
  5
1BB
330
1A0
100
AcDbEntity
  8
0
100
AcDbVertex
100
AcDbPolyFaceMeshVertex
 10
0.0
 20
2.488065916296493
 30
0.0
 70
   192
  0
VERTEX
  5
1BC
330
1A0
100
AcDbEntity
  8
0
100
AcDbFaceRecord
 10
0.0
 20
0.0
 30
0.0
 70
   128
 71
    -1
 72
     2
 73
     3
  0
VERTEX
  5
1BD
330
1A0
100
AcDbEntity
  8
0
100
AcDbFaceRecord
 10
0.0
 20
0.0
 30
0.0
 70
   128
 71
    -2
 72
     1
 73
    -4
  0
VERTEX
  5
1BE
330
1A0
100
AcDbEntity
  8
0
100
AcDbFaceRecord
 10
0.0
 20
0.0
 30
0.0
 70
   128
 71
    -2
 72
     4
 73
    -5
  0
VERTEX
  5
1BF
330
1A0
100
AcDbEntity
  8
0
100
AcDbFaceRecord
 10
0.0
 20
0.0
 30
0.0
 70
   128
 71
    -2
 72
    -5
 73
     6
  0
VERTEX
  5
1C0
330
1A0
100
AcDbEntity
  8
0
100
AcDbFaceRecord
 10
0.0
 20
0.0
 30
0.0
 70
   128
 71
    -6
 72
     5
 73
    -7
  0
VERTEX
  5
1C1
330
1A0
100
AcDbEntity
  8
0
100
AcDbFaceRecord
 10
0.0
 20
0.0
 30
0.0
 70
   128
 71
    -6
 72
    -7
 73
     8
  0
VERTEX
  5
1C2
330
1A0
100
AcDbEntity
  8
0
100
AcDbFaceRecord
 10
0.0
 20
0.0
 30
0.0
 70
   128
 71
    -8
 72
     7
 73
    -9
  0
VERTEX
  5
1C3
330
1A0
100
AcDbEntity
  8
0
100
AcDbFaceRecord
 10
0.0
 20
0.0
 30
0.0
 70
   128
 71
    -8
 72
    -9
 73
    10
  0
VERTEX
  5
1C4
330
1A0
100
AcDbEntity
  8
0
100
AcDbFaceRecord
 10
0.0
 20
0.0
 30
0.0
 70
   128
 71
   -10
 72
     9
 73
   -11
  0
VERTEX
  5
1C5
330
1A0
100
AcDbEntity
  8
0
100
AcDbFaceRecord
 10
0.0
 20
0.0
 30
0.0
 70
   128
 71
   -10
 72
   -11
 73
    12
  0
VERTEX
  5
1C6
330
1A0
100
AcDbEntity
  8
0
100
AcDbFaceRecord
 10
0.0
 20
0.0
 30
0.0
 70
   128
 71
   -12
 72
    11
 73
   -13
  0
VERTEX
  5
1C7
330
1A0
100
AcDbEntity
  8
0
100
AcDbFaceRecord
 10
0.0
 20
0.0
 30
0.0
 70
   128
 71
   -12
 72
   -13
 73
    14
  0
VERTEX
  5
1C8
330
1A0
100
AcDbEntity
  8
0
100
AcDbFaceRecord
 10
0.0
 20
0.0
 30
0.0
 70
   128
 71
   -14
 72
    13
 73
   -15
  0
VERTEX
  5
1C9
330
1A0
100
AcDbEntity
  8
0
100
AcDbFaceRecord
 10
0.0
 20
0.0
 30
0.0
 70
   128
 71
   -14
 72
   -15
 73
    16
  0
VERTEX
  5
1CA
330
1A0
100
AcDbEntity
  8
0
100
AcDbFaceRecord
 10
0.0
 20
0.0
 30
0.0
 70
   128
 71
   -16
 72
   -15
 73
    17
  0
VERTEX
  5
1CB
330
1A0
100
AcDbEntity
  8
0
100
AcDbFaceRecord
 10
0.0
 20
0.0
 30
0.0
 70
   128
 71
   -17
 72
    15
 73
   -18
  0
VERTEX
  5
1CC
330
1A0
100
AcDbEntity
  8
0
100
AcDbFaceRecord
 10
0.0
 20
0.0
 30
0.0
 70
   128
 71
   -17
 72
   -18
 73
    19
  0
VERTEX
  5
1CD
330
1A0
100
AcDbEntity
  8
0
100
AcDbFaceRecord
 10
0.0
 20
0.0
 30
0.0
 70
   128
 71
   -19
 72
    18
 73
   -20
  0
VERTEX
  5
1CE
330
1A0
100
AcDbEntity
  8
0
100
AcDbFaceRecord
 10
0.0
 20
0.0
 30
0.0
 70
   128
 71
   -19
 72
   -20
 73
    21
  0
VERTEX
  5
1CF
330
1A0
100
AcDbEntity
  8
0
100
AcDbFaceRecord
 10
0.0
 20
0.0
 30
0.0
 70
   128
 71
   -21
 72
    20
 73
   -22
  0
VERTEX
  5
1D0
330
1A0
100
AcDbEntity
  8
0
100
AcDbFaceRecord
 10
0.0
 20
0.0
 30
0.0
 70
   128
 71
   -21
 72
   -22
 73
    23
  0
VERTEX
  5
1D1
330
1A0
100
AcDbEntity
  8
0
100
AcDbFaceRecord
 10
0.0
 20
0.0
 30
0.0
 70
   128
 71
   -23
 72
    22
 73
   -24
  0
VERTEX
  5
1D2
330
1A0
100
AcDbEntity
  8
0
100
AcDbFaceRecord
 10
0.0
 20
0.0
 30
0.0
 70
   128
 71
   -23
 72
   -24
 73
    25
  0
VERTEX
  5
1D3
330
1A0
100
AcDbEntity
  8
0
100
AcDbFaceRecord
 10
0.0
 20
0.0
 30
0.0
 70
   128
 71
   -25
 72
    24
 73
   -26
  0
VERTEX
  5
1D4
330
1A0
100
AcDbEntity
  8
0
100
AcDbFaceRecord
 10
0.0
 20
0.0
 30
0.0
 70
   128
 71
   -25
 72
    26
 73
    27
  0
SEQEND
  5
1D5
330
1A0
100
AcDbEntity
  8
0
  0
POLYLINE
  5
1D6
330
1F
100
AcDbEntity
  8
0
100
AcDbPolyFaceMesh
 66
     1
 10
0.0
 20
0.0
 30
0.0
 70
    64
 71
     4
 72
     2
  0
VERTEX
  5
1D7
330
1D6
100
AcDbEntity
  8
0
100
AcDbVertex
100
AcDbPolyFaceMeshVertex
 10
-10.0
 20
2.497613465994819
 30
-0.1092106884940592
 70
   192
  0
VERTEX
  5
1D8
330
1D6
100
AcDbEntity
  8
0
100
AcDbVertex
100
AcDbPolyFaceMeshVertex
 10
0.0
 20
2.488065916296493
 30
0.0
 70
   192
  0
VERTEX
  5
1D9
330
1D6
100
AcDbEntity
  8
0
100
AcDbVertex
100
AcDbPolyFaceMeshVertex
 10
0.0
 20
2.497613465994818
 30
-0.1092106884940595
 70
   192
  0
VERTEX
  5
1DA
330
1D6
100
AcDbEntity
  8
0
100
AcDbVertex
100
AcDbPolyFaceMeshVertex
 10
-10.0
 20
2.488065916296493
 30
0.0
 70
   192
  0
VERTEX
  5
1DB
330
1D6
100
AcDbEntity
  8
0
100
AcDbFaceRecord
 10
0.0
 20
0.0
 30
0.0
 70
   128
 71
    -1
 72
     2
 73
     3
  0
VERTEX
  5
1DC
330
1D6
100
AcDbEntity
  8
0
100
AcDbFaceRecord
 10
0.0
 20
0.0
 30
0.0
 70
   128
 71
    -2
 72
     1
 73
     4
  0
SEQEND
  5
1DD
330
1D6
100
AcDbEntity
  8
0
  0
POLYLINE
  5
1DE
330
1F
100
AcDbEntity
  8
0
100
AcDbPolyFaceMesh
 66
     1
 10
0.0
 20
0.0
 30
0.0
 70
    64
 71
     4
 72
     2
  0
VERTEX
  5
1DF
330
1DE
100
AcDbEntity
  8
0
100
AcDbVertex
100
AcDbPolyFaceMeshVertex
 10
-10.0
 20
2.108391366138585
 30
-1.343385963598053
 70
   192
  0
VERTEX
  5
1E0
330
1DE
100
AcDbEntity
  8
0
100
AcDbVertex
100
AcDbPolyFaceMeshVertex
 10
0.0
 20
1.688855800175572
 30
-1.843303036999974
 70
   192
  0
VERTEX
  5
1E1
330
1DE
100
AcDbEntity
  8
0
100
AcDbVertex
100
AcDbPolyFaceMeshVertex
 10
-10.0
 20
1.688855800175572
 30
-1.843303036999974
 70
   192
  0
VERTEX
  5
1E2
330
1DE
100
AcDbEntity
  8
0
100
AcDbVertex
100
AcDbPolyFaceMeshVertex
 10
0.0
 20
2.108391366138585
 30
-1.343385963598053
 70
   192
  0
VERTEX
  5
1E3
330
1DE
100
AcDbEntity
  8
0
100
AcDbFaceRecord
 10
0.0
 20
0.0
 30
0.0
 70
   128
 71
    -1
 72
     2
 73
     3
  0
VERTEX
  5
1E4
330
1DE
100
AcDbEntity
  8
0
100
AcDbFaceRecord
 10
0.0
 20
0.0
 30
0.0
 70
   128
 71
    -2
 72
     1
 73
     4
  0
SEQEND
  5
1E5
330
1DE
100
AcDbEntity
  8
0
  0
POLYLINE
  5
1E6
330
1F
100
AcDbEntity
  8
0
100
AcDbPolyFaceMesh
 66
     1
 10
0.0
 20
0.0
 30
0.0
 70
    64
 71
     4
 72
     2
  0
VERTEX
  5
1E7
330
1E6
100
AcDbEntity
  8
0
100
AcDbVertex
100
AcDbPolyFaceMeshVertex
 10
0.0
 20
1.154227502396765
 30
-2.217602054632644
 70
   192
  0
VERTEX
  5
1E8
330
1E6
100
AcDbEntity
  8
0
100
AcDbVertex
100
AcDbPolyFaceMeshVertex
 10
-9.999999999999998
 20
0.5409405077807546
 30
-2.44077515700277
 70
   192
  0
VERTEX
  5
1E9
330
1E6
100
AcDbEntity
  8
0
100
AcDbVertex
100
AcDbPolyFaceMeshVertex
 10
-10.0
 20
1.154227502396766
 30
-2.217602054632644
 70
   192
  0
VERTEX
  5
1EA
330
1E6
100
AcDbEntity
  8
0
100
AcDbVertex
100
AcDbPolyFaceMeshVertex
 10
0.0
 20
0.5409405077807543
 30
-2.440775157002771
 70
   192
  0
VERTEX
  5
1EB
330
1E6
100
AcDbEntity
  8
0
100
AcDbFaceRecord
 10
0.0
 20
0.0
 30
0.0
 70
   128
 71
    -1
 72
     2
 73
     3
  0
VERTEX
  5
1EC
330
1E6
100
AcDbEntity
  8
0
100
AcDbFaceRecord
 10
0.0
 20
0.0
 30
0.0
 70
   128
 71
    -2
 72
     1
 73
     4
  0
SEQEND
  5
1ED
330
1E6
100
AcDbEntity
  8
0
  0
POLYLINE
  5
1EE
330
1F
100
AcDbEntity
  8
0
100
AcDbPolyFaceMesh
 66
     1
 10
0.0
 20
0.0
 30
0.0
 70
    64
 71
     4
 72
     2
  0
VERTEX
  5
1EF
330
1EE
100
AcDbEntity
  8
0
100
AcDbVertex
100
AcDbPolyFaceMeshVertex
 10
-30.0
 20
0.2500000000000008
 30
1.066987298107781
 70
   192
  0
VERTEX
  5
1F0
330
1EE
100
AcDbEntity
  8
0
100
AcDbVertex
100
AcDbPolyFaceMeshVertex
 10
-10.0
 20
0.1294095225512605
 30
1.017037086855466
 70
   192
  0
VERTEX
  5
1F1
330
1EE
100
AcDbEntity
  8
0
100
AcDbVertex
100
AcDbPolyFaceMeshVertex
 10
-30.00000000000001
 20
0.1294095225512614
 30
1.017037086855467
 70
   192
  0
VERTEX
  5
1F2
330
1EE
100
AcDbEntity
  8
0
100
AcDbVertex
100
AcDbPolyFaceMeshVertex
 10
-10.0
 20
0.25
 30
1.066987298107781
 70
   192
  0
VERTEX
  5
1F3
330
1EE
100
AcDbEntity
  8
0
100
AcDbFaceRecord
 10
0.0
 20
0.0
 30
0.0
 70
   128
 71
    -1
 72
     2
 73
     3
  0
VERTEX
  5
1F4
330
1EE
100
AcDbEntity
  8
0
100
AcDbFaceRecord
 10
0.0
 20
0.0
 30
0.0
 70
   128
 71
    -2
 72
     1
 73
     4
  0
SEQEND
  5
1F5
330
1EE
100
AcDbEntity
  8
0
  0
POLYLINE
  5
1F6
330
1F
100
AcDbEntity
  8
0
100
AcDbPolyFaceMesh
 66
     1
 10
0.0
 20
0.0
 30
0.0
 70
    64
 71
     4
 72
     2
  0
VERTEX
  5
1F7
330
1F6
100
AcDbEntity
  8
0
100
AcDbVertex
100
AcDbPolyFaceMeshVertex
 10
0.0
 20
-0.1092106884940586
 30
-2.49761346599482
 70
   192
  0
VERTEX
  5
1F8
330
1F6
100
AcDbEntity
  8
0
100
AcDbVertex
100
AcDbPolyFaceMeshVertex
 10
-10.0
 20
-0.7519193568271978
 30
-2.384243544780728
 70
   192
  0
VERTEX
  5
1F9
330
1F6
100
AcDbEntity
  8
0
100
AcDbVertex
100
AcDbPolyFaceMeshVertex
 10
-10.0
 20
-0.1092106884940583
 30
-2.497613465994819
 70
   192
  0
VERTEX
  5
1FA
330
1F6
100
AcDbEntity
  8
0
100
AcDbVertex
100
AcDbPolyFaceMeshVertex
 10
0.0000000000000004
 20
-0.751919356827198
 30
-2.384243544780729
 70
   192
  0
VERTEX
  5
1FB
330
1F6
100
AcDbEntity
  8
0
100
AcDbFaceRecord
 10
0.0
 20
0.0
 30
0.0
 70
   128
 71
    -1
 72
     2
 73
     3
  0
VERTEX
  5
1FC
330
1F6
100
AcDbEntity
  8
0
100
AcDbFaceRecord
 10
0.0
 20
0.0
 30
0.0
 70
   128
 71
    -2
 72
     1
 73
     4
  0
SEQEND
  5
1FD
330
1F6
100
AcDbEntity
  8
0
  0
POLYLINE
  5
1FE
330
1F
100
AcDbEntity
  8
0
100
AcDbPolyFaceMesh
 66
     1
 10
0.0
 20
0.0
 30
0.0
 70
    64
 71
     4
 72
     2
  0
VERTEX
  5
1FF
330
1FE
100
AcDbEntity
  8
0
100
AcDbVertex
100
AcDbPolyFaceMeshVertex
 10
0.0000000000000004
 20
-2.217602054632644
 30
-1.154227502396766
 70
   192
  0
VERTEX
  5
200
330
1FE
100
AcDbEntity
  8
0
100
AcDbVertex
100
AcDbPolyFaceMeshVertex
 10
-10.0
 20
-1.843303036999973
 30
-1.688855800175573
 70
   192
  0
VERTEX
  5
201
330
1FE
100
AcDbEntity
  8
0
100
AcDbVertex
100
AcDbPolyFaceMeshVertex
 10
0.0
 20
-1.843303036999973
 30
-1.688855800175573
 70
   192
  0
VERTEX
  5
202
330
1FE
100
AcDbEntity
  8
0
100
AcDbVertex
100
AcDbPolyFaceMeshVertex
 10
-10.0
 20
-2.217602054632645
 30
-1.154227502396766
 70
   192
  0
VERTEX
  5
203
330
1FE
100
AcDbEntity
  8
0
100
AcDbFaceRecord
 10
0.0
 20
0.0
 30
0.0
 70
   128
 71
    -1
 72
     2
 73
     3
  0
VERTEX
  5
204
330
1FE
100
AcDbEntity
  8
0
100
AcDbFaceRecord
 10
0.0
 20
0.0
 30
0.0
 70
   128
 71
    -2
 72
     1
 73
     4
  0
SEQEND
  5
205
330
1FE
100
AcDbEntity
  8
0
  0
POLYLINE
  5
206
330
1F
100
AcDbEntity
  8
0
100
AcDbPolyFaceMesh
 66
     1
 10
0.0
 20
0.0
 30
0.0
 70
    64
 71
     4
 72
     2
  0
VERTEX
  5
207
330
206
100
AcDbEntity
  8
0
100
AcDbVertex
100
AcDbPolyFaceMeshVertex
 10
-10.0
 20
0.7519193568271972
 30
2.384243544780729
 70
   192
  0
VERTEX
  5
208
330
206
100
AcDbEntity
  8
0
100
AcDbVertex
100
AcDbPolyFaceMeshVertex
 10
0.0
 20
1.343385963598052
 30
2.108391366138586
 70
   192
  0
VERTEX
  5
209
330
206
100
AcDbEntity
  8
0
100
AcDbVertex
100
AcDbPolyFaceMeshVertex
 10
-10.0
 20
1.343385963598052
 30
2.108391366138585
 70
   192
  0
VERTEX
  5
20A
330
206
100
AcDbEntity
  8
0
100
AcDbVertex
100
AcDbPolyFaceMeshVertex
 10
0.0
 20
0.7519193568271968
 30
2.384243544780728
 70
   192
  0
VERTEX
  5
20B
330
206
100
AcDbEntity
  8
0
100
AcDbFaceRecord
 10
0.0
 20
0.0
 30
0.0
 70
   128
 71
    -1
 72
     2
 73
     3
  0
VERTEX
  5
20C
330
206
100
AcDbEntity
  8
0
100
AcDbFaceRecord
 10
0.0
 20
0.0
 30
0.0
 70
   128
 71
    -2
 72
     1
 73
     4
  0
SEQEND
  5
20D
330
206
100
AcDbEntity
  8
0
  0
POLYLINE
  5
20E
330
1F
100
AcDbEntity
  8
0
100
AcDbPolyFaceMesh
 66
     1
 10
0.0
 20
0.0
 30
0.0
 70
    64
 71
     5
 72
     3
  0
VERTEX
  5
20F
330
20E
100
AcDbEntity
  8
0
100
AcDbVertex
100
AcDbPolyFaceMeshVertex
 10
0.0
 20
-0.5409405077807554
 30
2.440775157002771
 70
   192
  0
VERTEX
  5
210
330
20E
100
AcDbEntity
  8
0
100
AcDbVertex
100
AcDbPolyFaceMeshVertex
 10
-10.0
 20
0.1092106884940579
 30
2.497613465994819
 70
   192
  0
VERTEX
  5
211
330
20E
100
AcDbEntity
  8
0
100
AcDbVertex
100
AcDbPolyFaceMeshVertex
 10
-10.0
 20
-0.540940507780755
 30
2.440775157002771
 70
   192
  0
VERTEX
  5
212
330
20E
100
AcDbEntity
  8
0
100
AcDbVertex
100
AcDbPolyFaceMeshVertex
 10
0.0
 20
0.0
 30
2.5
 70
   192
  0
VERTEX
  5
213
330
20E
100
AcDbEntity
  8
0
100
AcDbVertex
100
AcDbPolyFaceMeshVertex
 10
0.0000000000000004
 20
0.1092106884940577
 30
2.49761346599482
 70
   192
  0
VERTEX
  5
214
330
20E
100
AcDbEntity
  8
0
100
AcDbFaceRecord
 10
0.0
 20
0.0
 30
0.0
 70
   128
 71
    -1
 72
     2
 73
     3
  0
VERTEX
  5
215
330
20E
100
AcDbEntity
  8
0
100
AcDbFaceRecord
 10
0.0
 20
0.0
 30
0.0
 70
   128
 71
    -2
 72
     1
 73
    -4
  0
VERTEX
  5
216
330
20E
100
AcDbEntity
  8
0
100
AcDbFaceRecord
 10
0.0
 20
0.0
 30
0.0
 70
   128
 71
    -2
 72
     4
 73
     5
  0
SEQEND
  5
217
330
20E
100
AcDbEntity
  8
0
  0
POLYLINE
  5
218
330
1F
100
AcDbEntity
  8
0
100
AcDbPolyFaceMesh
 66
     1
 10
0.0
 20
0.0
 30
0.0
 70
    64
 71
     4
 72
     2
  0
VERTEX
  5
219
330
218
100
AcDbEntity
  8
0
100
AcDbVertex
100
AcDbPolyFaceMeshVertex
 10
-10.0
 20
-1.154227502396766
 30
2.217602054632644
 70
   192
  0
VERTEX
  5
21A
330
218
100
AcDbEntity
  8
0
100
AcDbVertex
100
AcDbPolyFaceMeshVertex
 10
0.0
 20
-0.5409405077807554
 30
2.440775157002771
 70
   192
  0
VERTEX
  5
21B
330
218
100
AcDbEntity
  8
0
100
AcDbVertex
100
AcDbPolyFaceMeshVertex
 10
-10.0
 20
-0.540940507780755
 30
2.440775157002771
 70
   192
  0
VERTEX
  5
21C
330
218
100
AcDbEntity
  8
0
100
AcDbVertex
100
AcDbPolyFaceMeshVertex
 10
0.0000000000000004
 20
-1.154227502396767
 30
2.217602054632644
 70
   192
  0
VERTEX
  5
21D
330
218
100
AcDbEntity
  8
0
100
AcDbFaceRecord
 10
0.0
 20
0.0
 30
0.0
 70
   128
 71
    -1
 72
     2
 73
     3
  0
VERTEX
  5
21E
330
218
100
AcDbEntity
  8
0
100
AcDbFaceRecord
 10
0.0
 20
0.0
 30
0.0
 70
   128
 71
    -2
 72
     1
 73
     4
  0
SEQEND
  5
21F
330
218
100
AcDbEntity
  8
0
  0
POLYLINE
  5
220
330
1F
100
AcDbEntity
  8
0
100
AcDbPolyFaceMesh
 66
     1
 10
0.0
 20
0.0
 30
0.0
 70
    64
 71
     4
 72
     2
  0
VERTEX
  5
221
330
220
100
AcDbEntity
  8
0
100
AcDbVertex
100
AcDbPolyFaceMeshVertex
 10
-10.0
 20
2.44077515700277
 30
0.5409405077807554
 70
   192
  0
VERTEX
  5
222
330
220
100
AcDbEntity
  8
0
100
AcDbVertex
100
AcDbPolyFaceMeshVertex
 10
0.0
 20
2.488065916296493
 30
0.0
 70
   192
  0
VERTEX
  5
223
330
220
100
AcDbEntity
  8
0
100
AcDbVertex
100
AcDbPolyFaceMeshVertex
 10
-10.0
 20
2.488065916296493
 30
0.0
 70
   192
  0
VERTEX
  5
224
330
220
100
AcDbEntity
  8
0
100
AcDbVertex
100
AcDbPolyFaceMeshVertex
 10
0.0
 20
2.440775157002771
 30
0.5409405077807549
 70
   192
  0
VERTEX
  5
225
330
220
100
AcDbEntity
  8
0
100
AcDbFaceRecord
 10
0.0
 20
0.0
 30
0.0
 70
   128
 71
    -1
 72
     2
 73
     3
  0
VERTEX
  5
226
330
220
100
AcDbEntity
  8
0
100
AcDbFaceRecord
 10
0.0
 20
0.0
 30
0.0
 70
   128
 71
    -2
 72
     1
 73
     4
  0
SEQEND
  5
227
330
220
100
AcDbEntity
  8
0
  0
POLYLINE
  5
228
330
1F
100
AcDbEntity
  8
0
100
AcDbPolyFaceMesh
 66
     1
 10
0.0
 20
0.0
 30
0.0
 70
    64
 71
     4
 72
     2
  0
VERTEX
  5
229
330
228
100
AcDbEntity
  8
0
100
AcDbVertex
100
AcDbPolyFaceMeshVertex
 10
0.0
 20
1.688855800175572
 30
-1.843303036999974
 70
   192
  0
VERTEX
  5
22A
330
228
100
AcDbEntity
  8
0
100
AcDbVertex
100
AcDbPolyFaceMeshVertex
 10
-10.0
 20
1.154227502396766
 30
-2.217602054632644
 70
   192
  0
VERTEX
  5
22B
330
228
100
AcDbEntity
  8
0
100
AcDbVertex
100
AcDbPolyFaceMeshVertex
 10
-10.0
 20
1.688855800175572
 30
-1.843303036999974
 70
   192
  0
VERTEX
  5
22C
330
228
100
AcDbEntity
  8
0
100
AcDbVertex
100
AcDbPolyFaceMeshVertex
 10
0.0
 20
1.154227502396765
 30
-2.217602054632644
 70
   192
  0
VERTEX
  5
22D
330
228
100
AcDbEntity
  8
0
100
AcDbFaceRecord
 10
0.0
 20
0.0
 30
0.0
 70
   128
 71
    -1
 72
     2
 73
     3
  0
VERTEX
  5
22E
330
228
100
AcDbEntity
  8
0
100
AcDbFaceRecord
 10
0.0
 20
0.0
 30
0.0
 70
   128
 71
    -2
 72
     1
 73
     4
  0
SEQEND
  5
22F
330
228
100
AcDbEntity
  8
0
  0
POLYLINE
  5
230
330
1F
100
AcDbEntity
  8
0
100
AcDbPolyFaceMesh
 66
     1
 10
0.0
 20
0.0
 30
0.0
 70
    64
 71
     4
 72
     2
  0
VERTEX
  5
231
330
230
100
AcDbEntity
  8
0
100
AcDbVertex
100
AcDbPolyFaceMeshVertex
 10
-9.999999999999998
 20
-0.1294095225512601
 30
1.982962913144535
 70
   192
  0
VERTEX
  5
232
330
230
100
AcDbEntity
  8
0
100
AcDbVertex
100
AcDbPolyFaceMeshVertex
 10
-30.0
 20
0.0000000000000007
 30
2.0
 70
   192
  0
VERTEX
  5
233
330
230
100
AcDbEntity
  8
0
100
AcDbVertex
100
AcDbPolyFaceMeshVertex
 10
-30.00000000000001
 20
-0.1294095225512589
 30
1.982962913144533
 70
   192
  0
VERTEX
  5
234
330
230
100
AcDbEntity
  8
0
100
AcDbVertex
100
AcDbPolyFaceMeshVertex
 10
-10.0
 20
0.0000000000000004
 30
2.0
 70
   192
  0
VERTEX
  5
235
330
230
100
AcDbEntity
  8
0
100
AcDbFaceRecord
 10
0.0
 20
0.0
 30
0.0
 70
   128
 71
    -1
 72
     2
 73
     3
  0
VERTEX
  5
236
330
230
100
AcDbEntity
  8
0
100
AcDbFaceRecord
 10
0.0
 20
0.0
 30
0.0
 70
   128
 71
    -2
 72
     1
 73
     4
  0
SEQEND
  5
237
330
230
100
AcDbEntity
  8
0
  0
POLYLINE
  5
238
330
1F
100
AcDbEntity
  8
0
100
AcDbPolyFaceMesh
 66
     1
 10
0.0
 20
0.0
 30
0.0
 70
    64
 71
     4
 72
     2
  0
VERTEX
  5
239
330
238
100
AcDbEntity
  8
0
100
AcDbVertex
100
AcDbPolyFaceMeshVertex
 10
-10.0
 20
-0.4829629131445338
 30
1.629409522551261
 70
   192
  0
VERTEX
  5
23A
330
238
100
AcDbEntity
  8
0
100
AcDbVertex
100
AcDbPolyFaceMeshVertex
 10
-30.0
 20
-0.4330127018922182
 30
1.750000000000001
 70
   192
  0
VERTEX
  5
23B
330
238
100
AcDbEntity
  8
0
100
AcDbVertex
100
AcDbPolyFaceMeshVertex
 10
-30.00000000000001
 20
-0.482962913144532
 30
1.62940952255126
 70
   192
  0
VERTEX
  5
23C
330
238
100
AcDbEntity
  8
0
100
AcDbVertex
100
AcDbPolyFaceMeshVertex
 10
-10.0
 20
-0.4330127018922189
 30
1.75
 70
   192
  0
VERTEX
  5
23D
330
238
100
AcDbEntity
  8
0
100
AcDbFaceRecord
 10
0.0
 20
0.0
 30
0.0
 70
   128
 71
    -1
 72
     2
 73
     3
  0
VERTEX
  5
23E
330
238
100
AcDbEntity
  8
0
100
AcDbFaceRecord
 10
0.0
 20
0.0
 30
0.0
 70
   128
 71
    -2
 72
     1
 73
     4
  0
SEQEND
  5
23F
330
238
100
AcDbEntity
  8
0
  0
POLYLINE
  5
240
330
1F
100
AcDbEntity
  8
0
100
AcDbPolyFaceMesh
 66
     1
 10
0.0
 20
0.0
 30
0.0
 70
    64
 71
     4
 72
     2
  0
VERTEX
  5
241
330
240
100
AcDbEntity
  8
0
100
AcDbVertex
100
AcDbPolyFaceMeshVertex
 10
-10.0
 20
-0.2499999999999999
 30
1.066987298107781
 70
   192
  0
VERTEX
  5
242
330
240
100
AcDbEntity
  8
0
100
AcDbVertex
100
AcDbPolyFaceMeshVertex
 10
-30.0
 20
-0.3535533905932736
 30
1.146446609406727
 70
   192
  0
VERTEX
  5
243
330
240
100
AcDbEntity
  8
0
100
AcDbVertex
100
AcDbPolyFaceMeshVertex
 10
-30.0
 20
-0.2499999999999992
 30
1.066987298107783
 70
   192
  0
VERTEX
  5
244
330
240
100
AcDbEntity
  8
0
100
AcDbVertex
100
AcDbPolyFaceMeshVertex
 10
-10.0
 20
-0.3535533905932737
 30
1.146446609406727
 70
   192
  0
VERTEX
  5
245
330
240
100
AcDbEntity
  8
0
100
AcDbFaceRecord
 10
0.0
 20
0.0
 30
0.0
 70
   128
 71
    -1
 72
     2
 73
     3
  0
VERTEX
  5
246
330
240
100
AcDbEntity
  8
0
100
AcDbFaceRecord
 10
0.0
 20
0.0
 30
0.0
 70
   128
 71
    -2
 72
     1
 73
     4
  0
SEQEND
  5
247
330
240
100
AcDbEntity
  8
0
  0
POLYLINE
  5
248
330
1F
100
AcDbEntity
  8
0
100
AcDbPolyFaceMesh
 66
     1
 10
0.0
 20
0.0
 30
0.0
 70
    64
 71
     4
 72
     2
  0
VERTEX
  5
249
330
248
100
AcDbEntity
  8
0
100
AcDbVertex
100
AcDbPolyFaceMeshVertex
 10
-30.00000000000001
 20
0.4330127018922197
 30
1.25
 70
   192
  0
VERTEX
  5
24A
330
248
100
AcDbEntity
  8
0
100
AcDbVertex
100
AcDbPolyFaceMeshVertex
 10
-10.0
 20
0.4829629131445339
 30
1.370590477448739
 70
   192
  0
VERTEX
  5
24B
330
248
100
AcDbEntity
  8
0
100
AcDbVertex
100
AcDbPolyFaceMeshVertex
 10
-10.0
 20
0.4330127018922192
 30
1.25
 70
   192
  0
VERTEX
  5
24C
330
248
100
AcDbEntity
  8
0
100
AcDbVertex
100
AcDbPolyFaceMeshVertex
 10
-30.00000000000001
 20
0.4829629131445352
 30
1.370590477448739
 70
   192
  0
VERTEX
  5
24D
330
248
100
AcDbEntity
  8
0
100
AcDbFaceRecord
 10
0.0
 20
0.0
 30
0.0
 70
   128
 71
    -1
 72
     2
 73
     3
  0
VERTEX
  5
24E
330
248
100
AcDbEntity
  8
0
100
AcDbFaceRecord
 10
0.0
 20
0.0
 30
0.0
 70
   128
 71
    -2
 72
     1
 73
     4
  0
SEQEND
  5
24F
330
248
100
AcDbEntity
  8
0
  0
POLYLINE
  5
250
330
1F
100
AcDbEntity
  8
0
100
AcDbPolyFaceMesh
 66
     1
 10
0.0
 20
0.0
 30
0.0
 70
    64
 71
     4
 72
     2
  0
VERTEX
  5
251
330
250
100
AcDbEntity
  8
0
100
AcDbVertex
100
AcDbPolyFaceMeshVertex
 10
0.0000000000000004
 20
0.1092106884940577
 30
2.49761346599482
 70
   192
  0
VERTEX
  5
252
330
250
100
AcDbEntity
  8
0
100
AcDbVertex
100
AcDbPolyFaceMeshVertex
 10
-10.0
 20
0.7519193568271972
 30
2.384243544780729
 70
   192
  0
VERTEX
  5
253
330
250
100
AcDbEntity
  8
0
100
AcDbVertex
100
AcDbPolyFaceMeshVertex
 10
-10.0
 20
0.1092106884940579
 30
2.497613465994819
 70
   192
  0
VERTEX
  5
254
330
250
100
AcDbEntity
  8
0
100
AcDbVertex
100
AcDbPolyFaceMeshVertex
 10
0.0
 20
0.7519193568271968
 30
2.384243544780728
 70
   192
  0
VERTEX
  5
255
330
250
100
AcDbEntity
  8
0
100
AcDbFaceRecord
 10
0.0
 20
0.0
 30
0.0
 70
   128
 71
    -1
 72
     2
 73
     3
  0
VERTEX
  5
256
330
250
100
AcDbEntity
  8
0
100
AcDbFaceRecord
 10
0.0
 20
0.0
 30
0.0
 70
   128
 71
    -2
 72
     1
 73
     4
  0
SEQEND
  5
257
330
250
100
AcDbEntity
  8
0
  0
POLYLINE
  5
258
330
1F
100
AcDbEntity
  8
0
100
AcDbPolyFaceMesh
 66
     1
 10
0.0
 20
0.0
 30
0.0
 70
    64
 71
     4
 72
     2
  0
VERTEX
  5
259
330
258
100
AcDbEntity
  8
0
100
AcDbVertex
100
AcDbPolyFaceMeshVertex
 10
0.0000000000000004
 20
-2.384243544780728
 30
0.7519193568271975
 70
   192
  0
VERTEX
  5
25A
330
258
100
AcDbEntity
  8
0
100
AcDbVertex
100
AcDbPolyFaceMeshVertex
 10
-10.0
 20
-2.497613465994819
 30
0.1092106884940588
 70
   192
  0
VERTEX
  5
25B
330
258
100
AcDbEntity
  8
0
100
AcDbVertex
100
AcDbPolyFaceMeshVertex
 10
0.0
 20
-2.497613465994819
 30
0.1092106884940584
 70
   192
  0
VERTEX
  5
25C
330
258
100
AcDbEntity
  8
0
100
AcDbVertex
100
AcDbPolyFaceMeshVertex
 10
-10.0
 20
-2.384243544780728
 30
0.7519193568271981
 70
   192
  0
VERTEX
  5
25D
330
258
100
AcDbEntity
  8
0
100
AcDbFaceRecord
 10
0.0
 20
0.0
 30
0.0
 70
   128
 71
    -1
 72
     2
 73
     3
  0
VERTEX
  5
25E
330
258
100
AcDbEntity
  8
0
100
AcDbFaceRecord
 10
0.0
 20
0.0
 30
0.0
 70
   128
 71
    -2
 72
     1
 73
     4
  0
SEQEND
  5
25F
330
258
100
AcDbEntity
  8
0
  0
POLYLINE
  5
260
330
1F
100
AcDbEntity
  8
0
100
AcDbPolyFaceMesh
 66
     1
 10
0.0
 20
0.0
 30
0.0
 70
    64
 71
     4
 72
     2
  0
VERTEX
  5
261
330
260
100
AcDbEntity
  8
0
100
AcDbVertex
100
AcDbPolyFaceMeshVertex
 10
-10.0
 20
0.3535533905932735
 30
1.146446609406727
 70
   192
  0
VERTEX
  5
262
330
260
100
AcDbEntity
  8
0
100
AcDbVertex
100
AcDbPolyFaceMeshVertex
 10
-30.0
 20
0.2500000000000008
 30
1.066987298107781
 70
   192
  0
VERTEX
  5
263
330
260
100
AcDbEntity
  8
0
100
AcDbVertex
100
AcDbPolyFaceMeshVertex
 10
-30.00000000000001
 20
0.3535533905932745
 30
1.146446609406727
 70
   192
  0
VERTEX
  5
264
330
260
100
AcDbEntity
  8
0
100
AcDbVertex
100
AcDbPolyFaceMeshVertex
 10
-10.0
 20
0.25
 30
1.066987298107781
 70
   192
  0
VERTEX
  5
265
330
260
100
AcDbEntity
  8
0
100
AcDbFaceRecord
 10
0.0
 20
0.0
 30
0.0
 70
   128
 71
    -1
 72
     2
 73
     3
  0
VERTEX
  5
266
330
260
100
AcDbEntity
  8
0
100
AcDbFaceRecord
 10
0.0
 20
0.0
 30
0.0
 70
   128
 71
    -2
 72
     1
 73
     4
  0
SEQEND
  5
267
330
260
100
AcDbEntity
  8
0
  0
POLYLINE
  5
268
330
1F
100
AcDbEntity
  8
0
100
AcDbPolyFaceMesh
 66
     1
 10
0.0
 20
0.0
 30
0.0
 70
    64
 71
     4
 72
     2
  0
VERTEX
  5
269
330
268
100
AcDbEntity
  8
0
100
AcDbVertex
100
AcDbPolyFaceMeshVertex
 10
0.0
 20
-1.688855800175573
 30
1.843303036999974
 70
   192
  0
VERTEX
  5
26A
330
268
100
AcDbEntity
  8
0
100
AcDbVertex
100
AcDbPolyFaceMeshVertex
 10
-10.0
 20
-2.108391366138585
 30
1.343385963598053
 70
   192
  0
VERTEX
  5
26B
330
268
100
AcDbEntity
  8
0
100
AcDbVertex
100
AcDbPolyFaceMeshVertex
 10
0.0
 20
-2.108391366138585
 30
1.343385963598053
 70
   192
  0
VERTEX
  5
26C
330
268
100
AcDbEntity
  8
0
100
AcDbVertex
100
AcDbPolyFaceMeshVertex
 10
-10.0
 20
-1.688855800175573
 30
1.843303036999974
 70
   192
  0
VERTEX
  5
26D
330
268
100
AcDbEntity
  8
0
100
AcDbFaceRecord
 10
0.0
 20
0.0
 30
0.0
 70
   128
 71
    -1
 72
     2
 73
     3
  0
VERTEX
  5
26E
330
268
100
AcDbEntity
  8
0
100
AcDbFaceRecord
 10
0.0
 20
0.0
 30
0.0
 70
   128
 71
    -2
 72
     1
 73
     4
  0
SEQEND
  5
26F
330
268
100
AcDbEntity
  8
0
  0
POLYLINE
  5
270
330
1F
100
AcDbEntity
  8
0
100
AcDbPolyFaceMesh
 66
     1
 10
0.0
 20
0.0
 30
0.0
 70
    64
 71
     4
 72
     2
  0
VERTEX
  5
271
330
270
100
AcDbEntity
  8
0
100
AcDbVertex
100
AcDbPolyFaceMeshVertex
 10
-10.0
 20
-0.3535533905932737
 30
1.146446609406727
 70
   192
  0
VERTEX
  5
272
330
270
100
AcDbEntity
  8
0
100
AcDbVertex
100
AcDbPolyFaceMeshVertex
 10
-30.0
 20
-0.433012701892218
 30
1.25
 70
   192
  0
VERTEX
  5
273
330
270
100
AcDbEntity
  8
0
100
AcDbVertex
100
AcDbPolyFaceMeshVertex
 10
-30.0
 20
-0.3535533905932736
 30
1.146446609406727
 70
   192
  0
VERTEX
  5
274
330
270
100
AcDbEntity
  8
0
100
AcDbVertex
100
AcDbPolyFaceMeshVertex
 10
-10.0
 20
-0.4330127018922193
 30
1.25
 70
   192
  0
VERTEX
  5
275
330
270
100
AcDbEntity
  8
0
100
AcDbFaceRecord
 10
0.0
 20
0.0
 30
0.0
 70
   128
 71
    -1
 72
     2
 73
     3
  0
VERTEX
  5
276
330
270
100
AcDbEntity
  8
0
100
AcDbFaceRecord
 10
0.0
 20
0.0
 30
0.0
 70
   128
 71
    -2
 72
     1
 73
     4
  0
SEQEND
  5
277
330
270
100
AcDbEntity
  8
0
  0
POLYLINE
  5
278
330
1F
100
AcDbEntity
  8
0
100
AcDbPolyFaceMesh
 66
     1
 10
0.0
 20
0.0
 30
0.0
 70
    64
 71
     4
 72
     2
  0
VERTEX
  5
279
330
278
100
AcDbEntity
  8
0
100
AcDbVertex
100
AcDbPolyFaceMeshVertex
 10
-10.0
 20
-0.4829629131445338
 30
1.629409522551261
 70
   192
  0
VERTEX
  5
27A
330
278
100
AcDbEntity
  8
0
100
AcDbVertex
100
AcDbPolyFaceMeshVertex
 10
-30.00000000000001
 20
-0.4999999999999991
 30
1.500000000000002
 70
   192
  0
VERTEX
  5
27B
330
278
100
AcDbEntity
  8
0
100
AcDbVertex
100
AcDbPolyFaceMeshVertex
 10
-10.0
 20
-0.4999999999999993
 30
1.5
 70
   192
  0
VERTEX
  5
27C
330
278
100
AcDbEntity
  8
0
100
AcDbVertex
100
AcDbPolyFaceMeshVertex
 10
-30.00000000000001
 20
-0.482962913144532
 30
1.62940952255126
 70
   192
  0
VERTEX
  5
27D
330
278
100
AcDbEntity
  8
0
100
AcDbFaceRecord
 10
0.0
 20
0.0
 30
0.0
 70
   128
 71
    -1
 72
     2
 73
     3
  0
VERTEX
  5
27E
330
278
100
AcDbEntity
  8
0
100
AcDbFaceRecord
 10
0.0
 20
0.0
 30
0.0
 70
   128
 71
    -2
 72
     1
 73
     4
  0
SEQEND
  5
27F
330
278
100
AcDbEntity
  8
0
  0
POLYLINE
  5
280
330
1F
100
AcDbEntity
  8
0
100
AcDbPolyFaceMesh
 66
     1
 10
0.0
 20
0.0
 30
0.0
 70
    64
 71
     4
 72
     2
  0
VERTEX
  5
281
330
280
100
AcDbEntity
  8
0
100
AcDbVertex
100
AcDbPolyFaceMeshVertex
 10
-30.0
 20
0.0000000000000007
 30
2.0
 70
   192
  0
VERTEX
  5
282
330
280
100
AcDbEntity
  8
0
100
AcDbVertex
100
AcDbPolyFaceMeshVertex
 10
-10.0
 20
0.1294095225512603
 30
1.982962913144534
 70
   192
  0
VERTEX
  5
283
330
280
100
AcDbEntity
  8
0
100
AcDbVertex
100
AcDbPolyFaceMeshVertex
 10
-30.00000000000001
 20
0.1294095225512619
 30
1.982962913144533
 70
   192
  0
VERTEX
  5
284
330
280
100
AcDbEntity
  8
0
100
AcDbVertex
100
AcDbPolyFaceMeshVertex
 10
-10.0
 20
0.0000000000000004
 30
2.0
 70
   192
  0
VERTEX
  5
285
330
280
100
AcDbEntity
  8
0
100
AcDbFaceRecord
 10
0.0
 20
0.0
 30
0.0
 70
   128
 71
    -1
 72
     2
 73
     3
  0
VERTEX
  5
286
330
280
100
AcDbEntity
  8
0
100
AcDbFaceRecord
 10
0.0
 20
0.0
 30
0.0
 70
   128
 71
    -2
 72
     1
 73
     4
  0
SEQEND
  5
287
330
280
100
AcDbEntity
  8
0
  0
POLYLINE
  5
288
330
1F
100
AcDbEntity
  8
0
100
AcDbPolyFaceMesh
 66
     1
 10
0.0
 20
0.0
 30
0.0
 70
    64
 71
     4
 72
     2
  0
VERTEX
  5
289
330
288
100
AcDbEntity
  8
0
100
AcDbVertex
100
AcDbPolyFaceMeshVertex
 10
-30.00000000000001
 20
0.4330127018922196
 30
1.750000000000001
 70
   192
  0
VERTEX
  5
28A
330
288
100
AcDbEntity
  8
0
100
AcDbVertex
100
AcDbPolyFaceMeshVertex
 10
-10.0
 20
0.3535533905932738
 30
1.853553390593274
 70
   192
  0
VERTEX
  5
28B
330
288
100
AcDbEntity
  8
0
100
AcDbVertex
100
AcDbPolyFaceMeshVertex
 10
-10.0
 20
0.4330127018922193
 30
1.750000000000001
 70
   192
  0
VERTEX
  5
28C
330
288
100
AcDbEntity
  8
0
100
AcDbVertex
100
AcDbPolyFaceMeshVertex
 10
-30.00000000000001
 20
0.3535533905932753
 30
1.853553390593273
 70
   192
  0
VERTEX
  5
28D
330
288
100
AcDbEntity
  8
0
100
AcDbFaceRecord
 10
0.0
 20
0.0
 30
0.0
 70
   128
 71
    -1
 72
     2
 73
     3
  0
VERTEX
  5
28E
330
288
100
AcDbEntity
  8
0
100
AcDbFaceRecord
 10
0.0
 20
0.0
 30
0.0
 70
   128
 71
    -2
 72
     1
 73
     4
  0
SEQEND
  5
28F
330
288
100
AcDbEntity
  8
0
  0
POLYLINE
  5
290
330
1F
100
AcDbEntity
  8
0
100
AcDbPolyFaceMesh
 66
     1
 10
0.0
 20
0.0
 30
0.0
 70
    64
 71
     4
 72
     2
  0
VERTEX
  5
291
330
290
100
AcDbEntity
  8
0
100
AcDbVertex
100
AcDbPolyFaceMeshVertex
 10
-10.0
 20
-0.1294095225512607
 30
1.017037086855467
 70
   192
  0
VERTEX
  5
292
330
290
100
AcDbEntity
  8
0
100
AcDbVertex
100
AcDbPolyFaceMeshVertex
 10
-30.0
 20
-0.2499999999999992
 30
1.066987298107783
 70
   192
  0
VERTEX
  5
293
330
290
100
AcDbEntity
  8
0
100
AcDbVertex
100
AcDbPolyFaceMeshVertex
 10
-30.0
 20
-0.1294095225512595
 30
1.017037086855467
 70
   192
  0
VERTEX
  5
294
330
290
100
AcDbEntity
  8
0
100
AcDbVertex
100
AcDbPolyFaceMeshVertex
 10
-10.0
 20
-0.2499999999999999
 30
1.066987298107781
 70
   192
  0
VERTEX
  5
295
330
290
100
AcDbEntity
  8
0
100
AcDbFaceRecord
 10
0.0
 20
0.0
 30
0.0
 70
   128
 71
    -1
 72
     2
 73
     3
  0
VERTEX
  5
296
330
290
100
AcDbEntity
  8
0
100
AcDbFaceRecord
 10
0.0
 20
0.0
 30
0.0
 70
   128
 71
    -2
 72
     1
 73
     4
  0
SEQEND
  5
297
330
290
100
AcDbEntity
  8
0
  0
POLYLINE
  5
298
330
1F
100
AcDbEntity
  8
0
100
AcDbPolyFaceMesh
 66
     1
 10
0.0
 20
0.0
 30
0.0
 70
    64
 71
     4
 72
     2
  0
VERTEX
  5
299
330
298
100
AcDbEntity
  8
0
100
AcDbVertex
100
AcDbPolyFaceMeshVertex
 10
-9.999999999999998
 20
-0.4829629131445341
 30
1.37059047744874
 70
   192
  0
VERTEX
  5
29A
330
298
100
AcDbEntity
  8
0
100
AcDbVertex
100
AcDbPolyFaceMeshVertex
 10
-30.0
 20
-0.433012701892218
 30
1.25
 70
   192
  0
VERTEX
  5
29B
330
298
100
AcDbEntity
  8
0
100
AcDbVertex
100
AcDbPolyFaceMeshVertex
 10
-10.0
 20
-0.4330127018922193
 30
1.25
 70
   192
  0
VERTEX
  5
29C
330
298
100
AcDbEntity
  8
0
100
AcDbVertex
100
AcDbPolyFaceMeshVertex
 10
-30.00000000000001
 20
-0.4829629131445329
 30
1.37059047744874
 70
   192
  0
VERTEX
  5
29D
330
298
100
AcDbEntity
  8
0
100
AcDbFaceRecord
 10
0.0
 20
0.0
 30
0.0
 70
   128
 71
    -1
 72
     2
 73
     3
  0
VERTEX
  5
29E
330
298
100
AcDbEntity
  8
0
100
AcDbFaceRecord
 10
0.0
 20
0.0
 30
0.0
 70
   128
 71
    -2
 72
     1
 73
     4
  0
SEQEND
  5
29F
330
298
100
AcDbEntity
  8
0
  0
POLYLINE
  5
2A0
330
1F
100
AcDbEntity
  8
0
100
AcDbPolyFaceMesh
 66
     1
 10
0.0
 20
0.0
 30
0.0
 70
    64
 71
     4
 72
     2
  0
VERTEX
  5
2A1
330
2A0
100
AcDbEntity
  8
0
100
AcDbVertex
100
AcDbPolyFaceMeshVertex
 10
0.0
 20
-1.343385963598053
 30
-2.108391366138586
 70
   192
  0
VERTEX
  5
2A2
330
2A0
100
AcDbEntity
  8
0
100
AcDbVertex
100
AcDbPolyFaceMeshVertex
 10
-10.0
 20
-1.843303036999973
 30
-1.688855800175573
 70
   192
  0
VERTEX
  5
2A3
330
2A0
100
AcDbEntity
  8
0
100
AcDbVertex
100
AcDbPolyFaceMeshVertex
 10
-10.0
 20
-1.343385963598053
 30
-2.108391366138586
 70
   192
  0
VERTEX
  5
2A4
330
2A0
100
AcDbEntity
  8
0
100
AcDbVertex
100
AcDbPolyFaceMeshVertex
 10
0.0
 20
-1.843303036999973
 30
-1.688855800175573
 70
   192
  0
VERTEX
  5
2A5
330
2A0
100
AcDbEntity
  8
0
100
AcDbFaceRecord
 10
0.0
 20
0.0
 30
0.0
 70
   128
 71
    -1
 72
     2
 73
     3
  0
VERTEX
  5
2A6
330
2A0
100
AcDbEntity
  8
0
100
AcDbFaceRecord
 10
0.0
 20
0.0
 30
0.0
 70
   128
 71
    -2
 72
     1
 73
     4
  0
SEQEND
  5
2A7
330
2A0
100
AcDbEntity
  8
0
  0
POLYLINE
  5
2A8
330
1F
100
AcDbEntity
  8
0
100
AcDbPolyFaceMesh
 66
     1
 10
0.0
 20
0.0
 30
0.0
 70
    64
 71
     4
 72
     2
  0
VERTEX
  5
2A9
330
2A8
100
AcDbEntity
  8
0
100
AcDbVertex
100
AcDbPolyFaceMeshVertex
 10
-10.0
 20
0.1294095225512603
 30
1.982962913144534
 70
   192
  0
VERTEX
  5
2AA
330
2A8
100
AcDbEntity
  8
0
100
AcDbVertex
100
AcDbPolyFaceMeshVertex
 10
-30.00000000000001
 20
0.2500000000000008
 30
1.93301270189222
 70
   192
  0
VERTEX
  5
2AB
330
2A8
100
AcDbEntity
  8
0
100
AcDbVertex
100
AcDbPolyFaceMeshVertex
 10
-30.00000000000001
 20
0.1294095225512619
 30
1.982962913144533
 70
   192
  0
VERTEX
  5
2AC
330
2A8
100
AcDbEntity
  8
0
100
AcDbVertex
100
AcDbPolyFaceMeshVertex
 10
-9.999999999999998
 20
0.2500000000000001
 30
1.93301270189222
 70
   192
  0
VERTEX
  5
2AD
330
2A8
100
AcDbEntity
  8
0
100
AcDbFaceRecord
 10
0.0
 20
0.0
 30
0.0
 70
   128
 71
    -1
 72
     2
 73
     3
  0
VERTEX
  5
2AE
330
2A8
100
AcDbEntity
  8
0
100
AcDbFaceRecord
 10
0.0
 20
0.0
 30
0.0
 70
   128
 71
    -2
 72
     1
 73
     4
  0
SEQEND
  5
2AF
330
2A8
100
AcDbEntity
  8
0
  0
POLYLINE
  5
2B0
330
1F
100
AcDbEntity
  8
0
100
AcDbPolyFaceMesh
 66
     1
 10
0.0
 20
0.0
 30
0.0
 70
    64
 71
     4
 72
     2
  0
VERTEX
  5
2B1
330
2B0
100
AcDbEntity
  8
0
100
AcDbVertex
100
AcDbPolyFaceMeshVertex
 10
-10.0
 20
0.1294095225512605
 30
1.017037086855466
 70
   192
  0
VERTEX
  5
2B2
330
2B0
100
AcDbEntity
  8
0
100
AcDbVertex
100
AcDbPolyFaceMeshVertex
 10
-30.00000000000001
 20
0.0000000000000018
 30
0.9999999999999996
 70
   192
  0
VERTEX
  5
2B3
330
2B0
100
AcDbEntity
  8
0
100
AcDbVertex
100
AcDbPolyFaceMeshVertex
 10
-30.00000000000001
 20
0.1294095225512614
 30
1.017037086855467
 70
   192
  0
VERTEX
  5
2B4
330
2B0
100
AcDbEntity
  8
0
100
AcDbVertex
100
AcDbPolyFaceMeshVertex
 10
-10.0
 20
0.0000000000000001
 30
1.000000000000001
 70
   192
  0
VERTEX
  5
2B5
330
2B0
100
AcDbEntity
  8
0
100
AcDbFaceRecord
 10
0.0
 20
0.0
 30
0.0
 70
   128
 71
    -1
 72
     2
 73
     3
  0
VERTEX
  5
2B6
330
2B0
100
AcDbEntity
  8
0
100
AcDbFaceRecord
 10
0.0
 20
0.0
 30
0.0
 70
   128
 71
    -2
 72
     1
 73
     4
  0
SEQEND
  5
2B7
330
2B0
100
AcDbEntity
  8
0
  0
POLYLINE
  5
2B8
330
1F
100
AcDbEntity
  8
0
100
AcDbPolyFaceMesh
 66
     1
 10
0.0
 20
0.0
 30
0.0
 70
    64
 71
     4
 72
     2
  0
VERTEX
  5
2B9
330
2B8
100
AcDbEntity
  8
0
100
AcDbVertex
100
AcDbPolyFaceMeshVertex
 10
0.0
 20
-2.108391366138585
 30
1.343385963598053
 70
   192
  0
VERTEX
  5
2BA
330
2B8
100
AcDbEntity
  8
0
100
AcDbVertex
100
AcDbPolyFaceMeshVertex
 10
-10.0
 20
-2.384243544780728
 30
0.7519193568271981
 70
   192
  0
VERTEX
  5
2BB
330
2B8
100
AcDbEntity
  8
0
100
AcDbVertex
100
AcDbPolyFaceMeshVertex
 10
0.0000000000000004
 20
-2.384243544780728
 30
0.7519193568271975
 70
   192
  0
VERTEX
  5
2BC
330
2B8
100
AcDbEntity
  8
0
100
AcDbVertex
100
AcDbPolyFaceMeshVertex
 10
-10.0
 20
-2.108391366138585
 30
1.343385963598053
 70
   192
  0
VERTEX
  5
2BD
330
2B8
100
AcDbEntity
  8
0
100
AcDbFaceRecord
 10
0.0
 20
0.0
 30
0.0
 70
   128
 71
    -1
 72
     2
 73
     3
  0
VERTEX
  5
2BE
330
2B8
100
AcDbEntity
  8
0
100
AcDbFaceRecord
 10
0.0
 20
0.0
 30
0.0
 70
   128
 71
    -2
 72
     1
 73
     4
  0
SEQEND
  5
2BF
330
2B8
100
AcDbEntity
  8
0
  0
POLYLINE
  5
2C0
330
1F
100
AcDbEntity
  8
0
100
AcDbPolyFaceMesh
 66
     1
 10
0.0
 20
0.0
 30
0.0
 70
    64
 71
     4
 72
     2
  0
VERTEX
  5
2C1
330
2C0
100
AcDbEntity
  8
0
100
AcDbVertex
100
AcDbPolyFaceMeshVertex
 10
-10.0
 20
-0.3535533905932735
 30
1.853553390593274
 70
   192
  0
VERTEX
  5
2C2
330
2C0
100
AcDbEntity
  8
0
100
AcDbVertex
100
AcDbPolyFaceMeshVertex
 10
-30.0
 20
-0.249999999999999
 30
1.93301270189222
 70
   192
  0
VERTEX
  5
2C3
330
2C0
100
AcDbEntity
  8
0
100
AcDbVertex
100
AcDbPolyFaceMeshVertex
 10
-30.0
 20
-0.3535533905932729
 30
1.853553390593275
 70
   192
  0
VERTEX
  5
2C4
330
2C0
100
AcDbEntity
  8
0
100
AcDbVertex
100
AcDbPolyFaceMeshVertex
 10
-10.0
 20
-0.2499999999999994
 30
1.93301270189222
 70
   192
  0
VERTEX
  5
2C5
330
2C0
100
AcDbEntity
  8
0
100
AcDbFaceRecord
 10
0.0
 20
0.0
 30
0.0
 70
   128
 71
    -1
 72
     2
 73
     3
  0
VERTEX
  5
2C6
330
2C0
100
AcDbEntity
  8
0
100
AcDbFaceRecord
 10
0.0
 20
0.0
 30
0.0
 70
   128
 71
    -2
 72
     1
 73
     4
  0
SEQEND
  5
2C7
330
2C0
100
AcDbEntity
  8
0
  0
POLYLINE
  5
2C8
330
1F
100
AcDbEntity
  8
0
100
AcDbPolyFaceMesh
 66
     1
 10
0.0
 20
0.0
 30
0.0
 70
    64
 71
     4
 72
     2
  0
VERTEX
  5
2C9
330
2C8
100
AcDbEntity
  8
0
100
AcDbVertex
100
AcDbPolyFaceMeshVertex
 10
-30.00000000000001
 20
0.5000000000000007
 30
1.500000000000002
 70
   192
  0
VERTEX
  5
2CA
330
2C8
100
AcDbEntity
  8
0
100
AcDbVertex
100
AcDbPolyFaceMeshVertex
 10
-10.0
 20
0.4829629131445339
 30
1.370590477448739
 70
   192
  0
VERTEX
  5
2CB
330
2C8
100
AcDbEntity
  8
0
100
AcDbVertex
100
AcDbPolyFaceMeshVertex
 10
-30.00000000000001
 20
0.4829629131445352
 30
1.370590477448739
 70
   192
  0
VERTEX
  5
2CC
330
2C8
100
AcDbEntity
  8
0
100
AcDbVertex
100
AcDbPolyFaceMeshVertex
 10
-10.0
 20
0.4999999999999999
 30
1.5
 70
   192
  0
VERTEX
  5
2CD
330
2C8
100
AcDbEntity
  8
0
100
AcDbFaceRecord
 10
0.0
 20
0.0
 30
0.0
 70
   128
 71
    -1
 72
     2
 73
     3
  0
VERTEX
  5
2CE
330
2C8
100
AcDbEntity
  8
0
100
AcDbFaceRecord
 10
0.0
 20
0.0
 30
0.0
 70
   128
 71
    -2
 72
     1
 73
     4
  0
SEQEND
  5
2CF
330
2C8
100
AcDbEntity
  8
0
  0
POLYLINE
  5
2D0
330
1F
100
AcDbEntity
  8
0
100
AcDbPolyFaceMesh
 66
     1
 10
0.0
 20
0.0
 30
0.0
 70
    64
 71
     4
 72
     2
  0
VERTEX
  5
2D1
330
2D0
100
AcDbEntity
  8
0
100
AcDbVertex
100
AcDbPolyFaceMeshVertex
 10
-30.00000000000001
 20
0.4330127018922197
 30
1.25
 70
   192
  0
VERTEX
  5
2D2
330
2D0
100
AcDbEntity
  8
0
100
AcDbVertex
100
AcDbPolyFaceMeshVertex
 10
-10.0
 20
0.3535533905932735
 30
1.146446609406727
 70
   192
  0
VERTEX
  5
2D3
330
2D0
100
AcDbEntity
  8
0
100
AcDbVertex
100
AcDbPolyFaceMeshVertex
 10
-30.00000000000001
 20
0.3535533905932745
 30
1.146446609406727
 70
   192
  0
VERTEX
  5
2D4
330
2D0
100
AcDbEntity
  8
0
100
AcDbVertex
100
AcDbPolyFaceMeshVertex
 10
-10.0
 20
0.4330127018922192
 30
1.25
 70
   192
  0
VERTEX
  5
2D5
330
2D0
100
AcDbEntity
  8
0
100
AcDbFaceRecord
 10
0.0
 20
0.0
 30
0.0
 70
   128
 71
    -1
 72
     2
 73
     3
  0
VERTEX
  5
2D6
330
2D0
100
AcDbEntity
  8
0
100
AcDbFaceRecord
 10
0.0
 20
0.0
 30
0.0
 70
   128
 71
    -2
 72
     1
 73
     4
  0
SEQEND
  5
2D7
330
2D0
100
AcDbEntity
  8
0
  0
POLYLINE
  5
2D8
330
1F
100
AcDbEntity
  8
0
100
AcDbPolyFaceMesh
 66
     1
 10
0.0
 20
0.0
 30
0.0
 70
    64
 71
     4
 72
     2
  0
VERTEX
  5
2D9
330
2D8
100
AcDbEntity
  8
0
100
AcDbVertex
100
AcDbPolyFaceMeshVertex
 10
-10.0
 20
-0.3535533905932735
 30
1.853553390593274
 70
   192
  0
VERTEX
  5
2DA
330
2D8
100
AcDbEntity
  8
0
100
AcDbVertex
100
AcDbPolyFaceMeshVertex
 10
-30.0
 20
-0.4330127018922182
 30
1.750000000000001
 70
   192
  0
VERTEX
  5
2DB
330
2D8
100
AcDbEntity
  8
0
100
AcDbVertex
100
AcDbPolyFaceMeshVertex
 10
-10.0
 20
-0.4330127018922189
 30
1.75
 70
   192
  0
VERTEX
  5
2DC
330
2D8
100
AcDbEntity
  8
0
100
AcDbVertex
100
AcDbPolyFaceMeshVertex
 10
-30.0
 20
-0.3535533905932729
 30
1.853553390593275
 70
   192
  0
VERTEX
  5
2DD
330
2D8
100
AcDbEntity
  8
0
100
AcDbFaceRecord
 10
0.0
 20
0.0
 30
0.0
 70
   128
 71
    -1
 72
     2
 73
     3
  0
VERTEX
  5
2DE
330
2D8
100
AcDbEntity
  8
0
100
AcDbFaceRecord
 10
0.0
 20
0.0
 30
0.0
 70
   128
 71
    -2
 72
     1
 73
     4
  0
SEQEND
  5
2DF
330
2D8
100
AcDbEntity
  8
0
  0
POLYLINE
  5
2E0
330
1F
100
AcDbEntity
  8
0
100
AcDbPolyFaceMesh
 66
     1
 10
0.0
 20
0.0
 30
0.0
 70
    64
 71
     4
 72
     2
  0
VERTEX
  5
2E1
330
2E0
100
AcDbEntity
  8
0
100
AcDbVertex
100
AcDbPolyFaceMeshVertex
 10
-9.999999999999998
 20
0.2500000000000001
 30
1.93301270189222
 70
   192
  0
VERTEX
  5
2E2
330
2E0
100
AcDbEntity
  8
0
100
AcDbVertex
100
AcDbPolyFaceMeshVertex
 10
-30.00000000000001
 20
0.3535533905932753
 30
1.853553390593273
 70
   192
  0
VERTEX
  5
2E3
330
2E0
100
AcDbEntity
  8
0
100
AcDbVertex
100
AcDbPolyFaceMeshVertex
 10
-30.00000000000001
 20
0.2500000000000008
 30
1.93301270189222
 70
   192
  0
VERTEX
  5
2E4
330
2E0
100
AcDbEntity
  8
0
100
AcDbVertex
100
AcDbPolyFaceMeshVertex
 10
-10.0
 20
0.3535533905932738
 30
1.853553390593274
 70
   192
  0
VERTEX
  5
2E5
330
2E0
100
AcDbEntity
  8
0
100
AcDbFaceRecord
 10
0.0
 20
0.0
 30
0.0
 70
   128
 71
    -1
 72
     2
 73
     3
  0
VERTEX
  5
2E6
330
2E0
100
AcDbEntity
  8
0
100
AcDbFaceRecord
 10
0.0
 20
0.0
 30
0.0
 70
   128
 71
    -2
 72
     1
 73
     4
  0
SEQEND
  5
2E7
330
2E0
100
AcDbEntity
  8
0
  0
POLYLINE
  5
2E8
330
1F
100
AcDbEntity
  8
0
100
AcDbPolyFaceMesh
 66
     1
 10
0.0
 20
0.0
 30
0.0
 70
    64
 71
     4
 72
     2
  0
VERTEX
  5
2E9
330
2E8
100
AcDbEntity
  8
0
100
AcDbVertex
100
AcDbPolyFaceMeshVertex
 10
-30.00000000000001
 20
0.4330127018922196
 30
1.750000000000001
 70
   192
  0
VERTEX
  5
2EA
330
2E8
100
AcDbEntity
  8
0
100
AcDbVertex
100
AcDbPolyFaceMeshVertex
 10
-10.0
 20
0.4829629131445342
 30
1.629409522551261
 70
   192
  0
VERTEX
  5
2EB
330
2E8
100
AcDbEntity
  8
0
100
AcDbVertex
100
AcDbPolyFaceMeshVertex
 10
-30.0
 20
0.4829629131445346
 30
1.629409522551261
 70
   192
  0
VERTEX
  5
2EC
330
2E8
100
AcDbEntity
  8
0
100
AcDbVertex
100
AcDbPolyFaceMeshVertex
 10
-10.0
 20
0.4330127018922193
 30
1.750000000000001
 70
   192
  0
VERTEX
  5
2ED
330
2E8
100
AcDbEntity
  8
0
100
AcDbFaceRecord
 10
0.0
 20
0.0
 30
0.0
 70
   128
 71
    -1
 72
     2
 73
     3
  0
VERTEX
  5
2EE
330
2E8
100
AcDbEntity
  8
0
100
AcDbFaceRecord
 10
0.0
 20
0.0
 30
0.0
 70
   128
 71
    -2
 72
     1
 73
     4
  0
SEQEND
  5
2EF
330
2E8
100
AcDbEntity
  8
0
  0
POLYLINE
  5
2F0
330
1F
100
AcDbEntity
  8
0
100
AcDbPolyFaceMesh
 66
     1
 10
0.0
 20
0.0
 30
0.0
 70
    64
 71
     4
 72
     2
  0
VERTEX
  5
2F1
330
2F0
100
AcDbEntity
  8
0
100
AcDbVertex
100
AcDbPolyFaceMeshVertex
 10
-30.00000000000001
 20
0.5000000000000007
 30
1.500000000000002
 70
   192
  0
VERTEX
  5
2F2
330
2F0
100
AcDbEntity
  8
0
100
AcDbVertex
100
AcDbPolyFaceMeshVertex
 10
-10.0
 20
0.4829629131445342
 30
1.629409522551261
 70
   192
  0
VERTEX
  5
2F3
330
2F0
100
AcDbEntity
  8
0
100
AcDbVertex
100
AcDbPolyFaceMeshVertex
 10
-10.0
 20
0.4999999999999999
 30
1.5
 70
   192
  0
VERTEX
  5
2F4
330
2F0
100
AcDbEntity
  8
0
100
AcDbVertex
100
AcDbPolyFaceMeshVertex
 10
-30.0
 20
0.4829629131445346
 30
1.629409522551261
 70
   192
  0
VERTEX
  5
2F5
330
2F0
100
AcDbEntity
  8
0
100
AcDbFaceRecord
 10
0.0
 20
0.0
 30
0.0
 70
   128
 71
    -1
 72
     2
 73
     3
  0
VERTEX
  5
2F6
330
2F0
100
AcDbEntity
  8
0
100
AcDbFaceRecord
 10
0.0
 20
0.0
 30
0.0
 70
   128
 71
    -2
 72
     1
 73
     4
  0
SEQEND
  5
2F7
330
2F0
100
AcDbEntity
  8
0
  0
POLYLINE
  5
2F8
330
1F
100
AcDbEntity
  8
0
100
AcDbPolyFaceMesh
 66
     1
 10
0.0
 20
0.0
 30
0.0
 70
    64
 71
     4
 72
     2
  0
VERTEX
  5
2F9
330
2F8
100
AcDbEntity
  8
0
100
AcDbVertex
100
AcDbPolyFaceMeshVertex
 10
-9.999999999999998
 20
-0.4829629131445339
 30
-1.37059047744874
 70
   192
  0
VERTEX
  5
2FA
330
2F8
100
AcDbEntity
  8
0
100
AcDbVertex
100
AcDbPolyFaceMeshVertex
 10
-25.0
 20
-0.4330127018922185
 30
-1.25
 70
   192
  0
VERTEX
  5
2FB
330
2F8
100
AcDbEntity
  8
0
100
AcDbVertex
100
AcDbPolyFaceMeshVertex
 10
-25.0
 20
-0.4829629131445331
 30
-1.37059047744874
 70
   192
  0
VERTEX
  5
2FC
330
2F8
100
AcDbEntity
  8
0
100
AcDbVertex
100
AcDbPolyFaceMeshVertex
 10
-10.0
 20
-0.433012701892219
 30
-1.25
 70
   192
  0
VERTEX
  5
2FD
330
2F8
100
AcDbEntity
  8
0
100
AcDbFaceRecord
 10
0.0
 20
0.0
 30
0.0
 70
   128
 71
    -1
 72
     2
 73
     3
  0
VERTEX
  5
2FE
330
2F8
100
AcDbEntity
  8
0
100
AcDbFaceRecord
 10
0.0
 20
0.0
 30
0.0
 70
   128
 71
    -2
 72
     1
 73
     4
  0
SEQEND
  5
2FF
330
2F8
100
AcDbEntity
  8
0
  0
POLYLINE
  5
300
330
1F
100
AcDbEntity
  8
0
100
AcDbPolyFaceMesh
 66
     1
 10
0.0
 20
0.0
 30
0.0
 70
    64
 71
     4
 72
     2
  0
VERTEX
  5
301
330
300
100
AcDbEntity
  8
0
100
AcDbVertex
100
AcDbPolyFaceMeshVertex
 10
-10.0
 20
-0.3535533905932736
 30
-1.146446609406726
 70
   192
  0
VERTEX
  5
302
330
300
100
AcDbEntity
  8
0
100
AcDbVertex
100
AcDbPolyFaceMeshVertex
 10
-25.0
 20
-0.2499999999999986
 30
-1.066987298107781
 70
   192
  0
VERTEX
  5
303
330
300
100
AcDbEntity
  8
0
100
AcDbVertex
100
AcDbPolyFaceMeshVertex
 10
-25.00000000000001
 20
-0.3535533905932723
 30
-1.146446609406727
 70
   192
  0
VERTEX
  5
304
330
300
100
AcDbEntity
  8
0
100
AcDbVertex
100
AcDbPolyFaceMeshVertex
 10
-10.0
 20
-0.2499999999999994
 30
-1.066987298107781
 70
   192
  0
VERTEX
  5
305
330
300
100
AcDbEntity
  8
0
100
AcDbFaceRecord
 10
0.0
 20
0.0
 30
0.0
 70
   128
 71
    -1
 72
     2
 73
     3
  0
VERTEX
  5
306
330
300
100
AcDbEntity
  8
0
100
AcDbFaceRecord
 10
0.0
 20
0.0
 30
0.0
 70
   128
 71
    -2
 72
     1
 73
     4
  0
SEQEND
  5
307
330
300
100
AcDbEntity
  8
0
  0
POLYLINE
  5
308
330
1F
100
AcDbEntity
  8
0
100
AcDbPolyFaceMesh
 66
     1
 10
0.0
 20
0.0
 30
0.0
 70
    64
 71
    24
 72
    22
  0
VERTEX
  5
309
330
308
100
AcDbEntity
  8
0
100
AcDbVertex
100
AcDbPolyFaceMeshVertex
 10
-25.0
 20
-0.4829629131445331
 30
-1.37059047744874
 70
   192
  0
VERTEX
  5
30A
330
308
100
AcDbEntity
  8
0
100
AcDbVertex
100
AcDbPolyFaceMeshVertex
 10
-25.0
 20
-0.4829629131445326
 30
-1.629409522551261
 70
   192
  0
VERTEX
  5
30B
330
308
100
AcDbEntity
  8
0
100
AcDbVertex
100
AcDbPolyFaceMeshVertex
 10
-25.0
 20
-0.4999999999999993
 30
-1.5
 70
   192
  0
VERTEX
  5
30C
330
308
100
AcDbEntity
  8
0
100
AcDbVertex
100
AcDbPolyFaceMeshVertex
 10
-25.0
 20
-0.4330127018922185
 30
-1.25
 70
   192
  0
VERTEX
  5
30D
330
308
100
AcDbEntity
  8
0
100
AcDbVertex
100
AcDbPolyFaceMeshVertex
 10
-25.0
 20
-0.4330127018922182
 30
-1.750000000000001
 70
   192
  0
VERTEX
  5
30E
330
308
100
AcDbEntity
  8
0
100
AcDbVertex
100
AcDbPolyFaceMeshVertex
 10
-25.00000000000001
 20
-0.3535533905932723
 30
-1.146446609406727
 70
   192
  0
VERTEX
  5
30F
330
308
100
AcDbEntity
  8
0
100
AcDbVertex
100
AcDbPolyFaceMeshVertex
 10
-25.0
 20
-0.3535533905932725
 30
-1.853553390593275
 70
   192
  0
VERTEX
  5
310
330
308
100
AcDbEntity
  8
0
100
AcDbVertex
100
AcDbPolyFaceMeshVertex
 10
-25.0
 20
-0.2499999999999988
 30
-1.93301270189222
 70
   192
  0
VERTEX
  5
311
330
308
100
AcDbEntity
  8
0
100
AcDbVertex
100
AcDbPolyFaceMeshVertex
 10
-25.0
 20
-0.2499999999999986
 30
-1.066987298107781
 70
   192
  0
VERTEX
  5
312
330
308
100
AcDbEntity
  8
0
100
AcDbVertex
100
AcDbPolyFaceMeshVertex
 10
-25.0
 20
-0.1294095225512589
 30
-1.982962913144535
 70
   192
  0
VERTEX
  5
313
330
308
100
AcDbEntity
  8
0
100
AcDbVertex
100
AcDbPolyFaceMeshVertex
 10
-25.0
 20
-0.1294095225512586
 30
-1.017037086855466
 70
   192
  0
VERTEX
  5
314
330
308
100
AcDbEntity
  8
0
100
AcDbVertex
100
AcDbPolyFaceMeshVertex
 10
-25.0
 20
0.0000000000000014
 30
-2.0
 70
   192
  0
VERTEX
  5
315
330
308
100
AcDbEntity
  8
0
100
AcDbVertex
100
AcDbPolyFaceMeshVertex
 10
-25.00000000000001
 20
0.0000000000000017
 30
-1.000000000000001
 70
   192
  0
VERTEX
  5
316
330
308
100
AcDbEntity
  8
0
100
AcDbVertex
100
AcDbPolyFaceMeshVertex
 10
-25.0
 20
0.1294095225512612
 30
-1.982962913144535
 70
   192
  0
VERTEX
  5
317
330
308
100
AcDbEntity
  8
0
100
AcDbVertex
100
AcDbPolyFaceMeshVertex
 10
-25.0
 20
0.1294095225512622
 30
-1.017037086855466
 70
   192
  0
VERTEX
  5
318
330
308
100
AcDbEntity
  8
0
100
AcDbVertex
100
AcDbPolyFaceMeshVertex
 10
-25.0
 20
0.2500000000000004
 30
-1.93301270189222
 70
   192
  0
VERTEX
  5
319
330
308
100
AcDbEntity
  8
0
100
AcDbVertex
100
AcDbPolyFaceMeshVertex
 10
-25.0
 20
0.2500000000000012
 30
-1.066987298107782
 70
   192
  0
VERTEX
  5
31A
330
308
100
AcDbEntity
  8
0
100
AcDbVertex
100
AcDbPolyFaceMeshVertex
 10
-25.0
 20
0.3535533905932742
 30
-1.853553390593274
 70
   192
  0
VERTEX
  5
31B
330
308
100
AcDbEntity
  8
0
100
AcDbVertex
100
AcDbPolyFaceMeshVertex
 10
-25.0
 20
0.353553390593275
 30
-1.146446609406728
 70
   192
  0
VERTEX
  5
31C
330
308
100
AcDbEntity
  8
0
100
AcDbVertex
100
AcDbPolyFaceMeshVertex
 10
-25.0
 20
0.4330127018922196
 30
-1.750000000000002
 70
   192
  0
VERTEX
  5
31D
330
308
100
AcDbEntity
  8
0
100
AcDbVertex
100
AcDbPolyFaceMeshVertex
 10
-25.0
 20
0.43301270189222
 30
-1.25
 70
   192
  0
VERTEX
  5
31E
330
308
100
AcDbEntity
  8
0
100
AcDbVertex
100
AcDbPolyFaceMeshVertex
 10
-25.0
 20
0.4829629131445349
 30
-1.629409522551261
 70
   192
  0
VERTEX
  5
31F
330
308
100
AcDbEntity
  8
0
100
AcDbVertex
100
AcDbPolyFaceMeshVertex
 10
-25.0
 20
0.4829629131445358
 30
-1.37059047744874
 70
   192
  0
VERTEX
  5
320
330
308
100
AcDbEntity
  8
0
100
AcDbVertex
100
AcDbPolyFaceMeshVertex
 10
-25.0
 20
0.5000000000000011
 30
-1.500000000000002
 70
   192
  0
VERTEX
  5
321
330
308
100
AcDbEntity
  8
0
100
AcDbFaceRecord
 10
0.0
 20
0.0
 30
0.0
 70
   128
 71
    -1
 72
     2
 73
     3
  0
VERTEX
  5
322
330
308
100
AcDbEntity
  8
0
100
AcDbFaceRecord
 10
0.0
 20
0.0
 30
0.0
 70
   128
 71
    -2
 72
     1
 73
    -4
  0
VERTEX
  5
323
330
308
100
AcDbEntity
  8
0
100
AcDbFaceRecord
 10
0.0
 20
0.0
 30
0.0
 70
   128
 71
    -2
 72
    -4
 73
     5
  0
VERTEX
  5
324
330
308
100
AcDbEntity
  8
0
100
AcDbFaceRecord
 10
0.0
 20
0.0
 30
0.0
 70
   128
 71
    -5
 72
     4
 73
    -6
  0
VERTEX
  5
325
330
308
100
AcDbEntity
  8
0
100
AcDbFaceRecord
 10
0.0
 20
0.0
 30
0.0
 70
   128
 71
    -5
 72
    -6
 73
     7
  0
VERTEX
  5
326
330
308
100
AcDbEntity
  8
0
100
AcDbFaceRecord
 10
0.0
 20
0.0
 30
0.0
 70
   128
 71
    -7
 72
    -6
 73
     8
  0
VERTEX
  5
327
330
308
100
AcDbEntity
  8
0
100
AcDbFaceRecord
 10
0.0
 20
0.0
 30
0.0
 70
   128
 71
    -8
 72
     6
 73
    -9
  0
VERTEX
  5
328
330
308
100
AcDbEntity
  8
0
100
AcDbFaceRecord
 10
0.0
 20
0.0
 30
0.0
 70
   128
 71
    -8
 72
    -9
 73
    10
  0
VERTEX
  5
329
330
308
100
AcDbEntity
  8
0
100
AcDbFaceRecord
 10
0.0
 20
0.0
 30
0.0
 70
   128
 71
   -10
 72
     9
 73
   -11
  0
VERTEX
  5
32A
330
308
100
AcDbEntity
  8
0
100
AcDbFaceRecord
 10
0.0
 20
0.0
 30
0.0
 70
   128
 71
   -10
 72
   -11
 73
    12
  0
VERTEX
  5
32B
330
308
100
AcDbEntity
  8
0
100
AcDbFaceRecord
 10
0.0
 20
0.0
 30
0.0
 70
   128
 71
   -12
 72
    11
 73
   -13
  0
VERTEX
  5
32C
330
308
100
AcDbEntity
  8
0
100
AcDbFaceRecord
 10
0.0
 20
0.0
 30
0.0
 70
   128
 71
   -12
 72
   -13
 73
    14
  0
VERTEX
  5
32D
330
308
100
AcDbEntity
  8
0
100
AcDbFaceRecord
 10
0.0
 20
0.0
 30
0.0
 70
   128
 71
   -14
 72
    13
 73
   -15
  0
VERTEX
  5
32E
330
308
100
AcDbEntity
  8
0
100
AcDbFaceRecord
 10
0.0
 20
0.0
 30
0.0
 70
   128
 71
   -14
 72
   -15
 73
    16
  0
VERTEX
  5
32F
330
308
100
AcDbEntity
  8
0
100
AcDbFaceRecord
 10
0.0
 20
0.0
 30
0.0
 70
   128
 71
   -16
 72
    15
 73
   -17
  0
VERTEX
  5
330
330
308
100
AcDbEntity
  8
0
100
AcDbFaceRecord
 10
0.0
 20
0.0
 30
0.0
 70
   128
 71
   -16
 72
   -17
 73
    18
  0
VERTEX
  5
331
330
308
100
AcDbEntity
  8
0
100
AcDbFaceRecord
 10
0.0
 20
0.0
 30
0.0
 70
   128
 71
   -18
 72
    17
 73
   -19
  0
VERTEX
  5
332
330
308
100
AcDbEntity
  8
0
100
AcDbFaceRecord
 10
0.0
 20
0.0
 30
0.0
 70
   128
 71
   -18
 72
   -19
 73
    20
  0
VERTEX
  5
333
330
308
100
AcDbEntity
  8
0
100
AcDbFaceRecord
 10
0.0
 20
0.0
 30
0.0
 70
   128
 71
   -20
 72
    19
 73
   -21
  0
VERTEX
  5
334
330
308
100
AcDbEntity
  8
0
100
AcDbFaceRecord
 10
0.0
 20
0.0
 30
0.0
 70
   128
 71
   -20
 72
   -21
 73
    22
  0
VERTEX
  5
335
330
308
100
AcDbEntity
  8
0
100
AcDbFaceRecord
 10
0.0
 20
0.0
 30
0.0
 70
   128
 71
   -22
 72
    21
 73
   -23
  0
VERTEX
  5
336
330
308
100
AcDbEntity
  8
0
100
AcDbFaceRecord
 10
0.0
 20
0.0
 30
0.0
 70
   128
 71
   -22
 72
    23
 73
    24
  0
SEQEND
  5
337
330
308
100
AcDbEntity
  8
0
  0
POLYLINE
  5
338
330
1F
100
AcDbEntity
  8
0
100
AcDbPolyFaceMesh
 66
     1
 10
0.0
 20
0.0
 30
0.0
 70
    64
 71
    24
 72
    22
  0
VERTEX
  5
339
330
338
100
AcDbEntity
  8
0
100
AcDbVertex
100
AcDbPolyFaceMeshVertex
 10
-30.00000000000001
 20
-0.482962913144532
 30
1.62940952255126
 70
   192
  0
VERTEX
  5
33A
330
338
100
AcDbEntity
  8
0
100
AcDbVertex
100
AcDbPolyFaceMeshVertex
 10
-30.00000000000001
 20
-0.4829629131445329
 30
1.37059047744874
 70
   192
  0
VERTEX
  5
33B
330
338
100
AcDbEntity
  8
0
100
AcDbVertex
100
AcDbPolyFaceMeshVertex
 10
-30.00000000000001
 20
-0.4999999999999991
 30
1.500000000000002
 70
   192
  0
VERTEX
  5
33C
330
338
100
AcDbEntity
  8
0
100
AcDbVertex
100
AcDbPolyFaceMeshVertex
 10
-30.0
 20
-0.433012701892218
 30
1.25
 70
   192
  0
VERTEX
  5
33D
330
338
100
AcDbEntity
  8
0
100
AcDbVertex
100
AcDbPolyFaceMeshVertex
 10
-30.0
 20
-0.4330127018922182
 30
1.750000000000001
 70
   192
  0
VERTEX
  5
33E
330
338
100
AcDbEntity
  8
0
100
AcDbVertex
100
AcDbPolyFaceMeshVertex
 10
-30.0
 20
-0.3535533905932729
 30
1.853553390593275
 70
   192
  0
VERTEX
  5
33F
330
338
100
AcDbEntity
  8
0
100
AcDbVertex
100
AcDbPolyFaceMeshVertex
 10
-30.0
 20
-0.3535533905932736
 30
1.146446609406727
 70
   192
  0
VERTEX
  5
340
330
338
100
AcDbEntity
  8
0
100
AcDbVertex
100
AcDbPolyFaceMeshVertex
 10
-30.0
 20
-0.2499999999999992
 30
1.066987298107783
 70
   192
  0
VERTEX
  5
341
330
338
100
AcDbEntity
  8
0
100
AcDbVertex
100
AcDbPolyFaceMeshVertex
 10
-30.0
 20
-0.249999999999999
 30
1.93301270189222
 70
   192
  0
VERTEX
  5
342
330
338
100
AcDbEntity
  8
0
100
AcDbVertex
100
AcDbPolyFaceMeshVertex
 10
-30.0
 20
-0.1294095225512595
 30
1.017037086855467
 70
   192
  0
VERTEX
  5
343
330
338
100
AcDbEntity
  8
0
100
AcDbVertex
100
AcDbPolyFaceMeshVertex
 10
-30.00000000000001
 20
-0.1294095225512589
 30
1.982962913144533
 70
   192
  0
VERTEX
  5
344
330
338
100
AcDbEntity
  8
0
100
AcDbVertex
100
AcDbPolyFaceMeshVertex
 10
-30.00000000000001
 20
0.0000000000000018
 30
0.9999999999999996
 70
   192
  0
VERTEX
  5
345
330
338
100
AcDbEntity
  8
0
100
AcDbVertex
100
AcDbPolyFaceMeshVertex
 10
-30.0
 20
0.0000000000000007
 30
2.0
 70
   192
  0
VERTEX
  5
346
330
338
100
AcDbEntity
  8
0
100
AcDbVertex
100
AcDbPolyFaceMeshVertex
 10
-30.00000000000001
 20
0.1294095225512619
 30
1.982962913144533
 70
   192
  0
VERTEX
  5
347
330
338
100
AcDbEntity
  8
0
100
AcDbVertex
100
AcDbPolyFaceMeshVertex
 10
-30.00000000000001
 20
0.1294095225512614
 30
1.017037086855467
 70
   192
  0
VERTEX
  5
348
330
338
100
AcDbEntity
  8
0
100
AcDbVertex
100
AcDbPolyFaceMeshVertex
 10
-30.0
 20
0.2500000000000008
 30
1.066987298107781
 70
   192
  0
VERTEX
  5
349
330
338
100
AcDbEntity
  8
0
100
AcDbVertex
100
AcDbPolyFaceMeshVertex
 10
-30.00000000000001
 20
0.2500000000000008
 30
1.93301270189222
 70
   192
  0
VERTEX
  5
34A
330
338
100
AcDbEntity
  8
0
100
AcDbVertex
100
AcDbPolyFaceMeshVertex
 10
-30.00000000000001
 20
0.3535533905932753
 30
1.853553390593273
 70
   192
  0
VERTEX
  5
34B
330
338
100
AcDbEntity
  8
0
100
AcDbVertex
100
AcDbPolyFaceMeshVertex
 10
-30.00000000000001
 20
0.3535533905932745
 30
1.146446609406727
 70
   192
  0
VERTEX
  5
34C
330
338
100
AcDbEntity
  8
0
100
AcDbVertex
100
AcDbPolyFaceMeshVertex
 10
-30.00000000000001
 20
0.4330127018922197
 30
1.25
 70
   192
  0
VERTEX
  5
34D
330
338
100
AcDbEntity
  8
0
100
AcDbVertex
100
AcDbPolyFaceMeshVertex
 10
-30.00000000000001
 20
0.4330127018922196
 30
1.750000000000001
 70
   192
  0
VERTEX
  5
34E
330
338
100
AcDbEntity
  8
0
100
AcDbVertex
100
AcDbPolyFaceMeshVertex
 10
-30.0
 20
0.4829629131445346
 30
1.629409522551261
 70
   192
  0
VERTEX
  5
34F
330
338
100
AcDbEntity
  8
0
100
AcDbVertex
100
AcDbPolyFaceMeshVertex
 10
-30.00000000000001
 20
0.4829629131445352
 30
1.370590477448739
 70
   192
  0
VERTEX
  5
350
330
338
100
AcDbEntity
  8
0
100
AcDbVertex
100
AcDbPolyFaceMeshVertex
 10
-30.00000000000001
 20
0.5000000000000007
 30
1.500000000000002
 70
   192
  0
VERTEX
  5
351
330
338
100
AcDbEntity
  8
0
100
AcDbFaceRecord
 10
0.0
 20
0.0
 30
0.0
 70
   128
 71
    -1
 72
     2
 73
     3
  0
VERTEX
  5
352
330
338
100
AcDbEntity
  8
0
100
AcDbFaceRecord
 10
0.0
 20
0.0
 30
0.0
 70
   128
 71
    -2
 72
    -1
 73
     4
  0
VERTEX
  5
353
330
338
100
AcDbEntity
  8
0
100
AcDbFaceRecord
 10
0.0
 20
0.0
 30
0.0
 70
   128
 71
    -4
 72
     1
 73
    -5
  0
VERTEX
  5
354
330
338
100
AcDbEntity
  8
0
100
AcDbFaceRecord
 10
0.0
 20
0.0
 30
0.0
 70
   128
 71
    -4
 72
     5
 73
    -6
  0
VERTEX
  5
355
330
338
100
AcDbEntity
  8
0
100
AcDbFaceRecord
 10
0.0
 20
0.0
 30
0.0
 70
   128
 71
    -4
 72
    -6
 73
     7
  0
VERTEX
  5
356
330
338
100
AcDbEntity
  8
0
100
AcDbFaceRecord
 10
0.0
 20
0.0
 30
0.0
 70
   128
 71
    -7
 72
    -6
 73
     8
  0
VERTEX
  5
357
330
338
100
AcDbEntity
  8
0
100
AcDbFaceRecord
 10
0.0
 20
0.0
 30
0.0
 70
   128
 71
    -8
 72
     6
 73
    -9
  0
VERTEX
  5
358
330
338
100
AcDbEntity
  8
0
100
AcDbFaceRecord
 10
0.0
 20
0.0
 30
0.0
 70
   128
 71
    -8
 72
    -9
 73
    10
  0
VERTEX
  5
359
330
338
100
AcDbEntity
  8
0
100
AcDbFaceRecord
 10
0.0
 20
0.0
 30
0.0
 70
   128
 71
   -10
 72
     9
 73
   -11
  0
VERTEX
  5
35A
330
338
100
AcDbEntity
  8
0
100
AcDbFaceRecord
 10
0.0
 20
0.0
 30
0.0
 70
   128
 71
   -10
 72
   -11
 73
    12
  0
VERTEX
  5
35B
330
338
100
AcDbEntity
  8
0
100
AcDbFaceRecord
 10
0.0
 20
0.0
 30
0.0
 70
   128
 71
   -12
 72
    11
 73
   -13
  0
VERTEX
  5
35C
330
338
100
AcDbEntity
  8
0
100
AcDbFaceRecord
 10
0.0
 20
0.0
 30
0.0
 70
   128
 71
   -12
 72
    13
 73
   -14
  0
VERTEX
  5
35D
330
338
100
AcDbEntity
  8
0
100
AcDbFaceRecord
 10
0.0
 20
0.0
 30
0.0
 70
   128
 71
   -12
 72
   -14
 73
    15
  0
VERTEX
  5
35E
330
338
100
AcDbEntity
  8
0
100
AcDbFaceRecord
 10
0.0
 20
0.0
 30
0.0
 70
   128
 71
   -15
 72
   -14
 73
    16
  0
VERTEX
  5
35F
330
338
100
AcDbEntity
  8
0
100
AcDbFaceRecord
 10
0.0
 20
0.0
 30
0.0
 70
   128
 71
   -16
 72
    14
 73
   -17
  0
VERTEX
  5
360
330
338
100
AcDbEntity
  8
0
100
AcDbFaceRecord
 10
0.0
 20
0.0
 30
0.0
 70
   128
 71
   -16
 72
    17
 73
   -18
  0
VERTEX
  5
361
330
338
100
AcDbEntity
  8
0
100
AcDbFaceRecord
 10
0.0
 20
0.0
 30
0.0
 70
   128
 71
   -16
 72
   -18
 73
    19
  0
VERTEX
  5
362
330
338
100
AcDbEntity
  8
0
100
AcDbFaceRecord
 10
0.0
 20
0.0
 30
0.0
 70
   128
 71
   -19
 72
   -18
 73
    20
  0
VERTEX
  5
363
330
338
100
AcDbEntity
  8
0
100
AcDbFaceRecord
 10
0.0
 20
0.0
 30
0.0
 70
   128
 71
   -20
 72
    18
 73
   -21
  0
VERTEX
  5
364
330
338
100
AcDbEntity
  8
0
100
AcDbFaceRecord
 10
0.0
 20
0.0
 30
0.0
 70
   128
 71
   -20
 72
    21
 73
   -22
  0
VERTEX
  5
365
330
338
100
AcDbEntity
  8
0
100
AcDbFaceRecord
 10
0.0
 20
0.0
 30
0.0
 70
   128
 71
   -20
 72
   -22
 73
    23
  0
VERTEX
  5
366
330
338
100
AcDbEntity
  8
0
100
AcDbFaceRecord
 10
0.0
 20
0.0
 30
0.0
 70
   128
 71
   -23
 72
    22
 73
    24
  0
SEQEND
  5
367
330
338
100
AcDbEntity
  8
0
  0
POLYLINE
  5
368
330
1F
100
AcDbEntity
  8
0
100
AcDbPolyFaceMesh
 66
     1
 10
0.0
 20
0.0
 30
0.0
 70
    64
 71
     4
 72
     2
  0
VERTEX
  5
369
330
368
100
AcDbEntity
  8
0
100
AcDbVertex
100
AcDbPolyFaceMeshVertex
 10
-10.0
 20
0.1294095225512604
 30
-1.982962913144534
 70
   192
  0
VERTEX
  5
36A
330
368
100
AcDbEntity
  8
0
100
AcDbVertex
100
AcDbPolyFaceMeshVertex
 10
-25.0
 20
0.0000000000000014
 30
-2.0
 70
   192
  0
VERTEX
  5
36B
330
368
100
AcDbEntity
  8
0
100
AcDbVertex
100
AcDbPolyFaceMeshVertex
 10
-25.0
 20
0.1294095225512612
 30
-1.982962913144535
 70
   192
  0
VERTEX
  5
36C
330
368
100
AcDbEntity
  8
0
100
AcDbVertex
100
AcDbPolyFaceMeshVertex
 10
-10.0
 20
-0.0000000000000001
 30
-2.0
 70
   192
  0
VERTEX
  5
36D
330
368
100
AcDbEntity
  8
0
100
AcDbFaceRecord
 10
0.0
 20
0.0
 30
0.0
 70
   128
 71
    -1
 72
     2
 73
     3
  0
VERTEX
  5
36E
330
368
100
AcDbEntity
  8
0
100
AcDbFaceRecord
 10
0.0
 20
0.0
 30
0.0
 70
   128
 71
    -2
 72
     1
 73
     4
  0
SEQEND
  5
36F
330
368
100
AcDbEntity
  8
0
  0
POLYLINE
  5
370
330
1F
100
AcDbEntity
  8
0
100
AcDbPolyFaceMesh
 66
     1
 10
0.0
 20
0.0
 30
0.0
 70
    64
 71
     4
 72
     2
  0
VERTEX
  5
371
330
370
100
AcDbEntity
  8
0
100
AcDbVertex
100
AcDbPolyFaceMeshVertex
 10
-10.0
 20
0.2499999999999999
 30
-1.933012701892219
 70
   192
  0
VERTEX
  5
372
330
370
100
AcDbEntity
  8
0
100
AcDbVertex
100
AcDbPolyFaceMeshVertex
 10
-25.0
 20
0.1294095225512612
 30
-1.982962913144535
 70
   192
  0
VERTEX
  5
373
330
370
100
AcDbEntity
  8
0
100
AcDbVertex
100
AcDbPolyFaceMeshVertex
 10
-25.0
 20
0.2500000000000004
 30
-1.93301270189222
 70
   192
  0
VERTEX
  5
374
330
370
100
AcDbEntity
  8
0
100
AcDbVertex
100
AcDbPolyFaceMeshVertex
 10
-10.0
 20
0.1294095225512604
 30
-1.982962913144534
 70
   192
  0
VERTEX
  5
375
330
370
100
AcDbEntity
  8
0
100
AcDbFaceRecord
 10
0.0
 20
0.0
 30
0.0
 70
   128
 71
    -1
 72
     2
 73
     3
  0
VERTEX
  5
376
330
370
100
AcDbEntity
  8
0
100
AcDbFaceRecord
 10
0.0
 20
0.0
 30
0.0
 70
   128
 71
    -2
 72
     1
 73
     4
  0
SEQEND
  5
377
330
370
100
AcDbEntity
  8
0
  0
POLYLINE
  5
378
330
1F
100
AcDbEntity
  8
0
100
AcDbPolyFaceMesh
 66
     1
 10
0.0
 20
0.0
 30
0.0
 70
    64
 71
     4
 72
     2
  0
VERTEX
  5
379
330
378
100
AcDbEntity
  8
0
100
AcDbVertex
100
AcDbPolyFaceMeshVertex
 10
-10.0
 20
-0.4999999999999993
 30
1.5
 70
   192
  0
VERTEX
  5
37A
330
378
100
AcDbEntity
  8
0
100
AcDbVertex
100
AcDbPolyFaceMeshVertex
 10
-30.00000000000001
 20
-0.4829629131445329
 30
1.37059047744874
 70
   192
  0
VERTEX
  5
37B
330
378
100
AcDbEntity
  8
0
100
AcDbVertex
100
AcDbPolyFaceMeshVertex
 10
-9.999999999999998
 20
-0.4829629131445341
 30
1.37059047744874
 70
   192
  0
VERTEX
  5
37C
330
378
100
AcDbEntity
  8
0
100
AcDbVertex
100
AcDbPolyFaceMeshVertex
 10
-30.00000000000001
 20
-0.4999999999999991
 30
1.500000000000002
 70
   192
  0
VERTEX
  5
37D
330
378
100
AcDbEntity
  8
0
100
AcDbFaceRecord
 10
0.0
 20
0.0
 30
0.0
 70
   128
 71
    -1
 72
     2
 73
     3
  0
VERTEX
  5
37E
330
378
100
AcDbEntity
  8
0
100
AcDbFaceRecord
 10
0.0
 20
0.0
 30
0.0
 70
   128
 71
    -2
 72
     1
 73
     4
  0
SEQEND
  5
37F
330
378
100
AcDbEntity
  8
0
  0
POLYLINE
  5
380
330
1F
100
AcDbEntity
  8
0
100
AcDbPolyFaceMesh
 66
     1
 10
0.0
 20
0.0
 30
0.0
 70
    64
 71
     4
 72
     2
  0
VERTEX
  5
381
330
380
100
AcDbEntity
  8
0
100
AcDbVertex
100
AcDbPolyFaceMeshVertex
 10
-30.0
 20
-0.249999999999999
 30
1.93301270189222
 70
   192
  0
VERTEX
  5
382
330
380
100
AcDbEntity
  8
0
100
AcDbVertex
100
AcDbPolyFaceMeshVertex
 10
-9.999999999999998
 20
-0.1294095225512601
 30
1.982962913144535
 70
   192
  0
VERTEX
  5
383
330
380
100
AcDbEntity
  8
0
100
AcDbVertex
100
AcDbPolyFaceMeshVertex
 10
-30.00000000000001
 20
-0.1294095225512589
 30
1.982962913144533
 70
   192
  0
VERTEX
  5
384
330
380
100
AcDbEntity
  8
0
100
AcDbVertex
100
AcDbPolyFaceMeshVertex
 10
-10.0
 20
-0.2499999999999994
 30
1.93301270189222
 70
   192
  0
VERTEX
  5
385
330
380
100
AcDbEntity
  8
0
100
AcDbFaceRecord
 10
0.0
 20
0.0
 30
0.0
 70
   128
 71
    -1
 72
     2
 73
     3
  0
VERTEX
  5
386
330
380
100
AcDbEntity
  8
0
100
AcDbFaceRecord
 10
0.0
 20
0.0
 30
0.0
 70
   128
 71
    -2
 72
     1
 73
     4
  0
SEQEND
  5
387
330
380
100
AcDbEntity
  8
0
  0
POLYLINE
  5
388
330
1F
100
AcDbEntity
  8
0
100
AcDbPolyFaceMesh
 66
     1
 10
0.0
 20
0.0
 30
0.0
 70
    64
 71
     4
 72
     2
  0
VERTEX
  5
389
330
388
100
AcDbEntity
  8
0
100
AcDbVertex
100
AcDbPolyFaceMeshVertex
 10
-25.0
 20
0.353553390593275
 30
-1.146446609406728
 70
   192
  0
VERTEX
  5
38A
330
388
100
AcDbEntity
  8
0
100
AcDbVertex
100
AcDbPolyFaceMeshVertex
 10
-10.0
 20
0.4330127018922193
 30
-1.25
 70
   192
  0
VERTEX
  5
38B
330
388
100
AcDbEntity
  8
0
100
AcDbVertex
100
AcDbPolyFaceMeshVertex
 10
-25.0
 20
0.43301270189222
 30
-1.25
 70
   192
  0
VERTEX
  5
38C
330
388
100
AcDbEntity
  8
0
100
AcDbVertex
100
AcDbPolyFaceMeshVertex
 10
-10.0
 20
0.353553390593274
 30
-1.146446609406726
 70
   192
  0
VERTEX
  5
38D
330
388
100
AcDbEntity
  8
0
100
AcDbFaceRecord
 10
0.0
 20
0.0
 30
0.0
 70
   128
 71
    -1
 72
     2
 73
     3
  0
VERTEX
  5
38E
330
388
100
AcDbEntity
  8
0
100
AcDbFaceRecord
 10
0.0
 20
0.0
 30
0.0
 70
   128
 71
    -2
 72
     1
 73
     4
  0
SEQEND
  5
38F
330
388
100
AcDbEntity
  8
0
  0
POLYLINE
  5
390
330
1F
100
AcDbEntity
  8
0
100
AcDbPolyFaceMesh
 66
     1
 10
0.0
 20
0.0
 30
0.0
 70
    64
 71
     4
 72
     2
  0
VERTEX
  5
391
330
390
100
AcDbEntity
  8
0
100
AcDbVertex
100
AcDbPolyFaceMeshVertex
 10
-25.0
 20
0.4829629131445358
 30
-1.37059047744874
 70
   192
  0
VERTEX
  5
392
330
390
100
AcDbEntity
  8
0
100
AcDbVertex
100
AcDbPolyFaceMeshVertex
 10
-10.0
 20
0.5000000000000004
 30
-1.5
 70
   192
  0
VERTEX
  5
393
330
390
100
AcDbEntity
  8
0
100
AcDbVertex
100
AcDbPolyFaceMeshVertex
 10
-25.0
 20
0.5000000000000011
 30
-1.500000000000002
 70
   192
  0
VERTEX
  5
394
330
390
100
AcDbEntity
  8
0
100
AcDbVertex
100
AcDbPolyFaceMeshVertex
 10
-10.0
 20
0.4829629131445343
 30
-1.37059047744874
 70
   192
  0
VERTEX
  5
395
330
390
100
AcDbEntity
  8
0
100
AcDbFaceRecord
 10
0.0
 20
0.0
 30
0.0
 70
   128
 71
    -1
 72
     2
 73
     3
  0
VERTEX
  5
396
330
390
100
AcDbEntity
  8
0
100
AcDbFaceRecord
 10
0.0
 20
0.0
 30
0.0
 70
   128
 71
    -2
 72
     1
 73
     4
  0
SEQEND
  5
397
330
390
100
AcDbEntity
  8
0
  0
POLYLINE
  5
398
330
1F
100
AcDbEntity
  8
0
100
AcDbPolyFaceMesh
 66
     1
 10
0.0
 20
0.0
 30
0.0
 70
    64
 71
     4
 72
     2
  0
VERTEX
  5
399
330
398
100
AcDbEntity
  8
0
100
AcDbVertex
100
AcDbPolyFaceMeshVertex
 10
-10.0
 20
-0.2499999999999999
 30
-1.933012701892219
 70
   192
  0
VERTEX
  5
39A
330
398
100
AcDbEntity
  8
0
100
AcDbVertex
100
AcDbPolyFaceMeshVertex
 10
-25.0
 20
-0.3535533905932725
 30
-1.853553390593275
 70
   192
  0
VERTEX
  5
39B
330
398
100
AcDbEntity
  8
0
100
AcDbVertex
100
AcDbPolyFaceMeshVertex
 10
-25.0
 20
-0.2499999999999988
 30
-1.93301270189222
 70
   192
  0
VERTEX
  5
39C
330
398
100
AcDbEntity
  8
0
100
AcDbVertex
100
AcDbPolyFaceMeshVertex
 10
-10.0
 20
-0.3535533905932733
 30
-1.853553390593274
 70
   192
  0
VERTEX
  5
39D
330
398
100
AcDbEntity
  8
0
100
AcDbFaceRecord
 10
0.0
 20
0.0
 30
0.0
 70
   128
 71
    -1
 72
     2
 73
     3
  0
VERTEX
  5
39E
330
398
100
AcDbEntity
  8
0
100
AcDbFaceRecord
 10
0.0
 20
0.0
 30
0.0
 70
   128
 71
    -2
 72
     1
 73
     4
  0
SEQEND
  5
39F
330
398
100
AcDbEntity
  8
0
  0
POLYLINE
  5
3A0
330
1F
100
AcDbEntity
  8
0
100
AcDbPolyFaceMesh
 66
     1
 10
0.0
 20
0.0
 30
0.0
 70
    64
 71
     4
 72
     2
  0
VERTEX
  5
3A1
330
3A0
100
AcDbEntity
  8
0
100
AcDbVertex
100
AcDbPolyFaceMeshVertex
 10
-25.0
 20
-0.1294095225512586
 30
-1.017037086855466
 70
   192
  0
VERTEX
  5
3A2
330
3A0
100
AcDbEntity
  8
0
100
AcDbVertex
100
AcDbPolyFaceMeshVertex
 10
-10.0
 20
0.0000000000000002
 30
-0.9999999999999998
 70
   192
  0
VERTEX
  5
3A3
330
3A0
100
AcDbEntity
  8
0
100
AcDbVertex
100
AcDbPolyFaceMeshVertex
 10
-25.00000000000001
 20
0.0000000000000017
 30
-1.000000000000001
 70
   192
  0
VERTEX
  5
3A4
330
3A0
100
AcDbEntity
  8
0
100
AcDbVertex
100
AcDbPolyFaceMeshVertex
 10
-9.999999999999998
 20
-0.1294095225512602
 30
-1.017037086855466
 70
   192
  0
VERTEX
  5
3A5
330
3A0
100
AcDbEntity
  8
0
100
AcDbFaceRecord
 10
0.0
 20
0.0
 30
0.0
 70
   128
 71
    -1
 72
     2
 73
     3
  0
VERTEX
  5
3A6
330
3A0
100
AcDbEntity
  8
0
100
AcDbFaceRecord
 10
0.0
 20
0.0
 30
0.0
 70
   128
 71
    -2
 72
     1
 73
     4
  0
SEQEND
  5
3A7
330
3A0
100
AcDbEntity
  8
0
  0
POLYLINE
  5
3A8
330
1F
100
AcDbEntity
  8
0
100
AcDbPolyFaceMesh
 66
     1
 10
0.0
 20
0.0
 30
0.0
 70
    64
 71
     4
 72
     2
  0
VERTEX
  5
3A9
330
3A8
100
AcDbEntity
  8
0
100
AcDbVertex
100
AcDbPolyFaceMeshVertex
 10
-25.0
 20
0.4330127018922196
 30
-1.750000000000002
 70
   192
  0
VERTEX
  5
3AA
330
3A8
100
AcDbEntity
  8
0
100
AcDbVertex
100
AcDbPolyFaceMeshVertex
 10
-10.0
 20
0.3535533905932739
 30
-1.853553390593274
 70
   192
  0
VERTEX
  5
3AB
330
3A8
100
AcDbEntity
  8
0
100
AcDbVertex
100
AcDbPolyFaceMeshVertex
 10
-25.0
 20
0.3535533905932742
 30
-1.853553390593274
 70
   192
  0
VERTEX
  5
3AC
330
3A8
100
AcDbEntity
  8
0
100
AcDbVertex
100
AcDbPolyFaceMeshVertex
 10
-10.0
 20
0.4330127018922192
 30
-1.75
 70
   192
  0
VERTEX
  5
3AD
330
3A8
100
AcDbEntity
  8
0
100
AcDbFaceRecord
 10
0.0
 20
0.0
 30
0.0
 70
   128
 71
    -1
 72
     2
 73
     3
  0
VERTEX
  5
3AE
330
3A8
100
AcDbEntity
  8
0
100
AcDbFaceRecord
 10
0.0
 20
0.0
 30
0.0
 70
   128
 71
    -2
 72
     1
 73
     4
  0
SEQEND
  5
3AF
330
3A8
100
AcDbEntity
  8
0
  0
POLYLINE
  5
3B0
330
1F
100
AcDbEntity
  8
0
100
AcDbPolyFaceMesh
 66
     1
 10
0.0
 20
0.0
 30
0.0
 70
    64
 71
     4
 72
     2
  0
VERTEX
  5
3B1
330
3B0
100
AcDbEntity
  8
0
100
AcDbVertex
100
AcDbPolyFaceMeshVertex
 10
-10.0
 20
-0.1294095225512605
 30
-1.982962913144534
 70
   192
  0
VERTEX
  5
3B2
330
3B0
100
AcDbEntity
  8
0
100
AcDbVertex
100
AcDbPolyFaceMeshVertex
 10
-25.0
 20
-0.2499999999999988
 30
-1.93301270189222
 70
   192
  0
VERTEX
  5
3B3
330
3B0
100
AcDbEntity
  8
0
100
AcDbVertex
100
AcDbPolyFaceMeshVertex
 10
-25.0
 20
-0.1294095225512589
 30
-1.982962913144535
 70
   192
  0
VERTEX
  5
3B4
330
3B0
100
AcDbEntity
  8
0
100
AcDbVertex
100
AcDbPolyFaceMeshVertex
 10
-10.0
 20
-0.2499999999999999
 30
-1.933012701892219
 70
   192
  0
VERTEX
  5
3B5
330
3B0
100
AcDbEntity
  8
0
100
AcDbFaceRecord
 10
0.0
 20
0.0
 30
0.0
 70
   128
 71
    -1
 72
     2
 73
     3
  0
VERTEX
  5
3B6
330
3B0
100
AcDbEntity
  8
0
100
AcDbFaceRecord
 10
0.0
 20
0.0
 30
0.0
 70
   128
 71
    -2
 72
     1
 73
     4
  0
SEQEND
  5
3B7
330
3B0
100
AcDbEntity
  8
0
  0
POLYLINE
  5
3B8
330
1F
100
AcDbEntity
  8
0
100
AcDbPolyFaceMesh
 66
     1
 10
0.0
 20
0.0
 30
0.0
 70
    64
 71
     4
 72
     2
  0
VERTEX
  5
3B9
330
3B8
100
AcDbEntity
  8
0
100
AcDbVertex
100
AcDbPolyFaceMeshVertex
 10
-10.0
 20
0.0000000000000002
 30
-0.9999999999999998
 70
   192
  0
VERTEX
  5
3BA
330
3B8
100
AcDbEntity
  8
0
100
AcDbVertex
100
AcDbPolyFaceMeshVertex
 10
-25.0
 20
0.1294095225512622
 30
-1.017037086855466
 70
   192
  0
VERTEX
  5
3BB
330
3B8
100
AcDbEntity
  8
0
100
AcDbVertex
100
AcDbPolyFaceMeshVertex
 10
-25.00000000000001
 20
0.0000000000000017
 30
-1.000000000000001
 70
   192
  0
VERTEX
  5
3BC
330
3B8
100
AcDbEntity
  8
0
100
AcDbVertex
100
AcDbPolyFaceMeshVertex
 10
-10.0
 20
0.1294095225512606
 30
-1.017037086855466
 70
   192
  0
VERTEX
  5
3BD
330
3B8
100
AcDbEntity
  8
0
100
AcDbFaceRecord
 10
0.0
 20
0.0
 30
0.0
 70
   128
 71
    -1
 72
     2
 73
     3
  0
VERTEX
  5
3BE
330
3B8
100
AcDbEntity
  8
0
100
AcDbFaceRecord
 10
0.0
 20
0.0
 30
0.0
 70
   128
 71
    -2
 72
     1
 73
     4
  0
SEQEND
  5
3BF
330
3B8
100
AcDbEntity
  8
0
  0
POLYLINE
  5
3C0
330
1F
100
AcDbEntity
  8
0
100
AcDbPolyFaceMesh
 66
     1
 10
0.0
 20
0.0
 30
0.0
 70
    64
 71
     4
 72
     2
  0
VERTEX
  5
3C1
330
3C0
100
AcDbEntity
  8
0
100
AcDbVertex
100
AcDbPolyFaceMeshVertex
 10
-10.0
 20
0.1294095225512606
 30
-1.017037086855466
 70
   192
  0
VERTEX
  5
3C2
330
3C0
100
AcDbEntity
  8
0
100
AcDbVertex
100
AcDbPolyFaceMeshVertex
 10
-25.0
 20
0.2500000000000012
 30
-1.066987298107782
 70
   192
  0
VERTEX
  5
3C3
330
3C0
100
AcDbEntity
  8
0
100
AcDbVertex
100
AcDbPolyFaceMeshVertex
 10
-25.0
 20
0.1294095225512622
 30
-1.017037086855466
 70
   192
  0
VERTEX
  5
3C4
330
3C0
100
AcDbEntity
  8
0
100
AcDbVertex
100
AcDbPolyFaceMeshVertex
 10
-9.999999999999998
 20
0.25
 30
-1.066987298107781
 70
   192
  0
VERTEX
  5
3C5
330
3C0
100
AcDbEntity
  8
0
100
AcDbFaceRecord
 10
0.0
 20
0.0
 30
0.0
 70
   128
 71
    -1
 72
     2
 73
     3
  0
VERTEX
  5
3C6
330
3C0
100
AcDbEntity
  8
0
100
AcDbFaceRecord
 10
0.0
 20
0.0
 30
0.0
 70
   128
 71
    -2
 72
     1
 73
     4
  0
SEQEND
  5
3C7
330
3C0
100
AcDbEntity
  8
0
  0
POLYLINE
  5
3C8
330
1F
100
AcDbEntity
  8
0
100
AcDbPolyFaceMesh
 66
     1
 10
0.0
 20
0.0
 30
0.0
 70
    64
 71
     4
 72
     2
  0
VERTEX
  5
3C9
330
3C8
100
AcDbEntity
  8
0
100
AcDbVertex
100
AcDbPolyFaceMeshVertex
 10
-9.999999999999998
 20
0.25
 30
-1.066987298107781
 70
   192
  0
VERTEX
  5
3CA
330
3C8
100
AcDbEntity
  8
0
100
AcDbVertex
100
AcDbPolyFaceMeshVertex
 10
-25.0
 20
0.353553390593275
 30
-1.146446609406728
 70
   192
  0
VERTEX
  5
3CB
330
3C8
100
AcDbEntity
  8
0
100
AcDbVertex
100
AcDbPolyFaceMeshVertex
 10
-25.0
 20
0.2500000000000012
 30
-1.066987298107782
 70
   192
  0
VERTEX
  5
3CC
330
3C8
100
AcDbEntity
  8
0
100
AcDbVertex
100
AcDbPolyFaceMeshVertex
 10
-10.0
 20
0.353553390593274
 30
-1.146446609406726
 70
   192
  0
VERTEX
  5
3CD
330
3C8
100
AcDbEntity
  8
0
100
AcDbFaceRecord
 10
0.0
 20
0.0
 30
0.0
 70
   128
 71
    -1
 72
     2
 73
     3
  0
VERTEX
  5
3CE
330
3C8
100
AcDbEntity
  8
0
100
AcDbFaceRecord
 10
0.0
 20
0.0
 30
0.0
 70
   128
 71
    -2
 72
     1
 73
     4
  0
SEQEND
  5
3CF
330
3C8
100
AcDbEntity
  8
0
  0
POLYLINE
  5
3D0
330
1F
100
AcDbEntity
  8
0
100
AcDbPolyFaceMesh
 66
     1
 10
0.0
 20
0.0
 30
0.0
 70
    64
 71
     4
 72
     2
  0
VERTEX
  5
3D1
330
3D0
100
AcDbEntity
  8
0
100
AcDbVertex
100
AcDbPolyFaceMeshVertex
 10
-25.0
 20
0.5000000000000011
 30
-1.500000000000002
 70
   192
  0
VERTEX
  5
3D2
330
3D0
100
AcDbEntity
  8
0
100
AcDbVertex
100
AcDbPolyFaceMeshVertex
 10
-10.0
 20
0.4829629131445343
 30
-1.629409522551261
 70
   192
  0
VERTEX
  5
3D3
330
3D0
100
AcDbEntity
  8
0
100
AcDbVertex
100
AcDbPolyFaceMeshVertex
 10
-25.0
 20
0.4829629131445349
 30
-1.629409522551261
 70
   192
  0
VERTEX
  5
3D4
330
3D0
100
AcDbEntity
  8
0
100
AcDbVertex
100
AcDbPolyFaceMeshVertex
 10
-10.0
 20
0.5000000000000004
 30
-1.5
 70
   192
  0
VERTEX
  5
3D5
330
3D0
100
AcDbEntity
  8
0
100
AcDbFaceRecord
 10
0.0
 20
0.0
 30
0.0
 70
   128
 71
    -1
 72
     2
 73
     3
  0
VERTEX
  5
3D6
330
3D0
100
AcDbEntity
  8
0
100
AcDbFaceRecord
 10
0.0
 20
0.0
 30
0.0
 70
   128
 71
    -2
 72
     1
 73
     4
  0
SEQEND
  5
3D7
330
3D0
100
AcDbEntity
  8
0
  0
POLYLINE
  5
3D8
330
1F
100
AcDbEntity
  8
0
100
AcDbPolyFaceMesh
 66
     1
 10
0.0
 20
0.0
 30
0.0
 70
    64
 71
     4
 72
     2
  0
VERTEX
  5
3D9
330
3D8
100
AcDbEntity
  8
0
100
AcDbVertex
100
AcDbPolyFaceMeshVertex
 10
-10.0
 20
0.0000000000000001
 30
1.000000000000001
 70
   192
  0
VERTEX
  5
3DA
330
3D8
100
AcDbEntity
  8
0
100
AcDbVertex
100
AcDbPolyFaceMeshVertex
 10
-30.0
 20
-0.1294095225512595
 30
1.017037086855467
 70
   192
  0
VERTEX
  5
3DB
330
3D8
100
AcDbEntity
  8
0
100
AcDbVertex
100
AcDbPolyFaceMeshVertex
 10
-30.00000000000001
 20
0.0000000000000018
 30
0.9999999999999996
 70
   192
  0
VERTEX
  5
3DC
330
3D8
100
AcDbEntity
  8
0
100
AcDbVertex
100
AcDbPolyFaceMeshVertex
 10
-10.0
 20
-0.1294095225512607
 30
1.017037086855467
 70
   192
  0
VERTEX
  5
3DD
330
3D8
100
AcDbEntity
  8
0
100
AcDbFaceRecord
 10
0.0
 20
0.0
 30
0.0
 70
   128
 71
    -1
 72
     2
 73
     3
  0
VERTEX
  5
3DE
330
3D8
100
AcDbEntity
  8
0
100
AcDbFaceRecord
 10
0.0
 20
0.0
 30
0.0
 70
   128
 71
    -2
 72
     1
 73
     4
  0
SEQEND
  5
3DF
330
3D8
100
AcDbEntity
  8
0
  0
POLYLINE
  5
3E0
330
1F
100
AcDbEntity
  8
0
100
AcDbPolyFaceMesh
 66
     1
 10
0.0
 20
0.0
 30
0.0
 70
    64
 71
     4
 72
     2
  0
VERTEX
  5
3E1
330
3E0
100
AcDbEntity
  8
0
100
AcDbVertex
100
AcDbPolyFaceMeshVertex
 10
-25.0
 20
0.43301270189222
 30
-1.25
 70
   192
  0
VERTEX
  5
3E2
330
3E0
100
AcDbEntity
  8
0
100
AcDbVertex
100
AcDbPolyFaceMeshVertex
 10
-10.0
 20
0.4829629131445343
 30
-1.37059047744874
 70
   192
  0
VERTEX
  5
3E3
330
3E0
100
AcDbEntity
  8
0
100
AcDbVertex
100
AcDbPolyFaceMeshVertex
 10
-25.0
 20
0.4829629131445358
 30
-1.37059047744874
 70
   192
  0
VERTEX
  5
3E4
330
3E0
100
AcDbEntity
  8
0
100
AcDbVertex
100
AcDbPolyFaceMeshVertex
 10
-10.0
 20
0.4330127018922193
 30
-1.25
 70
   192
  0
VERTEX
  5
3E5
330
3E0
100
AcDbEntity
  8
0
100
AcDbFaceRecord
 10
0.0
 20
0.0
 30
0.0
 70
   128
 71
    -1
 72
     2
 73
     3
  0
VERTEX
  5
3E6
330
3E0
100
AcDbEntity
  8
0
100
AcDbFaceRecord
 10
0.0
 20
0.0
 30
0.0
 70
   128
 71
    -2
 72
     1
 73
     4
  0
SEQEND
  5
3E7
330
3E0
100
AcDbEntity
  8
0
  0
POLYLINE
  5
3E8
330
1F
100
AcDbEntity
  8
0
100
AcDbPolyFaceMesh
 66
     1
 10
0.0
 20
0.0
 30
0.0
 70
    64
 71
     4
 72
     2
  0
VERTEX
  5
3E9
330
3E8
100
AcDbEntity
  8
0
100
AcDbVertex
100
AcDbPolyFaceMeshVertex
 10
-10.0
 20
0.3535533905932739
 30
-1.853553390593274
 70
   192
  0
VERTEX
  5
3EA
330
3E8
100
AcDbEntity
  8
0
100
AcDbVertex
100
AcDbPolyFaceMeshVertex
 10
-25.0
 20
0.2500000000000004
 30
-1.93301270189222
 70
   192
  0
VERTEX
  5
3EB
330
3E8
100
AcDbEntity
  8
0
100
AcDbVertex
100
AcDbPolyFaceMeshVertex
 10
-25.0
 20
0.3535533905932742
 30
-1.853553390593274
 70
   192
  0
VERTEX
  5
3EC
330
3E8
100
AcDbEntity
  8
0
100
AcDbVertex
100
AcDbPolyFaceMeshVertex
 10
-10.0
 20
0.2499999999999999
 30
-1.933012701892219
 70
   192
  0
VERTEX
  5
3ED
330
3E8
100
AcDbEntity
  8
0
100
AcDbFaceRecord
 10
0.0
 20
0.0
 30
0.0
 70
   128
 71
    -1
 72
     2
 73
     3
  0
VERTEX
  5
3EE
330
3E8
100
AcDbEntity
  8
0
100
AcDbFaceRecord
 10
0.0
 20
0.0
 30
0.0
 70
   128
 71
    -2
 72
     1
 73
     4
  0
SEQEND
  5
3EF
330
3E8
100
AcDbEntity
  8
0
  0
POLYLINE
  5
3F0
330
1F
100
AcDbEntity
  8
0
100
AcDbPolyFaceMesh
 66
     1
 10
0.0
 20
0.0
 30
0.0
 70
    64
 71
     4
 72
     2
  0
VERTEX
  5
3F1
330
3F0
100
AcDbEntity
  8
0
100
AcDbVertex
100
AcDbPolyFaceMeshVertex
 10
-10.0
 20
-0.0000000000000001
 30
-2.0
 70
   192
  0
VERTEX
  5
3F2
330
3F0
100
AcDbEntity
  8
0
100
AcDbVertex
100
AcDbPolyFaceMeshVertex
 10
-25.0
 20
-0.1294095225512589
 30
-1.982962913144535
 70
   192
  0
VERTEX
  5
3F3
330
3F0
100
AcDbEntity
  8
0
100
AcDbVertex
100
AcDbPolyFaceMeshVertex
 10
-25.0
 20
0.0000000000000014
 30
-2.0
 70
   192
  0
VERTEX
  5
3F4
330
3F0
100
AcDbEntity
  8
0
100
AcDbVertex
100
AcDbPolyFaceMeshVertex
 10
-10.0
 20
-0.1294095225512605
 30
-1.982962913144534
 70
   192
  0
VERTEX
  5
3F5
330
3F0
100
AcDbEntity
  8
0
100
AcDbFaceRecord
 10
0.0
 20
0.0
 30
0.0
 70
   128
 71
    -1
 72
     2
 73
     3
  0
VERTEX
  5
3F6
330
3F0
100
AcDbEntity
  8
0
100
AcDbFaceRecord
 10
0.0
 20
0.0
 30
0.0
 70
   128
 71
    -2
 72
     1
 73
     4
  0
SEQEND
  5
3F7
330
3F0
100
AcDbEntity
  8
0
  0
POLYLINE
  5
3F8
330
1F
100
AcDbEntity
  8
0
100
AcDbPolyFaceMesh
 66
     1
 10
0.0
 20
0.0
 30
0.0
 70
    64
 71
     4
 72
     2
  0
VERTEX
  5
3F9
330
3F8
100
AcDbEntity
  8
0
100
AcDbVertex
100
AcDbPolyFaceMeshVertex
 10
-10.0
 20
-0.2499999999999994
 30
-1.066987298107781
 70
   192
  0
VERTEX
  5
3FA
330
3F8
100
AcDbEntity
  8
0
100
AcDbVertex
100
AcDbPolyFaceMeshVertex
 10
-25.0
 20
-0.1294095225512586
 30
-1.017037086855466
 70
   192
  0
VERTEX
  5
3FB
330
3F8
100
AcDbEntity
  8
0
100
AcDbVertex
100
AcDbPolyFaceMeshVertex
 10
-25.0
 20
-0.2499999999999986
 30
-1.066987298107781
 70
   192
  0
VERTEX
  5
3FC
330
3F8
100
AcDbEntity
  8
0
100
AcDbVertex
100
AcDbPolyFaceMeshVertex
 10
-9.999999999999998
 20
-0.1294095225512602
 30
-1.017037086855466
 70
   192
  0
VERTEX
  5
3FD
330
3F8
100
AcDbEntity
  8
0
100
AcDbFaceRecord
 10
0.0
 20
0.0
 30
0.0
 70
   128
 71
    -1
 72
     2
 73
     3
  0
VERTEX
  5
3FE
330
3F8
100
AcDbEntity
  8
0
100
AcDbFaceRecord
 10
0.0
 20
0.0
 30
0.0
 70
   128
 71
    -2
 72
     1
 73
     4
  0
SEQEND
  5
3FF
330
3F8
100
AcDbEntity
  8
0
  0
POLYLINE
  5
400
330
1F
100
AcDbEntity
  8
0
100
AcDbPolyFaceMesh
 66
     1
 10
0.0
 20
0.0
 30
0.0
 70
    64
 71
     4
 72
     2
  0
VERTEX
  5
401
330
400
100
AcDbEntity
  8
0
100
AcDbVertex
100
AcDbPolyFaceMeshVertex
 10
-25.0
 20
0.4829629131445349
 30
-1.629409522551261
 70
   192
  0
VERTEX
  5
402
330
400
100
AcDbEntity
  8
0
100
AcDbVertex
100
AcDbPolyFaceMeshVertex
 10
-10.0
 20
0.4330127018922192
 30
-1.75
 70
   192
  0
VERTEX
  5
403
330
400
100
AcDbEntity
  8
0
100
AcDbVertex
100
AcDbPolyFaceMeshVertex
 10
-25.0
 20
0.4330127018922196
 30
-1.750000000000002
 70
   192
  0
VERTEX
  5
404
330
400
100
AcDbEntity
  8
0
100
AcDbVertex
100
AcDbPolyFaceMeshVertex
 10
-10.0
 20
0.4829629131445343
 30
-1.629409522551261
 70
   192
  0
VERTEX
  5
405
330
400
100
AcDbEntity
  8
0
100
AcDbFaceRecord
 10
0.0
 20
0.0
 30
0.0
 70
   128
 71
    -1
 72
     2
 73
     3
  0
VERTEX
  5
406
330
400
100
AcDbEntity
  8
0
100
AcDbFaceRecord
 10
0.0
 20
0.0
 30
0.0
 70
   128
 71
    -2
 72
     1
 73
     4
  0
SEQEND
  5
407
330
400
100
AcDbEntity
  8
0
  0
POLYLINE
  5
408
330
1F
100
AcDbEntity
  8
0
100
AcDbPolyFaceMesh
 66
     1
 10
0.0
 20
0.0
 30
0.0
 70
    64
 71
     4
 72
     2
  0
VERTEX
  5
409
330
408
100
AcDbEntity
  8
0
100
AcDbVertex
100
AcDbPolyFaceMeshVertex
 10
-10.0
 20
-0.3535533905932733
 30
-1.853553390593274
 70
   192
  0
VERTEX
  5
40A
330
408
100
AcDbEntity
  8
0
100
AcDbVertex
100
AcDbPolyFaceMeshVertex
 10
-25.0
 20
-0.4330127018922182
 30
-1.750000000000001
 70
   192
  0
VERTEX
  5
40B
330
408
100
AcDbEntity
  8
0
100
AcDbVertex
100
AcDbPolyFaceMeshVertex
 10
-25.0
 20
-0.3535533905932725
 30
-1.853553390593275
 70
   192
  0
VERTEX
  5
40C
330
408
100
AcDbEntity
  8
0
100
AcDbVertex
100
AcDbPolyFaceMeshVertex
 10
-10.0
 20
-0.4330127018922191
 30
-1.75
 70
   192
  0
VERTEX
  5
40D
330
408
100
AcDbEntity
  8
0
100
AcDbFaceRecord
 10
0.0
 20
0.0
 30
0.0
 70
   128
 71
    -1
 72
     2
 73
     3
  0
VERTEX
  5
40E
330
408
100
AcDbEntity
  8
0
100
AcDbFaceRecord
 10
0.0
 20
0.0
 30
0.0
 70
   128
 71
    -2
 72
     1
 73
     4
  0
SEQEND
  5
40F
330
408
100
AcDbEntity
  8
0
  0
POLYLINE
  5
410
330
1F
100
AcDbEntity
  8
0
100
AcDbPolyFaceMesh
 66
     1
 10
0.0
 20
0.0
 30
0.0
 70
    64
 71
     4
 72
     2
  0
VERTEX
  5
411
330
410
100
AcDbEntity
  8
0
100
AcDbVertex
100
AcDbPolyFaceMeshVertex
 10
-10.0
 20
-0.4330127018922191
 30
-1.75
 70
   192
  0
VERTEX
  5
412
330
410
100
AcDbEntity
  8
0
100
AcDbVertex
100
AcDbPolyFaceMeshVertex
 10
-25.0
 20
-0.4829629131445326
 30
-1.629409522551261
 70
   192
  0
VERTEX
  5
413
330
410
100
AcDbEntity
  8
0
100
AcDbVertex
100
AcDbPolyFaceMeshVertex
 10
-25.0
 20
-0.4330127018922182
 30
-1.750000000000001
 70
   192
  0
VERTEX
  5
414
330
410
100
AcDbEntity
  8
0
100
AcDbVertex
100
AcDbPolyFaceMeshVertex
 10
-10.0
 20
-0.4829629131445341
 30
-1.62940952255126
 70
   192
  0
VERTEX
  5
415
330
410
100
AcDbEntity
  8
0
100
AcDbFaceRecord
 10
0.0
 20
0.0
 30
0.0
 70
   128
 71
    -1
 72
     2
 73
     3
  0
VERTEX
  5
416
330
410
100
AcDbEntity
  8
0
100
AcDbFaceRecord
 10
0.0
 20
0.0
 30
0.0
 70
   128
 71
    -2
 72
     1
 73
     4
  0
SEQEND
  5
417
330
410
100
AcDbEntity
  8
0
  0
POLYLINE
  5
418
330
1F
100
AcDbEntity
  8
0
100
AcDbPolyFaceMesh
 66
     1
 10
0.0
 20
0.0
 30
0.0
 70
    64
 71
     4
 72
     2
  0
VERTEX
  5
419
330
418
100
AcDbEntity
  8
0
100
AcDbVertex
100
AcDbPolyFaceMeshVertex
 10
-10.0
 20
-0.433012701892219
 30
-1.25
 70
   192
  0
VERTEX
  5
41A
330
418
100
AcDbEntity
  8
0
100
AcDbVertex
100
AcDbPolyFaceMeshVertex
 10
-25.00000000000001
 20
-0.3535533905932723
 30
-1.146446609406727
 70
   192
  0
VERTEX
  5
41B
330
418
100
AcDbEntity
  8
0
100
AcDbVertex
100
AcDbPolyFaceMeshVertex
 10
-25.0
 20
-0.4330127018922185
 30
-1.25
 70
   192
  0
VERTEX
  5
41C
330
418
100
AcDbEntity
  8
0
100
AcDbVertex
100
AcDbPolyFaceMeshVertex
 10
-10.0
 20
-0.3535533905932736
 30
-1.146446609406726
 70
   192
  0
VERTEX
  5
41D
330
418
100
AcDbEntity
  8
0
100
AcDbFaceRecord
 10
0.0
 20
0.0
 30
0.0
 70
   128
 71
    -1
 72
     2
 73
     3
  0
VERTEX
  5
41E
330
418
100
AcDbEntity
  8
0
100
AcDbFaceRecord
 10
0.0
 20
0.0
 30
0.0
 70
   128
 71
    -2
 72
     1
 73
     4
  0
SEQEND
  5
41F
330
418
100
AcDbEntity
  8
0
  0
POLYLINE
  5
420
330
1F
100
AcDbEntity
  8
0
100
AcDbPolyFaceMesh
 66
     1
 10
0.0
 20
0.0
 30
0.0
 70
    64
 71
     4
 72
     2
  0
VERTEX
  5
421
330
420
100
AcDbEntity
  8
0
100
AcDbVertex
100
AcDbPolyFaceMeshVertex
 10
-10.0
 20
-0.4999999999999997
 30
-1.5
 70
   192
  0
VERTEX
  5
422
330
420
100
AcDbEntity
  8
0
100
AcDbVertex
100
AcDbPolyFaceMeshVertex
 10
-25.0
 20
-0.4829629131445331
 30
-1.37059047744874
 70
   192
  0
VERTEX
  5
423
330
420
100
AcDbEntity
  8
0
100
AcDbVertex
100
AcDbPolyFaceMeshVertex
 10
-25.0
 20
-0.4999999999999993
 30
-1.5
 70
   192
  0
VERTEX
  5
424
330
420
100
AcDbEntity
  8
0
100
AcDbVertex
100
AcDbPolyFaceMeshVertex
 10
-9.999999999999998
 20
-0.4829629131445339
 30
-1.37059047744874
 70
   192
  0
VERTEX
  5
425
330
420
100
AcDbEntity
  8
0
100
AcDbFaceRecord
 10
0.0
 20
0.0
 30
0.0
 70
   128
 71
    -1
 72
     2
 73
     3
  0
VERTEX
  5
426
330
420
100
AcDbEntity
  8
0
100
AcDbFaceRecord
 10
0.0
 20
0.0
 30
0.0
 70
   128
 71
    -2
 72
     1
 73
     4
  0
SEQEND
  5
427
330
420
100
AcDbEntity
  8
0
  0
POLYLINE
  5
428
330
1F
100
AcDbEntity
  8
0
100
AcDbPolyFaceMesh
 66
     1
 10
0.0
 20
0.0
 30
0.0
 70
    64
 71
     4
 72
     2
  0
VERTEX
  5
429
330
428
100
AcDbEntity
  8
0
100
AcDbVertex
100
AcDbPolyFaceMeshVertex
 10
-10.0
 20
-0.4829629131445341
 30
-1.62940952255126
 70
   192
  0
VERTEX
  5
42A
330
428
100
AcDbEntity
  8
0
100
AcDbVertex
100
AcDbPolyFaceMeshVertex
 10
-25.0
 20
-0.4999999999999993
 30
-1.5
 70
   192
  0
VERTEX
  5
42B
330
428
100
AcDbEntity
  8
0
100
AcDbVertex
100
AcDbPolyFaceMeshVertex
 10
-25.0
 20
-0.4829629131445326
 30
-1.629409522551261
 70
   192
  0
VERTEX
  5
42C
330
428
100
AcDbEntity
  8
0
100
AcDbVertex
100
AcDbPolyFaceMeshVertex
 10
-10.0
 20
-0.4999999999999997
 30
-1.5
 70
   192
  0
VERTEX
  5
42D
330
428
100
AcDbEntity
  8
0
100
AcDbFaceRecord
 10
0.0
 20
0.0
 30
0.0
 70
   128
 71
    -1
 72
     2
 73
     3
  0
VERTEX
  5
42E
330
428
100
AcDbEntity
  8
0
100
AcDbFaceRecord
 10
0.0
 20
0.0
 30
0.0
 70
   128
 71
    -2
 72
     1
 73
     4
  0
SEQEND
  5
42F
330
428
100
AcDbEntity
  8
0
  0
POLYLINE
  5
430
330
1F
100
AcDbEntity
  8
0
100
AcDbPolyFaceMesh
 66
     1
 10
0.0
 20
0.0
 30
0.0
 70
    64
 71
    74
 72
    76
  0
VERTEX
  5
431
330
430
100
AcDbEntity
  8
0
100
AcDbVertex
100
AcDbPolyFaceMeshVertex
 10
-10.0
 20
-0.540940507780755
 30
2.440775157002771
 70
   192
  0
VERTEX
  5
432
330
430
100
AcDbEntity
  8
0
100
AcDbVertex
100
AcDbPolyFaceMeshVertex
 10
-10.0
 20
-0.4999999999999993
 30
1.5
 70
   192
  0
VERTEX
  5
433
330
430
100
AcDbEntity
  8
0
100
AcDbVertex
100
AcDbPolyFaceMeshVertex
 10
-10.0
 20
-0.4999999999999997
 30
-1.5
 70
   192
  0
VERTEX
  5
434
330
430
100
AcDbEntity
  8
0
100
AcDbVertex
100
AcDbPolyFaceMeshVertex
 10
-10.0
 20
-0.4829629131445338
 30
1.629409522551261
 70
   192
  0
VERTEX
  5
435
330
430
100
AcDbEntity
  8
0
100
AcDbVertex
100
AcDbPolyFaceMeshVertex
 10
-10.0
 20
-0.4330127018922189
 30
1.75
 70
   192
  0
VERTEX
  5
436
330
430
100
AcDbEntity
  8
0
100
AcDbVertex
100
AcDbPolyFaceMeshVertex
 10
-10.0
 20
0.1092106884940579
 30
2.497613465994819
 70
   192
  0
VERTEX
  5
437
330
430
100
AcDbEntity
  8
0
100
AcDbVertex
100
AcDbPolyFaceMeshVertex
 10
-10.0
 20
-0.3535533905932735
 30
1.853553390593274
 70
   192
  0
VERTEX
  5
438
330
430
100
AcDbEntity
  8
0
100
AcDbVertex
100
AcDbPolyFaceMeshVertex
 10
-10.0
 20
-0.2499999999999994
 30
1.93301270189222
 70
   192
  0
VERTEX
  5
439
330
430
100
AcDbEntity
  8
0
100
AcDbVertex
100
AcDbPolyFaceMeshVertex
 10
-9.999999999999998
 20
-0.1294095225512601
 30
1.982962913144535
 70
   192
  0
VERTEX
  5
43A
330
430
100
AcDbEntity
  8
0
100
AcDbVertex
100
AcDbPolyFaceMeshVertex
 10
-10.0
 20
0.0000000000000004
 30
2.0
 70
   192
  0
VERTEX
  5
43B
330
430
100
AcDbEntity
  8
0
100
AcDbVertex
100
AcDbPolyFaceMeshVertex
 10
-10.0
 20
0.1294095225512603
 30
1.982962913144534
 70
   192
  0
VERTEX
  5
43C
330
430
100
AcDbEntity
  8
0
100
AcDbVertex
100
AcDbPolyFaceMeshVertex
 10
-10.0
 20
0.7519193568271972
 30
2.384243544780729
 70
   192
  0
VERTEX
  5
43D
330
430
100
AcDbEntity
  8
0
100
AcDbVertex
100
AcDbPolyFaceMeshVertex
 10
-9.999999999999998
 20
0.2500000000000001
 30
1.93301270189222
 70
   192
  0
VERTEX
  5
43E
330
430
100
AcDbEntity
  8
0
100
AcDbVertex
100
AcDbPolyFaceMeshVertex
 10
-10.0
 20
0.3535533905932738
 30
1.853553390593274
 70
   192
  0
VERTEX
  5
43F
330
430
100
AcDbEntity
  8
0
100
AcDbVertex
100
AcDbPolyFaceMeshVertex
 10
-10.0
 20
0.4330127018922193
 30
1.750000000000001
 70
   192
  0
VERTEX
  5
440
330
430
100
AcDbEntity
  8
0
100
AcDbVertex
100
AcDbPolyFaceMeshVertex
 10
-10.0
 20
0.4829629131445342
 30
1.629409522551261
 70
   192
  0
VERTEX
  5
441
330
430
100
AcDbEntity
  8
0
100
AcDbVertex
100
AcDbPolyFaceMeshVertex
 10
-10.0
 20
0.4999999999999999
 30
1.5
 70
   192
  0
VERTEX
  5
442
330
430
100
AcDbEntity
  8
0
100
AcDbVertex
100
AcDbPolyFaceMeshVertex
 10
-10.0
 20
0.5000000000000004
 30
-1.5
 70
   192
  0
VERTEX
  5
443
330
430
100
AcDbEntity
  8
0
100
AcDbVertex
100
AcDbPolyFaceMeshVertex
 10
-9.999999999999998
 20
0.5409405077807546
 30
-2.44077515700277
 70
   192
  0
VERTEX
  5
444
330
430
100
AcDbEntity
  8
0
100
AcDbVertex
100
AcDbPolyFaceMeshVertex
 10
-10.0
 20
1.154227502396766
 30
-2.217602054632644
 70
   192
  0
VERTEX
  5
445
330
430
100
AcDbEntity
  8
0
100
AcDbVertex
100
AcDbPolyFaceMeshVertex
 10
-10.0
 20
1.343385963598052
 30
2.108391366138585
 70
   192
  0
VERTEX
  5
446
330
430
100
AcDbEntity
  8
0
100
AcDbVertex
100
AcDbPolyFaceMeshVertex
 10
-10.0
 20
1.688855800175572
 30
-1.843303036999974
 70
   192
  0
VERTEX
  5
447
330
430
100
AcDbEntity
  8
0
100
AcDbVertex
100
AcDbPolyFaceMeshVertex
 10
-10.0
 20
1.843303036999975
 30
1.688855800175572
 70
   192
  0
VERTEX
  5
448
330
430
100
AcDbEntity
  8
0
100
AcDbVertex
100
AcDbPolyFaceMeshVertex
 10
-10.0
 20
2.108391366138585
 30
-1.343385963598053
 70
   192
  0
VERTEX
  5
449
330
430
100
AcDbEntity
  8
0
100
AcDbVertex
100
AcDbPolyFaceMeshVertex
 10
-10.0
 20
2.217602054632644
 30
1.154227502396766
 70
   192
  0
VERTEX
  5
44A
330
430
100
AcDbEntity
  8
0
100
AcDbVertex
100
AcDbPolyFaceMeshVertex
 10
-10.0
 20
2.384243544780729
 30
-0.7519193568271981
 70
   192
  0
VERTEX
  5
44B
330
430
100
AcDbEntity
  8
0
100
AcDbVertex
100
AcDbPolyFaceMeshVertex
 10
-10.0
 20
2.44077515700277
 30
0.5409405077807554
 70
   192
  0
VERTEX
  5
44C
330
430
100
AcDbEntity
  8
0
100
AcDbVertex
100
AcDbPolyFaceMeshVertex
 10
-10.0
 20
2.497613465994819
 30
-0.1092106884940592
 70
   192
  0
VERTEX
  5
44D
330
430
100
AcDbEntity
  8
0
100
AcDbVertex
100
AcDbPolyFaceMeshVertex
 10
-10.0
 20
2.488065916296493
 30
0.0
 70
   192
  0
VERTEX
  5
44E
330
430
100
AcDbEntity
  8
0
100
AcDbVertex
100
AcDbPolyFaceMeshVertex
 10
-10.0
 20
-2.384243544780728
 30
0.7519193568271981
 70
   192
  0
VERTEX
  5
44F
330
430
100
AcDbEntity
  8
0
100
AcDbVertex
100
AcDbPolyFaceMeshVertex
 10
-10.0
 20
-2.488065916296494
 30
0.0000000000000004
 70
   192
  0
VERTEX
  5
450
330
430
100
AcDbEntity
  8
0
100
AcDbVertex
100
AcDbPolyFaceMeshVertex
 10
-10.0
 20
-2.497613465994819
 30
0.1092106884940588
 70
   192
  0
VERTEX
  5
451
330
430
100
AcDbEntity
  8
0
100
AcDbVertex
100
AcDbPolyFaceMeshVertex
 10
-10.0
 20
-2.44077515700277
 30
-0.5409405077807554
 70
   192
  0
VERTEX
  5
452
330
430
100
AcDbEntity
  8
0
100
AcDbVertex
100
AcDbPolyFaceMeshVertex
 10
-10.0
 20
-2.217602054632645
 30
-1.154227502396766
 70
   192
  0
VERTEX
  5
453
330
430
100
AcDbEntity
  8
0
100
AcDbVertex
100
AcDbPolyFaceMeshVertex
 10
-10.0
 20
-2.108391366138585
 30
1.343385963598053
 70
   192
  0
VERTEX
  5
454
330
430
100
AcDbEntity
  8
0
100
AcDbVertex
100
AcDbPolyFaceMeshVertex
 10
-10.0
 20
-1.843303036999973
 30
-1.688855800175573
 70
   192
  0
VERTEX
  5
455
330
430
100
AcDbEntity
  8
0
100
AcDbVertex
100
AcDbPolyFaceMeshVertex
 10
-10.0
 20
-1.688855800175573
 30
1.843303036999974
 70
   192
  0
VERTEX
  5
456
330
430
100
AcDbEntity
  8
0
100
AcDbVertex
100
AcDbPolyFaceMeshVertex
 10
-10.0
 20
-1.343385963598053
 30
-2.108391366138586
 70
   192
  0
VERTEX
  5
457
330
430
100
AcDbEntity
  8
0
100
AcDbVertex
100
AcDbPolyFaceMeshVertex
 10
-10.0
 20
-1.154227502396766
 30
2.217602054632644
 70
   192
  0
VERTEX
  5
458
330
430
100
AcDbEntity
  8
0
100
AcDbVertex
100
AcDbPolyFaceMeshVertex
 10
-10.0
 20
-0.7519193568271978
 30
-2.384243544780728
 70
   192
  0
VERTEX
  5
459
330
430
100
AcDbEntity
  8
0
100
AcDbVertex
100
AcDbPolyFaceMeshVertex
 10
-10.0
 20
-0.4829629131445341
 30
-1.62940952255126
 70
   192
  0
VERTEX
  5
45A
330
430
100
AcDbEntity
  8
0
100
AcDbVertex
100
AcDbPolyFaceMeshVertex
 10
-10.0
 20
-0.4330127018922191
 30
-1.75
 70
   192
  0
VERTEX
  5
45B
330
430
100
AcDbEntity
  8
0
100
AcDbVertex
100
AcDbPolyFaceMeshVertex
 10
-10.0
 20
-0.1092106884940583
 30
-2.497613465994819
 70
   192
  0
VERTEX
  5
45C
330
430
100
AcDbEntity
  8
0
100
AcDbVertex
100
AcDbPolyFaceMeshVertex
 10
-10.0
 20
-0.3535533905932733
 30
-1.853553390593274
 70
   192
  0
VERTEX
  5
45D
330
430
100
AcDbEntity
  8
0
100
AcDbVertex
100
AcDbPolyFaceMeshVertex
 10
-10.0
 20
-0.2499999999999999
 30
-1.933012701892219
 70
   192
  0
VERTEX
  5
45E
330
430
100
AcDbEntity
  8
0
100
AcDbVertex
100
AcDbPolyFaceMeshVertex
 10
-10.0
 20
-0.1294095225512605
 30
-1.982962913144534
 70
   192
  0
VERTEX
  5
45F
330
430
100
AcDbEntity
  8
0
100
AcDbVertex
100
AcDbPolyFaceMeshVertex
 10
-10.0
 20
-0.0000000000000001
 30
-2.0
 70
   192
  0
VERTEX
  5
460
330
430
100
AcDbEntity
  8
0
100
AcDbVertex
100
AcDbPolyFaceMeshVertex
 10
-10.0
 20
0.1294095225512604
 30
-1.982962913144534
 70
   192
  0
VERTEX
  5
461
330
430
100
AcDbEntity
  8
0
100
AcDbVertex
100
AcDbPolyFaceMeshVertex
 10
-10.0
 20
0.2499999999999999
 30
-1.933012701892219
 70
   192
  0
VERTEX
  5
462
330
430
100
AcDbEntity
  8
0
100
AcDbVertex
100
AcDbPolyFaceMeshVertex
 10
-10.0
 20
0.3535533905932739
 30
-1.853553390593274
 70
   192
  0
VERTEX
  5
463
330
430
100
AcDbEntity
  8
0
100
AcDbVertex
100
AcDbPolyFaceMeshVertex
 10
-10.0
 20
0.4330127018922192
 30
-1.75
 70
   192
  0
VERTEX
  5
464
330
430
100
AcDbEntity
  8
0
100
AcDbVertex
100
AcDbPolyFaceMeshVertex
 10
-10.0
 20
0.4829629131445343
 30
-1.629409522551261
 70
   192
  0
VERTEX
  5
465
330
430
100
AcDbEntity
  8
0
100
AcDbVertex
100
AcDbPolyFaceMeshVertex
 10
-9.999999999999998
 20
-0.4829629131445339
 30
-1.37059047744874
 70
   192
  0
VERTEX
  5
466
330
430
100
AcDbEntity
  8
0
100
AcDbVertex
100
AcDbPolyFaceMeshVertex
 10
-9.999999999999998
 20
-0.4829629131445341
 30
1.37059047744874
 70
   192
  0
VERTEX
  5
467
330
430
100
AcDbEntity
  8
0
100
AcDbVertex
100
AcDbPolyFaceMeshVertex
 10
-10.0
 20
-0.4330127018922193
 30
1.25
 70
   192
  0
VERTEX
  5
468
330
430
100
AcDbEntity
  8
0
100
AcDbVertex
100
AcDbPolyFaceMeshVertex
 10
-10.0
 20
-0.433012701892219
 30
-1.25
 70
   192
  0
VERTEX
  5
469
330
430
100
AcDbEntity
  8
0
100
AcDbVertex
100
AcDbPolyFaceMeshVertex
 10
-10.0
 20
-0.3535533905932737
 30
1.146446609406727
 70
   192
  0
VERTEX
  5
46A
330
430
100
AcDbEntity
  8
0
100
AcDbVertex
100
AcDbPolyFaceMeshVertex
 10
-10.0
 20
-0.3535533905932736
 30
-1.146446609406726
 70
   192
  0
VERTEX
  5
46B
330
430
100
AcDbEntity
  8
0
100
AcDbVertex
100
AcDbPolyFaceMeshVertex
 10
-10.0
 20
-0.2499999999999999
 30
1.066987298107781
 70
   192
  0
VERTEX
  5
46C
330
430
100
AcDbEntity
  8
0
100
AcDbVertex
100
AcDbPolyFaceMeshVertex
 10
-10.0
 20
-0.2499999999999994
 30
-1.066987298107781
 70
   192
  0
VERTEX
  5
46D
330
430
100
AcDbEntity
  8
0
100
AcDbVertex
100
AcDbPolyFaceMeshVertex
 10
-10.0
 20
-0.1294095225512607
 30
1.017037086855467
 70
   192
  0
VERTEX
  5
46E
330
430
100
AcDbEntity
  8
0
100
AcDbVertex
100
AcDbPolyFaceMeshVertex
 10
-9.999999999999998
 20
-0.1294095225512602
 30
-1.017037086855466
 70
   192
  0
VERTEX
  5
46F
330
430
100
AcDbEntity
  8
0
100
AcDbVertex
100
AcDbPolyFaceMeshVertex
 10
-10.0
 20
0.0000000000000001
 30
1.000000000000001
 70
   192
  0
VERTEX
  5
470
330
430
100
AcDbEntity
  8
0
100
AcDbVertex
100
AcDbPolyFaceMeshVertex
 10
-10.0
 20
0.0000000000000002
 30
-0.9999999999999998
 70
   192
  0
VERTEX
  5
471
330
430
100
AcDbEntity
  8
0
100
AcDbVertex
100
AcDbPolyFaceMeshVertex
 10
-10.0
 20
0.1294095225512605
 30
1.017037086855466
 70
   192
  0
VERTEX
  5
472
330
430
100
AcDbEntity
  8
0
100
AcDbVertex
100
AcDbPolyFaceMeshVertex
 10
-10.0
 20
0.1294095225512606
 30
-1.017037086855466
 70
   192
  0
VERTEX
  5
473
330
430
100
AcDbEntity
  8
0
100
AcDbVertex
100
AcDbPolyFaceMeshVertex
 10
-10.0
 20
0.25
 30
1.066987298107781
 70
   192
  0
VERTEX
  5
474
330
430
100
AcDbEntity
  8
0
100
AcDbVertex
100
AcDbPolyFaceMeshVertex
 10
-9.999999999999998
 20
0.25
 30
-1.066987298107781
 70
   192
  0
VERTEX
  5
475
330
430
100
AcDbEntity
  8
0
100
AcDbVertex
100
AcDbPolyFaceMeshVertex
 10
-10.0
 20
0.3535533905932735
 30
1.146446609406727
 70
   192
  0
VERTEX
  5
476
330
430
100
AcDbEntity
  8
0
100
AcDbVertex
100
AcDbPolyFaceMeshVertex
 10
-10.0
 20
0.353553390593274
 30
-1.146446609406726
 70
   192
  0
VERTEX
  5
477
330
430
100
AcDbEntity
  8
0
100
AcDbVertex
100
AcDbPolyFaceMeshVertex
 10
-10.0
 20
0.4330127018922192
 30
1.25
 70
   192
  0
VERTEX
  5
478
330
430
100
AcDbEntity
  8
0
100
AcDbVertex
100
AcDbPolyFaceMeshVertex
 10
-10.0
 20
0.4330127018922193
 30
-1.25
 70
   192
  0
VERTEX
  5
479
330
430
100
AcDbEntity
  8
0
100
AcDbVertex
100
AcDbPolyFaceMeshVertex
 10
-10.0
 20
0.4829629131445339
 30
1.370590477448739
 70
   192
  0
VERTEX
  5
47A
330
430
100
AcDbEntity
  8
0
100
AcDbVertex
100
AcDbPolyFaceMeshVertex
 10
-10.0
 20
0.4829629131445343
 30
-1.37059047744874
 70
   192
  0
VERTEX
  5
47B
330
430
100
AcDbEntity
  8
0
100
AcDbFaceRecord
 10
0.0
 20
0.0
 30
0.0
 70
   128
 71
    -1
 72
    -2
 73
    -3
  0
VERTEX
  5
47C
330
430
100
AcDbEntity
  8
0
100
AcDbFaceRecord
 10
0.0
 20
0.0
 30
0.0
 70
   128
 71
    -2
 72
    -1
 73
     4
  0
VERTEX
  5
47D
330
430
100
AcDbEntity
  8
0
100
AcDbFaceRecord
 10
0.0
 20
0.0
 30
0.0
 70
   128
 71
    -4
 72
    -1
 73
     5
  0
VERTEX
  5
47E
330
430
100
AcDbEntity
  8
0
100
AcDbFaceRecord
 10
0.0
 20
0.0
 30
0.0
 70
   128
 71
    -5
 72
     1
 73
    -6
  0
VERTEX
  5
47F
330
430
100
AcDbEntity
  8
0
100
AcDbFaceRecord
 10
0.0
 20
0.0
 30
0.0
 70
   128
 71
    -5
 72
    -6
 73
     7
  0
VERTEX
  5
480
330
430
100
AcDbEntity
  8
0
100
AcDbFaceRecord
 10
0.0
 20
0.0
 30
0.0
 70
   128
 71
    -7
 72
    -6
 73
     8
  0
VERTEX
  5
481
330
430
100
AcDbEntity
  8
0
100
AcDbFaceRecord
 10
0.0
 20
0.0
 30
0.0
 70
   128
 71
    -8
 72
    -6
 73
     9
  0
VERTEX
  5
482
330
430
100
AcDbEntity
  8
0
100
AcDbFaceRecord
 10
0.0
 20
0.0
 30
0.0
 70
   128
 71
    -9
 72
    -6
 73
    10
  0
VERTEX
  5
483
330
430
100
AcDbEntity
  8
0
100
AcDbFaceRecord
 10
0.0
 20
0.0
 30
0.0
 70
   128
 71
   -10
 72
    -6
 73
    11
  0
VERTEX
  5
484
330
430
100
AcDbEntity
  8
0
100
AcDbFaceRecord
 10
0.0
 20
0.0
 30
0.0
 70
   128
 71
   -11
 72
     6
 73
   -12
  0
VERTEX
  5
485
330
430
100
AcDbEntity
  8
0
100
AcDbFaceRecord
 10
0.0
 20
0.0
 30
0.0
 70
   128
 71
   -11
 72
   -12
 73
    13
  0
VERTEX
  5
486
330
430
100
AcDbEntity
  8
0
100
AcDbFaceRecord
 10
0.0
 20
0.0
 30
0.0
 70
   128
 71
   -13
 72
   -12
 73
    14
  0
VERTEX
  5
487
330
430
100
AcDbEntity
  8
0
100
AcDbFaceRecord
 10
0.0
 20
0.0
 30
0.0
 70
   128
 71
   -14
 72
   -12
 73
    15
  0
VERTEX
  5
488
330
430
100
AcDbEntity
  8
0
100
AcDbFaceRecord
 10
0.0
 20
0.0
 30
0.0
 70
   128
 71
   -15
 72
   -12
 73
    16
  0
VERTEX
  5
489
330
430
100
AcDbEntity
  8
0
100
AcDbFaceRecord
 10
0.0
 20
0.0
 30
0.0
 70
   128
 71
   -16
 72
   -12
 73
    17
  0
VERTEX
  5
48A
330
430
100
AcDbEntity
  8
0
100
AcDbFaceRecord
 10
0.0
 20
0.0
 30
0.0
 70
   128
 71
   -17
 72
   -12
 73
   -18
  0
VERTEX
  5
48B
330
430
100
AcDbEntity
  8
0
100
AcDbFaceRecord
 10
0.0
 20
0.0
 30
0.0
 70
   128
 71
   -18
 72
   -12
 73
   -19
  0
VERTEX
  5
48C
330
430
100
AcDbEntity
  8
0
100
AcDbFaceRecord
 10
0.0
 20
0.0
 30
0.0
 70
   128
 71
   -19
 72
   -12
 73
    20
  0
VERTEX
  5
48D
330
430
100
AcDbEntity
  8
0
100
AcDbFaceRecord
 10
0.0
 20
0.0
 30
0.0
 70
   128
 71
   -20
 72
    12
 73
   -21
  0
VERTEX
  5
48E
330
430
100
AcDbEntity
  8
0
100
AcDbFaceRecord
 10
0.0
 20
0.0
 30
0.0
 70
   128
 71
   -20
 72
   -21
 73
    22
  0
VERTEX
  5
48F
330
430
100
AcDbEntity
  8
0
100
AcDbFaceRecord
 10
0.0
 20
0.0
 30
0.0
 70
   128
 71
   -22
 72
    21
 73
   -23
  0
VERTEX
  5
490
330
430
100
AcDbEntity
  8
0
100
AcDbFaceRecord
 10
0.0
 20
0.0
 30
0.0
 70
   128
 71
   -22
 72
   -23
 73
    24
  0
VERTEX
  5
491
330
430
100
AcDbEntity
  8
0
100
AcDbFaceRecord
 10
0.0
 20
0.0
 30
0.0
 70
   128
 71
   -24
 72
    23
 73
   -25
  0
VERTEX
  5
492
330
430
100
AcDbEntity
  8
0
100
AcDbFaceRecord
 10
0.0
 20
0.0
 30
0.0
 70
   128
 71
   -24
 72
   -25
 73
    26
  0
VERTEX
  5
493
330
430
100
AcDbEntity
  8
0
100
AcDbFaceRecord
 10
0.0
 20
0.0
 30
0.0
 70
   128
 71
   -26
 72
    25
 73
   -27
  0
VERTEX
  5
494
330
430
100
AcDbEntity
  8
0
100
AcDbFaceRecord
 10
0.0
 20
0.0
 30
0.0
 70
   128
 71
   -26
 72
   -27
 73
    28
  0
VERTEX
  5
495
330
430
100
AcDbEntity
  8
0
100
AcDbFaceRecord
 10
0.0
 20
0.0
 30
0.0
 70
   128
 71
   -28
 72
    27
 73
    29
  0
VERTEX
  5
496
330
430
100
AcDbEntity
  8
0
100
AcDbFaceRecord
 10
0.0
 20
0.0
 30
0.0
 70
   128
 71
   -30
 72
    31
 73
    32
  0
VERTEX
  5
497
330
430
100
AcDbEntity
  8
0
100
AcDbFaceRecord
 10
0.0
 20
0.0
 30
0.0
 70
   128
 71
   -31
 72
   -30
 73
    33
  0
VERTEX
  5
498
330
430
100
AcDbEntity
  8
0
100
AcDbFaceRecord
 10
0.0
 20
0.0
 30
0.0
 70
   128
 71
   -33
 72
   -30
 73
    34
  0
VERTEX
  5
499
330
430
100
AcDbEntity
  8
0
100
AcDbFaceRecord
 10
0.0
 20
0.0
 30
0.0
 70
   128
 71
   -34
 72
    30
 73
   -35
  0
VERTEX
  5
49A
330
430
100
AcDbEntity
  8
0
100
AcDbFaceRecord
 10
0.0
 20
0.0
 30
0.0
 70
   128
 71
   -34
 72
   -35
 73
    36
  0
VERTEX
  5
49B
330
430
100
AcDbEntity
  8
0
100
AcDbFaceRecord
 10
0.0
 20
0.0
 30
0.0
 70
   128
 71
   -36
 72
    35
 73
   -37
  0
VERTEX
  5
49C
330
430
100
AcDbEntity
  8
0
100
AcDbFaceRecord
 10
0.0
 20
0.0
 30
0.0
 70
   128
 71
   -36
 72
   -37
 73
    38
  0
VERTEX
  5
49D
330
430
100
AcDbEntity
  8
0
100
AcDbFaceRecord
 10
0.0
 20
0.0
 30
0.0
 70
   128
 71
   -38
 72
    37
 73
   -39
  0
VERTEX
  5
49E
330
430
100
AcDbEntity
  8
0
100
AcDbFaceRecord
 10
0.0
 20
0.0
 30
0.0
 70
   128
 71
   -38
 72
   -39
 73
    40
  0
VERTEX
  5
49F
330
430
100
AcDbEntity
  8
0
100
AcDbFaceRecord
 10
0.0
 20
0.0
 30
0.0
 70
   128
 71
   -40
 72
    39
 73
    -1
  0
VERTEX
  5
4A0
330
430
100
AcDbEntity
  8
0
100
AcDbFaceRecord
 10
0.0
 20
0.0
 30
0.0
 70
   128
 71
   -40
 72
    -1
 73
    -3
  0
VERTEX
  5
4A1
330
430
100
AcDbEntity
  8
0
100
AcDbFaceRecord
 10
0.0
 20
0.0
 30
0.0
 70
   128
 71
   -40
 72
     3
 73
   -41
  0
VERTEX
  5
4A2
330
430
100
AcDbEntity
  8
0
100
AcDbFaceRecord
 10
0.0
 20
0.0
 30
0.0
 70
   128
 71
   -40
 72
    41
 73
   -42
  0
VERTEX
  5
4A3
330
430
100
AcDbEntity
  8
0
100
AcDbFaceRecord
 10
0.0
 20
0.0
 30
0.0
 70
   128
 71
   -40
 72
   -42
 73
    43
  0
VERTEX
  5
4A4
330
430
100
AcDbEntity
  8
0
100
AcDbFaceRecord
 10
0.0
 20
0.0
 30
0.0
 70
   128
 71
   -43
 72
    42
 73
   -44
  0
VERTEX
  5
4A5
330
430
100
AcDbEntity
  8
0
100
AcDbFaceRecord
 10
0.0
 20
0.0
 30
0.0
 70
   128
 71
   -43
 72
    44
 73
   -45
  0
VERTEX
  5
4A6
330
430
100
AcDbEntity
  8
0
100
AcDbFaceRecord
 10
0.0
 20
0.0
 30
0.0
 70
   128
 71
   -43
 72
    45
 73
   -46
  0
VERTEX
  5
4A7
330
430
100
AcDbEntity
  8
0
100
AcDbFaceRecord
 10
0.0
 20
0.0
 30
0.0
 70
   128
 71
   -43
 72
    46
 73
   -47
  0
VERTEX
  5
4A8
330
430
100
AcDbEntity
  8
0
100
AcDbFaceRecord
 10
0.0
 20
0.0
 30
0.0
 70
   128
 71
   -43
 72
   -47
 73
    19
  0
VERTEX
  5
4A9
330
430
100
AcDbEntity
  8
0
100
AcDbFaceRecord
 10
0.0
 20
0.0
 30
0.0
 70
   128
 71
   -19
 72
    47
 73
   -48
  0
VERTEX
  5
4AA
330
430
100
AcDbEntity
  8
0
100
AcDbFaceRecord
 10
0.0
 20
0.0
 30
0.0
 70
   128
 71
   -19
 72
    48
 73
   -49
  0
VERTEX
  5
4AB
330
430
100
AcDbEntity
  8
0
100
AcDbFaceRecord
 10
0.0
 20
0.0
 30
0.0
 70
   128
 71
   -19
 72
    49
 73
   -50
  0
VERTEX
  5
4AC
330
430
100
AcDbEntity
  8
0
100
AcDbFaceRecord
 10
0.0
 20
0.0
 30
0.0
 70
   128
 71
   -19
 72
    50
 73
   -51
  0
VERTEX
  5
4AD
330
430
100
AcDbEntity
  8
0
100
AcDbFaceRecord
 10
0.0
 20
0.0
 30
0.0
 70
   128
 71
   -19
 72
    51
 73
   -52
  0
VERTEX
  5
4AE
330
430
100
AcDbEntity
  8
0
100
AcDbFaceRecord
 10
0.0
 20
0.0
 30
0.0
 70
   128
 71
   -19
 72
    52
 73
   -18
  0
VERTEX
  5
4AF
330
430
100
AcDbEntity
  8
0
100
AcDbFaceRecord
 10
0.0
 20
0.0
 30
0.0
 70
   128
 71
    -2
 72
    53
 73
    -3
  0
VERTEX
  5
4B0
330
430
100
AcDbEntity
  8
0
100
AcDbFaceRecord
 10
0.0
 20
0.0
 30
0.0
 70
   128
 71
   -53
 72
     2
 73
   -54
  0
VERTEX
  5
4B1
330
430
100
AcDbEntity
  8
0
100
AcDbFaceRecord
 10
0.0
 20
0.0
 30
0.0
 70
   128
 71
   -53
 72
    54
 73
   -55
  0
VERTEX
  5
4B2
330
430
100
AcDbEntity
  8
0
100
AcDbFaceRecord
 10
0.0
 20
0.0
 30
0.0
 70
   128
 71
   -53
 72
   -55
 73
    56
  0
VERTEX
  5
4B3
330
430
100
AcDbEntity
  8
0
100
AcDbFaceRecord
 10
0.0
 20
0.0
 30
0.0
 70
   128
 71
   -56
 72
    55
 73
   -57
  0
VERTEX
  5
4B4
330
430
100
AcDbEntity
  8
0
100
AcDbFaceRecord
 10
0.0
 20
0.0
 30
0.0
 70
   128
 71
   -56
 72
   -57
 73
    58
  0
VERTEX
  5
4B5
330
430
100
AcDbEntity
  8
0
100
AcDbFaceRecord
 10
0.0
 20
0.0
 30
0.0
 70
   128
 71
   -58
 72
    57
 73
   -59
  0
VERTEX
  5
4B6
330
430
100
AcDbEntity
  8
0
100
AcDbFaceRecord
 10
0.0
 20
0.0
 30
0.0
 70
   128
 71
   -58
 72
   -59
 73
    60
  0
VERTEX
  5
4B7
330
430
100
AcDbEntity
  8
0
100
AcDbFaceRecord
 10
0.0
 20
0.0
 30
0.0
 70
   128
 71
   -60
 72
    59
 73
   -61
  0
VERTEX
  5
4B8
330
430
100
AcDbEntity
  8
0
100
AcDbFaceRecord
 10
0.0
 20
0.0
 30
0.0
 70
   128
 71
   -60
 72
   -61
 73
    62
  0
VERTEX
  5
4B9
330
430
100
AcDbEntity
  8
0
100
AcDbFaceRecord
 10
0.0
 20
0.0
 30
0.0
 70
   128
 71
   -62
 72
    61
 73
   -63
  0
VERTEX
  5
4BA
330
430
100
AcDbEntity
  8
0
100
AcDbFaceRecord
 10
0.0
 20
0.0
 30
0.0
 70
   128
 71
   -62
 72
   -63
 73
    64
  0
VERTEX
  5
4BB
330
430
100
AcDbEntity
  8
0
100
AcDbFaceRecord
 10
0.0
 20
0.0
 30
0.0
 70
   128
 71
   -64
 72
    63
 73
   -65
  0
VERTEX
  5
4BC
330
430
100
AcDbEntity
  8
0
100
AcDbFaceRecord
 10
0.0
 20
0.0
 30
0.0
 70
   128
 71
   -64
 72
   -65
 73
    66
  0
VERTEX
  5
4BD
330
430
100
AcDbEntity
  8
0
100
AcDbFaceRecord
 10
0.0
 20
0.0
 30
0.0
 70
   128
 71
   -66
 72
    65
 73
   -67
  0
VERTEX
  5
4BE
330
430
100
AcDbEntity
  8
0
100
AcDbFaceRecord
 10
0.0
 20
0.0
 30
0.0
 70
   128
 71
   -66
 72
   -67
 73
    68
  0
VERTEX
  5
4BF
330
430
100
AcDbEntity
  8
0
100
AcDbFaceRecord
 10
0.0
 20
0.0
 30
0.0
 70
   128
 71
   -68
 72
    67
 73
   -69
  0
VERTEX
  5
4C0
330
430
100
AcDbEntity
  8
0
100
AcDbFaceRecord
 10
0.0
 20
0.0
 30
0.0
 70
   128
 71
   -68
 72
   -69
 73
    70
  0
VERTEX
  5
4C1
330
430
100
AcDbEntity
  8
0
100
AcDbFaceRecord
 10
0.0
 20
0.0
 30
0.0
 70
   128
 71
   -70
 72
    69
 73
   -71
  0
VERTEX
  5
4C2
330
430
100
AcDbEntity
  8
0
100
AcDbFaceRecord
 10
0.0
 20
0.0
 30
0.0
 70
   128
 71
   -70
 72
   -71
 73
    72
  0
VERTEX
  5
4C3
330
430
100
AcDbEntity
  8
0
100
AcDbFaceRecord
 10
0.0
 20
0.0
 30
0.0
 70
   128
 71
   -72
 72
    71
 73
   -73
  0
VERTEX
  5
4C4
330
430
100
AcDbEntity
  8
0
100
AcDbFaceRecord
 10
0.0
 20
0.0
 30
0.0
 70
   128
 71
   -72
 72
   -73
 73
    74
  0
VERTEX
  5
4C5
330
430
100
AcDbEntity
  8
0
100
AcDbFaceRecord
 10
0.0
 20
0.0
 30
0.0
 70
   128
 71
   -74
 72
    73
 73
   -17
  0
VERTEX
  5
4C6
330
430
100
AcDbEntity
  8
0
100
AcDbFaceRecord
 10
0.0
 20
0.0
 30
0.0
 70
   128
 71
   -74
 72
   -17
 73
    18
  0
SEQEND
  5
4C7
330
430
100
AcDbEntity
  8
0
  0
LEADER
  5
4EA
330
1F
100
AcDbEntity
  8
0
 62
    18
100
AcDbLeader
  3
STANDARD
 76
     3
 10
-10.03758659643795
 20
-21.75555189307714
 30
16.72462023673543
 10
-7.840409594326353
 20
-18.84384989204538
 30
18.04789567816656
 10
-7.436584792947293
 20
-18.47330918283426
 30
18.04789567816656
213
0.2019124006895261
223
0.1852703546055601
233
0.0
210
-0.60502818036381
220
0.6593752823659176
230
-0.4462792152571342
1001
ACAD
1000
DSTYLE
1002
{
1070
     5
1000

1070
    41
1040
0.5480646744605214
1002
}
  0
MTEXT
  5
4EB
330
1F
100
AcDbEntity
  8
0
 62
    18
100
AcDbMText
 10
-26.35868157194991
 20
2.553798563949356
 30
4.247914577026595
 40
0.5480646744605214
 41
0.0
 71
     1
 72
     1
  1
+ve anode
  7
TAHOMA
210
0.60502818036381
220
-0.6593752823659176
230
0.4462792152571342
 11
0.7368196130804426
 21
0.6760893859394532
 31
5.551115123125783E-17
  0
LEADER
  5
4EC
330
1F
100
AcDbEntity
  8
0
 62
    18
100
AcDbLeader
  3
STANDARD
 76
     3
 10
-6.568618101751241
 20
-20.08699435494722
 30
11.5953050066344
 10
-5.955564169752687
 20
-20.90980047646726
 30
9.548485678234035
 10
-6.34741177556495
 20
-21.26935117584113
 30
9.548485678234037
213
-0.1959238029061261
223
-0.1797753496869339
233
0.0
210
-0.60502818036381
220
0.6593752823659176
230
-0.4462792152571342
1001
ACAD
1000
DSTYLE
1002
{
1070
     5
1000

1070
    41
1040
0.5318094128548649
1002
}
  0
MTEXT
  5
4ED
330
1F
100
AcDbEntity
  8
0
 62
    18
100
AcDbMText
 10
-24.10332841906746
 20
-2.311794392255566
 30
-3.106932240533226
 40
0.5318094128548649
 41
0.0
 71
     3
 72
     1
  1
-ve cathode
  7
TAHOMA
210
0.60502818036381
220
-0.6593752823659176
230
0.4462792152571342
 11
0.7368196130804426
 21
0.6760893859394532
 31
5.551115123125783E-17
  0
ENDSEC
  0
SECTION
  2
OBJECTS
  0
DICTIONARY
  5
C
330
0
100
AcDbDictionary
  3
ACAD_GROUP
350
D
  3
ACAD_LAYOUT
350
1A
  3
ACAD_MATERIAL
350
3B
  3
ACAD_MLEADERSTYLE
350
510
  3
ACAD_MLINESTYLE
350
17
  3
ACAD_PLOTSETTINGS
350
19
  3
ACAD_SCALELIST
350
4C8
  3
ACAD_VISUALSTYLE
350
2A
  3
ACDBHEADERROUNDTRIPXREC
350
4EE
  3
ACDBVARIABLEDICTIONARY
350
50E
  0
DICTIONARY
  5
D
102
{ACAD_REACTORS
330
C
102
}
330
C
100
AcDbDictionary
  0
DICTIONARY
  5
1A
102
{ACAD_REACTORS
330
C
102
}
330
C
100
AcDbDictionary
  0
DICTIONARY
  5
3B
102
{ACAD_REACTORS
330
C
102
}
330
C
100
AcDbDictionary
  3
BYBLOCK
350
3D
  3
BYLAYER
350
3C
  3
GLOBAL
350
3E
  0
DICTIONARY
  5
510
102
{ACAD_REACTORS
330
C
102
}
330
C
100
AcDbDictionary
  0
DICTIONARY
  5
17
102
{ACAD_REACTORS
330
C
102
}
330
C
100
AcDbDictionary
  3
STANDARD
350
18
  0
DICTIONARY
  5
19
102
{ACAD_REACTORS
330
C
102
}
330
C
100
AcDbDictionary
  0
DICTIONARY
  5
4C8
102
{ACAD_REACTORS
330
C
102
}
330
C
100
AcDbDictionary
  3
A0
350
4C9
  3
A1
350
4CA
  3
A2
350
4CB
  3
A3
350
4CC
  3
A4
350
4CD
  3
A5
350
4CE
  3
A6
350
4CF
  3
A7
350
4D0
  3
A8
350
4D1
  3
A9
350
4D2
  3
B0
350
4D3
  3
B1
350
4D4
  3
B2
350
4D5
  3
B3
350
4D6
  3
B4
350
4D7
  3
B5
350
4D8
  3
B6
350
4D9
  3
B7
350
4DA
  3
B8
350
4DB
  3
B9
350
4DC
  3
C0
350
4DD
  3
C1
350
4DE
  3
C2
350
4DF
  3
C3
350
4E0
  3
C4
350
4E1
  3
C5
350
4E2
  3
C6
350
4E3
  3
C7
350
4E4
  3
C8
350
4E5
  3
C9
350
4E6
  3
D0
350
4E7
  3
D1
350
4E8
  3
D2
350
4E9
  0
DICTIONARY
  5
2A
102
{ACAD_REACTORS
330
C
102
}
330
C
100
AcDbDictionary
  3
2DWIREFRAME
350
2F
  3
3D_HIDDEN
350
31
  3
3DWIREFRAME
350
30
  3
BASIC
350
32
  3
BRIGHTEN
350
36
  3
COLORCHANGE
350
3A
  3
CONCEPTUAL
350
34
  3
DIM
350
35
  3
FACEPATTERN
350
39
  3
FLAT
350
2B
  3
FLATWITHEDGES
350
2C
  3
GOURAUD
350
2D
  3
GOURAUDWITHEDGES
350
2E
  3
LINEPATTERN
350
38
  3
REALISTIC
350
33
  3
THICKEN
350
37
  0
DICTIONARY
  5
4EE
102
{ACAD_REACTORS
330
C
102
}
330
C
100
AcDbDictionary
  3
CEPSNTYPE
350
4F7
  3
DIMSTYLEDATA
350
50D
  3
FINGERPRINTGUID
350
4F8
  3
HYPERLINKBASE
350
4F1
  3
INSUNITS
350
4F6
  3
LAYOUTDICT
350
4F3
  3
LWETCUNION
350
4F5
  3
PLOTSETDICT
350
4F4
  3
PSVPSCALE
350
4FA
  3
PUCSBASE
350
4FD
  3
PUCSORGBACK
350
503
  3
PUCSORGBOTTOM
350
4FF
  3
PUCSORGFRONT
350
502
  3
PUCSORGLEFT
350
500
  3
PUCSORGRIGHT
350
501
  3
PUCSORGTOP
350
4FE
  3
PUCSORTHOREF
350
4FB
  3
PUCSORTHOVIEW
350
4FC
  3
STYLESHEET
350
4F2
  3
TSTACKALIGN
350
4EF
  3
TSTACKSIZE
350
4F0
  3
UCSBASE
350
506
  3
UCSORGBACK
350
50C
  3
UCSORGBOTTOM
350
508
  3
UCSORGFRONT
350
50B
  3
UCSORGLEFT
350
509
  3
UCSORGRIGHT
350
50A
  3
UCSORGTOP
350
507
  3
UCSORTHOREF
350
504
  3
UCSORTHOVIEW
350
505
  3
VERSIONGUID
350
4F9
  0
DICTIONARY
  5
50E
102
{ACAD_REACTORS
330
C
102
}
330
C
100
AcDbDictionary
  3
CANNOSCALE
350
511
  3
DIMASSOC
350
512
  3
HIDETEXT
350
513
  0
MATERIAL
  5
3D
102
{ACAD_REACTORS
330
3B
102
}
102
{ACAD_XDICTIONARY
360
516
102
}
330
3B
100
AcDbMaterial
  1
ByBlock
  0
MATERIAL
  5
3C
102
{ACAD_REACTORS
330
3B
102
}
102
{ACAD_XDICTIONARY
360
514
102
}
330
3B
100
AcDbMaterial
  1
ByLayer
  0
MATERIAL
  5
3E
102
{ACAD_REACTORS
330
3B
102
}
102
{ACAD_XDICTIONARY
360
518
102
}
330
3B
100
AcDbMaterial
  1
Global
  0
MLINESTYLE
  5
18
102
{ACAD_REACTORS
330
17
102
}
330
17
100
AcDbMlineStyle
  2
Standard
 70
     0
  3

 62
   256
 51
90.0
 52
90.0
 71
     2
 49
0.5
 62
   256
  6
BYLAYER
 49
-0.5
 62
   256
  6
BYLAYER
  0
ACAD_PROXY_OBJECT
  5
4C9
102
{ACAD_REACTORS
330
4C8
102
}
330
4C8
100
AcDbProxyObject
 90
      499
 91
      503
 93
       41
310
903313A31580
  0
ACAD_PROXY_OBJECT
  5
4CA
102
{ACAD_REACTORS
330
4C8
102
}
330
4C8
100
AcDbProxyObject
 90
      499
 91
      503
 93
      105
310
903313A324000000000000004000
  0
ACAD_PROXY_OBJECT
  5
4CB
102
{ACAD_REACTORS
330
4C8
102
}
330
4C8
100
AcDbProxyObject
 90
      499
 91
      503
 93
      105
310
903313A344000000000000104000
  0
ACAD_PROXY_OBJECT
  5
4CC
102
{ACAD_REACTORS
330
4C8
102
}
330
4C8
100
AcDbProxyObject
 90
      499
 91
      503
 93
      105
310
903313A354000000000000144000
  0
ACAD_PROXY_OBJECT
  5
4CD
102
{ACAD_REACTORS
330
4C8
102
}
330
4C8
100
AcDbProxyObject
 90
      499
 91
      503
 93
      105
310
903313A384000000000000204000
  0
ACAD_PROXY_OBJECT
  5
4CE
102
{ACAD_REACTORS
330
4C8
102
}
330
4C8
100
AcDbProxyObject
 90
      499
 91
      503
 93
      113
310
904313A31304000000000000244000
  0
ACAD_PROXY_OBJECT
  5
4CF
102
{ACAD_REACTORS
330
4C8
102
}
330
4C8
100
AcDbProxyObject
 90
      499
 91
      503
 93
      113
310
904313A31364000000000000304000
  0
ACAD_PROXY_OBJECT
  5
4D0
102
{ACAD_REACTORS
330
4C8
102
}
330
4C8
100
AcDbProxyObject
 90
      499
 91
      503
 93
      113
310
904313A32304000000000000344000
  0
ACAD_PROXY_OBJECT
  5
4D1
102
{ACAD_REACTORS
330
4C8
102
}
330
4C8
100
AcDbProxyObject
 90
      499
 91
      503
 93
      113
310
904313A333040000000000003E4000
  0
ACAD_PROXY_OBJECT
  5
4D2
102
{ACAD_REACTORS
330
4C8
102
}
330
4C8
100
AcDbProxyObject
 90
      499
 91
      503
 93
      113
310
904313A34304000000000000444000
  0
ACAD_PROXY_OBJECT
  5
4D3
102
{ACAD_REACTORS
330
4C8
102
}
330
4C8
100
AcDbProxyObject
 90
      499
 91
      503
 93
      113
310
904313A35304000000000000494000
  0
ACAD_PROXY_OBJECT
  5
4D4
102
{ACAD_REACTORS
330
4C8
102
}
330
4C8
100
AcDbProxyObject
 90
      499
 91
      503
 93
      121
310
905313A3130304000000000000594000
  0
ACAD_PROXY_OBJECT
  5
4D5
102
{ACAD_REACTORS
330
4C8
102
}
330
4C8
100
AcDbProxyObject
 90
      499
 91
      503
 93
      105
310
903323A310000000000000010100
  0
ACAD_PROXY_OBJECT
  5
4D6
102
{ACAD_REACTORS
330
4C8
102
}
330
4C8
100
AcDbProxyObject
 90
      499
 91
      503
 93
      105
310
903343A310000000000000410100
  0
ACAD_PROXY_OBJECT
  5
4D7
102
{ACAD_REACTORS
330
4C8
102
}
330
4C8
100
AcDbProxyObject
 90
      499
 91
      503
 93
      105
310
903383A310000000000000810100
  0
ACAD_PROXY_OBJECT
  5
4D8
102
{ACAD_REACTORS
330
4C8
102
}
330
4C8
100
AcDbProxyObject
 90
      499
 91
      503
 93
      113
310
90431303A310000000000000910100
  0
ACAD_PROXY_OBJECT
  5
4D9
102
{ACAD_REACTORS
330
4C8
102
}
330
4C8
100
AcDbProxyObject
 90
      499
 91
      503
 93
      121
310
9053130303A310000000000001650100
  0
ACAD_PROXY_OBJECT
  5
4DA
102
{ACAD_REACTORS
330
4C8
102
}
330
4C8
100
AcDbProxyObject
 90
      499
 91
      503
 93
      257
310
90E312F31323822203D2031272D3022000000000000200FC000000000000284000
  0
ACAD_PROXY_OBJECT
  5
4DB
102
{ACAD_REACTORS
330
4C8
102
}
330
4C8
100
AcDbProxyObject
 90
      499
 91
      503
 93
      249
310
90D312F363422203D2031272D3022000000000000240FC000000000000284000
  0
ACAD_PROXY_OBJECT
  5
4DC
102
{ACAD_REACTORS
330
4C8
102
}
330
4C8
100
AcDbProxyObject
 90
      499
 91
      503
 93
      249
310
90D312F333222203D2031272D3022000000000000280FC000000000000284000
  0
ACAD_PROXY_OBJECT
  5
4DD
102
{ACAD_REACTORS
330
4C8
102
}
330
4C8
100
AcDbProxyObject
 90
      499
 91
      503
 93
      249
310
90D312F313622203D2031272D30220000000000002C0FC000000000000284000
  0
ACAD_PROXY_OBJECT
  5
4DE
102
{ACAD_REACTORS
330
4C8
102
}
330
4C8
100
AcDbProxyObject
 90
      499
 91
      503
 93
      249
310
90D332F333222203D2031272D30220000000000002E0FC000000000000284000
  0
ACAD_PROXY_OBJECT
  5
4DF
102
{ACAD_REACTORS
330
4C8
102
}
330
4C8
100
AcDbProxyObject
 90
      499
 91
      503
 93
      241
310
90C312F3822203D2031272D3022000000000000300FC000000000000284000
  0
ACAD_PROXY_OBJECT
  5
4E0
102
{ACAD_REACTORS
330
4C8
102
}
330
4C8
100
AcDbProxyObject
 90
      499
 91
      503
 93
      249
310
90D332F313622203D2031272D3022000000000000320FC000000000000284000
  0
ACAD_PROXY_OBJECT
  5
4E1
102
{ACAD_REACTORS
330
4C8
102
}
330
4C8
100
AcDbProxyObject
 90
      499
 91
      503
 93
      241
310
90C312F3422203D2031272D3022000000000000340FC000000000000284000
  0
ACAD_PROXY_OBJECT
  5
4E2
102
{ACAD_REACTORS
330
4C8
102
}
330
4C8
100
AcDbProxyObject
 90
      499
 91
      503
 93
      241
310
90C332F3822203D2031272D3022000000000000360FC000000000000284000
  0
ACAD_PROXY_OBJECT
  5
4E3
102
{ACAD_REACTORS
330
4C8
102
}
330
4C8
100
AcDbProxyObject
 90
      499
 91
      503
 93
      241
310
90C312F3222203D2031272D3022000000000000380FC000000000000284000
  0
ACAD_PROXY_OBJECT
  5
4E4
102
{ACAD_REACTORS
330
4C8
102
}
330
4C8
100
AcDbProxyObject
 90
      499
 91
      503
 93
      241
310
90C332F3422203D2031272D30220000000000003A0FC000000000000284000
  0
ACAD_PROXY_OBJECT
  5
4E5
102
{ACAD_REACTORS
330
4C8
102
}
330
4C8
100
AcDbProxyObject
 90
      499
 91
      503
 93
      161
310
90A3122203D2031272D30224000000000000284000
  0
ACAD_PROXY_OBJECT
  5
4E6
102
{ACAD_REACTORS
330
4C8
102
}
330
4C8
100
AcDbProxyObject
 90
      499
 91
      503
 93
      257
310
90E312D312F3222203D2031272D30220000000000003E0FC000000000000284000
  0
ACAD_PROXY_OBJECT
  5
4E7
102
{ACAD_REACTORS
330
4C8
102
}
330
4C8
100
AcDbProxyObject
 90
      499
 91
      503
 93
      225
310
90A3322203D2031272D302200000000000002100000000000000284000
  0
ACAD_PROXY_OBJECT
  5
4E8
102
{ACAD_REACTORS
330
4C8
102
}
330
4C8
100
AcDbProxyObject
 90
      499
 91
      503
 93
      225
310
90A3622203D2031272D302200000000000006100000000000000284000
  0
ACAD_PROXY_OBJECT
  5
4E9
102
{ACAD_REACTORS
330
4C8
102
}
330
4C8
100
AcDbProxyObject
 90
      499
 91
      503
 93
      249
310
90D31272D3022203D2031272D30220000000000000A100000000000000284000
  0
ACAD_PROXY_OBJECT
  5
2F
102
{ACAD_REACTORS
330
2A
102
}
330
2A
100
AcDbProxyObject
 90
      499
 91
      501
 93
      436
310
42CC9915DA5C99599C985B595049028333333333333E3BF0000000000000FB0107901411070040501600405405064090741402480A0340
1001
ACAD
1000
AcDbSavedByObjectVersion
1070
     0
  0
ACAD_PROXY_OBJECT
  5
31
102
{ACAD_REACTORS
330
2A
102
}
330
2A
100
AcDbProxyObject
 90
      499
 91
      501
 93
      500
310
424CD108121A5919195B90640502408333333333333E3BF0000000000000FB01079024090700405020000000000001110200405405064090740C02480A0340
1001
ACAD
1000
AcDbSavedByObjectVersion
1070
     0
  0
ACAD_PROXY_OBJECT
  5
30
102
{ACAD_REACTORS
330
2A
102
}
330
2A
100
AcDbProxyObject
 90
      499
 91
      501
 93
      436
310
42CCD915DA5C99599C985B595059028333333333333E3BF0000000000000FB0107901411070040501600405405064090741402480A0340
1001
ACAD
1000
AcDbSavedByObjectVersion
1070
     0
  0
ACAD_PROXY_OBJECT
  5
32
102
{ACAD_REACTORS
330
2A
102
}
330
2A
100
AcDbProxyObject
 90
      499
 91
      501
 93
      388
310
4150985CDA58D07406404333333333333E3BF0000000000000FB0107A41107004050150841D405064090741402480A0350
1001
ACAD
1000
AcDbSavedByObjectVersion
1070
     0
  0
ACAD_PROXY_OBJECT
  5
36
102
{ACAD_REACTORS
330
2A
102
}
330
2A
100
AcDbProxyObject
 90
      499
 91
      501
 93
      428
310
42109C9A59DA1D195B90C409028333333333333E3BF0000000000000FB010790141107004050150841D405064090741402480A029950
1001
ACAD
1000
AcDbSavedByObjectVersion
1070
     0
  0
ACAD_PROXY_OBJECT
  5
3A
102
{ACAD_REACTORS
330
2A
102
}
330
2A
100
AcDbProxyObject
 90
      499
 91
      501
 93
      452
310
42D0DBDB1BDC90DA185B99D95104090240C333333333333E3BF0000000000000FB0108901411070040501508421405064090741402480A0350
1001
ACAD
1000
AcDbSavedByObjectVersion
1070
     0
  0
ACAD_PROXY_OBJECT
  5
34
102
{ACAD_REACTORS
330
2A
102
}
330
2A
100
AcDbProxyObject
 90
      499
 91
      501
 93
      500
310
4290DBDB98D95C1D1D585B10940D028333333333333E3BF0000000000000FB0107902409070040501000000000000111010841D405064090740C02480A0340
1001
ACAD
1000
AcDbSavedByObjectVersion
1070
     0
  0
ACAD_PROXY_OBJECT
  5
35
102
{ACAD_REACTORS
330
2A
102
}
330
2A
100
AcDbProxyObject
 90
      499
 91
      501
 93
      412
310
40D11A5B50B409028333333333333E3BF0000000000000FB010790141107004050150841D405064090741402480A02677FFFFFD0
1001
ACAD
1000
AcDbSavedByObjectVersion
1070
     0
  0
ACAD_PROXY_OBJECT
  5
39
102
{ACAD_REACTORS
330
2A
102
}
330
2A
100
AcDbProxyObject
 90
      499
 91
      501
 93
      444
310
42D19858D95C185D1D195C9B90F409028333333333333E3BF0000000000000FB010790141107004050150841D405064090741402480A0350
1001
ACAD
1000
AcDbSavedByObjectVersion
1070
     0
  0
ACAD_PROXY_OBJECT
  5
2B
102
{ACAD_REACTORS
330
2A
102
}
330
2A
100
AcDbProxyObject
 90
      499
 91
      501
 93
      388
310
41119B185D240901404333333333333E3BF0000000000000F9010740A41107004050150841D405064090741402480A1B50
1001
ACAD
1000
AcDbSavedByObjectVersion
1070
     0
  0
ACAD_PROXY_OBJECT
  5
2C
102
{ACAD_REACTORS
330
2A
102
}
330
2A
100
AcDbProxyObject
 90
      499
 91
      501
 93
      476
310
43519B185D15DA5D1A115919D95CD0140901404333333333333E3BF0000000000000F9010740901411070040501600405405064090741402480A1B50
1001
ACAD
1000
AcDbSavedByObjectVersion
1070
     0
  0
ACAD_PROXY_OBJECT
  5
2D
102
{ACAD_REACTORS
330
2A
102
}
330
2A
100
AcDbProxyObject
 90
      499
 91
      501
 93
      412
310
41D1DBDD5C985D5910240902404333333333333E3BF0000000000000F9010740A411070040501641D405064090741402480A1B50
1001
ACAD
1000
AcDbSavedByObjectVersion
1070
     0
  0
ACAD_PROXY_OBJECT
  5
2E
102
{ACAD_REACTORS
330
2A
102
}
330
2A
100
AcDbProxyObject
 90
      499
 91
      501
 93
      500
310
4411DBDD5C985D5915DA5D1A115919D95CD0340902404333333333333E3BF0000000000000F9010740901411070040501600405405064090741402480A1B50
1001
ACAD
1000
AcDbSavedByObjectVersion
1070
     0
  0
ACAD_PROXY_OBJECT
  5
38
102
{ACAD_REACTORS
330
2A
102
}
330
2A
100
AcDbProxyObject
 90
      499
 91
      501
 93
      444
310
42D31A5B995C185D1D195C9B90E409028333333333333E3BF0000000000000FB010790141107004050750841D405064090741402483A0350
1001
ACAD
1000
AcDbSavedByObjectVersion
1070
     0
  0
ACAD_PROXY_OBJECT
  5
33
102
{ACAD_REACTORS
330
2A
102
}
330
2A
100
AcDbProxyObject
 90
      499
 91
      501
 93
      420
310
425499585B1A5CDD1A58D08409028333333333333E3BF0000000000000FB01079019070040501508421405064090741402480A1B40
1001
ACAD
1000
AcDbSavedByObjectVersion
1070
     0
  0
ACAD_PROXY_OBJECT
  5
37
102
{ACAD_REACTORS
330
2A
102
}
330
2A
100
AcDbProxyObject
 90
      499
 91
      501
 93
      412
310
41D51A1A58DAD95B90D409028333333333333E3BF0000000000000FB010790141107004050150C41D405064090741402480A0350
1001
ACAD
1000
AcDbSavedByObjectVersion
1070
     0
  0
XRECORD
  5
4F7
102
{ACAD_REACTORS
330
4EE
102
}
330
4EE
100
AcDbXrecord
 90
        0
  0
XRECORD
  5
50D
102
{ACAD_REACTORS
330
4EE
102
}
330
4EE
100
AcDbXrecord
1000
DSTYLE
1002
{
1070
   340
340
11
1002
}
  0
XRECORD
  5
4F8
102
{ACAD_REACTORS
330
4EE
102
}
330
4EE
100
AcDbXrecord
  1
{3EA1F4C5-0441-4393-994F-08BEBD1FF5FA}
  0
XRECORD
  5
4F1
102
{ACAD_REACTORS
330
4EE
102
}
330
4EE
100
AcDbXrecord
  1

  0
XRECORD
  5
4F6
102
{ACAD_REACTORS
330
4EE
102
}
330
4EE
100
AcDbXrecord
 90
        1
  0
XRECORD
  5
4F3
102
{ACAD_REACTORS
330
4EE
102
}
330
4EE
100
AcDbXrecord
340
1A
  0
XRECORD
  5
4F5
102
{ACAD_REACTORS
330
4EE
102
}
330
4EE
100
AcDbXrecord
 90
    10781
  0
XRECORD
  5
4F4
102
{ACAD_REACTORS
330
4EE
102
}
330
4EE
100
AcDbXrecord
340
19
  0
XRECORD
  5
4FA
102
{ACAD_REACTORS
330
4EE
102
}
330
4EE
100
AcDbXrecord
 40
0.0
  0
XRECORD
  5
4FD
102
{ACAD_REACTORS
330
4EE
102
}
330
4EE
100
AcDbXrecord
340
0
  0
XRECORD
  5
503
102
{ACAD_REACTORS
330
4EE
102
}
330
4EE
100
AcDbXrecord
 10
0.0
 20
0.0
 30
0.0
  0
XRECORD
  5
4FF
102
{ACAD_REACTORS
330
4EE
102
}
330
4EE
100
AcDbXrecord
 10
0.0
 20
0.0
 30
0.0
  0
XRECORD
  5
502
102
{ACAD_REACTORS
330
4EE
102
}
330
4EE
100
AcDbXrecord
 10
0.0
 20
0.0
 30
0.0
  0
XRECORD
  5
500
102
{ACAD_REACTORS
330
4EE
102
}
330
4EE
100
AcDbXrecord
 10
0.0
 20
0.0
 30
0.0
  0
XRECORD
  5
501
102
{ACAD_REACTORS
330
4EE
102
}
330
4EE
100
AcDbXrecord
 10
0.0
 20
0.0
 30
0.0
  0
XRECORD
  5
4FE
102
{ACAD_REACTORS
330
4EE
102
}
330
4EE
100
AcDbXrecord
 10
0.0
 20
0.0
 30
0.0
  0
XRECORD
  5
4FB
102
{ACAD_REACTORS
330
4EE
102
}
330
4EE
100
AcDbXrecord
340
0
  0
XRECORD
  5
4FC
102
{ACAD_REACTORS
330
4EE
102
}
330
4EE
100
AcDbXrecord
 70
     0
  0
XRECORD
  5
4F2
102
{ACAD_REACTORS
330
4EE
102
}
330
4EE
100
AcDbXrecord
  1

  0
XRECORD
  5
4EF
102
{ACAD_REACTORS
330
4EE
102
}
330
4EE
100
AcDbXrecord
 90
        1
  0
XRECORD
  5
4F0
102
{ACAD_REACTORS
330
4EE
102
}
330
4EE
100
AcDbXrecord
 90
       70
  0
XRECORD
  5
506
102
{ACAD_REACTORS
330
4EE
102
}
330
4EE
100
AcDbXrecord
340
0
  0
XRECORD
  5
50C
102
{ACAD_REACTORS
330
4EE
102
}
330
4EE
100
AcDbXrecord
 10
0.0
 20
0.0
 30
0.0
  0
XRECORD
  5
508
102
{ACAD_REACTORS
330
4EE
102
}
330
4EE
100
AcDbXrecord
 10
0.0
 20
0.0
 30
0.0
  0
XRECORD
  5
50B
102
{ACAD_REACTORS
330
4EE
102
}
330
4EE
100
AcDbXrecord
 10
0.0
 20
0.0
 30
0.0
  0
XRECORD
  5
509
102
{ACAD_REACTORS
330
4EE
102
}
330
4EE
100
AcDbXrecord
 10
0.0
 20
0.0
 30
0.0
  0
XRECORD
  5
50A
102
{ACAD_REACTORS
330
4EE
102
}
330
4EE
100
AcDbXrecord
 10
0.0
 20
0.0
 30
0.0
  0
XRECORD
  5
507
102
{ACAD_REACTORS
330
4EE
102
}
330
4EE
100
AcDbXrecord
 10
0.0
 20
0.0
 30
0.0
  0
XRECORD
  5
504
102
{ACAD_REACTORS
330
4EE
102
}
330
4EE
100
AcDbXrecord
340
0
  0
XRECORD
  5
505
102
{ACAD_REACTORS
330
4EE
102
}
330
4EE
100
AcDbXrecord
 70
     0
  0
XRECORD
  5
4F9
102
{ACAD_REACTORS
330
4EE
102
}
330
4EE
100
AcDbXrecord
  1
{FAEB1C32-E019-11D5-929B-00C0DF256EC4}
  0
DICTIONARYVAR
  5
511
102
{ACAD_REACTORS
330
50E
102
}
330
50E
100
DictionaryVariables
280
     0
  1
1:1
  0
DICTIONARYVAR
  5
512
102
{ACAD_REACTORS
330
50E
102
}
330
50E
100
DictionaryVariables
280
     0
  1
2
  0
DICTIONARYVAR
  5
513
102
{ACAD_REACTORS
330
50E
102
}
330
50E
100
DictionaryVariables
280
     0
  1
1
  0
DICTIONARY
  5
516
330
3D
100
AcDbDictionary
280
     1
  3
ACAD_XREC_ROUNDTRIP
360
517
  0
DICTIONARY
  5
514
330
3C
100
AcDbDictionary
280
     1
  3
ACAD_XREC_ROUNDTRIP
360
515
  0
DICTIONARY
  5
518
330
3E
100
AcDbDictionary
280
     1
  3
ACAD_XREC_ROUNDTRIP
360
519
  0
XRECORD
  5
517
102
{ACAD_REACTORS
330
516
102
}
330
516
100
AcDbXrecord
102
MATERIAL
148
0.0
149
0.0
149
0.0
 93
        0
 94
      127
282
     0
 72
     1
 77
     1
171
     1
175
     1
179
     1
273
     0
  0
XRECORD
  5
515
102
{ACAD_REACTORS
330
514
102
}
330
514
100
AcDbXrecord
102
MATERIAL
148
0.0
149
0.0
149
0.0
 93
        0
 94
      127
282
     0
 72
     1
 77
     1
171
     1
175
     1
179
     1
273
     0
  0
XRECORD
  5
519
102
{ACAD_REACTORS
330
518
102
}
330
518
100
AcDbXrecord
102
MATERIAL
148
0.0
149
0.0
149
0.0
 93
        0
 94
      127
282
     0
 72
     1
 77
     1
171
     1
175
     1
179
     1
273
     0
  0
ENDSEC
  0
EOF
