  0
SECTION
  2
HEADER
  9
$ACADVER
  1
AC1014
  9
$ACADMAINTVER
 70
     9
  9
$DWGCODEPAGE
  3
ANSI_1252
  9
$INSBASE
 10
0.0
 20
0.0
 30
0.0
  9
$EXTMIN
 10
1.000000000000000E+20
 20
1.000000000000000E+20
 30
1.000000000000000E+20
  9
$EXTMAX
 10
-1.000000000000000E+20
 20
-1.000000000000000E+20
 30
-1.000000000000000E+20
  9
$LIMMIN
 10
0.0
 20
0.0
  9
$LIMMAX
 10
12.0
 20
9.0
  9
$ORTHOMODE
 70
     0
  9
$REGENMODE
 70
     1
  9
$FILLMODE
 70
     1
  9
$QTEXTMODE
 70
     0
  9
$MIRRTEXT
 70
     1
  9
$DRAGMODE
 70
     2
  9
$LTSCALE
 40
1.0
  9
$OSMODE
 70
    37
  9
$ATTMODE
 70
     1
  9
$TEXTSIZE
 40
0.2
  9
$TRACEWID
 40
0.05
  9
$TEXTSTYLE
  7
STANDARD
  9
$CLAYER
  8
0
  9
$CELTYPE
  6
BYLAYER
  9
$CECOLOR
 62
   256
  9
$CELTSCALE
 40
1.0
  9
$DELOBJ
 70
     1
  9
$DISPSILH
 70
     0
  9
$DIMSCALE
 40
1.0
  9
$DIMASZ
 40
0.18
  9
$DIMEXO
 40
0.0625
  9
$DIMDLI
 40
0.38
  9
$DIMRND
 40
0.0
  9
$DIMDLE
 40
0.0
  9
$DIMEXE
 40
0.18
  9
$DIMTP
 40
0.0
  9
$DIMTM
 40
0.0
  9
$DIMTXT
 40
0.18
  9
$DIMCEN
 40
0.09
  9
$DIMTSZ
 40
0.0
  9
$DIMTOL
 70
     0
  9
$DIMLIM
 70
     0
  9
$DIMTIH
 70
     1
  9
$DIMTOH
 70
     1
  9
$DIMSE1
 70
     0
  9
$DIMSE2
 70
     0
  9
$DIMTAD
 70
     0
  9
$DIMZIN
 70
     0
  9
$DIMBLK
  1

  9
$DIMASO
 70
     1
  9
$DIMSHO
 70
     1
  9
$DIMPOST
  1

  9
$DIMAPOST
  1

  9
$DIMALT
 70
     0
  9
$DIMALTD
 70
     2
  9
$DIMALTF
 40
25.4
  9
$DIMLFAC
 40
1.0
  9
$DIMTOFL
 70
     0
  9
$DIMTVP
 40
0.0
  9
$DIMTIX
 70
     0
  9
$DIMSOXD
 70
     0
  9
$DIMSAH
 70
     0
  9
$DIMBLK1
  1

  9
$DIMBLK2
  1

  9
$DIMSTYLE
  2
STANDARD
  9
$DIMCLRD
 70
     0
  9
$DIMCLRE
 70
     0
  9
$DIMCLRT
 70
     0
  9
$DIMTFAC
 40
1.0
  9
$DIMGAP
 40
0.09
  9
$DIMJUST
 70
     0
  9
$DIMSD1
 70
     0
  9
$DIMSD2
 70
     0
  9
$DIMTOLJ
 70
     1
  9
$DIMTZIN
 70
     0
  9
$DIMALTZ
 70
     0
  9
$DIMALTTZ
 70
     0
  9
$DIMFIT
 70
     3
  9
$DIMUPT
 70
     0
  9
$DIMUNIT
 70
     2
  9
$DIMDEC
 70
     4
  9
$DIMTDEC
 70
     4
  9
$DIMALTU
 70
     2
  9
$DIMALTTD
 70
     2
  9
$DIMTXSTY
  7
STANDARD
  9
$DIMAUNIT
 70
     0
  9
$LUNITS
 70
     2
  9
$LUPREC
 70
     4
  9
$SKETCHINC
 40
0.1
  9
$FILLETRAD
 40
0.5
  9
$AUNITS
 70
     0
  9
$AUPREC
 70
     0
  9
$MENU
  1
.
  9
$ELEVATION
 40
0.0
  9
$PELEVATION
 40
0.0
  9
$THICKNESS
 40
0.0
  9
$LIMCHECK
 70
     0
  9
$CHAMFERA
 40
0.5
  9
$CHAMFERB
 40
0.5
  9
$CHAMFERC
 40
1.0
  9
$CHAMFERD
 40
0.0
  9
$SKPOLY
 70
     0
  9
$TDCREATE
 40
2458448.583196412
  9
$TDUPDATE
 40
2458448.583196423
  9
$TDINDWG
 40
0.0000000116
  9
$TDUSRTIMER
 40
0.0000000116
  9
$USRTIMER
 70
     1
  9
$ANGBASE
 50
0.0
  9
$ANGDIR
 70
     0
  9
$PDMODE
 70
     0
  9
$PDSIZE
 40
0.0
  9
$PLINEWID
 40
0.0
  9
$COORDS
 70
     1
  9
$SPLFRAME
 70
     0
  9
$SPLINETYPE
 70
     6
  9
$SPLINESEGS
 70
     8
  9
$ATTDIA
 70
     0
  9
$ATTREQ
 70
     1
  9
$HANDLING
 70
     1
  9
$HANDSEED
  5
342
  9
$SURFTAB1
 70
     6
  9
$SURFTAB2
 70
     6
  9
$SURFTYPE
 70
     6
  9
$SURFU
 70
     6
  9
$SURFV
 70
     6
  9
$UCSNAME
  2

  9
$UCSORG
 10
0.0
 20
0.0
 30
0.0
  9
$UCSXDIR
 10
1.0
 20
0.0
 30
0.0
  9
$UCSYDIR
 10
0.0
 20
1.0
 30
0.0
  9
$PUCSNAME
  2

  9
$PUCSORG
 10
0.0
 20
0.0
 30
0.0
  9
$PUCSXDIR
 10
1.0
 20
0.0
 30
0.0
  9
$PUCSYDIR
 10
0.0
 20
1.0
 30
0.0
  9
$USERI1
 70
     0
  9
$USERI2
 70
     0
  9
$USERI3
 70
     0
  9
$USERI4
 70
     0
  9
$USERI5
 70
     0
  9
$USERR1
 40
0.0
  9
$USERR2
 40
0.0
  9
$USERR3
 40
0.0
  9
$USERR4
 40
0.0
  9
$USERR5
 40
0.0
  9
$WORLDVIEW
 70
     1
  9
$SHADEDGE
 70
     3
  9
$SHADEDIF
 70
    70
  9
$TILEMODE
 70
     1
  9
$MAXACTVP
 70
    64
  9
$PINSBASE
 10
0.0
 20
0.0
 30
0.0
  9
$PLIMCHECK
 70
     0
  9
$PEXTMIN
 10
1.000000000000000E+20
 20
1.000000000000000E+20
 30
1.000000000000000E+20
  9
$PEXTMAX
 10
-1.000000000000000E+20
 20
-1.000000000000000E+20
 30
-1.000000000000000E+20
  9
$PLIMMIN
 10
0.0
 20
0.0
  9
$PLIMMAX
 10
12.0
 20
9.0
  9
$UNITMODE
 70
     0
  9
$VISRETAIN
 70
     1
  9
$PLINEGEN
 70
     0
  9
$PSLTSCALE
 70
     1
  9
$TREEDEPTH
 70
  3020
  9
$PICKSTYLE
 70
     1
  9
$CMLSTYLE
  2
STANDARD
  9
$CMLJUST
 70
     0
  9
$CMLSCALE
 40
1.0
  9
$PROXYGRAPHICS
 70
     1
  9
$MEASUREMENT
 70
     0
  0
ENDSEC
  0
SECTION
  2
CLASSES
  0
CLASS
  1
ACDBDICTIONARYWDFLT
  2
AcDbDictionaryWithDefault
  3
ObjectDBX Classes
 90
        0
280
     0
281
     0
  0
CLASS
  1
VISUALSTYLE
  2
AcDbVisualStyle
  3
ObjectDBX Classes
 90
     4095
280
     0
281
     0
  0
CLASS
  1
MATERIAL
  2
AcDbMaterial
  3
ObjectDBX Classes
 90
     1153
280
     0
281
     0
  0
CLASS
  1
DICTIONARYVAR
  2
AcDbDictionaryVar
  3
ObjectDBX Classes
 90
        0
280
     0
281
     0
  0
CLASS
  1
XRECORD
  2
AcDbXrecord
  3
AutoCAD 2000
 90
        0
280
     0
281
     0
  0
CLASS
  1
LWPOLYLINE
  2
AcDbPolyline
  3
AutoCAD 2000
 90
        0
280
     0
281
     1
  0
CLASS
  1
HATCH
  2
AcDbHatch
  3
AutoCAD 2000
 90
        0
280
     0
281
     1
  0
CLASS
  1
ACDBPLACEHOLDER
  2
AcDbPlaceHolder
  3
ObjectDBX Classes
 90
        0
280
     0
281
     0
  0
CLASS
  1
LAYOUT
  2
AcDbLayout
  3
ObjectDBX Classes
 90
        0
280
     0
281
     0
  0
ENDSEC
  0
SECTION
  2
TABLES
  0
TABLE
  2
VPORT
  5
8
330
0
100
AcDbSymbolTable
 70
     1
  0
VPORT
  5
29
330
8
100
AcDbSymbolTableRecord
100
AcDbViewportTableRecord
  2
*ACTIVE
 70
     0
 10
0.0
 20
0.0
 11
1.0
 21
1.0
 12
0.0
 22
0.0
 13
0.0
 23
0.0
 14
0.5
 24
0.5
 15
0.5
 25
0.5
 16
-2767.817181852426
 26
-337.439548811742
 36
1377.318527252189
 17
-10.00000000000045
 27
12.49999999999994
 37
12.50000000000045
 40
34.25991298911797
 41
1.3333
 42
50.0
 43
-3084.533074323613
 44
22290.06692567639
 50
0.0
 51
0.0
 71
     0
 72
   100
 73
     1
 74
     3
 75
     0
 76
     0
 77
     0
 78
     0
  0
ENDTAB
  0
TABLE
  2
LTYPE
  5
5
330
0
100
AcDbSymbolTable
 70
     1
  0
LTYPE
  5
14
330
5
100
AcDbSymbolTableRecord
100
AcDbLinetypeTableRecord
  2
BYBLOCK
 70
     0
  3

 72
    65
 73
     0
 40
0.0
  0
LTYPE
  5
15
330
5
100
AcDbSymbolTableRecord
100
AcDbLinetypeTableRecord
  2
BYLAYER
 70
     0
  3

 72
    65
 73
     0
 40
0.0
  0
LTYPE
  5
16
330
5
100
AcDbSymbolTableRecord
100
AcDbLinetypeTableRecord
  2
CONTINUOUS
 70
     0
  3
Solid line
 72
    65
 73
     0
 40
0.0
  0
ENDTAB
  0
TABLE
  2
LAYER
  5
2
330
0
100
AcDbSymbolTable
 70
     1
  0
LAYER
  5
10
330
2
100
AcDbSymbolTableRecord
100
AcDbLayerTableRecord
  2
0
 70
     0
 62
    13
  6
CONTINUOUS
  0
ENDTAB
  0
TABLE
  2
STYLE
  5
3
330
0
100
AcDbSymbolTable
 70
     3
  0
STYLE
  5
11
330
3
100
AcDbSymbolTableRecord
100
AcDbTextStyleTableRecord
  2
STANDARD
 70
     0
 40
0.0
 41
1.0
 50
0.0
 71
     0
 42
0.2
  3
txt
  4

  0
STYLE
  5
3F
330
3
100
AcDbSymbolTableRecord
100
AcDbTextStyleTableRecord
  2
ARIAL
 70
     0
 40
0.0
 41
1.0
 50
0.0
 71
     0
 42
0.2
  3
Arial
  4

1001
ACAD
1000
Arial
1071
       34
  0
STYLE
  5
40
330
3
100
AcDbSymbolTableRecord
100
AcDbTextStyleTableRecord
  2
TAHOMA
 70
     0
 40
0.0
 41
1.0
 50
0.0
 71
     0
 42
0.2
  3
Tahoma
  4

1001
ACAD
1000
Tahoma
1071
       34
  0
ENDTAB
  0
TABLE
  2
VIEW
  5
6
330
0
100
AcDbSymbolTable
 70
     0
  0
ENDTAB
  0
TABLE
  2
UCS
  5
7
330
0
100
AcDbSymbolTable
 70
     0
  0
ENDTAB
  0
TABLE
  2
APPID
  5
9
330
0
100
AcDbSymbolTable
 70
     1
  0
APPID
  5
12
330
9
100
AcDbSymbolTableRecord
100
AcDbRegAppTableRecord
  2
ACAD
 70
     0
  0
ENDTAB
  0
TABLE
  2
DIMSTYLE
  5
A
330
0
100
AcDbSymbolTable
 70
     1
  0
DIMSTYLE
105
27
330
A
100
AcDbSymbolTableRecord
100
AcDbDimStyleTableRecord
  2
STANDARD
 70
     0
  3

  4

  5

  6

  7

 40
1.0
 41
0.18
 42
0.0625
 43
0.38
 44
0.18
 45
0.0
 46
0.0
 47
0.0
 48
0.0
140
0.18
141
0.09
142
0.0
143
25.4
144
1.0
145
0.0
146
1.0
147
0.09
 71
     0
 72
     0
 73
     1
 74
     1
 75
     0
 76
     0
 77
     0
 78
     0
170
     0
171
     2
172
     0
173
     0
174
     0
175
     0
176
     0
177
     0
178
     0
270
     2
271
     4
272
     4
273
     2
274
     2
340
11
275
     0
280
     0
281
     0
282
     0
283
     1
284
     0
285
     0
286
     0
287
     3
288
     0
  0
ENDTAB
  0
TABLE
  2
BLOCK_RECORD
  5
1
330
0
100
AcDbSymbolTable
 70
     1
  0
BLOCK_RECORD
  5
1F
330
1
100
AcDbSymbolTableRecord
100
AcDbBlockTableRecord
  2
*MODEL_SPACE
  0
BLOCK_RECORD
  5
1B
330
1
100
AcDbSymbolTableRecord
100
AcDbBlockTableRecord
  2
*PAPER_SPACE
  0
ENDTAB
  0
ENDSEC
  0
SECTION
  2
BLOCKS
  0
BLOCK
  5
20
330
1F
100
AcDbEntity
  8
0
100
AcDbBlockBegin
  2
*MODEL_SPACE
 70
     0
 10
0.0
 20
0.0
 30
0.0
  3
*MODEL_SPACE
  1

  0
ENDBLK
  5
21
330
1F
100
AcDbEntity
  8
0
100
AcDbBlockEnd
  0
BLOCK
  5
1C
330
1B
100
AcDbEntity
 67
     1
  8
0
100
AcDbBlockBegin
  2
*PAPER_SPACE
 70
     0
 10
0.0
 20
0.0
 30
0.0
  3
*PAPER_SPACE
  1

  0
ENDBLK
  5
1D
330
1B
100
AcDbEntity
 67
     1
  8
0
100
AcDbBlockEnd
  0
ENDSEC
  0
SECTION
  2
ENTITIES
  0
CIRCLE
  5
41
330
1F
100
AcDbEntity
  8
0
100
AcDbCircle
 10
9.999999999999982
 20
12.5
 30
-0.9999999999999999
 40
1.999999999999999
210
0.0
220
0.0
230
-1.0
  0
LINE
  5
42
330
1F
100
AcDbEntity
  8
0
100
AcDbLine
 10
-9.999999999999982
 20
14.49999999999999
 30
0.9999999999999999
 11
-9.999999999999982
 21
14.49999999999999
 31
0.0
  0
CIRCLE
  5
43
330
1F
100
AcDbEntity
  8
0
100
AcDbCircle
 10
9.999999999999982
 20
12.5
 30
0.0
 40
1.999999999999999
210
0.0
220
0.0
230
-1.0
  0
LINE
  5
44
330
1F
100
AcDbEntity
  8
0
100
AcDbLine
 10
-9.48236190979495
 20
14.43185165257813
 30
0.9999999999999999
 11
-9.48236190979495
 21
14.43185165257813
 31
0.0
  0
LINE
  5
45
330
1F
100
AcDbEntity
  8
0
100
AcDbLine
 10
-11.93185165257812
 20
13.01763809020504
 30
0.9999999999999999
 11
-11.93185165257812
 21
13.01763809020504
 31
0.0
  0
LINE
  5
46
330
1F
100
AcDbEntity
  8
0
100
AcDbLine
 10
-11.73205080756887
 20
13.49999999999999
 30
0.9999999999999999
 11
-11.73205080756887
 21
13.49999999999999
 31
0.0
  0
LINE
  5
47
330
1F
100
AcDbEntity
  8
0
100
AcDbLine
 10
-8.06814834742185
 20
13.01763809020504
 30
0.9999999999999999
 11
-8.06814834742185
 21
13.01763809020504
 31
0.0
  0
LINE
  5
48
330
1F
100
AcDbEntity
  8
0
100
AcDbLine
 10
-7.999999999999987
 20
12.49999999999999
 30
0.9999999999999999
 11
-7.999999999999987
 21
12.49999999999999
 31
0.0
  0
LINE
  5
49
330
1F
100
AcDbEntity
  8
0
100
AcDbLine
 10
-8.585786437626894
 20
13.91421356237309
 30
0.9999999999999999
 11
-8.585786437626894
 21
13.91421356237309
 31
0.0
  0
LINE
  5
4A
330
1F
100
AcDbEntity
  8
0
100
AcDbLine
 10
-8.267949192431109
 20
13.49999999999999
 30
0.9999999999999999
 11
-8.267949192431109
 21
13.49999999999999
 31
0.0
  0
LINE
  5
4B
330
1F
100
AcDbEntity
  8
0
100
AcDbLine
 10
-8.06814834742185
 20
11.98236190979496
 30
0.9999999999999999
 11
-8.06814834742185
 21
11.98236190979496
 31
0.0
  0
LINE
  5
4C
330
1F
100
AcDbEntity
  8
0
100
AcDbLine
 10
-8.267949192431105
 20
11.5
 30
0.9999999999999999
 11
-8.267949192431105
 21
11.5
 31
0.0
  0
LINE
  5
4D
330
1F
100
AcDbEntity
  8
0
100
AcDbLine
 10
-11.99999999999999
 20
12.49999999999999
 30
0.9999999999999999
 11
-11.99999999999999
 21
12.49999999999999
 31
0.0
  0
LINE
  5
4E
330
1F
100
AcDbEntity
  8
0
100
AcDbLine
 10
-11.93185165257812
 20
11.98236190979495
 30
0.9999999999999999
 11
-11.93185165257812
 21
11.98236190979495
 31
0.0
  0
LINE
  5
4F
330
1F
100
AcDbEntity
  8
0
100
AcDbLine
 10
-11.41421356237309
 20
11.0857864376269
 30
0.9999999999999999
 11
-11.41421356237309
 21
11.0857864376269
 31
0.0
  0
LINE
  5
50
330
1F
100
AcDbEntity
  8
0
100
AcDbLine
 10
-11.73205080756886
 20
11.5
 30
0.9999999999999999
 11
-11.73205080756886
 21
11.5
 31
0.0
  0
LINE
  5
51
330
1F
100
AcDbEntity
  8
0
100
AcDbLine
 10
-10.99999999999999
 20
10.76794919243112
 30
0.9999999999999999
 11
-10.99999999999999
 21
10.76794919243112
 31
0.0
  0
LINE
  5
52
330
1F
100
AcDbEntity
  8
0
100
AcDbLine
 10
-10.99999999999999
 20
14.23205080756887
 30
0.9999999999999999
 11
-10.99999999999999
 21
14.23205080756887
 31
0.0
  0
LINE
  5
53
330
1F
100
AcDbEntity
  8
0
100
AcDbLine
 10
-10.51763809020503
 20
14.43185165257813
 30
0.9999999999999999
 11
-10.51763809020503
 21
14.43185165257813
 31
0.0
  0
LINE
  5
54
330
1F
100
AcDbEntity
  8
0
100
AcDbLine
 10
-8.585786437626895
 20
11.08578643762691
 30
0.9999999999999999
 11
-8.585786437626895
 21
11.08578643762691
 31
0.0
  0
LINE
  5
55
330
1F
100
AcDbEntity
  8
0
100
AcDbLine
 10
-9.99999999999999
 20
10.5
 30
0.9999999999999999
 11
-9.99999999999999
 21
10.5
 31
0.0
  0
LINE
  5
56
330
1F
100
AcDbEntity
  8
0
100
AcDbLine
 10
-10.51763809020503
 20
10.56814834742186
 30
0.9999999999999999
 11
-10.51763809020503
 21
10.56814834742186
 31
0.0
  0
LINE
  5
57
330
1F
100
AcDbEntity
  8
0
100
AcDbLine
 10
-19.99999999999999
 20
-0.0000000000000007
 30
0.9999999999999999
 11
0.0
 21
0.0
 31
0.9999999999999999
  0
LINE
  5
58
330
1F
100
AcDbEntity
  8
0
100
AcDbLine
 10
0.0
 20
0.0
 30
0.9999999999999999
 11
0.0000000000000169
 21
23.99999999999999
 31
0.9999999999999999
  0
LINE
  5
59
330
1F
100
AcDbEntity
  8
0
100
AcDbLine
 10
0.0000000000000169
 20
23.99999999999999
 30
0.9999999999999999
 11
-19.99999999999999
 21
23.99999999999999
 31
1.000000000000003
  0
LINE
  5
5A
330
1F
100
AcDbEntity
  8
0
100
AcDbLine
 10
-19.99999999999999
 20
23.99999999999999
 30
1.000000000000003
 11
-19.99999999999999
 21
-0.0000000000000007
 31
0.9999999999999999
  0
LINE
  5
5B
330
1F
100
AcDbEntity
  8
0
100
AcDbLine
 10
0.0
 20
0.0
 30
0.0
 11
0.0
 21
0.0
 31
0.9999999999999999
  0
LINE
  5
5C
330
1F
100
AcDbEntity
  8
0
100
AcDbLine
 10
-19.99999999999999
 20
-0.0000000000000007
 30
0.0
 11
0.0
 21
0.0
 31
0.0
  0
LINE
  5
5D
330
1F
100
AcDbEntity
  8
0
100
AcDbLine
 10
-19.99999999999999
 20
-0.0000000000000007
 30
0.0
 11
-19.99999999999999
 21
-0.0000000000000007
 31
0.9999999999999999
  0
LINE
  5
5E
330
1F
100
AcDbEntity
  8
0
100
AcDbLine
 10
-8.999999999999991
 20
10.76794919243112
 30
0.9999999999999999
 11
-8.999999999999991
 21
10.76794919243112
 31
0.0
  0
LINE
  5
5F
330
1F
100
AcDbEntity
  8
0
100
AcDbLine
 10
0.0000000000000183
 20
25.0
 30
0.0
 11
-19.99999999999999
 21
25.0
 31
0.0
  0
LINE
  5
60
330
1F
100
AcDbEntity
  8
0
100
AcDbLine
 10
-19.99999999999998
 20
25.00000000000002
 30
24.99999999999999
 11
-19.99999999999999
 21
25.0
 31
0.0
  0
LINE
  5
61
330
1F
100
AcDbEntity
  8
0
100
AcDbLine
 10
0.000000000000019
 20
25.00000000000002
 30
24.99999999999999
 11
-19.99999999999998
 21
25.00000000000002
 31
24.99999999999999
  0
LINE
  5
62
330
1F
100
AcDbEntity
  8
0
100
AcDbLine
 10
0.0000000000000183
 20
25.0
 30
0.0
 11
0.000000000000019
 21
25.00000000000002
 31
24.99999999999999
  0
CIRCLE
  5
63
330
1F
100
AcDbEntity
  8
0
100
AcDbCircle
 10
9.99999999999999
 20
12.49999999999974
 30
25.00000000000013
 40
2.000000000000001
210
3.053113317719180E-16
220
1.0
230
9.869882688917854E-15
  0
LINE
  5
64
330
1F
100
AcDbEntity
  8
0
100
AcDbLine
 10
-11.41421356237308
 20
13.91421356237309
 30
0.9999999999999999
 11
-11.41421356237308
 21
13.91421356237309
 31
0.0
  0
LINE
  5
65
330
1F
100
AcDbEntity
  8
0
100
AcDbLine
 10
-9.48236190979495
 20
10.56814834742186
 30
0.9999999999999999
 11
-9.48236190979495
 21
10.56814834742186
 31
0.0
  0
CIRCLE
  5
66
330
1F
100
AcDbEntity
  8
0
100
AcDbCircle
 10
10.00000000000017
 20
12.50000000000002
 30
23.9999999999999
 40
2.0
210
7.937332602203402E-15
220
1.0
230
-1.955280334618204E-15
  0
LINE
  5
67
330
1F
100
AcDbEntity
  8
0
100
AcDbLine
 10
-8.585786437626888
 20
24.0
 30
13.91421356237308
 11
-8.585786437626885
 21
24.99999999999999
 31
13.91421356237307
  0
LINE
  5
68
330
1F
100
AcDbEntity
  8
0
100
AcDbLine
 10
-8.267949192431107
 20
23.99999999999998
 30
13.49999999999999
 11
-8.2679491924311
 21
24.99999999999999
 31
13.49999999999996
  0
LINE
  5
69
330
1F
100
AcDbEntity
  8
0
100
AcDbLine
 10
-8.068148347421847
 20
24.0
 30
13.017638090205
 11
-8.068148347421838
 21
25.00000000000001
 31
13.01763809020503
  0
LINE
  5
6A
330
1F
100
AcDbEntity
  8
0
100
AcDbLine
 10
-7.999999999999985
 20
24.00000000000001
 30
12.49999999999998
 11
-7.999999999999979
 21
25.00000000000001
 31
12.49999999999999
  0
LINE
  5
6B
330
1F
100
AcDbEntity
  8
0
100
AcDbLine
 10
-11.93185165257812
 20
24.0
 30
11.98236190979495
 11
-11.93185165257811
 21
24.99999999999998
 31
11.98236190979494
  0
LINE
  5
6C
330
1F
100
AcDbEntity
  8
0
100
AcDbLine
 10
-11.99999999999998
 20
24.00000000000001
 30
12.49999999999998
 11
-11.99999999999998
 21
25.00000000000001
 31
12.49999999999999
  0
LINE
  5
6D
330
1F
100
AcDbEntity
  8
0
100
AcDbLine
 10
-10.51763809020502
 20
23.99999999999998
 30
10.56814834742187
 11
-10.51763809020502
 21
24.99999999999999
 31
10.56814834742186
  0
LINE
  5
6E
330
1F
100
AcDbEntity
  8
0
100
AcDbLine
 10
-10.99999999999998
 20
24.0
 30
10.76794919243113
 11
-10.99999999999998
 21
25.0
 31
10.76794919243113
  0
LINE
  5
6F
330
1F
100
AcDbEntity
  8
0
100
AcDbLine
 10
0.0
 20
0.0
 30
0.0
 11
0.0000000000000183
 21
25.0
 31
0.0
  0
LINE
  5
70
330
1F
100
AcDbEntity
  8
0
100
AcDbLine
 10
-19.99999999999999
 20
25.0
 30
0.0
 11
-19.99999999999999
 21
-0.0000000000000007
 31
0.0
  0
LINE
  5
71
330
1F
100
AcDbEntity
  8
0
100
AcDbLine
 10
-8.267949192431105
 20
23.99999999999999
 30
11.49999999999998
 11
-8.267949192431097
 21
24.99999999999998
 31
11.49999999999998
  0
LINE
  5
72
330
1F
100
AcDbEntity
  8
0
100
AcDbLine
 10
-8.585786437626888
 20
23.99999999999999
 30
11.0857864376269
 11
-8.585786437626885
 21
24.99999999999999
 31
11.08578643762689
  0
LINE
  5
73
330
1F
100
AcDbEntity
  8
0
100
AcDbLine
 10
-10.51763809020502
 20
24.0
 30
14.43185165257812
 11
-10.51763809020503
 21
25.0
 31
14.43185165257809
  0
LINE
  5
74
330
1F
100
AcDbEntity
  8
0
100
AcDbLine
 10
-9.999999999999975
 20
24.0
 30
14.49999999999998
 11
-9.99999999999998
 21
24.99999999999999
 31
14.49999999999995
  0
LINE
  5
75
330
1F
100
AcDbEntity
  8
0
100
AcDbLine
 10
-8.068148347421847
 20
23.99999999999999
 30
11.98236190979495
 11
-8.068148347421845
 21
24.99999999999998
 31
11.98236190979494
  0
LINE
  5
76
330
1F
100
AcDbEntity
  8
0
100
AcDbLine
 10
-11.73205080756886
 20
24.0
 30
11.49999999999998
 11
-11.73205080756886
 21
24.99999999999999
 31
11.49999999999998
  0
LINE
  5
77
330
1F
100
AcDbEntity
  8
0
100
AcDbLine
 10
-9.999999999999975
 20
23.99999999999999
 30
10.5
 11
-9.99999999999998
 21
25.0
 31
10.5
  0
LINE
  5
78
330
1F
100
AcDbEntity
  8
0
100
AcDbLine
 10
-9.482361909794939
 20
23.99999999999998
 30
10.56814834742187
 11
-9.482361909794937
 21
24.99999999999999
 31
10.56814834742186
  0
LINE
  5
79
330
1F
100
AcDbEntity
  8
0
100
AcDbLine
 10
-9.482361909794944
 20
23.99999999999999
 30
14.43185165257812
 11
-9.482361909794935
 21
25.0
 31
14.43185165257809
  0
LINE
  5
7A
330
1F
100
AcDbEntity
  8
0
100
AcDbLine
 10
-8.999999999999984
 20
23.99999999999999
 30
14.23205080756885
 11
-8.999999999999982
 21
25.00000000000001
 31
14.23205080756884
  0
LINE
  5
7B
330
1F
100
AcDbEntity
  8
0
100
AcDbLine
 10
-19.99999999999999
 20
24.00000000000001
 30
24.99999999999998
 11
-19.99999999999999
 21
23.99999999999999
 31
1.000000000000003
  0
LINE
  5
7C
330
1F
100
AcDbEntity
  8
0
100
AcDbLine
 10
0.0000000000000169
 20
23.99999999999999
 30
0.9999999999999999
 11
0.0000000000000148
 21
24.0
 31
24.99999999999998
  0
LINE
  5
7D
330
1F
100
AcDbEntity
  8
0
100
AcDbLine
 10
0.0000000000000148
 20
24.0
 30
24.99999999999998
 11
-19.99999999999999
 21
24.00000000000001
 31
24.99999999999998
  0
LINE
  5
7E
330
1F
100
AcDbEntity
  8
0
100
AcDbLine
 10
-19.99999999999998
 20
25.00000000000002
 30
24.99999999999999
 11
-19.99999999999999
 21
24.00000000000001
 31
24.99999999999998
  0
LINE
  5
7F
330
1F
100
AcDbEntity
  8
0
100
AcDbLine
 10
-11.41421356237308
 20
24.0
 30
13.91421356237308
 11
-11.41421356237307
 21
25.00000000000001
 31
13.91421356237307
  0
LINE
  5
80
330
1F
100
AcDbEntity
  8
0
100
AcDbLine
 10
-10.99999999999998
 20
24.0
 30
14.23205080756885
 11
-10.99999999999998
 21
25.00000000000002
 31
14.23205080756884
  0
LINE
  5
81
330
1F
100
AcDbEntity
  8
0
100
AcDbLine
 10
-8.999999999999979
 20
23.99999999999999
 30
10.76794919243113
 11
-8.999999999999979
 21
25.0
 31
10.76794919243113
  0
LINE
  5
82
330
1F
100
AcDbEntity
  8
0
100
AcDbLine
 10
-8.999999999999988
 20
14.23205080756888
 30
0.9999999999999999
 11
-8.999999999999988
 21
14.23205080756888
 31
0.0
  0
LINE
  5
83
330
1F
100
AcDbEntity
  8
0
100
AcDbLine
 10
-11.73205080756886
 20
23.99999999999999
 30
13.49999999999998
 11
-11.73205080756886
 21
25.0
 31
13.49999999999996
  0
LINE
  5
84
330
1F
100
AcDbEntity
  8
0
100
AcDbLine
 10
0.000000000000019
 20
25.00000000000002
 30
24.99999999999999
 11
0.0000000000000148
 21
24.0
 31
24.99999999999998
  0
LINE
  5
85
330
1F
100
AcDbEntity
  8
0
100
AcDbLine
 10
-11.93185165257812
 20
24.00000000000001
 30
13.017638090205
 11
-11.93185165257811
 21
25.0
 31
13.01763809020502
  0
LINE
  5
86
330
1F
100
AcDbEntity
  8
0
100
AcDbLine
 10
-11.41421356237308
 20
24.0
 30
11.0857864376269
 11
-11.41421356237308
 21
24.99999999999999
 31
11.08578643762689
  0
POLYLINE
  5
87
330
1F
100
AcDbEntity
  8
0
100
AcDbPolyFaceMesh
 66
     1
 10
0.0
 20
0.0
 30
0.0
 70
    64
 71
     4
 72
     2
  0
VERTEX
  5
88
330
87
100
AcDbEntity
  8
0
100
AcDbVertex
100
AcDbPolyFaceMeshVertex
 10
-9.48236190979495
 20
14.43185165257813
 30
0.9999999999999999
 70
   192
  0
VERTEX
  5
89
330
87
100
AcDbEntity
  8
0
100
AcDbVertex
100
AcDbPolyFaceMeshVertex
 10
-9.999999999999982
 20
14.49999999999999
 30
0.0
 70
   192
  0
VERTEX
  5
8A
330
87
100
AcDbEntity
  8
0
100
AcDbVertex
100
AcDbPolyFaceMeshVertex
 10
-9.48236190979495
 20
14.43185165257813
 30
0.0
 70
   192
  0
VERTEX
  5
8B
330
87
100
AcDbEntity
  8
0
100
AcDbVertex
100
AcDbPolyFaceMeshVertex
 10
-9.999999999999982
 20
14.49999999999999
 30
0.9999999999999999
 70
   192
  0
VERTEX
  5
8C
330
87
100
AcDbEntity
  8
0
100
AcDbFaceRecord
 10
0.0
 20
0.0
 30
0.0
 70
   128
 71
    -1
 72
     2
 73
     3
  0
VERTEX
  5
8D
330
87
100
AcDbEntity
  8
0
100
AcDbFaceRecord
 10
0.0
 20
0.0
 30
0.0
 70
   128
 71
    -2
 72
     1
 73
     4
  0
SEQEND
  5
8E
330
87
100
AcDbEntity
  8
0
  0
POLYLINE
  5
8F
330
1F
100
AcDbEntity
  8
0
100
AcDbPolyFaceMesh
 66
     1
 10
0.0
 20
0.0
 30
0.0
 70
    64
 71
     4
 72
     2
  0
VERTEX
  5
90
330
8F
100
AcDbEntity
  8
0
100
AcDbVertex
100
AcDbPolyFaceMeshVertex
 10
-11.73205080756887
 20
13.49999999999999
 30
0.0
 70
   192
  0
VERTEX
  5
91
330
8F
100
AcDbEntity
  8
0
100
AcDbVertex
100
AcDbPolyFaceMeshVertex
 10
-11.93185165257812
 20
13.01763809020504
 30
0.9999999999999999
 70
   192
  0
VERTEX
  5
92
330
8F
100
AcDbEntity
  8
0
100
AcDbVertex
100
AcDbPolyFaceMeshVertex
 10
-11.93185165257812
 20
13.01763809020504
 30
0.0
 70
   192
  0
VERTEX
  5
93
330
8F
100
AcDbEntity
  8
0
100
AcDbVertex
100
AcDbPolyFaceMeshVertex
 10
-11.73205080756887
 20
13.49999999999999
 30
0.9999999999999999
 70
   192
  0
VERTEX
  5
94
330
8F
100
AcDbEntity
  8
0
100
AcDbFaceRecord
 10
0.0
 20
0.0
 30
0.0
 70
   128
 71
    -1
 72
     2
 73
     3
  0
VERTEX
  5
95
330
8F
100
AcDbEntity
  8
0
100
AcDbFaceRecord
 10
0.0
 20
0.0
 30
0.0
 70
   128
 71
    -2
 72
     1
 73
     4
  0
SEQEND
  5
96
330
8F
100
AcDbEntity
  8
0
  0
POLYLINE
  5
97
330
1F
100
AcDbEntity
  8
0
100
AcDbPolyFaceMesh
 66
     1
 10
0.0
 20
0.0
 30
0.0
 70
    64
 71
     4
 72
     2
  0
VERTEX
  5
98
330
97
100
AcDbEntity
  8
0
100
AcDbVertex
100
AcDbPolyFaceMeshVertex
 10
-8.06814834742185
 20
13.01763809020504
 30
0.9999999999999999
 70
   192
  0
VERTEX
  5
99
330
97
100
AcDbEntity
  8
0
100
AcDbVertex
100
AcDbPolyFaceMeshVertex
 10
-7.999999999999987
 20
12.49999999999999
 30
0.0
 70
   192
  0
VERTEX
  5
9A
330
97
100
AcDbEntity
  8
0
100
AcDbVertex
100
AcDbPolyFaceMeshVertex
 10
-7.999999999999987
 20
12.49999999999999
 30
0.9999999999999999
 70
   192
  0
VERTEX
  5
9B
330
97
100
AcDbEntity
  8
0
100
AcDbVertex
100
AcDbPolyFaceMeshVertex
 10
-8.06814834742185
 20
13.01763809020504
 30
0.0
 70
   192
  0
VERTEX
  5
9C
330
97
100
AcDbEntity
  8
0
100
AcDbFaceRecord
 10
0.0
 20
0.0
 30
0.0
 70
   128
 71
    -1
 72
     2
 73
     3
  0
VERTEX
  5
9D
330
97
100
AcDbEntity
  8
0
100
AcDbFaceRecord
 10
0.0
 20
0.0
 30
0.0
 70
   128
 71
    -2
 72
     1
 73
     4
  0
SEQEND
  5
9E
330
97
100
AcDbEntity
  8
0
  0
POLYLINE
  5
9F
330
1F
100
AcDbEntity
  8
0
100
AcDbPolyFaceMesh
 66
     1
 10
0.0
 20
0.0
 30
0.0
 70
    64
 71
     4
 72
     2
  0
VERTEX
  5
A0
330
9F
100
AcDbEntity
  8
0
100
AcDbVertex
100
AcDbPolyFaceMeshVertex
 10
-8.585786437626894
 20
13.91421356237309
 30
0.9999999999999999
 70
   192
  0
VERTEX
  5
A1
330
9F
100
AcDbEntity
  8
0
100
AcDbVertex
100
AcDbPolyFaceMeshVertex
 10
-8.267949192431109
 20
13.49999999999999
 30
0.0
 70
   192
  0
VERTEX
  5
A2
330
9F
100
AcDbEntity
  8
0
100
AcDbVertex
100
AcDbPolyFaceMeshVertex
 10
-8.267949192431109
 20
13.49999999999999
 30
0.9999999999999999
 70
   192
  0
VERTEX
  5
A3
330
9F
100
AcDbEntity
  8
0
100
AcDbVertex
100
AcDbPolyFaceMeshVertex
 10
-8.585786437626894
 20
13.91421356237309
 30
0.0
 70
   192
  0
VERTEX
  5
A4
330
9F
100
AcDbEntity
  8
0
100
AcDbFaceRecord
 10
0.0
 20
0.0
 30
0.0
 70
   128
 71
    -1
 72
     2
 73
     3
  0
VERTEX
  5
A5
330
9F
100
AcDbEntity
  8
0
100
AcDbFaceRecord
 10
0.0
 20
0.0
 30
0.0
 70
   128
 71
    -2
 72
     1
 73
     4
  0
SEQEND
  5
A6
330
9F
100
AcDbEntity
  8
0
  0
POLYLINE
  5
A7
330
1F
100
AcDbEntity
  8
0
100
AcDbPolyFaceMesh
 66
     1
 10
0.0
 20
0.0
 30
0.0
 70
    64
 71
     4
 72
     2
  0
VERTEX
  5
A8
330
A7
100
AcDbEntity
  8
0
100
AcDbVertex
100
AcDbPolyFaceMeshVertex
 10
-7.999999999999987
 20
12.49999999999999
 30
0.9999999999999999
 70
   192
  0
VERTEX
  5
A9
330
A7
100
AcDbEntity
  8
0
100
AcDbVertex
100
AcDbPolyFaceMeshVertex
 10
-8.06814834742185
 20
11.98236190979496
 30
0.0
 70
   192
  0
VERTEX
  5
AA
330
A7
100
AcDbEntity
  8
0
100
AcDbVertex
100
AcDbPolyFaceMeshVertex
 10
-8.06814834742185
 20
11.98236190979496
 30
0.9999999999999999
 70
   192
  0
VERTEX
  5
AB
330
A7
100
AcDbEntity
  8
0
100
AcDbVertex
100
AcDbPolyFaceMeshVertex
 10
-7.999999999999987
 20
12.49999999999999
 30
0.0
 70
   192
  0
VERTEX
  5
AC
330
A7
100
AcDbEntity
  8
0
100
AcDbFaceRecord
 10
0.0
 20
0.0
 30
0.0
 70
   128
 71
    -1
 72
     2
 73
     3
  0
VERTEX
  5
AD
330
A7
100
AcDbEntity
  8
0
100
AcDbFaceRecord
 10
0.0
 20
0.0
 30
0.0
 70
   128
 71
    -2
 72
     1
 73
     4
  0
SEQEND
  5
AE
330
A7
100
AcDbEntity
  8
0
  0
POLYLINE
  5
AF
330
1F
100
AcDbEntity
  8
0
100
AcDbPolyFaceMesh
 66
     1
 10
0.0
 20
0.0
 30
0.0
 70
    64
 71
     4
 72
     2
  0
VERTEX
  5
B0
330
AF
100
AcDbEntity
  8
0
100
AcDbVertex
100
AcDbPolyFaceMeshVertex
 10
-8.06814834742185
 20
11.98236190979496
 30
0.9999999999999999
 70
   192
  0
VERTEX
  5
B1
330
AF
100
AcDbEntity
  8
0
100
AcDbVertex
100
AcDbPolyFaceMeshVertex
 10
-8.267949192431105
 20
11.5
 30
0.0
 70
   192
  0
VERTEX
  5
B2
330
AF
100
AcDbEntity
  8
0
100
AcDbVertex
100
AcDbPolyFaceMeshVertex
 10
-8.267949192431105
 20
11.5
 30
0.9999999999999999
 70
   192
  0
VERTEX
  5
B3
330
AF
100
AcDbEntity
  8
0
100
AcDbVertex
100
AcDbPolyFaceMeshVertex
 10
-8.06814834742185
 20
11.98236190979496
 30
0.0
 70
   192
  0
VERTEX
  5
B4
330
AF
100
AcDbEntity
  8
0
100
AcDbFaceRecord
 10
0.0
 20
0.0
 30
0.0
 70
   128
 71
    -1
 72
     2
 73
     3
  0
VERTEX
  5
B5
330
AF
100
AcDbEntity
  8
0
100
AcDbFaceRecord
 10
0.0
 20
0.0
 30
0.0
 70
   128
 71
    -2
 72
     1
 73
     4
  0
SEQEND
  5
B6
330
AF
100
AcDbEntity
  8
0
  0
POLYLINE
  5
B7
330
1F
100
AcDbEntity
  8
0
100
AcDbPolyFaceMesh
 66
     1
 10
0.0
 20
0.0
 30
0.0
 70
    64
 71
     4
 72
     2
  0
VERTEX
  5
B8
330
B7
100
AcDbEntity
  8
0
100
AcDbVertex
100
AcDbPolyFaceMeshVertex
 10
-11.93185165257812
 20
13.01763809020504
 30
0.0
 70
   192
  0
VERTEX
  5
B9
330
B7
100
AcDbEntity
  8
0
100
AcDbVertex
100
AcDbPolyFaceMeshVertex
 10
-11.99999999999999
 20
12.49999999999999
 30
0.9999999999999999
 70
   192
  0
VERTEX
  5
BA
330
B7
100
AcDbEntity
  8
0
100
AcDbVertex
100
AcDbPolyFaceMeshVertex
 10
-11.99999999999999
 20
12.49999999999999
 30
0.0
 70
   192
  0
VERTEX
  5
BB
330
B7
100
AcDbEntity
  8
0
100
AcDbVertex
100
AcDbPolyFaceMeshVertex
 10
-11.93185165257812
 20
13.01763809020504
 30
0.9999999999999999
 70
   192
  0
VERTEX
  5
BC
330
B7
100
AcDbEntity
  8
0
100
AcDbFaceRecord
 10
0.0
 20
0.0
 30
0.0
 70
   128
 71
    -1
 72
     2
 73
     3
  0
VERTEX
  5
BD
330
B7
100
AcDbEntity
  8
0
100
AcDbFaceRecord
 10
0.0
 20
0.0
 30
0.0
 70
   128
 71
    -2
 72
     1
 73
     4
  0
SEQEND
  5
BE
330
B7
100
AcDbEntity
  8
0
  0
POLYLINE
  5
BF
330
1F
100
AcDbEntity
  8
0
100
AcDbPolyFaceMesh
 66
     1
 10
0.0
 20
0.0
 30
0.0
 70
    64
 71
     4
 72
     2
  0
VERTEX
  5
C0
330
BF
100
AcDbEntity
  8
0
100
AcDbVertex
100
AcDbPolyFaceMeshVertex
 10
-11.99999999999999
 20
12.49999999999999
 30
0.0
 70
   192
  0
VERTEX
  5
C1
330
BF
100
AcDbEntity
  8
0
100
AcDbVertex
100
AcDbPolyFaceMeshVertex
 10
-11.93185165257812
 20
11.98236190979495
 30
0.9999999999999999
 70
   192
  0
VERTEX
  5
C2
330
BF
100
AcDbEntity
  8
0
100
AcDbVertex
100
AcDbPolyFaceMeshVertex
 10
-11.93185165257812
 20
11.98236190979495
 30
0.0
 70
   192
  0
VERTEX
  5
C3
330
BF
100
AcDbEntity
  8
0
100
AcDbVertex
100
AcDbPolyFaceMeshVertex
 10
-11.99999999999999
 20
12.49999999999999
 30
0.9999999999999999
 70
   192
  0
VERTEX
  5
C4
330
BF
100
AcDbEntity
  8
0
100
AcDbFaceRecord
 10
0.0
 20
0.0
 30
0.0
 70
   128
 71
    -1
 72
     2
 73
     3
  0
VERTEX
  5
C5
330
BF
100
AcDbEntity
  8
0
100
AcDbFaceRecord
 10
0.0
 20
0.0
 30
0.0
 70
   128
 71
    -2
 72
     1
 73
     4
  0
SEQEND
  5
C6
330
BF
100
AcDbEntity
  8
0
  0
POLYLINE
  5
C7
330
1F
100
AcDbEntity
  8
0
100
AcDbPolyFaceMesh
 66
     1
 10
0.0
 20
0.0
 30
0.0
 70
    64
 71
     4
 72
     2
  0
VERTEX
  5
C8
330
C7
100
AcDbEntity
  8
0
100
AcDbVertex
100
AcDbPolyFaceMeshVertex
 10
-11.73205080756886
 20
11.5
 30
0.0
 70
   192
  0
VERTEX
  5
C9
330
C7
100
AcDbEntity
  8
0
100
AcDbVertex
100
AcDbPolyFaceMeshVertex
 10
-11.41421356237309
 20
11.0857864376269
 30
0.9999999999999999
 70
   192
  0
VERTEX
  5
CA
330
C7
100
AcDbEntity
  8
0
100
AcDbVertex
100
AcDbPolyFaceMeshVertex
 10
-11.41421356237309
 20
11.0857864376269
 30
0.0
 70
   192
  0
VERTEX
  5
CB
330
C7
100
AcDbEntity
  8
0
100
AcDbVertex
100
AcDbPolyFaceMeshVertex
 10
-11.73205080756886
 20
11.5
 30
0.9999999999999999
 70
   192
  0
VERTEX
  5
CC
330
C7
100
AcDbEntity
  8
0
100
AcDbFaceRecord
 10
0.0
 20
0.0
 30
0.0
 70
   128
 71
    -1
 72
     2
 73
     3
  0
VERTEX
  5
CD
330
C7
100
AcDbEntity
  8
0
100
AcDbFaceRecord
 10
0.0
 20
0.0
 30
0.0
 70
   128
 71
    -2
 72
     1
 73
     4
  0
SEQEND
  5
CE
330
C7
100
AcDbEntity
  8
0
  0
POLYLINE
  5
CF
330
1F
100
AcDbEntity
  8
0
100
AcDbPolyFaceMesh
 66
     1
 10
0.0
 20
0.0
 30
0.0
 70
    64
 71
     4
 72
     2
  0
VERTEX
  5
D0
330
CF
100
AcDbEntity
  8
0
100
AcDbVertex
100
AcDbPolyFaceMeshVertex
 10
-11.41421356237309
 20
11.0857864376269
 30
0.9999999999999999
 70
   192
  0
VERTEX
  5
D1
330
CF
100
AcDbEntity
  8
0
100
AcDbVertex
100
AcDbPolyFaceMeshVertex
 10
-10.99999999999999
 20
10.76794919243112
 30
0.0
 70
   192
  0
VERTEX
  5
D2
330
CF
100
AcDbEntity
  8
0
100
AcDbVertex
100
AcDbPolyFaceMeshVertex
 10
-11.41421356237309
 20
11.0857864376269
 30
0.0
 70
   192
  0
VERTEX
  5
D3
330
CF
100
AcDbEntity
  8
0
100
AcDbVertex
100
AcDbPolyFaceMeshVertex
 10
-10.99999999999999
 20
10.76794919243112
 30
0.9999999999999999
 70
   192
  0
VERTEX
  5
D4
330
CF
100
AcDbEntity
  8
0
100
AcDbFaceRecord
 10
0.0
 20
0.0
 30
0.0
 70
   128
 71
    -1
 72
     2
 73
     3
  0
VERTEX
  5
D5
330
CF
100
AcDbEntity
  8
0
100
AcDbFaceRecord
 10
0.0
 20
0.0
 30
0.0
 70
   128
 71
    -2
 72
     1
 73
     4
  0
SEQEND
  5
D6
330
CF
100
AcDbEntity
  8
0
  0
POLYLINE
  5
D7
330
1F
100
AcDbEntity
  8
0
100
AcDbPolyFaceMesh
 66
     1
 10
0.0
 20
0.0
 30
0.0
 70
    64
 71
     4
 72
     2
  0
VERTEX
  5
D8
330
D7
100
AcDbEntity
  8
0
100
AcDbVertex
100
AcDbPolyFaceMeshVertex
 10
-10.51763809020503
 20
14.43185165257813
 30
0.9999999999999999
 70
   192
  0
VERTEX
  5
D9
330
D7
100
AcDbEntity
  8
0
100
AcDbVertex
100
AcDbPolyFaceMeshVertex
 10
-10.99999999999999
 20
14.23205080756887
 30
0.0
 70
   192
  0
VERTEX
  5
DA
330
D7
100
AcDbEntity
  8
0
100
AcDbVertex
100
AcDbPolyFaceMeshVertex
 10
-10.51763809020503
 20
14.43185165257813
 30
0.0
 70
   192
  0
VERTEX
  5
DB
330
D7
100
AcDbEntity
  8
0
100
AcDbVertex
100
AcDbPolyFaceMeshVertex
 10
-10.99999999999999
 20
14.23205080756887
 30
0.9999999999999999
 70
   192
  0
VERTEX
  5
DC
330
D7
100
AcDbEntity
  8
0
100
AcDbFaceRecord
 10
0.0
 20
0.0
 30
0.0
 70
   128
 71
    -1
 72
     2
 73
     3
  0
VERTEX
  5
DD
330
D7
100
AcDbEntity
  8
0
100
AcDbFaceRecord
 10
0.0
 20
0.0
 30
0.0
 70
   128
 71
    -2
 72
     1
 73
     4
  0
SEQEND
  5
DE
330
D7
100
AcDbEntity
  8
0
  0
POLYLINE
  5
DF
330
1F
100
AcDbEntity
  8
0
100
AcDbPolyFaceMesh
 66
     1
 10
0.0
 20
0.0
 30
0.0
 70
    64
 71
     4
 72
     2
  0
VERTEX
  5
E0
330
DF
100
AcDbEntity
  8
0
100
AcDbVertex
100
AcDbPolyFaceMeshVertex
 10
-9.999999999999982
 20
14.49999999999999
 30
0.9999999999999999
 70
   192
  0
VERTEX
  5
E1
330
DF
100
AcDbEntity
  8
0
100
AcDbVertex
100
AcDbPolyFaceMeshVertex
 10
-10.51763809020503
 20
14.43185165257813
 30
0.0
 70
   192
  0
VERTEX
  5
E2
330
DF
100
AcDbEntity
  8
0
100
AcDbVertex
100
AcDbPolyFaceMeshVertex
 10
-9.999999999999982
 20
14.49999999999999
 30
0.0
 70
   192
  0
VERTEX
  5
E3
330
DF
100
AcDbEntity
  8
0
100
AcDbVertex
100
AcDbPolyFaceMeshVertex
 10
-10.51763809020503
 20
14.43185165257813
 30
0.9999999999999999
 70
   192
  0
VERTEX
  5
E4
330
DF
100
AcDbEntity
  8
0
100
AcDbFaceRecord
 10
0.0
 20
0.0
 30
0.0
 70
   128
 71
    -1
 72
     2
 73
     3
  0
VERTEX
  5
E5
330
DF
100
AcDbEntity
  8
0
100
AcDbFaceRecord
 10
0.0
 20
0.0
 30
0.0
 70
   128
 71
    -2
 72
     1
 73
     4
  0
SEQEND
  5
E6
330
DF
100
AcDbEntity
  8
0
  0
POLYLINE
  5
E7
330
1F
100
AcDbEntity
  8
0
100
AcDbPolyFaceMesh
 66
     1
 10
0.0
 20
0.0
 30
0.0
 70
    64
 71
     4
 72
     2
  0
VERTEX
  5
E8
330
E7
100
AcDbEntity
  8
0
100
AcDbVertex
100
AcDbPolyFaceMeshVertex
 10
-8.267949192431105
 20
11.5
 30
0.9999999999999999
 70
   192
  0
VERTEX
  5
E9
330
E7
100
AcDbEntity
  8
0
100
AcDbVertex
100
AcDbPolyFaceMeshVertex
 10
-8.585786437626895
 20
11.08578643762691
 30
0.0
 70
   192
  0
VERTEX
  5
EA
330
E7
100
AcDbEntity
  8
0
100
AcDbVertex
100
AcDbPolyFaceMeshVertex
 10
-8.585786437626895
 20
11.08578643762691
 30
0.9999999999999999
 70
   192
  0
VERTEX
  5
EB
330
E7
100
AcDbEntity
  8
0
100
AcDbVertex
100
AcDbPolyFaceMeshVertex
 10
-8.267949192431105
 20
11.5
 30
0.0
 70
   192
  0
VERTEX
  5
EC
330
E7
100
AcDbEntity
  8
0
100
AcDbFaceRecord
 10
0.0
 20
0.0
 30
0.0
 70
   128
 71
    -1
 72
     2
 73
     3
  0
VERTEX
  5
ED
330
E7
100
AcDbEntity
  8
0
100
AcDbFaceRecord
 10
0.0
 20
0.0
 30
0.0
 70
   128
 71
    -2
 72
     1
 73
     4
  0
SEQEND
  5
EE
330
E7
100
AcDbEntity
  8
0
  0
POLYLINE
  5
EF
330
1F
100
AcDbEntity
  8
0
100
AcDbPolyFaceMesh
 66
     1
 10
0.0
 20
0.0
 30
0.0
 70
    64
 71
     4
 72
     2
  0
VERTEX
  5
F0
330
EF
100
AcDbEntity
  8
0
100
AcDbVertex
100
AcDbPolyFaceMeshVertex
 10
-8.267949192431109
 20
13.49999999999999
 30
0.9999999999999999
 70
   192
  0
VERTEX
  5
F1
330
EF
100
AcDbEntity
  8
0
100
AcDbVertex
100
AcDbPolyFaceMeshVertex
 10
-8.06814834742185
 20
13.01763809020504
 30
0.0
 70
   192
  0
VERTEX
  5
F2
330
EF
100
AcDbEntity
  8
0
100
AcDbVertex
100
AcDbPolyFaceMeshVertex
 10
-8.06814834742185
 20
13.01763809020504
 30
0.9999999999999999
 70
   192
  0
VERTEX
  5
F3
330
EF
100
AcDbEntity
  8
0
100
AcDbVertex
100
AcDbPolyFaceMeshVertex
 10
-8.267949192431109
 20
13.49999999999999
 30
0.0
 70
   192
  0
VERTEX
  5
F4
330
EF
100
AcDbEntity
  8
0
100
AcDbFaceRecord
 10
0.0
 20
0.0
 30
0.0
 70
   128
 71
    -1
 72
     2
 73
     3
  0
VERTEX
  5
F5
330
EF
100
AcDbEntity
  8
0
100
AcDbFaceRecord
 10
0.0
 20
0.0
 30
0.0
 70
   128
 71
    -2
 72
     1
 73
     4
  0
SEQEND
  5
F6
330
EF
100
AcDbEntity
  8
0
  0
POLYLINE
  5
F7
330
1F
100
AcDbEntity
  8
0
100
AcDbPolyFaceMesh
 66
     1
 10
0.0
 20
0.0
 30
0.0
 70
    64
 71
     4
 72
     2
  0
VERTEX
  5
F8
330
F7
100
AcDbEntity
  8
0
100
AcDbVertex
100
AcDbPolyFaceMeshVertex
 10
-11.93185165257812
 20
11.98236190979495
 30
0.0
 70
   192
  0
VERTEX
  5
F9
330
F7
100
AcDbEntity
  8
0
100
AcDbVertex
100
AcDbPolyFaceMeshVertex
 10
-11.73205080756886
 20
11.5
 30
0.9999999999999999
 70
   192
  0
VERTEX
  5
FA
330
F7
100
AcDbEntity
  8
0
100
AcDbVertex
100
AcDbPolyFaceMeshVertex
 10
-11.73205080756886
 20
11.5
 30
0.0
 70
   192
  0
VERTEX
  5
FB
330
F7
100
AcDbEntity
  8
0
100
AcDbVertex
100
AcDbPolyFaceMeshVertex
 10
-11.93185165257812
 20
11.98236190979495
 30
0.9999999999999999
 70
   192
  0
VERTEX
  5
FC
330
F7
100
AcDbEntity
  8
0
100
AcDbFaceRecord
 10
0.0
 20
0.0
 30
0.0
 70
   128
 71
    -1
 72
     2
 73
     3
  0
VERTEX
  5
FD
330
F7
100
AcDbEntity
  8
0
100
AcDbFaceRecord
 10
0.0
 20
0.0
 30
0.0
 70
   128
 71
    -2
 72
     1
 73
     4
  0
SEQEND
  5
FE
330
F7
100
AcDbEntity
  8
0
  0
POLYLINE
  5
FF
330
1F
100
AcDbEntity
  8
0
100
AcDbPolyFaceMesh
 66
     1
 10
0.0
 20
0.0
 30
0.0
 70
    64
 71
     4
 72
     2
  0
VERTEX
  5
100
330
FF
100
AcDbEntity
  8
0
100
AcDbVertex
100
AcDbPolyFaceMeshVertex
 10
-10.51763809020503
 20
10.56814834742186
 30
0.9999999999999999
 70
   192
  0
VERTEX
  5
101
330
FF
100
AcDbEntity
  8
0
100
AcDbVertex
100
AcDbPolyFaceMeshVertex
 10
-9.99999999999999
 20
10.5
 30
0.0
 70
   192
  0
VERTEX
  5
102
330
FF
100
AcDbEntity
  8
0
100
AcDbVertex
100
AcDbPolyFaceMeshVertex
 10
-10.51763809020503
 20
10.56814834742186
 30
0.0
 70
   192
  0
VERTEX
  5
103
330
FF
100
AcDbEntity
  8
0
100
AcDbVertex
100
AcDbPolyFaceMeshVertex
 10
-9.99999999999999
 20
10.5
 30
0.9999999999999999
 70
   192
  0
VERTEX
  5
104
330
FF
100
AcDbEntity
  8
0
100
AcDbFaceRecord
 10
0.0
 20
0.0
 30
0.0
 70
   128
 71
    -1
 72
     2
 73
     3
  0
VERTEX
  5
105
330
FF
100
AcDbEntity
  8
0
100
AcDbFaceRecord
 10
0.0
 20
0.0
 30
0.0
 70
   128
 71
    -2
 72
     1
 73
     4
  0
SEQEND
  5
106
330
FF
100
AcDbEntity
  8
0
  0
POLYLINE
  5
107
330
1F
100
AcDbEntity
  8
0
100
AcDbPolyFaceMesh
 66
     1
 10
0.0
 20
0.0
 30
0.0
 70
    64
 71
     4
 72
     2
  0
VERTEX
  5
108
330
107
100
AcDbEntity
  8
0
100
AcDbVertex
100
AcDbPolyFaceMeshVertex
 10
-8.585786437626888
 20
24.0
 30
13.91421356237308
 70
   192
  0
VERTEX
  5
109
330
107
100
AcDbEntity
  8
0
100
AcDbVertex
100
AcDbPolyFaceMeshVertex
 10
-8.2679491924311
 20
24.99999999999999
 30
13.49999999999996
 70
   192
  0
VERTEX
  5
10A
330
107
100
AcDbEntity
  8
0
100
AcDbVertex
100
AcDbPolyFaceMeshVertex
 10
-8.267949192431107
 20
23.99999999999998
 30
13.49999999999999
 70
   192
  0
VERTEX
  5
10B
330
107
100
AcDbEntity
  8
0
100
AcDbVertex
100
AcDbPolyFaceMeshVertex
 10
-8.585786437626885
 20
24.99999999999999
 30
13.91421356237307
 70
   192
  0
VERTEX
  5
10C
330
107
100
AcDbEntity
  8
0
100
AcDbFaceRecord
 10
0.0
 20
0.0
 30
0.0
 70
   128
 71
    -1
 72
     2
 73
     3
  0
VERTEX
  5
10D
330
107
100
AcDbEntity
  8
0
100
AcDbFaceRecord
 10
0.0
 20
0.0
 30
0.0
 70
   128
 71
    -2
 72
     1
 73
     4
  0
SEQEND
  5
10E
330
107
100
AcDbEntity
  8
0
  0
POLYLINE
  5
10F
330
1F
100
AcDbEntity
  8
0
100
AcDbPolyFaceMesh
 66
     1
 10
0.0
 20
0.0
 30
0.0
 70
    64
 71
     4
 72
     2
  0
VERTEX
  5
110
330
10F
100
AcDbEntity
  8
0
100
AcDbVertex
100
AcDbPolyFaceMeshVertex
 10
-8.068148347421838
 20
25.00000000000001
 30
13.01763809020503
 70
   192
  0
VERTEX
  5
111
330
10F
100
AcDbEntity
  8
0
100
AcDbVertex
100
AcDbPolyFaceMeshVertex
 10
-7.999999999999985
 20
24.00000000000001
 30
12.49999999999998
 70
   192
  0
VERTEX
  5
112
330
10F
100
AcDbEntity
  8
0
100
AcDbVertex
100
AcDbPolyFaceMeshVertex
 10
-8.068148347421847
 20
24.0
 30
13.017638090205
 70
   192
  0
VERTEX
  5
113
330
10F
100
AcDbEntity
  8
0
100
AcDbVertex
100
AcDbPolyFaceMeshVertex
 10
-7.999999999999979
 20
25.00000000000001
 30
12.49999999999999
 70
   192
  0
VERTEX
  5
114
330
10F
100
AcDbEntity
  8
0
100
AcDbFaceRecord
 10
0.0
 20
0.0
 30
0.0
 70
   128
 71
    -1
 72
     2
 73
     3
  0
VERTEX
  5
115
330
10F
100
AcDbEntity
  8
0
100
AcDbFaceRecord
 10
0.0
 20
0.0
 30
0.0
 70
   128
 71
    -2
 72
     1
 73
     4
  0
SEQEND
  5
116
330
10F
100
AcDbEntity
  8
0
  0
POLYLINE
  5
117
330
1F
100
AcDbEntity
  8
0
100
AcDbPolyFaceMesh
 66
     1
 10
0.0
 20
0.0
 30
0.0
 70
    64
 71
     4
 72
     2
  0
VERTEX
  5
118
330
117
100
AcDbEntity
  8
0
100
AcDbVertex
100
AcDbPolyFaceMeshVertex
 10
-8.2679491924311
 20
24.99999999999999
 30
13.49999999999996
 70
   192
  0
VERTEX
  5
119
330
117
100
AcDbEntity
  8
0
100
AcDbVertex
100
AcDbPolyFaceMeshVertex
 10
-8.068148347421847
 20
24.0
 30
13.017638090205
 70
   192
  0
VERTEX
  5
11A
330
117
100
AcDbEntity
  8
0
100
AcDbVertex
100
AcDbPolyFaceMeshVertex
 10
-8.267949192431107
 20
23.99999999999998
 30
13.49999999999999
 70
   192
  0
VERTEX
  5
11B
330
117
100
AcDbEntity
  8
0
100
AcDbVertex
100
AcDbPolyFaceMeshVertex
 10
-8.068148347421838
 20
25.00000000000001
 30
13.01763809020503
 70
   192
  0
VERTEX
  5
11C
330
117
100
AcDbEntity
  8
0
100
AcDbFaceRecord
 10
0.0
 20
0.0
 30
0.0
 70
   128
 71
    -1
 72
     2
 73
     3
  0
VERTEX
  5
11D
330
117
100
AcDbEntity
  8
0
100
AcDbFaceRecord
 10
0.0
 20
0.0
 30
0.0
 70
   128
 71
    -2
 72
     1
 73
     4
  0
SEQEND
  5
11E
330
117
100
AcDbEntity
  8
0
  0
POLYLINE
  5
11F
330
1F
100
AcDbEntity
  8
0
100
AcDbPolyFaceMesh
 66
     1
 10
0.0
 20
0.0
 30
0.0
 70
    64
 71
     4
 72
     2
  0
VERTEX
  5
120
330
11F
100
AcDbEntity
  8
0
100
AcDbVertex
100
AcDbPolyFaceMeshVertex
 10
-11.93185165257811
 20
24.99999999999998
 30
11.98236190979494
 70
   192
  0
VERTEX
  5
121
330
11F
100
AcDbEntity
  8
0
100
AcDbVertex
100
AcDbPolyFaceMeshVertex
 10
-11.99999999999998
 20
24.00000000000001
 30
12.49999999999998
 70
   192
  0
VERTEX
  5
122
330
11F
100
AcDbEntity
  8
0
100
AcDbVertex
100
AcDbPolyFaceMeshVertex
 10
-11.93185165257812
 20
24.0
 30
11.98236190979495
 70
   192
  0
VERTEX
  5
123
330
11F
100
AcDbEntity
  8
0
100
AcDbVertex
100
AcDbPolyFaceMeshVertex
 10
-11.99999999999998
 20
25.00000000000001
 30
12.49999999999999
 70
   192
  0
VERTEX
  5
124
330
11F
100
AcDbEntity
  8
0
100
AcDbFaceRecord
 10
0.0
 20
0.0
 30
0.0
 70
   128
 71
    -1
 72
     2
 73
     3
  0
VERTEX
  5
125
330
11F
100
AcDbEntity
  8
0
100
AcDbFaceRecord
 10
0.0
 20
0.0
 30
0.0
 70
   128
 71
    -2
 72
     1
 73
     4
  0
SEQEND
  5
126
330
11F
100
AcDbEntity
  8
0
  0
POLYLINE
  5
127
330
1F
100
AcDbEntity
  8
0
100
AcDbPolyFaceMesh
 66
     1
 10
0.0
 20
0.0
 30
0.0
 70
    64
 71
     4
 72
     2
  0
VERTEX
  5
128
330
127
100
AcDbEntity
  8
0
100
AcDbVertex
100
AcDbPolyFaceMeshVertex
 10
-10.51763809020502
 20
23.99999999999998
 30
10.56814834742187
 70
   192
  0
VERTEX
  5
129
330
127
100
AcDbEntity
  8
0
100
AcDbVertex
100
AcDbPolyFaceMeshVertex
 10
-10.99999999999998
 20
25.0
 30
10.76794919243113
 70
   192
  0
VERTEX
  5
12A
330
127
100
AcDbEntity
  8
0
100
AcDbVertex
100
AcDbPolyFaceMeshVertex
 10
-10.99999999999998
 20
24.0
 30
10.76794919243113
 70
   192
  0
VERTEX
  5
12B
330
127
100
AcDbEntity
  8
0
100
AcDbVertex
100
AcDbPolyFaceMeshVertex
 10
-10.51763809020502
 20
24.99999999999999
 30
10.56814834742186
 70
   192
  0
VERTEX
  5
12C
330
127
100
AcDbEntity
  8
0
100
AcDbFaceRecord
 10
0.0
 20
0.0
 30
0.0
 70
   128
 71
    -1
 72
     2
 73
     3
  0
VERTEX
  5
12D
330
127
100
AcDbEntity
  8
0
100
AcDbFaceRecord
 10
0.0
 20
0.0
 30
0.0
 70
   128
 71
    -2
 72
     1
 73
     4
  0
SEQEND
  5
12E
330
127
100
AcDbEntity
  8
0
  0
POLYLINE
  5
12F
330
1F
100
AcDbEntity
  8
0
100
AcDbPolyFaceMesh
 66
     1
 10
0.0
 20
0.0
 30
0.0
 70
    64
 71
    28
 72
    28
  0
VERTEX
  5
130
330
12F
100
AcDbEntity
  8
0
100
AcDbVertex
100
AcDbPolyFaceMeshVertex
 10
-19.99999999999999
 20
25.0
 30
0.0
 70
   192
  0
VERTEX
  5
131
330
12F
100
AcDbEntity
  8
0
100
AcDbVertex
100
AcDbPolyFaceMeshVertex
 10
-11.73205080756887
 20
13.49999999999999
 30
0.0
 70
   192
  0
VERTEX
  5
132
330
12F
100
AcDbEntity
  8
0
100
AcDbVertex
100
AcDbPolyFaceMeshVertex
 10
-19.99999999999999
 20
-0.0000000000000007
 30
0.0
 70
   192
  0
VERTEX
  5
133
330
12F
100
AcDbEntity
  8
0
100
AcDbVertex
100
AcDbPolyFaceMeshVertex
 10
-11.41421356237308
 20
13.91421356237309
 30
0.0
 70
   192
  0
VERTEX
  5
134
330
12F
100
AcDbEntity
  8
0
100
AcDbVertex
100
AcDbPolyFaceMeshVertex
 10
0.0000000000000183
 20
25.0
 30
0.0
 70
   192
  0
VERTEX
  5
135
330
12F
100
AcDbEntity
  8
0
100
AcDbVertex
100
AcDbPolyFaceMeshVertex
 10
-11.93185165257812
 20
13.01763809020504
 30
0.0
 70
   192
  0
VERTEX
  5
136
330
12F
100
AcDbEntity
  8
0
100
AcDbVertex
100
AcDbPolyFaceMeshVertex
 10
-11.99999999999999
 20
12.49999999999999
 30
0.0
 70
   192
  0
VERTEX
  5
137
330
12F
100
AcDbEntity
  8
0
100
AcDbVertex
100
AcDbPolyFaceMeshVertex
 10
-10.99999999999999
 20
14.23205080756887
 30
0.0
 70
   192
  0
VERTEX
  5
138
330
12F
100
AcDbEntity
  8
0
100
AcDbVertex
100
AcDbPolyFaceMeshVertex
 10
-10.51763809020503
 20
14.43185165257813
 30
0.0
 70
   192
  0
VERTEX
  5
139
330
12F
100
AcDbEntity
  8
0
100
AcDbVertex
100
AcDbPolyFaceMeshVertex
 10
-9.999999999999982
 20
14.49999999999999
 30
0.0
 70
   192
  0
VERTEX
  5
13A
330
12F
100
AcDbEntity
  8
0
100
AcDbVertex
100
AcDbPolyFaceMeshVertex
 10
-9.48236190979495
 20
14.43185165257813
 30
0.0
 70
   192
  0
VERTEX
  5
13B
330
12F
100
AcDbEntity
  8
0
100
AcDbVertex
100
AcDbPolyFaceMeshVertex
 10
-8.999999999999988
 20
14.23205080756888
 30
0.0
 70
   192
  0
VERTEX
  5
13C
330
12F
100
AcDbEntity
  8
0
100
AcDbVertex
100
AcDbPolyFaceMeshVertex
 10
-8.585786437626894
 20
13.91421356237309
 30
0.0
 70
   192
  0
VERTEX
  5
13D
330
12F
100
AcDbEntity
  8
0
100
AcDbVertex
100
AcDbPolyFaceMeshVertex
 10
-8.267949192431109
 20
13.49999999999999
 30
0.0
 70
   192
  0
VERTEX
  5
13E
330
12F
100
AcDbEntity
  8
0
100
AcDbVertex
100
AcDbPolyFaceMeshVertex
 10
-8.06814834742185
 20
13.01763809020504
 30
0.0
 70
   192
  0
VERTEX
  5
13F
330
12F
100
AcDbEntity
  8
0
100
AcDbVertex
100
AcDbPolyFaceMeshVertex
 10
-7.999999999999987
 20
12.49999999999999
 30
0.0
 70
   192
  0
VERTEX
  5
140
330
12F
100
AcDbEntity
  8
0
100
AcDbVertex
100
AcDbPolyFaceMeshVertex
 10
0.0
 20
0.0
 30
0.0
 70
   192
  0
VERTEX
  5
141
330
12F
100
AcDbEntity
  8
0
100
AcDbVertex
100
AcDbPolyFaceMeshVertex
 10
-11.41421356237309
 20
11.0857864376269
 30
0.0
 70
   192
  0
VERTEX
  5
142
330
12F
100
AcDbEntity
  8
0
100
AcDbVertex
100
AcDbPolyFaceMeshVertex
 10
-11.73205080756886
 20
11.5
 30
0.0
 70
   192
  0
VERTEX
  5
143
330
12F
100
AcDbEntity
  8
0
100
AcDbVertex
100
AcDbPolyFaceMeshVertex
 10
-11.93185165257812
 20
11.98236190979495
 30
0.0
 70
   192
  0
VERTEX
  5
144
330
12F
100
AcDbEntity
  8
0
100
AcDbVertex
100
AcDbPolyFaceMeshVertex
 10
-10.99999999999999
 20
10.76794919243112
 30
0.0
 70
   192
  0
VERTEX
  5
145
330
12F
100
AcDbEntity
  8
0
100
AcDbVertex
100
AcDbPolyFaceMeshVertex
 10
-10.51763809020503
 20
10.56814834742186
 30
0.0
 70
   192
  0
VERTEX
  5
146
330
12F
100
AcDbEntity
  8
0
100
AcDbVertex
100
AcDbPolyFaceMeshVertex
 10
-9.99999999999999
 20
10.5
 30
0.0
 70
   192
  0
VERTEX
  5
147
330
12F
100
AcDbEntity
  8
0
100
AcDbVertex
100
AcDbPolyFaceMeshVertex
 10
-9.48236190979495
 20
10.56814834742186
 30
0.0
 70
   192
  0
VERTEX
  5
148
330
12F
100
AcDbEntity
  8
0
100
AcDbVertex
100
AcDbPolyFaceMeshVertex
 10
-8.999999999999991
 20
10.76794919243112
 30
0.0
 70
   192
  0
VERTEX
  5
149
330
12F
100
AcDbEntity
  8
0
100
AcDbVertex
100
AcDbPolyFaceMeshVertex
 10
-8.585786437626895
 20
11.08578643762691
 30
0.0
 70
   192
  0
VERTEX
  5
14A
330
12F
100
AcDbEntity
  8
0
100
AcDbVertex
100
AcDbPolyFaceMeshVertex
 10
-8.267949192431105
 20
11.5
 30
0.0
 70
   192
  0
VERTEX
  5
14B
330
12F
100
AcDbEntity
  8
0
100
AcDbVertex
100
AcDbPolyFaceMeshVertex
 10
-8.06814834742185
 20
11.98236190979496
 30
0.0
 70
   192
  0
VERTEX
  5
14C
330
12F
100
AcDbEntity
  8
0
100
AcDbFaceRecord
 10
0.0
 20
0.0
 30
0.0
 70
   128
 71
    -1
 72
    -2
 73
     3
  0
VERTEX
  5
14D
330
12F
100
AcDbEntity
  8
0
100
AcDbFaceRecord
 10
0.0
 20
0.0
 30
0.0
 70
   128
 71
    -2
 72
    -1
 73
     4
  0
VERTEX
  5
14E
330
12F
100
AcDbEntity
  8
0
100
AcDbFaceRecord
 10
0.0
 20
0.0
 30
0.0
 70
   128
 71
    -4
 72
     1
 73
    -5
  0
VERTEX
  5
14F
330
12F
100
AcDbEntity
  8
0
100
AcDbFaceRecord
 10
0.0
 20
0.0
 30
0.0
 70
   128
 71
    -3
 72
     2
 73
    -6
  0
VERTEX
  5
150
330
12F
100
AcDbEntity
  8
0
100
AcDbFaceRecord
 10
0.0
 20
0.0
 30
0.0
 70
   128
 71
    -3
 72
     6
 73
    -7
  0
VERTEX
  5
151
330
12F
100
AcDbEntity
  8
0
100
AcDbFaceRecord
 10
0.0
 20
0.0
 30
0.0
 70
   128
 71
    -4
 72
    -5
 73
     8
  0
VERTEX
  5
152
330
12F
100
AcDbEntity
  8
0
100
AcDbFaceRecord
 10
0.0
 20
0.0
 30
0.0
 70
   128
 71
    -8
 72
    -5
 73
     9
  0
VERTEX
  5
153
330
12F
100
AcDbEntity
  8
0
100
AcDbFaceRecord
 10
0.0
 20
0.0
 30
0.0
 70
   128
 71
    -9
 72
    -5
 73
    10
  0
VERTEX
  5
154
330
12F
100
AcDbEntity
  8
0
100
AcDbFaceRecord
 10
0.0
 20
0.0
 30
0.0
 70
   128
 71
   -10
 72
    -5
 73
    11
  0
VERTEX
  5
155
330
12F
100
AcDbEntity
  8
0
100
AcDbFaceRecord
 10
0.0
 20
0.0
 30
0.0
 70
   128
 71
   -11
 72
    -5
 73
    12
  0
VERTEX
  5
156
330
12F
100
AcDbEntity
  8
0
100
AcDbFaceRecord
 10
0.0
 20
0.0
 30
0.0
 70
   128
 71
   -12
 72
    -5
 73
    13
  0
VERTEX
  5
157
330
12F
100
AcDbEntity
  8
0
100
AcDbFaceRecord
 10
0.0
 20
0.0
 30
0.0
 70
   128
 71
   -13
 72
    -5
 73
    14
  0
VERTEX
  5
158
330
12F
100
AcDbEntity
  8
0
100
AcDbFaceRecord
 10
0.0
 20
0.0
 30
0.0
 70
   128
 71
   -14
 72
    -5
 73
    15
  0
VERTEX
  5
159
330
12F
100
AcDbEntity
  8
0
100
AcDbFaceRecord
 10
0.0
 20
0.0
 30
0.0
 70
   128
 71
   -15
 72
    -5
 73
    16
  0
VERTEX
  5
15A
330
12F
100
AcDbEntity
  8
0
100
AcDbFaceRecord
 10
0.0
 20
0.0
 30
0.0
 70
   128
 71
   -16
 72
     5
 73
   -17
  0
VERTEX
  5
15B
330
12F
100
AcDbEntity
  8
0
100
AcDbFaceRecord
 10
0.0
 20
0.0
 30
0.0
 70
   128
 71
    -3
 72
   -18
 73
    17
  0
VERTEX
  5
15C
330
12F
100
AcDbEntity
  8
0
100
AcDbFaceRecord
 10
0.0
 20
0.0
 30
0.0
 70
   128
 71
   -18
 72
    -3
 73
    19
  0
VERTEX
  5
15D
330
12F
100
AcDbEntity
  8
0
100
AcDbFaceRecord
 10
0.0
 20
0.0
 30
0.0
 70
   128
 71
   -19
 72
    -3
 73
    20
  0
VERTEX
  5
15E
330
12F
100
AcDbEntity
  8
0
100
AcDbFaceRecord
 10
0.0
 20
0.0
 30
0.0
 70
   128
 71
   -20
 72
    -3
 73
     7
  0
VERTEX
  5
15F
330
12F
100
AcDbEntity
  8
0
100
AcDbFaceRecord
 10
0.0
 20
0.0
 30
0.0
 70
   128
 71
   -17
 72
    18
 73
   -21
  0
VERTEX
  5
160
330
12F
100
AcDbEntity
  8
0
100
AcDbFaceRecord
 10
0.0
 20
0.0
 30
0.0
 70
   128
 71
   -17
 72
    21
 73
   -22
  0
VERTEX
  5
161
330
12F
100
AcDbEntity
  8
0
100
AcDbFaceRecord
 10
0.0
 20
0.0
 30
0.0
 70
   128
 71
   -17
 72
    22
 73
   -23
  0
VERTEX
  5
162
330
12F
100
AcDbEntity
  8
0
100
AcDbFaceRecord
 10
0.0
 20
0.0
 30
0.0
 70
   128
 71
   -17
 72
    23
 73
   -24
  0
VERTEX
  5
163
330
12F
100
AcDbEntity
  8
0
100
AcDbFaceRecord
 10
0.0
 20
0.0
 30
0.0
 70
   128
 71
   -17
 72
    24
 73
   -25
  0
VERTEX
  5
164
330
12F
100
AcDbEntity
  8
0
100
AcDbFaceRecord
 10
0.0
 20
0.0
 30
0.0
 70
   128
 71
   -17
 72
    25
 73
   -26
  0
VERTEX
  5
165
330
12F
100
AcDbEntity
  8
0
100
AcDbFaceRecord
 10
0.0
 20
0.0
 30
0.0
 70
   128
 71
   -17
 72
    26
 73
   -27
  0
VERTEX
  5
166
330
12F
100
AcDbEntity
  8
0
100
AcDbFaceRecord
 10
0.0
 20
0.0
 30
0.0
 70
   128
 71
   -17
 72
    27
 73
   -28
  0
VERTEX
  5
167
330
12F
100
AcDbEntity
  8
0
100
AcDbFaceRecord
 10
0.0
 20
0.0
 30
0.0
 70
   128
 71
   -17
 72
    28
 73
   -16
  0
SEQEND
  5
168
330
12F
100
AcDbEntity
  8
0
  0
POLYLINE
  5
169
330
1F
100
AcDbEntity
  8
0
100
AcDbPolyFaceMesh
 66
     1
 10
0.0
 20
0.0
 30
0.0
 70
    64
 71
     4
 72
     2
  0
VERTEX
  5
16A
330
169
100
AcDbEntity
  8
0
100
AcDbVertex
100
AcDbPolyFaceMeshVertex
 10
-8.267949192431097
 20
24.99999999999998
 30
11.49999999999998
 70
   192
  0
VERTEX
  5
16B
330
169
100
AcDbEntity
  8
0
100
AcDbVertex
100
AcDbPolyFaceMeshVertex
 10
-8.585786437626888
 20
23.99999999999999
 30
11.0857864376269
 70
   192
  0
VERTEX
  5
16C
330
169
100
AcDbEntity
  8
0
100
AcDbVertex
100
AcDbPolyFaceMeshVertex
 10
-8.267949192431105
 20
23.99999999999999
 30
11.49999999999998
 70
   192
  0
VERTEX
  5
16D
330
169
100
AcDbEntity
  8
0
100
AcDbVertex
100
AcDbPolyFaceMeshVertex
 10
-8.585786437626885
 20
24.99999999999999
 30
11.08578643762689
 70
   192
  0
VERTEX
  5
16E
330
169
100
AcDbEntity
  8
0
100
AcDbFaceRecord
 10
0.0
 20
0.0
 30
0.0
 70
   128
 71
    -1
 72
     2
 73
     3
  0
VERTEX
  5
16F
330
169
100
AcDbEntity
  8
0
100
AcDbFaceRecord
 10
0.0
 20
0.0
 30
0.0
 70
   128
 71
    -2
 72
     1
 73
     4
  0
SEQEND
  5
170
330
169
100
AcDbEntity
  8
0
  0
POLYLINE
  5
171
330
1F
100
AcDbEntity
  8
0
100
AcDbPolyFaceMesh
 66
     1
 10
0.0
 20
0.0
 30
0.0
 70
    64
 71
     4
 72
     2
  0
VERTEX
  5
172
330
171
100
AcDbEntity
  8
0
100
AcDbVertex
100
AcDbPolyFaceMeshVertex
 10
-9.99999999999998
 20
24.99999999999999
 30
14.49999999999995
 70
   192
  0
VERTEX
  5
173
330
171
100
AcDbEntity
  8
0
100
AcDbVertex
100
AcDbPolyFaceMeshVertex
 10
-10.51763809020502
 20
24.0
 30
14.43185165257812
 70
   192
  0
VERTEX
  5
174
330
171
100
AcDbEntity
  8
0
100
AcDbVertex
100
AcDbPolyFaceMeshVertex
 10
-10.51763809020503
 20
25.0
 30
14.43185165257809
 70
   192
  0
VERTEX
  5
175
330
171
100
AcDbEntity
  8
0
100
AcDbVertex
100
AcDbPolyFaceMeshVertex
 10
-9.999999999999975
 20
24.0
 30
14.49999999999998
 70
   192
  0
VERTEX
  5
176
330
171
100
AcDbEntity
  8
0
100
AcDbFaceRecord
 10
0.0
 20
0.0
 30
0.0
 70
   128
 71
    -1
 72
     2
 73
     3
  0
VERTEX
  5
177
330
171
100
AcDbEntity
  8
0
100
AcDbFaceRecord
 10
0.0
 20
0.0
 30
0.0
 70
   128
 71
    -2
 72
     1
 73
     4
  0
SEQEND
  5
178
330
171
100
AcDbEntity
  8
0
  0
POLYLINE
  5
179
330
1F
100
AcDbEntity
  8
0
100
AcDbPolyFaceMesh
 66
     1
 10
0.0
 20
0.0
 30
0.0
 70
    64
 71
     4
 72
     2
  0
VERTEX
  5
17A
330
179
100
AcDbEntity
  8
0
100
AcDbVertex
100
AcDbPolyFaceMeshVertex
 10
-7.999999999999985
 20
24.00000000000001
 30
12.49999999999998
 70
   192
  0
VERTEX
  5
17B
330
179
100
AcDbEntity
  8
0
100
AcDbVertex
100
AcDbPolyFaceMeshVertex
 10
-8.068148347421845
 20
24.99999999999998
 30
11.98236190979494
 70
   192
  0
VERTEX
  5
17C
330
179
100
AcDbEntity
  8
0
100
AcDbVertex
100
AcDbPolyFaceMeshVertex
 10
-8.068148347421847
 20
23.99999999999999
 30
11.98236190979495
 70
   192
  0
VERTEX
  5
17D
330
179
100
AcDbEntity
  8
0
100
AcDbVertex
100
AcDbPolyFaceMeshVertex
 10
-7.999999999999979
 20
25.00000000000001
 30
12.49999999999999
 70
   192
  0
VERTEX
  5
17E
330
179
100
AcDbEntity
  8
0
100
AcDbFaceRecord
 10
0.0
 20
0.0
 30
0.0
 70
   128
 71
    -1
 72
     2
 73
     3
  0
VERTEX
  5
17F
330
179
100
AcDbEntity
  8
0
100
AcDbFaceRecord
 10
0.0
 20
0.0
 30
0.0
 70
   128
 71
    -2
 72
     1
 73
     4
  0
SEQEND
  5
180
330
179
100
AcDbEntity
  8
0
  0
POLYLINE
  5
181
330
1F
100
AcDbEntity
  8
0
100
AcDbPolyFaceMesh
 66
     1
 10
0.0
 20
0.0
 30
0.0
 70
    64
 71
     4
 72
     2
  0
VERTEX
  5
182
330
181
100
AcDbEntity
  8
0
100
AcDbVertex
100
AcDbPolyFaceMeshVertex
 10
-11.73205080756886
 20
24.0
 30
11.49999999999998
 70
   192
  0
VERTEX
  5
183
330
181
100
AcDbEntity
  8
0
100
AcDbVertex
100
AcDbPolyFaceMeshVertex
 10
-11.93185165257811
 20
24.99999999999998
 30
11.98236190979494
 70
   192
  0
VERTEX
  5
184
330
181
100
AcDbEntity
  8
0
100
AcDbVertex
100
AcDbPolyFaceMeshVertex
 10
-11.93185165257812
 20
24.0
 30
11.98236190979495
 70
   192
  0
VERTEX
  5
185
330
181
100
AcDbEntity
  8
0
100
AcDbVertex
100
AcDbPolyFaceMeshVertex
 10
-11.73205080756886
 20
24.99999999999999
 30
11.49999999999998
 70
   192
  0
VERTEX
  5
186
330
181
100
AcDbEntity
  8
0
100
AcDbFaceRecord
 10
0.0
 20
0.0
 30
0.0
 70
   128
 71
    -1
 72
     2
 73
     3
  0
VERTEX
  5
187
330
181
100
AcDbEntity
  8
0
100
AcDbFaceRecord
 10
0.0
 20
0.0
 30
0.0
 70
   128
 71
    -2
 72
     1
 73
     4
  0
SEQEND
  5
188
330
181
100
AcDbEntity
  8
0
  0
POLYLINE
  5
189
330
1F
100
AcDbEntity
  8
0
100
AcDbPolyFaceMesh
 66
     1
 10
0.0
 20
0.0
 30
0.0
 70
    64
 71
     4
 72
     2
  0
VERTEX
  5
18A
330
189
100
AcDbEntity
  8
0
100
AcDbVertex
100
AcDbPolyFaceMeshVertex
 10
-9.999999999999975
 20
23.99999999999999
 30
10.5
 70
   192
  0
VERTEX
  5
18B
330
189
100
AcDbEntity
  8
0
100
AcDbVertex
100
AcDbPolyFaceMeshVertex
 10
-10.51763809020502
 20
24.99999999999999
 30
10.56814834742186
 70
   192
  0
VERTEX
  5
18C
330
189
100
AcDbEntity
  8
0
100
AcDbVertex
100
AcDbPolyFaceMeshVertex
 10
-10.51763809020502
 20
23.99999999999998
 30
10.56814834742187
 70
   192
  0
VERTEX
  5
18D
330
189
100
AcDbEntity
  8
0
100
AcDbVertex
100
AcDbPolyFaceMeshVertex
 10
-9.99999999999998
 20
25.0
 30
10.5
 70
   192
  0
VERTEX
  5
18E
330
189
100
AcDbEntity
  8
0
100
AcDbFaceRecord
 10
0.0
 20
0.0
 30
0.0
 70
   128
 71
    -1
 72
     2
 73
     3
  0
VERTEX
  5
18F
330
189
100
AcDbEntity
  8
0
100
AcDbFaceRecord
 10
0.0
 20
0.0
 30
0.0
 70
   128
 71
    -2
 72
     1
 73
     4
  0
SEQEND
  5
190
330
189
100
AcDbEntity
  8
0
  0
POLYLINE
  5
191
330
1F
100
AcDbEntity
  8
0
100
AcDbPolyFaceMesh
 66
     1
 10
0.0
 20
0.0
 30
0.0
 70
    64
 71
     4
 72
     2
  0
VERTEX
  5
192
330
191
100
AcDbEntity
  8
0
100
AcDbVertex
100
AcDbPolyFaceMeshVertex
 10
-9.999999999999975
 20
23.99999999999999
 30
10.5
 70
   192
  0
VERTEX
  5
193
330
191
100
AcDbEntity
  8
0
100
AcDbVertex
100
AcDbPolyFaceMeshVertex
 10
-9.482361909794937
 20
24.99999999999999
 30
10.56814834742186
 70
   192
  0
VERTEX
  5
194
330
191
100
AcDbEntity
  8
0
100
AcDbVertex
100
AcDbPolyFaceMeshVertex
 10
-9.99999999999998
 20
25.0
 30
10.5
 70
   192
  0
VERTEX
  5
195
330
191
100
AcDbEntity
  8
0
100
AcDbVertex
100
AcDbPolyFaceMeshVertex
 10
-9.482361909794939
 20
23.99999999999998
 30
10.56814834742187
 70
   192
  0
VERTEX
  5
196
330
191
100
AcDbEntity
  8
0
100
AcDbFaceRecord
 10
0.0
 20
0.0
 30
0.0
 70
   128
 71
    -1
 72
     2
 73
     3
  0
VERTEX
  5
197
330
191
100
AcDbEntity
  8
0
100
AcDbFaceRecord
 10
0.0
 20
0.0
 30
0.0
 70
   128
 71
    -2
 72
     1
 73
     4
  0
SEQEND
  5
198
330
191
100
AcDbEntity
  8
0
  0
POLYLINE
  5
199
330
1F
100
AcDbEntity
  8
0
100
AcDbPolyFaceMesh
 66
     1
 10
0.0
 20
0.0
 30
0.0
 70
    64
 71
     4
 72
     2
  0
VERTEX
  5
19A
330
199
100
AcDbEntity
  8
0
100
AcDbVertex
100
AcDbPolyFaceMeshVertex
 10
-9.482361909794935
 20
25.0
 30
14.43185165257809
 70
   192
  0
VERTEX
  5
19B
330
199
100
AcDbEntity
  8
0
100
AcDbVertex
100
AcDbPolyFaceMeshVertex
 10
-8.999999999999984
 20
23.99999999999999
 30
14.23205080756885
 70
   192
  0
VERTEX
  5
19C
330
199
100
AcDbEntity
  8
0
100
AcDbVertex
100
AcDbPolyFaceMeshVertex
 10
-9.482361909794944
 20
23.99999999999999
 30
14.43185165257812
 70
   192
  0
VERTEX
  5
19D
330
199
100
AcDbEntity
  8
0
100
AcDbVertex
100
AcDbPolyFaceMeshVertex
 10
-8.999999999999982
 20
25.00000000000001
 30
14.23205080756884
 70
   192
  0
VERTEX
  5
19E
330
199
100
AcDbEntity
  8
0
100
AcDbFaceRecord
 10
0.0
 20
0.0
 30
0.0
 70
   128
 71
    -1
 72
     2
 73
     3
  0
VERTEX
  5
19F
330
199
100
AcDbEntity
  8
0
100
AcDbFaceRecord
 10
0.0
 20
0.0
 30
0.0
 70
   128
 71
    -2
 72
     1
 73
     4
  0
SEQEND
  5
1A0
330
199
100
AcDbEntity
  8
0
  0
POLYLINE
  5
1A1
330
1F
100
AcDbEntity
  8
0
100
AcDbPolyFaceMesh
 66
     1
 10
0.0
 20
0.0
 30
0.0
 70
    64
 71
     4
 72
     2
  0
VERTEX
  5
1A2
330
1A1
100
AcDbEntity
  8
0
100
AcDbVertex
100
AcDbPolyFaceMeshVertex
 10
-8.999999999999982
 20
25.00000000000001
 30
14.23205080756884
 70
   192
  0
VERTEX
  5
1A3
330
1A1
100
AcDbEntity
  8
0
100
AcDbVertex
100
AcDbPolyFaceMeshVertex
 10
-8.585786437626888
 20
24.0
 30
13.91421356237308
 70
   192
  0
VERTEX
  5
1A4
330
1A1
100
AcDbEntity
  8
0
100
AcDbVertex
100
AcDbPolyFaceMeshVertex
 10
-8.999999999999984
 20
23.99999999999999
 30
14.23205080756885
 70
   192
  0
VERTEX
  5
1A5
330
1A1
100
AcDbEntity
  8
0
100
AcDbVertex
100
AcDbPolyFaceMeshVertex
 10
-8.585786437626885
 20
24.99999999999999
 30
13.91421356237307
 70
   192
  0
VERTEX
  5
1A6
330
1A1
100
AcDbEntity
  8
0
100
AcDbFaceRecord
 10
0.0
 20
0.0
 30
0.0
 70
   128
 71
    -1
 72
     2
 73
     3
  0
VERTEX
  5
1A7
330
1A1
100
AcDbEntity
  8
0
100
AcDbFaceRecord
 10
0.0
 20
0.0
 30
0.0
 70
   128
 71
    -2
 72
     1
 73
     4
  0
SEQEND
  5
1A8
330
1A1
100
AcDbEntity
  8
0
  0
POLYLINE
  5
1A9
330
1F
100
AcDbEntity
  8
0
100
AcDbPolyFaceMesh
 66
     1
 10
0.0
 20
0.0
 30
0.0
 70
    64
 71
     4
 72
     2
  0
VERTEX
  5
1AA
330
1A9
100
AcDbEntity
  8
0
100
AcDbVertex
100
AcDbPolyFaceMeshVertex
 10
-8.068148347421847
 20
23.99999999999999
 30
11.98236190979495
 70
   192
  0
VERTEX
  5
1AB
330
1A9
100
AcDbEntity
  8
0
100
AcDbVertex
100
AcDbPolyFaceMeshVertex
 10
-8.267949192431097
 20
24.99999999999998
 30
11.49999999999998
 70
   192
  0
VERTEX
  5
1AC
330
1A9
100
AcDbEntity
  8
0
100
AcDbVertex
100
AcDbPolyFaceMeshVertex
 10
-8.267949192431105
 20
23.99999999999999
 30
11.49999999999998
 70
   192
  0
VERTEX
  5
1AD
330
1A9
100
AcDbEntity
  8
0
100
AcDbVertex
100
AcDbPolyFaceMeshVertex
 10
-8.068148347421845
 20
24.99999999999998
 30
11.98236190979494
 70
   192
  0
VERTEX
  5
1AE
330
1A9
100
AcDbEntity
  8
0
100
AcDbFaceRecord
 10
0.0
 20
0.0
 30
0.0
 70
   128
 71
    -1
 72
     2
 73
     3
  0
VERTEX
  5
1AF
330
1A9
100
AcDbEntity
  8
0
100
AcDbFaceRecord
 10
0.0
 20
0.0
 30
0.0
 70
   128
 71
    -2
 72
     1
 73
     4
  0
SEQEND
  5
1B0
330
1A9
100
AcDbEntity
  8
0
  0
POLYLINE
  5
1B1
330
1F
100
AcDbEntity
  8
0
100
AcDbPolyFaceMesh
 66
     1
 10
0.0
 20
0.0
 30
0.0
 70
    64
 71
    28
 72
    28
  0
VERTEX
  5
1B2
330
1B1
100
AcDbEntity
  8
0
100
AcDbVertex
100
AcDbPolyFaceMeshVertex
 10
0.0000000000000169
 20
23.99999999999999
 30
0.9999999999999999
 70
   192
  0
VERTEX
  5
1B3
330
1B1
100
AcDbEntity
  8
0
100
AcDbVertex
100
AcDbPolyFaceMeshVertex
 10
-8.585786437626888
 20
23.99999999999999
 30
11.0857864376269
 70
   192
  0
VERTEX
  5
1B4
330
1B1
100
AcDbEntity
  8
0
100
AcDbVertex
100
AcDbPolyFaceMeshVertex
 10
-19.99999999999999
 20
23.99999999999999
 30
1.000000000000003
 70
   192
  0
VERTEX
  5
1B5
330
1B1
100
AcDbEntity
  8
0
100
AcDbVertex
100
AcDbPolyFaceMeshVertex
 10
-8.267949192431105
 20
23.99999999999999
 30
11.49999999999998
 70
   192
  0
VERTEX
  5
1B6
330
1B1
100
AcDbEntity
  8
0
100
AcDbVertex
100
AcDbPolyFaceMeshVertex
 10
0.0000000000000148
 20
24.0
 30
24.99999999999998
 70
   192
  0
VERTEX
  5
1B7
330
1B1
100
AcDbEntity
  8
0
100
AcDbVertex
100
AcDbPolyFaceMeshVertex
 10
-8.999999999999979
 20
23.99999999999999
 30
10.76794919243113
 70
   192
  0
VERTEX
  5
1B8
330
1B1
100
AcDbEntity
  8
0
100
AcDbVertex
100
AcDbPolyFaceMeshVertex
 10
-9.482361909794939
 20
23.99999999999998
 30
10.56814834742187
 70
   192
  0
VERTEX
  5
1B9
330
1B1
100
AcDbEntity
  8
0
100
AcDbVertex
100
AcDbPolyFaceMeshVertex
 10
-9.999999999999975
 20
23.99999999999999
 30
10.5
 70
   192
  0
VERTEX
  5
1BA
330
1B1
100
AcDbEntity
  8
0
100
AcDbVertex
100
AcDbPolyFaceMeshVertex
 10
-8.068148347421847
 20
23.99999999999999
 30
11.98236190979495
 70
   192
  0
VERTEX
  5
1BB
330
1B1
100
AcDbEntity
  8
0
100
AcDbVertex
100
AcDbPolyFaceMeshVertex
 10
-7.999999999999985
 20
24.00000000000001
 30
12.49999999999998
 70
   192
  0
VERTEX
  5
1BC
330
1B1
100
AcDbEntity
  8
0
100
AcDbVertex
100
AcDbPolyFaceMeshVertex
 10
-8.068148347421847
 20
24.0
 30
13.017638090205
 70
   192
  0
VERTEX
  5
1BD
330
1B1
100
AcDbEntity
  8
0
100
AcDbVertex
100
AcDbPolyFaceMeshVertex
 10
-8.267949192431107
 20
23.99999999999998
 30
13.49999999999999
 70
   192
  0
VERTEX
  5
1BE
330
1B1
100
AcDbEntity
  8
0
100
AcDbVertex
100
AcDbPolyFaceMeshVertex
 10
-8.585786437626888
 20
24.0
 30
13.91421356237308
 70
   192
  0
VERTEX
  5
1BF
330
1B1
100
AcDbEntity
  8
0
100
AcDbVertex
100
AcDbPolyFaceMeshVertex
 10
-8.999999999999984
 20
23.99999999999999
 30
14.23205080756885
 70
   192
  0
VERTEX
  5
1C0
330
1B1
100
AcDbEntity
  8
0
100
AcDbVertex
100
AcDbPolyFaceMeshVertex
 10
-9.482361909794944
 20
23.99999999999999
 30
14.43185165257812
 70
   192
  0
VERTEX
  5
1C1
330
1B1
100
AcDbEntity
  8
0
100
AcDbVertex
100
AcDbPolyFaceMeshVertex
 10
-9.999999999999975
 20
24.0
 30
14.49999999999998
 70
   192
  0
VERTEX
  5
1C2
330
1B1
100
AcDbEntity
  8
0
100
AcDbVertex
100
AcDbPolyFaceMeshVertex
 10
-11.73205080756886
 20
24.0
 30
11.49999999999998
 70
   192
  0
VERTEX
  5
1C3
330
1B1
100
AcDbEntity
  8
0
100
AcDbVertex
100
AcDbPolyFaceMeshVertex
 10
-19.99999999999999
 20
24.00000000000001
 30
24.99999999999998
 70
   192
  0
VERTEX
  5
1C4
330
1B1
100
AcDbEntity
  8
0
100
AcDbVertex
100
AcDbPolyFaceMeshVertex
 10
-11.41421356237308
 20
24.0
 30
11.0857864376269
 70
   192
  0
VERTEX
  5
1C5
330
1B1
100
AcDbEntity
  8
0
100
AcDbVertex
100
AcDbPolyFaceMeshVertex
 10
-10.99999999999998
 20
24.0
 30
10.76794919243113
 70
   192
  0
VERTEX
  5
1C6
330
1B1
100
AcDbEntity
  8
0
100
AcDbVertex
100
AcDbPolyFaceMeshVertex
 10
-10.51763809020502
 20
23.99999999999998
 30
10.56814834742187
 70
   192
  0
VERTEX
  5
1C7
330
1B1
100
AcDbEntity
  8
0
100
AcDbVertex
100
AcDbPolyFaceMeshVertex
 10
-11.93185165257812
 20
24.0
 30
11.98236190979495
 70
   192
  0
VERTEX
  5
1C8
330
1B1
100
AcDbEntity
  8
0
100
AcDbVertex
100
AcDbPolyFaceMeshVertex
 10
-11.99999999999998
 20
24.00000000000001
 30
12.49999999999998
 70
   192
  0
VERTEX
  5
1C9
330
1B1
100
AcDbEntity
  8
0
100
AcDbVertex
100
AcDbPolyFaceMeshVertex
 10
-11.93185165257812
 20
24.00000000000001
 30
13.017638090205
 70
   192
  0
VERTEX
  5
1CA
330
1B1
100
AcDbEntity
  8
0
100
AcDbVertex
100
AcDbPolyFaceMeshVertex
 10
-11.73205080756886
 20
23.99999999999999
 30
13.49999999999998
 70
   192
  0
VERTEX
  5
1CB
330
1B1
100
AcDbEntity
  8
0
100
AcDbVertex
100
AcDbPolyFaceMeshVertex
 10
-11.41421356237308
 20
24.0
 30
13.91421356237308
 70
   192
  0
VERTEX
  5
1CC
330
1B1
100
AcDbEntity
  8
0
100
AcDbVertex
100
AcDbPolyFaceMeshVertex
 10
-10.99999999999998
 20
24.0
 30
14.23205080756885
 70
   192
  0
VERTEX
  5
1CD
330
1B1
100
AcDbEntity
  8
0
100
AcDbVertex
100
AcDbPolyFaceMeshVertex
 10
-10.51763809020502
 20
24.0
 30
14.43185165257812
 70
   192
  0
VERTEX
  5
1CE
330
1B1
100
AcDbEntity
  8
0
100
AcDbFaceRecord
 10
0.0
 20
0.0
 30
0.0
 70
   128
 71
    -1
 72
    -2
 73
     3
  0
VERTEX
  5
1CF
330
1B1
100
AcDbEntity
  8
0
100
AcDbFaceRecord
 10
0.0
 20
0.0
 30
0.0
 70
   128
 71
    -2
 72
    -1
 73
     4
  0
VERTEX
  5
1D0
330
1B1
100
AcDbEntity
  8
0
100
AcDbFaceRecord
 10
0.0
 20
0.0
 30
0.0
 70
   128
 71
    -4
 72
     1
 73
    -5
  0
VERTEX
  5
1D1
330
1B1
100
AcDbEntity
  8
0
100
AcDbFaceRecord
 10
0.0
 20
0.0
 30
0.0
 70
   128
 71
    -3
 72
     2
 73
    -6
  0
VERTEX
  5
1D2
330
1B1
100
AcDbEntity
  8
0
100
AcDbFaceRecord
 10
0.0
 20
0.0
 30
0.0
 70
   128
 71
    -3
 72
     6
 73
    -7
  0
VERTEX
  5
1D3
330
1B1
100
AcDbEntity
  8
0
100
AcDbFaceRecord
 10
0.0
 20
0.0
 30
0.0
 70
   128
 71
    -3
 72
     7
 73
    -8
  0
VERTEX
  5
1D4
330
1B1
100
AcDbEntity
  8
0
100
AcDbFaceRecord
 10
0.0
 20
0.0
 30
0.0
 70
   128
 71
    -4
 72
    -5
 73
     9
  0
VERTEX
  5
1D5
330
1B1
100
AcDbEntity
  8
0
100
AcDbFaceRecord
 10
0.0
 20
0.0
 30
0.0
 70
   128
 71
    -9
 72
    -5
 73
    10
  0
VERTEX
  5
1D6
330
1B1
100
AcDbEntity
  8
0
100
AcDbFaceRecord
 10
0.0
 20
0.0
 30
0.0
 70
   128
 71
   -10
 72
    -5
 73
    11
  0
VERTEX
  5
1D7
330
1B1
100
AcDbEntity
  8
0
100
AcDbFaceRecord
 10
0.0
 20
0.0
 30
0.0
 70
   128
 71
   -11
 72
    -5
 73
    12
  0
VERTEX
  5
1D8
330
1B1
100
AcDbEntity
  8
0
100
AcDbFaceRecord
 10
0.0
 20
0.0
 30
0.0
 70
   128
 71
   -12
 72
    -5
 73
    13
  0
VERTEX
  5
1D9
330
1B1
100
AcDbEntity
  8
0
100
AcDbFaceRecord
 10
0.0
 20
0.0
 30
0.0
 70
   128
 71
   -13
 72
    -5
 73
    14
  0
VERTEX
  5
1DA
330
1B1
100
AcDbEntity
  8
0
100
AcDbFaceRecord
 10
0.0
 20
0.0
 30
0.0
 70
   128
 71
   -14
 72
    -5
 73
    15
  0
VERTEX
  5
1DB
330
1B1
100
AcDbEntity
  8
0
100
AcDbFaceRecord
 10
0.0
 20
0.0
 30
0.0
 70
   128
 71
   -15
 72
    -5
 73
    16
  0
VERTEX
  5
1DC
330
1B1
100
AcDbEntity
  8
0
100
AcDbFaceRecord
 10
0.0
 20
0.0
 30
0.0
 70
   128
 71
    -3
 72
   -17
 73
    18
  0
VERTEX
  5
1DD
330
1B1
100
AcDbEntity
  8
0
100
AcDbFaceRecord
 10
0.0
 20
0.0
 30
0.0
 70
   128
 71
   -17
 72
    -3
 73
    19
  0
VERTEX
  5
1DE
330
1B1
100
AcDbEntity
  8
0
100
AcDbFaceRecord
 10
0.0
 20
0.0
 30
0.0
 70
   128
 71
   -19
 72
    -3
 73
    20
  0
VERTEX
  5
1DF
330
1B1
100
AcDbEntity
  8
0
100
AcDbFaceRecord
 10
0.0
 20
0.0
 30
0.0
 70
   128
 71
   -20
 72
    -3
 73
    21
  0
VERTEX
  5
1E0
330
1B1
100
AcDbEntity
  8
0
100
AcDbFaceRecord
 10
0.0
 20
0.0
 30
0.0
 70
   128
 71
   -21
 72
    -3
 73
     8
  0
VERTEX
  5
1E1
330
1B1
100
AcDbEntity
  8
0
100
AcDbFaceRecord
 10
0.0
 20
0.0
 30
0.0
 70
   128
 71
   -18
 72
    17
 73
   -22
  0
VERTEX
  5
1E2
330
1B1
100
AcDbEntity
  8
0
100
AcDbFaceRecord
 10
0.0
 20
0.0
 30
0.0
 70
   128
 71
   -18
 72
    22
 73
   -23
  0
VERTEX
  5
1E3
330
1B1
100
AcDbEntity
  8
0
100
AcDbFaceRecord
 10
0.0
 20
0.0
 30
0.0
 70
   128
 71
   -18
 72
    23
 73
   -24
  0
VERTEX
  5
1E4
330
1B1
100
AcDbEntity
  8
0
100
AcDbFaceRecord
 10
0.0
 20
0.0
 30
0.0
 70
   128
 71
   -18
 72
    24
 73
   -25
  0
VERTEX
  5
1E5
330
1B1
100
AcDbEntity
  8
0
100
AcDbFaceRecord
 10
0.0
 20
0.0
 30
0.0
 70
   128
 71
   -18
 72
    25
 73
   -26
  0
VERTEX
  5
1E6
330
1B1
100
AcDbEntity
  8
0
100
AcDbFaceRecord
 10
0.0
 20
0.0
 30
0.0
 70
   128
 71
   -18
 72
    26
 73
   -27
  0
VERTEX
  5
1E7
330
1B1
100
AcDbEntity
  8
0
100
AcDbFaceRecord
 10
0.0
 20
0.0
 30
0.0
 70
   128
 71
   -18
 72
    27
 73
   -28
  0
VERTEX
  5
1E8
330
1B1
100
AcDbEntity
  8
0
100
AcDbFaceRecord
 10
0.0
 20
0.0
 30
0.0
 70
   128
 71
   -18
 72
    28
 73
   -16
  0
VERTEX
  5
1E9
330
1B1
100
AcDbEntity
  8
0
100
AcDbFaceRecord
 10
0.0
 20
0.0
 30
0.0
 70
   128
 71
   -18
 72
   -16
 73
     5
  0
SEQEND
  5
1EA
330
1B1
100
AcDbEntity
  8
0
  0
POLYLINE
  5
1EB
330
1F
100
AcDbEntity
  8
0
100
AcDbPolyFaceMesh
 66
     1
 10
0.0
 20
0.0
 30
0.0
 70
    64
 71
     6
 72
     4
  0
VERTEX
  5
1EC
330
1EB
100
AcDbEntity
  8
0
100
AcDbVertex
100
AcDbPolyFaceMeshVertex
 10
-19.99999999999999
 20
23.99999999999999
 30
1.000000000000003
 70
   192
  0
VERTEX
  5
1ED
330
1EB
100
AcDbEntity
  8
0
100
AcDbVertex
100
AcDbPolyFaceMeshVertex
 10
-19.99999999999999
 20
-0.0000000000000007
 30
0.0
 70
   192
  0
VERTEX
  5
1EE
330
1EB
100
AcDbEntity
  8
0
100
AcDbVertex
100
AcDbPolyFaceMeshVertex
 10
-19.99999999999999
 20
-0.0000000000000007
 30
0.9999999999999999
 70
   192
  0
VERTEX
  5
1EF
330
1EB
100
AcDbEntity
  8
0
100
AcDbVertex
100
AcDbPolyFaceMeshVertex
 10
-19.99999999999999
 20
25.0
 30
0.0
 70
   192
  0
VERTEX
  5
1F0
330
1EB
100
AcDbEntity
  8
0
100
AcDbVertex
100
AcDbPolyFaceMeshVertex
 10
-19.99999999999999
 20
24.00000000000001
 30
24.99999999999998
 70
   192
  0
VERTEX
  5
1F1
330
1EB
100
AcDbEntity
  8
0
100
AcDbVertex
100
AcDbPolyFaceMeshVertex
 10
-19.99999999999998
 20
25.00000000000002
 30
24.99999999999999
 70
   192
  0
VERTEX
  5
1F2
330
1EB
100
AcDbEntity
  8
0
100
AcDbFaceRecord
 10
0.0
 20
0.0
 30
0.0
 70
   128
 71
    -1
 72
     2
 73
     3
  0
VERTEX
  5
1F3
330
1EB
100
AcDbEntity
  8
0
100
AcDbFaceRecord
 10
0.0
 20
0.0
 30
0.0
 70
   128
 71
    -2
 72
    -1
 73
     4
  0
VERTEX
  5
1F4
330
1EB
100
AcDbEntity
  8
0
100
AcDbFaceRecord
 10
0.0
 20
0.0
 30
0.0
 70
   128
 71
    -4
 72
     1
 73
    -5
  0
VERTEX
  5
1F5
330
1EB
100
AcDbEntity
  8
0
100
AcDbFaceRecord
 10
0.0
 20
0.0
 30
0.0
 70
   128
 71
    -4
 72
     5
 73
     6
  0
SEQEND
  5
1F6
330
1EB
100
AcDbEntity
  8
0
  0
POLYLINE
  5
1F7
330
1F
100
AcDbEntity
  8
0
100
AcDbPolyFaceMesh
 66
     1
 10
0.0
 20
0.0
 30
0.0
 70
    64
 71
     4
 72
     2
  0
VERTEX
  5
1F8
330
1F7
100
AcDbEntity
  8
0
100
AcDbVertex
100
AcDbPolyFaceMeshVertex
 10
-11.41421356237308
 20
13.91421356237309
 30
0.0
 70
   192
  0
VERTEX
  5
1F9
330
1F7
100
AcDbEntity
  8
0
100
AcDbVertex
100
AcDbPolyFaceMeshVertex
 10
-11.73205080756887
 20
13.49999999999999
 30
0.9999999999999999
 70
   192
  0
VERTEX
  5
1FA
330
1F7
100
AcDbEntity
  8
0
100
AcDbVertex
100
AcDbPolyFaceMeshVertex
 10
-11.73205080756887
 20
13.49999999999999
 30
0.0
 70
   192
  0
VERTEX
  5
1FB
330
1F7
100
AcDbEntity
  8
0
100
AcDbVertex
100
AcDbPolyFaceMeshVertex
 10
-11.41421356237308
 20
13.91421356237309
 30
0.9999999999999999
 70
   192
  0
VERTEX
  5
1FC
330
1F7
100
AcDbEntity
  8
0
100
AcDbFaceRecord
 10
0.0
 20
0.0
 30
0.0
 70
   128
 71
    -1
 72
     2
 73
     3
  0
VERTEX
  5
1FD
330
1F7
100
AcDbEntity
  8
0
100
AcDbFaceRecord
 10
0.0
 20
0.0
 30
0.0
 70
   128
 71
    -2
 72
     1
 73
     4
  0
SEQEND
  5
1FE
330
1F7
100
AcDbEntity
  8
0
  0
POLYLINE
  5
1FF
330
1F
100
AcDbEntity
  8
0
100
AcDbPolyFaceMesh
 66
     1
 10
0.0
 20
0.0
 30
0.0
 70
    64
 71
     4
 72
     2
  0
VERTEX
  5
200
330
1FF
100
AcDbEntity
  8
0
100
AcDbVertex
100
AcDbPolyFaceMeshVertex
 10
-10.99999999999999
 20
10.76794919243112
 30
0.9999999999999999
 70
   192
  0
VERTEX
  5
201
330
1FF
100
AcDbEntity
  8
0
100
AcDbVertex
100
AcDbPolyFaceMeshVertex
 10
-10.51763809020503
 20
10.56814834742186
 30
0.0
 70
   192
  0
VERTEX
  5
202
330
1FF
100
AcDbEntity
  8
0
100
AcDbVertex
100
AcDbPolyFaceMeshVertex
 10
-10.99999999999999
 20
10.76794919243112
 30
0.0
 70
   192
  0
VERTEX
  5
203
330
1FF
100
AcDbEntity
  8
0
100
AcDbVertex
100
AcDbPolyFaceMeshVertex
 10
-10.51763809020503
 20
10.56814834742186
 30
0.9999999999999999
 70
   192
  0
VERTEX
  5
204
330
1FF
100
AcDbEntity
  8
0
100
AcDbFaceRecord
 10
0.0
 20
0.0
 30
0.0
 70
   128
 71
    -1
 72
     2
 73
     3
  0
VERTEX
  5
205
330
1FF
100
AcDbEntity
  8
0
100
AcDbFaceRecord
 10
0.0
 20
0.0
 30
0.0
 70
   128
 71
    -2
 72
     1
 73
     4
  0
SEQEND
  5
206
330
1FF
100
AcDbEntity
  8
0
  0
POLYLINE
  5
207
330
1F
100
AcDbEntity
  8
0
100
AcDbPolyFaceMesh
 66
     1
 10
0.0
 20
0.0
 30
0.0
 70
    64
 71
     4
 72
     2
  0
VERTEX
  5
208
330
207
100
AcDbEntity
  8
0
100
AcDbVertex
100
AcDbPolyFaceMeshVertex
 10
-9.48236190979495
 20
10.56814834742186
 30
0.9999999999999999
 70
   192
  0
VERTEX
  5
209
330
207
100
AcDbEntity
  8
0
100
AcDbVertex
100
AcDbPolyFaceMeshVertex
 10
-8.999999999999991
 20
10.76794919243112
 30
0.0
 70
   192
  0
VERTEX
  5
20A
330
207
100
AcDbEntity
  8
0
100
AcDbVertex
100
AcDbPolyFaceMeshVertex
 10
-9.48236190979495
 20
10.56814834742186
 30
0.0
 70
   192
  0
VERTEX
  5
20B
330
207
100
AcDbEntity
  8
0
100
AcDbVertex
100
AcDbPolyFaceMeshVertex
 10
-8.999999999999991
 20
10.76794919243112
 30
0.9999999999999999
 70
   192
  0
VERTEX
  5
20C
330
207
100
AcDbEntity
  8
0
100
AcDbFaceRecord
 10
0.0
 20
0.0
 30
0.0
 70
   128
 71
    -1
 72
     2
 73
     3
  0
VERTEX
  5
20D
330
207
100
AcDbEntity
  8
0
100
AcDbFaceRecord
 10
0.0
 20
0.0
 30
0.0
 70
   128
 71
    -2
 72
     1
 73
     4
  0
SEQEND
  5
20E
330
207
100
AcDbEntity
  8
0
  0
POLYLINE
  5
20F
330
1F
100
AcDbEntity
  8
0
100
AcDbPolyFaceMesh
 66
     1
 10
0.0
 20
0.0
 30
0.0
 70
    64
 71
     4
 72
     2
  0
VERTEX
  5
210
330
20F
100
AcDbEntity
  8
0
100
AcDbVertex
100
AcDbPolyFaceMeshVertex
 10
-11.41421356237307
 20
25.00000000000001
 30
13.91421356237307
 70
   192
  0
VERTEX
  5
211
330
20F
100
AcDbEntity
  8
0
100
AcDbVertex
100
AcDbPolyFaceMeshVertex
 10
-10.99999999999998
 20
24.0
 30
14.23205080756885
 70
   192
  0
VERTEX
  5
212
330
20F
100
AcDbEntity
  8
0
100
AcDbVertex
100
AcDbPolyFaceMeshVertex
 10
-11.41421356237308
 20
24.0
 30
13.91421356237308
 70
   192
  0
VERTEX
  5
213
330
20F
100
AcDbEntity
  8
0
100
AcDbVertex
100
AcDbPolyFaceMeshVertex
 10
-10.99999999999998
 20
25.00000000000002
 30
14.23205080756884
 70
   192
  0
VERTEX
  5
214
330
20F
100
AcDbEntity
  8
0
100
AcDbFaceRecord
 10
0.0
 20
0.0
 30
0.0
 70
   128
 71
    -1
 72
     2
 73
     3
  0
VERTEX
  5
215
330
20F
100
AcDbEntity
  8
0
100
AcDbFaceRecord
 10
0.0
 20
0.0
 30
0.0
 70
   128
 71
    -2
 72
     1
 73
     4
  0
SEQEND
  5
216
330
20F
100
AcDbEntity
  8
0
  0
POLYLINE
  5
217
330
1F
100
AcDbEntity
  8
0
100
AcDbPolyFaceMesh
 66
     1
 10
0.0
 20
0.0
 30
0.0
 70
    64
 71
     4
 72
     2
  0
VERTEX
  5
218
330
217
100
AcDbEntity
  8
0
100
AcDbVertex
100
AcDbPolyFaceMeshVertex
 10
-10.99999999999998
 20
25.00000000000002
 30
14.23205080756884
 70
   192
  0
VERTEX
  5
219
330
217
100
AcDbEntity
  8
0
100
AcDbVertex
100
AcDbPolyFaceMeshVertex
 10
-10.51763809020502
 20
24.0
 30
14.43185165257812
 70
   192
  0
VERTEX
  5
21A
330
217
100
AcDbEntity
  8
0
100
AcDbVertex
100
AcDbPolyFaceMeshVertex
 10
-10.99999999999998
 20
24.0
 30
14.23205080756885
 70
   192
  0
VERTEX
  5
21B
330
217
100
AcDbEntity
  8
0
100
AcDbVertex
100
AcDbPolyFaceMeshVertex
 10
-10.51763809020503
 20
25.0
 30
14.43185165257809
 70
   192
  0
VERTEX
  5
21C
330
217
100
AcDbEntity
  8
0
100
AcDbFaceRecord
 10
0.0
 20
0.0
 30
0.0
 70
   128
 71
    -1
 72
     2
 73
     3
  0
VERTEX
  5
21D
330
217
100
AcDbEntity
  8
0
100
AcDbFaceRecord
 10
0.0
 20
0.0
 30
0.0
 70
   128
 71
    -2
 72
     1
 73
     4
  0
SEQEND
  5
21E
330
217
100
AcDbEntity
  8
0
  0
POLYLINE
  5
21F
330
1F
100
AcDbEntity
  8
0
100
AcDbPolyFaceMesh
 66
     1
 10
0.0
 20
0.0
 30
0.0
 70
    64
 71
     4
 72
     2
  0
VERTEX
  5
220
330
21F
100
AcDbEntity
  8
0
100
AcDbVertex
100
AcDbPolyFaceMeshVertex
 10
-8.999999999999979
 20
23.99999999999999
 30
10.76794919243113
 70
   192
  0
VERTEX
  5
221
330
21F
100
AcDbEntity
  8
0
100
AcDbVertex
100
AcDbPolyFaceMeshVertex
 10
-9.482361909794937
 20
24.99999999999999
 30
10.56814834742186
 70
   192
  0
VERTEX
  5
222
330
21F
100
AcDbEntity
  8
0
100
AcDbVertex
100
AcDbPolyFaceMeshVertex
 10
-9.482361909794939
 20
23.99999999999998
 30
10.56814834742187
 70
   192
  0
VERTEX
  5
223
330
21F
100
AcDbEntity
  8
0
100
AcDbVertex
100
AcDbPolyFaceMeshVertex
 10
-8.999999999999979
 20
25.0
 30
10.76794919243113
 70
   192
  0
VERTEX
  5
224
330
21F
100
AcDbEntity
  8
0
100
AcDbFaceRecord
 10
0.0
 20
0.0
 30
0.0
 70
   128
 71
    -1
 72
     2
 73
     3
  0
VERTEX
  5
225
330
21F
100
AcDbEntity
  8
0
100
AcDbFaceRecord
 10
0.0
 20
0.0
 30
0.0
 70
   128
 71
    -2
 72
     1
 73
     4
  0
SEQEND
  5
226
330
21F
100
AcDbEntity
  8
0
  0
POLYLINE
  5
227
330
1F
100
AcDbEntity
  8
0
100
AcDbPolyFaceMesh
 66
     1
 10
0.0
 20
0.0
 30
0.0
 70
    64
 71
     4
 72
     2
  0
VERTEX
  5
228
330
227
100
AcDbEntity
  8
0
100
AcDbVertex
100
AcDbPolyFaceMeshVertex
 10
-8.585786437626894
 20
13.91421356237309
 30
0.9999999999999999
 70
   192
  0
VERTEX
  5
229
330
227
100
AcDbEntity
  8
0
100
AcDbVertex
100
AcDbPolyFaceMeshVertex
 10
-8.999999999999988
 20
14.23205080756888
 30
0.0
 70
   192
  0
VERTEX
  5
22A
330
227
100
AcDbEntity
  8
0
100
AcDbVertex
100
AcDbPolyFaceMeshVertex
 10
-8.585786437626894
 20
13.91421356237309
 30
0.0
 70
   192
  0
VERTEX
  5
22B
330
227
100
AcDbEntity
  8
0
100
AcDbVertex
100
AcDbPolyFaceMeshVertex
 10
-8.999999999999988
 20
14.23205080756888
 30
0.9999999999999999
 70
   192
  0
VERTEX
  5
22C
330
227
100
AcDbEntity
  8
0
100
AcDbFaceRecord
 10
0.0
 20
0.0
 30
0.0
 70
   128
 71
    -1
 72
     2
 73
     3
  0
VERTEX
  5
22D
330
227
100
AcDbEntity
  8
0
100
AcDbFaceRecord
 10
0.0
 20
0.0
 30
0.0
 70
   128
 71
    -2
 72
     1
 73
     4
  0
SEQEND
  5
22E
330
227
100
AcDbEntity
  8
0
  0
POLYLINE
  5
22F
330
1F
100
AcDbEntity
  8
0
100
AcDbPolyFaceMesh
 66
     1
 10
0.0
 20
0.0
 30
0.0
 70
    64
 71
    28
 72
    28
  0
VERTEX
  5
230
330
22F
100
AcDbEntity
  8
0
100
AcDbVertex
100
AcDbPolyFaceMeshVertex
 10
-19.99999999999999
 20
-0.0000000000000007
 30
0.9999999999999999
 70
   192
  0
VERTEX
  5
231
330
22F
100
AcDbEntity
  8
0
100
AcDbVertex
100
AcDbPolyFaceMeshVertex
 10
-11.93185165257812
 20
11.98236190979495
 30
0.9999999999999999
 70
   192
  0
VERTEX
  5
232
330
22F
100
AcDbEntity
  8
0
100
AcDbVertex
100
AcDbPolyFaceMeshVertex
 10
-11.99999999999999
 20
12.49999999999999
 30
0.9999999999999999
 70
   192
  0
VERTEX
  5
233
330
22F
100
AcDbEntity
  8
0
100
AcDbVertex
100
AcDbPolyFaceMeshVertex
 10
-11.73205080756886
 20
11.5
 30
0.9999999999999999
 70
   192
  0
VERTEX
  5
234
330
22F
100
AcDbEntity
  8
0
100
AcDbVertex
100
AcDbPolyFaceMeshVertex
 10
-11.41421356237309
 20
11.0857864376269
 30
0.9999999999999999
 70
   192
  0
VERTEX
  5
235
330
22F
100
AcDbEntity
  8
0
100
AcDbVertex
100
AcDbPolyFaceMeshVertex
 10
0.0
 20
0.0
 30
0.9999999999999999
 70
   192
  0
VERTEX
  5
236
330
22F
100
AcDbEntity
  8
0
100
AcDbVertex
100
AcDbPolyFaceMeshVertex
 10
-10.99999999999999
 20
10.76794919243112
 30
0.9999999999999999
 70
   192
  0
VERTEX
  5
237
330
22F
100
AcDbEntity
  8
0
100
AcDbVertex
100
AcDbPolyFaceMeshVertex
 10
-10.51763809020503
 20
10.56814834742186
 30
0.9999999999999999
 70
   192
  0
VERTEX
  5
238
330
22F
100
AcDbEntity
  8
0
100
AcDbVertex
100
AcDbPolyFaceMeshVertex
 10
-9.99999999999999
 20
10.5
 30
0.9999999999999999
 70
   192
  0
VERTEX
  5
239
330
22F
100
AcDbEntity
  8
0
100
AcDbVertex
100
AcDbPolyFaceMeshVertex
 10
-9.48236190979495
 20
10.56814834742186
 30
0.9999999999999999
 70
   192
  0
VERTEX
  5
23A
330
22F
100
AcDbEntity
  8
0
100
AcDbVertex
100
AcDbPolyFaceMeshVertex
 10
-8.999999999999991
 20
10.76794919243112
 30
0.9999999999999999
 70
   192
  0
VERTEX
  5
23B
330
22F
100
AcDbEntity
  8
0
100
AcDbVertex
100
AcDbPolyFaceMeshVertex
 10
-8.585786437626895
 20
11.08578643762691
 30
0.9999999999999999
 70
   192
  0
VERTEX
  5
23C
330
22F
100
AcDbEntity
  8
0
100
AcDbVertex
100
AcDbPolyFaceMeshVertex
 10
-8.267949192431105
 20
11.5
 30
0.9999999999999999
 70
   192
  0
VERTEX
  5
23D
330
22F
100
AcDbEntity
  8
0
100
AcDbVertex
100
AcDbPolyFaceMeshVertex
 10
-8.06814834742185
 20
11.98236190979496
 30
0.9999999999999999
 70
   192
  0
VERTEX
  5
23E
330
22F
100
AcDbEntity
  8
0
100
AcDbVertex
100
AcDbPolyFaceMeshVertex
 10
-7.999999999999987
 20
12.49999999999999
 30
0.9999999999999999
 70
   192
  0
VERTEX
  5
23F
330
22F
100
AcDbEntity
  8
0
100
AcDbVertex
100
AcDbPolyFaceMeshVertex
 10
-19.99999999999999
 20
23.99999999999999
 30
1.000000000000003
 70
   192
  0
VERTEX
  5
240
330
22F
100
AcDbEntity
  8
0
100
AcDbVertex
100
AcDbPolyFaceMeshVertex
 10
-11.41421356237308
 20
13.91421356237309
 30
0.9999999999999999
 70
   192
  0
VERTEX
  5
241
330
22F
100
AcDbEntity
  8
0
100
AcDbVertex
100
AcDbPolyFaceMeshVertex
 10
0.0000000000000169
 20
23.99999999999999
 30
0.9999999999999999
 70
   192
  0
VERTEX
  5
242
330
22F
100
AcDbEntity
  8
0
100
AcDbVertex
100
AcDbPolyFaceMeshVertex
 10
-11.73205080756887
 20
13.49999999999999
 30
0.9999999999999999
 70
   192
  0
VERTEX
  5
243
330
22F
100
AcDbEntity
  8
0
100
AcDbVertex
100
AcDbPolyFaceMeshVertex
 10
-11.93185165257812
 20
13.01763809020504
 30
0.9999999999999999
 70
   192
  0
VERTEX
  5
244
330
22F
100
AcDbEntity
  8
0
100
AcDbVertex
100
AcDbPolyFaceMeshVertex
 10
-10.99999999999999
 20
14.23205080756887
 30
0.9999999999999999
 70
   192
  0
VERTEX
  5
245
330
22F
100
AcDbEntity
  8
0
100
AcDbVertex
100
AcDbPolyFaceMeshVertex
 10
-10.51763809020503
 20
14.43185165257813
 30
0.9999999999999999
 70
   192
  0
VERTEX
  5
246
330
22F
100
AcDbEntity
  8
0
100
AcDbVertex
100
AcDbPolyFaceMeshVertex
 10
-9.999999999999982
 20
14.49999999999999
 30
0.9999999999999999
 70
   192
  0
VERTEX
  5
247
330
22F
100
AcDbEntity
  8
0
100
AcDbVertex
100
AcDbPolyFaceMeshVertex
 10
-9.48236190979495
 20
14.43185165257813
 30
0.9999999999999999
 70
   192
  0
VERTEX
  5
248
330
22F
100
AcDbEntity
  8
0
100
AcDbVertex
100
AcDbPolyFaceMeshVertex
 10
-8.999999999999988
 20
14.23205080756888
 30
0.9999999999999999
 70
   192
  0
VERTEX
  5
249
330
22F
100
AcDbEntity
  8
0
100
AcDbVertex
100
AcDbPolyFaceMeshVertex
 10
-8.585786437626894
 20
13.91421356237309
 30
0.9999999999999999
 70
   192
  0
VERTEX
  5
24A
330
22F
100
AcDbEntity
  8
0
100
AcDbVertex
100
AcDbPolyFaceMeshVertex
 10
-8.267949192431109
 20
13.49999999999999
 30
0.9999999999999999
 70
   192
  0
VERTEX
  5
24B
330
22F
100
AcDbEntity
  8
0
100
AcDbVertex
100
AcDbPolyFaceMeshVertex
 10
-8.06814834742185
 20
13.01763809020504
 30
0.9999999999999999
 70
   192
  0
VERTEX
  5
24C
330
22F
100
AcDbEntity
  8
0
100
AcDbFaceRecord
 10
0.0
 20
0.0
 30
0.0
 70
   128
 71
    -1
 72
     2
 73
    -3
  0
VERTEX
  5
24D
330
22F
100
AcDbEntity
  8
0
100
AcDbFaceRecord
 10
0.0
 20
0.0
 30
0.0
 70
   128
 71
    -2
 72
    -1
 73
     4
  0
VERTEX
  5
24E
330
22F
100
AcDbEntity
  8
0
100
AcDbFaceRecord
 10
0.0
 20
0.0
 30
0.0
 70
   128
 71
    -4
 72
    -1
 73
     5
  0
VERTEX
  5
24F
330
22F
100
AcDbEntity
  8
0
100
AcDbFaceRecord
 10
0.0
 20
0.0
 30
0.0
 70
   128
 71
    -5
 72
     1
 73
    -6
  0
VERTEX
  5
250
330
22F
100
AcDbEntity
  8
0
100
AcDbFaceRecord
 10
0.0
 20
0.0
 30
0.0
 70
   128
 71
    -5
 72
    -6
 73
     7
  0
VERTEX
  5
251
330
22F
100
AcDbEntity
  8
0
100
AcDbFaceRecord
 10
0.0
 20
0.0
 30
0.0
 70
   128
 71
    -7
 72
    -6
 73
     8
  0
VERTEX
  5
252
330
22F
100
AcDbEntity
  8
0
100
AcDbFaceRecord
 10
0.0
 20
0.0
 30
0.0
 70
   128
 71
    -8
 72
    -6
 73
     9
  0
VERTEX
  5
253
330
22F
100
AcDbEntity
  8
0
100
AcDbFaceRecord
 10
0.0
 20
0.0
 30
0.0
 70
   128
 71
    -9
 72
    -6
 73
    10
  0
VERTEX
  5
254
330
22F
100
AcDbEntity
  8
0
100
AcDbFaceRecord
 10
0.0
 20
0.0
 30
0.0
 70
   128
 71
   -10
 72
    -6
 73
    11
  0
VERTEX
  5
255
330
22F
100
AcDbEntity
  8
0
100
AcDbFaceRecord
 10
0.0
 20
0.0
 30
0.0
 70
   128
 71
   -11
 72
    -6
 73
    12
  0
VERTEX
  5
256
330
22F
100
AcDbEntity
  8
0
100
AcDbFaceRecord
 10
0.0
 20
0.0
 30
0.0
 70
   128
 71
   -12
 72
    -6
 73
    13
  0
VERTEX
  5
257
330
22F
100
AcDbEntity
  8
0
100
AcDbFaceRecord
 10
0.0
 20
0.0
 30
0.0
 70
   128
 71
   -13
 72
    -6
 73
    14
  0
VERTEX
  5
258
330
22F
100
AcDbEntity
  8
0
100
AcDbFaceRecord
 10
0.0
 20
0.0
 30
0.0
 70
   128
 71
   -14
 72
    -6
 73
    15
  0
VERTEX
  5
259
330
22F
100
AcDbEntity
  8
0
100
AcDbFaceRecord
 10
0.0
 20
0.0
 30
0.0
 70
   128
 71
   -16
 72
   -17
 73
    18
  0
VERTEX
  5
25A
330
22F
100
AcDbEntity
  8
0
100
AcDbFaceRecord
 10
0.0
 20
0.0
 30
0.0
 70
   128
 71
   -17
 72
   -16
 73
    19
  0
VERTEX
  5
25B
330
22F
100
AcDbEntity
  8
0
100
AcDbFaceRecord
 10
0.0
 20
0.0
 30
0.0
 70
   128
 71
   -19
 72
    16
 73
    -1
  0
VERTEX
  5
25C
330
22F
100
AcDbEntity
  8
0
100
AcDbFaceRecord
 10
0.0
 20
0.0
 30
0.0
 70
   128
 71
   -19
 72
    -1
 73
    20
  0
VERTEX
  5
25D
330
22F
100
AcDbEntity
  8
0
100
AcDbFaceRecord
 10
0.0
 20
0.0
 30
0.0
 70
   128
 71
   -20
 72
    -1
 73
     3
  0
VERTEX
  5
25E
330
22F
100
AcDbEntity
  8
0
100
AcDbFaceRecord
 10
0.0
 20
0.0
 30
0.0
 70
   128
 71
   -18
 72
    17
 73
   -21
  0
VERTEX
  5
25F
330
22F
100
AcDbEntity
  8
0
100
AcDbFaceRecord
 10
0.0
 20
0.0
 30
0.0
 70
   128
 71
   -18
 72
    21
 73
   -22
  0
VERTEX
  5
260
330
22F
100
AcDbEntity
  8
0
100
AcDbFaceRecord
 10
0.0
 20
0.0
 30
0.0
 70
   128
 71
   -18
 72
    22
 73
   -23
  0
VERTEX
  5
261
330
22F
100
AcDbEntity
  8
0
100
AcDbFaceRecord
 10
0.0
 20
0.0
 30
0.0
 70
   128
 71
   -18
 72
    23
 73
   -24
  0
VERTEX
  5
262
330
22F
100
AcDbEntity
  8
0
100
AcDbFaceRecord
 10
0.0
 20
0.0
 30
0.0
 70
   128
 71
   -18
 72
    24
 73
   -25
  0
VERTEX
  5
263
330
22F
100
AcDbEntity
  8
0
100
AcDbFaceRecord
 10
0.0
 20
0.0
 30
0.0
 70
   128
 71
   -18
 72
    25
 73
   -26
  0
VERTEX
  5
264
330
22F
100
AcDbEntity
  8
0
100
AcDbFaceRecord
 10
0.0
 20
0.0
 30
0.0
 70
   128
 71
   -18
 72
    26
 73
   -27
  0
VERTEX
  5
265
330
22F
100
AcDbEntity
  8
0
100
AcDbFaceRecord
 10
0.0
 20
0.0
 30
0.0
 70
   128
 71
   -18
 72
    27
 73
   -28
  0
VERTEX
  5
266
330
22F
100
AcDbEntity
  8
0
100
AcDbFaceRecord
 10
0.0
 20
0.0
 30
0.0
 70
   128
 71
   -18
 72
    28
 73
   -15
  0
VERTEX
  5
267
330
22F
100
AcDbEntity
  8
0
100
AcDbFaceRecord
 10
0.0
 20
0.0
 30
0.0
 70
   128
 71
   -18
 72
   -15
 73
     6
  0
SEQEND
  5
268
330
22F
100
AcDbEntity
  8
0
  0
POLYLINE
  5
269
330
1F
100
AcDbEntity
  8
0
100
AcDbPolyFaceMesh
 66
     1
 10
0.0
 20
0.0
 30
0.0
 70
    64
 71
     4
 72
     2
  0
VERTEX
  5
26A
330
269
100
AcDbEntity
  8
0
100
AcDbVertex
100
AcDbPolyFaceMeshVertex
 10
-9.482361909794935
 20
25.0
 30
14.43185165257809
 70
   192
  0
VERTEX
  5
26B
330
269
100
AcDbEntity
  8
0
100
AcDbVertex
100
AcDbPolyFaceMeshVertex
 10
-9.999999999999975
 20
24.0
 30
14.49999999999998
 70
   192
  0
VERTEX
  5
26C
330
269
100
AcDbEntity
  8
0
100
AcDbVertex
100
AcDbPolyFaceMeshVertex
 10
-9.99999999999998
 20
24.99999999999999
 30
14.49999999999995
 70
   192
  0
VERTEX
  5
26D
330
269
100
AcDbEntity
  8
0
100
AcDbVertex
100
AcDbPolyFaceMeshVertex
 10
-9.482361909794944
 20
23.99999999999999
 30
14.43185165257812
 70
   192
  0
VERTEX
  5
26E
330
269
100
AcDbEntity
  8
0
100
AcDbFaceRecord
 10
0.0
 20
0.0
 30
0.0
 70
   128
 71
    -1
 72
     2
 73
     3
  0
VERTEX
  5
26F
330
269
100
AcDbEntity
  8
0
100
AcDbFaceRecord
 10
0.0
 20
0.0
 30
0.0
 70
   128
 71
    -2
 72
     1
 73
     4
  0
SEQEND
  5
270
330
269
100
AcDbEntity
  8
0
  0
POLYLINE
  5
271
330
1F
100
AcDbEntity
  8
0
100
AcDbPolyFaceMesh
 66
     1
 10
0.0
 20
0.0
 30
0.0
 70
    64
 71
     4
 72
     2
  0
VERTEX
  5
272
330
271
100
AcDbEntity
  8
0
100
AcDbVertex
100
AcDbPolyFaceMeshVertex
 10
-8.585786437626888
 20
23.99999999999999
 30
11.0857864376269
 70
   192
  0
VERTEX
  5
273
330
271
100
AcDbEntity
  8
0
100
AcDbVertex
100
AcDbPolyFaceMeshVertex
 10
-8.999999999999979
 20
25.0
 30
10.76794919243113
 70
   192
  0
VERTEX
  5
274
330
271
100
AcDbEntity
  8
0
100
AcDbVertex
100
AcDbPolyFaceMeshVertex
 10
-8.999999999999979
 20
23.99999999999999
 30
10.76794919243113
 70
   192
  0
VERTEX
  5
275
330
271
100
AcDbEntity
  8
0
100
AcDbVertex
100
AcDbPolyFaceMeshVertex
 10
-8.585786437626885
 20
24.99999999999999
 30
11.08578643762689
 70
   192
  0
VERTEX
  5
276
330
271
100
AcDbEntity
  8
0
100
AcDbFaceRecord
 10
0.0
 20
0.0
 30
0.0
 70
   128
 71
    -1
 72
     2
 73
     3
  0
VERTEX
  5
277
330
271
100
AcDbEntity
  8
0
100
AcDbFaceRecord
 10
0.0
 20
0.0
 30
0.0
 70
   128
 71
    -2
 72
     1
 73
     4
  0
SEQEND
  5
278
330
271
100
AcDbEntity
  8
0
  0
POLYLINE
  5
279
330
1F
100
AcDbEntity
  8
0
100
AcDbPolyFaceMesh
 66
     1
 10
0.0
 20
0.0
 30
0.0
 70
    64
 71
     4
 72
     2
  0
VERTEX
  5
27A
330
279
100
AcDbEntity
  8
0
100
AcDbVertex
100
AcDbPolyFaceMeshVertex
 10
-11.73205080756886
 20
25.0
 30
13.49999999999996
 70
   192
  0
VERTEX
  5
27B
330
279
100
AcDbEntity
  8
0
100
AcDbVertex
100
AcDbPolyFaceMeshVertex
 10
-11.41421356237308
 20
24.0
 30
13.91421356237308
 70
   192
  0
VERTEX
  5
27C
330
279
100
AcDbEntity
  8
0
100
AcDbVertex
100
AcDbPolyFaceMeshVertex
 10
-11.73205080756886
 20
23.99999999999999
 30
13.49999999999998
 70
   192
  0
VERTEX
  5
27D
330
279
100
AcDbEntity
  8
0
100
AcDbVertex
100
AcDbPolyFaceMeshVertex
 10
-11.41421356237307
 20
25.00000000000001
 30
13.91421356237307
 70
   192
  0
VERTEX
  5
27E
330
279
100
AcDbEntity
  8
0
100
AcDbFaceRecord
 10
0.0
 20
0.0
 30
0.0
 70
   128
 71
    -1
 72
     2
 73
     3
  0
VERTEX
  5
27F
330
279
100
AcDbEntity
  8
0
100
AcDbFaceRecord
 10
0.0
 20
0.0
 30
0.0
 70
   128
 71
    -2
 72
     1
 73
     4
  0
SEQEND
  5
280
330
279
100
AcDbEntity
  8
0
  0
POLYLINE
  5
281
330
1F
100
AcDbEntity
  8
0
100
AcDbPolyFaceMesh
 66
     1
 10
0.0
 20
0.0
 30
0.0
 70
    64
 71
     4
 72
     2
  0
VERTEX
  5
282
330
281
100
AcDbEntity
  8
0
100
AcDbVertex
100
AcDbPolyFaceMeshVertex
 10
0.0000000000000148
 20
24.0
 30
24.99999999999998
 70
   192
  0
VERTEX
  5
283
330
281
100
AcDbEntity
  8
0
100
AcDbVertex
100
AcDbPolyFaceMeshVertex
 10
-19.99999999999998
 20
25.00000000000002
 30
24.99999999999999
 70
   192
  0
VERTEX
  5
284
330
281
100
AcDbEntity
  8
0
100
AcDbVertex
100
AcDbPolyFaceMeshVertex
 10
-19.99999999999999
 20
24.00000000000001
 30
24.99999999999998
 70
   192
  0
VERTEX
  5
285
330
281
100
AcDbEntity
  8
0
100
AcDbVertex
100
AcDbPolyFaceMeshVertex
 10
0.000000000000019
 20
25.00000000000002
 30
24.99999999999999
 70
   192
  0
VERTEX
  5
286
330
281
100
AcDbEntity
  8
0
100
AcDbFaceRecord
 10
0.0
 20
0.0
 30
0.0
 70
   128
 71
    -1
 72
     2
 73
     3
  0
VERTEX
  5
287
330
281
100
AcDbEntity
  8
0
100
AcDbFaceRecord
 10
0.0
 20
0.0
 30
0.0
 70
   128
 71
    -2
 72
     1
 73
     4
  0
SEQEND
  5
288
330
281
100
AcDbEntity
  8
0
  0
POLYLINE
  5
289
330
1F
100
AcDbEntity
  8
0
100
AcDbPolyFaceMesh
 66
     1
 10
0.0
 20
0.0
 30
0.0
 70
    64
 71
     4
 72
     2
  0
VERTEX
  5
28A
330
289
100
AcDbEntity
  8
0
100
AcDbVertex
100
AcDbPolyFaceMeshVertex
 10
-8.999999999999991
 20
10.76794919243112
 30
0.9999999999999999
 70
   192
  0
VERTEX
  5
28B
330
289
100
AcDbEntity
  8
0
100
AcDbVertex
100
AcDbPolyFaceMeshVertex
 10
-8.585786437626895
 20
11.08578643762691
 30
0.0
 70
   192
  0
VERTEX
  5
28C
330
289
100
AcDbEntity
  8
0
100
AcDbVertex
100
AcDbPolyFaceMeshVertex
 10
-8.999999999999991
 20
10.76794919243112
 30
0.0
 70
   192
  0
VERTEX
  5
28D
330
289
100
AcDbEntity
  8
0
100
AcDbVertex
100
AcDbPolyFaceMeshVertex
 10
-8.585786437626895
 20
11.08578643762691
 30
0.9999999999999999
 70
   192
  0
VERTEX
  5
28E
330
289
100
AcDbEntity
  8
0
100
AcDbFaceRecord
 10
0.0
 20
0.0
 30
0.0
 70
   128
 71
    -1
 72
     2
 73
     3
  0
VERTEX
  5
28F
330
289
100
AcDbEntity
  8
0
100
AcDbFaceRecord
 10
0.0
 20
0.0
 30
0.0
 70
   128
 71
    -2
 72
     1
 73
     4
  0
SEQEND
  5
290
330
289
100
AcDbEntity
  8
0
  0
POLYLINE
  5
291
330
1F
100
AcDbEntity
  8
0
100
AcDbPolyFaceMesh
 66
     1
 10
0.0
 20
0.0
 30
0.0
 70
    64
 71
     4
 72
     2
  0
VERTEX
  5
292
330
291
100
AcDbEntity
  8
0
100
AcDbVertex
100
AcDbPolyFaceMeshVertex
 10
-9.99999999999999
 20
10.5
 30
0.9999999999999999
 70
   192
  0
VERTEX
  5
293
330
291
100
AcDbEntity
  8
0
100
AcDbVertex
100
AcDbPolyFaceMeshVertex
 10
-9.48236190979495
 20
10.56814834742186
 30
0.0
 70
   192
  0
VERTEX
  5
294
330
291
100
AcDbEntity
  8
0
100
AcDbVertex
100
AcDbPolyFaceMeshVertex
 10
-9.99999999999999
 20
10.5
 30
0.0
 70
   192
  0
VERTEX
  5
295
330
291
100
AcDbEntity
  8
0
100
AcDbVertex
100
AcDbPolyFaceMeshVertex
 10
-9.48236190979495
 20
10.56814834742186
 30
0.9999999999999999
 70
   192
  0
VERTEX
  5
296
330
291
100
AcDbEntity
  8
0
100
AcDbFaceRecord
 10
0.0
 20
0.0
 30
0.0
 70
   128
 71
    -1
 72
     2
 73
     3
  0
VERTEX
  5
297
330
291
100
AcDbEntity
  8
0
100
AcDbFaceRecord
 10
0.0
 20
0.0
 30
0.0
 70
   128
 71
    -2
 72
     1
 73
     4
  0
SEQEND
  5
298
330
291
100
AcDbEntity
  8
0
  0
POLYLINE
  5
299
330
1F
100
AcDbEntity
  8
0
100
AcDbPolyFaceMesh
 66
     1
 10
0.0
 20
0.0
 30
0.0
 70
    64
 71
    28
 72
    28
  0
VERTEX
  5
29A
330
299
100
AcDbEntity
  8
0
100
AcDbVertex
100
AcDbPolyFaceMeshVertex
 10
-19.99999999999999
 20
25.0
 30
0.0
 70
   192
  0
VERTEX
  5
29B
330
299
100
AcDbEntity
  8
0
100
AcDbVertex
100
AcDbPolyFaceMeshVertex
 10
-11.41421356237308
 20
24.99999999999999
 30
11.08578643762689
 70
   192
  0
VERTEX
  5
29C
330
299
100
AcDbEntity
  8
0
100
AcDbVertex
100
AcDbPolyFaceMeshVertex
 10
0.0000000000000183
 20
25.0
 30
0.0
 70
   192
  0
VERTEX
  5
29D
330
299
100
AcDbEntity
  8
0
100
AcDbVertex
100
AcDbPolyFaceMeshVertex
 10
-11.73205080756886
 20
24.99999999999999
 30
11.49999999999998
 70
   192
  0
VERTEX
  5
29E
330
299
100
AcDbEntity
  8
0
100
AcDbVertex
100
AcDbPolyFaceMeshVertex
 10
-19.99999999999998
 20
25.00000000000002
 30
24.99999999999999
 70
   192
  0
VERTEX
  5
29F
330
299
100
AcDbEntity
  8
0
100
AcDbVertex
100
AcDbPolyFaceMeshVertex
 10
-10.99999999999998
 20
25.0
 30
10.76794919243113
 70
   192
  0
VERTEX
  5
2A0
330
299
100
AcDbEntity
  8
0
100
AcDbVertex
100
AcDbPolyFaceMeshVertex
 10
-10.51763809020502
 20
24.99999999999999
 30
10.56814834742186
 70
   192
  0
VERTEX
  5
2A1
330
299
100
AcDbEntity
  8
0
100
AcDbVertex
100
AcDbPolyFaceMeshVertex
 10
-9.99999999999998
 20
25.0
 30
10.5
 70
   192
  0
VERTEX
  5
2A2
330
299
100
AcDbEntity
  8
0
100
AcDbVertex
100
AcDbPolyFaceMeshVertex
 10
-11.93185165257811
 20
24.99999999999998
 30
11.98236190979494
 70
   192
  0
VERTEX
  5
2A3
330
299
100
AcDbEntity
  8
0
100
AcDbVertex
100
AcDbPolyFaceMeshVertex
 10
-11.99999999999998
 20
25.00000000000001
 30
12.49999999999999
 70
   192
  0
VERTEX
  5
2A4
330
299
100
AcDbEntity
  8
0
100
AcDbVertex
100
AcDbPolyFaceMeshVertex
 10
-11.93185165257811
 20
25.0
 30
13.01763809020502
 70
   192
  0
VERTEX
  5
2A5
330
299
100
AcDbEntity
  8
0
100
AcDbVertex
100
AcDbPolyFaceMeshVertex
 10
-11.73205080756886
 20
25.0
 30
13.49999999999996
 70
   192
  0
VERTEX
  5
2A6
330
299
100
AcDbEntity
  8
0
100
AcDbVertex
100
AcDbPolyFaceMeshVertex
 10
-11.41421356237307
 20
25.00000000000001
 30
13.91421356237307
 70
   192
  0
VERTEX
  5
2A7
330
299
100
AcDbEntity
  8
0
100
AcDbVertex
100
AcDbPolyFaceMeshVertex
 10
-10.99999999999998
 20
25.00000000000002
 30
14.23205080756884
 70
   192
  0
VERTEX
  5
2A8
330
299
100
AcDbEntity
  8
0
100
AcDbVertex
100
AcDbPolyFaceMeshVertex
 10
-10.51763809020503
 20
25.0
 30
14.43185165257809
 70
   192
  0
VERTEX
  5
2A9
330
299
100
AcDbEntity
  8
0
100
AcDbVertex
100
AcDbPolyFaceMeshVertex
 10
-9.99999999999998
 20
24.99999999999999
 30
14.49999999999995
 70
   192
  0
VERTEX
  5
2AA
330
299
100
AcDbEntity
  8
0
100
AcDbVertex
100
AcDbPolyFaceMeshVertex
 10
-8.267949192431097
 20
24.99999999999998
 30
11.49999999999998
 70
   192
  0
VERTEX
  5
2AB
330
299
100
AcDbEntity
  8
0
100
AcDbVertex
100
AcDbPolyFaceMeshVertex
 10
0.000000000000019
 20
25.00000000000002
 30
24.99999999999999
 70
   192
  0
VERTEX
  5
2AC
330
299
100
AcDbEntity
  8
0
100
AcDbVertex
100
AcDbPolyFaceMeshVertex
 10
-8.585786437626885
 20
24.99999999999999
 30
11.08578643762689
 70
   192
  0
VERTEX
  5
2AD
330
299
100
AcDbEntity
  8
0
100
AcDbVertex
100
AcDbPolyFaceMeshVertex
 10
-8.999999999999979
 20
25.0
 30
10.76794919243113
 70
   192
  0
VERTEX
  5
2AE
330
299
100
AcDbEntity
  8
0
100
AcDbVertex
100
AcDbPolyFaceMeshVertex
 10
-9.482361909794937
 20
24.99999999999999
 30
10.56814834742186
 70
   192
  0
VERTEX
  5
2AF
330
299
100
AcDbEntity
  8
0
100
AcDbVertex
100
AcDbPolyFaceMeshVertex
 10
-8.068148347421845
 20
24.99999999999998
 30
11.98236190979494
 70
   192
  0
VERTEX
  5
2B0
330
299
100
AcDbEntity
  8
0
100
AcDbVertex
100
AcDbPolyFaceMeshVertex
 10
-7.999999999999979
 20
25.00000000000001
 30
12.49999999999999
 70
   192
  0
VERTEX
  5
2B1
330
299
100
AcDbEntity
  8
0
100
AcDbVertex
100
AcDbPolyFaceMeshVertex
 10
-8.068148347421838
 20
25.00000000000001
 30
13.01763809020503
 70
   192
  0
VERTEX
  5
2B2
330
299
100
AcDbEntity
  8
0
100
AcDbVertex
100
AcDbPolyFaceMeshVertex
 10
-8.2679491924311
 20
24.99999999999999
 30
13.49999999999996
 70
   192
  0
VERTEX
  5
2B3
330
299
100
AcDbEntity
  8
0
100
AcDbVertex
100
AcDbPolyFaceMeshVertex
 10
-8.585786437626885
 20
24.99999999999999
 30
13.91421356237307
 70
   192
  0
VERTEX
  5
2B4
330
299
100
AcDbEntity
  8
0
100
AcDbVertex
100
AcDbPolyFaceMeshVertex
 10
-8.999999999999982
 20
25.00000000000001
 30
14.23205080756884
 70
   192
  0
VERTEX
  5
2B5
330
299
100
AcDbEntity
  8
0
100
AcDbVertex
100
AcDbPolyFaceMeshVertex
 10
-9.482361909794935
 20
25.0
 30
14.43185165257809
 70
   192
  0
VERTEX
  5
2B6
330
299
100
AcDbEntity
  8
0
100
AcDbFaceRecord
 10
0.0
 20
0.0
 30
0.0
 70
   128
 71
    -1
 72
    -2
 73
     3
  0
VERTEX
  5
2B7
330
299
100
AcDbEntity
  8
0
100
AcDbFaceRecord
 10
0.0
 20
0.0
 30
0.0
 70
   128
 71
    -2
 72
    -1
 73
     4
  0
VERTEX
  5
2B8
330
299
100
AcDbEntity
  8
0
100
AcDbFaceRecord
 10
0.0
 20
0.0
 30
0.0
 70
   128
 71
    -4
 72
     1
 73
    -5
  0
VERTEX
  5
2B9
330
299
100
AcDbEntity
  8
0
100
AcDbFaceRecord
 10
0.0
 20
0.0
 30
0.0
 70
   128
 71
    -3
 72
     2
 73
    -6
  0
VERTEX
  5
2BA
330
299
100
AcDbEntity
  8
0
100
AcDbFaceRecord
 10
0.0
 20
0.0
 30
0.0
 70
   128
 71
    -3
 72
     6
 73
    -7
  0
VERTEX
  5
2BB
330
299
100
AcDbEntity
  8
0
100
AcDbFaceRecord
 10
0.0
 20
0.0
 30
0.0
 70
   128
 71
    -3
 72
     7
 73
    -8
  0
VERTEX
  5
2BC
330
299
100
AcDbEntity
  8
0
100
AcDbFaceRecord
 10
0.0
 20
0.0
 30
0.0
 70
   128
 71
    -4
 72
    -5
 73
     9
  0
VERTEX
  5
2BD
330
299
100
AcDbEntity
  8
0
100
AcDbFaceRecord
 10
0.0
 20
0.0
 30
0.0
 70
   128
 71
    -9
 72
    -5
 73
    10
  0
VERTEX
  5
2BE
330
299
100
AcDbEntity
  8
0
100
AcDbFaceRecord
 10
0.0
 20
0.0
 30
0.0
 70
   128
 71
   -10
 72
    -5
 73
    11
  0
VERTEX
  5
2BF
330
299
100
AcDbEntity
  8
0
100
AcDbFaceRecord
 10
0.0
 20
0.0
 30
0.0
 70
   128
 71
   -11
 72
    -5
 73
    12
  0
VERTEX
  5
2C0
330
299
100
AcDbEntity
  8
0
100
AcDbFaceRecord
 10
0.0
 20
0.0
 30
0.0
 70
   128
 71
   -12
 72
    -5
 73
    13
  0
VERTEX
  5
2C1
330
299
100
AcDbEntity
  8
0
100
AcDbFaceRecord
 10
0.0
 20
0.0
 30
0.0
 70
   128
 71
   -13
 72
    -5
 73
    14
  0
VERTEX
  5
2C2
330
299
100
AcDbEntity
  8
0
100
AcDbFaceRecord
 10
0.0
 20
0.0
 30
0.0
 70
   128
 71
   -14
 72
    -5
 73
    15
  0
VERTEX
  5
2C3
330
299
100
AcDbEntity
  8
0
100
AcDbFaceRecord
 10
0.0
 20
0.0
 30
0.0
 70
   128
 71
   -15
 72
    -5
 73
    16
  0
VERTEX
  5
2C4
330
299
100
AcDbEntity
  8
0
100
AcDbFaceRecord
 10
0.0
 20
0.0
 30
0.0
 70
   128
 71
    -3
 72
   -17
 73
    18
  0
VERTEX
  5
2C5
330
299
100
AcDbEntity
  8
0
100
AcDbFaceRecord
 10
0.0
 20
0.0
 30
0.0
 70
   128
 71
   -17
 72
    -3
 73
    19
  0
VERTEX
  5
2C6
330
299
100
AcDbEntity
  8
0
100
AcDbFaceRecord
 10
0.0
 20
0.0
 30
0.0
 70
   128
 71
   -19
 72
    -3
 73
    20
  0
VERTEX
  5
2C7
330
299
100
AcDbEntity
  8
0
100
AcDbFaceRecord
 10
0.0
 20
0.0
 30
0.0
 70
   128
 71
   -20
 72
    -3
 73
    21
  0
VERTEX
  5
2C8
330
299
100
AcDbEntity
  8
0
100
AcDbFaceRecord
 10
0.0
 20
0.0
 30
0.0
 70
   128
 71
   -21
 72
    -3
 73
     8
  0
VERTEX
  5
2C9
330
299
100
AcDbEntity
  8
0
100
AcDbFaceRecord
 10
0.0
 20
0.0
 30
0.0
 70
   128
 71
   -18
 72
    17
 73
   -22
  0
VERTEX
  5
2CA
330
299
100
AcDbEntity
  8
0
100
AcDbFaceRecord
 10
0.0
 20
0.0
 30
0.0
 70
   128
 71
   -18
 72
    22
 73
   -23
  0
VERTEX
  5
2CB
330
299
100
AcDbEntity
  8
0
100
AcDbFaceRecord
 10
0.0
 20
0.0
 30
0.0
 70
   128
 71
   -18
 72
    23
 73
   -24
  0
VERTEX
  5
2CC
330
299
100
AcDbEntity
  8
0
100
AcDbFaceRecord
 10
0.0
 20
0.0
 30
0.0
 70
   128
 71
   -18
 72
    24
 73
   -25
  0
VERTEX
  5
2CD
330
299
100
AcDbEntity
  8
0
100
AcDbFaceRecord
 10
0.0
 20
0.0
 30
0.0
 70
   128
 71
   -18
 72
    25
 73
   -26
  0
VERTEX
  5
2CE
330
299
100
AcDbEntity
  8
0
100
AcDbFaceRecord
 10
0.0
 20
0.0
 30
0.0
 70
   128
 71
   -18
 72
    26
 73
   -27
  0
VERTEX
  5
2CF
330
299
100
AcDbEntity
  8
0
100
AcDbFaceRecord
 10
0.0
 20
0.0
 30
0.0
 70
   128
 71
   -18
 72
    27
 73
   -28
  0
VERTEX
  5
2D0
330
299
100
AcDbEntity
  8
0
100
AcDbFaceRecord
 10
0.0
 20
0.0
 30
0.0
 70
   128
 71
   -18
 72
    28
 73
   -16
  0
VERTEX
  5
2D1
330
299
100
AcDbEntity
  8
0
100
AcDbFaceRecord
 10
0.0
 20
0.0
 30
0.0
 70
   128
 71
   -18
 72
   -16
 73
     5
  0
SEQEND
  5
2D2
330
299
100
AcDbEntity
  8
0
  0
POLYLINE
  5
2D3
330
1F
100
AcDbEntity
  8
0
100
AcDbPolyFaceMesh
 66
     1
 10
0.0
 20
0.0
 30
0.0
 70
    64
 71
     4
 72
     2
  0
VERTEX
  5
2D4
330
2D3
100
AcDbEntity
  8
0
100
AcDbVertex
100
AcDbPolyFaceMeshVertex
 10
-8.999999999999988
 20
14.23205080756888
 30
0.9999999999999999
 70
   192
  0
VERTEX
  5
2D5
330
2D3
100
AcDbEntity
  8
0
100
AcDbVertex
100
AcDbPolyFaceMeshVertex
 10
-9.48236190979495
 20
14.43185165257813
 30
0.0
 70
   192
  0
VERTEX
  5
2D6
330
2D3
100
AcDbEntity
  8
0
100
AcDbVertex
100
AcDbPolyFaceMeshVertex
 10
-8.999999999999988
 20
14.23205080756888
 30
0.0
 70
   192
  0
VERTEX
  5
2D7
330
2D3
100
AcDbEntity
  8
0
100
AcDbVertex
100
AcDbPolyFaceMeshVertex
 10
-9.48236190979495
 20
14.43185165257813
 30
0.9999999999999999
 70
   192
  0
VERTEX
  5
2D8
330
2D3
100
AcDbEntity
  8
0
100
AcDbFaceRecord
 10
0.0
 20
0.0
 30
0.0
 70
   128
 71
    -1
 72
     2
 73
     3
  0
VERTEX
  5
2D9
330
2D3
100
AcDbEntity
  8
0
100
AcDbFaceRecord
 10
0.0
 20
0.0
 30
0.0
 70
   128
 71
    -2
 72
     1
 73
     4
  0
SEQEND
  5
2DA
330
2D3
100
AcDbEntity
  8
0
  0
POLYLINE
  5
2DB
330
1F
100
AcDbEntity
  8
0
100
AcDbPolyFaceMesh
 66
     1
 10
0.0
 20
0.0
 30
0.0
 70
    64
 71
     4
 72
     2
  0
VERTEX
  5
2DC
330
2DB
100
AcDbEntity
  8
0
100
AcDbVertex
100
AcDbPolyFaceMeshVertex
 10
0.0
 20
0.0
 30
0.9999999999999999
 70
   192
  0
VERTEX
  5
2DD
330
2DB
100
AcDbEntity
  8
0
100
AcDbVertex
100
AcDbPolyFaceMeshVertex
 10
-19.99999999999999
 20
-0.0000000000000007
 30
0.0
 70
   192
  0
VERTEX
  5
2DE
330
2DB
100
AcDbEntity
  8
0
100
AcDbVertex
100
AcDbPolyFaceMeshVertex
 10
0.0
 20
0.0
 30
0.0
 70
   192
  0
VERTEX
  5
2DF
330
2DB
100
AcDbEntity
  8
0
100
AcDbVertex
100
AcDbPolyFaceMeshVertex
 10
-19.99999999999999
 20
-0.0000000000000007
 30
0.9999999999999999
 70
   192
  0
VERTEX
  5
2E0
330
2DB
100
AcDbEntity
  8
0
100
AcDbFaceRecord
 10
0.0
 20
0.0
 30
0.0
 70
   128
 71
    -1
 72
     2
 73
     3
  0
VERTEX
  5
2E1
330
2DB
100
AcDbEntity
  8
0
100
AcDbFaceRecord
 10
0.0
 20
0.0
 30
0.0
 70
   128
 71
    -2
 72
     1
 73
     4
  0
SEQEND
  5
2E2
330
2DB
100
AcDbEntity
  8
0
  0
POLYLINE
  5
2E3
330
1F
100
AcDbEntity
  8
0
100
AcDbPolyFaceMesh
 66
     1
 10
0.0
 20
0.0
 30
0.0
 70
    64
 71
     4
 72
     2
  0
VERTEX
  5
2E4
330
2E3
100
AcDbEntity
  8
0
100
AcDbVertex
100
AcDbPolyFaceMeshVertex
 10
-11.99999999999998
 20
24.00000000000001
 30
12.49999999999998
 70
   192
  0
VERTEX
  5
2E5
330
2E3
100
AcDbEntity
  8
0
100
AcDbVertex
100
AcDbPolyFaceMeshVertex
 10
-11.93185165257811
 20
25.0
 30
13.01763809020502
 70
   192
  0
VERTEX
  5
2E6
330
2E3
100
AcDbEntity
  8
0
100
AcDbVertex
100
AcDbPolyFaceMeshVertex
 10
-11.93185165257812
 20
24.00000000000001
 30
13.017638090205
 70
   192
  0
VERTEX
  5
2E7
330
2E3
100
AcDbEntity
  8
0
100
AcDbVertex
100
AcDbPolyFaceMeshVertex
 10
-11.99999999999998
 20
25.00000000000001
 30
12.49999999999999
 70
   192
  0
VERTEX
  5
2E8
330
2E3
100
AcDbEntity
  8
0
100
AcDbFaceRecord
 10
0.0
 20
0.0
 30
0.0
 70
   128
 71
    -1
 72
     2
 73
     3
  0
VERTEX
  5
2E9
330
2E3
100
AcDbEntity
  8
0
100
AcDbFaceRecord
 10
0.0
 20
0.0
 30
0.0
 70
   128
 71
    -2
 72
     1
 73
     4
  0
SEQEND
  5
2EA
330
2E3
100
AcDbEntity
  8
0
  0
POLYLINE
  5
2EB
330
1F
100
AcDbEntity
  8
0
100
AcDbPolyFaceMesh
 66
     1
 10
0.0
 20
0.0
 30
0.0
 70
    64
 71
     4
 72
     2
  0
VERTEX
  5
2EC
330
2EB
100
AcDbEntity
  8
0
100
AcDbVertex
100
AcDbPolyFaceMeshVertex
 10
-11.93185165257812
 20
24.00000000000001
 30
13.017638090205
 70
   192
  0
VERTEX
  5
2ED
330
2EB
100
AcDbEntity
  8
0
100
AcDbVertex
100
AcDbPolyFaceMeshVertex
 10
-11.73205080756886
 20
25.0
 30
13.49999999999996
 70
   192
  0
VERTEX
  5
2EE
330
2EB
100
AcDbEntity
  8
0
100
AcDbVertex
100
AcDbPolyFaceMeshVertex
 10
-11.73205080756886
 20
23.99999999999999
 30
13.49999999999998
 70
   192
  0
VERTEX
  5
2EF
330
2EB
100
AcDbEntity
  8
0
100
AcDbVertex
100
AcDbPolyFaceMeshVertex
 10
-11.93185165257811
 20
25.0
 30
13.01763809020502
 70
   192
  0
VERTEX
  5
2F0
330
2EB
100
AcDbEntity
  8
0
100
AcDbFaceRecord
 10
0.0
 20
0.0
 30
0.0
 70
   128
 71
    -1
 72
     2
 73
     3
  0
VERTEX
  5
2F1
330
2EB
100
AcDbEntity
  8
0
100
AcDbFaceRecord
 10
0.0
 20
0.0
 30
0.0
 70
   128
 71
    -2
 72
     1
 73
     4
  0
SEQEND
  5
2F2
330
2EB
100
AcDbEntity
  8
0
  0
POLYLINE
  5
2F3
330
1F
100
AcDbEntity
  8
0
100
AcDbPolyFaceMesh
 66
     1
 10
0.0
 20
0.0
 30
0.0
 70
    64
 71
     4
 72
     2
  0
VERTEX
  5
2F4
330
2F3
100
AcDbEntity
  8
0
100
AcDbVertex
100
AcDbPolyFaceMeshVertex
 10
-10.99999999999998
 20
24.0
 30
10.76794919243113
 70
   192
  0
VERTEX
  5
2F5
330
2F3
100
AcDbEntity
  8
0
100
AcDbVertex
100
AcDbPolyFaceMeshVertex
 10
-11.41421356237308
 20
24.99999999999999
 30
11.08578643762689
 70
   192
  0
VERTEX
  5
2F6
330
2F3
100
AcDbEntity
  8
0
100
AcDbVertex
100
AcDbPolyFaceMeshVertex
 10
-11.41421356237308
 20
24.0
 30
11.0857864376269
 70
   192
  0
VERTEX
  5
2F7
330
2F3
100
AcDbEntity
  8
0
100
AcDbVertex
100
AcDbPolyFaceMeshVertex
 10
-10.99999999999998
 20
25.0
 30
10.76794919243113
 70
   192
  0
VERTEX
  5
2F8
330
2F3
100
AcDbEntity
  8
0
100
AcDbFaceRecord
 10
0.0
 20
0.0
 30
0.0
 70
   128
 71
    -1
 72
     2
 73
     3
  0
VERTEX
  5
2F9
330
2F3
100
AcDbEntity
  8
0
100
AcDbFaceRecord
 10
0.0
 20
0.0
 30
0.0
 70
   128
 71
    -2
 72
     1
 73
     4
  0
SEQEND
  5
2FA
330
2F3
100
AcDbEntity
  8
0
  0
POLYLINE
  5
2FB
330
1F
100
AcDbEntity
  8
0
100
AcDbPolyFaceMesh
 66
     1
 10
0.0
 20
0.0
 30
0.0
 70
    64
 71
     4
 72
     2
  0
VERTEX
  5
2FC
330
2FB
100
AcDbEntity
  8
0
100
AcDbVertex
100
AcDbPolyFaceMeshVertex
 10
-11.41421356237308
 20
24.99999999999999
 30
11.08578643762689
 70
   192
  0
VERTEX
  5
2FD
330
2FB
100
AcDbEntity
  8
0
100
AcDbVertex
100
AcDbPolyFaceMeshVertex
 10
-11.73205080756886
 20
24.0
 30
11.49999999999998
 70
   192
  0
VERTEX
  5
2FE
330
2FB
100
AcDbEntity
  8
0
100
AcDbVertex
100
AcDbPolyFaceMeshVertex
 10
-11.41421356237308
 20
24.0
 30
11.0857864376269
 70
   192
  0
VERTEX
  5
2FF
330
2FB
100
AcDbEntity
  8
0
100
AcDbVertex
100
AcDbPolyFaceMeshVertex
 10
-11.73205080756886
 20
24.99999999999999
 30
11.49999999999998
 70
   192
  0
VERTEX
  5
300
330
2FB
100
AcDbEntity
  8
0
100
AcDbFaceRecord
 10
0.0
 20
0.0
 30
0.0
 70
   128
 71
    -1
 72
     2
 73
     3
  0
VERTEX
  5
301
330
2FB
100
AcDbEntity
  8
0
100
AcDbFaceRecord
 10
0.0
 20
0.0
 30
0.0
 70
   128
 71
    -2
 72
     1
 73
     4
  0
SEQEND
  5
302
330
2FB
100
AcDbEntity
  8
0
  0
POLYLINE
  5
303
330
1F
100
AcDbEntity
  8
0
100
AcDbPolyFaceMesh
 66
     1
 10
0.0
 20
0.0
 30
0.0
 70
    64
 71
     4
 72
     2
  0
VERTEX
  5
304
330
303
100
AcDbEntity
  8
0
100
AcDbVertex
100
AcDbPolyFaceMeshVertex
 10
-10.99999999999999
 20
14.23205080756887
 30
0.9999999999999999
 70
   192
  0
VERTEX
  5
305
330
303
100
AcDbEntity
  8
0
100
AcDbVertex
100
AcDbPolyFaceMeshVertex
 10
-11.41421356237308
 20
13.91421356237309
 30
0.0
 70
   192
  0
VERTEX
  5
306
330
303
100
AcDbEntity
  8
0
100
AcDbVertex
100
AcDbPolyFaceMeshVertex
 10
-10.99999999999999
 20
14.23205080756887
 30
0.0
 70
   192
  0
VERTEX
  5
307
330
303
100
AcDbEntity
  8
0
100
AcDbVertex
100
AcDbPolyFaceMeshVertex
 10
-11.41421356237308
 20
13.91421356237309
 30
0.9999999999999999
 70
   192
  0
VERTEX
  5
308
330
303
100
AcDbEntity
  8
0
100
AcDbFaceRecord
 10
0.0
 20
0.0
 30
0.0
 70
   128
 71
    -1
 72
     2
 73
     3
  0
VERTEX
  5
309
330
303
100
AcDbEntity
  8
0
100
AcDbFaceRecord
 10
0.0
 20
0.0
 30
0.0
 70
   128
 71
    -2
 72
     1
 73
     4
  0
SEQEND
  5
30A
330
303
100
AcDbEntity
  8
0
  0
POLYLINE
  5
30B
330
1F
100
AcDbEntity
  8
0
100
AcDbPolyFaceMesh
 66
     1
 10
0.0
 20
0.0
 30
0.0
 70
    64
 71
     6
 72
     4
  0
VERTEX
  5
30C
330
30B
100
AcDbEntity
  8
0
100
AcDbVertex
100
AcDbPolyFaceMeshVertex
 10
0.0000000000000183
 20
25.0
 30
0.0
 70
   192
  0
VERTEX
  5
30D
330
30B
100
AcDbEntity
  8
0
100
AcDbVertex
100
AcDbPolyFaceMeshVertex
 10
0.0
 20
0.0
 30
0.9999999999999999
 70
   192
  0
VERTEX
  5
30E
330
30B
100
AcDbEntity
  8
0
100
AcDbVertex
100
AcDbPolyFaceMeshVertex
 10
0.0
 20
0.0
 30
0.0
 70
   192
  0
VERTEX
  5
30F
330
30B
100
AcDbEntity
  8
0
100
AcDbVertex
100
AcDbPolyFaceMeshVertex
 10
0.0000000000000169
 20
23.99999999999999
 30
0.9999999999999999
 70
   192
  0
VERTEX
  5
310
330
30B
100
AcDbEntity
  8
0
100
AcDbVertex
100
AcDbPolyFaceMeshVertex
 10
0.0000000000000148
 20
24.0
 30
24.99999999999998
 70
   192
  0
VERTEX
  5
311
330
30B
100
AcDbEntity
  8
0
100
AcDbVertex
100
AcDbPolyFaceMeshVertex
 10
0.000000000000019
 20
25.00000000000002
 30
24.99999999999999
 70
   192
  0
VERTEX
  5
312
330
30B
100
AcDbEntity
  8
0
100
AcDbFaceRecord
 10
0.0
 20
0.0
 30
0.0
 70
   128
 71
    -1
 72
     2
 73
     3
  0
VERTEX
  5
313
330
30B
100
AcDbEntity
  8
0
100
AcDbFaceRecord
 10
0.0
 20
0.0
 30
0.0
 70
   128
 71
    -2
 72
    -1
 73
     4
  0
VERTEX
  5
314
330
30B
100
AcDbEntity
  8
0
100
AcDbFaceRecord
 10
0.0
 20
0.0
 30
0.0
 70
   128
 71
    -4
 72
    -1
 73
     5
  0
VERTEX
  5
315
330
30B
100
AcDbEntity
  8
0
100
AcDbFaceRecord
 10
0.0
 20
0.0
 30
0.0
 70
   128
 71
    -5
 72
     1
 73
     6
  0
SEQEND
  5
316
330
30B
100
AcDbEntity
  8
0
  0
ENDSEC
  0
SECTION
  2
OBJECTS
  0
DICTIONARY
  5
C
330
0
100
AcDbDictionary
  3
ACAD_GROUP
350
D
  3
ACAD_LAYOUT
350
1A
  3
ACAD_MATERIAL
350
3B
  3
ACAD_MLEADERSTYLE
350
339
  3
ACAD_MLINESTYLE
350
17
  3
ACAD_PLOTSETTINGS
350
19
  3
ACAD_VISUALSTYLE
350
2A
  3
ACDBHEADERROUNDTRIPXREC
350
317
  3
ACDBVARIABLEDICTIONARY
350
337
  0
DICTIONARY
  5
D
102
{ACAD_REACTORS
330
C
102
}
330
C
100
AcDbDictionary
  0
DICTIONARY
  5
1A
102
{ACAD_REACTORS
330
C
102
}
330
C
100
AcDbDictionary
  0
DICTIONARY
  5
3B
102
{ACAD_REACTORS
330
C
102
}
330
C
100
AcDbDictionary
  3
BYBLOCK
350
3D
  3
BYLAYER
350
3C
  3
GLOBAL
350
3E
  0
DICTIONARY
  5
339
102
{ACAD_REACTORS
330
C
102
}
330
C
100
AcDbDictionary
  0
DICTIONARY
  5
17
102
{ACAD_REACTORS
330
C
102
}
330
C
100
AcDbDictionary
  3
STANDARD
350
18
  0
DICTIONARY
  5
19
102
{ACAD_REACTORS
330
C
102
}
330
C
100
AcDbDictionary
  0
DICTIONARY
  5
2A
102
{ACAD_REACTORS
330
C
102
}
330
C
100
AcDbDictionary
  3
2DWIREFRAME
350
2F
  3
3D_HIDDEN
350
31
  3
3DWIREFRAME
350
30
  3
BASIC
350
32
  3
BRIGHTEN
350
36
  3
COLORCHANGE
350
3A
  3
CONCEPTUAL
350
34
  3
DIM
350
35
  3
FACEPATTERN
350
39
  3
FLAT
350
2B
  3
FLATWITHEDGES
350
2C
  3
GOURAUD
350
2D
  3
GOURAUDWITHEDGES
350
2E
  3
LINEPATTERN
350
38
  3
REALISTIC
350
33
  3
THICKEN
350
37
  0
DICTIONARY
  5
317
102
{ACAD_REACTORS
330
C
102
}
330
C
100
AcDbDictionary
  3
CEPSNTYPE
350
320
  3
DIMSTYLEDATA
350
336
  3
FINGERPRINTGUID
350
321
  3
HYPERLINKBASE
350
31A
  3
INSUNITS
350
31F
  3
LAYOUTDICT
350
31C
  3
LWETCUNION
350
31E
  3
PLOTSETDICT
350
31D
  3
PSVPSCALE
350
323
  3
PUCSBASE
350
326
  3
PUCSORGBACK
350
32C
  3
PUCSORGBOTTOM
350
328
  3
PUCSORGFRONT
350
32B
  3
PUCSORGLEFT
350
329
  3
PUCSORGRIGHT
350
32A
  3
PUCSORGTOP
350
327
  3
PUCSORTHOREF
350
324
  3
PUCSORTHOVIEW
350
325
  3
STYLESHEET
350
31B
  3
TSTACKALIGN
350
318
  3
TSTACKSIZE
350
319
  3
UCSBASE
350
32F
  3
UCSORGBACK
350
335
  3
UCSORGBOTTOM
350
331
  3
UCSORGFRONT
350
334
  3
UCSORGLEFT
350
332
  3
UCSORGRIGHT
350
333
  3
UCSORGTOP
350
330
  3
UCSORTHOREF
350
32D
  3
UCSORTHOVIEW
350
32E
  3
VERSIONGUID
350
322
  0
DICTIONARY
  5
337
102
{ACAD_REACTORS
330
C
102
}
330
C
100
AcDbDictionary
  3
DIMASSOC
350
33A
  3
HIDETEXT
350
33B
  0
MATERIAL
  5
3D
102
{ACAD_REACTORS
330
3B
102
}
102
{ACAD_XDICTIONARY
360
33E
102
}
330
3B
100
AcDbMaterial
  1
ByBlock
  0
MATERIAL
  5
3C
102
{ACAD_REACTORS
330
3B
102
}
102
{ACAD_XDICTIONARY
360
33C
102
}
330
3B
100
AcDbMaterial
  1
ByLayer
  0
MATERIAL
  5
3E
102
{ACAD_REACTORS
330
3B
102
}
102
{ACAD_XDICTIONARY
360
340
102
}
330
3B
100
AcDbMaterial
  1
Global
  0
MLINESTYLE
  5
18
102
{ACAD_REACTORS
330
17
102
}
330
17
100
AcDbMlineStyle
  2
Standard
 70
     0
  3

 62
   256
 51
90.0
 52
90.0
 71
     2
 49
0.5
 62
   256
  6
BYLAYER
 49
-0.5
 62
   256
  6
BYLAYER
  0
ACAD_PROXY_OBJECT
  5
2F
102
{ACAD_REACTORS
330
2A
102
}
330
2A
100
AcDbProxyObject
 90
      499
 91
      501
 93
      436
310
42CC9915DA5C99599C985B595049028333333333333E3BF0000000000000FB0107901411070040501600405405064090741402480A0340
1001
ACAD
1000
AcDbSavedByObjectVersion
1070
     0
  0
ACAD_PROXY_OBJECT
  5
31
102
{ACAD_REACTORS
330
2A
102
}
330
2A
100
AcDbProxyObject
 90
      499
 91
      501
 93
      500
310
424CD108121A5919195B90640502408333333333333E3BF0000000000000FB01079024090700405020000000000001110200405405064090740C02480A0340
1001
ACAD
1000
AcDbSavedByObjectVersion
1070
     0
  0
ACAD_PROXY_OBJECT
  5
30
102
{ACAD_REACTORS
330
2A
102
}
330
2A
100
AcDbProxyObject
 90
      499
 91
      501
 93
      436
310
42CCD915DA5C99599C985B595059028333333333333E3BF0000000000000FB0107901411070040501600405405064090741402480A0340
1001
ACAD
1000
AcDbSavedByObjectVersion
1070
     0
  0
ACAD_PROXY_OBJECT
  5
32
102
{ACAD_REACTORS
330
2A
102
}
330
2A
100
AcDbProxyObject
 90
      499
 91
      501
 93
      388
310
4150985CDA58D07406404333333333333E3BF0000000000000FB0107A41107004050150841D405064090741402480A0350
1001
ACAD
1000
AcDbSavedByObjectVersion
1070
     0
  0
ACAD_PROXY_OBJECT
  5
36
102
{ACAD_REACTORS
330
2A
102
}
330
2A
100
AcDbProxyObject
 90
      499
 91
      501
 93
      428
310
42109C9A59DA1D195B90C409028333333333333E3BF0000000000000FB010790141107004050150841D405064090741402480A029950
1001
ACAD
1000
AcDbSavedByObjectVersion
1070
     0
  0
ACAD_PROXY_OBJECT
  5
3A
102
{ACAD_REACTORS
330
2A
102
}
330
2A
100
AcDbProxyObject
 90
      499
 91
      501
 93
      452
310
42D0DBDB1BDC90DA185B99D95104090240C333333333333E3BF0000000000000FB0108901411070040501508421405064090741402480A0350
1001
ACAD
1000
AcDbSavedByObjectVersion
1070
     0
  0
ACAD_PROXY_OBJECT
  5
34
102
{ACAD_REACTORS
330
2A
102
}
330
2A
100
AcDbProxyObject
 90
      499
 91
      501
 93
      500
310
4290DBDB98D95C1D1D585B10940D028333333333333E3BF0000000000000FB0107902409070040501000000000000111010841D405064090740C02480A0340
1001
ACAD
1000
AcDbSavedByObjectVersion
1070
     0
  0
ACAD_PROXY_OBJECT
  5
35
102
{ACAD_REACTORS
330
2A
102
}
330
2A
100
AcDbProxyObject
 90
      499
 91
      501
 93
      412
310
40D11A5B50B409028333333333333E3BF0000000000000FB010790141107004050150841D405064090741402480A02677FFFFFD0
1001
ACAD
1000
AcDbSavedByObjectVersion
1070
     0
  0
ACAD_PROXY_OBJECT
  5
39
102
{ACAD_REACTORS
330
2A
102
}
330
2A
100
AcDbProxyObject
 90
      499
 91
      501
 93
      444
310
42D19858D95C185D1D195C9B90F409028333333333333E3BF0000000000000FB010790141107004050150841D405064090741402480A0350
1001
ACAD
1000
AcDbSavedByObjectVersion
1070
     0
  0
ACAD_PROXY_OBJECT
  5
2B
102
{ACAD_REACTORS
330
2A
102
}
330
2A
100
AcDbProxyObject
 90
      499
 91
      501
 93
      388
310
41119B185D240901404333333333333E3BF0000000000000F9010740A41107004050150841D405064090741402480A1B50
1001
ACAD
1000
AcDbSavedByObjectVersion
1070
     0
  0
ACAD_PROXY_OBJECT
  5
2C
102
{ACAD_REACTORS
330
2A
102
}
330
2A
100
AcDbProxyObject
 90
      499
 91
      501
 93
      476
310
43519B185D15DA5D1A115919D95CD0140901404333333333333E3BF0000000000000F9010740901411070040501600405405064090741402480A1B50
1001
ACAD
1000
AcDbSavedByObjectVersion
1070
     0
  0
ACAD_PROXY_OBJECT
  5
2D
102
{ACAD_REACTORS
330
2A
102
}
330
2A
100
AcDbProxyObject
 90
      499
 91
      501
 93
      412
310
41D1DBDD5C985D5910240902404333333333333E3BF0000000000000F9010740A411070040501641D405064090741402480A1B50
1001
ACAD
1000
AcDbSavedByObjectVersion
1070
     0
  0
ACAD_PROXY_OBJECT
  5
2E
102
{ACAD_REACTORS
330
2A
102
}
330
2A
100
AcDbProxyObject
 90
      499
 91
      501
 93
      500
310
4411DBDD5C985D5915DA5D1A115919D95CD0340902404333333333333E3BF0000000000000F9010740901411070040501600405405064090741402480A1B50
1001
ACAD
1000
AcDbSavedByObjectVersion
1070
     0
  0
ACAD_PROXY_OBJECT
  5
38
102
{ACAD_REACTORS
330
2A
102
}
330
2A
100
AcDbProxyObject
 90
      499
 91
      501
 93
      444
310
42D31A5B995C185D1D195C9B90E409028333333333333E3BF0000000000000FB010790141107004050750841D405064090741402483A0350
1001
ACAD
1000
AcDbSavedByObjectVersion
1070
     0
  0
ACAD_PROXY_OBJECT
  5
33
102
{ACAD_REACTORS
330
2A
102
}
330
2A
100
AcDbProxyObject
 90
      499
 91
      501
 93
      420
310
425499585B1A5CDD1A58D08409028333333333333E3BF0000000000000FB01079019070040501508421405064090741402480A1B40
1001
ACAD
1000
AcDbSavedByObjectVersion
1070
     0
  0
ACAD_PROXY_OBJECT
  5
37
102
{ACAD_REACTORS
330
2A
102
}
330
2A
100
AcDbProxyObject
 90
      499
 91
      501
 93
      412
310
41D51A1A58DAD95B90D409028333333333333E3BF0000000000000FB010790141107004050150C41D405064090741402480A0350
1001
ACAD
1000
AcDbSavedByObjectVersion
1070
     0
  0
XRECORD
  5
320
102
{ACAD_REACTORS
330
317
102
}
330
317
100
AcDbXrecord
 90
        0
  0
XRECORD
  5
336
102
{ACAD_REACTORS
330
317
102
}
330
317
100
AcDbXrecord
1000
DSTYLE
1002
{
1070
   340
340
11
1002
}
  0
XRECORD
  5
321
102
{ACAD_REACTORS
330
317
102
}
330
317
100
AcDbXrecord
  1
{01C93F1B-3C13-494A-B01F-A7009819F3EB}
  0
XRECORD
  5
31A
102
{ACAD_REACTORS
330
317
102
}
330
317
100
AcDbXrecord
  1

  0
XRECORD
  5
31F
102
{ACAD_REACTORS
330
317
102
}
330
317
100
AcDbXrecord
 90
        1
  0
XRECORD
  5
31C
102
{ACAD_REACTORS
330
317
102
}
330
317
100
AcDbXrecord
340
1A
  0
XRECORD
  5
31E
102
{ACAD_REACTORS
330
317
102
}
330
317
100
AcDbXrecord
 90
    10781
  0
XRECORD
  5
31D
102
{ACAD_REACTORS
330
317
102
}
330
317
100
AcDbXrecord
340
19
  0
XRECORD
  5
323
102
{ACAD_REACTORS
330
317
102
}
330
317
100
AcDbXrecord
 40
0.0
  0
XRECORD
  5
326
102
{ACAD_REACTORS
330
317
102
}
330
317
100
AcDbXrecord
340
0
  0
XRECORD
  5
32C
102
{ACAD_REACTORS
330
317
102
}
330
317
100
AcDbXrecord
 10
0.0
 20
0.0
 30
0.0
  0
XRECORD
  5
328
102
{ACAD_REACTORS
330
317
102
}
330
317
100
AcDbXrecord
 10
0.0
 20
0.0
 30
0.0
  0
XRECORD
  5
32B
102
{ACAD_REACTORS
330
317
102
}
330
317
100
AcDbXrecord
 10
0.0
 20
0.0
 30
0.0
  0
XRECORD
  5
329
102
{ACAD_REACTORS
330
317
102
}
330
317
100
AcDbXrecord
 10
0.0
 20
0.0
 30
0.0
  0
XRECORD
  5
32A
102
{ACAD_REACTORS
330
317
102
}
330
317
100
AcDbXrecord
 10
0.0
 20
0.0
 30
0.0
  0
XRECORD
  5
327
102
{ACAD_REACTORS
330
317
102
}
330
317
100
AcDbXrecord
 10
0.0
 20
0.0
 30
0.0
  0
XRECORD
  5
324
102
{ACAD_REACTORS
330
317
102
}
330
317
100
AcDbXrecord
340
0
  0
XRECORD
  5
325
102
{ACAD_REACTORS
330
317
102
}
330
317
100
AcDbXrecord
 70
     0
  0
XRECORD
  5
31B
102
{ACAD_REACTORS
330
317
102
}
330
317
100
AcDbXrecord
  1

  0
XRECORD
  5
318
102
{ACAD_REACTORS
330
317
102
}
330
317
100
AcDbXrecord
 90
        1
  0
XRECORD
  5
319
102
{ACAD_REACTORS
330
317
102
}
330
317
100
AcDbXrecord
 90
       70
  0
XRECORD
  5
32F
102
{ACAD_REACTORS
330
317
102
}
330
317
100
AcDbXrecord
340
0
  0
XRECORD
  5
335
102
{ACAD_REACTORS
330
317
102
}
330
317
100
AcDbXrecord
 10
0.0
 20
0.0
 30
0.0
  0
XRECORD
  5
331
102
{ACAD_REACTORS
330
317
102
}
330
317
100
AcDbXrecord
 10
0.0
 20
0.0
 30
0.0
  0
XRECORD
  5
334
102
{ACAD_REACTORS
330
317
102
}
330
317
100
AcDbXrecord
 10
0.0
 20
0.0
 30
0.0
  0
XRECORD
  5
332
102
{ACAD_REACTORS
330
317
102
}
330
317
100
AcDbXrecord
 10
0.0
 20
0.0
 30
0.0
  0
XRECORD
  5
333
102
{ACAD_REACTORS
330
317
102
}
330
317
100
AcDbXrecord
 10
0.0
 20
0.0
 30
0.0
  0
XRECORD
  5
330
102
{ACAD_REACTORS
330
317
102
}
330
317
100
AcDbXrecord
 10
0.0
 20
0.0
 30
0.0
  0
XRECORD
  5
32D
102
{ACAD_REACTORS
330
317
102
}
330
317
100
AcDbXrecord
340
0
  0
XRECORD
  5
32E
102
{ACAD_REACTORS
330
317
102
}
330
317
100
AcDbXrecord
 70
     0
  0
XRECORD
  5
322
102
{ACAD_REACTORS
330
317
102
}
330
317
100
AcDbXrecord
  1
{FAEB1C32-E019-11D5-929B-00C0DF256EC4}
  0
DICTIONARYVAR
  5
33A
102
{ACAD_REACTORS
330
337
102
}
330
337
100
DictionaryVariables
280
     0
  1
2
  0
DICTIONARYVAR
  5
33B
102
{ACAD_REACTORS
330
337
102
}
330
337
100
DictionaryVariables
280
     0
  1
1
  0
DICTIONARY
  5
33E
330
3D
100
AcDbDictionary
280
     1
  3
ACAD_XREC_ROUNDTRIP
360
33F
  0
DICTIONARY
  5
33C
330
3C
100
AcDbDictionary
280
     1
  3
ACAD_XREC_ROUNDTRIP
360
33D
  0
DICTIONARY
  5
340
330
3E
100
AcDbDictionary
280
     1
  3
ACAD_XREC_ROUNDTRIP
360
341
  0
XRECORD
  5
33F
102
{ACAD_REACTORS
330
33E
102
}
330
33E
100
AcDbXrecord
102
MATERIAL
148
0.0
149
0.0
149
0.0
 93
        0
 94
      127
282
     0
 72
     1
 77
     1
171
     1
175
     1
179
     1
273
     0
  0
XRECORD
  5
33D
102
{ACAD_REACTORS
330
33C
102
}
330
33C
100
AcDbXrecord
102
MATERIAL
148
0.0
149
0.0
149
0.0
 93
        0
 94
      127
282
     0
 72
     1
 77
     1
171
     1
175
     1
179
     1
273
     0
  0
XRECORD
  5
341
102
{ACAD_REACTORS
330
340
102
}
330
340
100
AcDbXrecord
102
MATERIAL
148
0.0
149
0.0
149
0.0
 93
        0
 94
      127
282
     0
 72
     1
 77
     1
171
     1
175
     1
179
     1
273
     0
  0
ENDSEC
  0
EOF
