solid OpenSCAD_Model
  facet normal -1 0 0
    outer loop
      vertex -1.85 0 0
      vertex -1.85 1 2.25
      vertex -1.85 1 0
    endloop
  endfacet
  facet normal -1 -0 0
    outer loop
      vertex -1.85 1 2.25
      vertex -1.85 0 0
      vertex -1.85 0 2.25
    endloop
  endfacet
  facet normal 0 0 1
    outer loop
      vertex -0.25 0 2.25
      vertex -0.250001 0 2.25
      vertex -0.25 -2 2.25
    endloop
  endfacet
  facet normal 0 0 1
    outer loop
      vertex -0.65 1 2.25
      vertex -0.750001 0 2.25
      vertex -0.65 0 2.25
    endloop
  endfacet
  facet normal 0 0 1
    outer loop
      vertex -0.65 1 2.25
      vertex -1.75 0 2.25
      vertex -0.750001 0 2.25
    endloop
  endfacet
  facet normal -0 0 1
    outer loop
      vertex -1.85 1 2.25
      vertex -1.75 0 2.25
      vertex -0.65 1 2.25
    endloop
  endfacet
  facet normal 0 0 1
    outer loop
      vertex -1.75 0 2.25
      vertex -1.85 1 2.25
      vertex -1.85 0 2.25
    endloop
  endfacet
  facet normal -0 0 1
    outer loop
      vertex -1.75 0 2.25
      vertex -0.75 -2 2.25
      vertex -0.750001 0 2.25
    endloop
  endfacet
  facet normal 0 0 1
    outer loop
      vertex -0.75 -2 2.25
      vertex -1.75 0 2.25
      vertex -1.75 -2 2.25
    endloop
  endfacet
  facet normal 1 -0 0
    outer loop
      vertex -0.65 0 2.25
      vertex -0.65 1 0
      vertex -0.65 1 2.25
    endloop
  endfacet
  facet normal 1 0 0
    outer loop
      vertex -0.65 1 0
      vertex -0.65 0 2.25
      vertex -0.65 0 0
    endloop
  endfacet
  facet normal 0 1 -0
    outer loop
      vertex -0.65 1 0
      vertex -1.85 1 2.25
      vertex -0.65 1 2.25
    endloop
  endfacet
  facet normal 0 1 0
    outer loop
      vertex -1.85 1 2.25
      vertex -0.65 1 0
      vertex -1.85 1 0
    endloop
  endfacet
  facet normal -0 0 1
    outer loop
      vertex -1.85 1.5 0
      vertex -0.65 1 0
      vertex -0.65 1.5 0
    endloop
  endfacet
  facet normal 0 0 1
    outer loop
      vertex -0.65 1 0
      vertex -1.85 1.5 0
      vertex -1.85 1 0
    endloop
  endfacet
  facet normal -0 0 1
    outer loop
      vertex -1.85 2.5 0
      vertex -0.65 2 0
      vertex -0.65 2.5 0
    endloop
  endfacet
  facet normal 0 0 1
    outer loop
      vertex -0.65 2 0
      vertex -1.85 2.5 0
      vertex -1.85 2 0
    endloop
  endfacet
  facet normal -0 0 1
    outer loop
      vertex -0.751999 5.95269 0
      vertex -0.65 3 0
      vertex -0.376742 5.98816 0
    endloop
  endfacet
  facet normal -0 0 1
    outer loop
      vertex -1.12429 5.89372 0
      vertex -0.65 3 0
      vertex -0.751999 5.95269 0
    endloop
  endfacet
  facet normal -0 0 1
    outer loop
      vertex -1.49214 5.8115 0
      vertex -0.65 3 0
      vertex -1.12429 5.89372 0
    endloop
  endfacet
  facet normal 0 0 1
    outer loop
      vertex -1.49214 5.8115 0
      vertex -1.85 3 0
      vertex -0.65 3 0
    endloop
  endfacet
  facet normal 0 0 1
    outer loop
      vertex -4.62308 3.82454 0
      vertex -1.85 2.5 0
      vertex -1.85 3 0
    endloop
  endfacet
  facet normal -0 0 1
    outer loop
      vertex -5.06597 3.21496 0
      vertex -1.85 2.5 0
      vertex -4.8541 3.52671 0
    endloop
  endfacet
  facet normal -0 0 1
    outer loop
      vertex -5.25784 2.89052 0
      vertex -1.85 2 0
      vertex -5.06597 3.21496 0
    endloop
  endfacet
  facet normal 0 0 1
    outer loop
      vertex -1.85 2 0
      vertex -5.42896 2.55468 0
      vertex -1.85 1.5 0
    endloop
  endfacet
  facet normal -0 0 1
    outer loop
      vertex -1.8541 5.70634 0
      vertex -1.85 3 0
      vertex -1.49214 5.8115 0
    endloop
  endfacet
  facet normal -0 0 1
    outer loop
      vertex -2.20875 5.57866 0
      vertex -1.85 3 0
      vertex -1.8541 5.70634 0
    endloop
  endfacet
  facet normal -0 0 1
    outer loop
      vertex -2.55468 5.42896 0
      vertex -1.85 3 0
      vertex -2.20875 5.57866 0
    endloop
  endfacet
  facet normal -0 0 1
    outer loop
      vertex -2.89052 5.25784 0
      vertex -1.85 3 0
      vertex -2.55468 5.42896 0
    endloop
  endfacet
  facet normal -0 0 1
    outer loop
      vertex -3.52671 4.8541 0
      vertex -1.85 3 0
      vertex -3.21496 5.06597 0
    endloop
  endfacet
  facet normal -0 0 1
    outer loop
      vertex -3.21496 5.06597 0
      vertex -1.85 3 0
      vertex -2.89052 5.25784 0
    endloop
  endfacet
  facet normal 0 0 1
    outer loop
      vertex 0.25 -2 0
      vertex -0.25 -2 0
      vertex 0 -6 0
    endloop
  endfacet
  facet normal 0 0 1
    outer loop
      vertex -0.25 -2 0
      vertex -0.376742 -5.98816 0
      vertex 0 -6 0
    endloop
  endfacet
  facet normal 0 0 1
    outer loop
      vertex -0.25 -2 0
      vertex -0.751999 -5.95269 0
      vertex -0.376742 -5.98816 0
    endloop
  endfacet
  facet normal 0 0 1
    outer loop
      vertex -0.25 -2 0
      vertex -1.12429 -5.89372 0
      vertex -0.751999 -5.95269 0
    endloop
  endfacet
  facet normal 0 0 1
    outer loop
      vertex -0.25 -2 0
      vertex -1.49214 -5.8115 0
      vertex -1.12429 -5.89372 0
    endloop
  endfacet
  facet normal 0 0 1
    outer loop
      vertex -0.25 -2 0
      vertex -1.8541 -5.70634 0
      vertex -1.49214 -5.8115 0
    endloop
  endfacet
  facet normal -0 0 1
    outer loop
      vertex -2.25 -2 0
      vertex -1.8541 -5.70634 0
      vertex -0.25 -2 0
    endloop
  endfacet
  facet normal 0 0 1
    outer loop
      vertex -1.8541 -5.70634 0
      vertex -2.25 -2 0
      vertex -2.20875 -5.57866 0
    endloop
  endfacet
  facet normal -0 0 1
    outer loop
      vertex -3.82454 4.62308 0
      vertex -1.85 3 0
      vertex -3.52671 4.8541 0
    endloop
  endfacet
  facet normal 0 0 1
    outer loop
      vertex -2.25 -2 0
      vertex -2.55468 -5.42896 0
      vertex -2.20875 -5.57866 0
    endloop
  endfacet
  facet normal 0 0 1
    outer loop
      vertex -1.85 1 0
      vertex -2.25 0 0
      vertex -1.85 0 0
    endloop
  endfacet
  facet normal 0 0 1
    outer loop
      vertex -2.25 -2 0
      vertex -2.89052 -5.25784 0
      vertex -2.55468 -5.42896 0
    endloop
  endfacet
  facet normal -0 0 1
    outer loop
      vertex -4.10728 4.37381 0
      vertex -1.85 3 0
      vertex -3.82454 4.62308 0
    endloop
  endfacet
  facet normal 0 0 1
    outer loop
      vertex -2.25 -2 0
      vertex -3.21496 -5.06597 0
      vertex -2.89052 -5.25784 0
    endloop
  endfacet
  facet normal -0 0 1
    outer loop
      vertex -4.37381 4.10728 0
      vertex -1.85 3 0
      vertex -4.10728 4.37381 0
    endloop
  endfacet
  facet normal 0 0 1
    outer loop
      vertex -2.25 -2 0
      vertex -3.52671 -4.8541 0
      vertex -3.21496 -5.06597 0
    endloop
  endfacet
  facet normal -0 0 1
    outer loop
      vertex -4.62308 3.82454 0
      vertex -1.85 3 0
      vertex -4.37381 4.10728 0
    endloop
  endfacet
  facet normal 0 0 1
    outer loop
      vertex -2.25 -2 0
      vertex -3.82454 -4.62308 0
      vertex -3.52671 -4.8541 0
    endloop
  endfacet
  facet normal 0 0 1
    outer loop
      vertex -1.85 2.5 0
      vertex -4.62308 3.82454 0
      vertex -4.8541 3.52671 0
    endloop
  endfacet
  facet normal 0 0 1
    outer loop
      vertex -2.25 -2 0
      vertex -4.10728 -4.37381 0
      vertex -3.82454 -4.62308 0
    endloop
  endfacet
  facet normal 0 0 1
    outer loop
      vertex -1.85 2.5 0
      vertex -5.06597 3.21496 0
      vertex -1.85 2 0
    endloop
  endfacet
  facet normal 0 0 1
    outer loop
      vertex -2.25 -2 0
      vertex -4.37381 -4.10728 0
      vertex -4.10728 -4.37381 0
    endloop
  endfacet
  facet normal -0 0 1
    outer loop
      vertex -5.42896 2.55468 0
      vertex -1.85 2 0
      vertex -5.25784 2.89052 0
    endloop
  endfacet
  facet normal 0 0 1
    outer loop
      vertex -2.25 -2 0
      vertex -4.62308 -3.82454 0
      vertex -4.37381 -4.10728 0
    endloop
  endfacet
  facet normal -0 0 1
    outer loop
      vertex -5.57866 2.20875 0
      vertex -1.85 1.5 0
      vertex -5.42896 2.55468 0
    endloop
  endfacet
  facet normal 0 0 1
    outer loop
      vertex -2.25 -2 0
      vertex -4.8541 -3.52671 0
      vertex -4.62308 -3.82454 0
    endloop
  endfacet
  facet normal -0 0 1
    outer loop
      vertex -5.70634 1.8541 0
      vertex -1.85 1.5 0
      vertex -5.57866 2.20875 0
    endloop
  endfacet
  facet normal 0 0 1
    outer loop
      vertex -2.25 -2 0
      vertex -5.06597 -3.21496 0
      vertex -4.8541 -3.52671 0
    endloop
  endfacet
  facet normal 0 0 1
    outer loop
      vertex -1.85 1.5 0
      vertex -5.70634 1.8541 0
      vertex -1.85 1 0
    endloop
  endfacet
  facet normal 0 0 1
    outer loop
      vertex -2.25 -2 0
      vertex -5.25784 -2.89052 0
      vertex -5.06597 -3.21496 0
    endloop
  endfacet
  facet normal 0 0 1
    outer loop
      vertex -1.85 1 0
      vertex -5.70634 1.8541 0
      vertex -2.25 0 0
    endloop
  endfacet
  facet normal 0 0 1
    outer loop
      vertex -2.25 -2 0
      vertex -5.42896 -2.55468 0
      vertex -5.25784 -2.89052 0
    endloop
  endfacet
  facet normal -0 0 1
    outer loop
      vertex -5.8115 1.49214 0
      vertex -2.25 0 0
      vertex -5.70634 1.8541 0
    endloop
  endfacet
  facet normal 0 0 1
    outer loop
      vertex -2.25 -2 0
      vertex -5.57866 -2.20875 0
      vertex -5.42896 -2.55468 0
    endloop
  endfacet
  facet normal -0 0 1
    outer loop
      vertex -5.89372 1.12429 0
      vertex -2.25 0 0
      vertex -5.8115 1.49214 0
    endloop
  endfacet
  facet normal 0 0 1
    outer loop
      vertex -2.25 -2 0
      vertex -5.70634 -1.8541 0
      vertex -5.57866 -2.20875 0
    endloop
  endfacet
  facet normal -0 0 1
    outer loop
      vertex -5.95269 0.751999 0
      vertex -2.25 0 0
      vertex -5.89372 1.12429 0
    endloop
  endfacet
  facet normal 0 0 1
    outer loop
      vertex -2.25 -2 0
      vertex -5.8115 -1.49214 0
      vertex -5.70634 -1.8541 0
    endloop
  endfacet
  facet normal -0 0 1
    outer loop
      vertex -5.98816 0.376742 0
      vertex -2.25 0 0
      vertex -5.95269 0.751999 0
    endloop
  endfacet
  facet normal 0 0 1
    outer loop
      vertex -2.25 0 0
      vertex -5.8115 -1.49214 0
      vertex -2.25 -2 0
    endloop
  endfacet
  facet normal 0 0 1
    outer loop
      vertex -6 0 0
      vertex -2.25 0 0
      vertex -5.98816 0.376742 0
    endloop
  endfacet
  facet normal 0 -0 1
    outer loop
      vertex -5.8115 -1.49214 0
      vertex -2.25 0 0
      vertex -5.89372 -1.12429 0
    endloop
  endfacet
  facet normal 0 -0 1
    outer loop
      vertex -5.98816 -0.376742 0
      vertex -2.25 0 0
      vertex -6 0 0
    endloop
  endfacet
  facet normal 0 -0 1
    outer loop
      vertex -5.89372 -1.12429 0
      vertex -2.25 0 0
      vertex -5.95269 -0.751999 0
    endloop
  endfacet
  facet normal 0 -0 1
    outer loop
      vertex -5.95269 -0.751999 0
      vertex -2.25 0 0
      vertex -5.98816 -0.376742 0
    endloop
  endfacet
  facet normal -0 0 1
    outer loop
      vertex 0.65 1.5 0
      vertex 1.85 1 0
      vertex 1.85 1.5 0
    endloop
  endfacet
  facet normal 0 0 1
    outer loop
      vertex 1.85 1 0
      vertex 0.65 1.5 0
      vertex 0.65 1 0
    endloop
  endfacet
  facet normal -0 0 1
    outer loop
      vertex 0.65 2.5 0
      vertex 1.85 2 0
      vertex 1.85 2.5 0
    endloop
  endfacet
  facet normal 0 0 1
    outer loop
      vertex 1.85 2 0
      vertex 0.65 2.5 0
      vertex 0.65 2 0
    endloop
  endfacet
  facet normal 0 0 1
    outer loop
      vertex 1.49214 5.8115 0
      vertex 1.85 3 0
      vertex 1.8541 5.70634 0
    endloop
  endfacet
  facet normal 0 0 1
    outer loop
      vertex 0.65 3 0
      vertex 1.49214 5.8115 0
      vertex 1.12429 5.89372 0
    endloop
  endfacet
  facet normal 0 0 1
    outer loop
      vertex 0.65 3 0
      vertex 1.12429 5.89372 0
      vertex 0.751999 5.95269 0
    endloop
  endfacet
  facet normal 0 0 1
    outer loop
      vertex 1.49214 5.8115 0
      vertex 0.65 3 0
      vertex 1.85 3 0
    endloop
  endfacet
  facet normal 0 0 1
    outer loop
      vertex -0.65 2.5 0
      vertex 0.65 2.5 0
      vertex 0.65 3 0
    endloop
  endfacet
  facet normal 0 0 1
    outer loop
      vertex 0.65 2.5 0
      vertex -0.65 2.5 0
      vertex 0.65 2 0
    endloop
  endfacet
  facet normal 0 0 1
    outer loop
      vertex 0.65 2 0
      vertex -0.65 2 0
      vertex 0.65 1.5 0
    endloop
  endfacet
  facet normal 0 0 1
    outer loop
      vertex -0.65 1.5 0
      vertex 0.65 1.5 0
      vertex -0.65 2 0
    endloop
  endfacet
  facet normal 0 0 1
    outer loop
      vertex 0.376742 5.98816 0
      vertex 0.65 3 0
      vertex 0.751999 5.95269 0
    endloop
  endfacet
  facet normal 0 0 1
    outer loop
      vertex 0 6 0
      vertex 0.65 3 0
      vertex 0.376742 5.98816 0
    endloop
  endfacet
  facet normal 0 0 1
    outer loop
      vertex -0.65 2.5 0
      vertex 0.65 3 0
      vertex -0.65 3 0
    endloop
  endfacet
  facet normal 0 0 1
    outer loop
      vertex 0.65 2 0
      vertex -0.65 2.5 0
      vertex -0.65 2 0
    endloop
  endfacet
  facet normal 0 0 1
    outer loop
      vertex 0.65 3 0
      vertex 0 6 0
      vertex -0.65 3 0
    endloop
  endfacet
  facet normal 0 0 1
    outer loop
      vertex 2.25 0 0
      vertex 6 0 0
      vertex 5.98816 0.376742 0
    endloop
  endfacet
  facet normal 0 0 1
    outer loop
      vertex 2.25 0 0
      vertex 5.98816 0.376742 0
      vertex 5.95269 0.751999 0
    endloop
  endfacet
  facet normal 0 0 1
    outer loop
      vertex 6 0 0
      vertex 2.25 0 0
      vertex 5.98816 -0.376742 0
    endloop
  endfacet
  facet normal 0 0 1
    outer loop
      vertex 2.25 0 0
      vertex 5.95269 0.751999 0
      vertex 5.89372 1.12429 0
    endloop
  endfacet
  facet normal 0 0 1
    outer loop
      vertex 5.98816 -0.376742 0
      vertex 2.25 0 0
      vertex 5.95269 -0.751999 0
    endloop
  endfacet
  facet normal 0 0 1
    outer loop
      vertex 2.25 0 0
      vertex 5.89372 1.12429 0
      vertex 5.8115 1.49214 0
    endloop
  endfacet
  facet normal 0 0 1
    outer loop
      vertex 5.95269 -0.751999 0
      vertex 2.25 0 0
      vertex 5.89372 -1.12429 0
    endloop
  endfacet
  facet normal 0 0 1
    outer loop
      vertex 2.25 0 0
      vertex 5.8115 1.49214 0
      vertex 5.70634 1.8541 0
    endloop
  endfacet
  facet normal 0 0 1
    outer loop
      vertex 5.89372 -1.12429 0
      vertex 2.25 0 0
      vertex 5.8115 -1.49214 0
    endloop
  endfacet
  facet normal 0 0 1
    outer loop
      vertex 1.85 1.5 0
      vertex 5.70634 1.8541 0
      vertex 5.57866 2.20875 0
    endloop
  endfacet
  facet normal 0 0 1
    outer loop
      vertex 2.25 -2 0
      vertex 5.8115 -1.49214 0
      vertex 2.25 0 0
    endloop
  endfacet
  facet normal 0 0 1
    outer loop
      vertex 1.85 1.5 0
      vertex 5.57866 2.20875 0
      vertex 5.42896 2.55468 0
    endloop
  endfacet
  facet normal 0 0 1
    outer loop
      vertex 5.8115 -1.49214 0
      vertex 2.25 -2 0
      vertex 5.70634 -1.8541 0
    endloop
  endfacet
  facet normal 0 0 1
    outer loop
      vertex 1.85 2 0
      vertex 5.42896 2.55468 0
      vertex 5.25784 2.89052 0
    endloop
  endfacet
  facet normal 0 0 1
    outer loop
      vertex 5.70634 -1.8541 0
      vertex 2.25 -2 0
      vertex 5.57866 -2.20875 0
    endloop
  endfacet
  facet normal 0 0 1
    outer loop
      vertex 1.85 2 0
      vertex 5.25784 2.89052 0
      vertex 5.06597 3.21496 0
    endloop
  endfacet
  facet normal 0 0 1
    outer loop
      vertex 5.57866 -2.20875 0
      vertex 2.25 -2 0
      vertex 5.42896 -2.55468 0
    endloop
  endfacet
  facet normal 0 0 1
    outer loop
      vertex 1.85 2.5 0
      vertex 5.06597 3.21496 0
      vertex 4.8541 3.52671 0
    endloop
  endfacet
  facet normal 0 0 1
    outer loop
      vertex 5.42896 -2.55468 0
      vertex 2.25 -2 0
      vertex 5.25784 -2.89052 0
    endloop
  endfacet
  facet normal 0 0 1
    outer loop
      vertex 1.85 2.5 0
      vertex 4.8541 3.52671 0
      vertex 4.62308 3.82454 0
    endloop
  endfacet
  facet normal 0 0 1
    outer loop
      vertex 5.25784 -2.89052 0
      vertex 2.25 -2 0
      vertex 5.06597 -3.21496 0
    endloop
  endfacet
  facet normal 0 0 1
    outer loop
      vertex 1.85 3 0
      vertex 4.62308 3.82454 0
      vertex 4.37381 4.10728 0
    endloop
  endfacet
  facet normal 0 0 1
    outer loop
      vertex 5.06597 -3.21496 0
      vertex 2.25 -2 0
      vertex 4.8541 -3.52671 0
    endloop
  endfacet
  facet normal 0 0 1
    outer loop
      vertex 1.85 3 0
      vertex 4.37381 4.10728 0
      vertex 4.10728 4.37381 0
    endloop
  endfacet
  facet normal 0 0 1
    outer loop
      vertex 4.8541 -3.52671 0
      vertex 2.25 -2 0
      vertex 4.62308 -3.82454 0
    endloop
  endfacet
  facet normal 0 0 1
    outer loop
      vertex 1.85 3 0
      vertex 4.10728 4.37381 0
      vertex 3.82454 4.62308 0
    endloop
  endfacet
  facet normal 0 0 1
    outer loop
      vertex 4.62308 -3.82454 0
      vertex 2.25 -2 0
      vertex 4.37381 -4.10728 0
    endloop
  endfacet
  facet normal 0 0 1
    outer loop
      vertex 1.85 3 0
      vertex 3.82454 4.62308 0
      vertex 3.52671 4.8541 0
    endloop
  endfacet
  facet normal 0 0 1
    outer loop
      vertex 4.37381 -4.10728 0
      vertex 2.25 -2 0
      vertex 4.10728 -4.37381 0
    endloop
  endfacet
  facet normal 0 0 1
    outer loop
      vertex 1.85 3 0
      vertex 3.52671 4.8541 0
      vertex 3.21496 5.06597 0
    endloop
  endfacet
  facet normal 0 0 1
    outer loop
      vertex 4.10728 -4.37381 0
      vertex 2.25 -2 0
      vertex 3.82454 -4.62308 0
    endloop
  endfacet
  facet normal 0 0 1
    outer loop
      vertex 1.85 3 0
      vertex 3.21496 5.06597 0
      vertex 2.89052 5.25784 0
    endloop
  endfacet
  facet normal 0 0 1
    outer loop
      vertex 3.82454 -4.62308 0
      vertex 2.25 -2 0
      vertex 3.52671 -4.8541 0
    endloop
  endfacet
  facet normal 0 0 1
    outer loop
      vertex 1.85 3 0
      vertex 2.89052 5.25784 0
      vertex 2.55468 5.42896 0
    endloop
  endfacet
  facet normal 0 0 1
    outer loop
      vertex 3.52671 -4.8541 0
      vertex 2.25 -2 0
      vertex 3.21496 -5.06597 0
    endloop
  endfacet
  facet normal 0 0 1
    outer loop
      vertex 3.21496 -5.06597 0
      vertex 2.25 -2 0
      vertex 2.89052 -5.25784 0
    endloop
  endfacet
  facet normal 0 0 1
    outer loop
      vertex 1.85 3 0
      vertex 2.55468 5.42896 0
      vertex 2.20875 5.57866 0
    endloop
  endfacet
  facet normal 0 0 1
    outer loop
      vertex 1.85 3 0
      vertex 2.20875 5.57866 0
      vertex 1.8541 5.70634 0
    endloop
  endfacet
  facet normal 0 0 1
    outer loop
      vertex 4.62308 3.82454 0
      vertex 1.85 3 0
      vertex 1.85 2.5 0
    endloop
  endfacet
  facet normal 0 0 1
    outer loop
      vertex 5.06597 3.21496 0
      vertex 1.85 2.5 0
      vertex 1.85 2 0
    endloop
  endfacet
  facet normal 0 0 1
    outer loop
      vertex 5.42896 2.55468 0
      vertex 1.85 2 0
      vertex 1.85 1.5 0
    endloop
  endfacet
  facet normal 0 0 1
    outer loop
      vertex 5.70634 1.8541 0
      vertex 1.85 1.5 0
      vertex 1.85 1 0
    endloop
  endfacet
  facet normal 0 0 1
    outer loop
      vertex 5.70634 1.8541 0
      vertex 1.85 1 0
      vertex 2.25 0 0
    endloop
  endfacet
  facet normal 0 0 1
    outer loop
      vertex 2.25 0 0
      vertex 1.85 1 0
      vertex 1.85 0 0
    endloop
  endfacet
  facet normal 0 0 1
    outer loop
      vertex 2.89052 -5.25784 0
      vertex 2.25 -2 0
      vertex 2.55468 -5.42896 0
    endloop
  endfacet
  facet normal 0 0 1
    outer loop
      vertex 2.25 -2 0
      vertex 2.20875 -5.57866 0
      vertex 2.55468 -5.42896 0
    endloop
  endfacet
  facet normal 0 0 1
    outer loop
      vertex 2.25 -2 0
      vertex 1.8541 -5.70634 0
      vertex 2.20875 -5.57866 0
    endloop
  endfacet
  facet normal -0 0 1
    outer loop
      vertex 0.25 -2 0
      vertex 1.8541 -5.70634 0
      vertex 2.25 -2 0
    endloop
  endfacet
  facet normal 0 0 1
    outer loop
      vertex 1.8541 -5.70634 0
      vertex 0.25 -2 0
      vertex 1.49214 -5.8115 0
    endloop
  endfacet
  facet normal 0 0 1
    outer loop
      vertex 1.49214 -5.8115 0
      vertex 0.25 -2 0
      vertex 1.12429 -5.89372 0
    endloop
  endfacet
  facet normal 0 0 1
    outer loop
      vertex 1.12429 -5.89372 0
      vertex 0.25 -2 0
      vertex 0.751999 -5.95269 0
    endloop
  endfacet
  facet normal 0 0 1
    outer loop
      vertex 0.751999 -5.95269 0
      vertex 0.25 -2 0
      vertex 0.376742 -5.98816 0
    endloop
  endfacet
  facet normal 0 0 1
    outer loop
      vertex 0.25 -2 0
      vertex 0 -6 0
      vertex 0.376742 -5.98816 0
    endloop
  endfacet
  facet normal 0 0 1
    outer loop
      vertex 0.25 0 0
      vertex -0.25 0 0
      vertex 0.25 -2 0
    endloop
  endfacet
  facet normal 0 0 1
    outer loop
      vertex -0.25 -2 0
      vertex 0.25 -2 0
      vertex -0.25 0 0
    endloop
  endfacet
  facet normal 0 0 1
    outer loop
      vertex -0.65 3 0
      vertex 0 6 0
      vertex -0.376742 5.98816 0
    endloop
  endfacet
  facet normal 0 0 1
    outer loop
      vertex 0.65 1.5 0
      vertex -0.65 1.5 0
      vertex 0.65 1 0
    endloop
  endfacet
  facet normal 0 0 1
    outer loop
      vertex -0.65 1 0
      vertex 0.65 1 0
      vertex -0.65 1.5 0
    endloop
  endfacet
  facet normal 0 -0 1
    outer loop
      vertex 0.25 0 0
      vertex 0.65 1 0
      vertex -0.65 1 0
    endloop
  endfacet
  facet normal 0 0 1
    outer loop
      vertex 0.65 1 0
      vertex 0.25 0 0
      vertex 0.65 0 0
    endloop
  endfacet
  facet normal 0 0 1
    outer loop
      vertex 0.25 0 0
      vertex -0.65 1 0
      vertex -0.25 0 0
    endloop
  endfacet
  facet normal 0 0 1
    outer loop
      vertex -0.25 0 0
      vertex -0.65 1 0
      vertex -0.65 0 0
    endloop
  endfacet
  facet normal 0 1 0
    outer loop
      vertex -0.65 0 2.25
      vertex -0.250001 0 2.55
      vertex -0.250001 0 2.25
    endloop
  endfacet
  facet normal 0 1 0
    outer loop
      vertex -0.250001 0 2.55
      vertex -0.65 0 2.25
      vertex -0.750001 0 2.25
    endloop
  endfacet
  facet normal 0 1 -0
    outer loop
      vertex -0.25 0 0
      vertex -0.250001 0 2.25
      vertex -0.25 0 2.25
    endloop
  endfacet
  facet normal 0 1 0
    outer loop
      vertex -0.250001 0 2.25
      vertex -0.25 0 0
      vertex -0.65 0 2.25
    endloop
  endfacet
  facet normal 0 1 0
    outer loop
      vertex -0.65 0 2.25
      vertex -0.25 0 0
      vertex -0.65 0 0
    endloop
  endfacet
  facet normal 0 1 -0
    outer loop
      vertex -1.85 0 2.25
      vertex -2.25 0 2.55
      vertex -1.75 0 2.25
    endloop
  endfacet
  facet normal 0 1 0
    outer loop
      vertex -1.85 0 2.25
      vertex -2.25 0 2.25
      vertex -2.25 0 2.55
    endloop
  endfacet
  facet normal 0 1 -0
    outer loop
      vertex -1.85 0 0
      vertex -2.25 0 2.25
      vertex -1.85 0 2.25
    endloop
  endfacet
  facet normal 0 1 0
    outer loop
      vertex -2.25 0 0
      vertex -2.25 0 2.25
      vertex -1.85 0 0
    endloop
  endfacet
  facet normal -1 0 0
    outer loop
      vertex -1.85 1.5 0
      vertex -1.85 2 2.25
      vertex -1.85 2 0
    endloop
  endfacet
  facet normal -1 -0 0
    outer loop
      vertex -1.85 2 2.25
      vertex -1.85 1.5 0
      vertex -1.85 1.5 2.25
    endloop
  endfacet
  facet normal -0 0 1
    outer loop
      vertex -1.85 2 2.25
      vertex -0.65 1.5 2.25
      vertex -0.65 2 2.25
    endloop
  endfacet
  facet normal 0 0 1
    outer loop
      vertex -0.65 1.5 2.25
      vertex -1.85 2 2.25
      vertex -1.85 1.5 2.25
    endloop
  endfacet
  facet normal 1 -0 0
    outer loop
      vertex -0.65 1.5 2.25
      vertex -0.65 2 0
      vertex -0.65 2 2.25
    endloop
  endfacet
  facet normal 1 0 0
    outer loop
      vertex -0.65 2 0
      vertex -0.65 1.5 2.25
      vertex -0.65 1.5 0
    endloop
  endfacet
  facet normal 0 1 -0
    outer loop
      vertex -0.65 2 0
      vertex -1.85 2 2.25
      vertex -0.65 2 2.25
    endloop
  endfacet
  facet normal 0 1 0
    outer loop
      vertex -1.85 2 2.25
      vertex -0.65 2 0
      vertex -1.85 2 0
    endloop
  endfacet
  facet normal 0 -1 0
    outer loop
      vertex -1.85 1.5 0
      vertex -0.65 1.5 2.25
      vertex -1.85 1.5 2.25
    endloop
  endfacet
  facet normal 0 -1 -0
    outer loop
      vertex -0.65 1.5 2.25
      vertex -1.85 1.5 0
      vertex -0.65 1.5 0
    endloop
  endfacet
  facet normal -1 0 0
    outer loop
      vertex -1.85 2.5 0
      vertex -1.85 3 2.25
      vertex -1.85 3 0
    endloop
  endfacet
  facet normal -1 -0 0
    outer loop
      vertex -1.85 3 2.25
      vertex -1.85 2.5 0
      vertex -1.85 2.5 2.25
    endloop
  endfacet
  facet normal -0 0 1
    outer loop
      vertex -1.85 3 2.25
      vertex -0.65 2.5 2.25
      vertex -0.65 3 2.25
    endloop
  endfacet
  facet normal 0 0 1
    outer loop
      vertex -0.65 2.5 2.25
      vertex -1.85 3 2.25
      vertex -1.85 2.5 2.25
    endloop
  endfacet
  facet normal 1 -0 0
    outer loop
      vertex -0.65 2.5 2.25
      vertex -0.65 3 0
      vertex -0.65 3 2.25
    endloop
  endfacet
  facet normal 1 0 0
    outer loop
      vertex -0.65 3 0
      vertex -0.65 2.5 2.25
      vertex -0.65 2.5 0
    endloop
  endfacet
  facet normal 0 -1 0
    outer loop
      vertex -1.85 2.5 0
      vertex -0.65 2.5 2.25
      vertex -1.85 2.5 2.25
    endloop
  endfacet
  facet normal 0 -1 -0
    outer loop
      vertex -0.65 2.5 2.25
      vertex -1.85 2.5 0
      vertex -0.65 2.5 0
    endloop
  endfacet
  facet normal 0 1 -0
    outer loop
      vertex -0.65 3 0
      vertex -1.85 3 2.25
      vertex -0.65 3 2.25
    endloop
  endfacet
  facet normal 0 1 0
    outer loop
      vertex -1.85 3 2.25
      vertex -0.65 3 0
      vertex -1.85 3 0
    endloop
  endfacet
  facet normal -1 0 0
    outer loop
      vertex -2.25 -2 0
      vertex -2.25 0 2.25
      vertex -2.25 0 0
    endloop
  endfacet
  facet normal -1 -0 0
    outer loop
      vertex -2.25 0 2.25
      vertex -2.25 -2 0
      vertex -2.25 -2 2.25
    endloop
  endfacet
  facet normal 1 -0 0
    outer loop
      vertex -0.25 -2 2.25
      vertex -0.25 0 0
      vertex -0.25 0 2.25
    endloop
  endfacet
  facet normal 1 0 0
    outer loop
      vertex -0.25 0 0
      vertex -0.25 -2 2.25
      vertex -0.25 -2 0
    endloop
  endfacet
  facet normal 0 -1 0
    outer loop
      vertex -2.25 -2 2.25
      vertex -1.75 -2 2.25
      vertex -2.25 -2 2.55
    endloop
  endfacet
  facet normal 0 -1 0
    outer loop
      vertex -2.25 -2 0
      vertex -1.75 -2 2.25
      vertex -2.25 -2 2.25
    endloop
  endfacet
  facet normal 0 -1 -0
    outer loop
      vertex -1.75 -2 2.25
      vertex -2.25 -2 0
      vertex -0.75 -2 2.25
    endloop
  endfacet
  facet normal 0 -1 0
    outer loop
      vertex -0.25 -2 0
      vertex -0.75 -2 2.25
      vertex -2.25 -2 0
    endloop
  endfacet
  facet normal 0 -1 0
    outer loop
      vertex -0.75 -2 2.25
      vertex -0.25 -2 0
      vertex -0.25 -2 2.25
    endloop
  endfacet
  facet normal 0 -1 -0
    outer loop
      vertex -0.25 -2 2.55
      vertex -0.75 -2 2.25
      vertex -0.25 -2 2.25
    endloop
  endfacet
  facet normal -1 4.76837e-07 0
    outer loop
      vertex -2.25 -2 2.25
      vertex -2.25 0 2.55
      vertex -2.25 0 2.25
    endloop
  endfacet
  facet normal -1 4.76837e-07 0
    outer loop
      vertex -2.25 0 2.55
      vertex -2.25 -2 2.25
      vertex -2.25 -2 2.55
    endloop
  endfacet
  facet normal 0.514495 -2.4533e-07 0.857494
    outer loop
      vertex -2.25 0 2.55
      vertex -1.75 -2 2.25
      vertex -1.75 0 2.25
    endloop
  endfacet
  facet normal 0.514495 -2.4533e-07 0.857494
    outer loop
      vertex -1.75 -2 2.25
      vertex -2.25 0 2.55
      vertex -2.25 -2 2.55
    endloop
  endfacet
  facet normal 1 4.76837e-07 0
    outer loop
      vertex -0.25 -2 2.55
      vertex -0.250001 0 2.25
      vertex -0.250001 0 2.55
    endloop
  endfacet
  facet normal 1 4.76837e-07 0
    outer loop
      vertex -0.250001 0 2.25
      vertex -0.25 -2 2.55
      vertex -0.25 -2 2.25
    endloop
  endfacet
  facet normal -0.514495 -2.4533e-07 0.857494
    outer loop
      vertex -0.250001 0 2.55
      vertex -0.75 -2 2.25
      vertex -0.25 -2 2.55
    endloop
  endfacet
  facet normal -0.514495 -2.4533e-07 0.857494
    outer loop
      vertex -0.75 -2 2.25
      vertex -0.250001 0 2.55
      vertex -0.750001 0 2.25
    endloop
  endfacet
  facet normal -1 0 0
    outer loop
      vertex 0.65 0 0
      vertex 0.65 1 2.25
      vertex 0.65 1 0
    endloop
  endfacet
  facet normal -1 -0 0
    outer loop
      vertex 0.65 1 2.25
      vertex 0.65 0 0
      vertex 0.65 0 2.25
    endloop
  endfacet
  facet normal 0 0 1
    outer loop
      vertex 1.85 1 2.25
      vertex 1.75 0 2.25
      vertex 1.85 0 2.25
    endloop
  endfacet
  facet normal 0 0 1
    outer loop
      vertex 1.85 1 2.25
      vertex 0.750001 0 2.25
      vertex 1.75 0 2.25
    endloop
  endfacet
  facet normal -0 0 1
    outer loop
      vertex 0.65 1 2.25
      vertex 0.750001 0 2.25
      vertex 1.85 1 2.25
    endloop
  endfacet
  facet normal 0 0 1
    outer loop
      vertex 0.750001 0 2.25
      vertex 0.65 1 2.25
      vertex 0.65 0 2.25
    endloop
  endfacet
  facet normal -0 0 1
    outer loop
      vertex 0.750001 0 2.25
      vertex 1.75 -2 2.25
      vertex 1.75 0 2.25
    endloop
  endfacet
  facet normal 0 0 1
    outer loop
      vertex 1.75 -2 2.25
      vertex 0.750001 0 2.25
      vertex 0.75 -2 2.25
    endloop
  endfacet
  facet normal -0 0 1
    outer loop
      vertex 0.25 0 2.25
      vertex 0.25 -2 2.25
      vertex 0.250001 0 2.25
    endloop
  endfacet
  facet normal 1 -0 0
    outer loop
      vertex 1.85 0 2.25
      vertex 1.85 1 0
      vertex 1.85 1 2.25
    endloop
  endfacet
  facet normal 1 0 0
    outer loop
      vertex 1.85 1 0
      vertex 1.85 0 2.25
      vertex 1.85 0 0
    endloop
  endfacet
  facet normal 0 1 -0
    outer loop
      vertex 1.85 1 0
      vertex 0.65 1 2.25
      vertex 1.85 1 2.25
    endloop
  endfacet
  facet normal 0 1 0
    outer loop
      vertex 0.65 1 2.25
      vertex 1.85 1 0
      vertex 0.65 1 0
    endloop
  endfacet
  facet normal 0 1 0
    outer loop
      vertex 1.85 0 2.25
      vertex 2.25 0 2.55
      vertex 2.25 0 2.25
    endloop
  endfacet
  facet normal 0 1 0
    outer loop
      vertex 2.25 0 2.55
      vertex 1.85 0 2.25
      vertex 1.75 0 2.25
    endloop
  endfacet
  facet normal 0 1 0
    outer loop
      vertex 2.25 0 2.25
      vertex 2.25 0 0
      vertex 1.85 0 2.25
    endloop
  endfacet
  facet normal 0 1 0
    outer loop
      vertex 1.85 0 2.25
      vertex 2.25 0 0
      vertex 1.85 0 0
    endloop
  endfacet
  facet normal 0 1 -0
    outer loop
      vertex 0.65 0 2.25
      vertex 0.250001 0 2.55
      vertex 0.750001 0 2.25
    endloop
  endfacet
  facet normal 0 1 0
    outer loop
      vertex 0.65 0 2.25
      vertex 0.250001 0 2.25
      vertex 0.250001 0 2.55
    endloop
  endfacet
  facet normal 0 1 -0
    outer loop
      vertex 0.65 0 0
      vertex 0.250001 0 2.25
      vertex 0.65 0 2.25
    endloop
  endfacet
  facet normal 0 1 0
    outer loop
      vertex 0.25 0 0
      vertex 0.250001 0 2.25
      vertex 0.65 0 0
    endloop
  endfacet
  facet normal 0 1 0
    outer loop
      vertex 0.250001 0 2.25
      vertex 0.25 0 0
      vertex 0.25 0 2.25
    endloop
  endfacet
  facet normal -1 0 0
    outer loop
      vertex 0.65 1.5 0
      vertex 0.65 2 2.25
      vertex 0.65 2 0
    endloop
  endfacet
  facet normal -1 -0 0
    outer loop
      vertex 0.65 2 2.25
      vertex 0.65 1.5 0
      vertex 0.65 1.5 2.25
    endloop
  endfacet
  facet normal -0 0 1
    outer loop
      vertex 0.65 2 2.25
      vertex 1.85 1.5 2.25
      vertex 1.85 2 2.25
    endloop
  endfacet
  facet normal 0 0 1
    outer loop
      vertex 1.85 1.5 2.25
      vertex 0.65 2 2.25
      vertex 0.65 1.5 2.25
    endloop
  endfacet
  facet normal 1 -0 0
    outer loop
      vertex 1.85 1.5 2.25
      vertex 1.85 2 0
      vertex 1.85 2 2.25
    endloop
  endfacet
  facet normal 1 0 0
    outer loop
      vertex 1.85 2 0
      vertex 1.85 1.5 2.25
      vertex 1.85 1.5 0
    endloop
  endfacet
  facet normal 0 1 -0
    outer loop
      vertex 1.85 2 0
      vertex 0.65 2 2.25
      vertex 1.85 2 2.25
    endloop
  endfacet
  facet normal 0 1 0
    outer loop
      vertex 0.65 2 2.25
      vertex 1.85 2 0
      vertex 0.65 2 0
    endloop
  endfacet
  facet normal 0 -1 0
    outer loop
      vertex 0.65 1.5 0
      vertex 1.85 1.5 2.25
      vertex 0.65 1.5 2.25
    endloop
  endfacet
  facet normal 0 -1 -0
    outer loop
      vertex 1.85 1.5 2.25
      vertex 0.65 1.5 0
      vertex 1.85 1.5 0
    endloop
  endfacet
  facet normal -1 0 0
    outer loop
      vertex 0.65 2.5 0
      vertex 0.65 3 2.25
      vertex 0.65 3 0
    endloop
  endfacet
  facet normal -1 -0 0
    outer loop
      vertex 0.65 3 2.25
      vertex 0.65 2.5 0
      vertex 0.65 2.5 2.25
    endloop
  endfacet
  facet normal -0 0 1
    outer loop
      vertex 0.65 3 2.25
      vertex 1.85 2.5 2.25
      vertex 1.85 3 2.25
    endloop
  endfacet
  facet normal 0 0 1
    outer loop
      vertex 1.85 2.5 2.25
      vertex 0.65 3 2.25
      vertex 0.65 2.5 2.25
    endloop
  endfacet
  facet normal 1 -0 0
    outer loop
      vertex 1.85 2.5 2.25
      vertex 1.85 3 0
      vertex 1.85 3 2.25
    endloop
  endfacet
  facet normal 1 0 0
    outer loop
      vertex 1.85 3 0
      vertex 1.85 2.5 2.25
      vertex 1.85 2.5 0
    endloop
  endfacet
  facet normal 0 -1 0
    outer loop
      vertex 0.65 2.5 0
      vertex 1.85 2.5 2.25
      vertex 0.65 2.5 2.25
    endloop
  endfacet
  facet normal 0 -1 -0
    outer loop
      vertex 1.85 2.5 2.25
      vertex 0.65 2.5 0
      vertex 1.85 2.5 0
    endloop
  endfacet
  facet normal 0 1 -0
    outer loop
      vertex 1.85 3 0
      vertex 0.65 3 2.25
      vertex 1.85 3 2.25
    endloop
  endfacet
  facet normal 0 1 0
    outer loop
      vertex 0.65 3 2.25
      vertex 1.85 3 0
      vertex 0.65 3 0
    endloop
  endfacet
  facet normal -1 0 0
    outer loop
      vertex 0.25 -2 0
      vertex 0.25 0 2.25
      vertex 0.25 0 0
    endloop
  endfacet
  facet normal -1 -0 0
    outer loop
      vertex 0.25 0 2.25
      vertex 0.25 -2 0
      vertex 0.25 -2 2.25
    endloop
  endfacet
  facet normal 1 -0 0
    outer loop
      vertex 2.25 -2 2.25
      vertex 2.25 0 0
      vertex 2.25 0 2.25
    endloop
  endfacet
  facet normal 1 0 0
    outer loop
      vertex 2.25 0 0
      vertex 2.25 -2 2.25
      vertex 2.25 -2 0
    endloop
  endfacet
  facet normal 0 -1 0
    outer loop
      vertex 0.25 -2 2.25
      vertex 0.75 -2 2.25
      vertex 0.25 -2 2.55
    endloop
  endfacet
  facet normal 0 -1 0
    outer loop
      vertex 0.25 -2 0
      vertex 0.75 -2 2.25
      vertex 0.25 -2 2.25
    endloop
  endfacet
  facet normal 0 -1 -0
    outer loop
      vertex 0.75 -2 2.25
      vertex 0.25 -2 0
      vertex 1.75 -2 2.25
    endloop
  endfacet
  facet normal 0 -1 0
    outer loop
      vertex 2.25 -2 0
      vertex 1.75 -2 2.25
      vertex 0.25 -2 0
    endloop
  endfacet
  facet normal 0 -1 0
    outer loop
      vertex 1.75 -2 2.25
      vertex 2.25 -2 0
      vertex 2.25 -2 2.25
    endloop
  endfacet
  facet normal 0 -1 -0
    outer loop
      vertex 2.25 -2 2.55
      vertex 1.75 -2 2.25
      vertex 2.25 -2 2.25
    endloop
  endfacet
  facet normal -1 4.76837e-07 0
    outer loop
      vertex 0.25 -2 2.25
      vertex 0.250001 0 2.55
      vertex 0.250001 0 2.25
    endloop
  endfacet
  facet normal -1 4.76837e-07 0
    outer loop
      vertex 0.250001 0 2.55
      vertex 0.25 -2 2.25
      vertex 0.25 -2 2.55
    endloop
  endfacet
  facet normal 0.514495 -2.4533e-07 0.857494
    outer loop
      vertex 0.250001 0 2.55
      vertex 0.75 -2 2.25
      vertex 0.750001 0 2.25
    endloop
  endfacet
  facet normal 0.514495 -2.4533e-07 0.857494
    outer loop
      vertex 0.75 -2 2.25
      vertex 0.250001 0 2.55
      vertex 0.25 -2 2.55
    endloop
  endfacet
  facet normal 1 4.76837e-07 0
    outer loop
      vertex 2.25 -2 2.55
      vertex 2.25 0 2.25
      vertex 2.25 0 2.55
    endloop
  endfacet
  facet normal 1 4.76837e-07 0
    outer loop
      vertex 2.25 0 2.25
      vertex 2.25 -2 2.55
      vertex 2.25 -2 2.25
    endloop
  endfacet
  facet normal -0.514495 -2.4533e-07 0.857494
    outer loop
      vertex 2.25 0 2.55
      vertex 1.75 -2 2.25
      vertex 2.25 -2 2.55
    endloop
  endfacet
  facet normal -0.514495 -2.4533e-07 0.857494
    outer loop
      vertex 1.75 -2 2.25
      vertex 2.25 0 2.55
      vertex 1.75 0 2.25
    endloop
  endfacet
  facet normal 0.999507 0.0314115 0
    outer loop
      vertex 6 0 0
      vertex 5.98816 0.376742 -3
      vertex 5.98816 0.376742 0
    endloop
  endfacet
  facet normal 0.999507 0.0314115 0
    outer loop
      vertex 5.98816 0.376742 -3
      vertex 6 0 0
      vertex 6 0 -3
    endloop
  endfacet
  facet normal -0.999507 0.0314115 0
    outer loop
      vertex -6 0 -3
      vertex -5.98816 0.376742 0
      vertex -5.98816 0.376742 -3
    endloop
  endfacet
  facet normal -0.999507 0.0314115 0
    outer loop
      vertex -5.98816 0.376742 0
      vertex -6 0 -3
      vertex -6 0 0
    endloop
  endfacet
  facet normal 0.0314115 0.999507 -0
    outer loop
      vertex 0.376742 5.98816 -3
      vertex 0 6 0
      vertex 0.376742 5.98816 0
    endloop
  endfacet
  facet normal 0.0314115 0.999507 0
    outer loop
      vertex 0 6 0
      vertex 0.376742 5.98816 -3
      vertex 0 6 -3
    endloop
  endfacet
  facet normal 0.707107 0.707107 0
    outer loop
      vertex 4.37381 4.10728 0
      vertex 4.10728 4.37381 -3
      vertex 4.10728 4.37381 0
    endloop
  endfacet
  facet normal 0.707107 0.707107 0
    outer loop
      vertex 4.10728 4.37381 -3
      vertex 4.37381 4.10728 0
      vertex 4.37381 4.10728 -3
    endloop
  endfacet
  facet normal -0.661312 0.750111 0
    outer loop
      vertex -3.82454 4.62308 -3
      vertex -4.10728 4.37381 0
      vertex -3.82454 4.62308 0
    endloop
  endfacet
  facet normal -0.661312 0.750111 0
    outer loop
      vertex -4.10728 4.37381 0
      vertex -3.82454 4.62308 -3
      vertex -4.10728 4.37381 -3
    endloop
  endfacet
  facet normal -0.338739 0.94088 0
    outer loop
      vertex -1.8541 5.70634 -3
      vertex -2.20875 5.57866 0
      vertex -1.8541 5.70634 0
    endloop
  endfacet
  facet normal -0.338739 0.94088 0
    outer loop
      vertex -2.20875 5.57866 0
      vertex -1.8541 5.70634 -3
      vertex -2.20875 5.57866 -3
    endloop
  endfacet
  facet normal 0.917755 0.397148 0
    outer loop
      vertex 5.57866 2.20875 0
      vertex 5.42896 2.55468 -3
      vertex 5.42896 2.55468 0
    endloop
  endfacet
  facet normal 0.917755 0.397148 0
    outer loop
      vertex 5.42896 2.55468 -3
      vertex 5.57866 2.20875 0
      vertex 5.57866 2.20875 -3
    endloop
  endfacet
  facet normal -0.827081 0.562082 0
    outer loop
      vertex -5.06597 3.21496 -3
      vertex -4.8541 3.52671 0
      vertex -4.8541 3.52671 -3
    endloop
  endfacet
  facet normal -0.827081 0.562082 0
    outer loop
      vertex -4.8541 3.52671 0
      vertex -5.06597 3.21496 -3
      vertex -5.06597 3.21496 0
    endloop
  endfacet
  facet normal -0.0941101 0.995562 0
    outer loop
      vertex -0.376742 5.98816 -3
      vertex -0.751999 5.95269 0
      vertex -0.376742 5.98816 0
    endloop
  endfacet
  facet normal -0.0941101 0.995562 0
    outer loop
      vertex -0.751999 5.95269 0
      vertex -0.376742 5.98816 -3
      vertex -0.751999 5.95269 -3
    endloop
  endfacet
  facet normal 0.891007 -0.453991 0
    outer loop
      vertex 5.25784 -2.89052 0
      vertex 5.42896 -2.55468 -3
      vertex 5.42896 -2.55468 0
    endloop
  endfacet
  facet normal 0.891007 -0.453991 0
    outer loop
      vertex 5.42896 -2.55468 -3
      vertex 5.25784 -2.89052 0
      vertex 5.25784 -2.89052 -3
    endloop
  endfacet
  facet normal 0.218144 -0.975917 0
    outer loop
      vertex 1.12429 -5.89372 -3
      vertex 1.49214 -5.8115 0
      vertex 1.12429 -5.89372 0
    endloop
  endfacet
  facet normal 0.218144 -0.975917 0
    outer loop
      vertex 1.49214 -5.8115 0
      vertex 1.12429 -5.89372 -3
      vertex 1.49214 -5.8115 -3
    endloop
  endfacet
  facet normal 0.707107 -0.707107 0
    outer loop
      vertex 4.10728 -4.37381 0
      vertex 4.37381 -4.10728 -3
      vertex 4.37381 -4.10728 0
    endloop
  endfacet
  facet normal 0.707107 -0.707107 0
    outer loop
      vertex 4.37381 -4.10728 -3
      vertex 4.10728 -4.37381 0
      vertex 4.10728 -4.37381 -3
    endloop
  endfacet
  facet normal -0.397148 -0.917755 0
    outer loop
      vertex -2.55468 -5.42896 -3
      vertex -2.20875 -5.57866 0
      vertex -2.55468 -5.42896 0
    endloop
  endfacet
  facet normal -0.397148 -0.917755 -0
    outer loop
      vertex -2.20875 -5.57866 0
      vertex -2.55468 -5.42896 -3
      vertex -2.20875 -5.57866 -3
    endloop
  endfacet
  facet normal -0.790155 -0.612907 0
    outer loop
      vertex -4.62308 -3.82454 -3
      vertex -4.8541 -3.52671 0
      vertex -4.8541 -3.52671 -3
    endloop
  endfacet
  facet normal -0.790155 -0.612907 0
    outer loop
      vertex -4.8541 -3.52671 0
      vertex -4.62308 -3.82454 -3
      vertex -4.62308 -3.82454 0
    endloop
  endfacet
  facet normal -0.827081 -0.562082 0
    outer loop
      vertex -4.8541 -3.52671 -3
      vertex -5.06597 -3.21496 0
      vertex -5.06597 -3.21496 -3
    endloop
  endfacet
  facet normal -0.827081 -0.562082 0
    outer loop
      vertex -5.06597 -3.21496 0
      vertex -4.8541 -3.52671 -3
      vertex -4.8541 -3.52671 0
    endloop
  endfacet
  facet normal -0.987689 -0.156432 0
    outer loop
      vertex -5.89372 -1.12429 -3
      vertex -5.95269 -0.751999 0
      vertex -5.95269 -0.751999 -3
    endloop
  endfacet
  facet normal -0.987689 -0.156432 0
    outer loop
      vertex -5.95269 -0.751999 0
      vertex -5.89372 -1.12429 -3
      vertex -5.89372 -1.12429 0
    endloop
  endfacet
  facet normal 0 0 -1
    outer loop
      vertex 5.98816 -0.376742 -3
      vertex 5.98816 0.376742 -3
      vertex 6 0 -3
    endloop
  endfacet
  facet normal 0 0 -1
    outer loop
      vertex 5.95269 -0.751999 -3
      vertex 5.98816 0.376742 -3
      vertex 5.98816 -0.376742 -3
    endloop
  endfacet
  facet normal 0 0 -1
    outer loop
      vertex 5.95269 -0.751999 -3
      vertex 5.95269 0.751999 -3
      vertex 5.98816 0.376742 -3
    endloop
  endfacet
  facet normal 0 0 -1
    outer loop
      vertex 5.89372 -1.12429 -3
      vertex 5.95269 0.751999 -3
      vertex 5.95269 -0.751999 -3
    endloop
  endfacet
  facet normal 0 0 -1
    outer loop
      vertex 5.89372 -1.12429 -3
      vertex 5.89372 1.12429 -3
      vertex 5.95269 0.751999 -3
    endloop
  endfacet
  facet normal 0 0 -1
    outer loop
      vertex 5.8115 -1.49214 -3
      vertex 5.89372 1.12429 -3
      vertex 5.89372 -1.12429 -3
    endloop
  endfacet
  facet normal 0 0 -1
    outer loop
      vertex 5.8115 -1.49214 -3
      vertex 5.8115 1.49214 -3
      vertex 5.89372 1.12429 -3
    endloop
  endfacet
  facet normal 0 0 -1
    outer loop
      vertex 5.70634 -1.8541 -3
      vertex 5.8115 1.49214 -3
      vertex 5.8115 -1.49214 -3
    endloop
  endfacet
  facet normal 0 0 -1
    outer loop
      vertex 5.70634 -1.8541 -3
      vertex 5.70634 1.8541 -3
      vertex 5.8115 1.49214 -3
    endloop
  endfacet
  facet normal 0 0 -1
    outer loop
      vertex 5.57866 -2.20875 -3
      vertex 5.70634 1.8541 -3
      vertex 5.70634 -1.8541 -3
    endloop
  endfacet
  facet normal 0 0 -1
    outer loop
      vertex 5.57866 -2.20875 -3
      vertex 5.57866 2.20875 -3
      vertex 5.70634 1.8541 -3
    endloop
  endfacet
  facet normal 0 0 -1
    outer loop
      vertex 5.42896 -2.55468 -3
      vertex 5.57866 2.20875 -3
      vertex 5.57866 -2.20875 -3
    endloop
  endfacet
  facet normal 0 0 -1
    outer loop
      vertex 5.42896 -2.55468 -3
      vertex 5.42896 2.55468 -3
      vertex 5.57866 2.20875 -3
    endloop
  endfacet
  facet normal 0 0 -1
    outer loop
      vertex 5.25784 -2.89052 -3
      vertex 5.42896 2.55468 -3
      vertex 5.42896 -2.55468 -3
    endloop
  endfacet
  facet normal 0 0 -1
    outer loop
      vertex 5.25784 -2.89052 -3
      vertex 5.25784 2.89052 -3
      vertex 5.42896 2.55468 -3
    endloop
  endfacet
  facet normal 0 0 -1
    outer loop
      vertex 5.06597 -3.21496 -3
      vertex 5.25784 2.89052 -3
      vertex 5.25784 -2.89052 -3
    endloop
  endfacet
  facet normal 0 0 -1
    outer loop
      vertex 5.06597 -3.21496 -3
      vertex 5.06597 3.21496 -3
      vertex 5.25784 2.89052 -3
    endloop
  endfacet
  facet normal 0 0 -1
    outer loop
      vertex 4.8541 -3.52671 -3
      vertex 5.06597 3.21496 -3
      vertex 5.06597 -3.21496 -3
    endloop
  endfacet
  facet normal 0 0 -1
    outer loop
      vertex 4.8541 -3.52671 -3
      vertex 4.8541 3.52671 -3
      vertex 5.06597 3.21496 -3
    endloop
  endfacet
  facet normal 0 0 -1
    outer loop
      vertex 4.62308 -3.82454 -3
      vertex 4.8541 3.52671 -3
      vertex 4.8541 -3.52671 -3
    endloop
  endfacet
  facet normal 0 0 -1
    outer loop
      vertex 4.62308 -3.82454 -3
      vertex 4.62308 3.82454 -3
      vertex 4.8541 3.52671 -3
    endloop
  endfacet
  facet normal 0 0 -1
    outer loop
      vertex 4.37381 -4.10728 -3
      vertex 4.62308 3.82454 -3
      vertex 4.62308 -3.82454 -3
    endloop
  endfacet
  facet normal 0 0 -1
    outer loop
      vertex 4.37381 -4.10728 -3
      vertex 4.37381 4.10728 -3
      vertex 4.62308 3.82454 -3
    endloop
  endfacet
  facet normal 0 0 -1
    outer loop
      vertex 4.10728 -4.37381 -3
      vertex 4.37381 4.10728 -3
      vertex 4.37381 -4.10728 -3
    endloop
  endfacet
  facet normal 0 0 -1
    outer loop
      vertex 4.10728 -4.37381 -3
      vertex 4.10728 4.37381 -3
      vertex 4.37381 4.10728 -3
    endloop
  endfacet
  facet normal 0 0 -1
    outer loop
      vertex 3.82454 -4.62308 -3
      vertex 4.10728 4.37381 -3
      vertex 4.10728 -4.37381 -3
    endloop
  endfacet
  facet normal 0 0 -1
    outer loop
      vertex 3.82454 -4.62308 -3
      vertex 3.82454 4.62308 -3
      vertex 4.10728 4.37381 -3
    endloop
  endfacet
  facet normal 0 0 -1
    outer loop
      vertex 3.52671 -4.8541 -3
      vertex 3.82454 4.62308 -3
      vertex 3.82454 -4.62308 -3
    endloop
  endfacet
  facet normal 0 0 -1
    outer loop
      vertex 3.52671 -4.8541 -3
      vertex 3.52671 4.8541 -3
      vertex 3.82454 4.62308 -3
    endloop
  endfacet
  facet normal 0 0 -1
    outer loop
      vertex 3.21496 -5.06597 -3
      vertex 3.52671 4.8541 -3
      vertex 3.52671 -4.8541 -3
    endloop
  endfacet
  facet normal 0 0 -1
    outer loop
      vertex 3.21496 -5.06597 -3
      vertex 3.21496 5.06597 -3
      vertex 3.52671 4.8541 -3
    endloop
  endfacet
  facet normal 0 0 -1
    outer loop
      vertex 2.89052 -5.25784 -3
      vertex 3.21496 5.06597 -3
      vertex 3.21496 -5.06597 -3
    endloop
  endfacet
  facet normal 0 0 -1
    outer loop
      vertex 2.89052 -5.25784 -3
      vertex 2.89052 5.25784 -3
      vertex 3.21496 5.06597 -3
    endloop
  endfacet
  facet normal 0 0 -1
    outer loop
      vertex 2.55468 -5.42896 -3
      vertex 2.89052 5.25784 -3
      vertex 2.89052 -5.25784 -3
    endloop
  endfacet
  facet normal 0 0 -1
    outer loop
      vertex 2.55468 -5.42896 -3
      vertex 2.55468 5.42896 -3
      vertex 2.89052 5.25784 -3
    endloop
  endfacet
  facet normal 0 0 -1
    outer loop
      vertex 2.20875 -5.57866 -3
      vertex 2.55468 5.42896 -3
      vertex 2.55468 -5.42896 -3
    endloop
  endfacet
  facet normal 0 0 -1
    outer loop
      vertex 2.20875 -5.57866 -3
      vertex 2.20875 5.57866 -3
      vertex 2.55468 5.42896 -3
    endloop
  endfacet
  facet normal 0 0 -1
    outer loop
      vertex 1.8541 -5.70634 -3
      vertex 2.20875 5.57866 -3
      vertex 2.20875 -5.57866 -3
    endloop
  endfacet
  facet normal 0 0 -1
    outer loop
      vertex 1.8541 -5.70634 -3
      vertex 1.8541 5.70634 -3
      vertex 2.20875 5.57866 -3
    endloop
  endfacet
  facet normal 0 0 -1
    outer loop
      vertex 1.49214 -5.8115 -3
      vertex 1.8541 5.70634 -3
      vertex 1.8541 -5.70634 -3
    endloop
  endfacet
  facet normal 0 0 -1
    outer loop
      vertex 1.49214 -5.8115 -3
      vertex 1.49214 5.8115 -3
      vertex 1.8541 5.70634 -3
    endloop
  endfacet
  facet normal 0 0 -1
    outer loop
      vertex 1.12429 -5.89372 -3
      vertex 1.49214 5.8115 -3
      vertex 1.49214 -5.8115 -3
    endloop
  endfacet
  facet normal 0 0 -1
    outer loop
      vertex 1.12429 -5.89372 -3
      vertex 1.12429 5.89372 -3
      vertex 1.49214 5.8115 -3
    endloop
  endfacet
  facet normal 0 0 -1
    outer loop
      vertex 0.751999 -5.95269 -3
      vertex 1.12429 5.89372 -3
      vertex 1.12429 -5.89372 -3
    endloop
  endfacet
  facet normal 0 0 -1
    outer loop
      vertex 0.751999 -5.95269 -3
      vertex 0.751999 5.95269 -3
      vertex 1.12429 5.89372 -3
    endloop
  endfacet
  facet normal 0 0 -1
    outer loop
      vertex 0.376742 -5.98816 -3
      vertex 0.751999 5.95269 -3
      vertex 0.751999 -5.95269 -3
    endloop
  endfacet
  facet normal 0 0 -1
    outer loop
      vertex 0.376742 -5.98816 -3
      vertex 0.376742 5.98816 -3
      vertex 0.751999 5.95269 -3
    endloop
  endfacet
  facet normal 0 0 -1
    outer loop
      vertex 0 -6 -3
      vertex 0.376742 5.98816 -3
      vertex 0.376742 -5.98816 -3
    endloop
  endfacet
  facet normal 0 0 -1
    outer loop
      vertex 0 -6 -3
      vertex 0 6 -3
      vertex 0.376742 5.98816 -3
    endloop
  endfacet
  facet normal 0 0 -1
    outer loop
      vertex -0.376742 -5.98816 -3
      vertex 0 6 -3
      vertex 0 -6 -3
    endloop
  endfacet
  facet normal 0 0 -1
    outer loop
      vertex -0.376742 -5.98816 -3
      vertex -0.376742 5.98816 -3
      vertex 0 6 -3
    endloop
  endfacet
  facet normal 0 0 -1
    outer loop
      vertex -0.751999 -5.95269 -3
      vertex -0.376742 5.98816 -3
      vertex -0.376742 -5.98816 -3
    endloop
  endfacet
  facet normal 0 0 -1
    outer loop
      vertex -0.751999 -5.95269 -3
      vertex -0.751999 5.95269 -3
      vertex -0.376742 5.98816 -3
    endloop
  endfacet
  facet normal 0 0 -1
    outer loop
      vertex -1.12429 -5.89372 -3
      vertex -0.751999 5.95269 -3
      vertex -0.751999 -5.95269 -3
    endloop
  endfacet
  facet normal 0 0 -1
    outer loop
      vertex -1.12429 -5.89372 -3
      vertex -1.12429 5.89372 -3
      vertex -0.751999 5.95269 -3
    endloop
  endfacet
  facet normal 0 0 -1
    outer loop
      vertex -1.49214 -5.8115 -3
      vertex -1.12429 5.89372 -3
      vertex -1.12429 -5.89372 -3
    endloop
  endfacet
  facet normal 0 0 -1
    outer loop
      vertex -1.49214 -5.8115 -3
      vertex -1.49214 5.8115 -3
      vertex -1.12429 5.89372 -3
    endloop
  endfacet
  facet normal 0 0 -1
    outer loop
      vertex -1.8541 -5.70634 -3
      vertex -1.49214 5.8115 -3
      vertex -1.49214 -5.8115 -3
    endloop
  endfacet
  facet normal 0 0 -1
    outer loop
      vertex -1.8541 -5.70634 -3
      vertex -1.8541 5.70634 -3
      vertex -1.49214 5.8115 -3
    endloop
  endfacet
  facet normal 0 0 -1
    outer loop
      vertex -2.20875 -5.57866 -3
      vertex -1.8541 5.70634 -3
      vertex -1.8541 -5.70634 -3
    endloop
  endfacet
  facet normal 0 0 -1
    outer loop
      vertex -2.20875 -5.57866 -3
      vertex -2.20875 5.57866 -3
      vertex -1.8541 5.70634 -3
    endloop
  endfacet
  facet normal 0 0 -1
    outer loop
      vertex -2.55468 -5.42896 -3
      vertex -2.20875 5.57866 -3
      vertex -2.20875 -5.57866 -3
    endloop
  endfacet
  facet normal 0 0 -1
    outer loop
      vertex -2.55468 -5.42896 -3
      vertex -2.55468 5.42896 -3
      vertex -2.20875 5.57866 -3
    endloop
  endfacet
  facet normal 0 0 -1
    outer loop
      vertex -2.89052 -5.25784 -3
      vertex -2.55468 5.42896 -3
      vertex -2.55468 -5.42896 -3
    endloop
  endfacet
  facet normal 0 0 -1
    outer loop
      vertex -2.89052 -5.25784 -3
      vertex -2.89052 5.25784 -3
      vertex -2.55468 5.42896 -3
    endloop
  endfacet
  facet normal 0 0 -1
    outer loop
      vertex -3.21496 -5.06597 -3
      vertex -2.89052 5.25784 -3
      vertex -2.89052 -5.25784 -3
    endloop
  endfacet
  facet normal 0 0 -1
    outer loop
      vertex -3.21496 -5.06597 -3
      vertex -3.21496 5.06597 -3
      vertex -2.89052 5.25784 -3
    endloop
  endfacet
  facet normal 0 0 -1
    outer loop
      vertex -3.52671 -4.8541 -3
      vertex -3.21496 5.06597 -3
      vertex -3.21496 -5.06597 -3
    endloop
  endfacet
  facet normal 0 0 -1
    outer loop
      vertex -3.52671 -4.8541 -3
      vertex -3.52671 4.8541 -3
      vertex -3.21496 5.06597 -3
    endloop
  endfacet
  facet normal 0 0 -1
    outer loop
      vertex -3.82454 -4.62308 -3
      vertex -3.52671 4.8541 -3
      vertex -3.52671 -4.8541 -3
    endloop
  endfacet
  facet normal 0 0 -1
    outer loop
      vertex -3.82454 -4.62308 -3
      vertex -3.82454 4.62308 -3
      vertex -3.52671 4.8541 -3
    endloop
  endfacet
  facet normal 0 0 -1
    outer loop
      vertex -4.10728 -4.37381 -3
      vertex -3.82454 4.62308 -3
      vertex -3.82454 -4.62308 -3
    endloop
  endfacet
  facet normal 0 0 -1
    outer loop
      vertex -4.10728 -4.37381 -3
      vertex -4.10728 4.37381 -3
      vertex -3.82454 4.62308 -3
    endloop
  endfacet
  facet normal 0 0 -1
    outer loop
      vertex -4.37381 -4.10728 -3
      vertex -4.10728 4.37381 -3
      vertex -4.10728 -4.37381 -3
    endloop
  endfacet
  facet normal 0 0 -1
    outer loop
      vertex -4.37381 -4.10728 -3
      vertex -4.37381 4.10728 -3
      vertex -4.10728 4.37381 -3
    endloop
  endfacet
  facet normal 0 0 -1
    outer loop
      vertex -4.62308 -3.82454 -3
      vertex -4.37381 4.10728 -3
      vertex -4.37381 -4.10728 -3
    endloop
  endfacet
  facet normal 0 0 -1
    outer loop
      vertex -4.62308 -3.82454 -3
      vertex -4.62308 3.82454 -3
      vertex -4.37381 4.10728 -3
    endloop
  endfacet
  facet normal 0 0 -1
    outer loop
      vertex -4.8541 -3.52671 -3
      vertex -4.62308 3.82454 -3
      vertex -4.62308 -3.82454 -3
    endloop
  endfacet
  facet normal 0 0 -1
    outer loop
      vertex -4.8541 -3.52671 -3
      vertex -4.8541 3.52671 -3
      vertex -4.62308 3.82454 -3
    endloop
  endfacet
  facet normal 0 0 -1
    outer loop
      vertex -5.06597 -3.21496 -3
      vertex -4.8541 3.52671 -3
      vertex -4.8541 -3.52671 -3
    endloop
  endfacet
  facet normal 0 0 -1
    outer loop
      vertex -5.06597 -3.21496 -3
      vertex -5.06597 3.21496 -3
      vertex -4.8541 3.52671 -3
    endloop
  endfacet
  facet normal 0 0 -1
    outer loop
      vertex -5.25784 -2.89052 -3
      vertex -5.06597 3.21496 -3
      vertex -5.06597 -3.21496 -3
    endloop
  endfacet
  facet normal 0 0 -1
    outer loop
      vertex -5.25784 -2.89052 -3
      vertex -5.25784 2.89052 -3
      vertex -5.06597 3.21496 -3
    endloop
  endfacet
  facet normal 0 0 -1
    outer loop
      vertex -5.42896 -2.55468 -3
      vertex -5.25784 2.89052 -3
      vertex -5.25784 -2.89052 -3
    endloop
  endfacet
  facet normal 0 0 -1
    outer loop
      vertex -5.42896 -2.55468 -3
      vertex -5.42896 2.55468 -3
      vertex -5.25784 2.89052 -3
    endloop
  endfacet
  facet normal 0 0 -1
    outer loop
      vertex -5.57866 -2.20875 -3
      vertex -5.42896 2.55468 -3
      vertex -5.42896 -2.55468 -3
    endloop
  endfacet
  facet normal 0 0 -1
    outer loop
      vertex -5.57866 -2.20875 -3
      vertex -5.57866 2.20875 -3
      vertex -5.42896 2.55468 -3
    endloop
  endfacet
  facet normal 0 0 -1
    outer loop
      vertex -5.70634 -1.8541 -3
      vertex -5.57866 2.20875 -3
      vertex -5.57866 -2.20875 -3
    endloop
  endfacet
  facet normal 0 0 -1
    outer loop
      vertex -5.70634 -1.8541 -3
      vertex -5.70634 1.8541 -3
      vertex -5.57866 2.20875 -3
    endloop
  endfacet
  facet normal 0 0 -1
    outer loop
      vertex -5.8115 -1.49214 -3
      vertex -5.70634 1.8541 -3
      vertex -5.70634 -1.8541 -3
    endloop
  endfacet
  facet normal 0 0 -1
    outer loop
      vertex -5.8115 -1.49214 -3
      vertex -5.8115 1.49214 -3
      vertex -5.70634 1.8541 -3
    endloop
  endfacet
  facet normal 0 0 -1
    outer loop
      vertex -5.89372 -1.12429 -3
      vertex -5.8115 1.49214 -3
      vertex -5.8115 -1.49214 -3
    endloop
  endfacet
  facet normal 0 0 -1
    outer loop
      vertex -5.89372 -1.12429 -3
      vertex -5.89372 1.12429 -3
      vertex -5.8115 1.49214 -3
    endloop
  endfacet
  facet normal 0 0 -1
    outer loop
      vertex -5.95269 -0.751999 -3
      vertex -5.89372 1.12429 -3
      vertex -5.89372 -1.12429 -3
    endloop
  endfacet
  facet normal 0 0 -1
    outer loop
      vertex -5.95269 -0.751999 -3
      vertex -5.95269 0.751999 -3
      vertex -5.89372 1.12429 -3
    endloop
  endfacet
  facet normal 0 0 -1
    outer loop
      vertex -5.98816 -0.376742 -3
      vertex -5.95269 0.751999 -3
      vertex -5.95269 -0.751999 -3
    endloop
  endfacet
  facet normal 0 0 -1
    outer loop
      vertex -5.98816 -0.376742 -3
      vertex -5.98816 0.376742 -3
      vertex -5.95269 0.751999 -3
    endloop
  endfacet
  facet normal 0 -0 -1
    outer loop
      vertex -5.98816 0.376742 -3
      vertex -5.98816 -0.376742 -3
      vertex -6 0 -3
    endloop
  endfacet
  facet normal 0.975917 0.218144 0
    outer loop
      vertex 5.89372 1.12429 0
      vertex 5.8115 1.49214 -3
      vertex 5.8115 1.49214 0
    endloop
  endfacet
  facet normal 0.975917 0.218144 0
    outer loop
      vertex 5.8115 1.49214 -3
      vertex 5.89372 1.12429 0
      vertex 5.89372 1.12429 -3
    endloop
  endfacet
  facet normal 0.960294 0.278991 0
    outer loop
      vertex 5.8115 1.49214 0
      vertex 5.70634 1.8541 -3
      vertex 5.70634 1.8541 0
    endloop
  endfacet
  facet normal 0.960294 0.278991 0
    outer loop
      vertex 5.70634 1.8541 -3
      vertex 5.8115 1.49214 0
      vertex 5.8115 1.49214 -3
    endloop
  endfacet
  facet normal 0.750111 0.661312 0
    outer loop
      vertex 4.62308 3.82454 0
      vertex 4.37381 4.10728 -3
      vertex 4.37381 4.10728 0
    endloop
  endfacet
  facet normal 0.750111 0.661312 0
    outer loop
      vertex 4.37381 4.10728 -3
      vertex 4.62308 3.82454 0
      vertex 4.62308 3.82454 -3
    endloop
  endfacet
  facet normal 0.891007 0.453991 0
    outer loop
      vertex 5.42896 2.55468 0
      vertex 5.25784 2.89052 -3
      vertex 5.25784 2.89052 0
    endloop
  endfacet
  facet normal 0.891007 0.453991 0
    outer loop
      vertex 5.25784 2.89052 -3
      vertex 5.42896 2.55468 0
      vertex 5.42896 2.55468 -3
    endloop
  endfacet
  facet normal 0.218144 0.975917 -0
    outer loop
      vertex 1.49214 5.8115 -3
      vertex 1.12429 5.89372 0
      vertex 1.49214 5.8115 0
    endloop
  endfacet
  facet normal 0.218144 0.975917 0
    outer loop
      vertex 1.12429 5.89372 0
      vertex 1.49214 5.8115 -3
      vertex 1.12429 5.89372 -3
    endloop
  endfacet
  facet normal 0.338739 0.94088 -0
    outer loop
      vertex 2.20875 5.57866 -3
      vertex 1.8541 5.70634 0
      vertex 2.20875 5.57866 0
    endloop
  endfacet
  facet normal 0.338739 0.94088 0
    outer loop
      vertex 1.8541 5.70634 0
      vertex 2.20875 5.57866 -3
      vertex 1.8541 5.70634 -3
    endloop
  endfacet
  facet normal 0.562082 0.827081 -0
    outer loop
      vertex 3.52671 4.8541 -3
      vertex 3.21496 5.06597 0
      vertex 3.52671 4.8541 0
    endloop
  endfacet
  facet normal 0.562082 0.827081 0
    outer loop
      vertex 3.21496 5.06597 0
      vertex 3.52671 4.8541 -3
      vertex 3.21496 5.06597 -3
    endloop
  endfacet
  facet normal -0.707107 0.707107 0
    outer loop
      vertex -4.37381 4.10728 -3
      vertex -4.10728 4.37381 0
      vertex -4.10728 4.37381 -3
    endloop
  endfacet
  facet normal -0.707107 0.707107 0
    outer loop
      vertex -4.10728 4.37381 0
      vertex -4.37381 4.10728 -3
      vertex -4.37381 4.10728 0
    endloop
  endfacet
  facet normal -0.891007 0.453991 0
    outer loop
      vertex -5.42896 2.55468 -3
      vertex -5.25784 2.89052 0
      vertex -5.25784 2.89052 -3
    endloop
  endfacet
  facet normal -0.891007 0.453991 0
    outer loop
      vertex -5.25784 2.89052 0
      vertex -5.42896 2.55468 -3
      vertex -5.42896 2.55468 0
    endloop
  endfacet
  facet normal -0.975917 0.218144 0
    outer loop
      vertex -5.89372 1.12429 -3
      vertex -5.8115 1.49214 0
      vertex -5.8115 1.49214 -3
    endloop
  endfacet
  facet normal -0.975917 0.218144 0
    outer loop
      vertex -5.8115 1.49214 0
      vertex -5.89372 1.12429 -3
      vertex -5.89372 1.12429 0
    endloop
  endfacet
  facet normal -0.509042 0.860742 0
    outer loop
      vertex -2.89052 5.25784 -3
      vertex -3.21496 5.06597 0
      vertex -2.89052 5.25784 0
    endloop
  endfacet
  facet normal -0.509042 0.860742 0
    outer loop
      vertex -3.21496 5.06597 0
      vertex -2.89052 5.25784 -3
      vertex -3.21496 5.06597 -3
    endloop
  endfacet
  facet normal -0.0314115 0.999507 0
    outer loop
      vertex 0 6 -3
      vertex -0.376742 5.98816 0
      vertex 0 6 0
    endloop
  endfacet
  facet normal -0.0314115 0.999507 0
    outer loop
      vertex -0.376742 5.98816 0
      vertex 0 6 -3
      vertex -0.376742 5.98816 -3
    endloop
  endfacet
  facet normal 0.987689 -0.156432 0
    outer loop
      vertex 5.89372 -1.12429 0
      vertex 5.95269 -0.751999 -3
      vertex 5.95269 -0.751999 0
    endloop
  endfacet
  facet normal 0.987689 -0.156432 0
    outer loop
      vertex 5.95269 -0.751999 -3
      vertex 5.89372 -1.12429 0
      vertex 5.89372 -1.12429 -3
    endloop
  endfacet
  facet normal 0.0314115 -0.999507 0
    outer loop
      vertex 0 -6 -3
      vertex 0.376742 -5.98816 0
      vertex 0 -6 0
    endloop
  endfacet
  facet normal 0.0314115 -0.999507 0
    outer loop
      vertex 0.376742 -5.98816 0
      vertex 0 -6 -3
      vertex 0.376742 -5.98816 -3
    endloop
  endfacet
  facet normal 0.453991 -0.891007 0
    outer loop
      vertex 2.55468 -5.42896 -3
      vertex 2.89052 -5.25784 0
      vertex 2.55468 -5.42896 0
    endloop
  endfacet
  facet normal 0.453991 -0.891007 0
    outer loop
      vertex 2.89052 -5.25784 0
      vertex 2.55468 -5.42896 -3
      vertex 2.89052 -5.25784 -3
    endloop
  endfacet
  facet normal -0.707107 -0.707107 0
    outer loop
      vertex -4.10728 -4.37381 -3
      vertex -4.37381 -4.10728 0
      vertex -4.37381 -4.10728 -3
    endloop
  endfacet
  facet normal -0.707107 -0.707107 0
    outer loop
      vertex -4.37381 -4.10728 0
      vertex -4.10728 -4.37381 -3
      vertex -4.10728 -4.37381 0
    endloop
  endfacet
  facet normal -0.917755 -0.397148 0
    outer loop
      vertex -5.42896 -2.55468 -3
      vertex -5.57866 -2.20875 0
      vertex -5.57866 -2.20875 -3
    endloop
  endfacet
  facet normal -0.917755 -0.397148 0
    outer loop
      vertex -5.57866 -2.20875 0
      vertex -5.42896 -2.55468 -3
      vertex -5.42896 -2.55468 0
    endloop
  endfacet
  facet normal -0.999507 -0.0314115 0
    outer loop
      vertex -5.98816 -0.376742 -3
      vertex -6 0 0
      vertex -6 0 -3
    endloop
  endfacet
  facet normal -0.999507 -0.0314115 0
    outer loop
      vertex -6 0 0
      vertex -5.98816 -0.376742 -3
      vertex -5.98816 -0.376742 0
    endloop
  endfacet
  facet normal 0.987689 0.156432 0
    outer loop
      vertex 5.95269 0.751999 0
      vertex 5.89372 1.12429 -3
      vertex 5.89372 1.12429 0
    endloop
  endfacet
  facet normal 0.987689 0.156432 0
    outer loop
      vertex 5.89372 1.12429 -3
      vertex 5.95269 0.751999 0
      vertex 5.95269 0.751999 -3
    endloop
  endfacet
  facet normal 0.995562 0.0941101 0
    outer loop
      vertex 5.98816 0.376742 0
      vertex 5.95269 0.751999 -3
      vertex 5.95269 0.751999 0
    endloop
  endfacet
  facet normal 0.995562 0.0941101 0
    outer loop
      vertex 5.95269 0.751999 -3
      vertex 5.98816 0.376742 0
      vertex 5.98816 0.376742 -3
    endloop
  endfacet
  facet normal 0.790155 0.612907 0
    outer loop
      vertex 4.8541 3.52671 0
      vertex 4.62308 3.82454 -3
      vertex 4.62308 3.82454 0
    endloop
  endfacet
  facet normal 0.790155 0.612907 0
    outer loop
      vertex 4.62308 3.82454 -3
      vertex 4.8541 3.52671 0
      vertex 4.8541 3.52671 -3
    endloop
  endfacet
  facet normal 0.827081 0.562082 0
    outer loop
      vertex 5.06597 3.21496 0
      vertex 4.8541 3.52671 -3
      vertex 4.8541 3.52671 0
    endloop
  endfacet
  facet normal 0.827081 0.562082 0
    outer loop
      vertex 4.8541 3.52671 -3
      vertex 5.06597 3.21496 0
      vertex 5.06597 3.21496 -3
    endloop
  endfacet
  facet normal 0.860742 0.509042 0
    outer loop
      vertex 5.25784 2.89052 0
      vertex 5.06597 3.21496 -3
      vertex 5.06597 3.21496 0
    endloop
  endfacet
  facet normal 0.860742 0.509042 0
    outer loop
      vertex 5.06597 3.21496 -3
      vertex 5.25784 2.89052 0
      vertex 5.25784 2.89052 -3
    endloop
  endfacet
  facet normal 0.278991 0.960294 -0
    outer loop
      vertex 1.8541 5.70634 -3
      vertex 1.49214 5.8115 0
      vertex 1.8541 5.70634 0
    endloop
  endfacet
  facet normal 0.278991 0.960294 0
    outer loop
      vertex 1.49214 5.8115 0
      vertex 1.8541 5.70634 -3
      vertex 1.49214 5.8115 -3
    endloop
  endfacet
  facet normal 0.156432 0.987689 -0
    outer loop
      vertex 1.12429 5.89372 -3
      vertex 0.751999 5.95269 0
      vertex 1.12429 5.89372 0
    endloop
  endfacet
  facet normal 0.156432 0.987689 0
    outer loop
      vertex 0.751999 5.95269 0
      vertex 1.12429 5.89372 -3
      vertex 0.751999 5.95269 -3
    endloop
  endfacet
  facet normal 0.0941101 0.995562 -0
    outer loop
      vertex 0.751999 5.95269 -3
      vertex 0.376742 5.98816 0
      vertex 0.751999 5.95269 0
    endloop
  endfacet
  facet normal 0.0941101 0.995562 0
    outer loop
      vertex 0.376742 5.98816 0
      vertex 0.751999 5.95269 -3
      vertex 0.376742 5.98816 -3
    endloop
  endfacet
  facet normal 0.397148 0.917755 -0
    outer loop
      vertex 2.55468 5.42896 -3
      vertex 2.20875 5.57866 0
      vertex 2.55468 5.42896 0
    endloop
  endfacet
  facet normal 0.397148 0.917755 0
    outer loop
      vertex 2.20875 5.57866 0
      vertex 2.55468 5.42896 -3
      vertex 2.20875 5.57866 -3
    endloop
  endfacet
  facet normal 0.509042 0.860742 -0
    outer loop
      vertex 3.21496 5.06597 -3
      vertex 2.89052 5.25784 0
      vertex 3.21496 5.06597 0
    endloop
  endfacet
  facet normal 0.509042 0.860742 0
    outer loop
      vertex 2.89052 5.25784 0
      vertex 3.21496 5.06597 -3
      vertex 2.89052 5.25784 -3
    endloop
  endfacet
  facet normal 0.612907 0.790155 -0
    outer loop
      vertex 3.82454 4.62308 -3
      vertex 3.52671 4.8541 0
      vertex 3.82454 4.62308 0
    endloop
  endfacet
  facet normal 0.612907 0.790155 0
    outer loop
      vertex 3.52671 4.8541 0
      vertex 3.82454 4.62308 -3
      vertex 3.52671 4.8541 -3
    endloop
  endfacet
  facet normal 0.661312 0.750111 -0
    outer loop
      vertex 4.10728 4.37381 -3
      vertex 3.82454 4.62308 0
      vertex 4.10728 4.37381 0
    endloop
  endfacet
  facet normal 0.661312 0.750111 0
    outer loop
      vertex 3.82454 4.62308 0
      vertex 4.10728 4.37381 -3
      vertex 3.82454 4.62308 -3
    endloop
  endfacet
  facet normal -0.860742 0.509042 0
    outer loop
      vertex -5.25784 2.89052 -3
      vertex -5.06597 3.21496 0
      vertex -5.06597 3.21496 -3
    endloop
  endfacet
  facet normal -0.860742 0.509042 0
    outer loop
      vertex -5.06597 3.21496 0
      vertex -5.25784 2.89052 -3
      vertex -5.25784 2.89052 0
    endloop
  endfacet
  facet normal -0.917755 0.397148 0
    outer loop
      vertex -5.57866 2.20875 -3
      vertex -5.42896 2.55468 0
      vertex -5.42896 2.55468 -3
    endloop
  endfacet
  facet normal -0.917755 0.397148 0
    outer loop
      vertex -5.42896 2.55468 0
      vertex -5.57866 2.20875 -3
      vertex -5.57866 2.20875 0
    endloop
  endfacet
  facet normal -0.94088 0.338739 0
    outer loop
      vertex -5.70634 1.8541 -3
      vertex -5.57866 2.20875 0
      vertex -5.57866 2.20875 -3
    endloop
  endfacet
  facet normal -0.94088 0.338739 0
    outer loop
      vertex -5.57866 2.20875 0
      vertex -5.70634 1.8541 -3
      vertex -5.70634 1.8541 0
    endloop
  endfacet
  facet normal -0.960294 0.278991 0
    outer loop
      vertex -5.8115 1.49214 -3
      vertex -5.70634 1.8541 0
      vertex -5.70634 1.8541 -3
    endloop
  endfacet
  facet normal -0.960294 0.278991 0
    outer loop
      vertex -5.70634 1.8541 0
      vertex -5.8115 1.49214 -3
      vertex -5.8115 1.49214 0
    endloop
  endfacet
  facet normal -0.987689 0.156432 0
    outer loop
      vertex -5.95269 0.751999 -3
      vertex -5.89372 1.12429 0
      vertex -5.89372 1.12429 -3
    endloop
  endfacet
  facet normal -0.987689 0.156432 0
    outer loop
      vertex -5.89372 1.12429 0
      vertex -5.95269 0.751999 -3
      vertex -5.95269 0.751999 0
    endloop
  endfacet
  facet normal -0.995562 0.0941101 0
    outer loop
      vertex -5.98816 0.376742 -3
      vertex -5.95269 0.751999 0
      vertex -5.95269 0.751999 -3
    endloop
  endfacet
  facet normal -0.995562 0.0941101 0
    outer loop
      vertex -5.95269 0.751999 0
      vertex -5.98816 0.376742 -3
      vertex -5.98816 0.376742 0
    endloop
  endfacet
  facet normal -0.397148 0.917755 0
    outer loop
      vertex -2.20875 5.57866 -3
      vertex -2.55468 5.42896 0
      vertex -2.20875 5.57866 0
    endloop
  endfacet
  facet normal -0.397148 0.917755 0
    outer loop
      vertex -2.55468 5.42896 0
      vertex -2.20875 5.57866 -3
      vertex -2.55468 5.42896 -3
    endloop
  endfacet
  facet normal -0.562082 0.827081 0
    outer loop
      vertex -3.21496 5.06597 -3
      vertex -3.52671 4.8541 0
      vertex -3.21496 5.06597 0
    endloop
  endfacet
  facet normal -0.562082 0.827081 0
    outer loop
      vertex -3.52671 4.8541 0
      vertex -3.21496 5.06597 -3
      vertex -3.52671 4.8541 -3
    endloop
  endfacet
  facet normal -0.453991 0.891007 0
    outer loop
      vertex -2.55468 5.42896 -3
      vertex -2.89052 5.25784 0
      vertex -2.55468 5.42896 0
    endloop
  endfacet
  facet normal -0.453991 0.891007 0
    outer loop
      vertex -2.89052 5.25784 0
      vertex -2.55468 5.42896 -3
      vertex -2.89052 5.25784 -3
    endloop
  endfacet
  facet normal -0.218144 0.975917 0
    outer loop
      vertex -1.12429 5.89372 -3
      vertex -1.49214 5.8115 0
      vertex -1.12429 5.89372 0
    endloop
  endfacet
  facet normal -0.218144 0.975917 0
    outer loop
      vertex -1.49214 5.8115 0
      vertex -1.12429 5.89372 -3
      vertex -1.49214 5.8115 -3
    endloop
  endfacet
  facet normal -0.278991 0.960294 0
    outer loop
      vertex -1.49214 5.8115 -3
      vertex -1.8541 5.70634 0
      vertex -1.49214 5.8115 0
    endloop
  endfacet
  facet normal -0.278991 0.960294 0
    outer loop
      vertex -1.8541 5.70634 0
      vertex -1.49214 5.8115 -3
      vertex -1.8541 5.70634 -3
    endloop
  endfacet
  facet normal -0.156432 0.987689 0
    outer loop
      vertex -0.751999 5.95269 -3
      vertex -1.12429 5.89372 0
      vertex -0.751999 5.95269 0
    endloop
  endfacet
  facet normal -0.156432 0.987689 0
    outer loop
      vertex -1.12429 5.89372 0
      vertex -0.751999 5.95269 -3
      vertex -1.12429 5.89372 -3
    endloop
  endfacet
  facet normal 0.999507 -0.0314115 0
    outer loop
      vertex 5.98816 -0.376742 0
      vertex 6 0 -3
      vertex 6 0 0
    endloop
  endfacet
  facet normal 0.999507 -0.0314115 0
    outer loop
      vertex 6 0 -3
      vertex 5.98816 -0.376742 0
      vertex 5.98816 -0.376742 -3
    endloop
  endfacet
  facet normal 0.0941101 -0.995562 0
    outer loop
      vertex 0.376742 -5.98816 -3
      vertex 0.751999 -5.95269 0
      vertex 0.376742 -5.98816 0
    endloop
  endfacet
  facet normal 0.0941101 -0.995562 0
    outer loop
      vertex 0.751999 -5.95269 0
      vertex 0.376742 -5.98816 -3
      vertex 0.751999 -5.95269 -3
    endloop
  endfacet
  facet normal 0.338739 -0.94088 0
    outer loop
      vertex 1.8541 -5.70634 -3
      vertex 2.20875 -5.57866 0
      vertex 1.8541 -5.70634 0
    endloop
  endfacet
  facet normal 0.338739 -0.94088 0
    outer loop
      vertex 2.20875 -5.57866 0
      vertex 1.8541 -5.70634 -3
      vertex 2.20875 -5.57866 -3
    endloop
  endfacet
  facet normal 0.397148 -0.917755 0
    outer loop
      vertex 2.20875 -5.57866 -3
      vertex 2.55468 -5.42896 0
      vertex 2.20875 -5.57866 0
    endloop
  endfacet
  facet normal 0.397148 -0.917755 0
    outer loop
      vertex 2.55468 -5.42896 0
      vertex 2.20875 -5.57866 -3
      vertex 2.55468 -5.42896 -3
    endloop
  endfacet
  facet normal 0.612907 -0.790155 0
    outer loop
      vertex 3.52671 -4.8541 -3
      vertex 3.82454 -4.62308 0
      vertex 3.52671 -4.8541 0
    endloop
  endfacet
  facet normal 0.612907 -0.790155 0
    outer loop
      vertex 3.82454 -4.62308 0
      vertex 3.52671 -4.8541 -3
      vertex 3.82454 -4.62308 -3
    endloop
  endfacet
  facet normal 0.509042 -0.860742 0
    outer loop
      vertex 2.89052 -5.25784 -3
      vertex 3.21496 -5.06597 0
      vertex 2.89052 -5.25784 0
    endloop
  endfacet
  facet normal 0.509042 -0.860742 0
    outer loop
      vertex 3.21496 -5.06597 0
      vertex 2.89052 -5.25784 -3
      vertex 3.21496 -5.06597 -3
    endloop
  endfacet
  facet normal 0.562082 -0.827081 0
    outer loop
      vertex 3.21496 -5.06597 -3
      vertex 3.52671 -4.8541 0
      vertex 3.21496 -5.06597 0
    endloop
  endfacet
  facet normal 0.562082 -0.827081 0
    outer loop
      vertex 3.52671 -4.8541 0
      vertex 3.21496 -5.06597 -3
      vertex 3.52671 -4.8541 -3
    endloop
  endfacet
  facet normal 0.750111 -0.661312 0
    outer loop
      vertex 4.37381 -4.10728 0
      vertex 4.62308 -3.82454 -3
      vertex 4.62308 -3.82454 0
    endloop
  endfacet
  facet normal 0.750111 -0.661312 0
    outer loop
      vertex 4.62308 -3.82454 -3
      vertex 4.37381 -4.10728 0
      vertex 4.37381 -4.10728 -3
    endloop
  endfacet
  facet normal 0.827081 -0.562082 0
    outer loop
      vertex 4.8541 -3.52671 0
      vertex 5.06597 -3.21496 -3
      vertex 5.06597 -3.21496 0
    endloop
  endfacet
  facet normal 0.827081 -0.562082 0
    outer loop
      vertex 5.06597 -3.21496 -3
      vertex 4.8541 -3.52671 0
      vertex 4.8541 -3.52671 -3
    endloop
  endfacet
  facet normal 0.917755 -0.397148 0
    outer loop
      vertex 5.42896 -2.55468 0
      vertex 5.57866 -2.20875 -3
      vertex 5.57866 -2.20875 0
    endloop
  endfacet
  facet normal 0.917755 -0.397148 0
    outer loop
      vertex 5.57866 -2.20875 -3
      vertex 5.42896 -2.55468 0
      vertex 5.42896 -2.55468 -3
    endloop
  endfacet
  facet normal 0.94088 -0.338739 0
    outer loop
      vertex 5.57866 -2.20875 0
      vertex 5.70634 -1.8541 -3
      vertex 5.70634 -1.8541 0
    endloop
  endfacet
  facet normal 0.94088 -0.338739 0
    outer loop
      vertex 5.70634 -1.8541 -3
      vertex 5.57866 -2.20875 0
      vertex 5.57866 -2.20875 -3
    endloop
  endfacet
  facet normal 0.960294 -0.278991 0
    outer loop
      vertex 5.70634 -1.8541 0
      vertex 5.8115 -1.49214 -3
      vertex 5.8115 -1.49214 0
    endloop
  endfacet
  facet normal 0.960294 -0.278991 0
    outer loop
      vertex 5.8115 -1.49214 -3
      vertex 5.70634 -1.8541 0
      vertex 5.70634 -1.8541 -3
    endloop
  endfacet
  facet normal -0.661312 -0.750111 0
    outer loop
      vertex -4.10728 -4.37381 -3
      vertex -3.82454 -4.62308 0
      vertex -4.10728 -4.37381 0
    endloop
  endfacet
  facet normal -0.661312 -0.750111 -0
    outer loop
      vertex -3.82454 -4.62308 0
      vertex -4.10728 -4.37381 -3
      vertex -3.82454 -4.62308 -3
    endloop
  endfacet
  facet normal -0.453991 -0.891007 0
    outer loop
      vertex -2.89052 -5.25784 -3
      vertex -2.55468 -5.42896 0
      vertex -2.89052 -5.25784 0
    endloop
  endfacet
  facet normal -0.453991 -0.891007 -0
    outer loop
      vertex -2.55468 -5.42896 0
      vertex -2.89052 -5.25784 -3
      vertex -2.55468 -5.42896 -3
    endloop
  endfacet
  facet normal -0.562082 -0.827081 0
    outer loop
      vertex -3.52671 -4.8541 -3
      vertex -3.21496 -5.06597 0
      vertex -3.52671 -4.8541 0
    endloop
  endfacet
  facet normal -0.562082 -0.827081 -0
    outer loop
      vertex -3.21496 -5.06597 0
      vertex -3.52671 -4.8541 -3
      vertex -3.21496 -5.06597 -3
    endloop
  endfacet
  facet normal -0.278991 -0.960294 0
    outer loop
      vertex -1.8541 -5.70634 -3
      vertex -1.49214 -5.8115 0
      vertex -1.8541 -5.70634 0
    endloop
  endfacet
  facet normal -0.278991 -0.960294 -0
    outer loop
      vertex -1.49214 -5.8115 0
      vertex -1.8541 -5.70634 -3
      vertex -1.49214 -5.8115 -3
    endloop
  endfacet
  facet normal -0.156432 -0.987689 0
    outer loop
      vertex -1.12429 -5.89372 -3
      vertex -0.751999 -5.95269 0
      vertex -1.12429 -5.89372 0
    endloop
  endfacet
  facet normal -0.156432 -0.987689 -0
    outer loop
      vertex -0.751999 -5.95269 0
      vertex -1.12429 -5.89372 -3
      vertex -0.751999 -5.95269 -3
    endloop
  endfacet
  facet normal -0.0314115 -0.999507 0
    outer loop
      vertex -0.376742 -5.98816 -3
      vertex 0 -6 0
      vertex -0.376742 -5.98816 0
    endloop
  endfacet
  facet normal -0.0314115 -0.999507 -0
    outer loop
      vertex 0 -6 0
      vertex -0.376742 -5.98816 -3
      vertex 0 -6 -3
    endloop
  endfacet
  facet normal -0.750111 -0.661312 0
    outer loop
      vertex -4.37381 -4.10728 -3
      vertex -4.62308 -3.82454 0
      vertex -4.62308 -3.82454 -3
    endloop
  endfacet
  facet normal -0.750111 -0.661312 0
    outer loop
      vertex -4.62308 -3.82454 0
      vertex -4.37381 -4.10728 -3
      vertex -4.37381 -4.10728 0
    endloop
  endfacet
  facet normal -0.860742 -0.509042 0
    outer loop
      vertex -5.06597 -3.21496 -3
      vertex -5.25784 -2.89052 0
      vertex -5.25784 -2.89052 -3
    endloop
  endfacet
  facet normal -0.860742 -0.509042 0
    outer loop
      vertex -5.25784 -2.89052 0
      vertex -5.06597 -3.21496 -3
      vertex -5.06597 -3.21496 0
    endloop
  endfacet
  facet normal -0.975917 -0.218144 0
    outer loop
      vertex -5.8115 -1.49214 -3
      vertex -5.89372 -1.12429 0
      vertex -5.89372 -1.12429 -3
    endloop
  endfacet
  facet normal -0.975917 -0.218144 0
    outer loop
      vertex -5.89372 -1.12429 0
      vertex -5.8115 -1.49214 -3
      vertex -5.8115 -1.49214 0
    endloop
  endfacet
  facet normal -0.94088 -0.338739 0
    outer loop
      vertex -5.57866 -2.20875 -3
      vertex -5.70634 -1.8541 0
      vertex -5.70634 -1.8541 -3
    endloop
  endfacet
  facet normal -0.94088 -0.338739 0
    outer loop
      vertex -5.70634 -1.8541 0
      vertex -5.57866 -2.20875 -3
      vertex -5.57866 -2.20875 0
    endloop
  endfacet
  facet normal -0.995562 -0.0941101 0
    outer loop
      vertex -5.95269 -0.751999 -3
      vertex -5.98816 -0.376742 0
      vertex -5.98816 -0.376742 -3
    endloop
  endfacet
  facet normal -0.995562 -0.0941101 0
    outer loop
      vertex -5.98816 -0.376742 0
      vertex -5.95269 -0.751999 -3
      vertex -5.95269 -0.751999 0
    endloop
  endfacet
  facet normal 0.94088 0.338739 0
    outer loop
      vertex 5.70634 1.8541 0
      vertex 5.57866 2.20875 -3
      vertex 5.57866 2.20875 0
    endloop
  endfacet
  facet normal 0.94088 0.338739 0
    outer loop
      vertex 5.57866 2.20875 -3
      vertex 5.70634 1.8541 0
      vertex 5.70634 1.8541 -3
    endloop
  endfacet
  facet normal 0.453991 0.891007 -0
    outer loop
      vertex 2.89052 5.25784 -3
      vertex 2.55468 5.42896 0
      vertex 2.89052 5.25784 0
    endloop
  endfacet
  facet normal 0.453991 0.891007 0
    outer loop
      vertex 2.55468 5.42896 0
      vertex 2.89052 5.25784 -3
      vertex 2.55468 5.42896 -3
    endloop
  endfacet
  facet normal -0.790155 0.612907 0
    outer loop
      vertex -4.8541 3.52671 -3
      vertex -4.62308 3.82454 0
      vertex -4.62308 3.82454 -3
    endloop
  endfacet
  facet normal -0.790155 0.612907 0
    outer loop
      vertex -4.62308 3.82454 0
      vertex -4.8541 3.52671 -3
      vertex -4.8541 3.52671 0
    endloop
  endfacet
  facet normal -0.750111 0.661312 0
    outer loop
      vertex -4.62308 3.82454 -3
      vertex -4.37381 4.10728 0
      vertex -4.37381 4.10728 -3
    endloop
  endfacet
  facet normal -0.750111 0.661312 0
    outer loop
      vertex -4.37381 4.10728 0
      vertex -4.62308 3.82454 -3
      vertex -4.62308 3.82454 0
    endloop
  endfacet
  facet normal -0.612907 0.790155 0
    outer loop
      vertex -3.52671 4.8541 -3
      vertex -3.82454 4.62308 0
      vertex -3.52671 4.8541 0
    endloop
  endfacet
  facet normal -0.612907 0.790155 0
    outer loop
      vertex -3.82454 4.62308 0
      vertex -3.52671 4.8541 -3
      vertex -3.82454 4.62308 -3
    endloop
  endfacet
  facet normal 0.156432 -0.987689 0
    outer loop
      vertex 0.751999 -5.95269 -3
      vertex 1.12429 -5.89372 0
      vertex 0.751999 -5.95269 0
    endloop
  endfacet
  facet normal 0.156432 -0.987689 0
    outer loop
      vertex 1.12429 -5.89372 0
      vertex 0.751999 -5.95269 -3
      vertex 1.12429 -5.89372 -3
    endloop
  endfacet
  facet normal 0.278991 -0.960294 0
    outer loop
      vertex 1.49214 -5.8115 -3
      vertex 1.8541 -5.70634 0
      vertex 1.49214 -5.8115 0
    endloop
  endfacet
  facet normal 0.278991 -0.960294 0
    outer loop
      vertex 1.8541 -5.70634 0
      vertex 1.49214 -5.8115 -3
      vertex 1.8541 -5.70634 -3
    endloop
  endfacet
  facet normal 0.661312 -0.750111 0
    outer loop
      vertex 3.82454 -4.62308 -3
      vertex 4.10728 -4.37381 0
      vertex 3.82454 -4.62308 0
    endloop
  endfacet
  facet normal 0.661312 -0.750111 0
    outer loop
      vertex 4.10728 -4.37381 0
      vertex 3.82454 -4.62308 -3
      vertex 4.10728 -4.37381 -3
    endloop
  endfacet
  facet normal 0.860742 -0.509042 0
    outer loop
      vertex 5.06597 -3.21496 0
      vertex 5.25784 -2.89052 -3
      vertex 5.25784 -2.89052 0
    endloop
  endfacet
  facet normal 0.860742 -0.509042 0
    outer loop
      vertex 5.25784 -2.89052 -3
      vertex 5.06597 -3.21496 0
      vertex 5.06597 -3.21496 -3
    endloop
  endfacet
  facet normal 0.790155 -0.612907 0
    outer loop
      vertex 4.62308 -3.82454 0
      vertex 4.8541 -3.52671 -3
      vertex 4.8541 -3.52671 0
    endloop
  endfacet
  facet normal 0.790155 -0.612907 0
    outer loop
      vertex 4.8541 -3.52671 -3
      vertex 4.62308 -3.82454 0
      vertex 4.62308 -3.82454 -3
    endloop
  endfacet
  facet normal 0.995562 -0.0941101 0
    outer loop
      vertex 5.95269 -0.751999 0
      vertex 5.98816 -0.376742 -3
      vertex 5.98816 -0.376742 0
    endloop
  endfacet
  facet normal 0.995562 -0.0941101 0
    outer loop
      vertex 5.98816 -0.376742 -3
      vertex 5.95269 -0.751999 0
      vertex 5.95269 -0.751999 -3
    endloop
  endfacet
  facet normal 0.975917 -0.218144 0
    outer loop
      vertex 5.8115 -1.49214 0
      vertex 5.89372 -1.12429 -3
      vertex 5.89372 -1.12429 0
    endloop
  endfacet
  facet normal 0.975917 -0.218144 0
    outer loop
      vertex 5.89372 -1.12429 -3
      vertex 5.8115 -1.49214 0
      vertex 5.8115 -1.49214 -3
    endloop
  endfacet
  facet normal -0.612907 -0.790155 0
    outer loop
      vertex -3.82454 -4.62308 -3
      vertex -3.52671 -4.8541 0
      vertex -3.82454 -4.62308 0
    endloop
  endfacet
  facet normal -0.612907 -0.790155 -0
    outer loop
      vertex -3.52671 -4.8541 0
      vertex -3.82454 -4.62308 -3
      vertex -3.52671 -4.8541 -3
    endloop
  endfacet
  facet normal -0.509042 -0.860742 0
    outer loop
      vertex -3.21496 -5.06597 -3
      vertex -2.89052 -5.25784 0
      vertex -3.21496 -5.06597 0
    endloop
  endfacet
  facet normal -0.509042 -0.860742 -0
    outer loop
      vertex -2.89052 -5.25784 0
      vertex -3.21496 -5.06597 -3
      vertex -2.89052 -5.25784 -3
    endloop
  endfacet
  facet normal -0.338739 -0.94088 0
    outer loop
      vertex -2.20875 -5.57866 -3
      vertex -1.8541 -5.70634 0
      vertex -2.20875 -5.57866 0
    endloop
  endfacet
  facet normal -0.338739 -0.94088 -0
    outer loop
      vertex -1.8541 -5.70634 0
      vertex -2.20875 -5.57866 -3
      vertex -1.8541 -5.70634 -3
    endloop
  endfacet
  facet normal -0.218144 -0.975917 0
    outer loop
      vertex -1.49214 -5.8115 -3
      vertex -1.12429 -5.89372 0
      vertex -1.49214 -5.8115 0
    endloop
  endfacet
  facet normal -0.218144 -0.975917 -0
    outer loop
      vertex -1.12429 -5.89372 0
      vertex -1.49214 -5.8115 -3
      vertex -1.12429 -5.89372 -3
    endloop
  endfacet
  facet normal -0.0941101 -0.995562 0
    outer loop
      vertex -0.751999 -5.95269 -3
      vertex -0.376742 -5.98816 0
      vertex -0.751999 -5.95269 0
    endloop
  endfacet
  facet normal -0.0941101 -0.995562 -0
    outer loop
      vertex -0.376742 -5.98816 0
      vertex -0.751999 -5.95269 -3
      vertex -0.376742 -5.98816 -3
    endloop
  endfacet
  facet normal -0.891007 -0.453991 0
    outer loop
      vertex -5.25784 -2.89052 -3
      vertex -5.42896 -2.55468 0
      vertex -5.42896 -2.55468 -3
    endloop
  endfacet
  facet normal -0.891007 -0.453991 0
    outer loop
      vertex -5.42896 -2.55468 0
      vertex -5.25784 -2.89052 -3
      vertex -5.25784 -2.89052 0
    endloop
  endfacet
  facet normal -0.960294 -0.278991 0
    outer loop
      vertex -5.70634 -1.8541 -3
      vertex -5.8115 -1.49214 0
      vertex -5.8115 -1.49214 -3
    endloop
  endfacet
  facet normal -0.960294 -0.278991 0
    outer loop
      vertex -5.8115 -1.49214 0
      vertex -5.70634 -1.8541 -3
      vertex -5.70634 -1.8541 0
    endloop
  endfacet
endsolid OpenSCAD_Model
